<svg version="1.1" id="Layer_1" xmlns="http://www.w3.org/2000/svg" xmlns:xlink="http://www.w3.org/1999/xlink" x="0px" y="0px" viewBox="0 0 500 500" style="width: 166px;" xml:space="preserve" data-imageid="sad-face-3" imageName="Sad Face" class="illustrations_image">
<style type="text/css">
	.st0_sad-face-3{fill:#D1D3D4;}
	.st1_sad-face-3{fill:#231F20;}
	.st2_sad-face-3{fill:#FFFFFF;}
	.st3_sad-face-3{fill:#68E1FD;}
</style>
<g id="Shadow_sad-face-3">
	<ellipse class="st0_sad-face-3" cx="261.1" cy="397" rx="89.6" ry="10.6"/>
</g>
<g id="Character_sad-face-3">
	<path class="st1_sad-face-3" d="M336.7,338.9h-0.3c-3.1-0.2-5.5-2.8-5.3-5.9c0,0,0,0,0,0l7.9-147.2c0.1-3.1,2.6-5.5,5.7-5.5&#10;&#9;&#9;c3.1,0.1,5.5,2.6,5.5,5.7c0,0.1,0,0.2,0,0.3l-7.9,147.2C342.1,336.5,339.6,338.9,336.7,338.9z"/>
	<path class="st1_sad-face-3" d="M151.3,285.2c-2.8,0-5.5-0.5-8.1-1.5c-10.2-4-13.5-10.6-14.5-15.5c-3.6-17.6,17.7-39,20.1-41.4&#10;&#9;&#9;c2.2-2.2,5.8-2.1,7.9,0.1s2.1,5.8-0.1,7.9c-7.5,7.4-18.8,22.4-17,31.2c0.2,1.1,0.9,4.6,7.6,7.3c12.1,4.7,36.5-14.5,49.1-27.8&#10;&#9;&#9;c2.2-2.2,5.7-2.2,7.9-0.1c2.1,2.1,2.2,5.5,0.2,7.8C201.1,256.8,173.5,285.2,151.3,285.2z"/>
	<path class="st2_sad-face-3" d="M178.1,165.6c0,0-12.6-6-15.8,4.6s-3.9,42.2-6.8,45.8s-10.1,9.5-10.1,9.5l13.6,27l30.2-13.6&#10;&#9;&#9;C189,238.9,178.6,180.2,178.1,165.6z"/>
	<path class="st1_sad-face-3" d="M158.8,253.2c-0.3,0-0.5-0.2-0.6-0.4l-13.6-27c-0.1-0.3-0.1-0.7,0.2-0.9c0.1-0.1,7.1-5.9,10-9.4&#10;&#9;&#9;c1.4-1.7,2.4-11.5,3.3-21.1s1.9-19.3,3.5-24.4c0.7-2.6,2.5-4.8,4.9-6c5.1-2.2,11.6,0.8,11.9,0.9c0.2,0.1,0.4,0.4,0.4,0.6&#10;&#9;&#9;c0.5,14.4,10.8,72.6,10.9,73.2c0.1,0.3-0.1,0.6-0.4,0.8l-30.1,13.6C159,253.2,158.9,253.2,158.8,253.2z M146.2,225.7l13,25.8l29-13&#10;&#9;&#9;c-1-6-10.2-58-10.8-72.4c-1.4-0.6-6.5-2.4-10.3-0.8c-2.1,1-3.6,2.9-4.1,5.1c-1.5,5-2.5,14.8-3.4,24.2c-1.2,12.3-2,19.9-3.6,21.8&#10;&#9;&#9;C153.4,219.6,147.8,224.3,146.2,225.7z"/>
	<path class="st1_sad-face-3" d="M246.8,369.8c-2.8,0-5.1-2-5.5-4.8l-17.6-115.2c-0.5-3,1.5-5.9,4.6-6.5c3-0.5,5.9,1.5,6.5,4.6&#10;&#9;&#9;c0,0.1,0,0.1,0,0.2l17.6,115.2c0.5,3.1-1.6,5.9-4.7,6.4c0,0,0,0,0,0C247.3,369.7,247.1,369.8,246.8,369.8z"/>
	<path class="st1_sad-face-3" d="M280,369.8c-0.2,0-0.4,0-0.6,0c-3.1-0.3-5.3-3.1-4.9-6.2c0,0,0,0,0,0c4.1-35.5,10.4-93.6,10.2-100.6&#10;&#9;&#9;c-0.6-3,1.3-6,4.4-6.6c2.1-0.4,4.3,0.4,5.6,2.2c1.6,2.3,2.1,3-3.5,55.8c-2.7,25.1-5.6,50.2-5.6,50.5&#10;&#9;&#9;C285.2,367.6,282.8,369.7,280,369.8z M285.5,264.9L285.5,264.9z"/>
	<circle class="st3_sad-face-3 targetColor" cx="258.8" cy="203.2" r="91.6" style="fill: rgb(104, 225, 253);"/>
	<path class="st1_sad-face-3" d="M258.9,111.5c50.6,0,91.6,41.1,91.6,91.7c0,50.6-41.1,91.6-91.7,91.6c-50.6,0-91.6-41.1-91.6-91.7&#10;&#9;&#9;c0-43.7,30.9-81.3,73.8-89.9C246.8,112.1,252.9,111.5,258.9,111.5 M258.9,110.1L258.9,110.1c-6.1,0-12.2,0.6-18.2,1.8&#10;&#9;&#9;c-50.3,10.1-83,59-72.9,109.4c10.1,50.3,59,83,109.4,72.9s83-59,72.9-109.4C341.3,141.4,303.2,110.1,258.9,110.1z"/>
	
		<ellipse transform="matrix(0.9809 -0.1946 0.1946 0.9809 -31.9089 47.2637)" class="st1_sad-face-3" cx="224.6" cy="186.1" rx="7.3" ry="17.3"/>
	
		<ellipse transform="matrix(0.9809 -0.1946 0.1946 0.9809 -28.4957 58.554)" class="st1_sad-face-3" cx="283.8" cy="174.3" rx="7.3" ry="17.3"/>
	<path class="st1_sad-face-3" d="M220,272c-1,0-1.8-0.7-2-1.7c-2.1-10.8,1.4-22,9.8-31.5c8.3-9.4,20.5-16.1,34.4-18.8&#10;&#9;&#9;c28.7-5.7,55.7,7.6,60,29.6c0.3,1.1-0.4,2.3-1.5,2.6s-2.3-0.4-2.6-1.5c0-0.1,0-0.2-0.1-0.3c-3.9-19.8-28.7-31.6-55.1-26.4&#10;&#9;&#9;c-12.9,2.6-24.3,8.8-32,17.5c-7.6,8.5-10.7,18.4-8.9,27.9c0.2,1.1-0.5,2.2-1.6,2.5C220.3,272,220.2,272,220,272z"/>
	<path class="st2_sad-face-3" d="M146.8,222.3L162,253c0.9,1.8,0.2,4.1-1.7,5l-4,2c-1.8,0.9-4.1,0.2-5-1.7l-15.2-30.7c-0.9-1.8-0.2-4.1,1.7-5&#10;&#9;&#9;l4-2C143.7,219.7,145.9,220.4,146.8,222.3z"/>
	<path class="st1_sad-face-3" d="M155.3,260.5c-2.3,0-4.3-1.3-5.3-3.3l0,0l-13.9-28c-1.4-2.9-0.2-6.5,2.7-7.9l1.4-0.7c2.9-1.5,6.5-0.3,7.9,2.6&#10;&#9;&#9;c0,0,0,0,0,0l13.9,28c1.4,2.9,0.2,6.5-2.7,7.9l-1.4,0.7C157.1,260.3,156.2,260.5,155.3,260.5z M151.3,256.6c1.1,2.2,3.8,3.1,6,2&#10;&#9;&#9;l1.4-0.7c2.2-1.1,3.1-3.8,2-6c0,0,0,0,0,0l-13.9-28c-1.1-2.2-3.8-3.1-6-2c0,0,0,0,0,0l-1.4,0.7c-2.2,1.1-3.1,3.8-2,6c0,0,0,0,0,0&#10;&#9;&#9;L151.3,256.6z"/>
	
		<ellipse transform="matrix(0.9809 -0.1946 0.1946 0.9809 -37.2614 42.3406)" class="st2_sad-face-3" cx="196.9" cy="210.8" rx="11.1" ry="7.1"/>
	
		<ellipse transform="matrix(0.9809 -0.1946 0.1946 0.9809 -30.1667 66.1623)" class="st2_sad-face-3" cx="321.7" cy="186.6" rx="11.1" ry="7.1"/>
	<path class="st1_sad-face-3" d="M206.6,181.6c-1.2,0-2.1-1-2.1-2.1c0-0.8,0.5-1.5,1.2-1.9c0.2-0.1,18.1-8.2,20.3-19.7c0.2-1.1,1.3-1.9,2.5-1.7&#10;&#9;&#9;c1.1,0.2,1.9,1.3,1.7,2.5c-2.6,13.7-21.9,22.4-22.7,22.7C207.2,181.6,206.9,181.6,206.6,181.6z"/>
	<path class="st1_sad-face-3" d="M297,164.2L297,164.2c-0.9,0-22.1-0.7-29.7-12.3c-0.6-1-0.4-2.3,0.6-2.9c1-0.6,2.3-0.4,2.9,0.6&#10;&#9;&#9;c6.4,9.8,26.1,10.4,26.2,10.4c1.2,0,2.1,0.9,2.1,2.1C299.2,163.3,298.2,164.2,297,164.2L297,164.2z"/>
	<path class="st2_sad-face-3" d="M160.1,219c0,0-0.5-24.1,5.1-32.9s17.8-12.1,15.2-2.6s-9.8,20.8-9.8,20.8s5.3,20.2-1.3,32.3"/>
	<path class="st1_sad-face-3" d="M169.3,237.3c-0.4,0-0.7-0.3-0.7-0.7c0-0.1,0-0.2,0.1-0.3c6.4-11.7,1.3-31.6,1.2-31.8c0-0.2,0-0.4,0.1-0.6&#10;&#9;&#9;c0.1-0.1,7.2-11.4,9.7-20.6c0.5-1.7,0.7-3.8-0.9-4.6c-2.8-1.2-9.4,2.1-13,7.7c-5.4,8.5-5,32.3-5,32.5c0,0.4-0.3,0.7-0.7,0.7l0,0&#10;&#9;&#9;c-0.4,0-0.7-0.3-0.7-0.7c0-1-0.4-24.4,5.2-33.3c3.8-5.9,11-10,14.8-8.3c1.1,0.5,2.9,2,1.7,6.2c-2.4,8.8-8.6,18.9-9.7,20.7&#10;&#9;&#9;c0.7,2.7,4.8,21-1.4,32.5C169.8,237.2,169.6,237.3,169.3,237.3z"/>
	<path class="st2_sad-face-3" d="M350.7,309.8c0,0-3.8,21.5-4.2,28.2s-10.4,32.9-23.3,34.5s6.5-12.9,6.2-22.4s-7.6-1.1-10.4,8.8s-8-0.5-5.6-9.5&#10;&#9;&#9;s3.7-9.2,4.5-16.7s-0.5-31.5-0.5-31.5L350.7,309.8z"/>
	<path class="st1_sad-face-3" d="M321.5,373.3c-1.6,0-2.7-0.4-3.2-1.2c-1.1-1.8,1-4.8,3.9-8.9s6.5-9.2,6.4-13c-0.1-2.5-0.6-3.4-1.1-3.4&#10;&#9;&#9;c-1.7-0.2-5.8,5-7.8,12.4c-1.2,4.3-2.8,4.8-4,4.5c-2.8-0.8-4.8-7.9-3-14.4c1-3.7,1.8-5.9,2.4-7.7c1.1-2.8,1.8-5.8,2-8.9&#10;&#9;&#9;c0.8-7.3-0.5-31.2-0.5-31.4c0-0.2,0.1-0.5,0.3-0.6c0.2-0.1,0.4-0.2,0.6-0.1l33.4,8.7c0.4,0.1,0.6,0.4,0.5,0.8&#10;&#9;&#9;c0,0.2-3.8,21.6-4.2,28.2s-10.4,33.5-23.9,35.1C322.7,373.3,322.1,373.3,321.5,373.3z M327.5,345.2h0.2c1.5,0.2,2.3,1.8,2.4,4.8&#10;&#9;&#9;c0.1,4.4-3.5,9.4-6.6,13.9c-2.1,3-4.5,6.3-3.9,7.4c0.1,0.2,0.8,0.7,3.5,0.4c12.5-1.5,22.3-27.7,22.6-33.8s3.5-24,4.1-27.7&#10;&#9;&#9;l-31.8-8.3c0.2,4.7,1.2,24,0.5,30.7c-0.3,3.1-1,6.2-2.1,9.2c-0.6,1.8-1.4,4-2.4,7.6c-1.6,6.1,0.4,12.2,2,12.6&#10;&#9;&#9;c0.5,0.1,1.4-0.7,2.2-3.5C320.1,352.2,324.3,345.2,327.5,345.2z"/>
	<path class="st2_sad-face-3" d="M354.6,316.2l-39.1-10.6c-2.1-0.6-3.4-2.8-2.8-4.9l1-3.8c0.6-2.1,2.8-3.4,4.9-2.8l39.1,10.6&#10;&#9;&#9;c2.1,0.6,3.4,2.8,2.8,4.9l-1,3.8C358.9,315.5,356.7,316.8,354.6,316.2z"/>
	<path class="st1_sad-face-3" d="M354.5,316.7c-0.6,0-1.1-0.1-1.6-0.2l-36.1-9.8c-3.4-0.9-5.3-4.4-4.4-7.7l0.2-0.7c0.9-3.4,4.4-5.3,7.7-4.4l0,0&#10;&#9;&#9;l36.1,9.8c3.4,0.9,5.3,4.4,4.4,7.7l-0.2,0.7C359.8,314.8,357.3,316.7,354.5,316.7z M318.6,295c-2.2,0-4.1,1.5-4.7,3.6l-0.2,0.7&#10;&#9;&#9;c-0.7,2.6,0.8,5.3,3.4,6c0,0,0,0,0,0l36.1,9.8c2.6,0.7,5.3-0.8,6-3.4c0,0,0,0,0,0l0.2-0.7c0.7-2.6-0.8-5.3-3.4-6c0,0,0,0,0,0&#10;&#9;&#9;l-36.1-9.8C319.5,295.1,319,295,318.6,295z"/>
	<path class="st2_sad-face-3" d="M261.1,345.9c0,0-39.5-7.7-39.8-3.9s1.3,35.4,1.3,35.4s-37.8,20.3-32,22.9s70.5-9.4,70.5-9.4L261.1,345.9z"/>
	<path class="st1_sad-face-3" d="M193.8,401.3c-1.2,0.1-2.4-0.1-3.6-0.4c-0.6-0.2-1-0.8-1-1.4c0-0.9-0.1-3.2,16.6-13.4c7.1-4.3,14.2-8.2,16-9.2&#10;&#9;&#9;c-0.2-4-1.6-31.4-1.3-35c0-0.4,0.2-0.8,0.6-1c3.6-2.8,34.1,3,40.1,4.2c0.3,0.1,0.6,0.4,0.6,0.7v45c0,0.4-0.3,0.7-0.6,0.7&#10;&#9;&#9;C255.3,392.7,208.1,401.3,193.8,401.3z M225.2,341.6c-1.8,0-3,0.2-3.3,0.5c-0.3,3.7,1.3,34.9,1.3,35.2c0,0.3-0.1,0.5-0.4,0.7&#10;&#9;&#9;c-15.9,8.5-32.3,18.9-32.2,21.5c0,0,0.1,0.1,0.2,0.1c4.5,2,51.1-5.9,69.5-9.3v-43.8C246.4,343.7,231.7,341.6,225.2,341.6z"/>
	<path class="st2_sad-face-3" d="M265.4,345.9c0,0,39.5-7.7,39.8-3.9s-1.2,35.4-1.2,35.4s37.8,20.3,32,22.9s-70.5-9.4-70.5-9.4L265.4,345.9z"/>
	<path class="st1_sad-face-3" d="M332.7,401.3c-14.2,0-61.4-8.6-67.4-9.7c-0.3-0.1-0.6-0.4-0.6-0.7v-45c0-0.3,0.3-0.6,0.6-0.7&#10;&#9;&#9;c6.1-1.2,36.5-7,40.1-4.2c0.3,0.2,0.5,0.6,0.6,1c0.3,3.7-1.1,31-1.3,35c6.4,3.4,32.7,18,32.6,22.6c0,0.6-0.4,1.2-1,1.4&#10;&#9;&#9;C335.1,401.3,333.9,401.4,332.7,401.3z M266.1,390.3c18.4,3.4,65,11.3,69.5,9.3c0.1-0.1,0.2-0.1,0.2-0.1&#10;&#9;&#9;c0.1-2.5-16.3-12.9-32.2-21.5c-0.2-0.1-0.4-0.4-0.4-0.7c0-0.3,1.6-31.5,1.3-35.3c-1.4-1.6-20.5,0.9-38.4,4.4V390.3z"/>
</g>
<g id="Gloom_sad-face-3">
	<path class="st2_sad-face-3" d="M162.1,102.6c-2.3-4-7.7-5.3-12.1-4.2s-8.1,4.2-11.3,7.5c-1,0.9-1.8,2.1-2,3.4c-0.1,1.3,1.2,2.8,2.5,2.4&#10;&#9;&#9;c-6.1-1.1-11.2,4.8-13.9,10.4c-1.3,2.8-2.5,6-1.2,8.8s4.7,4.2,7.8,4.5c6,0.6,12-1.1,16.7-4.8c6,5.9,15.8,5.9,21.7-0.2&#10;&#9;&#9;c1.7-1.7,2.9-3.8,3.7-6.1c-1.2,0.7,0.7,2.2,2,2.3c3.3,0.2,6.8,0.4,9.9-0.9c7.1-2.8,7.9-19.9,3.2-25.4&#10;&#9;&#9;C184,94.5,165.3,94.8,162.1,102.6z"/>
	<path class="st0_sad-face-3" d="M134.3,136.2c-0.9,0-1.7-0.1-2.6-0.1c-4.1-0.5-7.2-2.3-8.4-5c-1.4-3.2-0.1-6.7,1.2-9.4&#10;&#9;&#9;c1.2-2.5,5.3-10,11.7-10.9c-0.3-0.5-0.4-1.1-0.4-1.7c0.3-1.5,1-2.9,2.2-3.9c2.8-2.9,6.7-6.4,11.7-7.7c4.1-1,9.4-0.1,12.2,3.5&#10;&#9;&#9;c1.7-2.6,5.3-4.5,10.1-5.2c6.2-1,14.2,0.1,17.5,4c3,3.5,4,11.5,2.4,18.2c-1.1,4.3-3.1,7.3-5.8,8.4c-3.3,1.3-7,1.1-10.2,0.9&#10;&#9;&#9;c-0.8-0.1-1.5-0.4-2.1-0.8c-3.8,8-13.4,11.4-21.4,7.6c-1.4-0.7-2.8-1.6-3.9-2.6C144.3,134.6,139.4,136.2,134.3,136.2z M137.6,112.2&#10;&#9;&#9;c-5,0-9.4,5.1-11.8,10.2c-1.2,2.4-2.4,5.6-1.2,8.2c1.4,3.1,5.5,3.9,7.2,4.1c5.8,0.6,11.6-1,16.1-4.7c0.3-0.3,0.7-0.3,1,0&#10;&#9;&#9;c5.8,5.7,15,5.6,20.7-0.2c1.3-1.4,2.4-3,3.1-4.7c-0.1-0.6,0.2-1.2,0.7-1.4c0.3-0.2,0.8-0.1,1,0.2c0.1,0.2,0.1,0.4,0.1,0.6&#10;&#9;&#9;c-0.1,0.2-0.1,0.4-0.2,0.6c0.4,0.4,1,0.7,1.6,0.8c3.1,0.2,6.6,0.4,9.6-0.8c2.2-0.9,4-3.5,5-7.4c1.5-6.2,0.6-13.8-2.1-16.9&#10;&#9;&#9;s-9.5-4.5-16.1-3.5c-4.9,0.8-8.4,2.8-9.5,5.5c-0.1,0.3-0.3,0.4-0.6,0.4c-0.3,0-0.5-0.1-0.7-0.4c-2.2-3.8-7.4-4.9-11.3-3.9&#10;&#9;&#9;c-4.6,1.1-8.3,4.5-11,7.3c-0.9,0.8-1.6,1.8-1.8,3c0,0.6,0.2,1.1,0.7,1.4l0,0c0.4,0,0.8,0.1,1.2,0.1c0.3,0.1,0.6,0.3,0.6,0.7&#10;&#9;&#9;c0,0.3-0.2,0.6-0.5,0.7C138.9,112.4,138.3,112.4,137.6,112.2L137.6,112.2z"/>
	<path class="st0_sad-face-3" d="M173.5,125.1c-0.8,0-1.6-0.1-2.4-0.2c-2.9-0.4-6.5-1.6-7.6-4.8c-0.1-0.4,0.1-0.8,0.5-0.9s0.8,0.1,0.9,0.5&#10;&#9;&#9;c0.8,2.6,4.4,3.5,6.4,3.8c1.5,0.3,3.1,0.2,4.5-0.2c1.2-0.5,2.2-1.3,3-2.3c1.2-1.5,2.2-3.1,2.8-4.9c0.1-0.4,0.5-0.6,0.9-0.4&#10;&#9;&#9;c0,0,0,0,0,0c0.4,0.1,0.6,0.5,0.4,0.9c-0.7,2-1.7,3.8-3.1,5.4c-0.9,1.2-2.2,2.2-3.6,2.8C175.5,125,174.5,125.1,173.5,125.1z"/>
	<path class="st2_sad-face-3" d="M324.8,100.5c-5.2-1.4-10.5,1.7-11.8,6.9c-1.2,4.6,1.1,9.4,5.5,11.4c1.1,0.3,2.2,0.9,3.1,1.6&#10;&#9;&#9;c0.6,0.7,1.2,1.4,1.6,2.2c2.9,4.7,9.2,6.6,14.6,5.5s10.1-4.7,13.7-8.9c-1,0.9-1,2.3-0.1,3.3c0.9,0.9,2,1.5,3.2,1.7&#10;&#9;&#9;c3.8,1,8.1,1.4,11.6-0.4s5.7-5.8,4.5-9.6c0.7,2.4,3.7,1.3,4.8,0.3c1.4-1.4,1.2-5.4,1-7.2c-0.7-5.4-5.8-11.1-11.7-10.6&#10;&#9;&#9;c-1.2,0.2-2.4,0.3-3.6,0.2c-1.9-0.4-3.2-2.3-5-3.2c-2.2-0.9-4.7-0.7-6.6,0.6c-1.9,1.3-3.6,3-4.9,4.9c-0.8-2-3.4-2.5-5.5-2.4&#10;&#9;&#9;c-5.6,0.1-8.8,1.2-12.6,4.8C326,101.2,325.4,100.8,324.8,100.5z"/>
	<path class="st0_sad-face-3" d="M334.6,129.1c-5,0-9.7-2.3-12.1-6.1c-0.1-0.2-0.2-0.4-0.4-0.6c-0.6-1.3-1.7-2.3-3.1-2.6&#10;&#9;&#9;c-0.3-0.1-0.6-0.2-0.9-0.4c-5.3-2.3-7.7-8.4-5.4-13.7c2.1-4.7,7.2-7.2,12.2-5.9l0,0c0.6,0.2,1.1,0.5,1.5,0.8l0,0&#10;&#9;&#9;c3.7-3.4,7-4.6,12.7-4.6c2.6,0,4.5,0.6,5.6,1.9c1.2-1.7,2.7-3.1,4.4-4.3c2.2-1.5,5-1.7,7.4-0.7c0.8,0.4,1.5,0.9,2.1,1.5&#10;&#9;&#9;c0.7,0.7,1.6,1.3,2.6,1.6c0.8,0.1,1.5,0.1,2.3-0.1c0.4,0,0.7-0.1,1.1-0.1c6.4-0.5,11.7,5.5,12.5,11.2c0,0.2,0.7,5.8-1.2,7.8&#10;&#9;&#9;c-1.1,1-2.6,1.5-4.1,1.2h-0.1c-0.1,3.5-2.1,6.7-5.2,8.2c-3.2,1.6-7.3,1.8-12.1,0.5c-1.4-0.3-2.6-1-3.6-2c-0.3-0.4-0.5-0.8-0.6-1.2&#10;&#9;&#9;c-3.8,3.8-8,6.3-12.2,7.1C336.8,129,335.7,129.1,334.6,129.1z M322.6,101c-5,0-9,4-9.1,8.9c0,3.5,2,6.7,5.2,8.2&#10;&#9;&#9;c0.3,0.1,0.5,0.2,0.8,0.3c0.9,0.3,1.8,0.7,2.5,1.3c0.5,0.5,1,1.2,1.4,1.9c0.1,0.2,0.2,0.4,0.3,0.5c2.6,4.2,8.3,6.3,13.9,5.2&#10;&#9;&#9;c4.4-0.9,8.8-3.7,12.7-8c0.2-0.3,0.4-0.6,0.7-0.8c0.3-0.3,0.8-0.3,1,0s0.3,0.8,0,1l0,0l-0.5,0.5c-0.1,0.1-0.1,0.2-0.1,0.4&#10;&#9;&#9;c-0.1,0.5,0.1,1.1,0.4,1.5c0.8,0.8,1.8,1.3,2.9,1.5c4.5,1.2,8.2,1.1,11.1-0.3c3.3-1.5,5.1-5.2,4.2-8.7l0,0&#10;&#9;&#9;c-0.1-0.4,0.1-0.8,0.5-0.9s0.8,0.1,0.9,0.5c0,0,0,0,0,0l0,0c0.1,0.4,0.4,0.8,0.8,0.9c1,0.1,2-0.2,2.7-0.9c1-1,1.1-4.5,0.8-6.6&#10;&#9;&#9;c-0.7-5.1-5.5-10.4-10.9-10c-0.3,0-0.7,0.1-1,0.1c-0.9,0.2-1.8,0.2-2.8,0c-1.2-0.4-2.4-1-3.3-1.9c-0.6-0.5-1.2-1-1.9-1.3&#10;&#9;&#9;c-2-0.8-4.2-0.6-5.9,0.6c-1.8,1.3-3.4,2.9-4.7,4.8c-0.2,0.3-0.7,0.4-1,0.1c-0.1-0.1-0.2-0.2-0.2-0.3c-0.7-1.8-3.4-2-4.8-2&#10;&#9;&#9;c-5.5,0.1-8.5,1.2-12.1,4.6c-0.2,0.2-0.6,0.3-0.9,0.1c-0.2-0.1-0.4-0.2-0.6-0.4c-0.3-0.3-0.7-0.5-1.1-0.6l0,0&#10;&#9;&#9;C324,101,323.3,101,322.6,101L322.6,101z"/>
	<path class="st0_sad-face-3" d="M352.9,120.2c-0.5,0-1,0-1.5-0.1c-4.6-0.7-8.4-4-9.7-8.5c-0.1-0.4,0.1-0.8,0.5-0.9c0.4-0.1,0.8,0.1,0.9,0.5&#10;&#9;&#9;c1.5,5.5,7.1,8.7,12.5,7.2c2.6-0.7,4.8-2.4,6.2-4.7c0.2-0.3,0.6-0.5,1-0.3c0,0,0,0,0,0c0.3,0.2,0.5,0.6,0.3,1c0,0,0,0,0,0&#10;&#9;&#9;C360.9,118,357,120.2,352.9,120.2z"/>
	<path class="st2_sad-face-3" d="M323.5,108.3c-0.5-3,1.5-5.9,4.6-6.4c1.1-0.2,2.3,0,3.3,0.4"/>
	<path class="st0_sad-face-3" d="M323.5,109c-0.3,0-0.6-0.2-0.7-0.6c-0.6-3.4,1.7-6.7,5.1-7.3c1.3-0.2,2.6-0.1,3.8,0.5c0.4,0.2,0.5,0.6,0.4,1&#10;&#9;&#9;s-0.6,0.5-1,0.4l0,0c-2.4-1.1-5.3-0.1-6.5,2.3c-0.4,0.9-0.6,1.9-0.4,2.9c0.1,0.4-0.2,0.8-0.6,0.8c0,0,0,0,0,0L323.5,109z"/>
	<path class="st0_sad-face-3" d="M150.2,140.9c0-0.4-0.3-0.7-0.7-0.7c-0.4,0-0.7,0.3-0.7,0.7l0.7,6.3c0,0.4,0.3,0.7,0.7,0.7&#10;&#9;&#9;c0.4,0,0.7-0.3,0.7-0.7L150.2,140.9z"/>
	<path class="st0_sad-face-3" d="M164.2,150c-0.2-0.3-0.6-0.4-1-0.2s-0.4,0.6-0.2,1c0.2,0.3,0.3,0.5,0.4,0.8l0.1,0.1c0-0.1,0-0.1,0,0&#10;&#9;&#9;s0.1,0.1,0.1,0.2l0.1,0.5c0.1,0.3,0.2,0.6,0.2,0.9c0,0,0,0.1,0,0.1l0,0c0,0.1,0,0.1,0,0.2c0,0.2,0,0.3,0,0.5c0,0.4,0.3,0.7,0.7,0.7&#10;&#9;&#9;c0.4,0,0.7-0.3,0.7-0.7C165.3,152.6,164.9,151.2,164.2,150z"/>
	<path class="st0_sad-face-3" d="M175.3,144.4c-0.2-1.1-0.4-2.1-0.5-3.1c-0.1-0.4-0.5-0.6-0.9-0.5s-0.6,0.5-0.5,0.9c0,0,0,0,0,0&#10;&#9;&#9;c0.2,1,0.4,2.1,0.5,3.1c0.1,0.4,0.5,0.6,0.9,0.5C175.2,145.1,175.4,144.8,175.3,144.4z"/>
	<path class="st0_sad-face-3" d="M337.2,140.7l-1-3.7c-0.1-0.4-0.5-0.6-0.9-0.5c-0.4,0.1-0.6,0.5-0.5,0.8l1,3.7c0.1,0.4,0.5,0.6,0.9,0.5&#10;&#9;&#9;C337,141.5,337.2,141.1,337.2,140.7C337.1,140.7,337.1,140.7,337.2,140.7L337.2,140.7z"/>
	<path class="st0_sad-face-3" d="M351.7,144.9c-0.4,0-0.7,0.3-0.7,0.7v4.2c0,0.4,0.3,0.7,0.7,0.7c0.4,0,0.7-0.3,0.7-0.7c0,0,0,0,0,0v-4.2&#10;&#9;&#9;C352.4,145.3,352.1,145,351.7,144.9z"/>
	<path class="st0_sad-face-3" d="M365.6,145.6c0-0.4-0.3-0.7-0.7-0.7c-0.3,0-0.8,0.3-0.7,0.7l0.8,6.4c0,0.4,0.3,0.7,0.7,0.7&#10;&#9;&#9;c0.4,0,0.7-0.3,0.7-0.7L365.6,145.6z"/>
	<path class="st0_sad-face-3" d="M359.1,176.5c-0.4,0-0.7,0.3-0.7,0.7c0,0,0,0,0,0v2.6c0,0.4,0.3,0.7,0.7,0.7c0.4,0,0.7-0.3,0.7-0.7&#10;&#9;&#9;c0,0,0,0,0,0v-2.6C359.8,176.8,359.5,176.5,359.1,176.5z"/>
	<path class="st0_sad-face-3" d="M373.5,191.2c-0.5-1.7-1.1-3.5-1.6-5.2c-0.1-0.4-0.5-0.6-0.9-0.5c-0.4,0.1-0.6,0.5-0.5,0.8&#10;&#9;&#9;c0.5,1.8,1,3.5,1.6,5.2c0.1,0.4,0.5,0.6,0.9,0.5C373.3,191.9,373.6,191.5,373.5,191.2z"/>
	<path class="st0_sad-face-3" d="M140,157.2c0-0.4-0.3-0.7-0.7-0.7c-0.4,0-0.7,0.3-0.7,0.7l0.5,4.7c0,0.4,0.3,0.7,0.7,0.7&#10;&#9;&#9;c0.4,0,0.7-0.3,0.7-0.7L140,157.2z"/>
	<path class="st0_sad-face-3" d="M146.9,187.5c-0.5-2-0.7-4.1-0.4-6.1c0-0.4-0.3-0.7-0.7-0.7c-0.4,0-0.7,0.3-0.7,0.7c-0.3,2.2-0.1,4.4,0.5,6.5&#10;&#9;&#9;c0.1,0.4,0.5,0.6,0.9,0.5C146.7,188.3,147,187.9,146.9,187.5z"/>
	<path class="st0_sad-face-3" d="M154.1,163.3c-0.4,0-0.7,0.3-0.7,0.7v3.1c0,0.4,0.3,0.7,0.7,0.7c0.4,0,0.7-0.3,0.7-0.7V164&#10;&#9;&#9;C154.8,163.6,154.5,163.3,154.1,163.3z"/>
</g>
</svg>