<svg width="101" height="109" viewBox="0 0 101 109" fill="none" xmlns="http://www.w3.org/2000/svg">
<path d="M47.7568 106.982C43.8321 106.219 39.9866 105.061 36.3273 103.541C32.761 102.059 29.3282 100.215 26.1242 98.0594C22.9783 95.9433 20.0212 93.5063 17.335 90.8161C14.6742 88.1514 12.2559 85.215 10.1471 82.0885C8.03823 78.962 6.22162 75.6198 4.7477 72.1545C3.25961 68.656 2.10783 65.0013 1.32436 61.2919C0.526371 57.5139 0.102479 53.6403 0.0644178 49.7786C0.0253583 45.8161 0.392365 41.817 1.15526 37.8923C1.91574 33.9799 3.06884 30.1461 4.58254 26.4971C6.05781 22.9408 7.89331 19.5166 10.0381 16.3197C12.1439 13.1808 14.5691 10.2289 17.2463 7.54593C19.8979 4.88858 22.82 2.47147 25.9316 0.36171C24.1282 4.61325 22.7622 9.09033 21.8721 13.6692C14.8941 49.5681 38.4227 84.4509 74.3214 91.4289C82.9262 93.1015 91.608 93.0745 100.126 91.3486C96.792 94.5903 93.073 97.4383 89.0722 99.8142C85.0561 102.199 80.763 104.104 76.3124 105.476C71.7828 106.872 67.0909 107.715 62.367 107.982C57.5014 108.257 52.5858 107.921 47.7568 106.982Z" fill="#FFEC8D"/>
</svg>
