<svg width="101" height="109" viewBox="0 0 101 109" fill="none" xmlns="http://www.w3.org/2000/svg">
<path d="M47.7568 106.982C43.8321 106.219 39.9867 105.061 36.3273 103.541C32.7611 102.059 29.3283 100.215 26.1243 98.0594C22.9784 95.9433 20.0213 93.5063 17.3351 90.8161C14.6743 88.1514 12.2559 85.215 10.1471 82.0885C8.03829 78.962 6.22168 75.6198 4.74776 72.1545C3.25968 68.656 2.1079 65.0013 1.32442 61.2919C0.526432 57.5139 0.10254 53.6403 0.0644788 49.7786C0.0254193 45.8161 0.392426 41.817 1.15532 37.8923C1.9158 33.9799 3.0689 30.1461 4.5826 26.4971C6.05787 22.9408 7.89337 19.5166 10.0381 16.3197C12.144 13.1808 14.5691 10.2289 17.2463 7.54593C19.8979 4.88858 22.8201 2.47147 25.9316 0.36171C24.1283 4.61325 22.7622 9.09033 21.8722 13.6692C14.8942 49.5681 38.4228 84.4509 74.3214 91.4289C82.9263 93.1015 91.6081 93.0745 100.126 91.3486C96.7921 94.5903 93.073 97.4383 89.0723 99.8142C85.0561 102.199 80.7631 104.104 76.3125 105.476C71.7829 106.872 67.091 107.715 62.3671 107.982C57.5014 108.257 52.5859 107.921 47.7568 106.982Z" fill="#FFEC8D"/>
</svg>
