<svg height="480pt" viewBox="0 0 480 480.09661" width="480pt" xmlns="http://www.w3.org/2000/svg" xmlns:xlink="http://www.w3.org/1999/xlink"><linearGradient id="a" gradientUnits="userSpaceOnUse" x1="239.652863" x2="239.652863" y1="480.096611" y2=".096611"><stop offset="0" stop-color="#12c2e9"/><stop offset=".5" stop-color="#c471ed"/><stop offset=".982" stop-color="#f64f59"/></linearGradient><path d="m403.347656 290.144531c35.902344-17.089843 63.296875-48.0625 75.863282-85.785156 1.117187-3.234375.046874-6.820313-2.65625-8.921875-2.703126-2.097656-6.441407-2.246094-9.300782-.363281-14.578125 9.421875-31.683594 14.164062-49.03125 13.597656-52.515625-.699219-94.5625-43.761719-94-96.277344.335938-40.542969 25.175782-76.84375 62.839844-91.851562 3.175781-1.203125 5.246094-4.289063 5.15625-7.683594-.085938-3.398437-2.3125-6.371094-5.550781-7.410156-15.027344-4.097657-30.589844-5.902344-46.160157-5.3515628-44.316406.7265628-86.085937 20.8437498-114.285156 55.0390628-28.195312 34.199219-39.984375 79.035156-32.25 122.679687-6.042968-1.121094-12.175781-1.699218-18.320312-1.71875-57.410156.066406-103.933594 46.589844-104 104 .007812 8.429688 1.054687 16.832032 3.121094 25.007813-45.417969 6.929687-77.859376 47.632812-74.488282 93.453125 3.371094 45.816406 41.425782 81.332031 87.367188 81.539062h296c49.175781-.015625 90.390625-37.1875 95.460937-86.101562 5.070313-48.910156-27.636719-93.75-75.765625-103.851563zm-192.222656-107.792969c-2.273438-9.925781-3.4375-20.074218-3.472656-30.253906-.773438-74.207031 58.652344-135.039062 132.855468-136 6.160157 0 12.753907.117188 19.296876.640625-31.878907 21.449219-51.164063 57.207031-51.582032 95.628907-.554687 61.351562 48.652344 111.574218 110 112.28125 12.726563.199218 25.394532-1.820313 37.429688-5.96875-17.265625 33.371093-48.316406 57.472656-84.925782 65.921874-.664062-1.816406-1.402343-3.601562-2.195312-5.359374-.09375-.203126-.175781-.402344-.269531-.601563-.710938-1.535156-1.46875-3.042969-2.273438-4.519531-.230469-.425782-.457031-.847656-.6875-1.265625-.714843-1.246094-1.457031-2.472657-2.222656-3.679688-.402344-.625-.800781-1.238281-1.210937-1.847656-.671876-.992187-1.359376-1.960937-2.070313-2.910156-.59375-.800781-1.191406-1.601563-1.808594-2.34375-.617187-.746094-1.214843-1.488281-1.847656-2.210938-.789063-.914062-1.589844-1.8125-2.398437-2.6875-.535157-.53125-1.066407-1.085937-1.601563-1.65625-.980469-.980469-1.992187-1.933593-3.03125-2.863281-.457031-.40625-.914063-.800781-1.375-1.214844-1.160156-1-2.351563-1.953125-3.570313-2.878906-.398437-.304688-.800781-.617188-1.191406-.914062-1.3125-.960938-2.648437-1.871094-4-2.75l-1.085937-.707032c-1.414063-.878906-2.863281-1.714844-4.347657-2.503906l-1.0625-.582031c-1.488281-.800781-3-1.480469-4.542968-2.160157-.375-.167968-.753906-.351562-1.128906-.511718-1.519532-.648438-3.070313-1.226563-4.632813-1.777344-.429687-.152344-.847656-.320312-1.277344-.464844-1.53125-.503906-3.074219-.941406-4.632812-1.359375-.496094-.128906-.976563-.289062-1.472657-.40625-1.519531-.378906-3.0625-.671875-4.617187-.960937-.550781-.105469-1.085937-.230469-1.597656-.320313-1.601563-.257812-3.152344-.425781-4.738281-.59375-.550782-.054687-1.085938-.140625-1.597657-.191406-2.265625-.167969-4.417969-.261719-6.585937-.261719-8.085938.011719-16.125 1.269532-23.832032 3.726563-.632812.199219-1.269531.351562-1.894531.570312-1.328125-2.859375-2.824219-5.601562-4.386719-8.304687-.367187-.625-.742187-1.242188-1.125-1.855469-1.359374-2.230469-2.796874-4.402344-4.304687-6.515625-.328125-.460938-.640625-.925781-.976563-1.382812-1.855468-2.503907-3.816406-4.925782-5.878906-7.238282-.34375-.386718-.714844-.746094-1.058594-1.121094-1.683593-1.839843-3.433593-3.613281-5.246093-5.320312-.738281-.695312-1.472657-1.375-2.230469-2.054688-1.601562-1.433593-3.273438-2.808593-4.960938-4.144531-1.066406-.800781-2.121093-1.65625-3.199218-2.449219-1.808594-1.3125-3.648438-2.574218-5.539063-3.773437-1.3125-.800781-2.664062-1.601563-4-2.402344-1.160156-.660156-2.332031-1.300781-3.511719-1.917969-1.464843-.800781-2.925781-1.53125-4.429687-2.234374-1.503906-.703126-3.113281-1.335938-4.679687-1.976563-1.144532-.40625-2.167969-.941406-3.273438-1.351563zm172.527344 281.746094h-296c-39.4375.164063-71.660156-31.449218-72.246094-70.882812-.585938-39.4375 30.683594-71.992188 70.109375-73 2.558594-.074219 4.921875-1.371094 6.367187-3.480469 1.441407-2.113281 1.789063-4.789063.929688-7.199219-11.40625-31.714844-3.636719-67.164062 19.992188-91.203125 23.628906-24.039062 58.9375-32.417969 90.847656-21.554687 2.015625.6875 4 1.4375 5.96875 2.269531 1.195312.503906 2.375 1.035156 3.535156 1.601563 1.71875.800781 3.417969 1.710937 5.074219 2.640624 1.261719.699219 2.503906 1.429688 3.71875 2.191407 1.808593 1.121093 3.574219 2.304687 5.289062 3.550781.796875.59375 1.597657 1.195312 2.398438 1.808594 2.214843 1.738281 4.390625 3.535156 6.398437 5.480468l.3125.320313c2.082032 1.992187 4.042969 4.105469 5.921875 6.296875.398438.464844.800781.933594 1.191407 1.40625 3.835937 4.667969 7.1875 9.714844 10 15.066406.3125.597656.625 1.207032.929687 1.816406 1.359375 2.707032 2.578125 5.484376 3.644531 8.316407.78125 2.089843 2.394532 3.757812 4.449219 4.617187.640625.203125 1.304687.328125 1.976563.367188 1.496093.265625 3.035156.089844 4.433593-.503906 8.378907-3.902344 17.511719-5.925782 26.757813-5.925782 1.863281 0 3.710937.085938 5.542968.246094.480469.039062.945313.128906 1.417969.175781 1.359375.152344 2.710938.304688 4.039063.535157.488281.089843.960937.21875 1.449218.3125 1.304688.257812 2.617188.53125 3.894532.875.449218.109374.878906.261718 1.328125.390624 1.296875.375 2.59375.800782 3.855469 1.222657.410156.144531.800781.320312 1.21875.480469 1.269531.488281 2.542968.992187 3.773437 1.601562.394531.175781.800781.375 1.152344.558594 1.226562.59375 2.402343 1.199218 3.617187 1.863281.390625.226563.800782.464844 1.167969.695313 1.128906.675781 2.246094 1.363281 3.335937 2.089843.421876.296875.839844.601563 1.253907.902344 1 .714844 1.992187 1.441406 2.945312 2.210937.488281.382813.953125.796876 1.433594 1.191407.796875.71875 1.664063 1.449219 2.460937 2.199219.535157.535156 1.070313 1.066406 1.601563 1.601562.65625.664062 1.304687 1.34375 1.929687 2.03125.621094.6875 1.238282 1.414062 1.839844 2.144531.46875.5625.933594 1.140625 1.390625 1.726563.6875.902344 1.359375 1.816406 2.007813 2.761718.296875.429688.59375.871094.878906 1.3125.738281 1.125 1.441406 2.269532 2.105469 3.445313l.457031.800781c.734375 1.351563 1.429688 2.726563 2.078125 4.144532l.152344.34375c1.433593 3.214843 2.605469 6.539062 3.496093 9.945312.304688 1.148438.632813 2.300781.863282 3.488281.871094 4.332031 5.09375 7.136719 9.425781 6.261719 29.859375-5.984375 60.527344 5.503906 79.105469 29.632812 18.582031 24.132813 21.847656 56.71875 8.429687 84.054688-13.417969 27.339844-41.195312 44.6875-71.648437 44.753906zm0 0" fill="url(#a)"/></svg>