<svg height="479pt" viewBox="0 -8 479.60456 479" width="479pt" xmlns="http://www.w3.org/2000/svg" xmlns:xlink="http://www.w3.org/1999/xlink"><linearGradient id="a"><stop offset="0" stop-color="#12c2e9"/><stop offset=".5" stop-color="#c471ed"/><stop offset=".982" stop-color="#f64f59"/></linearGradient><linearGradient id="b" gradientUnits="userSpaceOnUse" x1="239.604558" x2="239.604558" xlink:href="#a" y1="568.602239" y2="-68.893761"/><linearGradient id="c" gradientUnits="userSpaceOnUse" x1="135.604558" x2="135.604558" xlink:href="#a" y1="579.258239" y2="-69.093761"/><linearGradient id="d" gradientUnits="userSpaceOnUse" x1="199.604558" x2="199.604558" xlink:href="#a" y1="577.682239" y2="-70.677761"/><linearGradient id="e" gradientUnits="userSpaceOnUse" x1="263.604558" x2="263.604558" xlink:href="#a" y1="576.098239" y2="-72.253761"/><linearGradient id="f" gradientUnits="userSpaceOnUse" x1="327.604558" x2="327.604558" xlink:href="#a" y1="574.522239" y2="-73.837761"/><path d="m383.605469 112.3125c-3.832031.003906-7.660157.234375-11.464844.691406-10.324219-33.632812-41.355469-56.617187-76.535156-56.691406-8.757813-.007812-17.453125 1.445312-25.730469 4.296875-20.488281-44.300781-69.042969-68.378906-116.707031-57.871094-47.667969 10.507813-81.597657 52.765625-81.5625 101.574219.003906 8.433594 1.054687 16.835938 3.117187 25.007812-45.414062 6.933594-77.859375 47.636719-74.484375 93.453126 3.371094 45.820312 41.425781 81.335937 87.367188 81.539062 4.417969 0 8-3.578125 8-8 0-4.417969-3.582031-8-8-8-39.441407.167969-71.660157-31.445312-72.246094-70.882812-.585937-39.433594 30.683594-71.992188 70.109375-72.996094 2.554688-.078125 4.921875-1.371094 6.363281-3.484375 1.445313-2.109375 1.789063-4.785157.933594-7.195313-15.609375-45.363281 8.027344-94.863281 53.117187-111.238281 45.09375-16.375 94.984376 6.421875 112.121094 51.230469.777344 2.089844 2.386719 3.761718 4.449219 4.613281s4.382813.800781 6.40625-.132813c8.378906-3.894531 17.507813-5.914062 26.746094-5.914062 30.4375.054688 56.648437 21.496094 62.726562 51.320312.871094 4.335938 5.09375 7.140626 9.425781 6.265626 29.882813-6.039063 60.601563 5.4375 79.210938 29.585937 18.605469 24.152344 21.871094 56.78125 8.414062 84.136719-13.453124 27.359375-41.289062 44.691406-71.777343 44.691406h-8c-4.417969 0-8 3.582031-8 8 0 4.421875 3.582031 8 8 8h8c53.019531 0 96-42.980469 96-96s-42.980469-96-96-96zm0 0" fill="url(#b)"/><path d="m159.605469 412.3125v-192c0-13.253906-10.746094-24-24-24-13.253907 0-24 10.746094-24 24v192c0 13.257812 10.746093 24 24 24 13.253906 0 24-10.742188 24-24zm-32 0v-192c0-4.417969 3.582031-8 8-8s8 3.582031 8 8v192c0 4.421875-3.582031 8-8 8s-8-3.578125-8-8zm0 0" fill="url(#c)"/><path d="m223.605469 440.3125v-240c0-13.253906-10.746094-24-24-24-13.253907 0-24 10.746094-24 24v240c0 13.257812 10.746093 24 24 24 13.253906 0 24-10.742188 24-24zm-32 0v-240c0-4.417969 3.582031-8 8-8s8 3.582031 8 8v240c0 4.421875-3.582031 8-8 8s-8-3.578125-8-8zm0 0" fill="url(#d)"/><path d="m287.605469 416.3125v-192c0-13.253906-10.746094-24-24-24-13.253907 0-24 10.746094-24 24v192c0 13.257812 10.746093 24 24 24 13.253906 0 24-10.742188 24-24zm-32 0v-192c0-4.417969 3.582031-8 8-8s8 3.582031 8 8v192c0 4.421875-3.582031 8-8 8s-8-3.578125-8-8zm0 0" fill="url(#e)"/><path d="m351.605469 440.3125v-240c0-13.253906-10.746094-24-24-24-13.253907 0-24 10.746094-24 24v240c0 13.257812 10.746093 24 24 24 13.253906 0 24-10.742188 24-24zm-32 0v-240c0-4.417969 3.582031-8 8-8s8 3.582031 8 8v240c0 4.421875-3.582031 8-8 8s-8-3.578125-8-8zm0 0" fill="url(#f)"/></svg>