<svg height="479pt" viewBox="0 -40 479.61325 479" width="479pt" xmlns="http://www.w3.org/2000/svg" xmlns:xlink="http://www.w3.org/1999/xlink"><linearGradient id="a"><stop offset="0" stop-color="#12c2e9"/><stop offset=".5" stop-color="#c471ed"/><stop offset=".982" stop-color="#f64f59"/></linearGradient><linearGradient id="b" gradientUnits="userSpaceOnUse" x1="239.604558" x2="239.604558" xlink:href="#a" y1="498.405266" y2="-53.674734"/><linearGradient id="c" gradientUnits="userSpaceOnUse" x1="191.604558" x2="191.604558" xlink:href="#a" y1="505.717266" y2="-53.594734"/><linearGradient id="d" gradientUnits="userSpaceOnUse" x1="311.604558" x2="311.604558" xlink:href="#a" y1="502.821266" y2="-57.386734"/><linearGradient id="e" gradientUnits="userSpaceOnUse" x1="311.604558" x2="311.604558" xlink:href="#a" y1="502.773266" y2="-57.354734"/><path d="m87.605469 304.300781c4.417969 0 8-3.582031 8-8s-3.582031-8-8-8c-39.441407.171875-71.667969-31.441406-72.257813-70.878906-.585937-39.4375 30.683594-71.996094 70.113282-73 2.558593-.074219 4.929687-1.363281 6.375-3.476563 1.449218-2.113281 1.796874-4.792968.9375-7.203124-15.878907-45.445313 7.742187-95.207032 52.988281-111.632813 45.246093-16.429687 95.292969 6.585937 112.265625 51.632813.777344 2.085937 2.386718 3.757812 4.445312 4.609374 2.0625.847657 4.378906.800782 6.402344-.128906 8.375-3.894531 17.496094-5.914062 26.730469-5.921875 30.4375.054688 56.648437 21.496094 62.734375 51.320313.871094 4.332031 5.09375 7.136718 9.425781 6.265625 29.882813-6.039063 60.601563 5.4375 79.210937 29.589843 18.609376 24.148438 21.871094 56.777344 8.414063 84.136719s-41.296875 44.6875-71.785156 44.6875h-8c-4.417969 0-8 3.582031-8 8s3.582031 8 8 8h8c35.671875.003907 68.402343-19.773437 84.992187-51.351562s14.304688-69.753907-5.9375-99.125c-20.242187-29.371094-55.101562-45.097657-90.519531-40.835938-10.320313-33.632812-41.355469-56.617187-76.535156-56.6875-8.757813-.003906-17.457031 1.449219-25.738281 4.296875-20.492188-44.292968-69.042969-68.359375-116.699219-57.855468-47.660157 10.507812-81.589844 52.757812-81.5625 101.558593.003906 8.433594 1.054687 16.832031 3.117187 25.007813-45.414062 6.929687-77.859375 47.632812-74.484375 93.453125 3.371094 45.820312 41.425781 81.332031 87.367188 81.539062zm0 0" fill="url(#b)"/><path d="m166.003906 399.703125c.964844.394531 1.996094.601563 3.039063.597656 2.695312 0 5.210937-1.355469 6.691406-3.609375l94.582031-144c1.617188-2.460937 1.75-5.609375.347656-8.199218-1.402343-2.589844-4.113281-4.199219-7.058593-4.191407h-53.753907l13.511719-54.0625c.597657-2.390625.058594-4.921875-1.457031-6.859375-1.515625-1.941406-3.839844-3.078125-6.300781-3.078125h-64c-3.441407.003907-6.496094 2.207031-7.585938 5.472657l-32 96c-.8125 2.4375-.402343 5.117187 1.101563 7.203124 1.5 2.085938 3.914062 3.324219 6.484375 3.324219h62.222656l-20.625 102.402344c-.765625 3.761719 1.25 7.539063 4.800781 9zm-35.296875-127.402344 26.664063-80h48l-13.527344 54.066407c-.59375 2.386718-.058594 4.917968 1.457031 6.859374 1.515625 1.941407 3.839844 3.074219 6.304688 3.074219h49.167969l-63.738282 97.046875 14.402344-71.46875c.472656-2.351562-.132812-4.789062-1.652344-6.640625-1.515625-1.855469-3.785156-2.933593-6.179687-2.9375zm0 0" fill="url(#c)"/><path d="m351.605469 344.300781c0-25.390625-29.671875-78.046875-33.058594-84-1.539063-2.332031-4.148437-3.738281-6.941406-3.738281-2.796875 0-5.40625 1.40625-6.945313 3.738281-3.382812 5.953125-33.054687 58.609375-33.054687 84 0 22.09375 17.90625 40 40 40 22.089843 0 40-17.90625 40-40zm-64 0c0-14.144531 13.902343-43.910156 24-63.246093 10.09375 19.335937 24 49.101562 24 63.246093 0 13.253907-10.746094 24-24 24-13.253907 0-24-10.746093-24-24zm0 0" fill="url(#d)"/><path d="m311.605469 160.300781c-22.09375 0-40 17.910157-40 40 0 22.09375 17.90625 40 40 40 22.089843 0 40-17.90625 40-40-.027344-22.078125-17.921875-39.972656-40-40zm0 64c-13.253907 0-24-10.746093-24-24 0-13.253906 10.746093-24 24-24 13.253906 0 24 10.746094 24 24 0 13.253907-10.746094 24-24 24zm0 0" fill="url(#e)"/></svg>