<svg height="480pt" viewBox="0 -8 480 480" width="480pt" xmlns="http://www.w3.org/2000/svg" xmlns:xlink="http://www.w3.org/1999/xlink"><linearGradient id="a"><stop offset="0" stop-color="#12c2e9"/><stop offset=".5" stop-color="#c471ed"/><stop offset=".982" stop-color="#f64f59"/></linearGradient><linearGradient id="b" gradientUnits="userSpaceOnUse" x1="464" x2="464" xlink:href="#a" y1="580.312" y2="-111.72"/><linearGradient id="c" gradientUnits="userSpaceOnUse" x1="304" x2="304" xlink:href="#a" y1="583.648" y2="-112.368"/><linearGradient id="d" gradientUnits="userSpaceOnUse" x1="424" x2="424" xlink:href="#a" y1="584.48" y2="-113.544"/><linearGradient id="e" gradientUnits="userSpaceOnUse" x1="232" x2="232" xlink:href="#a" y1="583.072" y2="-112.312"/><linearGradient id="f" gradientUnits="userSpaceOnUse" x1="200" x2="200" xlink:href="#a" y1="584.328" y2="-111.384"/><linearGradient id="g" gradientUnits="userSpaceOnUse" x1="304" x2="304" xlink:href="#a" y1="583.656" y2="-112.368"/><path d="m472 152h-16c-4.417969 0-8 3.582031-8 8s3.582031 8 8 8h16c4.417969 0 8-3.582031 8-8s-3.582031-8-8-8zm0 0" fill="url(#b)"/><path d="m296 8v16c0 4.417969 3.582031 8 8 8s8-3.582031 8-8v-16c0-4.417969-3.582031-8-8-8s-8 3.582031-8 8zm0 0" fill="url(#c)"/><path d="m421.65625 69.65625 16-16c2.078125-2.007812 2.914062-4.984375 2.179688-7.78125-.730469-2.796875-2.914063-4.980469-5.710938-5.710938-2.796875-.734374-5.773438.101563-7.78125 2.179688l-16 16c-2.078125 2.007812-2.914062 4.984375-2.179688 7.78125.730469 2.796875 2.914063 4.980469 5.710938 5.710938 2.796875.734374 5.773438-.101563 7.78125-2.179688zm0 0" fill="url(#d)"/><path d="m0 284.449219c.527344 46.582031 38.652344 83.957031 85.238281 83.550781 4.421875 0 8-3.582031 8-8s-3.578125-8-8-8c-24.289062.640625-47.054687-11.824219-59.597656-32.636719-12.546875-20.8125-12.9375-46.761719-1.027344-67.941406 11.910157-21.183594 34.285157-34.328125 58.585938-34.421875 2.570312-.074219 4.949219-1.375 6.390625-3.503906 1.445312-2.125 1.777344-4.816406.898437-7.230469-3.253906-8.839844-4.929687-18.183594-4.953125-27.601563.621094-46.179687 38.492188-83.152343 84.671875-82.664062 20.433594.03125 40.183594 7.347656 55.703125 20.640625 1.816406 1.597656 3.578125 3.199219 5.25 4.886719.519532.527344 1.0625 1.023437 1.601563 1.601562 2.042969 2.222656 3.96875 4.550782 5.765625 6.976563.433594.566406.863281 1.132812 1.273437 1.71875 1.777344 2.511719 3.417969 5.117187 4.910157 7.808593.28125.511719.535156 1.03125.800781 1.542969 1.53125 2.871094 2.886719 5.832031 4.0625 8.863281.785156 2.0625 2.386719 3.710938 4.425781 4.554688.632812.207031 1.292969.335938 1.960938.375 1.464843.449219 3.054687.28125 4.390624-.472656 8.082032-3.683594 16.863282-5.59375 25.746094-5.601563 28.945313-.207031 54.089844 19.863281 60.300782 48.136719.839843 3.976562 4.554687 6.671875 8.59375 6.242188.265624.015624.535156.015624.800781 0h.152343c2.328126-.449219 4.671876-.792969 7.03125-1.035157 1.230469-.117187 2.464844-.148437 3.695313-.222656 1.230469-.070313 2.265625-.144531 3.390625-.160156 1.601562 0 3.203125.054687 4.761719.136719.800781 0 1.550781.054687 2.320312.113281 1.839844.148437 3.675781.363281 5.503907.648437l1.351562.199219c1.96875.328125 3.921875.734375 5.855469 1.207031l.914062.230469c1.972657.535156 3.929688 1.125 5.871094 1.769531l.855469.304688c1.894531.679687 3.769531 1.421875 5.601562 2.246094l1.03125.488281c1.765625.800781 3.519532 1.703125 5.222656 2.65625 23.699219 13.089843 38.480469 37.960937 38.648438 65.03125-.566406 41.972656-34.992188 75.570312-76.96875 75.113281-4.417969 0-8 3.582031-8 8s3.582031 8 8 8c50.808594.449219 92.394531-40.308594 92.96875-91.113281-.113281-30.183594-15.253906-58.324219-40.375-75.054688 5.484375-13.265625 8.328125-27.476562 8.375-41.832031.03125-49.265625-32.152344-92.761719-79.277344-107.132812-47.125-14.371094-98.105468 3.761718-125.570312 44.660156-16.808594-11.390625-36.640625-17.492188-56.945313-17.527344-55.023437-.492188-100.066406 43.640625-100.695312 98.664062.011719 7.824219.984375 15.613282 2.894531 23.199219-41.371094 5.585938-72.277344 40.839844-72.40625 82.585938zm239.742188-177.023438c23.242187-35.519531 67.054687-51.546875 107.726562-39.414062 40.675781 12.132812 68.546875 49.542969 68.53125 91.988281.007812 11.65625-2.140625 23.214844-6.335938 34.089844l-.449218-.179688c-2.628906-1.167968-5.320313-2.210937-8.078125-3.132812-.335938-.113282-.65625-.25-.992188-.351563-2.832031-.925781-5.722656-1.707031-8.671875-2.355469l-.800781-.207031c-2.894531-.605469-5.839844-1.070312-8.800781-1.414062-.320313 0-.632813-.105469-.949219-.144531-3.277344-.34375-6.566406-.515626-9.859375-.519532-3.640625-.003906-7.28125.207032-10.902344.628906-6.515625-19.679687-20.589844-35.960937-39.125-45.25-18.53125-9.289062-40-10.824218-59.667968-4.269531-1.191407-2.480469-2.503907-4.878906-3.886719-7.199219-.488281-.800781-1.015625-1.597656-1.527344-2.457031-.9375-1.484375-1.90625-2.957031-2.921875-4.398437-.671875-.960938-1.351562-1.902344-2.0625-2.839844-.921875-1.214844-1.890625-2.398438-2.863281-3.550781-2.042969-2.453125-4.199219-4.8125-6.464844-7.074219-.289063-.277344-.5625-.582031-.847656-.863281-.289063-.28125-.6875-.757813-1.050781-1.085938zm0 0" fill="url(#e)"/><path d="m174.398438 463.398438c3.546874 1.457031 7.625.195312 9.730468-3.007813l94.589844-144c1.617188-2.460937 1.75-5.613281.347656-8.203125-1.40625-2.589844-4.121094-4.199219-7.066406-4.1875h-53.753906l13.515625-54.0625c.59375-2.390625.058593-4.921875-1.457031-6.863281-1.515626-1.9375-3.84375-3.074219-6.304688-3.074219h-64c-3.445312 0-6.503906 2.203125-7.59375 5.472656l-32 96c-.8125 2.4375-.402344 5.121094 1.101562 7.207032 1.503907 2.085937 3.921876 3.320312 6.492188 3.320312h62.222656l-20.621094 102.398438c-.769531 3.765624 1.246094 7.542968 4.796876 9zm-35.300782-127.398438 26.671875-80h48l-13.53125 54.0625c-.59375 2.390625-.058593 4.921875 1.457031 6.863281 1.515626 1.9375 3.84375 3.074219 6.304688 3.074219h49.167969l-63.734375 97.039062 14.398437-71.464843c.472657-2.347657-.132812-4.785157-1.652343-6.640625-1.515626-1.851563-3.785157-2.929688-6.179688-2.933594zm0 0" fill="url(#f)"/><path d="m304 464c22.082031-.027344 39.972656-17.917969 40-40 0-25.390625-29.671875-78.046875-33.054688-84-1.542968-2.332031-4.148437-3.738281-6.945312-3.738281s-5.402344 1.40625-6.945312 3.738281c-3.382813 5.953125-33.054688 58.609375-33.054688 84 .027344 22.082031 17.917969 39.972656 40 40zm0-103.246094c10.097656 19.335938 24 49.101563 24 63.246094 0 13.253906-10.746094 24-24 24s-24-10.746094-24-24c0-14.144531 13.902344-43.910156 24-63.246094zm0 0" fill="url(#g)"/></svg>