<svg height="480pt" viewBox="0 -48 480.00132 480" width="480pt" xmlns="http://www.w3.org/2000/svg" xmlns:xlink="http://www.w3.org/1999/xlink"><linearGradient id="a" gradientUnits="userSpaceOnUse" x1="240.001318" x2="240.001318" y1="384.012619" y2=".012619"><stop offset="0" stop-color="#12c2e9"/><stop offset=".5" stop-color="#c471ed"/><stop offset=".982" stop-color="#f64f59"/></linearGradient><path d="m384 112.011719c-3.832031.003906-7.660156.234375-11.460938.6875-10.324218-33.632813-41.355468-56.613281-76.539062-56.6875-8.753906-.007813-17.449219 1.445312-25.726562 4.296875-20.488282-44.300782-69.042969-68.378906-116.710938-57.871094-47.664062 10.507812-81.597656 52.765625-81.5625 101.574219.007812 8.433593 1.054688 16.832031 3.121094 25.007812-28.027344 3.996094-52.386719 21.308594-65.375 46.464844-12.984375 25.152344-12.996094 55.039063-.023438 80.199219-14.007812 27.296875-12.808594 59.914062 3.167969 86.105468 15.980469 26.191407 44.429687 42.1875 75.109375 42.222657h296c32.742188.070312 63.25-16.585938 80.898438-44.164063 17.644531-27.578125 19.984374-62.257812 6.199218-91.953125 5.835938-12.488281 8.875-26.097656 8.902344-39.882812-.054688-52.996094-43.003906-95.941407-96-96zm-208-96c36.738281.148437 69.550781 23.015625 82.402344 57.433593.773437 2.089844 2.386718 3.761719 4.449218 4.613282 2.058594.847656 4.382813.800781 6.40625-.132813 8.375-3.898437 17.503907-5.914062 26.742188-5.914062 30.441406.050781 56.648438 21.496093 62.730469 51.320312.871093 4.332031 5.089843 7.136719 9.421875 6.265625 23.519531-4.753906 47.933594 1.300782 66.507812 16.496094 18.570313 15.195312 29.339844 37.921875 29.339844 61.917969.019531 7.597656-1.058594 15.160156-3.199219 22.449219-.34375-.464844-.75-.863282-1.101562-1.3125-1.378907-1.761719-2.808594-3.457032-4.296875-5.113282-.929688-1.039062-1.839844-2.09375-2.808594-3.085937-1.328125-1.359375-2.738281-2.625-4.144531-3.90625-2.398438-2.183594-4.910157-4.242188-7.519531-6.167969-1.121094-.796875-2.199219-1.71875-3.359376-2.503906-1.601562-1.046875-3.199218-1.964844-4.800781-2.925782-1.3125-.800781-2.601562-1.601562-3.953125-2.28125-1.597656-.800781-3.199218-1.597656-4.800781-2.3125-1.597656-.710937-3.078125-1.390624-4.65625-2.015624-1.574219-.625-3.070313-1.175782-4.636719-1.703126-1.808594-.609374-3.640625-1.144531-5.496094-1.648437-1.433593-.390625-2.855468-.800781-4.3125-1.113281-2.199218-.496094-4.433593-.855469-6.6875-1.191406-1.191406-.175782-2.402343-.414063-3.578124-.542969-3.535157-.40625-7.089844-.617188-10.648438-.625-3.832031.003906-7.660156.234375-11.460938.6875-10.324218-33.632813-41.355468-56.613281-76.539062-56.6875-8.753906-.007813-17.449219 1.445312-25.726562 4.296875-18.671876-40.878906-61.660157-64.960938-106.273438-59.542969-1.246094.144531-2.453125.375-3.6875.558594-2.703125.417969-5.375.90625-8 1.519531-1.359375.3125-2.695312.664062-4 1.03125-2.527344.707031-5.015625 1.511719-7.464844 2.402344-1.207031.429687-2.398437.839844-3.621094 1.320312-2.921874 1.183594-5.769531 2.511719-8.554687 3.941406-.597656.304688-1.230469.5625-1.824219.882813-3.324218 1.800781-6.550781 3.78125-9.664062 5.933594-.871094.601562-1.679688 1.273437-2.527344 1.898437-2.214844 1.597656-4.375 3.3125-6.445312 5.09375-1.007813.871094-1.96875 1.777344-2.945313 2.679688-1.855469 1.730468-3.644531 3.519531-5.359375 5.378906-.898438.964844-1.792969 1.917969-2.648438 2.910156-1.839843 2.144532-3.578124 4.375-5.242187 6.664063-.445313.617187-.980469 1.175781-1.421875 1.808593-1.703125-6.796874-2.574219-13.773437-2.59375-20.777343.058594-48.578125 39.425781-87.941407 88-88zm-160 200c-.164062-36.628907 27.363281-67.472657 63.777344-71.457031-.640625 1.601562-1.136719 3.203124-1.703125 4.800781-.496094 1.394531-1.058594 2.761719-1.488281 4.183593-.585938 1.890626-1.015626 3.832032-1.488282 5.753907-.335937 1.367187-.746094 2.695312-1.023437 4.078125-.449219 2.21875-.730469 4.488281-1.03125 6.753906-.152344 1.144531-.394531 2.261719-.511719 3.429688-.347656 3.449218-.53125 6.945312-.53125 10.480468.007812 8.433594 1.054688 16.832032 3.121094 25.007813-21.535156 3.09375-41.144532 14.101562-54.992188 30.882812-2.722656-7.679687-4.121094-15.765625-4.128906-23.914062zm368 152h-296c-25.566406-.019531-49.207031-13.585938-62.125-35.648438s-13.175781-49.316406-.683594-71.621093c.191406-.21875.367188-.449219.53125-.691407 9.089844-15.773437 23.84375-27.5 41.261719-32.796875.5625-.167968 1.128906-.320312 1.703125-.480468 2.136719-.59375 4.3125-1.066407 6.523438-1.457032.71875-.128906 1.429687-.28125 2.160156-.390625 2.804687-.429687 5.632812-.695312 8.46875-.800781 2.558594-.078125 4.925781-1.371094 6.367187-3.484375 1.441407-2.113281 1.789063-4.785156.929688-7.195313-16.121094-45.515624 7.480469-95.511718 52.867187-111.988281 45.382813-16.476562 95.566406 6.730469 112.398438 51.988281 1.011718 3.023438 3.835937 5.070313 7.023437 5.09375 1.308594.121094 2.625-.089843 3.832031-.613281 8.375-3.898437 17.503907-5.914062 26.742188-5.914062 30.441406.050781 56.648438 21.496093 62.730469 51.320312.871093 4.332031 5.089843 7.136719 9.421875 6.265625 8.496094-1.75 17.226562-2.054687 25.824218-.898437.96875.121093 1.921876.289062 2.878907.441406 2.433593.398437 4.832031.902344 7.203125 1.511719.902344.242187 1.832031.441406 2.726562.703125 2.964844.875 5.878906 1.921875 8.71875 3.136719.898438.382812 1.738282.847656 2.609375 1.257812 2.007813.949219 4 1.976562 5.894531 3.085938 1.074219.617187 2.136719 1.257812 3.203126 1.929687 1.980468 1.277344 3.902343 2.65625 5.773437 4.101563.65625.511718 1.34375.976562 1.992187 1.503906 2.355469 1.976562 4.597657 4.082031 6.710938 6.3125.625.65625 1.226562 1.335937 1.824219 2.015625 1.921875 2.128906 3.726562 4.363281 5.402343 6.6875.230469.3125.480469.617187.703126.9375 2.035156 2.929687 3.878906 5.988281 5.511718 9.160156 12.808594 24.785156 11.753906 54.460937-2.78125 78.273437-14.535156 23.816407-40.445312 38.316407-68.347656 38.253907zm0 0" fill="url(#a)"/></svg>