<svg height="480pt" viewBox="0 0 480 480" width="480pt" xmlns="http://www.w3.org/2000/svg" xmlns:xlink="http://www.w3.org/1999/xlink"><linearGradient id="a"><stop offset="0" stop-color="#12c2e9"/><stop offset=".5" stop-color="#c471ed"/><stop offset=".982" stop-color="#f64f59"/></linearGradient><linearGradient id="b" gradientUnits="userSpaceOnUse" x1="240" x2="240" xlink:href="#a" y1="603.816" y2="-20.232"/><linearGradient id="c" gradientUnits="userSpaceOnUse" x1="240" x2="240" xlink:href="#a" y1="608.248" y2="-23.408"/><linearGradient id="d" gradientUnits="userSpaceOnUse" x1="240" x2="240" xlink:href="#a" y1="603.832" y2="-20.256"/><linearGradient id="e" gradientUnits="userSpaceOnUse" x1="240" x2="240" xlink:href="#a" y1="603.84" y2="-20.24"/><linearGradient id="f" gradientUnits="userSpaceOnUse" x1="424" x2="424" xlink:href="#a" y1="592.424" y2="-16.032"/><linearGradient id="g" gradientUnits="userSpaceOnUse" x1="56" x2="56" xlink:href="#a" y1="597.024" y2="-11.432"/><path d="m240 480c132.546875 0 240-107.453125 240-240s-107.453125-240-240-240-240 107.453125-240 240c.148438 132.484375 107.515625 239.851562 240 240zm0-464c123.710938 0 224 100.289062 224 224s-100.289062 224-224 224-224-100.289062-224-224c.140625-123.652344 100.347656-223.859375 224-224zm0 0" fill="url(#b)"/><path d="m128 360c1.359375 0 2.695312-.34375 3.878906-1.007812l144-80c.121094-.0625.175782-.183594.28125-.257813.941406-.769531 1.804688-1.632813 2.574219-2.574219.074219-.105468.195313-.160156.257813-.28125l80-144c1.726562-3.121094 1.175781-7.003906-1.34375-9.527344-2.523438-2.519531-6.40625-3.070312-9.527344-1.34375l-144 80c-.121094.0625-.175782.183594-.28125.257813-.941406.769531-1.804688 1.632813-2.574219 2.574219-.074219.105468-.195313.160156-.257813.28125l-80 144c-1.375 2.476562-1.335937 5.496094.101563 7.9375s4.058594 3.941406 6.890625 3.941406zm203.40625-211.40625-61.246094 110.246094-8.558594-8.558594c1.5625-3.203125 2.382813-6.71875 2.398438-10.28125 0-13.253906-10.746094-24-24-24-3.5625.015625-7.078125.835938-10.28125 2.398438l-8.558594-8.566407zm-121.597656 72.566406 8.566406 8.558594c-1.554688 3.203125-2.367188 6.71875-2.375 10.28125 0 13.253906 10.746094 24 24 24 3.5625-.015625 7.078125-.835938 10.28125-2.398438l8.558594 8.566407-110.246094 61.238281zm0 0" fill="url(#c)"/><path d="m240 80c4.417969 0 8-3.582031 8-8v-32c0-4.417969-3.582031-8-8-8s-8 3.582031-8 8v32c0 4.417969 3.582031 8 8 8zm0 0" fill="url(#d)"/><path d="m240 400c-4.417969 0-8 3.582031-8 8v32c0 4.417969 3.582031 8 8 8s8-3.582031 8-8v-32c0-4.417969-3.582031-8-8-8zm0 0" fill="url(#e)"/><path d="m408 248h32c4.417969 0 8-3.582031 8-8s-3.582031-8-8-8h-32c-4.417969 0-8 3.582031-8 8s3.582031 8 8 8zm0 0" fill="url(#f)"/><path d="m72 232h-32c-4.417969 0-8 3.582031-8 8s3.582031 8 8 8h32c4.417969 0 8-3.582031 8-8s-3.582031-8-8-8zm0 0" fill="url(#g)"/></svg>