<svg height="480pt" viewBox="0 0 480.00728 480" width="480pt" xmlns="http://www.w3.org/2000/svg" xmlns:xlink="http://www.w3.org/1999/xlink"><linearGradient id="a"><stop offset="0" stop-color="#12c2e9"/><stop offset=".5" stop-color="#c471ed"/><stop offset=".982" stop-color="#f64f59"/></linearGradient><linearGradient id="b" gradientUnits="userSpaceOnUse" x1="96" x2="96" xlink:href="#a" y1="606.34764" y2="-57.00436"/><linearGradient id="c" gradientUnits="userSpaceOnUse" x1="40" x2="40" xlink:href="#a" y1="598.76364" y2="-52.07636"/><linearGradient id="d" gradientUnits="userSpaceOnUse" x1="96" x2="96" xlink:href="#a" y1="604.13964" y2="-55.21236"/><linearGradient id="e" gradientUnits="userSpaceOnUse" x1="276" x2="276" xlink:href="#a" y1="605.35564" y2="-55.98836"/><linearGradient id="f" gradientUnits="userSpaceOnUse" x1="424" x2="424" xlink:href="#a" y1="605.58764" y2="-55.04436"/><path d="m114.34375 117.660156c3.140625 3.03125 8.128906 2.988282 11.214844-.097656 3.085937-3.085938 3.128906-8.074219.097656-11.214844l-48-48c-3.140625-3.03125-8.128906-2.988281-11.214844.097656-3.085937 3.085938-3.128906 8.074219-.097656 11.214844zm0 0" fill="url(#b)"/><path d="m80 240.003906c0-4.417968-3.582031-8-8-8h-64c-4.417969 0-8 3.582032-8 8 0 4.417969 3.582031 8 8 8h64c4.417969 0 8-3.582031 8-8zm0 0" fill="url(#c)"/><path d="m114.34375 362.347656-48 48c-2.078125 2.007813-2.914062 4.984375-2.179688 7.78125.730469 2.796875 2.914063 4.980469 5.710938 5.710938 2.796875.734375 5.773438-.101563 7.78125-2.179688l48-48c3.03125-3.140625 2.988281-8.128906-.097656-11.214844-3.085938-3.085937-8.074219-3.128906-11.214844-.097656zm0 0" fill="url(#d)"/><path d="m443.601562 282.980469c-14.578124 9.421875-31.6875 14.164062-49.035156 13.597656-52.511718-.695313-94.558594-43.761719-94-96.277344.351563-40.53125 25.1875-76.820312 62.839844-91.824219 3.179688-1.207031 5.25-4.289062 5.160156-7.6875-.089844-3.398437-2.3125-6.371093-5.550781-7.410156-15.027344-4.105468-30.589844-5.917968-46.160156-5.375-24.035157.027344-47.691407 6.003906-68.855469 17.398438v-97.398438c0-4.417968-3.582031-7.99999975-8-7.99999975s-8 3.58203175-8 7.99999975v80.855469c-77.273438 8.234375-135.890625 73.433594-135.890625 151.144531 0 77.710938 58.617187 142.90625 135.890625 151.144532v80.855468c0 4.417969 3.582031 8 8 8s8-3.582031 8-8v-97.398437c37.921875 20.386719 82.910156 22.988281 122.933594 7.113281 40.019531-15.875 70.992187-48.613281 84.625-89.449219 1.117187-3.238281.046875-6.824219-2.65625-8.925781-2.703125-2.097656-6.441406-2.246094-9.300782-.363281zm-331.601562-42.976563c.105469-68.867187 51.621094-126.808594 120-134.976562v269.953125c-68.378906-8.167969-119.894531-66.109375-120-134.976563zm204.855469 136c-24.351563-.007812-48.210938-6.863281-68.855469-19.777344v-232.445312c20.644531-12.917969 44.503906-19.769531 68.855469-19.777344 6.167969 0 12.753906.121094 19.296875.640625-31.878906 21.449219-51.167969 57.210938-51.585938 95.632813-.554687 61.347656 48.652344 111.574218 110 112.277344 12.730469.203124 25.398438-1.8125 37.433594-5.960938-22.328125 42.898438-66.785156 69.695312-115.144531 69.410156zm0 0" fill="url(#e)"/><path d="m479.585938 170.140625c-.957032-2.851563-3.429688-4.925781-6.402344-5.367187l-28.945313-4.433594-13.023437-27.734375c-1.316406-2.808594-4.140625-4.597657-7.238282-4.597657-3.101562 0-5.921874 1.789063-7.242187 4.597657l-13.023437 27.734375-28.941407 4.433594c-2.964843.453124-5.421875 2.523437-6.375 5.363281-.953125 2.839843-.238281 5.976562 1.851563 8.121093l21.210937 21.746094-5.015625 30.75c-.492187 3.023438.785156 6.058594 3.285156 7.824219 2.503907 1.761719 5.792969 1.945313 8.472657.464844l25.800781-14.296875 25.800781 14.257812c1.179688.65625 2.511719 1.003906 3.863281 1 2.347657 0 4.574219-1.03125 6.09375-2.820312 1.523438-1.785156 2.179688-4.152344 1.800782-6.46875l-5.015625-30.710938 21.183593-21.703125c2.105469-2.15625 2.824219-5.308593 1.859376-8.160156zm-37.3125 21.542969c-1.773438 1.816406-2.578126 4.367187-2.167969 6.871094l3.015625 18.480468-15.257813-8.429687c-2.40625-1.328125-5.320312-1.328125-7.726562 0l-15.257813 8.429687 3.015625-18.480468c.410157-2.503907-.394531-5.054688-2.167969-6.871094l-13.125-13.457032 17.773438-2.71875c2.636719-.402343 4.898438-2.089843 6.03125-4.503906l7.59375-16.167968 7.59375 16.167968c1.132812 2.414063 3.394531 4.101563 6.03125 4.503906l17.773438 2.71875zm0 0" fill="url(#f)"/></svg>