<svg height="480pt" viewBox="0 -48 480.048 480" width="480pt" xmlns="http://www.w3.org/2000/svg" xmlns:xlink="http://www.w3.org/1999/xlink"><linearGradient id="a" gradientUnits="userSpaceOnUse" x1="240" x2="240" y1="384.024" y2=".024"><stop offset="0" stop-color="#12c2e9"/><stop offset=".5" stop-color="#c471ed"/><stop offset=".982" stop-color="#f64f59"/></linearGradient><path d="m104.800781 109.625c.246094.65625.480469 1.351562.726563 2.007812 3.921875 10.472657 7.695312 21.304688 11.382812 32.335938 6.226563-.265625 9.707032-4.679688 15.113282-12.464844 6.007812-8.65625 13.488281-19.441406 28.800781-19.441406s22.777343 10.777344 28.800781 19.441406c5.597656 8 9.046875 12.558594 15.648438 12.558594 6.597656 0 10.078124-4.535156 15.648437-12.558594 6.007813-8.664062 13.492187-19.441406 28.796875-19.441406s22.777344 10.777344 28.800781 19.441406c5.601563 8 9.039063 12.558594 15.65625 12.558594 6.617188 0 10.0625-4.535156 15.640625-12.558594 6.007813-8.664062 13.480469-19.441406 28.800782-19.441406 15.320312 0 22.789062 10.785156 28.796874 19.441406 5.601563 8 9.050782 12.558594 15.65625 12.558594 6.609376 0 10.097657-4.535156 15.671876-12.558594 6.027343-8.664062 13.515624-19.441406 28.800781-19.441406 15.289062 0 22.800781 10.777344 28.800781 19.441406 5.601562 8 9.054688 12.558594 15.671875 12.558594 4.417969 0 8 3.582031 8 8s-3.582031 8-8 8c-15.304687 0-22.800781-10.773438-28.800781-19.4375-5.597656-8-9.046875-12.5625-15.671875-12.5625-6.621094 0-10.09375 4.539062-15.679688 12.570312-6.046875 8.613282-13.535156 19.390626-28.839843 19.390626-15.304688 0-22.785157-10.777344-28.800782-19.4375-5.597656-8-9.054687-12.5625-15.664062-12.5625-6.605469 0-10.0625 4.535156-15.628906 12.5625-6.007813 8.652343-13.488282 19.4375-28.800782 19.4375s-22.785156-10.785157-28.800781-19.4375c-5.601563-8-9.046875-12.5625-15.648437-12.5625-6.601563 0-10.070313 4.535156-15.640626 12.5625-6.007812 8.652343-13.496093 19.4375-28.800781 19.4375-15.300781 0-22.773437-10.785157-28.796875-19.4375-5.601562-8-9.042968-12.5625-15.648437-12.5625-6.609375 0-10.074219 4.535156-15.648438 12.5625-4.824219 9.183593-13.175781 16.011718-23.136719 18.910156l.167969.535156c3.199219 9.824219 6.296875 19.722656 9.410157 29.601562 20.734374 65.78125 42 133.246094 73.324218 162.863282 1.890625 1.773437 3.875 3.441406 5.945313 5 1.28125.976562 2.578125 1.878906 3.886719 2.726562 4.792968 3.175782 10.109374 5.472656 15.707031 6.777344 3.136719.691406 6.339843 1.035156 9.550781 1.023438h232c4.417969 0 8 3.582031 8 8 0 4.417968-3.582031 8-8 8h-232c-1.992188 0-4-.09375-5.886719-.28125-1.890625-.183594-3.832031-.460938-5.707031-.796876-56.070312-10.921874-84.503906-101.128906-112.046875-188.519531l-.605469-1.914062c-3.683594-11.703125-7.394531-23.359375-11.144531-34.855469-4.394531-13.425781-8.882813-26.664062-13.601563-39.28125l-.0625-.167969c-1.71875-4.621093-3.460937-9.15625-5.226562-13.597656l-.445312-1.097656c-1.671876-4.179688-3.371094-8.273438-5.105469-12.273438-.238281-.550781-.480469-1.085937-.71875-1.597656-1.6875-3.855469-3.402344-7.617187-5.144531-11.25-17.710938-36.949219-38.710938-62.367187-66.304688-62.367187-4.417969 0-8-3.582032-8-8 0-4.417969 3.582031-8.0000005 8-8.0000005 34.550781 0 59.296875 28.2421875 79.390625 68.8984375 5.304687 3.992187 9.824219 8.929687 13.34375 14.558594 5.601563 8 9.066406 12.542969 15.679687 12.542969 6.617188 0 10.074219-4.535157 15.640626-12.558594 6.007812-8.65625 13.488281-19.441406 28.800781-19.441406s22.777343 10.777343 28.800781 19.441406c5.601562 8 9.046875 12.558594 15.648438 12.558594 6.597656 0 10.078124-4.535157 15.648437-12.558594 6.007813-8.664063 13.496094-19.441406 28.800781-19.441406 15.300782 0 22.773438 10.777343 28.796875 19.441406 5.601563 8 9.042969 12.558594 15.65625 12.558594 6.617188 0 10.066407-4.535157 15.640625-12.558594 6.007813-8.664063 13.480469-19.441406 28.800782-19.441406 15.320312 0 22.792968 10.785156 28.800781 19.441406 5.597656 8 9.046875 12.558594 15.65625 12.558594 6.605469 0 10.09375-4.535157 15.671875-12.558594 6.023437-8.664063 13.511718-19.441406 28.796875-19.441406 15.289062 0 22.800781 10.777343 28.800781 19.441406 5.601562 8 9.058594 12.558594 15.671875 12.558594 4.417969 0 8 3.582031 8 8 0 4.417968-3.582031 8-8 8-15.304687 0-22.800781-10.777344-28.800781-19.4375-5.597656-8-9.046875-12.5625-15.671875-12.5625-6.621094 0-10.09375 4.535156-15.679688 12.570312-6.078125 8.652344-13.566406 19.429688-28.871093 19.429688-15.304688 0-22.785157-10.777344-28.800782-19.4375-5.597656-8-9.054687-12.5625-15.664062-12.5625-6.605469 0-10.0625 4.535156-15.628906 12.5625-6.007813 8.652343-13.488282 19.4375-28.800782 19.4375s-22.785156-10.785157-28.800781-19.4375c-5.601563-8-9.046875-12.5625-15.648437-12.5625-6.601563 0-10.070313 4.535156-15.640626 12.5625-6.007812 8.652343-13.496093 19.4375-28.800781 19.4375-15.300781 0-22.773437-10.785157-28.796875-19.4375-5.601562-8-9.042968-12.5625-15.648437-12.5625-6.609375 0-10.074219 4.535156-15.648438 12.5625-5.945312 8.660156-13.441406 19.4375-28.730469 19.4375-4 .0625-7.964843-.757813-11.613281-2.398438zm231.199219 154.398438c4.417969 0 8-3.582032 8-8v-44.6875l18.34375 18.34375c3.140625 3.03125 8.128906 2.988281 11.214844-.097657 3.085937-3.085937 3.128906-8.074219.097656-11.214843l-32-32c-.746094-.746094-1.632812-1.335938-2.609375-1.734376-1.957031-.808593-4.152344-.808593-6.109375 0-.976562.398438-1.863281.988282-2.609375 1.734376l-32 32c-3.03125 3.140624-2.988281 8.128906.097656 11.214843 3.085938 3.085938 8.074219 3.128907 11.214844.097657l18.359375-18.34375v44.6875c0 4.417968 3.582031 8 8 8zm0 0" fill="url(#a)"/></svg>