<svg height="479pt" viewBox="0 -52 479.61325 479" width="479pt" xmlns="http://www.w3.org/2000/svg" xmlns:xlink="http://www.w3.org/1999/xlink"><linearGradient id="a"><stop offset="0" stop-color="#12c2e9"/><stop offset=".5" stop-color="#c471ed"/><stop offset=".982" stop-color="#f64f59"/></linearGradient><linearGradient id="b" gradientUnits="userSpaceOnUse" x1="243.740558" x2="235.740558" xlink:href="#a" y1="532.509266" y2="-87.490734"/><linearGradient id="c" gradientUnits="userSpaceOnUse" x1="290.332558" x2="282.332558" xlink:href="#a" y1="531.901266" y2="-88.098734"/><linearGradient id="d" gradientUnits="userSpaceOnUse" x1="138.356558" x2="130.356558" xlink:href="#a" y1="533.869266" y2="-86.130734"/><linearGradient id="e" gradientUnits="userSpaceOnUse" x1="210.348558" x2="202.348558" xlink:href="#a" y1="532.933266" y2="-87.066734"/><linearGradient id="f" gradientUnits="userSpaceOnUse" x1="185.732558" x2="177.732558" xlink:href="#a" y1="533.253266" y2="-86.746734"/><linearGradient id="g" gradientUnits="userSpaceOnUse" x1="345.708558" x2="337.708558" xlink:href="#a" y1="531.189266" y2="-88.810734"/><linearGradient id="h" gradientUnits="userSpaceOnUse" x1="281.716558" x2="273.716558" xlink:href="#a" y1="532.013266" y2="-87.986734"/><linearGradient id="i" gradientUnits="userSpaceOnUse" x1="291.572558" x2="283.572558" xlink:href="#a" y1="531.885266" y2="-88.114734"/><linearGradient id="j" gradientUnits="userSpaceOnUse" x1="139.596558" x2="131.596558" xlink:href="#a" y1="533.853266" y2="-86.146734"/><linearGradient id="k" gradientUnits="userSpaceOnUse" x1="211.588558" x2="203.588558" xlink:href="#a" y1="532.917266" y2="-87.082734"/><linearGradient id="l" gradientUnits="userSpaceOnUse" x1="186.972558" x2="178.972558" xlink:href="#a" y1="533.237266" y2="-86.762734"/><linearGradient id="m" gradientUnits="userSpaceOnUse" x1="346.948558" x2="338.948558" xlink:href="#a" y1="531.173266" y2="-88.826734"/><linearGradient id="n" gradientUnits="userSpaceOnUse" x1="282.956558" x2="274.956558" xlink:href="#a" y1="531.997266" y2="-88.002734"/><path d="m87.605469 304.300781c4.417969 0 8-3.582031 8-8s-3.582031-8-8-8c-39.441407.171875-71.667969-31.441406-72.257813-70.878906-.585937-39.4375 30.683594-71.996094 70.113282-73 2.558593-.074219 4.929687-1.363281 6.375-3.476563 1.449218-2.113281 1.796874-4.792968.9375-7.203124-15.878907-45.445313 7.742187-95.207032 52.988281-111.632813 45.246093-16.429687 95.292969 6.585937 112.265625 51.632813.777344 2.085937 2.386718 3.757812 4.445312 4.609374 2.0625.847657 4.378906.800782 6.402344-.128906 8.375-3.894531 17.496094-5.914062 26.730469-5.921875 30.4375.054688 56.648437 21.496094 62.734375 51.320313.871094 4.332031 5.09375 7.136718 9.425781 6.265625 29.882813-6.039063 60.601563 5.4375 79.210937 29.589843 18.609376 24.148438 21.871094 56.777344 8.414063 84.136719s-41.296875 44.6875-71.785156 44.6875h-8c-4.417969 0-8 3.582031-8 8s3.582031 8 8 8h8c35.671875.003907 68.402343-19.773437 84.992187-51.351562s14.304688-69.753907-5.9375-99.125c-20.242187-29.371094-55.101562-45.097657-90.519531-40.835938-10.320313-33.632812-41.355469-56.617187-76.535156-56.6875-8.757813-.003906-17.457031 1.449219-25.738281 4.296875-20.492188-44.292968-69.042969-68.359375-116.699219-57.855468-47.660157 10.507812-81.589844 52.757812-81.5625 101.558593.003906 8.433594 1.054687 16.832031 3.117187 25.007813-45.414062 6.929687-77.859375 47.632812-74.484375 93.453125 3.371094 45.820312 41.425781 81.332031 87.367188 81.539062zm0 0" fill="url(#b)"/><path d="m335.605469 320.300781c0-4.417969-3.582031-8-8-8h-80c-4.417969 0-8 3.582031-8 8s3.582031 8 8 8h80c4.417969 0 8-3.582031 8-8zm0 0" fill="url(#c)"/><path d="m103.605469 328.300781h64c4.417969 0 8-3.582031 8-8s-3.582031-8-8-8h-64c-4.417969 0-8 3.582031-8 8s3.582031 8 8 8zm0 0" fill="url(#d)"/><path d="m215.605469 328.300781c4.417969 0 8-3.582031 8-8s-3.582031-8-8-8h-16c-4.417969 0-8 3.582031-8 8s3.582031 8 8 8zm0 0" fill="url(#e)"/><path d="m135.605469 376.300781h96c4.417969 0 8-3.582031 8-8s-3.582031-8-8-8h-96c-4.417969 0-8 3.582031-8 8s3.582031 8 8 8zm0 0" fill="url(#f)"/><path d="m327.605469 376.300781h32c4.417969 0 8-3.582031 8-8s-3.582031-8-8-8h-32c-4.417969 0-8 3.582031-8 8s3.582031 8 8 8zm0 0" fill="url(#g)"/><path d="m303.605469 368.300781c0-4.417969-3.582031-8-8-8h-32c-4.417969 0-8 3.582031-8 8s3.582031 8 8 8h32c4.417969 0 8-3.582031 8-8zm0 0" fill="url(#h)"/><path d="m335.605469 224.300781c0-4.417969-3.582031-8-8-8h-80c-4.417969 0-8 3.582031-8 8s3.582031 8 8 8h80c4.417969 0 8-3.582031 8-8zm0 0" fill="url(#i)"/><path d="m103.605469 232.300781h64c4.417969 0 8-3.582031 8-8s-3.582031-8-8-8h-64c-4.417969 0-8 3.582031-8 8s3.582031 8 8 8zm0 0" fill="url(#j)"/><path d="m215.605469 232.300781c4.417969 0 8-3.582031 8-8s-3.582031-8-8-8h-16c-4.417969 0-8 3.582031-8 8s3.582031 8 8 8zm0 0" fill="url(#k)"/><path d="m231.605469 264.300781h-96c-4.417969 0-8 3.582031-8 8s3.582031 8 8 8h96c4.417969 0 8-3.582031 8-8s-3.582031-8-8-8zm0 0" fill="url(#l)"/><path d="m359.605469 264.300781h-32c-4.417969 0-8 3.582031-8 8s3.582031 8 8 8h32c4.417969 0 8-3.582031 8-8s-3.582031-8-8-8zm0 0" fill="url(#m)"/><path d="m263.605469 264.300781c-4.417969 0-8 3.582031-8 8s3.582031 8 8 8h32c4.417969 0 8-3.582031 8-8s-3.582031-8-8-8zm0 0" fill="url(#n)"/></svg>