<svg height="480pt" viewBox="0 -48 480 480" width="480pt" xmlns="http://www.w3.org/2000/svg" xmlns:xlink="http://www.w3.org/1999/xlink"><linearGradient id="a" gradientUnits="userSpaceOnUse" x1="240" x2="240" y1="384" y2="0"><stop offset="0" stop-color="#12c2e9"/><stop offset=".5" stop-color="#c471ed"/><stop offset=".982" stop-color="#f64f59"/></linearGradient><path d="m352 48v44.6875l18.34375-18.34375c3.140625-3.03125 8.128906-2.988281 11.214844.097656 3.085937 3.085938 3.128906 8.074219.097656 11.214844l-32 32c-1.5 1.503906-3.539062 2.351562-5.664062 2.351562s-4.164063-.847656-5.664063-2.351562l-32-32c-3.03125-3.140625-2.988281-8.128906.097656-11.214844 3.085938-3.085937 8.074219-3.128906 11.214844-.097656l18.359375 18.34375v-44.6875c0-4.417969 3.582031-8 8-8s8 3.582031 8 8zm-206.839844 140.542969c5.601563-8 9.0625-12.542969 15.679688-12.542969 6.617187 0 10.070312 4.535156 15.648437 12.558594 6.007813 8.65625 13.488281 19.441406 28.800781 19.441406s22.78125-10.785156 28.800782-19.441406c5.597656-8 9.039062-12.558594 15.636718-12.558594 6.601563 0 10.082032 4.535156 15.648438 12.558594 6.015625 8.65625 13.496094 19.441406 28.800781 19.441406 15.304688 0 22.769531-10.785156 28.800781-19.441406 5.597657-8 9.039063-12.558594 15.632813-12.558594 6.589844 0 10.085937 4.535156 15.664063 12.558594 6.015624 8.664062 13.503906 19.441406 28.796874 19.441406 15.296876 0 22.792969-10.777344 28.800782-19.433594 5.601562-8 9.058594-12.566406 15.679687-12.566406 6.625 0 10.097657 4.535156 15.671875 12.558594 5.976563 8.664062 13.472656 19.441406 28.777344 19.441406 4.417969 0 8-3.582031 8-8s-3.582031-8-8-8c-6.617188 0-10.097656-4.535156-15.671875-12.558594-6.015625-8.664062-13.503906-19.441406-28.800781-19.441406s-22.792969 10.777344-28.800782 19.441406c-5.597656 8-9.054687 12.558594-15.671874 12.558594-6.613282 0-10.085938-4.535156-15.65625-12.558594-6.015626-8.65625-13.503907-19.441406-28.796876-19.441406-15.296874 0-22.761718 10.777344-28.800781 19.441406-5.601562 8-9.039062 12.558594-15.640625 12.558594-6.601562 0-10.089844-4.535156-15.65625-12.558594-6.015625-8.664062-13.503906-19.441406-28.800781-19.441406s-22.773437 10.777344-28.800781 19.441406c-5.597656 8-9.046875 12.558594-15.644532 12.558594-6.601562 0-10.082031-4.535156-15.648437-12.558594-6.007813-8.664062-13.488281-19.441406-28.800781-19.441406s-22.785156 10.761719-28.800782 19.398438c-.839843 1.210937-1.671874 2.402343-2.503906 3.53125-28.703125-91.089844-59.160156-182.929688-121.503906-182.929688-4.417969 0-8 3.582031-8 8s3.582031 8 8 8c52.136719 0 80.71875 90.695312 108.367188 178.398438.585937 1.859374 1.175781 3.722656 1.761718 5.601562 26.917969 85.328125 54.71875 173.359375 111.351563 183.0625l.589843.082031c3.28125.550781 6.601563.835938 9.929688.855469h232c4.417969 0 8-3.582031 8-8s-3.582031-8-8-8h-232c-2.125-.023438-4.246094-.195312-6.34375-.519531-.71875-.105469-1.441406-.207031-2.160156-.351563-1.382813-.273437-2.753906-.648437-4.113282-1.050781-1.769531-.527344-3.511718-1.160156-5.207031-1.894531l-.449219-.199219c-12.304687-6.324219-22.738281-15.769531-30.253906-27.382813l-.585937-.800781c-.796875-1.152343-1.597657-2.351562-2.398438-3.554687-.425781-.644532-.855469-1.285156-1.28125-1.941406-.550781-.855469-1.085937-1.746094-1.597656-2.625-.6875-1.113282-1.378906-2.222657-2.050781-3.367188-.269532-.457031-.535156-.929688-.796875-1.382812-2.730469-4.722657-5.371094-9.738282-7.945313-14.992188-.679687-1.394531-1.367187-2.777344-2.039062-4.210938-.671875-1.429687-1.28125-2.71875-1.914063-4.109374-1.375-3.015626-2.734375-6.089844-4.085937-9.273438-.28125-.648438-.554688-1.3125-.800782-1.976562-3.234374-7.695313-6.433593-15.832032-9.601562-24.414063l-.128906-.328125c-1.511719-4.121094-3.023438-8.351562-4.527344-12.65625l-.863281-2.464844c-1.328125-3.824218-2.660157-7.71875-4-11.6875-.191407-.585937-.382813-1.167968-.582031-1.753906 4.925781-7.0625 8.390624-11.0625 14.566406-11.0625 6.609375 0 10.070312 4.535156 15.648437 12.558594 6.007813 8.65625 13.488281 19.441406 28.800781 19.441406s22.78125-10.785156 28.800782-19.441406c5.597656-8 9.039062-12.558594 15.636718-12.558594 6.601563 0 10.082032 4.535156 15.648438 12.558594 6.015625 8.65625 13.496094 19.441406 28.800781 19.441406 15.304688 0 22.769531-10.785156 28.800781-19.441406 5.597657-8 9.039063-12.558594 15.632813-12.558594 6.589844 0 10.085937 4.535156 15.664063 12.558594 6.015624 8.664062 13.503906 19.441406 28.796874 19.441406 15.296876 0 22.792969-10.777344 28.800782-19.433594 5.601562-8 9.058594-12.566406 15.679687-12.566406 6.625 0 10.097657 4.535156 15.671875 12.558594 5.976563 8.664062 13.472656 19.441406 28.777344 19.441406 4.417969 0 8-3.582031 8-8s-3.582031-8-8-8c-6.617188 0-10.097656-4.535156-15.671875-12.558594-6.015625-8.664062-13.503906-19.441406-28.800781-19.441406s-22.792969 10.777344-28.800782 19.441406c-5.597656 8-9.054687 12.558594-15.671874 12.558594-6.613282 0-10.085938-4.535156-15.65625-12.558594-6.015626-8.65625-13.503907-19.441406-28.796876-19.441406-15.296874 0-22.761718 10.777344-28.800781 19.441406-5.601562 8-9.039062 12.558594-15.640625 12.558594-6.601562 0-10.089844-4.535156-15.65625-12.558594-6.015625-8.664062-13.503906-19.441406-28.800781-19.441406s-22.773437 10.777344-28.800781 19.441406c-5.597656 8-9.046875 12.558594-15.644532 12.558594-6.601562 0-10.082031-4.535156-15.648437-12.558594-6.007813-8.664062-13.488281-19.441406-28.800781-19.441406-7.800782-.050781-15.257813 3.203125-20.519532 8.960938-1.734374-5.410157-3.460937-10.832032-5.183593-16.273438 3.820312-3.632812 7.195312-7.710938 10.054687-12.144531zm0 0" fill="url(#a)"/></svg>