<svg height="479pt" viewBox="0 -19 479.99745 479" width="479pt" xmlns="http://www.w3.org/2000/svg" xmlns:xlink="http://www.w3.org/1999/xlink"><linearGradient id="a"><stop offset="0" stop-color="#12c2e9"/><stop offset=".5" stop-color="#c471ed"/><stop offset=".982" stop-color="#f64f59"/></linearGradient><linearGradient id="b" gradientUnits="userSpaceOnUse" x1="240" x2="240" xlink:href="#a" y1="548.541039" y2="-73.266961"/><linearGradient id="c" gradientUnits="userSpaceOnUse" x1="160" x2="160" xlink:href="#a" y1="549.541039" y2="-74.466961"/><linearGradient id="d" gradientUnits="userSpaceOnUse" x1="288" x2="288" xlink:href="#a" y1="550.093039" y2="-73.914961"/><linearGradient id="e" gradientUnits="userSpaceOnUse" x1="208" x2="208" xlink:href="#a" y1="549.749039" y2="-74.258961"/><path d="m467.519531 141.789062c-9.832031 6.507813-21.449219 9.792969-33.230469 9.390626-36.230468-.976563-64.847656-31.070313-64-67.300782.046876-28.109375 16.957032-53.441406 42.894532-64.265625 3.144531-1.222656 5.179687-4.289062 5.09375-7.660156-.085938-3.371094-2.277344-6.328125-5.476563-7.386719-10.851562-3.042968-22.105469-4.394531-33.367187-4-59.242188 0-107.433594 50.238282-107.433594 112 0 1.992188.078125 4 .207031 6.160156-3.6875.652344-7.320312 1.566407-10.878906 2.734376-16.984375-34.839844-52.367187-56.929688-91.128906-56.894532-55.019531-.488281-100.058594 43.644532-100.6875 98.664063.011719 7.820312.984375 15.613281 2.894531 23.199219-41.371094 5.585937-72.277344 40.835937-72.40625 82.582031 0 45.289062 40.296875 83.554687 88 83.554687 4.417969 0 8-3.582031 8-8 0-4.417968-3.582031-8-8-8-39.03125 0-72-30.9375-72-67.554687.296875-37.027344 30.171875-67.011719 67.199219-67.445313 2.570312-.074218 4.949219-1.378906 6.390625-3.503906 1.445312-2.128906 1.777344-4.820312.898437-7.234375-3.253906-8.839844-4.929687-18.179687-4.953125-27.597656.621094-46.179688 38.484375-83.148438 84.664063-82.664063 35.058593-.097656 66.578125 21.351563 79.351562 54 .785157 2.0625 2.382813 3.710938 4.421875 4.554688 2.039063.84375 4.335938.808594 6.347656-.101563 6.65625-2.992187 13.785157-4.792969 21.0625-5.320312h.082032l.800781-.054688c1.269531-.078125 2.535156-.207031 3.824219-.207031 28.953125-.207031 54.105468 19.875 60.308594 48.160156.886718 4.304688 5.074218 7.089844 9.386718 6.238282 2.867188-.550782 5.765625-.941407 8.679688-1.167969.800781-.070313 1.597656-.078125 2.398437-.117188 2.167969-.113281 4.335938-.152343 6.496094-.089843.800781 0 1.648437.070312 2.472656.121093 2.34375.152344 4.671875.382813 6.992188.742188.511719.074219 1.023437.136719 1.535156.226562 8.757813 1.515625 17.195313 4.503907 24.953125 8.839844.550781.308594 1.085938.636719 1.597656.964844 1.898438 1.121093 3.738282 2.335937 5.539063 3.625.695312.496093 1.390625.984375 2.070312 1.503906 1.792969 1.382813 3.519531 2.855469 5.191407 4.394531 15.40625 13.96875 24.222656 33.777344 24.289062 54.574219-.566406 41.972656-34.992188 75.570313-76.96875 75.113281h-11.03125c-4.417969 0-8 3.582032-8 8 0 4.417969 3.582031 8 8 8h11.03125c50.808594.449219 92.394531-40.308594 92.96875-91.113281-.007812-21.3125-7.617188-41.925781-21.457031-58.136719 17.257812-13.394531 30.148437-31.617187 37.03125-52.351562 1.101562-3.25.003906-6.84375-2.726563-8.925782-2.730468-2.078124-6.484375-2.1875-9.328125-.265624zm-36.429687 50.152344c-.21875-.175781-.449219-.328125-.664063-.503906-.546875-.441406-1.121093-.839844-1.683593-1.28125-1.71875-1.34375-3.460938-2.648438-5.261719-3.863281-.640625-.425781-1.304688-.800781-1.953125-1.230469-1.792969-1.136719-3.597656-2.234375-5.457032-3.25-.71875-.390625-1.460937-.757812-2.199218-1.136719-1.832032-.933593-3.679688-1.816406-5.597656-2.628906-.800782-.355469-1.664063-.699219-2.503907-1.027344-1.847656-.734375-3.714843-1.40625-5.601562-2.015625-.921875-.304687-1.839844-.589844-2.777344-.863281-1.871094-.542969-3.765625-1.015625-5.6875-1.441406-.976563-.214844-1.941406-.453125-2.933594-.644531-2.007812-.378907-4-.65625-6.082031-.914063-.910156-.113281-1.808594-.261719-2.726562-.351563-2.960938-.273437-5.9375-.441406-8.945313-.441406-3.644531 0-7.285156.210938-10.902344.632813-.617187-1.945313-1.3125-3.855469-2.074219-5.726563-.246093-.601562-.542968-1.175781-.800781-1.769531-.550781-1.253906-1.085937-2.511719-1.703125-3.71875-.351562-.703125-.757812-1.367187-1.136718-2.054687-.582032-1.074219-1.152344-2.144532-1.78125-3.203126-.449219-.734374-.953126-1.429687-1.425782-2.152343-.625-.941407-1.222656-1.894531-1.886718-2.804688-.535157-.738281-1.113282-1.433593-1.671876-2.144531-.664062-.855469-1.3125-1.722656-2.015624-2.546875-.707032-.824219-1.25-1.367187-1.882813-2.054687-.628906-.6875-1.40625-1.601563-2.140625-2.3125-.738281-.710938-1.378906-1.296876-2.074219-1.941407-.695312-.648437-1.503906-1.433593-2.289062-2.113281-.78125-.679688-1.488281-1.199219-2.230469-1.800781-.742188-.601563-1.601562-1.304688-2.398438-1.910157-.800781-.609374-1.601562-1.097656-2.402343-1.601562s-1.679688-1.167969-2.550781-1.710938c-.871094-.546874-1.671876-.984374-2.511719-1.464843-.839844-.480469-1.777344-1.039063-2.6875-1.519531-.914063-.480469-1.738281-.847657-2.609375-1.265626-.871094-.414062-1.871094-.902343-2.832032-1.3125-.960937-.40625-1.785156-.710937-2.6875-1.0625-.90625-.351562-1.96875-.800781-2.96875-1.113281s-1.824218-.566406-2.742187-.839843c-.921875-.269532-2.058594-.621094-3.105469-.894532-.917968-.230468-1.855468-.425781-2.792968-.625-1.070313-.230468-2.136719-.472656-3.199219-.65625-.9375-.160156-1.886719-.277344-2.832031-.40625-1.105469-.152344-2.214844-.304687-3.335938-.410156-.9375-.085938-1.878906-.132812-2.824219-.183594-.800781-.046875-1.597656-.136718-2.34375-.160156-.128906-1.734375-.175781-3.335938-.175781-4.933594 0-52.9375 41.015625-96 91.433594-96 2.359375 0 4.796875 0 7.292968.109375-20.324218 16.414063-32.230468 41.074219-32.4375 67.203125-.730468 25.511719 10.609376 49.878906 30.59375 65.753906 19.984376 15.878907 46.285157 21.410157 70.972657 14.933594-6.3125 10.710938-14.738281 20.023438-24.765625 27.375zm0 0" fill="url(#b)"/><path d="m112 392.566406c0 4.417969 3.582031 8 8 8h20.6875l-18.34375 18.34375c-2.078125 2.007813-2.914062 4.980469-2.179688 7.777344.730469 2.796875 2.914063 4.984375 5.710938 5.714844 2.796875.730468 5.773438-.101563 7.78125-2.179688l18.34375-18.34375v20.6875c0 4.417969 3.582031 8 8 8s8-3.582031 8-8v-20.6875l18.34375 18.34375c3.140625 3.03125 8.128906 2.988282 11.214844-.097656 3.085937-3.085938 3.128906-8.078125.097656-11.214844l-18.34375-18.34375h20.6875c4.417969 0 8-3.582031 8-8 0-4.417968-3.582031-8-8-8h-20.6875l18.34375-18.34375c3.03125-3.140625 2.988281-8.128906-.097656-11.214844-3.085938-3.085937-8.074219-3.128906-11.214844-.097656l-18.34375 18.34375v-20.6875c0-4.417968-3.582031-8-8-8s-8 3.582032-8 8v20.6875l-18.34375-18.34375c-3.140625-3.03125-8.128906-2.988281-11.214844.097656-3.085937 3.085938-3.128906 8.074219-.097656 11.214844l18.34375 18.34375h-20.6875c-4.417969 0-8 3.582032-8 8zm0 0" fill="url(#c)"/><path d="m288 328.566406c-4.417969 0-8 3.582032-8 8v20.6875l-18.34375-18.34375c-3.140625-3.03125-8.128906-2.988281-11.214844.097656-3.085937 3.085938-3.128906 8.074219-.097656 11.214844l18.34375 18.34375h-20.6875c-4.417969 0-8 3.582032-8 8 0 4.417969 3.582031 8 8 8h20.6875l-18.34375 18.34375c-2.078125 2.007813-2.914062 4.980469-2.179688 7.777344.730469 2.796875 2.914063 4.984375 5.710938 5.714844 2.796875.730468 5.773438-.101563 7.78125-2.179688l18.34375-18.34375v20.6875c0 4.417969 3.582031 8 8 8s8-3.582031 8-8v-20.6875l18.34375 18.34375c3.140625 3.03125 8.128906 2.988282 11.214844-.097656 3.085937-3.085938 3.128906-8.078125.097656-11.214844l-18.34375-18.34375h20.6875c4.417969 0 8-3.582031 8-8 0-4.417968-3.582031-8-8-8h-20.6875l18.34375-18.34375c3.03125-3.140625 2.988281-8.128906-.097656-11.214844-3.085938-3.085937-8.074219-3.128906-11.214844-.097656l-18.34375 18.34375v-20.6875c0-4.417968-3.582031-8-8-8zm0 0" fill="url(#d)"/><path d="m160 280.566406c0 4.417969 3.582031 8 8 8h20.6875l-18.34375 18.34375c-2.078125 2.007813-2.914062 4.980469-2.179688 7.777344.730469 2.796875 2.914063 4.984375 5.710938 5.714844 2.796875.730468 5.773438-.101563 7.78125-2.179688l18.34375-18.34375v20.6875c0 4.417969 3.582031 8 8 8s8-3.582031 8-8v-20.6875l18.34375 18.34375c3.140625 3.03125 8.128906 2.988282 11.214844-.097656 3.085937-3.085938 3.128906-8.078125.097656-11.214844l-18.34375-18.34375h20.6875c4.417969 0 8-3.582031 8-8 0-4.417968-3.582031-8-8-8h-20.6875l18.34375-18.34375c3.03125-3.140625 2.988281-8.128906-.097656-11.214844-3.085938-3.085937-8.074219-3.128906-11.214844-.097656l-18.34375 18.34375v-20.6875c0-4.417968-3.582031-8-8-8s-8 3.582032-8 8v20.6875l-18.34375-18.34375c-3.140625-3.03125-8.128906-2.988281-11.214844.097656-3.085937 3.085938-3.128906 8.074219-.097656 11.214844l18.34375 18.34375h-20.6875c-4.417969 0-8 3.582032-8 8zm0 0" fill="url(#e)"/></svg>