<svg height="479pt" viewBox="0 -23 479.99745 479" width="479pt" xmlns="http://www.w3.org/2000/svg" xmlns:xlink="http://www.w3.org/1999/xlink"><linearGradient id="a" gradientUnits="userSpaceOnUse" x1="240" x2="240" y1="432.565039" y2=".565039"><stop offset="0" stop-color="#12c2e9"/><stop offset=".5" stop-color="#c471ed"/><stop offset=".982" stop-color="#f64f59"/></linearGradient><path d="m467.519531 141.789062c-9.832031 6.507813-21.449219 9.792969-33.230469 9.390626-36.230468-.976563-64.847656-31.070313-64-67.300782.046876-28.109375 16.957032-53.441406 42.894532-64.265625 3.144531-1.222656 5.179687-4.289062 5.09375-7.660156-.085938-3.371094-2.277344-6.328125-5.476563-7.386719-10.851562-3.042968-22.105469-4.394531-33.367187-4-59.242188 0-107.433594 50.238282-107.433594 112 0 1.992188.078125 4 .207031 6.160156-3.6875.652344-7.320312 1.566407-10.878906 2.734376-16.984375-34.839844-52.367187-56.929688-91.128906-56.894532-55.019531-.488281-100.058594 43.644532-100.6875 98.664063.011719 7.820312.984375 15.613281 2.894531 23.199219-41.371094 5.585937-72.277344 40.835937-72.40625 82.582031.527344 46.585937 38.652344 83.957031 85.238281 83.554687 4.421875 0 8-3.582031 8-8 0-4.417968-3.578125-8-8-8-24.289062.640625-47.054687-11.824218-59.597656-32.636718-12.546875-20.8125-12.9375-46.761719-1.027344-67.941407 11.910157-21.183593 34.285157-34.332031 58.585938-34.421875 2.570312-.074218 4.949219-1.378906 6.390625-3.503906 1.445312-2.128906 1.777344-4.820312.898437-7.234375-3.253906-8.839844-4.929687-18.179687-4.953125-27.597656.621094-46.179688 38.484375-83.148438 84.664063-82.664063 35.058593-.097656 66.578125 21.351563 79.351562 54 .785157 2.0625 2.382813 3.710938 4.421875 4.554688 2.039063.84375 4.335938.808594 6.347656-.101563 6.652344-2.992187 13.78125-4.792969 21.054688-5.320312h.089844l.800781-.054688c1.269531-.078125 2.535156-.207031 3.824219-.207031 28.953125-.207031 54.105468 19.875 60.308594 48.160156.886718 4.304688 5.074218 7.089844 9.386718 6.238282 2.882813-.554688 5.796875-.945313 8.726563-1.167969.746093-.0625 1.480469-.070313 2.222656-.109375 2.257813-.121094 4.511719-.167969 6.761719-.089844.742187 0 1.480468.0625 2.214844.105469 2.464843.152343 4.921874.398437 7.351562.796875l1.183594.179687c8.832031 1.511719 17.335937 4.519531 25.152344 8.894531.496093.28125.976562.574219 1.472656.871094 1.945312 1.144532 3.832031 2.402344 5.671875 3.703125.671875.488281 1.351562.960938 2.007812 1.464844 1.808594 1.382813 3.546875 2.871094 5.234375 4.417969 15.367188 13.980468 24.15625 33.773437 24.214844 54.550781-.566406 41.972656-34.992188 75.570313-76.96875 75.113281-4.417969 0-8 3.582032-8 8 0 4.417969 3.582031 8 8 8 50.808594.449219 92.394531-40.308594 92.96875-91.113281-.007812-21.3125-7.617188-41.925781-21.457031-58.136719 17.257812-13.394531 30.148437-31.617187 37.03125-52.351562 1.101562-3.25.003906-6.84375-2.726563-8.925782-2.730468-2.078124-6.484375-2.1875-9.328125-.265624zm-36.429687 50.152344c-.21875-.175781-.449219-.328125-.664063-.503906-.546875-.441406-1.121093-.839844-1.683593-1.28125-1.71875-1.34375-3.460938-2.648438-5.261719-3.863281-.640625-.425781-1.304688-.800781-1.953125-1.230469-1.792969-1.136719-3.597656-2.234375-5.457032-3.25-.71875-.390625-1.460937-.757812-2.199218-1.136719-1.832032-.933593-3.679688-1.816406-5.597656-2.628906-.800782-.355469-1.664063-.699219-2.503907-1.027344-1.847656-.734375-3.714843-1.40625-5.601562-2.015625-.921875-.304687-1.839844-.589844-2.777344-.863281-1.871094-.542969-3.765625-1.015625-5.6875-1.441406-.976563-.214844-1.941406-.453125-2.933594-.644531-2.007812-.378907-4-.65625-6.082031-.914063-.910156-.113281-1.808594-.261719-2.726562-.351563-2.960938-.273437-5.9375-.441406-8.945313-.441406-3.644531 0-7.285156.210938-10.902344.632813-.617187-1.945313-1.3125-3.855469-2.074219-5.726563-.246093-.601562-.542968-1.175781-.800781-1.769531-.550781-1.253906-1.085937-2.511719-1.703125-3.71875-.351562-.703125-.757812-1.367187-1.136718-2.054687-.582032-1.074219-1.152344-2.144532-1.78125-3.203126-.449219-.734374-.953126-1.429687-1.425782-2.152343-.625-.941407-1.222656-1.894531-1.886718-2.804688-.535157-.738281-1.113282-1.433593-1.671876-2.144531-.664062-.855469-1.3125-1.722656-2.015624-2.546875-.707032-.824219-1.25-1.367187-1.882813-2.054687-.628906-.6875-1.40625-1.601563-2.140625-2.3125-.738281-.710938-1.378906-1.296876-2.074219-1.941407-.695312-.648437-1.503906-1.433593-2.289062-2.113281-.78125-.679688-1.488281-1.199219-2.230469-1.800781-.742188-.601563-1.601562-1.304688-2.398438-1.910157-.800781-.609374-1.601562-1.097656-2.402343-1.601562s-1.679688-1.167969-2.550781-1.710938c-.871094-.546874-1.671876-.984374-2.511719-1.464843-.839844-.480469-1.777344-1.039063-2.6875-1.519531-.914063-.480469-1.738281-.847657-2.609375-1.265626-.871094-.414062-1.871094-.902343-2.832032-1.3125-.960937-.40625-1.785156-.710937-2.6875-1.0625-.90625-.351562-1.96875-.800781-2.96875-1.113281s-1.824218-.566406-2.742187-.839843c-.921875-.269532-2.058594-.621094-3.105469-.894532-.917968-.230468-1.855468-.425781-2.792968-.625-1.070313-.230468-2.136719-.472656-3.199219-.65625-.9375-.160156-1.886719-.277344-2.832031-.40625-1.105469-.152344-2.214844-.304687-3.335938-.410156-.9375-.085938-1.878906-.132812-2.824219-.183594-.800781-.046875-1.597656-.136718-2.34375-.160156-.128906-1.734375-.175781-3.335938-.175781-4.933594 0-52.9375 41.015625-96 91.433594-96 2.359375 0 4.796875 0 7.292968.109375-20.324218 16.414063-32.230468 41.074219-32.4375 67.203125-.730468 25.511719 10.609376 49.878906 30.59375 65.753906 19.984376 15.878907 46.285157 21.410157 70.972657 14.933594-6.3125 10.710938-14.738281 20.023438-24.765625 27.375zm-87.089844 184.625c0-25.394531-29.671875-78.050781-33.054688-84-1.542968-2.335937-4.148437-3.738281-6.945312-3.738281s-5.402344 1.402344-6.945312 3.738281c-3.382813 5.949219-33.054688 58.605469-33.054688 84 0 22.089844 17.910156 40 40 40s40-17.910156 40-40zm-40 24c-13.253906 0-24-10.746094-24-24 0-14.144531 13.902344-43.914062 24-63.25 10.097656 19.335938 24 49.105469 24 63.25 0 13.253906-10.746094 24-24 24zm-86.945312-188c-3.382813 5.949219-33.054688 58.605469-33.054688 84 0 22.089844 17.910156 40 40 40s40-17.910156 40-40c0-25.394531-29.671875-78.050781-33.054688-84-1.542968-2.335937-4.148437-3.738281-6.945312-3.738281s-5.402344 1.402344-6.945312 3.738281zm6.945312 108c-13.253906 0-24-10.746094-24-24 0-14.144531 13.902344-43.914062 24-63.25 10.097656 19.335938 24 49.105469 24 63.25 0 13.253906-10.746094 24-24 24zm-78.945312-12c-3.382813 5.949219-33.054688 58.605469-33.054688 84 0 22.089844 17.910156 40 40 40s40-17.910156 40-40c0-25.394531-29.671875-78.050781-33.054688-84-1.542968-2.335937-4.148437-3.738281-6.945312-3.738281s-5.402344 1.402344-6.945312 3.738281zm6.945312 108c-13.253906 0-24-10.746094-24-24 0-14.144531 13.902344-43.914062 24-63.25 10.097656 19.335938 24 49.105469 24 63.25 0 13.253906-10.746094 24-24 24zm0 0" fill="url(#a)"/></svg>