<svg height="480pt" viewBox="-8 0 480 480.16715" width="480pt" xmlns="http://www.w3.org/2000/svg" xmlns:xlink="http://www.w3.org/1999/xlink"><linearGradient id="a" gradientUnits="userSpaceOnUse" x1="232.083575" x2="232.083575" y1="480.154575" y2=".154575"><stop offset="0" stop-color="#12c2e9"/><stop offset=".5" stop-color="#c471ed"/><stop offset=".982" stop-color="#f64f59"/></linearGradient><path d="m240.082031 480.15625c100.585938 1.042969 190.585938-62.304688 223.546875-157.335938 1.140625-3.230468.105469-6.824218-2.582031-8.949218-2.683594-2.121094-6.421875-2.300782-9.300781-.445313-24.988282 15.769531-54.128906 23.6875-83.664063 22.730469-88.320312-.101562-159.898437-71.679688-160-160 1.019531-67.902344 43.328125-128.320312 106.785157-152.496094 3.210937-1.1875 5.308593-4.285156 5.21875-7.707031-.085938-3.421875-2.335938-6.40625-5.601563-7.429687-24.257813-6.421876-49.324219-9.242188-74.402344-8.367188-132.546875 0-239.9999998 107.449219-239.9999998 240 0 132.546875 107.4531248 240 239.9999998 240zm0-464c15.679688-.21875 31.359375.664062 46.914063 2.644531-57.679688 31.519531-93.9375 91.632813-94.914063 157.355469.113281 97.15625 78.84375 175.886719 176 176 24.789063.535156 49.398438-4.320312 72.121094-14.234375-36.109375 77.746094-114.402344 127.132813-200.121094 126.234375-123.710937 0-224-100.289062-224-224 0-123.714844 100.289063-224 224-224zm0 0" fill="url(#a)"/></svg>