<svg height="479pt" viewBox="0 -23 479.99745 479" width="479pt" xmlns="http://www.w3.org/2000/svg" xmlns:xlink="http://www.w3.org/1999/xlink"><linearGradient id="a"><stop offset="0" stop-color="#12c2e9"/><stop offset=".5" stop-color="#c471ed"/><stop offset=".982" stop-color="#f64f59"/></linearGradient><linearGradient id="b" gradientUnits="userSpaceOnUse" x1="240" x2="240" xlink:href="#a" y1="568.565039" y2="-87.434961"/><linearGradient id="c" gradientUnits="userSpaceOnUse" x1="232" x2="232" xlink:href="#a" y1="568.565039" y2="-87.434961"/><path d="m85.238281 352.566406c4.421875 0 8-3.582031 8-8 0-4.417968-3.578125-8-8-8-24.289062.640625-47.054687-11.824218-59.597656-32.636718-12.546875-20.8125-12.9375-46.761719-1.027344-67.941407 11.910157-21.183593 34.285157-34.332031 58.585938-34.421875 2.570312-.074218 4.949219-1.378906 6.390625-3.503906 1.445312-2.128906 1.777344-4.820312.898437-7.234375-3.253906-8.839844-4.929687-18.179687-4.953125-27.597656.621094-46.179688 38.484375-83.148438 84.664063-82.664063 35.058593-.097656 66.578125 21.351563 79.351562 54 .785157 2.0625 2.382813 3.710938 4.421875 4.554688 2.039063.84375 4.335938.808594 6.347656-.101563 6.652344-2.992187 13.78125-4.792969 21.054688-5.320312h.089844l.800781-.054688c1.269531-.078125 2.535156-.207031 3.824219-.207031 28.953125-.207031 54.105468 19.875 60.308594 48.160156.886718 4.304688 5.074218 7.089844 9.386718 6.238282 2.882813-.554688 5.796875-.945313 8.726563-1.167969.746093-.0625 1.480469-.070313 2.222656-.109375 2.257813-.121094 4.511719-.167969 6.761719-.089844.742187 0 1.480468.0625 2.214844.105469 2.464843.152343 4.921874.398437 7.359374.796875.386719.058594.800782.105468 1.167969.179687 8.832031 1.511719 17.34375 4.519531 25.160157 8.894531.496093.28125.976562.574219 1.464843.863282 1.953125 1.152344 3.839844 2.402344 5.6875 3.71875.671875.480468 1.34375.953125 1.992188 1.457031 1.816406 1.382813 3.554687 2.871094 5.242187 4.425781 15.371094 13.972656 24.160156 33.769532 24.214844 54.542969-.566406 41.972656-34.992188 75.570313-76.96875 75.113281-4.417969 0-8 3.582032-8 8 0 4.417969 3.582031 8 8 8 50.808594.449219 92.394531-40.308594 92.96875-91.113281-.007812-21.3125-7.617188-41.925781-21.457031-58.136719 17.257812-13.394531 30.148437-31.617187 37.03125-52.351562 1.101562-3.25.003906-6.84375-2.726563-8.925782-2.730468-2.078124-6.484375-2.1875-9.328125-.265624-9.832031 6.507812-21.449219 9.789062-33.230469 9.390624-36.230468-.976562-64.847656-31.070312-64-67.304687.046876-28.105469 16.957032-53.4375 42.894532-64.261719 3.132812-1.230468 5.160156-4.289062 5.074218-7.652344-.085937-3.363281-2.269531-6.3125-5.457031-7.378906-10.851562-3.042968-22.105469-4.394531-33.367187-4-59.242188 0-107.433594 50.238282-107.433594 112 0 1.992188.078125 4 .207031 6.160156-3.6875.652344-7.320312 1.566407-10.878906 2.734376-16.984375-34.839844-52.367187-56.929688-91.128906-56.894532-55.019531-.488281-100.058594 43.644532-100.6875 98.664063.011719 7.820312.984375 15.613281 2.894531 23.199219-41.371094 5.585937-72.277344 40.835937-72.40625 82.582031.527344 46.585937 38.652344 83.957031 85.238281 83.554687zm294.195313-336c2.359375 0 4.796875 0 7.292968.109375-20.324218 16.414063-32.230468 41.074219-32.4375 67.203125-.730468 25.511719 10.609376 49.878906 30.59375 65.753906 19.984376 15.878907 46.285157 21.410157 70.972657 14.933594-6.316407 10.726563-14.753907 20.050782-24.800781 27.40625-.214844-.175781-.445313-.328125-.664063-.503906-.542969-.441406-1.117187-.839844-1.679687-1.28125-1.71875-1.34375-3.464844-2.644531-5.261719-3.863281-.640625-.421875-1.304688-.800781-1.953125-1.230469-1.792969-1.136719-3.601563-2.234375-5.457032-3.25-.71875-.390625-1.464843-.757812-2.199218-1.132812-1.832032-.9375-3.679688-1.816407-5.601563-2.632813-.796875-.351563-1.664062-.695313-2.503906-1.023437-1.84375-.738282-3.710937-1.410157-5.597656-2.019532-.921875-.300781-1.839844-.589844-2.777344-.863281-1.871094-.542969-3.765625-1.015625-5.6875-1.4375-.976563-.21875-1.945313-.457031-2.9375-.648437-2.007813-.375-4-.65625-6.078125-.914063-.914062-.109375-1.808594-.261719-2.726562-.351563-2.960938-.269531-5.9375-.4375-8.945313-.4375-3.644531-.003906-7.285156.207032-10.90625.628907-.613281-1.941407-1.308594-3.855469-2.070313-5.726563-.246093-.601562-.542968-1.175781-.800781-1.769531-.550781-1.253906-1.085937-2.511719-1.703125-3.71875-.351562-.703125-.761718-1.367187-1.136718-2.054687-.582032-1.074219-1.152344-2.144532-1.78125-3.199219-.449219-.738281-.953126-1.433594-1.425782-2.152344-.625-.945313-1.222656-1.898437-1.886718-2.808594-.539063-.738281-1.113282-1.433593-1.671876-2.144531-.664062-.855469-1.3125-1.71875-2.015624-2.542969-.707032-.824219-1.25-1.371093-1.882813-2.058593s-1.40625-1.597657-2.144531-2.3125c-.734375-.710938-1.375-1.292969-2.070313-1.941407-.695312-.648437-1.503906-1.433593-2.289062-2.113281-.785157-.679688-1.488281-1.199219-2.230469-1.800781-.746094-.597657-1.601562-1.304688-2.402344-1.910157-.796875-.609374-1.597656-1.097656-2.398437-1.601562s-1.679688-1.167969-2.550781-1.710938c-.875-.542968-1.671876-.984374-2.511719-1.464843-.839844-.480469-1.777344-1.039063-2.691407-1.519531-.910156-.480469-1.734374-.847657-2.605468-1.265626-.871094-.414062-1.871094-.902343-2.832032-1.308593-.960937-.410157-1.785156-.714844-2.6875-1.066407-.90625-.351562-1.96875-.800781-2.96875-1.109374-1-.3125-1.824218-.570313-2.746093-.84375-.917969-.269532-2.054688-.621094-3.101563-.894532-.921875-.230468-1.855468-.421875-2.792968-.625-1.070313-.230468-2.136719-.46875-3.199219-.65625-.9375-.160156-1.886719-.277344-2.832031-.40625-1.105469-.152344-2.214844-.304687-3.335938-.40625-.9375-.089844-1.878906-.136718-2.824219-.1875-.800781-.046875-1.601562-.132812-2.34375-.160156-.097656-1.765625-.144531-3.367188-.144531-4.964844 0-52.9375 41.015625-96 91.433594-96zm0 0" fill="url(#b)"/><g fill="url(#c)"><path d="m128 416.566406c10.882812-.304687 21.660156 2.195313 31.296875 7.261719 11.746094 6.023437 24.808594 9.023437 38.007813 8.738281 13.203124.285156 26.269531-2.714844 38.023437-8.738281 9.644531-5.066406 20.429687-7.566406 31.320313-7.261719 10.890624-.308594 21.679687 2.195313 31.328124 7.261719 11.753907 6.023437 24.820313 9.023437 38.023438 8.738281 4.417969 0 8-3.582031 8-8 0-4.417968-3.582031-8-8-8-10.890625.304688-21.675781-2.199218-31.320312-7.265625-11.757813-6.019531-24.824219-9.023437-38.03125-8.734375-13.203126-.289062-26.269532 2.710938-38.023438 8.734375-9.644531 5.066407-20.429688 7.570313-31.320312 7.265625-10.886719.300782-21.664063-2.199218-31.304688-7.265625-11.746094-6.019531-24.804688-9.023437-38-8.734375-4.417969 0-8 3.582032-8 8 0 4.417969 3.582031 8 8 8zm0 0"/><path d="m128 320.566406c10.882812-.304687 21.660156 2.195313 31.296875 7.261719 11.746094 6.023437 24.808594 9.023437 38.007813 8.738281 13.203124.285156 26.269531-2.714844 38.023437-8.738281 9.644531-5.066406 20.429687-7.566406 31.320313-7.261719 10.890624-.308594 21.679687 2.195313 31.328124 7.261719 11.753907 6.023437 24.820313 9.023437 38.023438 8.738281 4.417969 0 8-3.582031 8-8 0-4.417968-3.582031-8-8-8-10.890625.304688-21.675781-2.199218-31.320312-7.265625-11.757813-6.019531-24.824219-9.023437-38.03125-8.734375-13.203126-.289062-26.269532 2.710938-38.023438 8.734375-9.644531 5.066407-20.429688 7.570313-31.320312 7.265625-10.886719.300782-21.664063-2.199218-31.304688-7.265625-11.746094-6.019531-24.804688-9.023437-38-8.734375-4.417969 0-8 3.582032-8 8 0 4.417969 3.582031 8 8 8zm0 0"/><path d="m128 272.566406c10.882812-.304687 21.660156 2.195313 31.296875 7.261719 11.746094 6.023437 24.808594 9.023437 38.007813 8.738281 13.203124.285156 26.269531-2.714844 38.023437-8.738281 9.644531-5.066406 20.429687-7.566406 31.320313-7.261719 10.890624-.308594 21.679687 2.195313 31.328124 7.261719 11.753907 6.023437 24.820313 9.023437 38.023438 8.738281 4.417969 0 8-3.582031 8-8 0-4.417968-3.582031-8-8-8-10.890625.304688-21.675781-2.199218-31.320312-7.265625-11.757813-6.019531-24.824219-9.023437-38.03125-8.734375-13.203126-.289062-26.269532 2.710938-38.023438 8.734375-9.644531 5.066407-20.429688 7.570313-31.320312 7.265625-10.886719.300782-21.664063-2.199218-31.304688-7.265625-11.746094-6.019531-24.804688-9.023437-38-8.734375-4.417969 0-8 3.582032-8 8 0 4.417969 3.582031 8 8 8zm0 0"/><path d="m128 368.566406c10.882812-.304687 21.660156 2.195313 31.296875 7.261719 11.746094 6.023437 24.808594 9.023437 38.007813 8.738281 13.203124.285156 26.269531-2.714844 38.023437-8.738281 9.644531-5.066406 20.429687-7.566406 31.320313-7.261719 10.890624-.308594 21.679687 2.195313 31.328124 7.261719 11.753907 6.023437 24.820313 9.023437 38.023438 8.738281 4.417969 0 8-3.582031 8-8 0-4.417968-3.582031-8-8-8-10.890625.304688-21.675781-2.199218-31.320312-7.265625-11.757813-6.019531-24.824219-9.023437-38.03125-8.734375-13.203126-.289062-26.269532 2.710938-38.023438 8.734375-9.644531 5.066407-20.429688 7.570313-31.320312 7.265625-10.886719.300782-21.664063-2.199218-31.304688-7.265625-11.746094-6.019531-24.804688-9.023437-38-8.734375-4.417969 0-8 3.582032-8 8 0 4.417969 3.582031 8 8 8zm0 0"/></g></svg>