<svg height="479pt" viewBox="-87 0 479 479.74583" width="479pt" xmlns="http://www.w3.org/2000/svg" xmlns:xlink="http://www.w3.org/1999/xlink"><linearGradient id="a"><stop offset="0" stop-color="#12c2e9"/><stop offset=".5" stop-color="#c471ed"/><stop offset=".982" stop-color="#f64f59"/></linearGradient><linearGradient id="b" gradientUnits="userSpaceOnUse" x1="152.372915" x2="152.372915" xlink:href="#a" y1="607.745826" y2="-56.254174"/><linearGradient id="c" gradientUnits="userSpaceOnUse" x1="112.372915" x2="112.372915" xlink:href="#a" y1="607.745826" y2="-56.254174"/><linearGradient id="d" gradientUnits="userSpaceOnUse" x1="192.372915" x2="192.372915" xlink:href="#a" y1="607.745826" y2="-56.254174"/><path d="m304.371094 322.601562c0-83.65625-139.269532-309.496093-145.199219-319.0625-1.554687-2.21875-4.089844-3.539062-6.800781-3.539062-2.707032 0-5.242188 1.320312-6.796875 3.539062-5.929688 9.566407-145.203125 235.40625-145.203125 319.0625 0 86.648438 68.1875 157.144532 152 157.144532 83.816406 0 152-70.496094 152-157.144532zm-152 141.144532c-74.988282 0-136-63.3125-136-141.144532 0-69.054687 107.59375-252.289062 136-299.457031 28.410156 47.203125 136 230.402344 136 299.457031 0 77.832032-61.007813 141.144532-136 141.144532zm0 0" fill="url(#b)"/><path d="m197.019531 273.242188c-1.726562-1.246094-3.882812-1.75-5.984375-1.402344-2.101562.347656-3.980468 1.519531-5.214844 3.257812l-80 112c-2.566406 3.597656-1.730468 8.59375 1.863282 11.160156 3.597656 2.566407 8.59375 1.734376 11.160156-1.863281l80-112c2.570312-3.585937 1.753906-8.574219-1.824219-11.152343zm0 0" fill="url(#b)"/><path d="m136.371094 303.746094c0-17.945313-10.542969-32-24-32-13.453125 0-24 14.054687-24 32 0 17.945312 10.546875 32 24 32 13.457031 0 24-14.054688 24-32zm-32 0c0-9.769532 4.738281-16 8-16 3.265625 0 8 6.230468 8 16 0 9.769531-4.734375 16-8 16-3.261719 0-8-6.230469-8-16zm0 0" fill="url(#c)"/><path d="m192.371094 335.746094c-13.453125 0-24 14.054687-24 32 0 17.945312 10.546875 32 24 32 13.457031 0 24-14.054688 24-32 0-17.945313-10.542969-32-24-32zm0 48c-3.261719 0-8-6.230469-8-16 0-9.769532 4.738281-16 8-16 3.265625 0 8 6.230468 8 16 0 9.769531-4.734375 16-8 16zm0 0" fill="url(#d)"/></svg>