<svg height="480pt" viewBox="0 -48 480.03918 480" width="480pt" xmlns="http://www.w3.org/2000/svg" xmlns:xlink="http://www.w3.org/1999/xlink"><linearGradient id="a" gradientUnits="userSpaceOnUse" x1="239.989918" x2="239.989918" y1="384.01959" y2=".01959"><stop offset="0" stop-color="#12c2e9"/><stop offset=".5" stop-color="#c471ed"/><stop offset=".982" stop-color="#f64f59"/></linearGradient><path d="m47.4375 384.019531h132.695312c22.019532.164063 40.695313-16.140625 43.496094-37.984375 2.800782-21.839844-11.152344-42.332031-32.503906-47.726562 2.265625-14.667969-2.027344-29.589844-11.742188-40.8125-9.710937-11.222656-23.863281-17.613282-38.703124-17.476563-1.601563 0-3.136719.175781-4.691407.320313v-24.320313c0-57.4375 46.5625-104 104-104s104 46.5625 104 104v24.320313c-1.550781-.144532-3.101562-.320313-4.6875-.320313-14.839843-.136719-28.992187 6.253907-38.703125 17.476563-9.714844 11.222656-14.007812 26.144531-11.742187 40.8125-21.351563 5.394531-35.304688 25.886718-32.503907 47.726562 2.800782 21.84375 21.476563 38.148438 43.496094 37.984375h132.695313c21.480469.230469 40.382812-14.132812 45.910156-34.890625 5.53125-20.757812-3.714844-42.621094-22.464844-53.109375v-80c0-119.292969-96.703125-215.9999998-216-215.9999998-119.292969 0-216 96.7070308-216 215.9999998v80h.105469c-18.757812 10.460938-28.03125 32.3125-22.523438 53.070313 5.507813 20.761718 24.390626 35.140625 45.867188 34.929687zm192.550781-288c-66.242187.074219-119.921875 53.757813-120 120v28.457031c-5.992187 2.65625-11.421875 6.433594-16 11.128907v-39.585938c0-75.109375 60.890625-136 136-136 75.113281 0 136 60.890625 136 136v39.585938c-4.574219-4.695313-10.003906-8.472657-16-11.128907v-28.457031c-.074219-66.242187-53.753906-119.925781-120-120zm168 171.855469c-4.730469-1.929688-9.785156-2.9375-14.894531-2.96875-.375 0-.734375.058594-1.105469.066406v-48.953125c0-83.945312-68.050781-152-152-152-83.945312 0-152 68.054688-152 152v48.953125c-.367187 0-.726562-.066406-1.101562-.066406-5.109375.03125-10.167969 1.039062-14.898438 2.96875v-51.855469c0-92.785156 75.21875-168 168-168 92.785157 0 168 75.214844 168 168zm24.554688 100.144531h-132.695313c-15.113281.085938-27.46875-12.023437-27.6875-27.136719-.222656-15.109374 11.777344-27.574218 26.886719-27.925781 2.558594-.078125 4.929687-1.375 6.375-3.488281 1.441406-2.117188 1.785156-4.796875.921875-7.210938-1.351562-3.707031-2.046875-7.625-2.058594-11.574218.207032-16.851563 12.371094-31.171875 28.964844-34.105469s32.925781 6.347656 38.898438 22.105469c.78125 2.078125 2.386718 3.738281 4.4375 4.589844 2.050781.847656 4.359374.804687 6.378906-.117188 6.710937-3.09375 14.464844-2.964844 21.066406.347656 6.605469 3.3125 11.34375 9.449219 12.878906 16.675782.878906 4.320312 5.089844 7.117187 9.414063 6.246093 2.058593-.40625 4.148437-.613281 6.242187-.613281 17.183594 0 31.113282 13.929688 31.113282 31.109375 0 17.183594-13.929688 31.113281-31.113282 31.113281zm-392.554688-152c0-110.457031 89.542969-200 200-200s200 89.542969 200 200v74.398438c-3.171875-.503907-6.386719-.695313-9.597656-.566407-1.574219-3.816406-3.734375-7.363281-6.402344-10.511718v-63.320313c0-101.621093-82.378906-184-184-184-101.617187 0-184 82.378907-184 184v63.3125c-2.667969 3.148438-4.824219 6.695313-6.398437 10.511719-3.210938-.128906-6.425782.0625-9.601563.574219zm7.449219 89.777344c2.09375 0 4.183594.207031 6.242188.613281 4.324218.871094 8.535156-1.925781 9.414062-6.246094 1.535156-7.226562 6.273438-13.363281 12.878906-16.675781 6.601563-3.3125 14.355469-3.441406 21.066406-.347656 2.015626.921875 4.328126.964844 6.378907.113281 2.050781-.847656 3.65625-2.507812 4.4375-4.585937 5.972656-15.757813 22.304687-25.039063 38.898437-22.105469s28.757813 17.253906 28.964844 34.105469c-.011719 3.949219-.707031 7.863281-2.058594 11.574219-.863281 2.414062-.519531 5.09375.921875 7.207031 1.445313 2.117187 3.816407 3.414062 6.375 3.492187 15.109375.351563 27.109375 12.816406 26.886719 27.925782-.21875 15.109374-12.574219 27.222656-27.6875 27.136718h-132.71875c-17.183594 0-31.113281-13.929687-31.113281-31.113281s13.929687-31.109375 31.113281-31.109375zm0 0" fill="url(#a)"/></svg>