<svg height="479pt" viewBox="-87 0 479 479.80315" width="479pt" xmlns="http://www.w3.org/2000/svg" xmlns:xlink="http://www.w3.org/1999/xlink"><linearGradient id="a" gradientUnits="userSpaceOnUse" x1="152.401575" x2="152.401575" y1="479.803148" y2="-.004852"><stop offset="0" stop-color="#12c2e9"/><stop offset=".5" stop-color="#c471ed"/><stop offset=".982" stop-color="#f64f59"/></linearGradient><path d="m152.402344 479.804688c83.816406 0 152-70.496094 152-157.144532 0-116.105468-139.570313-311.28125-145.503906-319.527344-1.578126-1.980468-3.96875-3.132812-6.496094-3.132812-2.53125 0-4.921875 1.152344-6.496094 3.132812-5.9375 8.246094-145.503906 203.421876-145.503906 319.527344 0 86.648438 68.183594 157.144532 152 157.144532zm0-458.042969c27.886718 40.496093 136 203.730469 136 300.898437 0 77.824219-61.007813 141.144532-136 141.144532-74.992188 0-136-63.320313-136-141.144532 0-97.128906 108.109375-260.394531 136-300.898437zm0 0" fill="url(#a)"/></svg>