<svg height="479pt" viewBox="0 -16 479.90291 479" width="479pt" xmlns="http://www.w3.org/2000/svg" xmlns:xlink="http://www.w3.org/1999/xlink"><linearGradient id="a"><stop offset="0" stop-color="#12c2e9"/><stop offset=".5" stop-color="#c471ed"/><stop offset=".982" stop-color="#f64f59"/></linearGradient><linearGradient id="b" gradientUnits="userSpaceOnUse" x1="411.641219" x2="416.969219" xlink:href="#a" y1="575.505747" y2="28.841747"/><linearGradient id="c" gradientUnits="userSpaceOnUse" x1="312.001219" x2="312.001219" xlink:href="#a" y1="571.641747" y2="29.553747"/><linearGradient id="d" gradientUnits="userSpaceOnUse" x1="336.001219" x2="336.001219" xlink:href="#a" y1="571.465747" y2="28.721747"/><linearGradient id="e" gradientUnits="userSpaceOnUse" x1="232.001219" x2="232.001219" xlink:href="#a" y1="570.801747" y2="28.713747"/><linearGradient id="f" gradientUnits="userSpaceOnUse" x1="104.001219" x2="104.001219" xlink:href="#a" y1="571.553747" y2="26.489747"/><linearGradient id="g" gradientUnits="userSpaceOnUse" x1="368.001219" x2="368.001219" xlink:href="#a" y1="572.225747" y2="30.409747"/><linearGradient id="h" gradientUnits="userSpaceOnUse" x1="264.001219" x2="264.001219" xlink:href="#a" y1="569.921747" y2="28.113747"/><path d="m434.34375 98.792969-48 48c-2.078125 2.007812-2.914062 4.984375-2.179688 7.78125.730469 2.796875 2.917969 4.980469 5.714844 5.714843 2.796875.730469 5.769532-.105468 7.777344-2.183593l48-48c3.03125-3.140625 2.988281-8.128907-.097656-11.214844-3.085938-3.085937-8.074219-3.128906-11.214844-.097656zm0 0" fill="url(#b)"/><path d="m261.65625 294.105469 112-112c3.03125-3.140625 2.988281-8.128907-.097656-11.214844-3.085938-3.085937-8.074219-3.128906-11.214844-.097656l-112 112c-2.078125 2.007812-2.914062 4.984375-2.179688 7.78125.730469 2.796875 2.917969 4.980469 5.714844 5.714843 2.796875.730469 5.769532-.105468 7.777344-2.183593zm0 0" fill="url(#c)"/><path d="m354.34375 90.792969-48 48c-2.078125 2.007812-2.914062 4.984375-2.179688 7.78125.730469 2.796875 2.917969 4.980469 5.714844 5.714843 2.796875.730469 5.769532-.105468 7.777344-2.183593l48-48c3.03125-3.140625 2.988281-8.128907-.097656-11.214844-3.085938-3.085937-8.074219-3.128906-11.214844-.097656zm0 0" fill="url(#d)"/><path d="m282.34375 162.792969-112 112c-2.078125 2.007812-2.914062 4.984375-2.179688 7.78125.730469 2.796875 2.917969 4.980469 5.714844 5.714843 2.796875.730469 5.769532-.105468 7.777344-2.183593l112-112c3.03125-3.140625 2.988281-8.128907-.097656-11.214844-3.085938-3.085937-8.074219-3.128906-11.214844-.097656zm0 0" fill="url(#e)"/><path d="m201.113281 323.753906-62.222656-8.710937-27.769531-54.242188c-1.507813-2.488281-4.210938-4.007812-7.121094-4.007812s-5.609375 1.519531-7.117188 4.007812l-27.769531 54.242188-62.222656 8.710937c-3.050781.425782-5.582031 2.566406-6.515625 5.5-.929688 2.933594-.097656 6.144532 2.144531 8.25l44.851563 42.144532-10.570313 59.402343c-.527343 2.984375.671875 6.011719 3.105469 7.816407 2.433594 1.808593 5.679688 2.085937 8.382812.71875l55.710938-28.230469 55.714844 28.230469c2.703125 1.375 5.953125 1.097656 8.390625-.710938 2.429687-1.8125 3.628906-4.839844 3.097656-7.824219l-10.570313-59.402343 44.847657-42.125c2.242187-2.109376 3.078125-5.320313 2.148437-8.253907-.933594-2.933593-3.46875-5.074219-6.515625-5.5zm-54.59375 47.199219c-1.957031 1.84375-2.859375 4.550781-2.398437 7.199219l8.519531 47.898437-45.023437-22.808593c-2.261719-1.152344-4.9375-1.152344-7.199219 0l-45.058594 22.808593 8.515625-47.898437c.460938-2.648438-.441406-5.355469-2.402344-7.199219l-35.824218-33.703125 49.800781-6.976562c2.578125-.359376 4.820312-1.953126 6.007812-4.273438l22.542969-44 22.546875 44c1.1875 2.320312 3.429687 3.914062 6.007813 4.273438l49.796874 6.976562zm0 0" fill="url(#f)"/><path d="m466.34375 146.792969-208 208c-2.078125 2.007812-2.914062 4.984375-2.179688 7.78125.730469 2.796875 2.917969 4.980469 5.714844 5.714843 2.796875.730469 5.769532-.105468 7.777344-2.183593l208-208c3.03125-3.140625 2.988281-8.128907-.097656-11.214844-3.085938-3.085937-8.074219-3.128906-11.214844-.097656zm0 0" fill="url(#g)"/><path d="m373.65625 2.792969c-3.121094-3.121094-8.1875-3.121094-11.3125 0l-208 208c-2.078125 2.007812-2.914062 4.984375-2.179688 7.78125.730469 2.796875 2.917969 4.980469 5.714844 5.714843 2.796875.730469 5.769532-.105468 7.777344-2.183593l208-208c3.125-3.125 3.125-8.1875 0-11.3125zm0 0" fill="url(#h)"/></svg>