<svg height="480pt" viewBox="0 -24 480 480" width="480pt" xmlns="http://www.w3.org/2000/svg" xmlns:xlink="http://www.w3.org/1999/xlink"><linearGradient id="a" gradientUnits="userSpaceOnUse" x1="240" x2="240" y1="432" y2="0"><stop offset="0" stop-color="#12c2e9"/><stop offset=".5" stop-color="#c471ed"/><stop offset=".982" stop-color="#f64f59"/></linearGradient><path d="m0 240c0-132.546875 107.453125-240 240-240s240 107.453125 240 240c0 107.664062-87.847656 192-200 192s-200-84.335938-200-192c0-83.949219 68.050781-152 152-152s152 68.050781 152 152c0 57.4375-46.5625 104-104 104s-104-46.5625-104-104c0-30.929688 25.070312-56 56-56s56 25.070312 56 56c0 4.417969-3.582031 8-8 8s-8-3.582031-8-8c0-22.089844-17.910156-40-40-40s-40 17.910156-40 40c0 48.601562 39.398438 88 88 88s88-39.398438 88-88c0-75.109375-60.890625-136-136-136s-136 60.890625-136 136c0 98.6875 80.800781 176 184 176s184-77.3125 184-176c0-123.710938-100.289062-224-224-224s-224 100.289062-224 224c0 4.417969-3.582031 8-8 8s-8-3.582031-8-8zm0 0" fill="url(#a)"/></svg>