<svg height="400pt" viewBox="0 0 400 400" width="400pt" xmlns="http://www.w3.org/2000/svg" xmlns:xlink="http://www.w3.org/1999/xlink"><linearGradient id="a" gradientUnits="userSpaceOnUse" x1="200" x2="200" y1="400" y2="0"><stop offset="0" stop-color="#12c2e9"/><stop offset=".5" stop-color="#c471ed"/><stop offset=".982" stop-color="#f64f59"/></linearGradient><path d="m400 200c0-4.417969-3.582031-8-8-8h-28.6875l18.34375-18.34375c3.03125-3.140625 2.988281-8.128906-.097656-11.214844-3.085938-3.085937-8.074219-3.128906-11.214844-.097656l-29.65625 29.65625h-85.328125c-1.324219-9.242188-4.957031-18.003906-10.558594-25.472656l14.046875-14.046875 52 7.441406c4.375.625 8.429688-2.410156 9.054688-6.785156.628906-4.375-2.410156-8.429688-6.78125-9.058594l-40.167969-5.734375 11.117187-11.121094 61.851563-15.460937c2.863281-.714844 5.101563-2.953125 5.820313-5.816407l16-64c.683593-2.726562-.113282-5.609374-2.101563-7.597656-1.984375-1.988281-4.867187-2.789062-7.59375-2.109375l-64 16c-2.863281.714844-5.105469 2.953125-5.824219 5.816407l-15.421875 61.847656-11.121093 11.128906-5.734376-40.167969c-.628906-4.375-4.683593-7.410156-9.058593-6.785156-4.371094.628906-7.410157 4.683594-6.78125 9.058594l7.429687 52-14.0625 14.0625c-7.46875-5.601563-16.230468-9.234375-25.472656-10.558594v-85.328125l29.65625-29.65625c3.03125-3.140625 2.988281-8.128906-.097656-11.214844-3.085938-3.085937-8.074219-3.128906-11.214844-.097656l-18.34375 18.34375v-28.6875c0-4.417969-3.582031-8-8-8s-8 3.582031-8 8v28.6875l-18.34375-18.34375c-3.140625-3.03125-8.128906-2.988281-11.214844.097656-3.085937 3.085938-3.128906 8.074219-.097656 11.214844l29.65625 29.65625v85.328125c-9.242188 1.324219-18.003906 4.957031-25.472656 10.558594l-14.039063-14.039063 7.433594-52c.625-4.375-2.410156-8.429687-6.785156-9.054687-4.375-.628907-8.429688 2.410156-9.058594 6.78125l-5.734375 40.167969-11.144531-11.152344-15.4375-61.847656c-.71875-2.863282-2.960938-5.101563-5.824219-5.816407l-64-16c-2.726562-.679687-5.609375.121094-7.597656 2.109375-1.984375 1.988282-2.78125 4.871094-2.101563 7.597656l16 64c.71875 2.863282 2.960938 5.101563 5.824219 5.816407l61.847656 15.4375 11.121094 11.121093-40.167969 5.734376c-4.375.628906-7.410156 4.683593-6.785156 9.058593.628906 4.371094 4.683594 7.410157 9.058594 6.78125l52-7.4375 14.0625 14.070313c-5.601563 7.46875-9.234375 16.230468-10.558594 25.472656h-85.328125l-29.65625-29.65625c-3.140625-3.03125-8.128906-2.988281-11.214844.097656-3.085937 3.085938-3.128906 8.074219-.097656 11.214844l18.34375 18.34375h-28.6875c-4.417969 0-8 3.582031-8 8s3.582031 8 8 8h28.6875l-18.34375 18.34375c-2.078125 2.007812-2.914062 4.984375-2.179688 7.78125.730469 2.796875 2.914063 4.980469 5.710938 5.710938 2.796875.734374 5.773438-.101563 7.78125-2.179688l29.65625-29.65625h85.328125c1.324219 9.242188 4.957031 18.003906 10.558594 25.472656l-14.03125 14.046875-52-7.441406c-4.375-.625-8.429688 2.410156-9.054688 6.785156-.628906 4.375 2.410157 8.429688 6.78125 9.058594l40.167969 5.734375-11.117188 11.121094-61.882812 15.460937c-2.863281.714844-5.105469 2.953125-5.824219 5.816407l-16 64c-.679687 2.726562.117188 5.609374 2.101563 7.597656 1.988281 1.988281 4.871094 2.789062 7.597656 2.109375l64-16c2.863281-.714844 5.105469-2.953125 5.824219-5.816407l15.4375-61.847656 11.121093-11.128906 5.734376 40.167969c.628906 4.375 4.683593 7.410156 9.058593 6.785156 4.371094-.628906 7.410157-4.683594 6.78125-9.058594l-7.429687-52 14.0625-14.0625c7.46875 5.601563 16.230468 9.234375 25.472656 10.558594v85.328125l-29.65625 29.65625c-3.03125 3.140625-2.988281 8.128906.097656 11.214844 3.085938 3.085937 8.074219 3.128906 11.214844.097656l18.34375-18.34375v28.6875c0 4.417969 3.582031 8 8 8s8-3.582031 8-8v-28.6875l18.34375 18.34375c3.140625 3.03125 8.128906 2.988281 11.214844-.097656 3.085937-3.085938 3.128906-8.074219.097656-11.214844l-29.65625-29.65625v-85.328125c9.242188-1.324219 18.003906-4.957031 25.472656-10.558594l14.039063 14.039063-7.433594 52c-.625 4.375 2.410156 8.429687 6.785156 9.054687 4.375.628907 8.429688-2.410156 9.058594-6.78125l5.734375-40.167969 11.121094 11.125 15.460937 61.851563c.71875 2.863281 2.960938 5.097656 5.824219 5.8125l64 16c2.726562.679687 5.609375-.117187 7.597656-2.105469 1.984375-1.988281 2.78125-4.871094 2.101563-7.597656l-16-64c-.71875-2.863281-2.960938-5.101562-5.824219-5.816406l-61.847656-15.414063-11.121094-11.121093 40.167969-5.734376c4.375-.628906 7.410156-4.683593 6.785156-9.058593-.628906-4.371094-4.683594-7.410157-9.058594-6.78125l-52 7.4375-14.0625-14.070313c5.601563-7.46875 9.234375-16.230468 10.558594-25.472656h85.328125l29.65625 29.65625c3.140625 3.03125 8.128906 2.988281 11.214844-.097656 3.085937-3.085938 3.128906-8.074219.097656-11.214844l-18.34375-18.34375h28.6875c4.417969 0 8-3.582031 8-8zm-97.40625-137.398438 46.398438-11.601562-11.601563 46.398438-46.398437 11.601562zm-240 34.796876-11.601562-46.398438 46.398437 11.601562 11.601563 46.398438zm34.8125 240-46.398438 11.601562 11.601563-46.398438 46.398437-11.601562zm240-34.796876 11.601562 46.398438-46.398437-11.601562-11.601563-46.398438zm-137.40625-62.601562c-22.089844 0-40-17.910156-40-40s17.910156-40 40-40 40 17.910156 40 40c-.027344 22.082031-17.917969 39.972656-40 40zm0 0" fill="url(#a)"/></svg>