<svg height="480pt" viewBox="0 0 480 480" width="480pt" xmlns="http://www.w3.org/2000/svg" xmlns:xlink="http://www.w3.org/1999/xlink"><linearGradient id="a" gradientUnits="userSpaceOnUse" x1="240" x2="240" y1="480" y2="0"><stop offset="0" stop-color="#12c2e9"/><stop offset=".5" stop-color="#c471ed"/><stop offset=".982" stop-color="#f64f59"/></linearGradient><path d="m8 392c4.417969 0 8-3.582031 8-8 .128906-98.574219 64.578125-185.523438 158.855469-214.3125-19.652344 18.101562-30.839844 43.59375-30.855469 70.3125.148438 132.484375 107.515625 239.851562 240 240 4.417969 0 8-3.582031 8-8s-3.582031-8-8-8c-98.574219-.128906-185.523438-64.578125-214.3125-158.855469 18.101562 19.652344 43.59375 30.839844 70.3125 30.855469 132.484375-.148438 239.851562-107.515625 240-240 0-4.417969-3.582031-8-8-8s-8 3.582031-8 8c-.128906 98.574219-64.578125 185.523438-158.855469 214.3125 19.652344-18.101562 30.839844-43.59375 30.855469-70.3125-.148438-132.484375-107.515625-239.851562-240-240-4.417969 0-8 3.582031-8 8s3.582031 8 8 8c98.574219.128906 185.523438 64.578125 214.3125 158.855469-18.101562-19.652344-43.59375-30.839844-70.3125-30.855469-132.484375.148438-239.851562 107.515625-240 240 0 4.417969 3.582031 8 8 8zm312-152c0 44.183594-35.816406 80-80 80s-80-35.816406-80-80 35.816406-80 80-80c44.164062.046875 79.953125 35.835938 80 80zm0 0" fill="url(#a)"/></svg>