<svg height="480pt" viewBox="0 -12 480 480" width="480pt" xmlns="http://www.w3.org/2000/svg" xmlns:xlink="http://www.w3.org/1999/xlink"><linearGradient id="a"><stop offset="0" stop-color="#12c2e9"/><stop offset=".5" stop-color="#c471ed"/><stop offset=".982" stop-color="#f64f59"/></linearGradient><linearGradient id="b" gradientUnits="userSpaceOnUse" x1="464" x2="464" xlink:href="#a" y1="577.008" y2="-71.56"/><linearGradient id="c" gradientUnits="userSpaceOnUse" x1="304" x2="304" xlink:href="#a" y1="590.952" y2="-73.336"/><linearGradient id="d" gradientUnits="userSpaceOnUse" x1="424" x2="424" xlink:href="#a" y1="594.552" y2="-77.832"/><linearGradient id="e" gradientUnits="userSpaceOnUse" x1="232" x2="232" xlink:href="#a" y1="588.504" y2="-73.216"/><linearGradient id="f" gradientUnits="userSpaceOnUse" x1="160" x2="160" xlink:href="#a" y1="594.496" y2="-69.856"/><linearGradient id="g" gradientUnits="userSpaceOnUse" x1="288" x2="288" xlink:href="#a" y1="591.408" y2="-72.944"/><linearGradient id="h" gradientUnits="userSpaceOnUse" x1="208" x2="208" xlink:href="#a" y1="593.336" y2="-71.016"/><path d="m472 152h-16c-4.417969 0-8 3.582031-8 8s3.582031 8 8 8h16c4.417969 0 8-3.582031 8-8s-3.582031-8-8-8zm0 0" fill="url(#b)"/><path d="m296 8v16c0 4.417969 3.582031 8 8 8s8-3.582031 8-8v-16c0-4.417969-3.582031-8-8-8s-8 3.582031-8 8zm0 0" fill="url(#c)"/><path d="m421.65625 69.65625 16-16c2.078125-2.007812 2.914062-4.984375 2.179688-7.78125-.730469-2.796875-2.914063-4.980469-5.710938-5.710938-2.796875-.734374-5.773438.101563-7.78125 2.179688l-16 16c-2.078125 2.007812-2.914062 4.984375-2.179688 7.78125.730469 2.796875 2.914063 4.980469 5.710938 5.710938 2.796875.734374 5.773438-.101563 7.78125-2.179688zm0 0" fill="url(#d)"/><path d="m0 284.449219c0 45.285156 40.296875 83.550781 88 83.550781 4.417969 0 8-3.582031 8-8s-3.582031-8-8-8c-39.03125 0-72-30.9375-72-67.550781.296875-37.03125 30.171875-67.015625 67.199219-67.449219 2.570312-.074219 4.949219-1.375 6.390625-3.503906 1.445312-2.125 1.777344-4.816406.898437-7.230469-3.253906-8.839844-4.929687-18.183594-4.953125-27.601563.621094-46.179687 38.484375-83.148437 84.664063-82.664062 20.445312.027344 40.207031 7.351562 55.730469 20.65625 1.8125 1.558594 3.566406 3.199219 5.238281 4.878906.511719.519532 1.0625 1.015625 1.601562 1.601563 2.042969 2.214843 3.96875 4.539062 5.765625 6.960937.433594.574219.863282 1.148438 1.28125 1.734375 1.773438 2.503907 3.410156 5.101563 4.894532 7.785157.289062.519531.554687 1.054687.800781 1.597656 1.523437 2.863281 2.875 5.816406 4.046875 8.839844.785156 2.0625 2.382812 3.710937 4.421875 4.554687 2.039062.84375 4.335937.808594 6.347656-.097656 8.085937-3.683594 16.867187-5.59375 25.75-5.601563 28.949219-.214844 54.101563 19.851563 60.320313 48.121094.886718 4.304688 5.074218 7.089844 9.386718 6.242188 2.398438-.464844 4.800782-.800782 7.199219-1.058594 1.289063-.125 2.582031-.160156 3.878906-.230469 1.074219-.054687 2.144531-.136719 3.199219-.152344 1.601562 0 3.203125.054688 4.800781.136719.761719.039062 1.535157.054688 2.296875.109375 1.828125.152344 3.65625.367187 5.480469.648437.464844.066407.933594.128907 1.398437.210938 1.9375.328125 3.871094.726562 5.785157 1.191406l1 .253906c1.945312.503907 3.871093 1.082032 5.769531 1.738282.335938.109375.652344.230468.980469.351562 1.867187.660156 3.703125 1.394532 5.503906 2.199219l1.136719.535156c1.738281.800781 3.457031 1.671875 5.128906 2.617188 23.714844 13.089843 38.5 37.976562 38.65625 65.0625-.566406 41.972656-34.992188 75.570312-76.96875 75.113281h-11.03125c-4.417969 0-8 3.582031-8 8s3.582031 8 8 8h11.03125c50.808594.449219 92.394531-40.308594 92.96875-91.113281-.113281-30.183594-15.257812-58.328125-40.382812-75.054688 5.488281-13.265625 8.335937-27.476562 8.382812-41.832031.03125-49.265625-32.152344-92.761719-79.277344-107.132812-47.125-14.371094-98.105468 3.761718-125.570312 44.660156-16.8125-11.390625-36.644532-17.496094-56.953125-17.527344-55.019531-.488281-100.058594 43.644531-100.6875 98.664062.011719 7.824219.984375 15.613282 2.894531 23.199219-41.371094 5.585938-72.277344 40.839844-72.40625 82.585938zm320-220.449219c52.996094.058594 95.941406 43.003906 96 96 .007812 11.652344-2.140625 23.207031-6.335938 34.078125-.175781-.078125-.367187-.132813-.542968-.214844-2.5625-1.128906-5.179688-2.144531-7.855469-3.039062-.394531-.128907-.800781-.289063-1.152344-.417969-2.816406-.910156-5.6875-1.679688-8.609375-2.328125-.289062-.0625-.566406-.148437-.847656-.214844-2.902344-.617187-5.855469-1.078125-8.847656-1.414062-.304688-.042969-.609375-.113281-.921875-.144531-3.273438-.34375-6.5625-.515626-9.855469-.519532-3.644531-.003906-7.285156.207032-10.902344.628906-10.449218-32.023437-40.371094-53.648437-74.058594-53.527343-2.132812 0-4.238281.085937-6.316406.257812-6.265625.5-12.441406 1.761719-18.402344 3.75-.09375-.207031-.222656-.398437-.328124-.605469-1.085938-2.242187-2.269532-4.425781-3.519532-6.5625-.519531-.886718-1.089844-1.75-1.601562-2.621093-.910156-1.449219-1.847656-2.875-2.832032-4.265625-.6875-.976563-1.375-1.945313-2.09375-2.886719-.914062-1.210937-1.871093-2.402344-2.847656-3.539063-2.589844-3.164062-5.371094-6.167968-8.328125-8.988281 17.730469-27.039062 47.867188-43.355469 80.199219-43.425781zm0 0" fill="url(#e)"/><path d="m122.34375 445.65625c3.125 3.121094 8.1875 3.121094 11.3125 0l18.34375-18.34375v20.6875c0 4.417969 3.582031 8 8 8s8-3.582031 8-8v-20.6875l18.34375 18.34375c3.140625 3.03125 8.128906 2.988281 11.214844-.097656 3.085937-3.085938 3.128906-8.074219.097656-11.214844l-18.34375-18.34375h20.6875c4.417969 0 8-3.582031 8-8s-3.582031-8-8-8h-20.6875l18.34375-18.34375c3.03125-3.140625 2.988281-8.128906-.097656-11.214844-3.085938-3.085937-8.074219-3.128906-11.214844-.097656l-18.34375 18.34375v-20.6875c0-4.417969-3.582031-8-8-8s-8 3.582031-8 8v20.6875l-18.34375-18.34375c-3.140625-3.03125-8.128906-2.988281-11.214844.097656-3.085937 3.085938-3.128906 8.074219-.097656 11.214844l18.34375 18.34375h-20.6875c-4.417969 0-8 3.582031-8 8s3.582031 8 8 8h20.6875l-18.34375 18.34375c-3.121094 3.125-3.121094 8.1875 0 11.3125zm0 0" fill="url(#f)"/><path d="m288 344c-4.417969 0-8 3.582031-8 8v20.6875l-18.34375-18.34375c-3.140625-3.03125-8.128906-2.988281-11.214844.097656-3.085937 3.085938-3.128906 8.074219-.097656 11.214844l18.34375 18.34375h-20.6875c-4.417969 0-8 3.582031-8 8s3.582031 8 8 8h20.6875l-18.34375 18.34375c-2.078125 2.007812-2.914062 4.984375-2.179688 7.78125.730469 2.796875 2.914063 4.980469 5.710938 5.710938 2.796875.734374 5.773438-.101563 7.78125-2.179688l18.34375-18.34375v20.6875c0 4.417969 3.582031 8 8 8s8-3.582031 8-8v-20.6875l18.34375 18.34375c3.140625 3.03125 8.128906 2.988281 11.214844-.097656 3.085937-3.085938 3.128906-8.074219.097656-11.214844l-18.34375-18.34375h20.6875c4.417969 0 8-3.582031 8-8s-3.582031-8-8-8h-20.6875l18.34375-18.34375c3.03125-3.140625 2.988281-8.128906-.097656-11.214844-3.085938-3.085937-8.074219-3.128906-11.214844-.097656l-18.34375 18.34375v-20.6875c0-4.417969-3.582031-8-8-8zm0 0" fill="url(#g)"/><path d="m160 296c0 4.417969 3.582031 8 8 8h20.6875l-18.34375 18.34375c-2.078125 2.007812-2.914062 4.984375-2.179688 7.78125.730469 2.796875 2.914063 4.980469 5.710938 5.710938 2.796875.734374 5.773438-.101563 7.78125-2.179688l18.34375-18.34375v20.6875c0 4.417969 3.582031 8 8 8s8-3.582031 8-8v-20.6875l18.34375 18.34375c3.140625 3.03125 8.128906 2.988281 11.214844-.097656 3.085937-3.085938 3.128906-8.074219.097656-11.214844l-18.34375-18.34375h20.6875c4.417969 0 8-3.582031 8-8s-3.582031-8-8-8h-20.6875l18.34375-18.34375c3.03125-3.140625 2.988281-8.128906-.097656-11.214844-3.085938-3.085937-8.074219-3.128906-11.214844-.097656l-18.34375 18.34375v-20.6875c0-4.417969-3.582031-8-8-8s-8 3.582031-8 8v20.6875l-18.34375-18.34375c-3.140625-3.03125-8.128906-2.988281-11.214844.097656-3.085937 3.085938-3.128906 8.074219-.097656 11.214844l18.34375 18.34375h-20.6875c-4.417969 0-8 3.582031-8 8zm0 0" fill="url(#h)"/></svg>