<svg height="480pt" viewBox="0 -7 480 479" width="480pt" xmlns="http://www.w3.org/2000/svg" xmlns:xlink="http://www.w3.org/1999/xlink"><linearGradient id="a"><stop offset="0" stop-color="#12c2e9"/><stop offset=".5" stop-color="#c471ed"/><stop offset=".982" stop-color="#f64f59"/></linearGradient><linearGradient id="b" gradientUnits="userSpaceOnUse" x1="464" x2="464" xlink:href="#a" y1="593.572" y2="-48.124"/><linearGradient id="c" gradientUnits="userSpaceOnUse" x1="304" x2="304" xlink:href="#a" y1="618.556" y2="-50.324"/><linearGradient id="d" gradientUnits="userSpaceOnUse" x1="424" x2="424" xlink:href="#a" y1="625.468" y2="-57.724"/><linearGradient id="e" gradientUnits="userSpaceOnUse" x1="232" x2="232" xlink:href="#a" y1="614.148" y2="-50.204"/><linearGradient id="f" gradientUnits="userSpaceOnUse" x1="232" x2="232" xlink:href="#a" y1="622.26" y2="-44.7"/><path d="m456 152.5c-4.417969 0-8 3.582031-8 8s3.582031 8 8 8h16c4.417969 0 8-3.582031 8-8s-3.582031-8-8-8zm0 0" fill="url(#b)"/><path d="m296 8.5v16c0 4.417969 3.582031 8 8 8s8-3.582031 8-8v-16c0-4.417969-3.582031-8-8-8s-8 3.582031-8 8zm0 0" fill="url(#c)"/><path d="m426.34375 42.84375-16 16c-2.078125 2.007812-2.914062 4.984375-2.179688 7.78125.730469 2.796875 2.914063 4.980469 5.710938 5.710938 2.796875.734374 5.773438-.101563 7.78125-2.179688l16-16c2.078125-2.007812 2.914062-4.984375 2.179688-7.78125-.730469-2.796875-2.914063-4.980469-5.710938-5.710938-2.796875-.734374-5.773438.101563-7.78125 2.179688zm0 0" fill="url(#d)"/><path d="m85.238281 368.5c4.421875 0 8-3.582031 8-8s-3.578125-8-8-8c-24.289062.640625-47.054687-11.824219-59.597656-32.636719-12.546875-20.8125-12.9375-46.761719-1.027344-67.941406 11.910157-21.183594 34.285157-34.328125 58.585938-34.421875 2.570312-.074219 4.949219-1.375 6.390625-3.503906 1.445312-2.125 1.777344-4.816406.898437-7.230469-3.253906-8.839844-4.929687-18.183594-4.953125-27.601563.621094-46.179687 38.484375-83.148437 84.664063-82.664062 20.445312.027344 40.207031 7.351562 55.730469 20.65625 1.8125 1.601562 3.566406 3.199219 5.238281 4.878906.511719.519532 1.0625 1.015625 1.601562 1.601563 2.042969 2.214843 3.96875 4.539062 5.765625 6.960937.433594.574219.863282 1.148438 1.28125 1.734375 1.773438 2.503907 3.410156 5.101563 4.894532 7.785157.289062.519531.554687 1.054687.800781 1.597656 1.523437 2.863281 2.875 5.816406 4.046875 8.839844.785156 2.0625 2.382812 3.710937 4.421875 4.554687 2.039062.84375 4.335937.808594 6.347656-.097656 8.085937-3.683594 16.867187-5.59375 25.75-5.601563 28.949219-.214844 54.101563 19.851563 60.320313 48.121094.886718 4.304688 5.074218 7.089844 9.386718 6.242188 2.398438-.472657 4.800782-.800782 7.199219-1.058594 1.199219-.117188 2.398437-.152344 3.609375-.214844 1.207031-.0625 2.335938-.160156 3.496094-.167969 1.535156 0 3.070312.054688 4.597656.128907.839844 0 1.6875.0625 2.511719.128906 1.785156.140625 3.5625.359375 5.320312.621094.527344.074218 1.046875.144531 1.601563.234374 1.902344.320313 3.792968.710938 5.671875 1.175782l1.109375.277344c1.914062.496093 3.816406 1.066406 5.691406 1.714843l1.039062.367188c1.84375.667969 3.664063 1.398437 5.464844 2.191406.390625.175781.796875.359375 1.148438.542969 1.738281.800781 3.449218 1.671875 5.121094 2.609375 23.707031 13.097656 38.480468 37.980469 38.632812 65.0625-.566406 41.972656-34.992188 75.570312-76.96875 75.113281-4.417969 0-8 3.582031-8 8s3.582031 8 8 8c50.808594.449219 92.394531-40.308594 92.96875-91.113281-.113281-30.183594-15.257812-58.328125-40.382812-75.054688 5.488281-13.265625 8.335937-27.476562 8.382812-41.832031.03125-49.265625-32.152344-92.761719-79.277344-107.132812-47.125-14.371094-98.105468 3.761718-125.570312 44.660156-16.8125-11.390625-36.644532-17.496094-56.953125-17.527344-55.019531-.488281-100.058594 43.644531-100.6875 98.664062.011719 7.824219.984375 15.613282 2.894531 23.199219-41.371094 5.585938-72.277344 40.839844-72.40625 82.585938.527344 46.582031 38.652344 83.957031 85.238281 83.550781zm234.761719-304c52.996094.058594 95.941406 43.003906 96 96 .007812 11.652344-2.140625 23.207031-6.335938 34.078125-.175781-.078125-.367187-.132813-.542968-.214844-2.5625-1.128906-5.179688-2.144531-7.855469-3.039062-.394531-.128907-.800781-.289063-1.152344-.417969-2.816406-.910156-5.6875-1.679688-8.609375-2.328125-.289062-.0625-.566406-.148437-.847656-.214844-2.902344-.617187-5.855469-1.078125-8.847656-1.414062-.304688-.042969-.609375-.113281-.921875-.144531-3.273438-.34375-6.5625-.515626-9.855469-.519532-3.644531-.003906-7.285156.207032-10.902344.628906-10.449218-32.023437-40.371094-53.648437-74.058594-53.527343-2.132812 0-4.238281.085937-6.316406.257812-6.265625.5-12.441406 1.761719-18.402344 3.75-.09375-.207031-.222656-.398437-.328124-.605469-1.085938-2.242187-2.269532-4.425781-3.519532-6.5625-.519531-.886718-1.089844-1.75-1.601562-2.621093-.910156-1.449219-1.847656-2.875-2.832032-4.265625-.6875-.976563-1.375-1.945313-2.09375-2.886719-.914062-1.210937-1.871093-2.402344-2.847656-3.539063-2.589844-3.164062-5.371094-6.167968-8.328125-8.988281 17.730469-27.039062 47.867188-43.355469 80.199219-43.425781zm0 0" fill="url(#e)"/><path d="m206.398438 463.898438c.964843.398437 2 .605468 3.042968.601562 2.691406 0 5.207032-1.355469 6.6875-3.609375l94.582032-144c1.617187-2.460937 1.75-5.609375.347656-8.199219s-4.113282-4.199218-7.058594-4.191406h-53.753906l13.515625-54.0625c.59375-2.390625.058593-4.921875-1.457031-6.863281-1.515626-1.9375-3.84375-3.074219-6.304688-3.074219h-64c-3.441406.003906-6.496094 2.207031-7.585938 5.472656l-32 96c-.808593 2.4375-.402343 5.117188 1.101563 7.203125 1.5 2.085938 3.914063 3.324219 6.484375 3.324219h62.222656l-20.621094 102.398438c-.769531 3.765624 1.246094 7.542968 4.796876 9zm-35.292969-127.398438 26.664062-80h48l-13.53125 54.0625c-.59375 2.390625-.058593 4.921875 1.457031 6.863281 1.515626 1.9375 3.84375 3.074219 6.304688 3.074219h49.167969l-63.734375 97.046875 14.398437-71.472656c.472657-2.347657-.132812-4.785157-1.652343-6.640625-1.515626-1.851563-3.785157-2.929688-6.179688-2.933594zm0 0" fill="url(#f)"/></svg>