<svg height="480pt" viewBox="0 -48 480 480" width="480pt" xmlns="http://www.w3.org/2000/svg" xmlns:xlink="http://www.w3.org/1999/xlink"><linearGradient id="a" gradientUnits="userSpaceOnUse" x1="240" x2="240" y1="384" y2="0"><stop offset="0" stop-color="#12c2e9"/><stop offset=".5" stop-color="#c471ed"/><stop offset=".982" stop-color="#f64f59"/></linearGradient><path d="m384 240v8c0 4.417969-3.582031 8-8 8s-8-3.582031-8-8v-8c0-70.691406-57.308594-128-128-128s-128 57.308594-128 128v8c0 4.417969-3.582031 8-8 8s-8-3.582031-8-8v-8c0-79.527344 64.472656-144 144-144s144 64.472656 144 144zm-24 64h-240c-4.417969 0-8 3.582031-8 8s3.582031 8 8 8h240c4.417969 0 8-3.582031 8-8s-3.582031-8-8-8zm16-32h-272c-4.417969 0-8 3.582031-8 8s3.582031 8 8 8h272c4.417969 0 8-3.582031 8-8s-3.582031-8-8-8zm-72 96h-128c-4.417969 0-8 3.582031-8 8s3.582031 8 8 8h128c4.417969 0 8-3.582031 8-8s-3.582031-8-8-8zm40-32h-200c-4.417969 0-8 3.582031-8 8s3.582031 8 8 8h200c4.417969 0 8-3.582031 8-8s-3.582031-8-8-8zm-104-88c4.417969 0 8-3.582031 8-8v-44.6875l18.34375 18.34375c3.140625 3.03125 8.128906 2.988281 11.214844-.097656 3.085937-3.085938 3.128906-8.074219.097656-11.214844l-32-32c-1.5-1.503906-3.539062-2.351562-5.664062-2.351562s-4.164063.847656-5.664063 2.351562l-32 32c-3.03125 3.140625-2.988281 8.128906.097656 11.214844 3.085938 3.085937 8.074219 3.128906 11.214844.097656l18.359375-18.34375v44.6875c0 4.417969 3.582031 8 8 8zm-8-240v64c0 4.417969 3.582031 8 8 8s8-3.582031 8-8v-64c0-4.417969-3.582031-8-8-8s-8 3.582031-8 8zm-165.65625 58.34375c-3.121094 3.125-3.121094 8.1875 0 11.3125l48 48c3.140625 3.03125 8.128906 2.988281 11.214844-.097656 3.085937-3.085938 3.128906-8.074219.097656-11.214844l-48-48c-3.125-3.121094-8.1875-3.121094-11.3125 0zm293.65625 61.65625c2.121094 0 4.15625-.84375 5.65625-2.34375l48-48c3.03125-3.140625 2.988281-8.128906-.097656-11.214844-3.085938-3.085937-8.074219-3.128906-11.214844-.097656l-48 48c-2.285156 2.289062-2.972656 5.730469-1.734375 8.71875s4.15625 4.9375 7.390625 4.9375zm112 112h-64c-4.417969 0-8 3.582031-8 8s3.582031 8 8 8h64c4.417969 0 8-3.582031 8-8s-3.582031-8-8-8zm-400 0h-64c-4.417969 0-8 3.582031-8 8s3.582031 8 8 8h64c4.417969 0 8-3.582031 8-8s-3.582031-8-8-8zm0 0" fill="url(#a)"/></svg>