<svg height="480pt" viewBox="0 -48 480 480" width="480pt" xmlns="http://www.w3.org/2000/svg" xmlns:xlink="http://www.w3.org/1999/xlink"><linearGradient id="a" gradientUnits="userSpaceOnUse" x1="240" x2="240" y1="384" y2="0"><stop offset="0" stop-color="#12c2e9"/><stop offset=".5" stop-color="#c471ed"/><stop offset=".982" stop-color="#f64f59"/></linearGradient><path d="m368 312c0 4.417969-3.582031 8-8 8h-240c-4.417969 0-8-3.582031-8-8s3.582031-8 8-8h240c4.417969 0 8 3.582031 8 8zm8-40h-272c-4.417969 0-8 3.582031-8 8s3.582031 8 8 8h272c4.417969 0 8-3.582031 8-8s-3.582031-8-8-8zm-72 96h-128c-4.417969 0-8 3.582031-8 8s3.582031 8 8 8h128c4.417969 0 8-3.582031 8-8s-3.582031-8-8-8zm40-32h-200c-4.417969 0-8 3.582031-8 8s3.582031 8 8 8h200c4.417969 0 8-3.582031 8-8s-3.582031-8-8-8zm-96-264v-64c0-4.417969-3.582031-8-8-8s-8 3.582031-8 8v64c0 4.417969 3.582031 8 8 8s8-3.582031 8-8zm-128 56c3.234375 0 6.152344-1.949219 7.390625-4.9375s.550781-6.429688-1.734375-8.71875l-48-48c-3.140625-3.03125-8.128906-2.988281-11.214844.097656-3.085937 3.085938-3.128906 8.074219-.097656 11.214844l48 48c1.5 1.5 3.535156 2.34375 5.65625 2.34375zm245.65625-2.34375 48-48c3.03125-3.140625 2.988281-8.128906-.097656-11.214844-3.085938-3.085937-8.074219-3.128906-11.214844-.097656l-48 48c-2.078125 2.007812-2.914062 4.984375-2.179688 7.78125.730469 2.796875 2.914063 4.980469 5.710938 5.710938 2.796875.734374 5.773438-.101563 7.78125-2.179688zm106.34375 114.34375h-64c-4.417969 0-8 3.582031-8 8s3.582031 8 8 8h64c4.417969 0 8-3.582031 8-8s-3.582031-8-8-8zm-400 0h-64c-4.417969 0-8 3.582031-8 8s3.582031 8 8 8h64c4.417969 0 8-3.582031 8-8s-3.582031-8-8-8zm168-144c-79.492188.09375-143.90625 64.507812-144 144v8c0 4.417969 3.582031 8 8 8s8-3.582031 8-8v-8c0-70.691406 57.308594-128 128-128s128 57.308594 128 128v8c0 4.417969 3.582031 8 8 8s8-3.582031 8-8v-8c-.09375-79.492188-64.507812-143.90625-144-144zm0 72c-4.417969 0-8 3.582031-8 8v44.6875l-18.34375-18.34375c-3.140625-3.03125-8.128906-2.988281-11.214844.097656-3.085937 3.085938-3.128906 8.074219-.097656 11.214844l32 32c1.5 1.503906 3.539062 2.351562 5.664062 2.351562s4.164063-.847656 5.664063-2.351562l32-32c3.03125-3.140625 2.988281-8.128906-.097656-11.214844-3.085938-3.085937-8.074219-3.128906-11.214844-.097656l-18.359375 18.34375v-44.6875c0-4.417969-3.582031-8-8-8zm0 0" fill="url(#a)"/></svg>