<svg height="480pt" viewBox="-148 0 480 480" width="480pt" xmlns="http://www.w3.org/2000/svg" xmlns:xlink="http://www.w3.org/1999/xlink"><linearGradient id="a"><stop offset="0" stop-color="#12c2e9"/><stop offset=".5" stop-color="#c471ed"/><stop offset=".982" stop-color="#f64f59"/></linearGradient><linearGradient id="b" gradientUnits="userSpaceOnUse" x1="64.00002" x2="64.00002" xlink:href="#a" y1="517.992" y2="-49.024"/><linearGradient id="c" gradientUnits="userSpaceOnUse" x1="152.00002" x2="152.00002" xlink:href="#a" y1="515.6" y2="-42.544"/><linearGradient id="d" gradientUnits="userSpaceOnUse" x1="144.00002" x2="144.00002" xlink:href="#a" y1="516.168" y2="-44.904"/><linearGradient id="e" gradientUnits="userSpaceOnUse" x1="152.00002" x2="152.00002" xlink:href="#a" y1="514.6" y2="-43.544"/><linearGradient id="f" gradientUnits="userSpaceOnUse" x1="144.00002" x2="144.00002" xlink:href="#a" y1="515.496" y2="-45.576"/><linearGradient id="g" gradientUnits="userSpaceOnUse" x1="152.00002" x2="152.00002" xlink:href="#a" y1="513.6" y2="-44.552"/><linearGradient id="h" gradientUnits="userSpaceOnUse" x1="144.00002" x2="144.00002" xlink:href="#a" y1="514.824" y2="-46.248"/><linearGradient id="i" gradientUnits="userSpaceOnUse" x1="152.00002" x2="152.00002" xlink:href="#a" y1="512.6" y2="-45.552"/><linearGradient id="j" gradientUnits="userSpaceOnUse" x1="144.00002" x2="144.00002" xlink:href="#a" y1="514.152" y2="-46.92"/><linearGradient id="k" gradientUnits="userSpaceOnUse" x1="152.00002" x2="152.00002" xlink:href="#a" y1="511.6" y2="-46.552"/><path d="m64 480c35.328125-.039062 63.960938-28.671875 64-64 .015625-19.988281-8.761719-38.972656-24-51.902344v-324.097656c0-22.089844-17.910156-40-40-40s-40 17.910156-40 40v324.097656c-15.238281 12.929688-24.015625 31.914063-24 51.902344.0390625 35.328125 28.671875 63.960938 64 64zm-27.558594-105.34375 3.558594-2.398438v-332.257812c0-13.253906 10.746094-24 24-24s24 10.746094 24 24v332.28125l3.558594 2.398438c12.902344 9.820312 20.464844 25.109374 20.441406 41.320312 0 26.507812-21.492188 48-48 48s-48-21.492188-48-48c-.0625-16.226562 7.507812-31.539062 20.441406-41.34375zm0 0" fill="url(#b)"/><path d="m176 328h-48c-4.417969 0-8 3.582031-8 8s3.582031 8 8 8h48c4.417969 0 8-3.582031 8-8s-3.582031-8-8-8zm0 0" fill="url(#c)"/><path d="m128 312h32c4.417969 0 8-3.582031 8-8s-3.582031-8-8-8h-32c-4.417969 0-8 3.582031-8 8s3.582031 8 8 8zm0 0" fill="url(#d)"/><path d="m176 264h-48c-4.417969 0-8 3.582031-8 8s3.582031 8 8 8h48c4.417969 0 8-3.582031 8-8s-3.582031-8-8-8zm0 0" fill="url(#e)"/><path d="m128 248h32c4.417969 0 8-3.582031 8-8s-3.582031-8-8-8h-32c-4.417969 0-8 3.582031-8 8s3.582031 8 8 8zm0 0" fill="url(#f)"/><path d="m176 200h-48c-4.417969 0-8 3.582031-8 8s3.582031 8 8 8h48c4.417969 0 8-3.582031 8-8s-3.582031-8-8-8zm0 0" fill="url(#g)"/><path d="m128 184h32c4.417969 0 8-3.582031 8-8s-3.582031-8-8-8h-32c-4.417969 0-8 3.582031-8 8s3.582031 8 8 8zm0 0" fill="url(#h)"/><path d="m176 136h-48c-4.417969 0-8 3.582031-8 8s3.582031 8 8 8h48c4.417969 0 8-3.582031 8-8s-3.582031-8-8-8zm0 0" fill="url(#i)"/><path d="m128 120h32c4.417969 0 8-3.582031 8-8s-3.582031-8-8-8h-32c-4.417969 0-8 3.582031-8 8s3.582031 8 8 8zm0 0" fill="url(#j)"/><path d="m176 72h-48c-4.417969 0-8 3.582031-8 8s3.582031 8 8 8h48c4.417969 0 8-3.582031 8-8s-3.582031-8-8-8zm0 0" fill="url(#k)"/><path d="m64 448c17.882812-.25 32.191406-14.917969 32-32.800781.207031-14.484375-9.835938-27.101563-24-30.152344v-185.046875c0-4.417969-3.582031-8-8-8s-8 3.582031-8 8v185.015625c-14.175781 3.050781-24.222656 15.6875-24 30.183594-.191406 17.882812 14.117188 32.550781 32 32.800781zm0-48c4.175781-.253906 8.269531 1.238281 11.304688 4.121094 3.035156 2.882812 4.734374 6.894531 4.695312 11.078125 0 8.835937-7.164062 16-16 16s-16-7.164063-16-16c-.039062-4.183594 1.660156-8.195313 4.695312-11.078125 3.035157-2.882813 7.128907-4.375 11.304688-4.121094zm0 0" fill="url(#b)"/></svg>