<svg height="480pt" viewBox="-148 0 480 480" width="480pt" xmlns="http://www.w3.org/2000/svg" xmlns:xlink="http://www.w3.org/1999/xlink"><linearGradient id="a"><stop offset="0" stop-color="#12c2e9"/><stop offset=".5" stop-color="#c471ed"/><stop offset=".982" stop-color="#f64f59"/></linearGradient><linearGradient id="b" gradientUnits="userSpaceOnUse" x1="64.00002" x2="64.00002" xlink:href="#a" y1="520" y2="-30.04"/><linearGradient id="c" gradientUnits="userSpaceOnUse" x1="152.00002" x2="152.00002" xlink:href="#a" y1="515.888" y2="-19.536"/><linearGradient id="d" gradientUnits="userSpaceOnUse" x1="144.00002" x2="144.00002" xlink:href="#a" y1="516.848" y2="-23.352"/><linearGradient id="e" gradientUnits="userSpaceOnUse" x1="152.00002" x2="152.00002" xlink:href="#a" y1="514.184" y2="-21.232"/><linearGradient id="f" gradientUnits="userSpaceOnUse" x1="144.00002" x2="144.00002" xlink:href="#a" y1="515.704" y2="-24.496"/><linearGradient id="g" gradientUnits="userSpaceOnUse" x1="152.00002" x2="152.00002" xlink:href="#a" y1="512.48" y2="-22.936"/><linearGradient id="h" gradientUnits="userSpaceOnUse" x1="144.00002" x2="144.00002" xlink:href="#a" y1="514.56" y2="-25.64"/><linearGradient id="i" gradientUnits="userSpaceOnUse" x1="152.00002" x2="152.00002" xlink:href="#a" y1="510.784" y2="-24.64"/><linearGradient id="j" gradientUnits="userSpaceOnUse" x1="144.00002" x2="144.00002" xlink:href="#a" y1="513.408" y2="-26.792"/><linearGradient id="k" gradientUnits="userSpaceOnUse" x1="152.00002" x2="152.00002" xlink:href="#a" y1="509.08" y2="-26.344"/><linearGradient id="l" gradientUnits="userSpaceOnUse" x1="64.00002" x2="64.00002" xlink:href="#a" y1="520" y2="-30.048"/><path d="m64 0c-22.082031.0273438-39.972656 17.917969-40 40v324.097656c-15.238281 12.929688-24.015625 31.914063-24 51.902344 0 35.347656 28.652344 64 64 64s64-28.652344 64-64c.015625-19.988281-8.761719-38.972656-24-51.902344v-324.097656c-.027344-22.082031-17.917969-39.9726562-40-40zm48 416c0 26.507812-21.492188 48-48 48s-48-21.492188-48-48c-.0625-16.226562 7.507812-31.539062 20.441406-41.34375l3.558594-2.398438v-332.257812c0-13.253906 10.746094-24 24-24s24 10.746094 24 24v332.28125l3.558594 2.398438c12.902344 9.820312 20.464844 25.109374 20.441406 41.320312zm0 0" fill="url(#b)"/><path d="m176 328h-48c-4.417969 0-8 3.582031-8 8s3.582031 8 8 8h48c4.417969 0 8-3.582031 8-8s-3.582031-8-8-8zm0 0" fill="url(#c)"/><path d="m128 312h32c4.417969 0 8-3.582031 8-8s-3.582031-8-8-8h-32c-4.417969 0-8 3.582031-8 8s3.582031 8 8 8zm0 0" fill="url(#d)"/><path d="m176 264h-48c-4.417969 0-8 3.582031-8 8s3.582031 8 8 8h48c4.417969 0 8-3.582031 8-8s-3.582031-8-8-8zm0 0" fill="url(#e)"/><path d="m128 248h32c4.417969 0 8-3.582031 8-8s-3.582031-8-8-8h-32c-4.417969 0-8 3.582031-8 8s3.582031 8 8 8zm0 0" fill="url(#f)"/><path d="m176 200h-48c-4.417969 0-8 3.582031-8 8s3.582031 8 8 8h48c4.417969 0 8-3.582031 8-8s-3.582031-8-8-8zm0 0" fill="url(#g)"/><path d="m128 184h32c4.417969 0 8-3.582031 8-8s-3.582031-8-8-8h-32c-4.417969 0-8 3.582031-8 8s3.582031 8 8 8zm0 0" fill="url(#h)"/><path d="m176 136h-48c-4.417969 0-8 3.582031-8 8s3.582031 8 8 8h48c4.417969 0 8-3.582031 8-8s-3.582031-8-8-8zm0 0" fill="url(#i)"/><path d="m128 120h32c4.417969 0 8-3.582031 8-8s-3.582031-8-8-8h-32c-4.417969 0-8 3.582031-8 8s3.582031 8 8 8zm0 0" fill="url(#j)"/><path d="m176 72h-48c-4.417969 0-8 3.582031-8 8s3.582031 8 8 8h48c4.417969 0 8-3.582031 8-8s-3.582031-8-8-8zm0 0" fill="url(#k)"/><path d="m72 385.015625v-313.015625c0-4.417969-3.582031-8-8-8s-8 3.582031-8 8v313.015625c-14.175781 3.050781-24.222656 15.6875-24 30.183594 0 17.675781 14.328125 32 32 32s32-14.324219 32-32c.222656-14.496094-9.824219-27.132813-24-30.183594zm-8 46.984375c-9.046875-.246094-16.195312-7.75-16-16.800781 0-8.835938 7.164062-16 16-16s16 7.164062 16 16c.195312 9.050781-6.953125 16.554687-16 16.800781zm0 0" fill="url(#l)"/></svg>