<svg height="464pt" viewBox="-48 0 464 464.01468" width="464pt" xmlns="http://www.w3.org/2000/svg" xmlns:xlink="http://www.w3.org/1999/xlink"><linearGradient id="a" gradientUnits="userSpaceOnUse" x1="184.006457" x2="184.006457" y1="464.00012" y2=".00012"><stop offset="0" stop-color="#12c2e9"/><stop offset=".5" stop-color="#c471ed"/><stop offset=".982" stop-color="#f64f59"/></linearGradient><path d="m8.007812 240h149.390626l-61.089844 213.800781c-1.054688 3.667969.628906 7.570313 4.019531 9.320313 3.390625 1.753906 7.546875.863281 9.925781-2.121094l256-320c1.921875-2.402344 2.296875-5.691406.964844-8.464844-1.332031-2.773437-4.136719-4.535156-7.210938-4.535156h-147.058593l58.257812-116.425781c1.242188-2.484375 1.105469-5.4375-.363281-7.800781-1.46875-2.359376-4.058594-3.789063-6.835938-3.773438h-160c-3.199218 0-6.09375 1.90625-7.351562 4.847656l-96 224c-1.0625 2.472656-.808594 5.3125.671875 7.554688 1.480469 2.246094 3.988281 3.597656 6.679687 3.597656zm101.269532-224h141.785156l-58.257812 116.425781c-1.242188 2.484375-1.105469 5.4375.363281 7.800781 1.46875 2.359376 4.058593 3.789063 6.839843 3.773438h143.351563l-220.722656 275.902344 53.066406-185.703125c.691406-2.414063.207031-5.011719-1.304687-7.015625-1.515626-2.007813-3.878907-3.183594-6.390626-3.183594h-147.867187zm0 0" fill="url(#a)"/></svg>