<svg height="480pt" viewBox="-24 0 480 480.1016" width="480pt" xmlns="http://www.w3.org/2000/svg" xmlns:xlink="http://www.w3.org/1999/xlink"><linearGradient id="a" gradientUnits="userSpaceOnUse" x1="216.0508" x2="216.0508" y1="480" y2="0"><stop offset="0" stop-color="#12c2e9"/><stop offset=".5" stop-color="#c471ed"/><stop offset=".982" stop-color="#f64f59"/></linearGradient><path d="m8.050781 248c4.417969 0 8-3.582031 8-8 0-11.664062 20.558594-24 40-24 17.648438 0 32 10.769531 32 24 0 4.417969 3.582031 8 8 8s8-3.582031 8-8c0-13.230469 14.351563-24 32-24 17.648438 0 32 10.769531 32 24 0 4.417969 3.582031 8 8 8s8-3.582031 8-8c0-11.152344 10.230469-20.464844 24-23.152344v223.152344c.3125 22.238281 18.429688 40.101562 40.667969 40.101562s40.355469-17.863281 40.667969-40.101562c0-4.417969-3.582031-8-8-8s-8 3.582031-8 8c-.414063 13.324219-11.335938 23.910156-24.667969 23.910156s-24.253906-10.585937-24.667969-23.910156v-223.152344c13.769531 2.6875 24 12 24 23.152344 0 4.417969 3.582031 8 8 8s8-3.582031 8-8c0-13.230469 14.351563-24 32-24 17.648438 0 32 10.769531 32 24 0 4.417969 3.582031 8 8 8s8-3.582031 8-8c0-13.230469 14.351563-24 32-24 19.441407 0 40 12.335938 40 24 0 4.417969 3.582031 8 8 8s8-3.582031 8-8c-.136719-115.457031-90.953125-210.4375-206.289062-215.753906h-.167969c-.296875 0-.589844 0-.878906 0h-.664063v-16.246094c0-4.417969-3.582031-8-8-8s-8 3.582031-8 8v16.199219h-.664062c-.289063 0-.582031 0-.878907 0h-.167968c-115.355469 5.316406-206.175782 100.324219-206.2890628 215.800781 0 4.417969 3.5820308 8 7.9999998 8zm128-48c-2.65625.019531-5.308593.226562-7.9375.617188-.6875.09375-1.351562.207031-2.023437.328124-2.234375.390626-4.441406.925782-6.605469 1.597657-.289063.089843-.59375.144531-.875.242187-2.316406.765625-4.578125 1.695313-6.765625 2.773438-.5625.28125-1.097656.578125-1.648438.875-1.746093.929687-3.429687 1.964844-5.046874 3.101562-.265626.183594-.585938.328125-.851563.519532 4-110.542969 55.441406-149.878907 84.800781-163.382813-9.597656 22.984375-20 69.535156-20.957031 163.65625-9.304687-6.8125-20.558594-10.433594-32.089844-10.328125zm111.257813 9.742188c-1.699219-1.210938-3.46875-2.308594-5.304688-3.292969-.535156-.289063-1.066406-.578125-1.601562-.847657-2.207032-1.109374-4.488282-2.054687-6.832032-2.832031-.214843-.074219-.449218-.121093-.664062-.183593-2.242188-.695313-4.527344-1.242188-6.839844-1.640626-.671875-.121093-1.328125-.226562-2.007812-.320312-5.300782-.835938-10.699219-.835938-16 0-.679688.09375-1.335938.199219-2.007813.320312-2.3125.398438-4.597656.945313-6.839843 1.640626-.214844.0625-.449219.109374-.664063.183593-2.34375.777344-4.625 1.722657-6.832031 2.832031-.550782.269532-1.078125.558594-1.601563.847657-1.835937.984375-3.605469 2.082031-5.300781 3.292969-.210938.152343-.464844.265624-.671875.417968 1.328125-130.464844 21.328125-163.390625 26.726563-169.921875h.886718c2.871094-.0625 5.753906-.0625 8.625 0h.871094c5.441406 6.570313 25.417969 39.539063 26.746094 169.921875-.226563-.152344-.480469-.265625-.6875-.417968zm16.671875.554687c-.929688-94.121094-11.34375-140.695313-20.960938-163.65625 29.34375 13.503906 80.800781 52.839844 84.800781 163.382813-.265624-.191407-.585937-.335938-.847656-.519532-1.617187-1.136718-3.304687-2.175781-5.050781-3.105468-.550781-.292969-1.085937-.589844-1.648437-.871094-2.1875-1.082032-4.449219-2.007813-6.765626-2.773438-.28125-.097656-.585937-.152344-.871093-.242187-2.167969-.671875-4.375-1.207031-6.609375-1.601563-.671875-.117187-1.335938-.230468-2.023438-.324218-2.636718-.382813-5.292968-.574219-7.953125-.585938-11.519531-.109375-22.769531 3.5-32.070312 10.296875zm150.039062 1.160156c-11.300781-7.375-24.476562-11.347656-37.96875-11.457031-11.597656-.125-22.921875 3.527344-32.265625 10.398438-3.007812-88.949219-35.40625-135.839844-65.503906-160.300782 72.164062 23.722656 124.71875 86.199219 135.738281 161.359375zm-260.199219-161.335937c-30.097656 24.464844-62.496093 71.351562-65.503906 160.304687-9.339844-6.882812-20.664062-10.542969-32.265625-10.425781-13.492187.109375-26.667969 4.082031-37.96875 11.457031 11.027344-75.152343 63.582031-137.617187 135.738281-161.335937zm0 0" fill="url(#a)"/></svg>