<svg height="480pt" viewBox="-4 0 480 480" width="480pt" xmlns="http://www.w3.org/2000/svg" xmlns:xlink="http://www.w3.org/1999/xlink"><linearGradient id="a" gradientUnits="userSpaceOnUse" x1="236" x2="236" y1="565.336" y2="-64"><stop offset="0" stop-color="#12c2e9"/><stop offset=".5" stop-color="#c471ed"/><stop offset=".982" stop-color="#f64f59"/></linearGradient><path d="m464 48c-15.789062.335938-31.199219-4.847656-43.574219-14.65625-31.144531-23.117188-73.753906-23.117188-104.898437 0-12.375 9.808594-27.78125 14.992188-43.566406 14.65625-15.777344.332031-31.179688-4.851562-43.546876-14.65625-15.011718-11.527344-33.484374-17.640625-52.414062-17.34375-1.164062.015625-2.3125.289062-3.359375.800781-.066406 0-.152344 0-.214844.046875l-116.425781 58.207032v-17.292969c5.070312-4.515625 7.980469-10.972657 8-17.761719v-16c0-13.253906-10.746094-24-24-24h-16c-13.253906 0-24 10.746094-24 24v16c.0195312 6.789062 2.929688 13.246094 8 17.761719v422.238281h48v-379.054688l116.425781 58.253907c.0625 0 .148438 0 .222657.046875 1.046874.496094 2.191406.753906 3.351562.753906 15.777344-.332031 31.171875 4.851562 43.535156 14.65625 31.132813 23.125 73.738282 23.125 104.871094 0 25.761719-19.542969 61.382812-19.542969 87.144531 0 15.027344 11.527344 33.511719 17.640625 52.449219 17.34375 4.417969 0 8-3.582031 8-8v-128c0-4.417969-3.582031-8-8-8zm-448-24c0-4.417969 3.582031-8 8-8h16c4.417969 0 8 3.582031 8 8v16c-.027344 2.964844-1.707031 5.667969-4.351562 7.007812-.359376.183594-.730469.34375-1.113282.480469-.8125.308594-1.667968.480469-2.535156.511719h-16c-.867188-.03125-1.722656-.203125-2.535156-.511719-.382813-.136719-.753906-.296875-1.113282-.480469-2.644531-1.339843-4.324218-4.042968-4.351562-7.007812zm24 40v16h-16v-16zm-16 400v-368h16v368zm144-427.054688v102.109376l-102.113281-51.054688zm288 138.710938c-12.976562-1.304688-25.3125-6.265625-35.574219-14.3125-31.144531-23.117188-73.753906-23.117188-104.898437 0-25.75 19.542969-61.363282 19.542969-87.113282 0-1.40625-.9375-2.839843-1.886719-4.308593-2.839844-.433594-.289062-.90625-.566406-1.34375-.847656-1.074219-.679688-2.152344-1.359375-3.273438-2.03125-.59375-.351562-1.222656-.6875-1.839843-1.039062-1.015626-.585938-2.039063-1.160157-3.121094-1.722657-.703125-.367187-1.457032-.710937-2.191406-1.0625-1.046876-.511719-2.113282-1.007812-3.199219-1.488281-.800781-.34375-1.65625-.671875-2.503907-.992188-1.136718-.441406-2.289062-.863281-3.488281-1.257812-.914062-.292969-1.855469-.574219-2.808593-.847656-1.257813-.359375-2.542969-.6875-3.878907-.992188-1.007812-.230468-2.042969-.453125-3.097656-.65625-1.414063-.261718-2.894531-.476562-4.40625-.679687-1.113281-.152344-2.21875-.292969-3.386719-.40625-.527344-.046875-1-.144531-1.542968-.183594v-111.914063h.527343c.800781.074219 1.527344.203126 2.289063.296876 1.296875.167968 2.585937.34375 3.792968.566406.800782.152344 1.519532.328125 2.269532.507812 1.089844.246094 2.167968.503906 3.203125.796875.726562.210938 1.429687.433594 2.125.664063.960937.320312 1.914062.65625 2.824219 1.007812.664062.265625 1.320312.53125 1.960937.800782.886719.390624 1.761719.800781 2.617187 1.214843.597657.296875 1.207032.585938 1.792969.898438.871094.457031 1.71875.933593 2.566407 1.421875.527343.304687 1.0625.601562 1.601562.914062.957031.574219 1.902344 1.175782 2.839844 1.773438.398437.257812.796875.496094 1.191406.753906 1.320312.855469 2.632812 1.734375 4 2.625 14.988281 11.519531 33.429688 17.640625 52.335938 17.375 18.9375.296875 37.417968-5.816406 52.445312-17.34375 25.761719-19.542969 61.382812-19.542969 87.144531 0 12.878907 9.820312 28.304688 15.738281 44.449219 17.046875zm0 0" fill="url(#a)"/></svg>