<svg height="480pt" viewBox="0 -152 480 480" width="480pt" xmlns="http://www.w3.org/2000/svg" xmlns:xlink="http://www.w3.org/1999/xlink"><linearGradient id="a"><stop offset="0" stop-color="#12c2e9"/><stop offset=".5" stop-color="#c471ed"/><stop offset=".982" stop-color="#f64f59"/></linearGradient><linearGradient id="b" gradientUnits="userSpaceOnUse" x1="240" x2="240" xlink:href="#a" y1="195.34826" y2="-93.30774"/><linearGradient id="c" gradientUnits="userSpaceOnUse" x1="240" x2="240" xlink:href="#a" y1="209.76426" y2="-78.88374"/><linearGradient id="d" gradientUnits="userSpaceOnUse" x1="240" x2="240" xlink:href="#a" y1="224.18826" y2="-64.46774"/><linearGradient id="e" gradientUnits="userSpaceOnUse" x1="240" x2="240" xlink:href="#a" y1="238.61226" y2="-50.04374"/><path d="m472 .0351562c-20.359375-.3867182-40.652344 2.4101558-60.144531 8.2890628-18.09375 5.503906-36.945313 8.105469-55.855469 7.710937-18.917969.394532-37.78125-2.207031-55.886719-7.710937-19.503906-5.882813-39.808593-8.679688-60.175781-8.2890628-20.347656-.3867182-40.625 2.4101558-60.105469 8.2890628-18.085937 5.503906-36.929687 8.105469-55.832031 7.710937-18.914062.398438-37.773438-2.207031-55.871094-7.710937-19.488281-5.882813-39.777344-8.679688-60.128906-8.2890628-4.417969 0-8 3.5820318-8 7.9999998 0 4.417969 3.582031 8 8 8 18.910156-.394531 37.765625 2.207032 55.863281 7.714844 19.492188 5.878906 39.78125 8.675781 60.136719 8.285156 20.34375.390625 40.625-2.40625 60.105469-8.285156 18.085937-5.503906 36.929687-8.109375 55.832031-7.714844 18.921875-.394531 37.785156 2.207032 55.894531 7.714844 19.5 5.882812 39.800781 8.679688 60.167969 8.285156 20.359375.390625 40.652344-2.40625 60.144531-8.285156 18.09375-5.503906 36.945313-8.105469 55.855469-7.714844 4.417969 0 8-3.582031 8-8 0-4.417968-3.582031-7.9999998-8-7.9999998zm0 0" fill="url(#b)"/><path d="m472 48.035156c-20.359375-.386718-40.652344 2.410156-60.144531 8.289063-18.09375 5.503906-36.945313 8.105469-55.855469 7.710937-18.917969.394532-37.78125-2.207031-55.886719-7.710937-19.503906-5.882813-39.808593-8.679688-60.175781-8.289063-20.347656-.386718-40.625 2.410156-60.105469 8.289063-18.085937 5.503906-36.929687 8.105469-55.832031 7.710937-18.914062.398438-37.773438-2.207031-55.871094-7.710937-19.488281-5.882813-39.777344-8.679688-60.128906-8.289063-4.417969 0-8 3.582032-8 8 0 4.417969 3.582031 8 8 8 18.910156-.394531 37.765625 2.207032 55.863281 7.714844 19.492188 5.878906 39.78125 8.675781 60.136719 8.285156 20.34375.390625 40.625-2.40625 60.105469-8.285156 18.085937-5.503906 36.929687-8.109375 55.832031-7.714844 18.921875-.394531 37.785156 2.207032 55.894531 7.714844 19.5 5.882812 39.800781 8.679688 60.167969 8.285156 20.359375.390625 40.652344-2.40625 60.144531-8.285156 18.09375-5.503906 36.945313-8.105469 55.855469-7.714844 4.417969 0 8-3.582031 8-8 0-4.417968-3.582031-8-8-8zm0 0" fill="url(#c)"/><path d="m472 96.035156c-20.359375-.386718-40.652344 2.410156-60.144531 8.289063-18.09375 5.503906-36.945313 8.105469-55.855469 7.710937-18.917969.394532-37.78125-2.207031-55.886719-7.710937-19.503906-5.882813-39.808593-8.679688-60.175781-8.289063-20.347656-.386718-40.625 2.410156-60.105469 8.289063-18.085937 5.503906-36.929687 8.105469-55.832031 7.710937-18.914062.398438-37.773438-2.207031-55.871094-7.710937-19.488281-5.882813-39.777344-8.679688-60.128906-8.289063-4.417969 0-8 3.582032-8 8 0 4.417969 3.582031 8 8 8 18.910156-.394531 37.765625 2.207032 55.863281 7.714844 19.492188 5.878906 39.78125 8.675781 60.136719 8.285156 20.34375.390625 40.625-2.40625 60.105469-8.285156 18.085937-5.503906 36.929687-8.109375 55.832031-7.714844 18.921875-.394531 37.785156 2.207032 55.894531 7.714844 19.5 5.882812 39.800781 8.679688 60.167969 8.285156 20.359375.390625 40.652344-2.40625 60.144531-8.285156 18.09375-5.503906 36.945313-8.105469 55.855469-7.714844 4.417969 0 8-3.582031 8-8 0-4.417968-3.582031-8-8-8zm0 0" fill="url(#d)"/><path d="m472 144.035156c-20.359375-.386718-40.652344 2.410156-60.144531 8.289063-18.09375 5.503906-36.945313 8.105469-55.855469 7.710937-18.917969.394532-37.78125-2.207031-55.886719-7.710937-19.503906-5.882813-39.808593-8.679688-60.175781-8.289063-20.347656-.386718-40.625 2.410156-60.105469 8.289063-18.085937 5.503906-36.929687 8.105469-55.832031 7.710937-18.914062.398438-37.773438-2.207031-55.871094-7.710937-19.488281-5.882813-39.777344-8.679688-60.128906-8.289063-4.417969 0-8 3.582032-8 8 0 4.417969 3.582031 8 8 8 18.910156-.394531 37.765625 2.207032 55.863281 7.714844 19.492188 5.878906 39.78125 8.675781 60.136719 8.285156 20.34375.390625 40.625-2.40625 60.105469-8.285156 18.085937-5.503906 36.929687-8.109375 55.832031-7.714844 18.921875-.394531 37.785156 2.207032 55.894531 7.714844 19.5 5.882812 39.800781 8.679688 60.167969 8.285156 20.359375.390625 40.652344-2.40625 60.144531-8.285156 18.09375-5.503906 36.945313-8.105469 55.855469-7.714844 4.417969 0 8-3.582031 8-8 0-4.417968-3.582031-8-8-8zm0 0" fill="url(#e)"/></svg>