<svg id="svg4197" xmlns="http://www.w3.org/2000/svg" viewBox="0 0 57 57"><title>Artboard 2 copy</title><path id="path74" d="M24.48,44.5H45.2a3,3,0,0,1,.42,0v0a6.14,6.14,0,0,0,0-12.27,5.89,5.89,0,0,0-1.48.19.58.58,0,0,1-.48-.09.57.57,0,0,1-.26-.41,8.92,8.92,0,0,0-17.74,1.4q0,.36,0,.72a.58.58,0,0,1-.18.48.65.65,0,0,1-.48.17,4.92,4.92,0,1,0-.55,9.81m0-11v-.13a10.13,10.13,0,0,1,20-2.2A7.52,7.52,0,0,1,45.62,31a7.34,7.34,0,1,1,0,14.68H24.48a6.13,6.13,0,0,1,0-12.26"/><path id="path78" d="M12.49,27.37a9.75,9.75,0,0,1,9.73-9.74,9.18,9.18,0,0,1,7.94,4.15.6.6,0,0,1-1,.66,8,8,0,0,0-6.93-3.6,8.53,8.53,0,0,0-4.61,15.7.6.6,0,0,1,.18.83.61.61,0,0,1-.51.28.58.58,0,0,1-.33-.1,9.7,9.7,0,0,1-4.46-8.18"/><path id="path82" d="M22.1,14.65a.6.6,0,0,1-.61-.6V9.24a.61.61,0,1,1,1.21,0v4.81a.6.6,0,0,1-.6.6"/><path id="path86" d="M15.5,16.53a.56.56,0,0,1-.31.09.61.61,0,0,1-.52-.29l-2.53-4.09a.6.6,0,0,1,1-.63L15.7,15.7a.6.6,0,0,1-.2.83"/><path id="path90" d="M10.52,21.6a.6.6,0,0,1-.28-.08L6,19.25a.6.6,0,0,1-.24-.81.59.59,0,0,1,.81-.25l4.25,2.27a.6.6,0,0,1,.24.82.59.59,0,0,1-.53.32"/><path id="path94" d="M4.15,26.54H9a.6.6,0,0,1,.6.6.6.6,0,0,1-.6.6H4.15a.6.6,0,0,1-.6-.61.59.59,0,0,1,.6-.59"/><path id="path98" d="M6.05,35.25l4.23-2.31A.6.6,0,0,1,10.86,34L6.63,36.31a.59.59,0,0,1-.29.07.6.6,0,0,1-.29-1.13"/><path id="path102" d="M38.14,19.09,33.91,21.4a.59.59,0,0,1-.29.07.6.6,0,0,1-.29-1.13L37.56,18a.6.6,0,1,1,.58,1.06"/><path id="path106" d="M14.62,38a.6.6,0,0,1,1,.63l-2.55,4.09a.61.61,0,0,1-.51.28.62.62,0,0,1-.32-.09.6.6,0,0,1-.19-.83L14.62,38Z"/><path id="path110" d="M29.57,16.35a.6.6,0,0,1-.51.28.62.62,0,0,1-.32-.09.6.6,0,0,1-.19-.83l2.55-4.08a.6.6,0,0,1,1,.64l-2.55,4.08Z"/></svg>