<svg id="svg4197" xmlns="http://www.w3.org/2000/svg" viewBox="0 0 57 57"><title>Artboard 2 copy 2</title><path id="path274" d="M16.23,40.94H38.9a3.39,3.39,0,0,1,.45,0v0a6.72,6.72,0,0,0,0-13.43,6.61,6.61,0,0,0-1.62.21.68.68,0,0,1-.52-.09.65.65,0,0,1-.29-.45,9.76,9.76,0,0,0-19.41,1.53c0,.26,0,.52,0,.78a.63.63,0,0,1-.2.53.64.64,0,0,1-.53.18,5.68,5.68,0,0,0-.59,0,5.39,5.39,0,1,0,0,10.77m0-12.09v-.14A11.09,11.09,0,0,1,38.1,26.3a7.61,7.61,0,0,1,1.25-.1,8,8,0,1,1,0,16.06H16.23a6.71,6.71,0,0,1,0-13.41"/></svg>