<svg id="svg4197" xmlns="http://www.w3.org/2000/svg" viewBox="0 0 57 57"><title>Artboard 2 copy 3</title><path id="path274" d="M22.09,42.13H45.21a6.72,6.72,0,0,0,0-13.43,6.61,6.61,0,0,0-1.62.21.66.66,0,0,1-.81-.54,9.76,9.76,0,0,0-19.41,1.52c0,.27,0,.53,0,.79a.61.61,0,0,1-.2.52.65.65,0,0,1-.53.19,5.65,5.65,0,0,0-.59,0,5.39,5.39,0,1,0,0,10.78m0-12.09v-.15A11.09,11.09,0,0,1,44,27.49a7.64,7.64,0,0,1,1.25-.11,8,8,0,0,1,0,16.07H22.09a6.71,6.71,0,0,1,0-13.41"/><path id="path278" d="M14,22.94a7.61,7.61,0,0,1,1.25.1,11.08,11.08,0,0,1,17.17-6.68.66.66,0,1,1-.76,1.08,9.76,9.76,0,0,0-15.23,6.49.67.67,0,0,1-.29.44.64.64,0,0,1-.52.09,7.11,7.11,0,0,0-1.62-.2,6.71,6.71,0,0,0-.7,13.39.66.66,0,0,1,.59.72.67.67,0,0,1-.66.59h-.07a8,8,0,0,1,.84-16"/></svg>