<svg id="svg4197" xmlns="http://www.w3.org/2000/svg" viewBox="0 0 57 57"><title>Artboard 2 copy 4</title><path id="path218" d="M22.08,35.32h22.7a3.54,3.54,0,0,1,.46,0v0a6.73,6.73,0,0,0,0-13.45,7.12,7.12,0,0,0-1.63.2.61.61,0,0,1-.52-.09.67.67,0,0,1-.29-.44,9.78,9.78,0,0,0-19.44,1.52c0,.27,0,.53,0,.79a.66.66,0,0,1-.2.53.64.64,0,0,1-.53.18,5.68,5.68,0,0,0-.59,0,5.4,5.4,0,1,0,0,10.79m0-12.11v-.15A11.1,11.1,0,0,1,44,20.65a7.64,7.64,0,0,1,1.26-.1,8,8,0,1,1,0,16.09H22.08a6.72,6.72,0,0,1,0-13.43"/><path id="path222" d="M14,16.1a9,9,0,0,1,1.26.1,11.11,11.11,0,0,1,17.2-6.69.67.67,0,0,1,.16.92.66.66,0,0,1-.92.16,9.78,9.78,0,0,0-15.26,6.5.71.71,0,0,1-.29.45.69.69,0,0,1-.53.09A6.55,6.55,0,0,0,14,17.42a6.72,6.72,0,0,0-.7,13.41.66.66,0,0,1,.59.73.65.65,0,0,1-.65.59h-.07a8,8,0,0,1,.83-16"/><path id="path298" d="M25.32,39.64a.64.64,0,0,0-.86.29l-4.32,8.64a.64.64,0,0,0,.29.86.71.71,0,0,0,.28.06.65.65,0,0,0,.58-.35l4.32-8.64a.64.64,0,0,0-.29-.86"/><path id="path302" d="M32.53,39.64a.63.63,0,0,0-.86.29l-4.32,8.64a.65.65,0,0,0,.28.86.75.75,0,0,0,.29.06.63.63,0,0,0,.57-.35l4.32-8.64a.64.64,0,0,0-.28-.86"/><path id="path306" d="M39.73,39.64a.64.64,0,0,0-.86.29l-4.32,8.64a.64.64,0,0,0,.29.86.71.71,0,0,0,.28.06.65.65,0,0,0,.58-.35L40,40.5a.64.64,0,0,0-.29-.86"/></svg>