<?xml version="1.0" encoding="iso-8859-1"?>
<!-- Generator: Adobe Illustrator 19.0.0, SVG Export Plug-In . SVG Version: 6.00 Build 0)  -->
<svg version="1.1" id="Capa_1" xmlns="http://www.w3.org/2000/svg" xmlns:xlink="http://www.w3.org/1999/xlink" x="0px" y="0px"
	 viewBox="0 0 512.002 512.002" style="enable-background:new 0 0 512.002 512.002;" xml:space="preserve">
<g>
	<path style="fill:#DC8D62;" d="M459.566,143.767h-29.818c0,10.415-8.521,18.936-18.935,18.936v18.936h67.689v-18.936
		C468.088,162.702,459.566,154.181,459.566,143.767z"/>
	<rect x="410.811" y="472.26" style="fill:#ACB0B5;" width="67.69" height="29.737"/>
	<g>
		<polygon style="fill:#009C87;" points="410.813,323.139 99.501,323.139 70.239,323.139 63.713,332.91 33.501,378.139 
			410.813,378.139 		"/>
		<path style="fill:#009C87;" d="M444.657,89.769l-16.965-0.001v22.464c0,6.344-5.19,31.535-11.534,31.535h13.591h29.818h13.591
			c-6.344,0-11.534-25.191-11.534-31.535V89.768L444.657,89.769z"/>
		<path style="fill:#009C87;" d="M63.713,257.017h35.788h11.927c-6.344,0-11.534-25.191-11.534-31.535v-22.464l-16.966,0.001
			l-16.965-0.001v22.464c0,6.344-5.19,31.535-11.534,31.535H63.713z"/>
	</g>
	<g>
		<circle style="fill:#FFCE34;" cx="444.661" cy="49.83" r="14.812"/>
		<circle style="fill:#FFCE34;" cx="82.928" cy="163.08" r="14.812"/>
	</g>
	<g>
		<polygon style="fill:#FF8346;" points="478.502,181.638 410.813,181.638 410.813,323.139 410.813,378.139 410.813,472.265 
			478.502,472.265 		"/>
		<polygon style="fill:#FF8346;" points="99.501,323.139 99.501,257.017 63.713,257.017 63.713,332.91 70.239,323.139 		"/>
		<path style="fill:#FF8346;" d="M410.813,378.139H33.501v123.863h30.211v-25.597c0-9.703,7.938-17.641,17.641-17.641
			s17.641,7.938,17.641,17.641v25.597h35.282v-25.597c0-9.703,7.939-17.641,17.642-17.641s17.641,7.938,17.641,17.641v25.597h34.956
			v-25.597c0-9.703,7.938-17.641,17.641-17.641s17.641,7.938,17.641,17.641v25.597h35.282v-25.597
			c0-9.703,7.938-17.641,17.641-17.641s17.641,7.938,17.641,17.641v25.597h34.956v-25.597c0-9.703,7.939-17.641,17.642-17.641
			s17.641,7.938,17.641,17.641v25.597h30.211v-29.737v-94.126H410.813z"/>
	</g>
	<g>
		<path style="fill:#747981;" d="M98.995,476.405c0-9.703-7.938-17.641-17.641-17.641s-17.641,7.938-17.641,17.641v25.597h35.282
			V476.405z"/>
		<path style="fill:#747981;" d="M134.277,476.405v25.597h35.283v-25.597c0-9.703-7.938-17.641-17.641-17.641
			C142.216,458.764,134.277,466.703,134.277,476.405z"/>
		<path style="fill:#747981;" d="M204.516,476.405v25.597h35.283v-25.597c0-9.703-7.938-17.641-17.641-17.641
			C212.454,458.764,204.516,466.703,204.516,476.405z"/>
		<path style="fill:#747981;" d="M275.08,476.405v25.597h35.283v-25.597c0-9.703-7.939-17.641-17.641-17.641
			C283.019,458.764,275.08,466.703,275.08,476.405z"/>
		<path style="fill:#747981;" d="M345.319,476.405v25.597h35.283v-25.597c0-9.703-7.938-17.641-17.641-17.641
			C353.258,458.764,345.319,466.703,345.319,476.405z"/>
	</g>
</g>
<path d="M124.094,442.391c5.523,0,10-4.478,10-10v-24.5c0-5.522-4.477-10-10-10c-5.522,0-10,4.478-10,10v24.5
	C114.094,437.913,118.572,442.391,124.094,442.391z"/>
<path d="M320.22,442.391c5.522,0,10-4.478,10-10v-24.5c0-5.522-4.478-10-10-10s-10,4.478-10,10v24.5
	C310.22,437.913,314.698,442.391,320.22,442.391z"/>
<path d="M240.72,442.391c5.522,0,10-4.478,10-10v-24.5c0-5.522-4.478-10-10-10c-5.523,0-10,4.478-10,10v24.5
	C230.72,437.913,235.198,442.391,240.72,442.391z"/>
<path d="M203.594,442.391c5.523,0,10-4.478,10-10v-24.5c0-5.522-4.477-10-10-10c-5.522,0-10,4.478-10,10v24.5
	C193.594,437.913,198.072,442.391,203.594,442.391z"/>
<path d="M166.468,442.391c5.522,0,10-4.478,10-10v-24.5c0-5.522-4.478-10-10-10s-10,4.478-10,10v24.5
	C156.468,437.913,160.946,442.391,166.468,442.391z"/>
<path d="M277.846,442.391c5.522,0,10-4.478,10-10v-24.5c0-5.522-4.478-10-10-10s-10,4.478-10,10v24.5
	C267.846,437.913,272.324,442.391,277.846,442.391z"/>
<path d="M86.967,442.391c5.522,0,10-4.478,10-10v-24.5c0-5.522-4.478-10-10-10s-10,4.478-10,10v24.5
	C76.967,437.913,81.445,442.391,86.967,442.391z"/>
<path d="M357.346,442.391c5.522,0,10-4.478,10-10v-24.5c0-5.522-4.478-10-10-10s-10,4.478-10,10v24.5
	C347.346,437.913,351.824,442.391,357.346,442.391z"/>
<path d="M451.127,212.142h-12.94c-5.522,0-10,4.477-10,10c0,5.522,4.478,10,10,10h12.94c5.522,0,10-4.478,10-10
	C461.127,216.619,456.65,212.142,451.127,212.142z"/>
<path d="M444.658,333.52c-5.522,0-10,4.478-10,10v0.476c0,5.522,4.478,10,10,10s10-4.478,10-10v-0.476
	C454.658,337.997,450.18,333.52,444.658,333.52z"/>
<path d="M444.658,363.079c-5.522,0-10,4.478-10,10v41.438c0,5.523,4.478,10,10,10s10-4.477,10-10v-41.438
	C454.658,367.557,450.18,363.079,444.658,363.079z"/>
<path d="M310.685,333.14h0.476c5.523,0,10-4.477,10-10c0-5.522-4.477-10-10-10h-0.476c-5.522,0-10,4.478-10,10
	C300.685,328.662,305.163,333.14,310.685,333.14z"/>
<path d="M502.002,512.002c5.522,0,10-4.477,10-10c0-5.522-4.478-10-10-10h-13.5l0,0v-329.3l0,0c0-5.522-4.478-10-10-10
	c-0.267,0-0.531-0.017-0.792-0.04c3.231-1.658,5.446-5.015,5.446-8.895c0-4.066-2.426-7.564-5.909-9.128
	c-2.529-4.513-5.624-17.959-5.624-22.406V99.768h5.315c5.522,0,10-4.478,10-10s-4.478-10-10-10h-15.315h-6.967v-7.237
	c8.714-3.854,14.813-12.576,14.813-22.701s-6.099-18.847-14.813-22.701V10c0-5.523-4.478-10-10-10c-5.523,0-10,4.477-10,10v17.13
	c-8.713,3.854-14.812,12.576-14.812,22.7s6.098,18.846,14.812,22.7v7.237h-6.965h-15.316c-5.522,0-10,4.478-10,10s4.478,10,10,10
	h5.316v12.465c0,4.447-3.095,17.893-5.624,22.406c-3.483,1.564-5.91,5.063-5.91,9.128c0,3.881,2.215,7.238,5.446,8.895
	c-0.261,0.023-0.524,0.04-0.791,0.04c-5.522,0-10,4.478-10,10l0,0V313.14h-60.568c-5.522,0-10,4.478-10,10c0,5.523,4.478,10,10,10
	h60.568v34.999H52.207l23.378-34.999l0,0l0,0l0,0l0,0h185.693c5.522,0,10-4.477,10-10c0-5.522-4.478-10-10-10H109.5v-46.123h1.927
	c5.523,0,10-4.478,10-10c0-4.066-2.426-7.564-5.909-9.128c-2.529-4.513-5.624-17.959-5.624-22.406v-12.465h5.314
	c5.522,0,10-4.478,10-10s-4.478-10-10-10H99.894h-6.967v-7.237c8.714-3.854,14.813-12.576,14.813-22.701
	c0-10.124-6.099-18.847-14.813-22.701V123.25c0-5.522-4.477-10-10-10c-5.522,0-10,4.478-10,10v17.13
	c-8.713,3.854-14.811,12.576-14.811,22.7c0,10.125,6.098,18.846,14.811,22.7v7.237h-6.966H50.646c-5.522,0-10,4.478-10,10
	s4.478,10,10,10h5.315v12.465c0,4.447-3.095,17.893-5.623,22.406c-3.484,1.564-5.91,5.063-5.91,9.128
	c0,5.281,4.097,9.595,9.284,9.964v62.897l-28.495,42.66c-0.005,0.008-0.011,0.016-0.016,0.024l-0.015,0.023
	c-0.009,0.013-0.014,0.027-0.023,0.039c-0.218,0.329-0.411,0.674-0.59,1.029c-0.044,0.087-0.085,0.175-0.126,0.263
	c-0.152,0.325-0.288,0.658-0.405,1.001c-0.017,0.049-0.038,0.097-0.054,0.147c-0.125,0.388-0.226,0.787-0.304,1.194
	c-0.016,0.085-0.025,0.17-0.039,0.254c-0.051,0.309-0.088,0.622-0.109,0.94c-0.009,0.13-0.016,0.259-0.02,0.388
	c-0.003,0.1-0.015,0.198-0.015,0.299v113.863h-13.5c-5.522,0-10,4.478-10,10c0,5.523,4.478,10,10,10h492.001 M449.47,49.83
	c0,2.653-2.159,4.813-4.813,4.813c-2.653,0-4.813-2.159-4.813-4.813c0-2.653,2.159-4.813,4.813-4.813
	C447.311,45.018,449.47,47.177,449.47,49.83z M78.116,163.08c0-2.653,2.158-4.813,4.811-4.813s4.813,2.159,4.813,4.813
	c0,2.653-2.159,4.813-4.813,4.813C80.274,167.893,78.116,165.733,78.116,163.08z M89.5,313.14H73.712v-46.123H89.5V313.14z
	 M82.908,213.018c0.007,0,0.013,0.001,0.019,0.001c0.007,0,0.013-0.001,0.019-0.001h6.948v12.465c0,4.616,1.632,13.633,3.796,20.974
	c0.053,0.178,0.107,0.365,0.166,0.561H72c0.058-0.195,0.112-0.383,0.165-0.561c2.164-7.34,3.796-16.357,3.796-20.974v-12.465H82.908
	z M420.813,462.265L420.813,462.265V191.639h47.69v270.626H420.813L420.813,462.265z M420.813,170.921
	c7.924-2.928,14.227-9.23,17.154-17.154h13.38c2.928,7.924,9.23,14.227,17.155,17.154v0.718h-47.69v-0.718H420.813z M444.637,99.768
	c0.007,0,0.013,0.001,0.019,0.001c0.007,0,0.013-0.001,0.019-0.001h6.948v12.465c0,4.616,1.632,13.633,3.796,20.974
	c0.053,0.178,0.107,0.365,0.166,0.561h-21.855c0.058-0.195,0.113-0.383,0.166-0.561c2.164-7.34,3.796-16.357,3.796-20.974V99.768
	H444.637z M43.501,388.139h357.311v103.863l0,0h-10.211v-15.597c0-15.241-12.4-27.641-27.642-27.641
	c-15.241,0-27.642,12.399-27.642,27.641v15.597h-14.956v-15.597c0-15.241-12.4-27.641-27.642-27.641
	c-15.241,0-27.641,12.399-27.641,27.641v15.597h-15.282v-15.597c0-15.241-12.4-27.641-27.642-27.641
	c-15.241,0-27.641,12.399-27.641,27.641v15.597h-14.956v-15.597c0-15.241-12.4-27.641-27.642-27.641s-27.642,12.399-27.642,27.641
	v15.597h-15.282v-15.597c0-15.241-12.399-27.641-27.641-27.641s-27.642,12.399-27.642,27.641v15.597H43.501V388.139z
	 M73.712,492.002v-15.597c0-4.213,3.428-7.641,7.642-7.641c4.213,0,7.641,3.428,7.641,7.641v15.597H73.712z M144.277,492.002
	v-15.597c0-4.213,3.428-7.641,7.642-7.641s7.642,3.428,7.642,7.641v15.597H144.277z M214.516,492.002v-15.597
	c0-4.213,3.428-7.641,7.641-7.641h0.001c4.213,0,7.641,3.428,7.641,7.641v15.597H214.516z M285.081,492.002v-15.597
	c0-4.213,3.428-7.641,7.641-7.641h0.001c4.213,0,7.641,3.428,7.641,7.641v15.597H285.081z M355.319,492.002v-15.597
	c0-4.213,3.428-7.641,7.642-7.641s7.642,3.428,7.642,7.641v15.597H355.319z M420.813,492.002v-9.737h47.69v9.737H420.813z"/>
<g>
</g>
<g>
</g>
<g>
</g>
<g>
</g>
<g>
</g>
<g>
</g>
<g>
</g>
<g>
</g>
<g>
</g>
<g>
</g>
<g>
</g>
<g>
</g>
<g>
</g>
<g>
</g>
<g>
</g>
</svg>
