<?xml version="1.0" standalone="no"?>
<!DOCTYPE svg PUBLIC "-//W3C//DTD SVG 20010904//EN"
 "http://www.w3.org/TR/2001/REC-SVG-20010904/DTD/svg10.dtd">
<svg version="1.0" xmlns="http://www.w3.org/2000/svg"
 width="560.000000pt" height="560.000000pt" viewBox="0 0 560.000000 560.000000"
 preserveAspectRatio="xMidYMid meet">
<metadata>
Created by potrace 1.11, written by Peter Selinger 2001-2013
</metadata>
<g transform="translate(0.000000,560.000000) scale(0.100000,-0.100000)"
fill="#000000" stroke="none">
<path d="M1705 5243 c-33 -9 -74 -43 -92 -76 -14 -26 -18 -64 -19 -187 -2
-180 4 -215 48 -257 48 -45 101 -58 159 -40 35 11 87 66 98 103 4 16 7 101 7
189 -1 148 -3 163 -24 197 -37 60 -110 89 -177 71z"/>
<path d="M545 4766 c-75 -32 -111 -125 -81 -202 11 -26 57 -80 135 -156 126
-124 151 -138 226 -124 54 11 111 71 120 126 11 73 -12 112 -133 232 -135 134
-188 159 -267 124z"/>
<path d="M2830 4765 c-19 -9 -87 -69 -151 -134 -107 -108 -118 -123 -124 -164
-18 -115 76 -204 191 -182 28 5 61 31 154 123 65 64 125 131 133 147 8 17 14
51 13 77 -4 107 -118 177 -216 133z"/>
<path d="M1687 4474 c-1 -1 -28 -5 -60 -9 -187 -21 -392 -119 -543 -258 -177
-164 -276 -354 -314 -602 -10 -62 -7 -247 5 -300 21 -97 28 -124 56 -195 79
-205 266 -416 456 -514 35 -17 34 -20 -13 -70 -23 -25 -116 -188 -141 -248
-70 -171 -100 -405 -74 -575 49 -316 225 -595 484 -767 106 -70 164 -99 273
-135 174 -56 150 -56 1409 -55 638 0 1189 3 1225 7 161 19 290 59 456 143 155
78 298 192 419 334 88 103 187 281 241 435 l29 80 3 305 c4 340 2 351 -68 526
-195 488 -650 813 -1175 840 -86 5 -113 9 -123 22 -7 10 -39 53 -71 97 -171
234 -418 412 -690 497 -63 20 -83 25 -131 34 -14 2 -31 7 -38 9 -50 18 -312
26 -417 13 -72 -9 -198 -36 -246 -53 -23 -8 -43 -15 -44 -15 -1 0 -22 25 -45
56 -158 210 -387 348 -648 390 -36 6 -210 13 -215 8z m289 -362 c45 -16 108
-47 140 -67 68 -43 188 -161 179 -175 -4 -6 -34 -29 -68 -52 -151 -101 -338
-326 -427 -513 -39 -81 -94 -238 -105 -300 -3 -16 -8 -46 -11 -65 -4 -19 -8
-42 -9 -50 -2 -8 -4 -18 -4 -22 -1 -3 -21 -17 -45 -31 l-43 -24 -59 21 c-263
96 -437 333 -449 616 -3 75 0 109 19 195 12 57 65 166 109 224 78 105 155 167
271 222 97 45 174 59 306 55 97 -3 127 -8 196 -34z m1334 -366 c130 -33 264
-96 365 -170 81 -60 217 -195 212 -209 -1 -5 -31 -20 -65 -33 -71 -27 -183
-83 -257 -130 -116 -73 -278 -221 -310 -284 -46 -89 6 -199 104 -221 64 -15
107 5 195 91 104 101 160 143 268 200 381 200 858 128 1191 -179 123 -113 259
-359 283 -511 3 -19 9 -55 14 -79 13 -71 5 -278 -14 -356 -76 -315 -267 -559
-543 -694 -85 -42 -178 -76 -233 -85 -19 -3 -53 -9 -75 -13 -22 -5 -569 -8
-1215 -8 -1309 0 -1234 -4 -1394 69 -224 102 -382 286 -447 521 -32 113 -33
298 -1 407 75 265 249 457 502 553 41 16 77 30 79 32 2 1 5 30 7 65 1 34 5 89
9 122 22 224 136 462 298 628 125 127 324 243 487 282 120 29 164 33 300 31
108 -2 156 -8 240 -29z"/>
<path d="M65 3615 c-56 -29 -65 -49 -65 -144 0 -78 3 -90 22 -109 40 -37 77
-43 244 -44 177 0 195 5 249 61 26 28 29 39 30 91 0 63 -16 95 -69 134 -25 19
-44 21 -204 24 -145 2 -182 0 -207 -13z"/>
<path d="M715 2651 c-16 -10 -80 -70 -141 -132 -119 -122 -132 -145 -119 -220
8 -49 57 -102 111 -119 67 -22 103 -3 235 129 65 64 123 129 128 144 28 74 2
158 -61 197 -42 26 -113 26 -153 1z"/>
</g>
</svg>
