<svg width="78" height="54" viewBox="0 0 78 54" fill="none" xmlns="http://www.w3.org/2000/svg">
<path d="M33.4621 52.2606C28.0663 52.2606 23.1056 49.2145 20.6687 44.5149C18.7541 45.4722 16.6654 45.9074 14.5766 45.9074C7.09208 45.9074 1 39.8153 1 32.3307C1 25.0202 6.831 19.0152 14.1415 18.7541C14.0545 18.0578 13.9674 17.2746 13.9674 16.5783C13.9674 7.96238 20.9298 1 29.5458 1C36.6822 1 42.9484 5.9607 44.6019 12.8361C46.4296 11.8787 48.5183 11.4436 50.694 11.4436C57.6564 11.4436 63.4004 16.5783 64.1836 23.5407C70.6238 23.5407 76.0197 28.9366 76.1937 35.4638C76.1937 42.0781 70.8849 47.3869 64.2707 47.3869C62.1819 47.3869 60.1803 46.8647 58.3526 45.8203C56.612 48.3442 53.8271 49.8237 50.781 49.8237C48.4312 49.8237 46.1685 48.9534 44.4279 47.2999C41.7299 50.4329 37.7266 52.2606 33.4621 52.2606ZM20.9298 43.4705C21.0169 43.4705 21.0169 43.4705 21.1039 43.4705C21.1909 43.4705 21.2779 43.5576 21.365 43.7316C23.5407 48.4312 28.3274 51.3903 33.5491 51.3903C37.7266 51.3903 41.6429 49.5626 44.1668 46.2555C44.2538 46.1685 44.3408 46.0814 44.5149 46.0814C44.689 46.0814 44.776 46.0814 44.863 46.2555C46.4296 47.9091 48.6053 48.8664 50.9551 48.8664C53.8271 48.8664 56.438 47.3869 58.0045 44.9501C58.0915 44.776 58.4397 44.689 58.6137 44.776C60.3543 45.9074 62.356 46.4296 64.4447 46.4296C70.5368 46.4296 75.4975 41.4689 75.4975 35.3768C75.3234 29.2847 70.2757 24.324 64.2707 24.324H63.8355C63.5744 24.324 63.4004 24.1499 63.4004 23.8888C62.7912 17.2746 57.3953 12.2268 50.781 12.2268C48.6053 12.2268 46.5166 12.749 44.6019 13.7934C44.5149 13.8804 44.3408 13.8804 44.1668 13.7934C44.0798 13.7064 43.9057 13.6193 43.9057 13.4453C42.5132 6.65694 36.5082 1.69624 29.5458 1.69624C21.452 1.69624 14.8377 8.31051 14.8377 16.4043C14.8377 17.2746 14.9248 18.1449 15.0988 18.9281C15.0988 19.0152 15.0988 19.1892 15.0118 19.2763C14.9248 19.3633 14.8377 19.4503 14.6637 19.4503C7.61427 19.4503 1.8703 25.1943 1.8703 32.1567C1.8703 39.2061 7.61427 44.863 14.5767 44.863C16.6654 44.863 18.7541 44.3408 20.6687 43.3835C20.7558 43.4705 20.8428 43.4705 20.9298 43.4705Z" fill="#F3F6F7" stroke="#F3F6F7" stroke-width="2"/>
</svg>
