<svg width="74" height="52" viewBox="0 0 74 52" fill="none" xmlns="http://www.w3.org/2000/svg">
<path d="M17.4924 51.7165C14.3391 51.7165 11.5175 51.1899 9.76739 49.9359C4.34647 46.0521 3.51249 40.9325 3.19898 39.0088C3.15941 38.7684 3.13506 38.5827 3.09854 38.4579C2.81851 37.4596 1.37882 36.6103 0.897906 36.3912C0.356119 36.1416 0 35.5968 0 35.0002V28.9127C0 28.2522 0.429169 27.6648 1.05922 27.4639C20.6975 21.1724 33.0856 26.3012 35.3623 27.3908H37.6908C39.9644 26.3042 52.3464 21.1724 71.9938 27.4639C72.6208 27.6648 73.05 28.2522 73.05 28.9127V35.0002C73.05 35.6029 72.6939 36.1477 72.146 36.3912C71.6712 36.6073 70.2315 37.4565 69.9514 38.4549C69.918 38.5796 69.8906 38.7653 69.851 39.0058C69.5375 40.9325 68.7035 46.049 63.2856 49.9328C59.6666 52.5322 51.4607 52.0087 45.224 50.155C38.1899 48.0609 36.6224 40.2111 36.5524 39.8489C36.5433 39.8002 36.5341 39.7606 36.5219 39.7241C36.5189 39.7484 36.5128 39.7758 36.5067 39.8032C36.4367 40.1807 34.8753 48.0548 27.829 50.152C24.6057 51.1138 20.8619 51.7165 17.4924 51.7165ZM39.5414 39.2828C39.5687 39.4167 40.8715 45.6868 46.0885 47.2391C52.9521 49.2815 59.4383 48.9436 61.5081 47.4613C65.9002 44.3141 66.5364 40.3968 66.8438 38.5188C66.9077 38.1322 66.9625 37.8309 67.0173 37.633C67.5104 35.8829 69.0109 34.705 70.0062 34.0932V30.0328C50.508 24.131 38.8869 30.188 38.7682 30.252C38.546 30.3707 38.2995 30.4346 38.0469 30.4346H35.0031C34.7535 30.4346 34.5039 30.3707 34.2848 30.255C34.1691 30.1911 22.4477 24.1614 3.04375 30.0328V34.0932C4.03906 34.705 5.53962 35.8798 6.02967 37.633C6.0875 37.8278 6.14229 38.1292 6.20316 38.5157C6.51058 40.3968 7.14672 44.311 11.5389 47.4583C13.6056 48.9375 20.0918 49.2784 26.9585 47.2361C32.209 45.6746 33.4934 39.3406 33.5056 39.2797C33.7643 37.6604 34.9544 36.5282 36.455 36.5069C37.8916 36.5038 39.2278 37.627 39.5414 39.2828Z" fill="#F4E6B3"/>
<path d="M71.5284 30.4346C70.9927 30.4346 70.4722 30.1515 70.1952 29.6493L55.9322 3.79872C55.4817 3.0043 54.6812 3.03474 54.4377 3.06213C54.2033 3.08952 53.415 3.25389 53.1593 4.15484L51.6435 8.13302C51.3453 8.91831 50.4626 9.31095 49.6773 9.00962C48.892 8.70829 48.4993 7.82865 48.8007 7.04336L50.2738 3.18997C50.7456 1.51895 52.2188 0.261885 54.0755 0.0366468C55.9261 -0.194678 57.658 0.681922 58.5863 2.30424L72.8585 28.1731C73.2633 28.9097 72.9954 29.835 72.2619 30.2428C72.0306 30.3737 71.7779 30.4346 71.5284 30.4346Z" fill="#F4E6B3"/>
<path d="M1.52284 30.4346C1.27325 30.4346 1.02062 30.3737 0.789294 30.2459C0.0527062 29.838 -0.215144 28.9127 0.192719 28.1761L14.4557 2.32555C15.3962 0.681924 17.1221 -0.194676 18.9787 0.0396929C20.8354 0.26493 22.3086 1.51896 22.823 3.31781L24.2536 7.04336C24.5549 7.82865 24.1622 8.70829 23.377 9.00962C22.5947 9.30791 21.709 8.91831 21.4076 8.13302L19.9345 4.27964C19.6331 3.25389 18.8479 3.08953 18.6104 3.06214C18.3669 3.03474 17.5725 3.00126 17.1038 3.82003L2.85296 29.6493C2.57902 30.1515 2.05854 30.4346 1.52284 30.4346Z" fill="#F4E6B3"/>
<path d="M10.8788 39.3041C10.1666 39.3041 9.53044 38.8018 9.38738 38.0774C9.24128 37.3317 9.16519 36.4521 9.16215 35.4628C9.15302 33.2105 10.8149 31.2777 13.0308 30.9703C13.8556 30.8394 14.6318 31.4329 14.7474 32.2669C14.8631 33.1009 14.2848 33.8679 13.4508 33.9836C12.7507 34.081 12.2029 34.7263 12.2059 35.4507C12.2089 36.239 12.2668 36.9452 12.3763 37.49C12.5377 38.3148 12.002 39.1153 11.1771 39.2767C11.0767 39.2949 10.9762 39.3041 10.8788 39.3041Z" fill="#F4E6B3"/>
<path d="M44.3711 39.5476C43.6588 39.5476 43.0227 39.0453 42.8796 38.3209C42.6787 37.2921 42.5966 36.2694 42.6514 35.3685C42.7731 33.317 44.2645 31.6034 46.2825 31.2016C47.1074 31.0342 47.9079 31.576 48.0723 32.4008C48.2336 33.2257 47.6979 34.0262 46.873 34.1906C46.2156 34.3184 45.7286 34.8784 45.689 35.5481C45.6494 36.1873 45.7134 36.9634 45.8656 37.7304C46.0269 38.5553 45.4912 39.3558 44.6663 39.5202C44.5689 39.5384 44.4685 39.5476 44.3711 39.5476Z" fill="#F4E6B3"/>
</svg>
