<?xml version="1.0" encoding="UTF-8"?>
<svg id="Lager_1" data-name="Lager 1" xmlns="http://www.w3.org/2000/svg" viewBox="0 0 16 11.5">
  <defs>
    <style>
      .cls-1 {
        stroke-width: 0px;
      }
    </style>
  </defs>
  <path class="cls-1" d="M7.65.15c.2-.2.51-.2.71,0,0,0,0,0,0,0l1.5,1.5c.2.2.2.51,0,.71-.2.2-.51.2-.71,0l-.65-.65v1.79c0,.28-.22.5-.5.5s-.5-.22-.5-.5v-1.79l-.65.65c-.2.2-.51.2-.71,0-.2-.2-.2-.51,0-.71,0,0,1.5-1.5,1.5-1.5ZM2.34,3.34c.2-.2.51-.2.71,0l1.41,1.41c.19.2.19.52-.01.71-.19.19-.5.19-.69,0l-1.41-1.41c-.2-.2-.2-.51,0-.71ZM13.66,3.34c.2.2.2.51,0,.71l-1.41,1.41c-.19.2-.51.2-.71.01s-.2-.51-.01-.71c0,0,0,0,.01-.01l1.41-1.41c.2-.2.51-.2.71,0ZM8,6c1.66,0,3,1.34,3,3,0,.53-.14,1.04-.4,1.5h-5.2c-.83-1.43-.34-3.27,1.1-4.1.46-.26.97-.4,1.5-.4ZM11.71,10.5c.83-2.05-.16-4.38-2.21-5.21-2.05-.83-4.38.16-5.21,2.21-.39.96-.39,2.03,0,3H.5c-.28,0-.5.22-.5.5s.22.5.5.5h15c.28,0,.5-.22.5-.5s-.22-.5-.5-.5h-3.79,0ZM0,9c0-.28.22-.5.5-.5h2c.28,0,.5.22.5.5s-.22.5-.5.5H.5C.22,9.5,0,9.28,0,9ZM13,9c0-.28.22-.5.5-.5h2c.28,0,.5.22.5.5s-.22.5-.5.5h-2c-.28,0-.5-.22-.5-.5Z"/>
</svg>