<svg id="svg4197" xmlns="http://www.w3.org/2000/svg" viewBox="0 0 57 57"><defs><style>.cls-1{fill:#fff;}</style></defs><title>Artboard 2 copy 9</title><path id="path22" class="cls-1" d="M30.32,38.52a9.94,9.94,0,1,1,9.93-9.94,10,10,0,0,1-9.93,9.94m0-21.28A11.34,11.34,0,1,0,41.66,28.58,11.35,11.35,0,0,0,30.32,17.24"/><path id="path26" class="cls-1" d="M30.32,13.92a.71.71,0,0,0,.7-.71V7.61a.71.71,0,0,0-1.41,0v5.6a.71.71,0,0,0,.71.71"/><path id="path30" class="cls-1" d="M30.32,43.08a.71.71,0,0,0-.71.71v5.6a.71.71,0,0,0,1.41,0v-5.6a.71.71,0,0,0-.7-.71"/><path id="path34" class="cls-1" d="M38,16.1a.75.75,0,0,0,.37.11.69.69,0,0,0,.6-.34l2.95-4.76a.71.71,0,0,0-.23-1,.7.7,0,0,0-1,.23l-2.95,4.77a.69.69,0,0,0,.22,1"/><path id="path38" class="cls-1" d="M22.64,40.9a.7.7,0,0,0-1,.23l-3,4.76a.7.7,0,0,0,1.2.74l2.95-4.77a.7.7,0,0,0-.23-1"/><path id="path42" class="cls-1" d="M43.8,22a.68.68,0,0,0,.33-.09l4.94-2.65A.7.7,0,1,0,48.41,18l-4.94,2.65a.69.69,0,0,0-.29.95.71.71,0,0,0,.62.37"/><path id="path46" class="cls-1" d="M16.5,35.12l-4.95,2.65a.71.71,0,0,0-.29.95.7.7,0,0,0,.62.37.8.8,0,0,0,.33-.08l4.95-2.65a.7.7,0,0,0-.66-1.24"/><path id="path50" class="cls-1" d="M51.22,27.76h0l-5.61,0a.7.7,0,0,0,0,1.4h0l5.61,0a.7.7,0,1,0,0-1.4"/><path id="path54" class="cls-1" d="M15.72,28.56a.7.7,0,0,0-.7-.7h0l-5.61,0a.7.7,0,0,0,0,1.4H15a.7.7,0,0,0,.7-.71"/><path id="path58" class="cls-1" d="M49,37.91l-4.93-2.69a.7.7,0,1,0-.67,1.23l4.92,2.69a.69.69,0,0,0,1-.28.7.7,0,0,0-.27-1"/><path id="path62" class="cls-1" d="M17.23,20.54l-4.92-2.69a.7.7,0,1,0-.68,1.23l4.93,2.69a.66.66,0,0,0,.33.09.7.7,0,0,0,.34-1.32"/><path id="path66" class="cls-1" d="M39,41.1a.7.7,0,1,0-1.18.74l3,4.76a.7.7,0,0,0,.59.33.67.67,0,0,0,.38-.11.71.71,0,0,0,.22-1L39,41.1Z"/><path id="path70" class="cls-1" d="M21.61,15.9a.7.7,0,0,0,.6.33.75.75,0,0,0,.37-.11.7.7,0,0,0,.22-1l-3-4.76a.71.71,0,0,0-1-.22.7.7,0,0,0-.22,1Z"/></svg>