<svg id="svg4197" xmlns="http://www.w3.org/2000/svg" viewBox="0 0 57 57"><defs><style>.cls-1{fill:#fff;}</style></defs><title>Artboard 2 copy 14</title><path id="path114" class="cls-1" d="M28,44.18a.56.56,0,0,0-.75.24l-2,3.95a.56.56,0,0,0,.24.75.61.61,0,0,0,.25.06.57.57,0,0,0,.5-.31l2-3.95a.55.55,0,0,0-.24-.74"/><path id="path118" class="cls-1" d="M35,44.18a.55.55,0,0,0-.74.24l-2,3.95a.55.55,0,0,0,.25.75.54.54,0,0,0,.25.06.55.55,0,0,0,.49-.31l2-3.95a.54.54,0,0,0-.25-.74"/><path id="path122" class="cls-1" d="M42.1,44.18a.56.56,0,0,0-.75.24l-2,3.95a.56.56,0,0,0,.24.75.57.57,0,0,0,.25.06.57.57,0,0,0,.5-.31l2-3.95a.55.55,0,0,0-.24-.74"/><path id="path130" class="cls-1" d="M24.92,40.32H44.4A5.66,5.66,0,1,0,44.4,29a5.89,5.89,0,0,0-1.36.17.53.53,0,0,1-.44-.08.53.53,0,0,1-.25-.37A8.22,8.22,0,0,0,26,30q0,.33,0,.66a.55.55,0,0,1-.61.6,4.19,4.19,0,0,0-.5,0,4.54,4.54,0,0,0,0,9.08m0-10.19V30a9.34,9.34,0,0,1,18.45-2,6.39,6.39,0,0,1,1.06-.08,6.77,6.77,0,1,1,0,13.53H24.92a5.65,5.65,0,0,1,0-11.3"/><path id="path134" class="cls-1" d="M13.86,24.52a9,9,0,0,1,9-9,8.45,8.45,0,0,1,7.32,3.82.56.56,0,0,1-.93.61,7.35,7.35,0,0,0-6.39-3.32,7.87,7.87,0,0,0-4.26,14.48.55.55,0,0,1-.29,1,.53.53,0,0,1-.3-.09,8.94,8.94,0,0,1-4.12-7.55"/><path id="path138" class="cls-1" d="M22.72,12.8a.56.56,0,0,1-.56-.56V7.81a.56.56,0,1,1,1.11,0v4.43a.56.56,0,0,1-.55.56"/><path id="path142" class="cls-1" d="M16.64,14.53a.6.6,0,0,1-.29.08.56.56,0,0,1-.48-.26l-2.33-3.77a.56.56,0,0,1,.18-.77.55.55,0,0,1,.76.18l2.34,3.77a.56.56,0,0,1-.18.77"/><path id="path146" class="cls-1" d="M12.05,19.2a.66.66,0,0,1-.27-.06L7.87,17a.55.55,0,1,1,.52-1l3.92,2.1a.55.55,0,0,1-.26,1"/><path id="path150" class="cls-1" d="M6.17,23.76h4.44a.56.56,0,1,1,0,1.11H6.17a.56.56,0,0,1,0-1.11"/><path id="path154" class="cls-1" d="M7.92,31.79l3.9-2.13a.56.56,0,0,1,.76.22.58.58,0,0,1-.22.76l-3.9,2.12a.54.54,0,0,1-.27.07.55.55,0,0,1-.27-1"/><path id="path158" class="cls-1" d="M37.51,16.89,33.61,19a.68.68,0,0,1-.27.07.59.59,0,0,1-.49-.29.57.57,0,0,1,.23-.76L37,15.91a.56.56,0,0,1,.54,1"/><path id="path162" class="cls-1" d="M15.82,34.31a.55.55,0,0,1,.77-.17.54.54,0,0,1,.17.76l-2.35,3.77a.55.55,0,0,1-.47.26.6.6,0,0,1-.29-.08.56.56,0,0,1-.18-.77Z"/><path id="path166" class="cls-1" d="M29.6,14.37a.56.56,0,0,1-.47.26.52.52,0,0,1-.29-.09.55.55,0,0,1-.18-.76L31,10a.55.55,0,1,1,.94.59L29.6,14.37Z"/></svg>