<svg id="svg4197" xmlns="http://www.w3.org/2000/svg" viewBox="0 0 57 57"><defs><style>.cls-1{fill:#fff;}</style></defs><title>Artboard 2 copy 15</title><path id="path4253" class="cls-1" d="M24.24,12.15a1.72,1.72,0,0,0-1,.32,1.5,1.5,0,0,0-.56.81v0l-4,16.5v0a1.52,1.52,0,0,0,.5,1.44,1.69,1.69,0,0,0,1.06.41,1.6,1.6,0,0,0,.41-.07h0l7-1.72L24,44.9v0a1.56,1.56,0,0,0,.16,1.12,1.62,1.62,0,0,0,.91.69h.09a1.68,1.68,0,0,0,.41.06A1.7,1.7,0,0,0,27,45.94v0L37.78,22.78a1.62,1.62,0,0,0-.22-1.53s0-.09,0-.13l-.25.19.21-.22a1.66,1.66,0,0,0-1.15-.5,1.61,1.61,0,0,0-.41.06l-6.65,1.66,2.93-8,0-.06a1.3,1.3,0,0,0,.16-.59,1.56,1.56,0,0,0-.47-1.1,1.66,1.66,0,0,0-1.12-.44Zm0,1.38h6.57c.1,0,.1,0,.15.06s0,.05,0,.1,0,0,0,0v.06l0,0-3.41,9.25-.46,1.22L28.34,24,36.27,22c.09,0,.13,0,.07,0a.19.19,0,0,1,.15.06s0,0,0,0,.08,0,0,.1L25.74,45.28l0,0c0,.08,0,.09-.19.09h-.09a.1.1,0,0,1-.06,0,.33.33,0,0,1,0-.06s-.05,0,0-.06l3.93-16.16L29.52,28l-1.12.28-8.09,2h0c.07,0,0,0-.06,0a.16.16,0,0,1-.15-.06c-.06,0,0,0,0-.07v0l4-16.43v0s0,0,.07-.06a.21.21,0,0,1,.15-.06Z"/></svg>