<svg id="svg4197" xmlns="http://www.w3.org/2000/svg" viewBox="0 0 57 57"><defs><style>.cls-1{fill:#fff;}</style></defs><title>Artboard 2 copy 16</title><path id="path506" class="cls-1" d="M19.06,31.84H41.23a3.17,3.17,0,0,1,.44,0v0a6.57,6.57,0,1,0,0-13.13,6.77,6.77,0,0,0-1.58.2.62.62,0,0,1-.51-.09.66.66,0,0,1-.28-.43,9.55,9.55,0,0,0-19,1.49c0,.26,0,.51,0,.77a.65.65,0,0,1-.71.69,5.83,5.83,0,0,0-.59,0,5.27,5.27,0,0,0,0,10.53M19,20v-.14a10.84,10.84,0,0,1,21.42-2.36,8.48,8.48,0,0,1,1.22-.1,7.86,7.86,0,1,1,0,15.71H19.06A6.56,6.56,0,0,1,19,20"/><path id="path3162" class="cls-1" d="M19.6,36.29a.68.68,0,0,0-.67.67v1h-1a.67.67,0,0,0,0,1.33h1v1a.67.67,0,1,0,1.33,0v-1h1a.68.68,0,0,0,.67-.67.67.67,0,0,0-.67-.66h-1V37a.67.67,0,0,0-.66-.67"/><path id="path3164" class="cls-1" d="M29.6,36.29a.68.68,0,0,0-.67.67v1h-1a.67.67,0,0,0,0,1.33h1v1a.67.67,0,1,0,1.33,0v-1h1a.68.68,0,0,0,.67-.67.67.67,0,0,0-.67-.66h-1V37a.67.67,0,0,0-.66-.67"/><path id="path3166" class="cls-1" d="M39.6,36.29a.68.68,0,0,0-.67.67v1h-1a.67.67,0,0,0,0,1.33h1v1a.67.67,0,1,0,1.33,0v-1h1a.68.68,0,0,0,.67-.67.67.67,0,0,0-.67-.66h-1V37a.67.67,0,0,0-.66-.67"/><path id="path3168" class="cls-1" d="M15.6,43.29a.68.68,0,0,0-.67.67v1h-1a.67.67,0,0,0,0,1.33h1v1a.67.67,0,1,0,1.33,0v-1h1a.68.68,0,0,0,.67-.67.67.67,0,0,0-.67-.66h-1V44a.67.67,0,0,0-.66-.67"/><path id="path3170" class="cls-1" d="M25.6,43.29a.68.68,0,0,0-.67.67v1h-1a.67.67,0,0,0,0,1.33h1v1a.67.67,0,1,0,1.33,0v-1h1a.68.68,0,0,0,.67-.67.67.67,0,0,0-.67-.66h-1V44a.67.67,0,0,0-.66-.67"/><path id="path3172" class="cls-1" d="M35.6,43.29a.68.68,0,0,0-.67.67v1h-1a.67.67,0,0,0,0,1.33h1v1a.67.67,0,1,0,1.33,0v-1h1a.68.68,0,0,0,.67-.67.67.67,0,0,0-.67-.66h-1V44a.67.67,0,0,0-.66-.67"/></svg>