<svg xmlns="http://www.w3.org/2000/svg" width="77.194" height="53.261" viewBox="0 0 77.194 53.261">
  <g id="noun_Cloud_1188486" transform="translate(-5.8 -20.6)">
    <g id="Group_8" data-name="Group 8" transform="translate(6.8 21.6)">
      <path id="Path_13" data-name="Path 13" d="M39.262,72.861a14.468,14.468,0,0,1-12.793-7.746,13.6,13.6,0,1,1-6.527-25.761,18.322,18.322,0,0,1-.174-2.176A15.541,15.541,0,0,1,50.4,33.436a13.065,13.065,0,0,1,6.092-1.392,13.5,13.5,0,0,1,13.49,12.1,12.248,12.248,0,0,1,12.01,11.923A11.931,11.931,0,0,1,64.153,66.42,9.2,9.2,0,0,1,50.228,67.9,14.45,14.45,0,0,1,39.262,72.861ZM26.73,64.071H26.9q.131,0,.261.261A13.378,13.378,0,0,0,39.349,71.99a13.234,13.234,0,0,0,10.618-5.135.452.452,0,0,1,.348-.174c.174,0,.261,0,.348.174A8.351,8.351,0,0,0,63.8,65.55a.538.538,0,0,1,.609-.174,10.569,10.569,0,0,0,5.831,1.654A11.068,11.068,0,0,0,81.3,55.977,11.393,11.393,0,0,0,70.071,44.924h-.435a.411.411,0,0,1-.435-.435,12.726,12.726,0,0,0-18.8-10.1.388.388,0,0,1-.435,0c-.087-.087-.261-.174-.261-.348A14.682,14.682,0,0,0,20.638,37a11.815,11.815,0,0,0,.261,2.524.523.523,0,0,1-.087.348.452.452,0,0,1-.348.174,12.706,12.706,0,1,0-.087,25.413,13.669,13.669,0,0,0,6.092-1.48A.32.32,0,0,0,26.73,64.071Z" transform="translate(-6.8 -21.6)" fill="#f47775" stroke="#f47775" stroke-width="2"/>
    </g>
  </g>
</svg>
