<?xml version="1.0" ?><!DOCTYPE svg  PUBLIC '-//W3C//DTD SVG 1.1//EN'  'http://www.w3.org/Graphics/SVG/1.1/DTD/svg11.dtd'><svg enable-background="new 0 0 64 64" height="64px" id="Layer_1" version="1.1" viewBox="0 0 64 64" width="64px" xml:space="preserve" xmlns="http://www.w3.org/2000/svg" xmlns:xlink="http://www.w3.org/1999/xlink"><g><g><path d="    M54.664,45.283c4.627,0,8.375-3.413,8.375-7.626c0-3.807-3.066-6.963-7.07-7.533l0,0c0-6.658-5.736-12.823-12.096-12.823    c-0.203,0,0.201-0.011,0,0c-3.365,0.185-6.35,1.883-8.34,4.456" fill="none" stroke="white" stroke-linecap="round" stroke-linejoin="round" stroke-miterlimit="10" stroke-width="2"/><path d="    M43.873,17.301C43.117,9.185,36.049,2.825,27.44,2.825c-9.114,0-16.5,7.128-16.5,15.923c0,0.853,0.069,1.69,0.203,2.507l0,0    c-5.73,0.688-10.181,5.789-10.181,11.975c0,6.656,5.153,12.054,11.51,12.054h3.995" fill="none" stroke="white" stroke-linecap="round" stroke-linejoin="round" stroke-miterlimit="10" stroke-width="2"/></g><polygon fill="none" points="   39.441,41.896 42.623,41.896 37.707,54.583 37.681,45.545 32.79,45.545 36.28,35.762 41.632,35.762  " stroke="white" stroke-linecap="round" stroke-linejoin="round" stroke-miterlimit="10" stroke-width="2"/><polygon fill="none" points="   25.768,48.485 28.949,48.485 24.032,61.175 24.007,52.136 19.115,52.136 22.606,42.353 27.957,42.353  " stroke="white" stroke-linecap="round" stroke-linejoin="round" stroke-miterlimit="10" stroke-width="2"/><line fill="none" stroke="white" stroke-linecap="round" stroke-linejoin="round" stroke-miterlimit="10" stroke-width="2" x1="46.713" x2="54.105" y1="45.283" y2="45.283"/></g></svg>