<svg width="30" height="30" viewBox="0 0 30 30" fill="none" xmlns="http://www.w3.org/2000/svg">
<path d="M4.37109 14.62C4.37109 14.38 4.45109 14.17 4.62109 14C4.79109 13.84 5.00109 13.76 5.22109 13.76H7.26109C7.49109 13.76 7.68109 13.84 7.84109 14.01C7.99109 14.18 8.07109 14.38 8.07109 14.62C8.07109 14.86 8.00109 15.06 7.85109 15.23C7.70109 15.4 7.50109 15.48 7.27109 15.48H5.23109C5.00109 15.48 4.80109 15.4 4.63109 15.23C4.46109 15.06 4.37109 14.86 4.37109 14.62ZM7.23109 21.55C7.23109 21.32 7.31109 21.12 7.46109 20.94L8.93109 19.51C9.08109 19.35 9.28109 19.28 9.52109 19.28C9.76109 19.28 9.96109 19.36 10.1211 19.51C10.2811 19.66 10.3611 19.85 10.3611 20.08C10.3611 20.32 10.2811 20.54 10.1211 20.72L8.70109 22.14C8.29109 22.46 7.88109 22.46 7.47109 22.14C7.31109 21.98 7.23109 21.78 7.23109 21.55ZM7.23109 7.71C7.23109 7.48 7.31109 7.28 7.46109 7.1C7.66109 6.93 7.87109 6.85 8.10109 6.85C8.32109 6.85 8.52109 6.93 8.69109 7.09L10.1211 8.56C10.2811 8.71 10.3611 8.91 10.3611 9.15C10.3611 9.39 10.2811 9.59 10.1211 9.75C9.96109 9.91 9.76109 9.99 9.52109 9.99C9.28109 9.99 9.08109 9.91 8.93109 9.75L7.47109 8.32C7.31109 8.16 7.23109 7.95 7.23109 7.71ZM9.78109 14.62C9.78109 13.69 10.0111 12.82 10.4811 12.02C10.9511 11.22 11.5811 10.58 12.3911 10.11C13.2011 9.64 14.0611 9.41 14.9911 9.41C15.6911 9.41 16.3611 9.55 17.0111 9.83C17.6511 10.11 18.2111 10.48 18.6711 10.95C19.1411 11.42 19.5111 11.97 19.7811 12.61C20.0511 13.25 20.1911 13.93 20.1911 14.63C20.1911 15.57 19.9611 16.44 19.4911 17.24C19.0211 18.04 18.3911 18.67 17.5911 19.14C16.7911 19.61 15.9211 19.84 14.9811 19.84C14.0411 19.84 13.1711 19.61 12.3711 19.14C11.5711 18.67 10.9411 18.04 10.4711 17.24C10.0211 16.43 9.78109 15.56 9.78109 14.62ZM11.4811 14.62C11.4811 15.6 11.8211 16.43 12.5111 17.12C13.1911 17.81 14.0211 18.16 15.0011 18.16C15.9811 18.16 16.8111 17.81 17.5011 17.12C18.1911 16.43 18.5411 15.6 18.5411 14.62C18.5411 13.66 18.1911 12.84 17.5011 12.15C16.8111 11.47 15.9811 11.13 15.0011 11.13C14.0311 11.13 13.2011 11.47 12.5211 12.15C11.8211 12.84 11.4811 13.66 11.4811 14.62ZM14.1411 22.4C14.1411 22.16 14.2211 21.96 14.3911 21.8C14.5611 21.64 14.7611 21.56 14.9911 21.56C15.2311 21.56 15.4411 21.64 15.6011 21.8C15.7611 21.96 15.8411 22.16 15.8411 22.4V24.39C15.8411 24.63 15.7611 24.84 15.5911 25.01C15.4211 25.18 15.2211 25.26 14.9911 25.26C14.7611 25.26 14.5511 25.18 14.3911 25.01C14.2211 24.84 14.1411 24.63 14.1411 24.39V22.4ZM14.1411 6.9V4.86C14.1411 4.63 14.2211 4.43 14.3911 4.26C14.5611 4.09 14.7611 4 15.0011 4C15.2411 4 15.4311 4.08 15.6011 4.25C15.7711 4.42 15.8511 4.62 15.8511 4.85V6.9C15.8511 7.13 15.7711 7.32 15.6011 7.48C15.4311 7.64 15.2311 7.71 15.0011 7.71C14.7711 7.71 14.5611 7.63 14.4011 7.48C14.2411 7.33 14.1411 7.13 14.1411 6.9ZM19.6611 20.08C19.6611 19.85 19.7411 19.66 19.8911 19.52C20.0411 19.36 20.2311 19.29 20.4511 19.29C20.6911 19.29 20.8911 19.37 21.0511 19.52L22.5111 20.95C22.6711 21.12 22.7511 21.33 22.7511 21.56C22.7511 21.79 22.6711 21.99 22.5111 22.15C22.1111 22.46 21.7111 22.46 21.3111 22.15L19.8911 20.73C19.7411 20.55 19.6611 20.34 19.6611 20.08ZM19.6611 9.16C19.6611 8.91 19.7411 8.71 19.8911 8.57L21.3111 7.1C21.4811 6.94 21.6811 6.86 21.9011 6.86C22.1411 6.86 22.3411 6.94 22.5011 7.11C22.6711 7.28 22.7511 7.48 22.7511 7.71C22.7511 7.96 22.6711 8.17 22.5111 8.33L21.0511 9.76C20.8711 9.92 20.6711 10 20.4511 10C20.2211 10 20.0411 9.92 19.8911 9.76C19.7411 9.6 19.6611 9.4 19.6611 9.16ZM21.9211 14.62C21.9211 14.38 22.0011 14.18 22.1611 14C22.3211 13.84 22.5111 13.76 22.7311 13.76H24.7511C24.9811 13.76 25.1811 13.85 25.3511 14.02C25.5211 14.19 25.6111 14.39 25.6111 14.62C25.6111 14.85 25.5211 15.05 25.3511 15.22C25.1811 15.39 24.9811 15.47 24.7511 15.47H22.7311C22.5011 15.47 22.3011 15.39 22.1511 15.22C22.0011 15.05 21.9211 14.86 21.9211 14.62Z" fill="white"/>
</svg>
