<svg width="30" height="30" viewBox="0 0 30 30" fill="none" xmlns="http://www.w3.org/2000/svg">
<path d="M3.89062 17.5999C3.89062 16.6099 4.20063 15.7199 4.82063 14.9499C5.44063 14.1799 6.23062 13.6799 7.20062 13.4599C7.46062 12.2899 8.05062 11.3199 8.98062 10.5799C9.91062 9.82994 10.9806 9.45994 12.2006 9.45994C13.3806 9.45994 14.4406 9.81994 15.3606 10.5499C16.2906 11.2799 16.8906 12.2099 17.1606 13.3499H17.4306C18.6106 13.3499 19.6106 13.7599 20.4406 14.5899C21.2706 15.4199 21.6906 16.4199 21.6906 17.5899C21.6906 18.7699 21.2706 19.7699 20.4406 20.5999C19.6106 21.4299 18.6106 21.8499 17.4306 21.8499H8.16062C7.58062 21.8499 7.03063 21.7399 6.51063 21.5099C5.99063 21.2799 5.52062 20.9999 5.14062 20.6199C4.76062 20.2399 4.46062 19.7799 4.23062 19.2599C4.00062 18.7399 3.89062 18.1699 3.89062 17.5999ZM5.34063 17.5999C5.34063 18.3599 5.62062 19.0199 6.16062 19.5599C6.70062 20.0999 7.37062 20.3799 8.15062 20.3799H17.4306C18.2006 20.3799 18.8706 20.1099 19.4206 19.5599C19.9706 19.0099 20.2506 18.3599 20.2506 17.5999C20.2506 16.8399 19.9806 16.1799 19.4206 15.6399C18.8706 15.0999 18.2106 14.8199 17.4306 14.8199H16.0406C15.9406 14.8199 15.8906 14.7699 15.8906 14.6699L15.8206 14.1799C15.7206 13.2399 15.3206 12.4499 14.6306 11.8299C13.9406 11.2099 13.1206 10.8999 12.1806 10.8999C11.2406 10.8999 10.4206 11.2099 9.72062 11.8399C9.02062 12.4599 8.63062 13.2499 8.54062 14.1799L8.47062 14.5999C8.47062 14.6999 8.42063 14.7499 8.31063 14.7499L7.86063 14.8199C7.14062 14.8799 6.54063 15.1799 6.05063 15.7099C5.59063 16.2399 5.34063 16.8699 5.34063 17.5999ZM14.1906 8.87994C14.0906 8.96994 14.1106 9.03994 14.2606 9.08994C14.6906 9.27994 15.0506 9.45994 15.3406 9.63994C15.4506 9.66994 15.5306 9.65994 15.5606 9.60994C16.1706 9.03994 16.8706 8.74994 17.6806 8.74994C18.4906 8.74994 19.1806 9.01994 19.7806 9.55994C20.3706 10.0999 20.7006 10.7699 20.7706 11.5599L20.8606 12.1999H22.2806C22.9306 12.1999 23.4906 12.4299 23.9606 12.8999C24.4306 13.3699 24.6606 13.9199 24.6606 14.5599C24.6606 15.1599 24.4506 15.6799 24.0406 16.1299C23.6306 16.5799 23.1206 16.8299 22.5106 16.8999C22.4106 16.8999 22.3606 16.9499 22.3606 17.0599V18.1899C22.3606 18.2999 22.4106 18.3499 22.5106 18.3499C23.5206 18.2899 24.3706 17.8899 25.0606 17.1599C25.7506 16.4299 26.1006 15.5599 26.1006 14.5599C26.1006 13.4999 25.7306 12.5999 24.9806 11.8599C24.2306 11.1099 23.3306 10.7399 22.2806 10.7399H22.1306C21.8706 9.73994 21.3206 8.91994 20.4806 8.26994C19.6506 7.61994 18.7106 7.29994 17.6806 7.29994C16.2806 7.28994 15.1106 7.81994 14.1906 8.87994Z" fill="white"/>
</svg>
