<svg width="30" height="30" viewBox="0 0 30 30" fill="none" xmlns="http://www.w3.org/2000/svg">
<path d="M1.48047 16.9502C1.48047 18.2702 1.94047 19.4102 2.85047 20.3502C3.76047 21.2902 4.89047 21.8002 6.23047 21.8602C6.35047 21.8602 6.41047 21.8002 6.41047 21.6902V20.3602C6.41047 20.2402 6.35047 20.1802 6.23047 20.1802C5.37047 20.1402 4.65047 19.8002 4.06047 19.1802C3.47047 18.5602 3.18047 17.8102 3.18047 16.9402C3.18047 16.1002 3.46047 15.3602 4.02047 14.7502C4.58047 14.1302 5.28047 13.7902 6.12047 13.7202L6.65047 13.6402C6.76047 13.6402 6.81047 13.5902 6.81047 13.5002L6.89047 12.9502C7.01047 11.8602 7.48047 10.9502 8.27047 10.2302C9.06047 9.51016 10.0005 9.16016 11.1005 9.16016C12.2005 9.16016 13.1505 9.52016 13.9605 10.2402C14.7805 10.9602 15.2405 11.8602 15.3405 12.9302L15.4105 13.5102C15.4305 13.6202 15.5105 13.6802 15.6305 13.6802H17.2305C18.1205 13.6802 18.8805 14.0002 19.5205 14.6402C20.1605 15.2802 20.4805 16.0502 20.4805 16.9502C20.4805 17.8202 20.1905 18.5602 19.6005 19.1902C19.0105 19.8202 18.2905 20.1402 17.4305 20.1902C17.3005 20.1902 17.2305 20.2502 17.2305 20.3702V21.7002C17.2305 21.8102 17.3005 21.8702 17.4305 21.8702C18.7605 21.8302 19.8805 21.3302 20.8005 20.3802C21.7105 19.4302 22.1705 18.2902 22.1705 16.9602C22.1705 16.2802 22.0405 15.6202 21.7905 14.9502C22.5705 13.9902 22.9505 12.8702 22.9505 11.6002C22.9505 10.8902 22.8105 10.2202 22.5405 9.57016C22.2705 8.92016 21.8905 8.37016 21.4205 7.90016C20.9505 7.43016 20.3905 7.06016 19.7505 6.78016C19.1105 6.50016 18.4205 6.36016 17.7105 6.36016C16.1705 6.36016 14.8805 6.94016 13.8505 8.10016C12.9605 7.66016 12.0405 7.44016 11.1105 7.44016C9.70047 7.44016 8.45047 7.88016 7.37047 8.75016C6.29047 9.62016 5.60047 10.7502 5.29047 12.1302C4.17047 12.3902 3.25047 12.9602 2.54047 13.8602C1.83047 14.7602 1.48047 15.7902 1.48047 16.9502ZM6.83047 23.9802C6.83047 24.1502 6.88047 24.3202 6.99047 24.4902C7.10047 24.6602 7.26047 24.7702 7.46047 24.8402C7.69047 24.9102 7.91047 24.9002 8.10047 24.8002C8.30047 24.7102 8.43047 24.5202 8.50047 24.2402L8.64047 23.6302C8.69047 23.4002 8.66047 23.1902 8.54047 23.0002C8.42047 22.8002 8.25047 22.6702 8.02047 22.6002C7.79047 22.5302 7.58047 22.5602 7.38047 22.6802C7.18047 22.8002 7.06047 22.9702 7.00047 23.2002L6.86047 23.7902C6.84047 23.8502 6.83047 23.9102 6.83047 23.9802ZM7.60047 21.0802C7.60047 21.3002 7.68047 21.4902 7.84047 21.6502C8.00047 21.8302 8.19047 21.9102 8.40047 21.9102C8.64047 21.9102 8.84047 21.8302 9.00047 21.6702C9.17047 21.5102 9.25047 21.3202 9.25047 21.0802C9.25047 20.8502 9.17047 20.6502 9.00047 20.4902C8.83047 20.3302 8.63047 20.2502 8.40047 20.2502C8.17047 20.2502 7.98047 20.3302 7.82047 20.4802C7.66047 20.6302 7.60047 20.8502 7.60047 21.0802ZM8.21047 18.8102C8.20047 18.9702 8.24047 19.1202 8.34047 19.2602C8.44047 19.4102 8.60047 19.5102 8.82047 19.5802C9.03047 19.6402 9.23047 19.6202 9.44047 19.5102C9.65047 19.4002 9.79047 19.2302 9.86047 19.0002L10.1305 18.1002C10.2005 17.8602 10.1805 17.6402 10.0605 17.4502C9.94047 17.2602 9.76047 17.1302 9.52047 17.0602C9.30047 16.9902 9.09047 17.0102 8.89047 17.1302C8.69047 17.2402 8.55047 17.4102 8.48047 17.6302L8.24047 18.5502C8.22047 18.7102 8.21047 18.8002 8.21047 18.8102ZM9.36047 27.1002C9.36047 27.2702 9.41047 27.4302 9.52047 27.5902C9.63047 27.7502 9.79047 27.8602 10.0105 27.9202C10.1005 27.9402 10.1805 27.9502 10.2505 27.9502C10.6805 27.9502 10.9505 27.7502 11.0505 27.3402L11.1805 26.7502C11.2405 26.4902 11.2105 26.2702 11.1005 26.0702C10.9905 25.8702 10.8105 25.7502 10.5805 25.7002C10.3705 25.6302 10.1605 25.6502 9.95047 25.7702C9.74047 25.8902 9.61047 26.0602 9.54047 26.2802L9.40047 26.8802C9.37047 26.9902 9.36047 27.0702 9.36047 27.1002ZM9.92047 4.66016C9.92047 4.90016 10.0005 5.10016 10.1605 5.26016L10.8205 5.90016C10.9605 6.06016 11.1405 6.14016 11.3605 6.16016C11.5805 6.18016 11.7905 6.09016 11.9805 5.90016C12.1405 5.74016 12.2205 5.54016 12.2205 5.31016C12.2205 5.07016 12.1405 4.87016 11.9805 4.71016L11.3505 4.06016C11.2005 3.90016 11.0005 3.82016 10.7705 3.80016C10.5405 3.80016 10.3405 3.88016 10.1705 4.05016C10.0105 4.22016 9.92047 4.42016 9.92047 4.66016ZM10.1505 24.2002C10.1505 24.4302 10.2305 24.6202 10.3905 24.7802C10.5505 24.9402 10.7505 25.0202 10.9705 25.0202C11.2105 25.0202 11.4005 24.9402 11.5605 24.7902C11.7205 24.6302 11.7905 24.4402 11.7905 24.2002C11.7905 23.9702 11.7105 23.7802 11.5605 23.6202C11.4005 23.4602 11.2105 23.3902 10.9705 23.3902C10.7305 23.3902 10.5405 23.4702 10.3805 23.6202C10.2205 23.7702 10.1505 23.9702 10.1505 24.2002ZM10.7705 21.9302C10.7605 22.0802 10.8005 22.2402 10.9105 22.4002C11.0105 22.5602 11.1605 22.6602 11.3605 22.7002C11.5905 22.7602 11.8005 22.7402 12.0005 22.6402C12.2005 22.5402 12.3305 22.3502 12.4105 22.0802L12.6705 21.1802C12.7405 20.9602 12.7205 20.7502 12.6005 20.5502C12.4805 20.3502 12.3105 20.2202 12.0705 20.1502C11.8505 20.0802 11.6405 20.1102 11.4305 20.2302C11.2205 20.3502 11.0905 20.5302 11.0205 20.7602L10.8005 21.6602C10.7805 21.7402 10.7705 21.8302 10.7705 21.9302ZM13.5305 24.0802C13.5305 24.2502 13.5805 24.4102 13.6805 24.5602C13.7805 24.7102 13.9305 24.8202 14.1405 24.8802C14.1705 24.8802 14.2205 24.8902 14.2805 24.9002C14.3405 24.9102 14.3905 24.9202 14.4205 24.9202C14.8305 24.9202 15.0805 24.7002 15.1805 24.2602L15.3205 23.6602C15.3905 23.4502 15.3705 23.2402 15.2505 23.0302C15.1305 22.8202 14.9605 22.6902 14.7405 22.6202C14.4905 22.5602 14.2605 22.5802 14.0605 22.7002C13.8605 22.8202 13.7205 22.9902 13.6505 23.2302L13.5605 23.8202C13.5605 23.8302 13.5605 23.8702 13.5505 23.9302C13.5405 24.0002 13.5305 24.0402 13.5305 24.0802ZM14.2705 21.1202C14.2705 21.3502 14.3505 21.5402 14.5105 21.6902C14.6605 21.8502 14.8505 21.9302 15.0905 21.9302C15.3305 21.9302 15.5205 21.8502 15.6805 21.7002C15.8405 21.5402 15.9105 21.3502 15.9105 21.1202C15.9105 20.8802 15.8305 20.6902 15.6805 20.5302C15.5205 20.3702 15.3305 20.3002 15.0905 20.3002C14.8505 20.3002 14.6605 20.3802 14.5005 20.5302C14.3405 20.6802 14.2705 20.8802 14.2705 21.1202ZM14.8805 18.8102C14.8805 18.9802 14.9305 19.1402 15.0405 19.2902C15.1505 19.4402 15.3105 19.5502 15.5305 19.6102C15.5505 19.6102 15.5905 19.6202 15.6505 19.6302C15.7105 19.6402 15.7605 19.6502 15.7905 19.6502C15.9005 19.6502 16.0205 19.6202 16.1605 19.5602C16.3705 19.4502 16.5005 19.2802 16.5605 19.0402L16.8005 18.1402C16.8605 17.9102 16.8405 17.7002 16.7305 17.5102C16.6205 17.3202 16.4505 17.1802 16.2305 17.1102C16.0005 17.0402 15.7805 17.0602 15.5905 17.1702C15.3905 17.2802 15.2605 17.4402 15.1905 17.6802L14.9105 18.5902C14.9105 18.6102 14.9105 18.6402 14.9005 18.7002C14.8905 18.7302 14.8805 18.7702 14.8805 18.8102ZM15.2305 9.09016C15.8905 8.43016 16.7105 8.10016 17.7005 8.10016C18.6905 8.10016 19.5305 8.44016 20.2205 9.12016C20.9105 9.80016 21.2605 10.6202 21.2605 11.6002C21.2605 12.2602 21.0805 12.8902 20.7305 13.4802C19.7505 12.5002 18.5805 12.0102 17.2305 12.0102H16.9205C16.6405 10.9102 16.0705 9.94016 15.2305 9.09016ZM16.8805 3.83016C16.8805 4.06016 16.9605 4.25016 17.1105 4.41016C17.2605 4.56016 17.4605 4.64016 17.7005 4.64016C17.9405 4.64016 18.1505 4.56016 18.3205 4.41016C18.4905 4.26016 18.5705 4.06016 18.5705 3.83016V1.76016C18.5705 1.53016 18.4805 1.33016 18.3105 1.16016C18.1405 0.990156 17.9305 0.910156 17.7005 0.910156C17.4705 0.910156 17.2705 0.990156 17.1205 1.16016C16.9605 1.33016 16.8905 1.53016 16.8905 1.76016V3.83016H16.8805ZM22.4005 6.09016C22.4005 6.34016 22.4805 6.54016 22.6305 6.69016C22.9905 7.05016 23.3905 7.05016 23.8405 6.69016L25.2705 5.26016C25.4405 5.09016 25.5205 4.88016 25.5205 4.63016C25.5205 4.39016 25.4405 4.19016 25.2705 4.03016C25.1005 3.86016 24.9005 3.78016 24.6705 3.78016C24.4405 3.78016 24.2405 3.86016 24.0605 4.02016L22.6305 5.50016C22.4805 5.65016 22.4005 5.84016 22.4005 6.09016ZM23.1805 17.9402C23.1805 18.1702 23.2705 18.3702 23.4505 18.5302L24.0605 19.1602C24.2605 19.3202 24.4605 19.4002 24.6705 19.4002C24.8705 19.4002 25.0705 19.3202 25.2705 19.1602C25.4405 19.0002 25.5205 18.8102 25.5205 18.5702C25.5205 18.3402 25.4405 18.1402 25.2705 17.9502L24.6205 17.3402C24.4705 17.1702 24.2805 17.0902 24.0505 17.0902C23.8205 17.0902 23.6205 17.1702 23.4505 17.3402C23.2705 17.5102 23.1805 17.7102 23.1805 17.9402ZM24.6605 11.6002C24.6605 11.8402 24.7505 12.0302 24.9205 12.1902C25.1005 12.3702 25.3105 12.4602 25.5405 12.4602H27.5705C27.8005 12.4602 28.0005 12.3802 28.1605 12.2102C28.3205 12.0402 28.4005 11.8402 28.4005 11.6002C28.4005 11.3602 28.3205 11.1602 28.1605 11.0002C28.0005 10.8302 27.8105 10.7502 27.5705 10.7502H25.5405C25.3005 10.7502 25.1005 10.8302 24.9205 11.0002C24.7405 11.1702 24.6605 11.3702 24.6605 11.6002Z" fill="white"/>
</svg>
