<svg width="30" height="25" viewBox="0 0 30 25" fill="none" xmlns="http://www.w3.org/2000/svg">
<path d="M0 20.15C0 20.38 0.08 20.58 0.25 20.74C0.42 20.9 0.63 20.98 0.88 20.98H19.59C19.83 20.98 20.03 20.9 20.2 20.74C20.37 20.58 20.45 20.39 20.45 20.15C20.45 19.91 20.37 19.71 20.2 19.55C20.03 19.38 19.83 19.3 19.59 19.3H0.88C0.63 19.3 0.42 19.38 0.25 19.55C0.08 19.72 0 19.91 0 20.15ZM2.62 17.01C2.62 17.24 2.7 17.44 2.87 17.59C3.04 17.77 3.24 17.86 3.47 17.86H22.19C22.42 17.86 22.62 17.78 22.78 17.61C22.94 17.44 23.02 17.24 23.02 17.01C23.02 16.78 22.94 16.58 22.79 16.42C22.63 16.26 22.44 16.18 22.2 16.18H3.48C3.24 16.18 3.04 16.26 2.88 16.42C2.71 16.59 2.62 16.78 2.62 17.01ZM2.75 14.61C2.75 14.7 2.8 14.74 2.91 14.74H4.34C4.41 14.74 4.48 14.69 4.55 14.58C4.79 14.06 5.14 13.64 5.61 13.31C6.08 12.98 6.6 12.79 7.17 12.75L7.71 12.68C7.82 12.68 7.88 12.62 7.88 12.5L7.95 11.99C8.06 10.91 8.51 10.01 9.32 9.28C10.13 8.56 11.08 8.19 12.18 8.19C13.26 8.19 14.21 8.55 15.02 9.27C15.83 9.99 16.29 10.88 16.4 11.95L16.47 12.53C16.47 12.64 16.53 12.7 16.66 12.7H18.27C18.91 12.7 19.5 12.87 20.03 13.22C20.56 13.56 20.95 14.02 21.21 14.59C21.28 14.7 21.34 14.75 21.41 14.75H22.85C22.98 14.75 23.03 14.68 22.98 14.52L22.78 13.97C23.54 13.03 23.91 11.93 23.91 10.66C23.91 9.95 23.77 9.28 23.5 8.63C23.23 7.98 22.86 7.43 22.39 6.96C21.93 6.49 21.37 6.12 20.72 5.84C20.07 5.56 19.4 5.44 18.68 5.44C17.14 5.44 15.86 6 14.86 7.12C14.01 6.7 13.12 6.49 12.18 6.49C10.78 6.49 9.53 6.93 8.44 7.81C7.35 8.69 6.65 9.81 6.34 11.18C4.56 11.65 3.36 12.76 2.76 14.53C2.75 14.54 2.75 14.57 2.75 14.61ZM4.37 23.22C4.37 23.46 4.46 23.66 4.64 23.82C4.8 23.99 4.99 24.08 5.23 24.08H23.97C24.2 24.08 24.4 24 24.57 23.83C24.74 23.66 24.82 23.46 24.82 23.22C24.82 22.99 24.74 22.8 24.57 22.64C24.4 22.49 24.2 22.41 23.97 22.41H5.23C4.99 22.41 4.79 22.49 4.62 22.64C4.45 22.8 4.37 22.99 4.37 23.22ZM10.94 3.75C10.94 3.99 11.02 4.18 11.17 4.34L11.82 4.98C11.99 5.16 12.18 5.25 12.4 5.25C12.62 5.25 12.82 5.17 13 5C13.17 4.83 13.26 4.63 13.26 4.39C13.26 4.15 13.18 3.94 13.01 3.76L12.37 3.15C12.21 2.98 12.01 2.89 11.77 2.89C11.53 2.89 11.33 2.97 11.17 3.14C11.02 3.3 10.94 3.51 10.94 3.75ZM16.26 8.13C16.93 7.45 17.74 7.12 18.69 7.12C19.67 7.12 20.51 7.47 21.2 8.16C21.89 8.85 22.24 9.69 22.24 10.66C22.24 11.31 22.08 11.91 21.75 12.46C20.8 11.51 19.64 11.04 18.28 11.04H17.94C17.65 9.86 17.09 8.89 16.26 8.13ZM17.86 2.9C17.86 3.13 17.94 3.33 18.1 3.49C18.26 3.65 18.45 3.73 18.69 3.73C18.94 3.73 19.15 3.65 19.32 3.49C19.49 3.33 19.57 3.14 19.57 2.9V0.85C19.57 0.62 19.48 0.42 19.31 0.25C19.13 0.0799999 18.92 0 18.68 0C18.45 0 18.25 0.0799999 18.09 0.25C17.93 0.42 17.85 0.62 17.85 0.85V2.9H17.86ZM23.35 5.17C23.35 5.39 23.43 5.6 23.59 5.77C23.96 6.13 24.37 6.13 24.82 5.77L26.25 4.34C26.41 4.16 26.49 3.95 26.49 3.7C26.49 3.47 26.41 3.27 26.25 3.11C26.09 2.95 25.89 2.87 25.66 2.87C25.42 2.87 25.22 2.95 25.06 3.11L23.6 4.58C23.43 4.76 23.35 4.96 23.35 5.17ZM24.16 16.97C24.16 17.21 24.25 17.41 24.42 17.57L25.06 18.22C25.22 18.38 25.42 18.46 25.64 18.46C25.85 18.46 26.05 18.38 26.25 18.22C26.41 18.05 26.49 17.83 26.49 17.58C26.49 17.36 26.41 17.17 26.25 17.02L25.6 16.36C25.42 16.2 25.22 16.12 25 16.12C24.76 16.12 24.56 16.2 24.4 16.37C24.24 16.53 24.16 16.73 24.16 16.97ZM25.64 10.66C25.64 10.9 25.73 11.1 25.9 11.26C26.05 11.43 26.25 11.51 26.49 11.51H28.54C28.77 11.51 28.97 11.43 29.13 11.26C29.29 11.09 29.37 10.89 29.37 10.66C29.37 10.42 29.29 10.22 29.13 10.06C28.97 9.9 28.78 9.82 28.54 9.82H26.49C26.25 9.82 26.05 9.9 25.89 10.07C25.72 10.23 25.64 10.43 25.64 10.66Z" fill="white"/>
</svg>
