<svg width="27" height="21" viewBox="0 0 27 21" fill="none" xmlns="http://www.w3.org/2000/svg">
<path d="M0 15.99C0 16.89 0.22 17.72 0.66 18.48C1.1 19.24 1.7 19.84 2.46 20.28C3.22 20.72 4.04 20.94 4.93 20.94H15.76C16.65 20.94 17.48 20.72 18.24 20.28C19 19.84 19.61 19.24 20.05 18.48C20.49 17.72 20.72 16.89 20.72 15.99C20.72 15.33 20.58 14.66 20.3 13.99C21.06 13.07 21.44 11.96 21.44 10.69C21.44 9.98 21.3 9.3 21.03 8.65C20.76 8 20.38 7.45 19.91 6.98C19.44 6.51 18.89 6.13 18.24 5.86C17.59 5.58 16.91 5.45 16.2 5.45C14.72 5.45 13.43 6.03 12.32 7.19C11.55 6.75 10.65 6.53 9.62 6.53C8.21 6.53 6.97 6.97 5.89 7.84C4.81 8.71 4.11 9.83 3.81 11.19C2.69 11.45 1.78 12.02 1.07 12.92C0.36 13.82 0 14.84 0 15.99ZM1.71 15.99C1.71 15.15 1.99 14.43 2.55 13.82C3.11 13.21 3.81 12.86 4.65 12.76L5.15 12.73C5.27 12.73 5.34 12.67 5.34 12.55L5.41 12.01C5.55 10.93 6.02 10.02 6.82 9.3C7.62 8.57 8.56 8.21 9.63 8.21C10.73 8.21 11.69 8.58 12.5 9.31C13.32 10.04 13.77 10.94 13.87 12.02L13.94 12.6C13.96 12.71 14.03 12.77 14.15 12.77H15.76C16.64 12.77 17.4 13.09 18.04 13.73C18.68 14.37 19 15.12 19 16C19 16.91 18.68 17.68 18.05 18.32C17.42 18.96 16.65 19.28 15.77 19.28H4.93C4.05 19.28 3.3 18.96 2.66 18.31C2.03 17.66 1.71 16.89 1.71 15.99ZM8.41 3.72C8.41 3.96 8.49 4.17 8.65 4.35L9.31 4.99C9.56 5.18 9.77 5.26 9.95 5.24C10.16 5.24 10.34 5.15 10.5 4.98C10.66 4.81 10.74 4.6 10.74 4.36C10.74 4.12 10.65 3.92 10.48 3.77L9.89 3.11C9.71 2.95 9.51 2.87 9.28 2.87C9.04 2.87 8.83 2.95 8.66 3.12C8.49 3.28 8.41 3.48 8.41 3.72ZM13.75 8.15C14.44 7.48 15.26 7.15 16.2 7.15C17.19 7.15 18.03 7.49 18.72 8.18C19.41 8.87 19.76 9.7 19.76 10.69C19.76 11.31 19.59 11.93 19.25 12.53C18.28 11.57 17.12 11.09 15.76 11.09H15.44C15.19 10 14.63 9.02 13.75 8.15ZM15.38 2.87C15.38 3.13 15.46 3.33 15.61 3.49C15.76 3.65 15.96 3.72 16.2 3.72C16.46 3.72 16.66 3.64 16.82 3.49C16.98 3.33 17.05 3.13 17.05 2.87V0.82C17.05 0.58 16.97 0.39 16.81 0.23C16.65 0.07 16.45 0 16.2 0C15.96 0 15.77 0.08 15.61 0.23C15.45 0.38 15.38 0.58 15.38 0.82V2.87V2.87ZM20.9 5.16C20.9 5.42 20.97 5.62 21.12 5.78C21.33 5.94 21.54 6.02 21.74 6.02C21.92 6.02 22.12 5.94 22.33 5.78L23.76 4.35C23.92 4.17 24 3.96 24 3.71C24 3.47 23.92 3.27 23.76 3.11C23.6 2.95 23.4 2.87 23.17 2.87C22.93 2.87 22.74 2.95 22.59 3.11L21.12 4.54C20.97 4.73 20.9 4.93 20.9 5.16ZM21.69 17C21.69 17.24 21.77 17.45 21.94 17.63L22.59 18.26C22.74 18.42 22.93 18.5 23.17 18.5C23.41 18.5 23.61 18.42 23.77 18.25C23.93 18.08 24.01 17.88 24.01 17.63C24.01 17.41 23.93 17.21 23.77 17.05L23.12 16.4C22.96 16.24 22.77 16.16 22.55 16.16C22.31 16.16 22.11 16.24 21.95 16.4C21.78 16.56 21.69 16.76 21.69 17ZM23.16 10.69C23.16 10.92 23.25 11.11 23.42 11.27C23.58 11.43 23.79 11.51 24.03 11.51H26.07C26.3 11.51 26.49 11.43 26.65 11.28C26.81 11.13 26.88 10.93 26.88 10.69C26.88 10.45 26.8 10.25 26.65 10.09C26.5 9.93 26.3 9.84 26.07 9.84H24.03C23.79 9.84 23.59 9.92 23.42 10.09C23.24 10.26 23.16 10.46 23.16 10.69Z" fill="white"/>
</svg>
