<svg width="30" height="30" viewBox="0 0 30 30" fill="none" xmlns="http://www.w3.org/2000/svg">
<path d="M4.26172 16.9303C4.26172 17.5903 4.38172 18.2103 4.64172 18.8103C4.90172 19.4103 5.23172 19.9203 5.66172 20.3603C6.09172 20.7903 6.60172 21.1503 7.19172 21.4103C7.78172 21.6703 8.40172 21.8303 9.06172 21.8603C9.17172 21.8603 9.23172 21.8003 9.23172 21.6903V20.3503C9.23172 20.2403 9.17172 20.1803 9.06172 20.1803C8.19172 20.1203 7.46172 19.7703 6.87172 19.1503C6.28172 18.5303 5.98172 17.7803 5.98172 16.9303C5.98172 16.0903 6.26172 15.3603 6.83172 14.7403C7.40172 14.1203 8.09172 13.7703 8.93172 13.7003L9.46172 13.6403C9.59172 13.6403 9.66172 13.5803 9.66172 13.4503L9.72172 12.9403C9.83172 11.8503 10.2817 10.9503 11.0917 10.2303C11.9017 9.51031 12.8517 9.15031 13.9517 9.15031C15.0417 9.15031 16.0017 9.51031 16.8017 10.2203C17.6117 10.9403 18.0717 11.8303 18.1817 12.9103L18.2517 13.4903C18.2517 13.6103 18.3117 13.6703 18.4417 13.6703H20.0417C20.9417 13.6703 21.7117 13.9903 22.3617 14.6303C23.0117 15.2703 23.3317 16.0303 23.3317 16.9203C23.3317 17.7803 23.0317 18.5203 22.4417 19.1403C21.8517 19.7603 21.1117 20.1103 20.2517 20.1703C20.1217 20.1703 20.0517 20.2303 20.0517 20.3403V21.6803C20.0517 21.7903 20.1217 21.8503 20.2517 21.8503C21.5917 21.7903 22.7217 21.2803 23.6417 20.3403C24.5617 19.3903 25.0217 18.2503 25.0217 16.9203C25.0217 16.2003 24.8817 15.5403 24.6017 14.9303C25.3817 13.9903 25.7717 12.8703 25.7717 11.5703C25.7717 10.6303 25.5417 9.76031 25.0717 8.95031C24.6017 8.14031 23.9617 7.50031 23.1617 7.03031C22.3617 6.56031 21.4817 6.32031 20.5417 6.32031C18.9817 6.32031 17.6917 6.90031 16.6617 8.05031C15.7817 7.62031 14.8817 7.40031 13.9617 7.40031C12.5517 7.40031 11.3017 7.84031 10.2117 8.72031C9.12172 9.60031 8.42172 10.7203 8.11172 12.1003C7.01172 12.3603 6.10172 12.9303 5.38172 13.8303C4.62172 14.7603 4.26172 15.7803 4.26172 16.9303ZM9.75172 23.6103C9.75172 24.0103 9.97172 24.2703 10.4017 24.3903C10.6117 24.4603 10.8217 24.4403 11.0317 24.3303C11.2417 24.2203 11.3817 24.0503 11.4417 23.8303L12.9417 18.1003C13.0017 17.8803 12.9717 17.6703 12.8517 17.4703C12.7317 17.2703 12.5517 17.1403 12.3117 17.0703C12.0917 17.0003 11.8817 17.0203 11.6817 17.1403C11.4817 17.2603 11.3517 17.4303 11.2917 17.6603L9.79172 23.3603C9.76172 23.4703 9.75172 23.5503 9.75172 23.6103ZM12.3417 26.6603C12.3417 26.7803 12.3717 26.9003 12.4217 27.0303C12.5217 27.2403 12.6917 27.3803 12.9317 27.4603C12.9517 27.4603 12.9917 27.4603 13.0317 27.4703C13.0717 27.4803 13.1117 27.4803 13.1417 27.4803C13.1717 27.4803 13.2017 27.4803 13.2317 27.4803C13.6617 27.4803 13.9117 27.2603 13.9917 26.8203L16.2917 18.0803C16.3617 17.8603 16.3417 17.6503 16.2317 17.4503C16.1217 17.2503 15.9517 17.1203 15.7317 17.0503C15.4917 16.9803 15.2617 17.0003 15.0517 17.1203C14.8417 17.2403 14.7217 17.4103 14.6717 17.6403L12.3617 26.3903C12.3517 26.4903 12.3417 26.5803 12.3417 26.6603ZM16.5017 23.6003C16.5017 23.7603 16.5517 23.9103 16.6617 24.0703C16.7717 24.2303 16.9217 24.3303 17.1117 24.3903C17.1717 24.4103 17.2517 24.4203 17.3417 24.4203C17.5117 24.4203 17.6717 24.3703 17.8317 24.2803C17.9917 24.1903 18.0917 24.0403 18.1517 23.8303L19.6517 18.1003C19.7317 17.8903 19.7017 17.6903 19.5817 17.4803C19.4617 17.2703 19.2917 17.1403 19.0617 17.0703C18.8217 17.0003 18.6017 17.0203 18.4017 17.1403C18.2017 17.2603 18.0817 17.4303 18.0417 17.6603L16.5417 23.3603C16.5117 23.4703 16.5017 23.5503 16.5017 23.6003ZM18.0317 9.08031C18.7017 8.41031 19.5217 8.08031 20.5117 8.08031C21.4917 8.08031 22.3217 8.42031 23.0017 9.10031C23.6917 9.78031 24.0317 10.6103 24.0317 11.5803C24.0317 12.2103 23.8617 12.8203 23.5117 13.4303C22.5617 12.4803 21.4017 12.0003 20.0217 12.0003H19.7117C19.4317 10.8303 18.8717 9.86031 18.0317 9.08031Z" fill="white"/>
</svg>
