<svg width="30" height="30" viewBox="0 0 30 30" fill="none" xmlns="http://www.w3.org/2000/svg">
<path d="M4.64062 16.9504C4.64062 15.7904 4.99062 14.7704 5.70062 13.8704C6.41062 12.9704 7.32062 12.3904 8.44062 12.1104C8.75062 10.7504 9.45063 9.63043 10.5406 8.75043C11.6306 7.87043 12.8806 7.44043 14.2906 7.44043C15.6706 7.44043 16.8906 7.87043 17.9706 8.72043C19.0506 9.57043 19.7506 10.6704 20.0706 12.0104H20.3906C21.2806 12.0104 22.1106 12.2304 22.8706 12.6704C23.6306 13.1104 24.2406 13.7104 24.6806 14.4704C25.1206 15.2304 25.3506 16.0604 25.3506 16.9504C25.3506 18.2704 24.8906 19.4204 23.9606 20.3704C23.0406 21.3304 21.9106 21.8304 20.5806 21.8704C20.4506 21.8704 20.3806 21.8104 20.3806 21.7004V20.3704C20.3806 20.2504 20.4506 20.1904 20.5806 20.1904C21.4306 20.1504 22.1606 19.8104 22.7606 19.1704C23.3606 18.5304 23.6606 17.7904 23.6606 16.9404C23.6606 16.0504 23.3406 15.2904 22.6906 14.6404C22.0406 13.9904 21.2706 13.6704 20.3706 13.6704H18.7606C18.6406 13.6704 18.5806 13.6104 18.5806 13.5004L18.5006 12.9204C18.3906 11.8404 17.9206 10.9304 17.1106 10.2004C16.2906 9.47043 15.3506 9.10043 14.2606 9.10043C13.1606 9.10043 12.2106 9.47043 11.4006 10.2104C10.5906 10.9504 10.1306 11.8604 10.0306 12.9604L9.97063 13.4604C9.97063 13.5804 9.90063 13.6504 9.77063 13.6504L9.24062 13.7204C8.41062 13.7904 7.71062 14.1304 7.14062 14.7604C6.57063 15.3904 6.29063 16.1104 6.29063 16.9504C6.29063 17.8004 6.59063 18.5404 7.19063 19.1804C7.79063 19.8204 8.52062 20.1504 9.37063 20.2004C9.48063 20.2004 9.54063 20.2604 9.54063 20.3804V21.7104C9.54063 21.8204 9.48063 21.8804 9.37063 21.8804C8.03062 21.8404 6.90062 21.3404 5.97062 20.3804C5.10062 19.4204 4.64062 18.2704 4.64062 16.9504ZM10.1406 24.6504C10.1406 24.4204 10.2206 24.2204 10.3906 24.0504C10.5506 23.9004 10.7406 23.8204 10.9606 23.8204C11.1906 23.8204 11.3906 23.9004 11.5506 24.0504C11.7106 24.2004 11.7906 24.4004 11.7906 24.6404C11.7906 24.8804 11.7106 25.0704 11.5506 25.2304C11.3906 25.3904 11.2006 25.4604 10.9606 25.4604C10.7306 25.4604 10.5306 25.3804 10.3706 25.2304C10.2206 25.0804 10.1406 24.8804 10.1406 24.6504ZM11.0006 21.0204C11.0006 20.8004 11.0806 20.6004 11.2406 20.4404C11.4006 20.2804 11.5906 20.2004 11.8306 20.2004C12.0606 20.2004 12.2606 20.2804 12.4206 20.4404C12.5806 20.6004 12.6606 20.8004 12.6606 21.0204C12.6606 21.2604 12.5806 21.4604 12.4206 21.6204C12.2606 21.7904 12.0706 21.8704 11.8306 21.8704C11.6006 21.8704 11.4006 21.7904 11.2406 21.6204C11.0806 21.4604 11.0006 21.2604 11.0006 21.0204ZM12.9006 26.6104C12.9006 26.3804 12.9806 26.1804 13.1506 26.0004C13.3106 25.8404 13.5006 25.7604 13.7206 25.7604C13.9606 25.7604 14.1606 25.8404 14.3306 26.0104C14.5006 26.1804 14.5806 26.3804 14.5806 26.6104C14.5806 26.8404 14.5006 27.0404 14.3306 27.2004C14.1606 27.3604 13.9606 27.4404 13.7206 27.4404C13.4906 27.4404 13.3006 27.3604 13.1406 27.2004C12.9906 27.0304 12.9006 26.8404 12.9006 26.6104ZM13.7706 22.9504C13.7706 22.7104 13.8506 22.5104 14.0106 22.3304C14.1706 22.1704 14.3706 22.0904 14.5906 22.0904C14.8206 22.0904 15.0206 22.1704 15.1906 22.3404C15.3606 22.5104 15.4406 22.7104 15.4406 22.9504C15.4406 23.1804 15.3606 23.3804 15.1906 23.5504C15.0206 23.7204 14.8206 23.8004 14.5906 23.8004C14.3606 23.8004 14.1706 23.7204 14.0106 23.5504C13.8506 23.3804 13.7706 23.1804 13.7706 22.9504ZM14.1906 19.3304C14.1906 19.1004 14.2706 18.9004 14.4406 18.7304C14.6206 18.5704 14.8106 18.4904 15.0106 18.4904C15.2506 18.4904 15.4506 18.5704 15.6206 18.7404C15.7906 18.9104 15.8706 19.1004 15.8706 19.3404C15.8706 19.5704 15.7906 19.7704 15.6206 19.9304C15.4506 20.0904 15.2506 20.1704 15.0106 20.1704C14.7806 20.1704 14.5906 20.0904 14.4306 19.9304C14.2706 19.7604 14.1906 19.5604 14.1906 19.3304ZM16.5606 24.6504C16.5606 24.4204 16.6406 24.2204 16.8006 24.0504C16.9606 23.9004 17.1606 23.8204 17.4006 23.8204C17.6406 23.8204 17.8306 23.9004 17.9906 24.0504C18.1506 24.2104 18.2206 24.4004 18.2206 24.6404C18.2206 24.8804 18.1406 25.0704 17.9906 25.2304C17.8306 25.3904 17.6406 25.4604 17.4006 25.4604C17.1606 25.4604 16.9606 25.3804 16.8006 25.2204C16.6406 25.0704 16.5606 24.8804 16.5606 24.6504ZM17.4106 21.0204C17.4106 20.8004 17.4906 20.6104 17.6606 20.4404C17.8306 20.2704 18.0306 20.1904 18.2606 20.1904C18.4906 20.1904 18.6906 20.2704 18.8506 20.4304C19.0106 20.5904 19.0906 20.7904 19.0906 21.0104C19.0906 21.2504 19.0106 21.4504 18.8506 21.6104C18.6906 21.7804 18.5006 21.8604 18.2606 21.8604C18.0206 21.8604 17.8206 21.7804 17.6606 21.6104C17.5006 21.4504 17.4106 21.2504 17.4106 21.0204Z" fill="white"/>
</svg>
