<svg width="30" height="30" viewBox="0 0 30 30" fill="none" xmlns="http://www.w3.org/2000/svg">
<path d="M4.62891 16.9102C4.62891 18.0202 4.95891 19.0102 5.61891 19.8802C6.27891 20.7502 7.13891 21.3502 8.19891 21.6702L7.53891 23.3502C7.50891 23.4902 7.55891 23.5702 7.67891 23.5702H9.80891L8.82891 27.8702H9.10891L13.0289 22.1202C13.0689 22.0802 13.0689 22.0302 13.0389 21.9802C13.0089 21.9302 12.9589 21.9102 12.8889 21.9102H10.7089L13.1889 17.2702C13.2589 17.1302 13.2089 17.0502 13.0489 17.0502H10.1089C10.0189 17.0502 9.93891 17.1002 9.87891 17.2002L8.80891 20.0702C8.09891 19.8902 7.50891 19.5002 7.03891 18.9102C6.56891 18.3202 6.33891 17.6502 6.33891 16.9002C6.33891 16.0702 6.61891 15.3502 7.18891 14.7302C7.75891 14.1202 8.45891 13.7602 9.28891 13.6602L9.81891 13.5902C9.94891 13.5902 10.0189 13.5302 10.0189 13.4102L10.0889 12.9002C10.1989 11.8202 10.6489 10.9102 11.4589 10.1802C12.2689 9.45016 13.2189 9.08016 14.3089 9.08016C15.3989 9.08016 16.3489 9.45016 17.1589 10.1802C17.9789 10.9102 18.4389 11.8202 18.5589 12.9002L18.6289 13.4802C18.6289 13.5902 18.6889 13.6502 18.8089 13.6502H20.4089C21.3189 13.6502 22.0889 13.9702 22.7289 14.6002C23.3689 15.2302 23.6989 16.0002 23.6989 16.8802C23.6989 17.7302 23.3989 18.4702 22.8089 19.0902C22.2189 19.7102 21.4789 20.0602 20.6089 20.1302C20.4789 20.1302 20.4089 20.1902 20.4089 20.3102V21.6802C20.4089 21.7902 20.4789 21.8502 20.6089 21.8502C21.9389 21.8102 23.0689 21.3002 23.9989 20.3402C24.9289 19.3802 25.3889 18.2302 25.3889 16.8902C25.3889 15.9902 25.1689 15.1602 24.7189 14.4002C24.2789 13.6402 23.6689 13.0402 22.9089 12.6002C22.1389 12.1602 21.3089 11.9402 20.4089 11.9402H20.0989C19.7689 10.6102 19.0589 9.52016 17.9889 8.68016C16.9189 7.84016 15.6889 7.41016 14.3089 7.41016C12.8989 7.41016 11.6389 7.85016 10.5489 8.72016C9.45891 9.59016 8.75891 10.7102 8.44891 12.0802C7.33891 12.3402 6.42891 12.9102 5.70891 13.8102C4.98891 14.7102 4.62891 15.7602 4.62891 16.9102ZM12.7689 26.6202C12.7689 27.0102 12.9589 27.2702 13.3489 27.3902C13.3589 27.3902 13.3989 27.3902 13.4589 27.4002C13.5189 27.4102 13.5689 27.4102 13.5989 27.4102C13.7689 27.4102 13.9289 27.3602 14.0889 27.2602C14.2489 27.1602 14.3589 27.0002 14.4089 26.7802L16.6589 18.0902C16.7189 17.8502 16.6989 17.6402 16.5889 17.4402C16.4789 17.2502 16.3189 17.1202 16.0889 17.0502C15.9189 17.0302 15.8289 17.0202 15.8289 17.0202C15.6689 17.0202 15.5089 17.0702 15.3589 17.1702C15.2089 17.2702 15.0989 17.4202 15.0489 17.6202L12.7889 26.3402C12.7789 26.4402 12.7689 26.5302 12.7689 26.6202ZM16.9289 23.5602C16.9289 23.6902 16.9589 23.8202 17.0289 23.9402C17.1689 24.1602 17.3389 24.3102 17.5389 24.3802C17.6489 24.4102 17.7489 24.4302 17.8389 24.4302C17.9289 24.4302 18.0389 24.4102 18.1589 24.3502C18.3689 24.2602 18.5089 24.0702 18.5789 23.7802L20.0189 18.1102C20.0489 17.9702 20.0689 17.8802 20.0689 17.8402C20.0689 17.6902 20.0189 17.5402 19.9089 17.3902C19.7989 17.2402 19.6489 17.1302 19.4489 17.0702C19.2789 17.0502 19.1889 17.0402 19.1889 17.0402C19.0189 17.0402 18.8589 17.0902 18.7189 17.1902C18.5789 17.2902 18.4789 17.4402 18.4189 17.6402L16.9589 23.3402C16.9589 23.3602 16.9589 23.3902 16.9489 23.4502C16.9289 23.5002 16.9289 23.5302 16.9289 23.5602Z" fill="white"/>
</svg>
