<svg width="50" height="70" viewBox="0 0 50 70" fill="none" xmlns="http://www.w3.org/2000/svg">
<path d="M48.0769 13.4615C49.1385 13.4615 50 12.5999 50 11.5384C50 10.4769 49.1385 9.61534 48.0769 9.61534C41.3087 9.61534 35.7078 14.6413 34.7693 21.1537H32.826C33.777 13.5769 40.2472 7.69227 48.0769 7.69227C49.1385 7.69227 50 6.83073 50 5.7692C50 4.70767 49.1385 3.84613 48.0769 3.84613C38.1212 3.84613 29.9116 11.449 28.9443 21.1537H21.154V11.5384C21.154 10.1144 20.7578 8.78457 20.0809 7.63842L21.5521 6.16728C22.303 5.41632 22.303 4.19902 21.5521 3.44806C20.8011 2.6971 19.5838 2.6971 18.8328 3.44806L17.3617 4.91921C16.7511 4.55767 16.0886 4.28075 15.3848 4.09998V1.92307C15.3848 0.861534 14.5232 0 13.4617 0C12.3992 0 11.5386 0.861534 11.5386 1.92307V4.09998C10.8358 4.28075 10.1723 4.55767 9.56173 4.91921L8.09059 3.44806C7.33963 2.6971 6.12233 2.6971 5.37137 3.44806C4.62041 4.19902 4.62041 5.41632 5.37137 6.16728L6.84251 7.63842C6.3204 8.52111 5.96944 9.51438 5.83579 10.5769H1.92331C1.031 10.5769 0.256971 11.1903 0.0521639 12.0576C-0.152643 12.9259 0.266586 13.8211 1.0637 14.2201L5.76944 16.573V23.0768C5.76944 33.0325 13.3723 41.2421 23.0771 42.2094V51.9228H6.56559L9.05212 49.4363C9.80308 48.6853 9.80308 47.468 9.05212 46.7171C8.30116 45.9661 7.08386 45.9661 6.3329 46.7171L0.56466 52.4853C0.475238 52.5747 0.394469 52.6738 0.324277 52.7805C0.293508 52.8257 0.272355 52.8757 0.246393 52.9228C0.21274 52.9844 0.17524 53.0449 0.146394 53.1103C0.121394 53.1728 0.106009 53.2382 0.0867785 53.3026C0.0704324 53.3584 0.0492786 53.4113 0.0367787 53.469C-0.0122596 53.718 -0.0122596 53.9728 0.0367787 54.2218C0.0492786 54.2795 0.0704324 54.3324 0.0867785 54.3882C0.106009 54.4526 0.120432 54.518 0.146394 54.5805C0.174278 54.6459 0.211778 54.7065 0.246393 54.768C0.272355 54.8161 0.293508 54.8661 0.324277 54.9103C0.394469 55.0161 0.475238 55.1161 0.56466 55.2055L6.3329 60.9737C6.70886 61.3497 7.20021 61.5372 7.69251 61.5372C8.18482 61.5372 8.67616 61.3497 9.05212 60.9737C9.80308 60.2228 9.80308 59.0055 9.05212 58.2545L6.56559 55.768H23.0771V67.3064C23.0771 68.3679 23.9376 69.2295 25.0001 69.2295C26.0617 69.2295 26.9232 68.3679 26.9232 67.3064V55.768H41.5116L46.7173 60.9737C47.0933 61.3497 47.5846 61.5372 48.0769 61.5372C48.5692 61.5372 49.0606 61.3497 49.4365 60.9737C50.1875 60.2228 50.1875 59.0055 49.4365 58.2545L45.0269 53.8449L49.4365 49.4353C50.1875 48.6844 50.1875 47.4671 49.4365 46.7161C48.6856 45.9652 47.4683 45.9652 46.7173 46.7161L41.5116 51.9219H26.9232V42.2094C36.6279 41.2411 44.2308 33.0316 44.2308 23.0768C44.2308 20.9557 45.9558 19.2307 48.0769 19.2307C49.1385 19.2307 50 18.3691 50 17.3076C50 16.2461 49.1385 15.3845 48.0769 15.3845C44.5 15.3845 41.4952 17.8422 40.6385 21.1537H38.6558C39.5491 16.7701 43.4337 13.4615 48.0769 13.4615ZM28.3116 24.9999C27.6453 26.1431 26.4184 26.9229 25.0011 26.9229C23.5828 26.9229 22.3569 26.1431 21.6905 24.9999H28.3116ZM40.2654 24.9999C39.3154 32.5787 32.8318 38.4613 25.0001 38.4613C16.5175 38.4613 9.61558 31.5595 9.61558 23.0768V11.5384C9.61558 9.41726 11.3406 7.69227 13.4617 7.69227C15.5829 7.69227 17.3078 9.41726 17.3078 11.5384V23.0768C17.3078 23.0835 17.3098 23.0893 17.3098 23.096C17.3203 27.3287 20.7665 30.7691 25.0011 30.7691C28.578 30.7691 31.5828 28.3114 32.4395 24.9999H40.2654Z" fill="black"/>
<path d="M13.4617 13.4615C14.5238 13.4615 15.3848 12.6005 15.3848 11.5384C15.3848 10.4763 14.5238 9.61534 13.4617 9.61534C12.3996 9.61534 11.5386 10.4763 11.5386 11.5384C11.5386 12.6005 12.3996 13.4615 13.4617 13.4615Z" fill="black"/>
</svg>
