<svg id="Capa_1" enable-background="new 0 0 512 512" height="512" viewBox="0 0 512 512" width="512" xmlns="http://www.w3.org/2000/svg"><g><g><g><path d="m430.696 256c0-78.761-63.848-142.609-142.609-142.609-56.401 0-105.149 32.745-128.286 80.258-13.121-5.745-27.605-8.953-42.845-8.953-59.07 0-106.956 47.886-106.956 106.956s47.886 106.957 106.956 106.957h313.739c39.38 0 71.304-31.924 71.304-71.304s-31.923-71.305-71.303-71.305z" fill="#a0c8ff"/></g></g><g><path d="m440.408 246.577c-4.882-79.778-71.336-143.186-152.321-143.186-29.166 0-57.521 8.258-81.997 23.882-21.207 13.537-38.687 32.019-50.98 53.808-12.248-4.241-25.043-6.386-38.153-6.386-64.491.001-116.957 52.467-116.957 116.957s52.466 116.957 116.956 116.957h203.384c5.523 0 10-4.477 10-10s-4.477-10-10-10h-203.384c-53.461 0-96.956-43.495-96.956-96.957s43.495-96.957 96.956-96.957c13.472 0 26.538 2.73 38.834 8.114.001 0 .002.001.003.001 24.494 10.74 43.646 31.34 52.547 56.52 1.451 4.105 5.309 6.67 9.428 6.67 1.106 0 2.231-.185 3.333-.575 5.207-1.84 7.936-7.554 6.096-12.761-9.538-26.983-28.837-49.597-53.736-63.392 23.722-40.879 66.787-65.883 114.626-65.883 69.982 0 127.469 54.494 132.276 123.275-12.015 1.528-23.53 5.703-33.764 12.321-4.638 2.999-5.966 9.189-2.967 13.827 1.914 2.959 5.126 4.571 8.406 4.571 1.86 0 3.743-.519 5.421-1.604 9.896-6.399 21.388-9.781 33.236-9.781 33.804.002 61.305 27.503 61.305 61.306 0 33.804-27.501 61.305-61.304 61.305h-30.356c-5.523 0-10 4.477-10 10s4.477 10 10 10h30.355c44.831 0 81.304-36.473 81.304-81.305.001-41.545-31.321-75.912-71.591-80.727z"/><circle cx="360.34" cy="398.609" r="10"/></g></g></svg>