<svg id="Capa_1" enable-background="new 0 0 512 512" height="512" viewBox="0 0 512 512" width="512" xmlns="http://www.w3.org/2000/svg"><g><g><g><path d="m430.696 156.804c0-78.761-63.848-142.609-142.609-142.609-56.401 0-105.149 32.744-128.286 80.258-13.121-5.745-27.605-8.953-42.845-8.953-59.07 0-106.956 47.886-106.956 106.956s47.886 106.956 106.956 106.956h313.739c39.38 0 71.304-31.924 71.304-71.304.001-39.38-31.923-71.304-71.303-71.304z" fill="#a0c8ff"/><g fill="#dfedff"><path d="m406 339.413-17.481 29.114c-8.16 13.59 1.629 30.886 17.481 30.886 15.852 0 25.641-17.296 17.481-30.886z"/><path d="m256 339.413-17.481 29.114c-8.16 13.59 1.629 30.886 17.481 30.886 15.852 0 25.641-17.296 17.481-30.886z"/><path d="m181 437.804-17.481 29.114c-8.16 13.59 1.629 30.886 17.481 30.886 15.852 0 25.641-17.296 17.481-30.886z"/><path d="m330.586 437.804-17.481 29.114c-8.16 13.59 1.629 30.886 17.481 30.886 15.852 0 25.641-17.296 17.481-30.886z"/><path d="m106 339.413-17.481 29.114c-8.16 13.59 1.629 30.886 17.481 30.886 15.852 0 25.641-17.296 17.481-30.886z"/></g></g></g><g><path d="m440.407 147.381c-4.882-79.777-71.336-143.185-152.32-143.185-29.166 0-57.521 8.258-81.997 23.882-21.207 13.537-38.688 32.018-50.979 53.808-12.25-4.241-25.043-6.386-38.154-6.386-64.491 0-116.957 52.466-116.957 116.956s52.466 116.957 116.956 116.957h203.385c5.523 0 10-4.477 10-10s-4.477-10-10-10h-203.385c-127.429-2.307-127.399-191.634.004-193.913 40.289-.481 78.331 26.614 91.379 64.635 1.451 4.105 5.31 6.67 9.429 6.67 1.105 0 2.23-.185 3.333-.575 5.207-1.84 7.936-7.554 6.096-12.761-9.537-26.982-28.837-49.596-53.735-63.391 23.721-40.879 66.787-65.883 114.626-65.883 69.982 0 127.469 54.493 132.275 123.275-12.014 1.528-23.529 5.703-33.763 12.32-4.638 2.999-5.967 9.19-2.968 13.828 1.914 2.959 5.127 4.571 8.407 4.571 1.859 0 3.742-.519 5.42-1.604 39.013-26.561 95.787 4.142 94.54 51.524-1.969 52.603-46.6 65.672-91.658 61.303-5.522 0-10 4.477-10 10s4.478 10 10 10h30.355c44.832 0 81.305-36.473 81.305-81.304-.001-41.544-31.323-75.912-71.594-80.727z"/><circle cx="360.34" cy="299.413" r="10"/><path d="m414.573 334.266c-1.808-3.011-5.062-4.853-8.573-4.853s-6.766 1.842-8.573 4.853l-17.48 29.113c-5.712 9.513-5.859 20.957-.394 30.613s15.352 15.421 26.447 15.421 20.982-5.765 26.447-15.421c5.466-9.656 5.318-21.101-.394-30.613zm.469 49.875c-.897 1.585-3.574 5.272-9.042 5.272s-8.145-3.687-9.042-5.272c-.898-1.585-2.68-5.779.135-10.467l8.907-14.834 8.907 14.835c2.815 4.687 1.033 8.881.135 10.466z"/><path d="m264.573 334.266c-1.808-3.011-5.062-4.853-8.573-4.853-3.512 0-6.766 1.842-8.573 4.853l-17.48 29.113c-5.712 9.513-5.859 20.957-.394 30.613s15.352 15.421 26.447 15.421 20.982-5.765 26.447-15.421c5.466-9.656 5.318-21.101-.394-30.613zm.469 49.875c-.897 1.585-3.574 5.272-9.042 5.272s-8.145-3.687-9.042-5.272-2.68-5.779.135-10.467l8.907-14.834 8.907 14.835c2.815 4.687 1.033 8.881.135 10.466z"/><path d="m189.573 432.657c-1.808-3.011-5.061-4.853-8.573-4.853s-6.766 1.842-8.573 4.853l-17.48 29.114c-5.712 9.512-5.859 20.956-.394 30.612s15.352 15.421 26.447 15.421 20.982-5.765 26.447-15.421c5.466-9.656 5.318-21.1-.394-30.612zm.469 49.875c-.898 1.585-3.574 5.272-9.042 5.272s-8.145-3.687-9.042-5.272-2.68-5.778.135-10.466l8.907-14.835 8.907 14.835c2.815 4.688 1.032 8.881.135 10.466z"/><path d="m339.159 432.656c-1.808-3.01-5.062-4.852-8.573-4.852-3.512 0-6.766 1.842-8.573 4.853l-17.48 29.114c-5.712 9.512-5.859 20.956-.393 30.612 5.465 9.656 15.352 15.421 26.447 15.421s20.982-5.765 26.447-15.421c5.466-9.656 5.318-21.1-.393-30.613zm.469 49.876c-.897 1.585-3.574 5.272-9.042 5.272s-8.145-3.687-9.042-5.272-2.68-5.778.135-10.466l8.907-14.835 8.908 14.835c2.815 4.687 1.031 8.881.134 10.466z"/><path d="m114.573 334.266c-1.808-3.011-5.061-4.853-8.573-4.853s-6.766 1.842-8.573 4.853l-17.481 29.113c-5.712 9.513-5.859 20.957-.394 30.613s15.352 15.421 26.447 15.421 20.982-5.765 26.447-15.421c5.466-9.656 5.318-21.101-.394-30.613zm.469 49.875c-.897 1.585-3.574 5.272-9.042 5.272s-8.145-3.687-9.042-5.272-2.68-5.779.135-10.467l8.907-14.834 8.907 14.835c2.815 4.687 1.032 8.881.135 10.466z"/></g></g></svg>