<svg id="Capa_1" enable-background="new 0 0 512.002 512.002" height="512" viewBox="0 0 512.002 512.002" width="512" xmlns="http://www.w3.org/2000/svg"><g><g><g><path d="m386.143 272.731c0-66.002-53.505-119.506-119.506-119.506-47.264 0-88.115 27.44-107.503 67.256-10.995-4.814-23.133-7.503-35.904-7.503-49.501 0-89.63 40.129-89.63 89.63s40.129 89.63 89.63 89.63h262.914c33.001 0 59.753-26.752 59.753-59.753-.001-33.001-26.753-59.754-59.754-59.754z" fill="#a0c8ff"/><path d="m419.193 153.222c0 31.275-17.09 58.556-42.434 73.026-18.119-42.903-60.604-73.026-110.12-73.026-5.248 0-10.405.336-15.469.999-.01-.336-.01-.662-.01-.999 0-46.398 37.624-84.022 84.022-84.022s84.011 37.624 84.011 84.022z" fill="#ffcd69"/><g fill="#dfedff"><path d="m133.713 442.002-17.481 29.114c-8.16 13.59 1.629 30.886 17.481 30.886 15.852 0 25.641-17.296 17.481-30.886z"/><path d="m256.001 442.002-17.481 29.114c-8.16 13.59 1.629 30.886 17.481 30.886 15.852 0 25.641-17.296 17.481-30.886z"/><path d="m378.286 442.002-17.481 29.114c-8.16 13.59 1.629 30.886 17.481 30.886 15.852 0 25.641-17.296 17.481-30.886z"/></g></g></g><g><path d="m395.809 263.399c-.824-11.509-3.158-22.607-6.805-33.095 24.982-17.491 40.189-46.292 40.189-77.081 0-51.844-42.174-94.022-94.012-94.022-49.311 0-89.868 38.16-93.714 86.499-15.731 3.103-30.784 9.093-44.417 17.794-17.615 11.245-32.201 26.511-42.595 44.495-10.047-3.327-20.513-5.009-31.228-5.009-54.935 0-99.629 44.693-99.629 99.629s44.693 99.63 99.629 99.63h171.948c5.522 0 10-4.477 10-10s-4.478-10-10-10h-171.947c-104.656-1.895-104.632-157.387.003-159.259 33.089-.395 64.331 21.858 75.048 53.084 1.451 4.105 5.309 6.67 9.429 6.67 1.105 0 2.23-.185 3.333-.575 5.207-1.841 7.936-7.554 6.096-12.761-7.938-22.455-23.81-41.359-44.313-53.176 19.755-32.917 54.864-52.996 93.812-52.996 57.276 0 104.415 44.202 109.114 100.284-9.755 1.461-19.094 4.968-27.44 10.365-4.638 2.999-5.967 9.189-2.968 13.827 1.914 2.959 5.127 4.571 8.407 4.571 1.859 0 3.742-.518 5.42-1.604 83.786-41.693 111.146 98.057 16.007 91.569-5.522 0-10 4.477-10 10s4.478 10 10 10h10.966c38.463 0 69.754-31.291 69.754-69.753 0-35.183-26.182-64.366-60.087-69.086zm-129.173-120.174c-1.598 0-3.192.032-4.783.09 4.857-36.145 35.874-64.115 73.328-64.115 40.811 0 74.012 33.206 74.012 74.022 0 22.895-10.687 44.393-28.448 58.317-21.877-40.632-64.819-68.314-114.109-68.314z"/><circle cx="335.176" cy="392.238" r="10"/><path d="m291.214 35.999c1.257 4.39 5.26 7.25 9.609 7.25.911 0 1.838-.125 2.757-.389 5.309-1.52 8.382-7.056 6.862-12.366l-6.654-23.244c-1.52-5.31-7.063-8.381-12.366-6.862-5.31 1.52-8.382 7.056-6.862 12.366z"/><path d="m200.062 89.683 21.176 11.75c1.537.853 3.201 1.258 4.843 1.258 3.516 0 6.926-1.858 8.753-5.15 2.68-4.83.936-10.916-3.893-13.596l-21.176-11.75c-4.829-2.68-10.915-.937-13.596 3.892-2.679 4.83-.936 10.917 3.893 13.596z"/><path d="m470.3 216.76-21.176-11.75c-4.829-2.68-10.915-.937-13.596 3.892-2.68 4.83-.936 10.917 3.893 13.596l21.176 11.75c1.537.853 3.201 1.258 4.843 1.258 3.516 0 6.926-1.858 8.753-5.15 2.679-4.829.936-10.916-3.893-13.596z"/><path d="m488.014 109.472c-1.52-5.31-7.061-8.382-12.366-6.861l-23.244 6.654c-5.31 1.52-8.382 7.057-6.862 12.366 1.257 4.39 5.26 7.25 9.609 7.25.911 0 1.838-.126 2.757-.389l23.244-6.654c5.31-1.519 8.382-7.056 6.862-12.366z"/><path d="m390.862 52.875c1.537.853 3.201 1.258 4.843 1.258 3.516 0 6.926-1.858 8.753-5.15l11.75-21.176c2.68-4.83.936-10.917-3.893-13.596-4.828-2.68-10.916-.938-13.596 3.892l-11.75 21.176c-2.679 4.829-.936 10.916 3.893 13.596z"/><path d="m142.286 436.854c-1.808-3.01-5.062-4.852-8.573-4.852-3.512 0-6.766 1.842-8.573 4.852l-17.48 29.113c-5.712 9.513-5.859 20.957-.394 30.613s15.352 15.421 26.447 15.421 20.983-5.765 26.448-15.421 5.318-21.1-.394-30.613zm.47 49.876c-.897 1.586-3.574 5.273-9.043 5.273-5.468 0-8.144-3.687-9.042-5.272-.897-1.585-2.68-5.779.135-10.467l8.907-14.835 8.908 14.835c2.814 4.687 1.032 8.88.135 10.466z"/><path d="m264.574 436.854c-1.808-3.01-5.061-4.852-8.573-4.852s-6.766 1.842-8.573 4.852l-17.48 29.113c-5.712 9.513-5.859 20.957-.394 30.613s15.352 15.421 26.447 15.421 20.981-5.765 26.447-15.42c5.466-9.656 5.318-21.101-.393-30.614zm.469 49.876c-.897 1.586-3.574 5.273-9.042 5.273s-8.145-3.687-9.042-5.272c-.898-1.585-2.68-5.779.135-10.467l8.907-14.835 8.908 14.835c2.814 4.687 1.031 8.881.134 10.466z"/><path d="m386.859 436.854c-1.808-3.01-5.062-4.852-8.573-4.852-3.512 0-6.766 1.842-8.573 4.852l-17.48 29.113c-5.712 9.513-5.858 20.957-.393 30.613s15.353 15.421 26.448 15.421c11.096 0 20.982-5.765 26.447-15.421 5.466-9.656 5.318-21.101-.394-30.613zm.47 49.876c-.897 1.586-3.574 5.273-9.043 5.273-5.468 0-8.145-3.687-9.042-5.272s-2.68-5.779.135-10.467l8.907-14.835 8.908 14.835c2.815 4.687 1.032 8.88.135 10.466z"/></g></g></svg>