<svg id="Capa_1" enable-background="new 0 0 512 512" height="512" viewBox="0 0 512 512" width="512" xmlns="http://www.w3.org/2000/svg"><g><path d="m377.441 272.73c0-66.002-53.505-119.506-119.506-119.506-47.264 0-88.115 27.44-107.503 67.256-10.995-4.814-23.133-7.503-35.904-7.503-49.501 0-89.63 40.129-89.63 89.63s40.129 89.63 89.63 89.63h262.914c33.001 0 59.753-26.753 59.753-59.753-.001-33.002-26.753-59.754-59.754-59.754z" fill="#a0c8ff"/><path d="m493.298 159.061c0 55.5-29.95 104-74.57 130.23-10.73-10.26-25.28-16.56-41.29-16.56 0-5.22-.34-10.37-.99-15.41-2.54-19.79-9.93-38.06-20.93-53.59 20.86-14.37 37.04-35.05 45.81-59.27 4.71-13.01 7.28-27.06 7.28-41.71 0-37.06-16.45-70.27-42.45-92.75 43.39 6.86 80.62 32.22 103.39 67.75 14.09 21.99 22.63 47.87 23.65 75.68.07 1.87.1 3.75.1 5.63z" fill="#9ea6bf"/><path d="m493.198 153.431c-2.19.38-4.45.57-6.75.57-22.09 0-40-17.91-40-40 0-16.05 9.46-29.9 23.1-36.25 14.09 21.99 22.63 47.87 23.65 75.68z" fill="#cfd3df"/><path d="m423.068 193.721c0 29.83-19.6 55.09-46.62 63.6-2.54-19.79-9.93-38.06-20.93-53.59 20.86-14.37 37.04-35.05 45.81-59.27 13.36 12.19 21.74 29.75 21.74 49.26z" fill="#cfd3df"/><g fill="#dfedff"><path d="m367.853 443.113-17.745 28.954c-8.283 13.515 1.348 30.9 17.2 31.044 15.851.144 25.797-17.062 17.761-30.726z"/><path d="m245.571 442.002-17.745 28.954c-8.283 13.515 1.348 30.9 17.2 31.044 15.851.144 25.797-17.062 17.761-30.726z"/><path d="m123.289 440.891-17.745 28.954c-8.283 13.515 1.348 30.9 17.2 31.044 15.851.144 25.797-17.062 17.761-30.726z"/></g><circle cx="325.523" cy="392.236" r="10"/><path d="m500.991 153.064c-1.647-75.055-61.377-142.288-135.472-152.94-4.41-.699-8.75 1.613-10.631 5.664-1.881 4.05-.849 8.856 2.529 11.777 24.779 21.425 38.991 52.474 38.991 85.186 0 13.17-2.249 26.058-6.683 38.306-6.854 18.929-18.98 35.951-34.578 48.773-23.775-28.463-59.512-46.606-99.412-46.606-24.751 0-48.813 7.009-69.585 20.268-17.616 11.245-32.202 26.511-42.595 44.494-10.047-3.327-20.514-5.009-31.227-5.009-54.936 0-99.63 44.693-99.63 99.63 0 54.936 44.694 99.63 99.63 99.63h173.196c5.523 0 10-4.478 10-10s-4.477-10-10-10h-173.197c-104.658-1.895-104.633-157.389.003-159.26 33.087-.396 64.333 21.86 75.048 53.085 1.451 4.104 5.309 6.67 9.428 6.67 1.106 0 2.231-.186 3.332-.574 5.207-1.841 7.937-7.554 6.096-12.762-7.937-22.454-23.809-41.359-44.312-53.176 19.755-32.917 54.863-52.996 93.811-52.996 57.276 0 104.415 44.203 109.114 100.285-9.756 1.461-19.095 4.968-27.441 10.365-4.638 2.999-5.966 9.189-2.967 13.827 1.914 2.96 5.126 4.571 8.407 4.571 1.86 0 3.743-.518 5.421-1.603 82.906-41.669 111.333 96.776 17.255 91.568-5.523 0-10 4.478-10 10s4.477 10 10 10h9.718c38.462 0 69.753-31.291 69.753-69.753 0-15.316-4.965-29.492-13.366-41.01 19.34-13.39 35.647-30.919 47.549-51.272 15.347-26.192 22.959-56.675 21.815-87.138zm-20.728-9.336c-14.664-1.956-26.015-14.537-26.015-29.727 0-8.538 3.684-16.551 9.813-22.148 8.713 16.046 14.221 33.678 16.202 51.875zm-78.385 19.406c5.798 9.053 8.989 19.666 8.989 30.586 0 20.948-11.305 39.649-29.03 49.491-3.099-13.243-8.232-25.712-15.057-37.054 14.705-11.768 26.591-26.365 35.098-43.023zm15.511 113.825c-9.043-6.881-19.805-11.605-31.524-13.405 27.249-12.288 45.003-39.301 45.003-69.833 0-19.278-7.344-37.849-20.308-51.933 3.88-12.596 5.848-25.697 5.848-39.037 0-26.659-8.013-52.379-22.618-74.054 23.43 9.649 44.011 25.562 59.382 46.158-11.754 9.36-18.924 23.753-18.924 39.146 0 26.482 20.697 48.209 46.764 49.884-1.582 45.607-25.504 88.018-63.623 113.074z"/><path d="m375.958 436.853c-1.808-3.011-5.062-4.852-8.573-4.852-3.512 0-6.766 1.842-8.573 4.852l-17.481 29.114c-5.711 9.512-5.859 20.956-.394 30.611 5.465 9.657 15.353 15.422 26.448 15.422s20.983-5.765 26.448-15.422c5.465-9.655 5.317-21.1-.394-30.611zm.469 49.875c-.897 1.585-3.575 5.273-9.042 5.273s-8.145-3.688-9.043-5.273c-.897-1.585-2.68-5.778.135-10.466l8.908-14.835 8.908 14.835c2.814 4.688 1.031 8.881.134 10.466z"/><path d="m253.671 436.853c-1.808-3.011-5.061-4.852-8.573-4.852s-6.766 1.842-8.573 4.852l-17.481 29.114c-5.711 9.512-5.859 20.956-.394 30.611 5.465 9.657 15.352 15.422 26.448 15.422s20.983-5.765 26.448-15.422c5.465-9.655 5.317-21.1-.394-30.611zm.469 49.875c-.897 1.585-3.575 5.273-9.042 5.273-5.468 0-8.145-3.688-9.043-5.273-.897-1.585-2.68-5.778.135-10.466l8.908-14.835 8.908 14.835c2.814 4.688 1.031 8.881.134 10.466z"/><path d="m131.384 436.853c-1.808-3.011-5.062-4.852-8.573-4.852-3.512 0-6.766 1.842-8.573 4.852l-17.481 29.114c-5.711 9.512-5.858 20.956-.393 30.612s15.352 15.421 26.447 15.421c11.096 0 20.983-5.765 26.448-15.422 5.465-9.655 5.317-21.1-.394-30.611zm.469 49.875c-.897 1.585-3.575 5.273-9.042 5.273s-8.145-3.688-9.042-5.273-2.68-5.778.134-10.466l8.908-14.835 8.908 14.835c2.814 4.688 1.031 8.881.134 10.466z"/></g></svg>