<svg id="Capa_1" enable-background="new 0 0 512 512" height="512" viewBox="0 0 512 512" width="512" xmlns="http://www.w3.org/2000/svg"><g><g><g><path d="m430.696 162.638c0-78.761-63.848-142.609-142.609-142.609-56.401 0-105.149 32.744-128.286 80.258-13.121-5.745-27.605-8.953-42.845-8.953-59.07-.001-106.956 47.885-106.956 106.956 0 59.07 47.886 106.957 106.956 106.957h313.739c39.38 0 71.304-31.924 71.304-71.304s-31.923-71.305-71.303-71.305z" fill="#a0c8ff"/><g fill="#ffcd69"><path d="m128.332 491.97c13.053-35.425 26.106-70.851 39.159-106.276h-70.663l106.84-146.724-39.4 106.276h70.905c-35.614 48.908-71.228 97.816-106.841 146.724z"/><path d="m308.332 491.97c13.053-35.425 26.106-70.851 39.159-106.276h-70.663l106.84-146.724-39.4 106.276h70.905c-35.614 48.908-71.228 97.816-106.841 146.724z"/></g></g></g><g><path d="m440.418 153.217c-1.837-30.558-12.613-59.337-31.445-83.738-3.373-4.372-9.654-5.182-14.026-1.807-4.373 3.374-5.182 9.654-1.807 14.026 16.121 20.89 25.424 45.483 27.217 71.607-12.012 1.529-23.526 5.703-33.758 12.32-4.638 2.999-5.966 9.19-2.967 13.828 1.914 2.96 5.126 4.571 8.407 4.571 1.86 0 3.743-.518 5.421-1.604 9.889-6.395 21.373-9.776 33.211-9.781.01 0 .02.001.03.001 33.801 0 61.3 27.499 61.3 61.3 0 33.806-27.499 61.31-61.3 61.31h-57.232l19.576-52.803c1.736-4.683-.249-9.929-4.651-12.289-4.401-2.36-9.87-1.111-12.81 2.927l-45.267 62.165h-136.849l19.576-52.803c1.736-4.683-.249-9.929-4.651-12.289-4.4-2.36-9.87-1.111-12.81 2.927l-45.267 62.165h-33.356c-53.464 0-96.96-43.496-96.96-96.96s43.496-96.96 96.96-96.96c13.471 0 26.534 2.731 38.826 8.119.018.008.035.013.053.02 24.472 10.746 43.606 31.336 52.501 56.5 1.451 4.105 5.309 6.67 9.428 6.67 1.106 0 2.231-.185 3.333-.575 5.207-1.84 7.936-7.554 6.096-12.761-9.538-26.983-28.837-49.597-53.735-63.392 23.723-40.878 66.789-65.882 114.629-65.882 15.441 0 30.564 2.627 44.948 7.809 5.198 1.872 10.926-.823 12.797-6.019s-.823-10.926-6.019-12.797c-16.564-5.967-33.968-8.992-51.726-8.992-29.167 0-57.521 8.258-81.997 23.88-21.208 13.537-38.689 32.018-50.983 53.81-12.246-4.244-25.04-6.39-38.149-6.39-64.494-.001-116.962 52.467-116.962 116.959s52.468 116.96 116.96 116.96h18.793l-47.01 64.559c-2.214 3.041-2.535 7.068-.829 10.421 1.707 3.353 5.15 5.465 8.913 5.465h56.321l-34.2 92.818c-1.726 4.683.266 9.921 4.666 12.275 1.495.799 3.112 1.183 4.711 1.183 3.109 0 6.15-1.451 8.09-4.114l106.84-146.724c2.214-3.042 2.535-7.069.829-10.422-1.707-3.353-5.15-5.465-8.913-5.465h-56.531l7.414-19.997h129.7l-47.01 64.559c-2.214 3.041-2.535 7.068-.829 10.421 1.707 3.353 5.15 5.465 8.913 5.465h56.321l-34.2 92.818c-1.726 4.683.266 9.921 4.667 12.275 1.495.799 3.112 1.183 4.711 1.183 3.109 0 6.15-1.451 8.09-4.114l106.84-146.724c2.214-3.042 2.535-7.069.829-10.422-1.707-3.353-5.15-5.465-8.913-5.465h-56.533l7.414-19.997h64.646c44.829 0 81.3-36.475 81.3-81.31 0-41.538-31.318-75.902-71.582-80.72zm-224.898 202.029-52.943 72.707 14.297-38.801c1.13-3.068.689-6.495-1.181-9.177s-4.933-4.28-8.203-4.28h-51.011l52.631-72.278-14.219 38.354c-1.138 3.069-.702 6.501 1.168 9.188 1.869 2.687 4.936 4.289 8.208 4.289h51.253zm180 0-52.943 72.707 14.297-38.801c1.13-3.068.689-6.495-1.181-9.177s-4.933-4.28-8.203-4.28h-51.011l52.631-72.278-14.219 38.354c-1.138 3.069-.702 6.501 1.168 9.188 1.869 2.687 4.935 4.289 8.208 4.289h51.253z"/><circle cx="372.084" cy="47.39" r="10"/></g></g></svg>