<svg id="Capa_1" enable-background="new 0 0 512 512" height="512" viewBox="0 0 512 512" width="512" xmlns="http://www.w3.org/2000/svg"><g><g><path d="m430.696 189.5c0-78.761-63.848-142.609-142.609-142.609-56.401 0-105.149 32.745-128.286 80.258-13.121-5.745-27.605-8.953-42.845-8.953-59.07 0-106.956 47.886-106.956 106.956s47.886 106.956 106.956 106.956h313.739c39.38 0 71.304-31.924 71.304-71.304s-31.923-71.304-71.303-71.304z" fill="#a0c8ff"/></g><g><path d="m299.768 395.737c-2.966-4.658-9.148-6.031-13.806-3.064l-19.962 12.713v-23.277c0-5.523-4.478-10-10-10-5.523 0-10 4.477-10 10v23.277l-19.962-12.712c-4.659-2.966-10.839-1.595-13.806 3.064s-1.596 10.84 3.063 13.807l22.087 14.065-22.087 14.065c-4.659 2.967-6.03 9.148-3.063 13.807 1.906 2.994 5.14 4.63 8.444 4.63 1.837 0 3.697-.506 5.361-1.566l19.963-12.714v23.277c0 5.523 4.477 10 10 10 5.522 0 10-4.477 10-10v-23.277l19.962 12.712c1.665 1.06 3.523 1.566 5.361 1.566 3.305 0 6.538-1.637 8.444-4.63 2.967-4.659 1.596-10.84-3.064-13.807l-22.087-14.065 22.087-14.065c4.66-2.966 6.031-9.147 3.065-13.806z"/><path d="m149.768 395.737c-2.967-4.658-9.149-6.031-13.806-3.064l-19.962 12.713v-23.277c0-5.523-4.478-10-10-10s-10 4.477-10 10v23.277l-19.962-12.712c-4.66-2.966-10.84-1.595-13.806 3.064-2.967 4.659-1.596 10.84 3.063 13.807l22.087 14.065-22.087 14.065c-4.659 2.967-6.03 9.148-3.063 13.807 1.906 2.994 5.14 4.63 8.444 4.63 1.837 0 3.697-.506 5.361-1.566l19.963-12.714v23.277c0 5.523 4.478 10 10 10s10-4.477 10-10v-23.277l19.962 12.712c1.665 1.06 3.523 1.566 5.361 1.566 3.305 0 6.538-1.637 8.444-4.63 2.967-4.659 1.596-10.84-3.063-13.807l-22.087-14.065 22.087-14.065c4.659-2.966 6.03-9.147 3.064-13.806z"/><path d="m449.768 395.737c-2.967-4.658-9.148-6.031-13.806-3.064l-19.962 12.713v-23.277c0-5.523-4.478-10-10-10s-10 4.477-10 10v23.277l-19.962-12.712c-4.66-2.966-10.84-1.595-13.806 3.064-2.967 4.659-1.596 10.84 3.064 13.807l22.087 14.065-22.087 14.065c-4.659 2.967-6.03 9.148-3.064 13.807 1.906 2.994 5.14 4.63 8.444 4.63 1.837 0 3.697-.506 5.361-1.566l19.963-12.714v23.277c0 5.523 4.478 10 10 10s10-4.477 10-10v-23.277l19.962 12.712c1.665 1.06 3.523 1.566 5.361 1.566 3.305 0 6.538-1.637 8.444-4.63 2.967-4.659 1.596-10.84-3.064-13.807l-22.087-14.065 22.087-14.065c4.66-2.966 6.031-9.147 3.065-13.806z"/><path d="m440.407 180.077c-4.882-79.778-71.336-143.186-152.32-143.186-29.166 0-57.521 8.258-81.997 23.882-21.207 13.537-38.688 32.019-50.98 53.808-12.249-4.241-25.042-6.386-38.153-6.386-64.491.001-116.957 52.467-116.957 116.957s52.466 116.957 116.956 116.957h203.385c5.523 0 10-4.477 10-10s-4.477-10-10-10h-203.385c-53.462 0-96.956-43.495-96.956-96.957s43.494-96.956 96.956-96.956c13.472 0 26.538 2.73 38.835 8.114.001 0 .002.001.003.001 24.494 10.74 43.646 31.341 52.545 56.52 1.451 4.105 5.31 6.67 9.429 6.67 1.105 0 2.23-.185 3.333-.575 5.207-1.84 7.936-7.554 6.096-12.761-9.537-26.982-28.837-49.596-53.735-63.391 23.72-40.879 66.786-65.883 114.626-65.883 69.982 0 127.469 54.494 132.275 123.275-12.014 1.528-23.53 5.703-33.764 12.321-4.638 2.999-5.966 9.189-2.967 13.827 1.914 2.959 5.127 4.571 8.407 4.571 1.859 0 3.742-.519 5.421-1.604 9.895-6.399 21.388-9.781 33.235-9.781 33.804 0 61.305 27.501 61.305 61.304 0 33.804-27.501 61.305-61.305 61.305h-30.355c-5.522 0-10 4.477-10 10s4.478 10 10 10h30.355c44.832 0 81.305-36.473 81.305-81.305 0-41.545-31.322-75.912-71.593-80.727z"/><circle cx="360.34" cy="332.109" r="10"/></g></g></svg>