<?xml version="1.0"?>
<svg xmlns="http://www.w3.org/2000/svg" xmlns:xlink="http://www.w3.org/1999/xlink" version="1.1" id="Capa_1" x="0px" y="0px" viewBox="0 0 512 512" style="enable-background:new 0 0 512 512;" xml:space="preserve" width="512px" height="512px"><g><g>
	<g>
		<path d="M256,0C196.182,0,137.984,21.215,92.129,59.735l-8.773,7.371l4.804,10.403c10.558,22.866-10,47.958-34.88,41.301    l-11.003-2.944l-5.791,9.808C12.616,166.102,0,211.167,0,256c0,140.957,115.049,256,256,256c140.957,0,256-115.048,256-256    C512,115.042,396.951,0,256,0z M256,482C131.383,482,30,380.617,30,256c0-36.216,9.407-72.7,27.292-106.134    c39.33,2.835,71.531-34.261,62.083-73.536C158.504,46.385,206.627,30,256,30c124.617,0,226,101.383,226,226S380.617,482,256,482z" data-original="#000000" class="active-path" data-old_color="#000000" fill="#E3E6F1"/>
	</g>
</g><g>
	<g>
		<rect x="181" y="90" width="30" height="30" data-original="#000000" class="active-path" data-old_color="#000000" fill="#E3E6F1"/>
	</g>
</g><g>
	<g>
		<path d="M346,271c-41.355,0-75,33.645-75,75c0,41.355,33.645,75,75,75c41.355,0,75-33.645,75-75C421,304.645,387.355,271,346,271z     M346,391c-24.813,0-45-20.187-45-45s20.187-45,45-45s45,20.187,45,45S370.813,391,346,391z" data-original="#000000" class="active-path" data-old_color="#000000" fill="#E3E6F1"/>
	</g>
</g><g>
	<g>
		<path d="M196,331c-24.813,0-45,20.187-45,45s20.187,45,45,45s45-20.187,45-45S220.813,331,196,331z M196,391    c-8.271,0-15-6.729-15-15s6.729-15,15-15s15,6.729,15,15S204.271,391,196,391z" data-original="#000000" class="active-path" data-old_color="#000000" fill="#E3E6F1"/>
	</g>
</g><g>
	<g>
		<path d="M391,150c-16.542,0-30,13.458-30,30s13.458,30,30,30s30-13.458,30-30S407.542,150,391,150z" data-original="#000000" class="active-path" data-old_color="#000000" fill="#E3E6F1"/>
	</g>
</g></g> </svg>
