<svg id="Capa_1" enable-background="new 0 0 512 512" height="512" viewBox="0 0 512 512" width="512" xmlns="http://www.w3.org/2000/svg"><g><path d="m252.25 279.704c1.16.67 2.455 1.005 3.75 1.005s2.59-.335 3.75-1.005l14.903-8.604c2.32-1.34 3.75-3.815 3.75-6.495v-17.209c0-2.68-1.43-5.155-3.75-6.495l-14.903-8.604c-2.32-1.34-5.18-1.34-7.5 0l-14.903 8.604c-2.32 1.34-3.75 3.815-3.75 6.495v17.209c0 2.68 1.43 5.155 3.75 6.495zm-3.653-27.978 7.403-4.274 7.403 4.274v8.549l-7.403 4.274-7.403-4.274z"/><path d="m469.467 353.265-31.202-18.015 31.2-18.014c5.207-3.004 8.931-7.856 10.486-13.663 1.556-5.806.757-11.87-2.249-17.072-3.005-5.206-7.856-8.93-13.661-10.485-5.808-1.554-11.869-.757-17.074 2.249l-53.702 31.005-15.388-8.885c8.248-7.038 10.299-18.948 4.873-28.347-3.005-5.205-7.857-8.928-13.662-10.483-5.805-1.557-11.868-.758-17.073 2.248l-18.75 10.825-24.861-14.354v-8.549l24.861-14.354 18.75 10.825c5.204 3.005 11.266 3.803 17.073 2.248 5.805-1.556 10.657-5.278 13.662-10.483s3.804-11.269 2.248-17.074c-1.194-4.458-3.666-8.353-7.106-11.281l15.373-8.876 53.702 31.005c5.205 3.005 11.27 3.805 17.073 2.248 5.806-1.556 10.658-5.278 13.662-10.483 6.203-10.744 2.509-24.532-8.235-30.735l-31.202-18.015 31.201-18.015c5.206-3.004 8.929-7.856 10.484-13.662s.757-11.869-2.248-17.072c-3.004-5.206-7.856-8.929-13.662-10.484-5.804-1.558-11.868-.759-17.073 2.248l-31.202 18.015v-36.027c.001-6.011-2.339-11.662-6.589-15.913-4.25-4.249-9.901-6.59-15.911-6.589-12.406 0-22.5 10.094-22.5 22.5v62.01l-15.388 8.884c-1.972-10.661-11.261-18.394-22.112-18.394-6.011 0-11.661 2.341-15.91 6.59-4.25 4.25-6.591 9.9-6.59 15.91v21.65l-24.861 14.354-7.403-4.274v-28.708l18.749-10.825c5.206-3.004 8.929-7.856 10.484-13.662 1.556-5.805.757-11.868-2.248-17.072-3.004-5.206-7.856-8.93-13.661-10.485-4.457-1.194-9.068-1.001-13.324.514v-17.753l53.701-31.005c5.206-3.004 8.929-7.856 10.484-13.662 1.556-5.805.757-11.868-2.248-17.072-3.004-5.206-7.856-8.93-13.662-10.485-5.805-1.557-11.87-.757-17.073 2.249l-31.203 18.014v-36.029c0-12.406-10.094-22.5-22.5-22.5s-22.5 10.094-22.5 22.5v36.029l-31.202-18.015c-5.204-3.005-11.27-3.804-17.073-2.248-5.805 1.556-10.657 5.278-13.662 10.483s-3.804 11.269-2.248 17.073c1.556 5.806 5.278 10.658 10.483 13.662l53.702 31.006v17.752c-4.256-1.516-8.865-1.708-13.323-.515-5.806 1.556-10.658 5.279-13.662 10.484-3.005 5.205-3.804 11.269-2.248 17.073 1.556 5.806 5.278 10.658 10.483 13.662l18.75 10.825v28.708l-7.403 4.274-24.862-14.353v-21.65c0-12.406-10.094-22.5-22.5-22.5-6.01 0-11.66 2.34-15.91 6.59-3.264 3.263-5.401 7.353-6.218 11.795l-15.373-8.875.001-62.01c0-12.406-10.094-22.5-22.499-22.5-6.013 0-11.662 2.341-15.912 6.59-4.25 4.25-6.59 9.901-6.589 15.91v36.029l-31.202-18.015c-5.204-3.006-11.271-3.804-17.073-2.248-5.806 1.556-10.658 5.278-13.662 10.482-3.005 5.205-3.804 11.269-2.248 17.074s5.278 10.658 10.483 13.662l31.202 18.015-31.202 18.015c-10.744 6.203-14.438 19.991-8.235 30.734 3.004 5.206 7.856 8.929 13.661 10.484 5.803 1.555 11.867.757 17.073-2.248l53.702-31.005 15.374 8.876c-3.44 2.929-5.912 6.824-7.106 11.281-1.556 5.806-.757 11.869 2.248 17.073 3.004 5.206 7.856 8.929 13.662 10.484s11.868.757 17.073-2.248l18.75-10.825 24.861 14.354v8.549l-24.861 14.354-18.75-10.825c-5.205-3.005-11.268-3.805-17.073-2.248-5.805 1.556-10.657 5.278-13.662 10.483s-3.804 11.269-2.249 17.073c1.194 4.459 3.667 8.354 7.106 11.282l-15.372 8.876-14.731-8.505c-3.589-2.071-8.175-.843-10.245 2.745-2.071 3.587-.842 8.174 2.745 10.245l18.481 10.67c2.32 1.34 5.18 1.34 7.5 0l30-17.321c2.32-1.34 3.75-3.815 3.75-6.495s-1.43-5.155-3.75-6.495l-7.502-4.331c-1.734-1.001-2.976-2.617-3.493-4.552-.519-1.936-.252-3.957.75-5.692s2.619-2.977 4.555-3.495c1.933-.52 3.956-.252 5.69.75l22.5 12.99c2.32 1.34 5.18 1.34 7.5 0l32.361-18.684c2.32-1.34 3.75-3.815 3.75-6.495v-17.209c0-2.68-1.43-5.155-3.75-6.495l-32.361-18.684c-2.32-1.34-5.18-1.34-7.5 0l-22.501 12.99c-1.735 1.001-3.755 1.267-5.69.75-1.935-.519-3.552-1.76-4.554-3.495s-1.269-3.757-.75-5.692 1.76-3.551 3.495-4.553l7.5-4.33c2.32-1.34 3.75-3.815 3.75-6.495s-1.43-5.155-3.75-6.495l-30.001-17.321c-2.32-1.34-5.18-1.34-7.5 0l-57.453 33.17c-1.734 1.002-3.756 1.268-5.689.75-1.935-.519-3.552-1.76-4.554-3.495s-1.268-3.756-.75-5.691c.519-1.935 1.76-3.552 3.495-4.554l42.452-24.51c2.32-1.34 3.75-3.815 3.75-6.495s-1.43-5.155-3.75-6.495l-42.453-24.51c-1.734-1.002-2.976-2.619-3.494-4.554-.518-1.936-.252-3.956.75-5.692 1.002-1.734 2.619-2.976 4.554-3.494 1.933-.519 3.955-.252 5.691.75l42.452 24.51c2.32 1.34 5.18 1.34 7.5 0s3.75-3.815 3.75-6.495v-49.021c0-2.003.779-3.886 2.195-5.302 1.417-1.416 3.3-2.196 5.304-2.196 4.137 0 7.501 3.364 7.501 7.5l-.001 66.34c0 2.68 1.43 5.155 3.75 6.495l30.001 17.32c2.32 1.34 5.18 1.34 7.5 0s3.75-3.815 3.75-6.495v-8.662c0-2.002.779-3.885 2.195-5.302 1.417-1.416 3.301-2.196 5.305-2.196 4.136 0 7.5 3.364 7.5 7.5v25.98c0 2.68 1.43 5.155 3.75 6.495l32.361 18.685c2.32 1.34 5.18 1.34 7.5 0l14.903-8.604c2.32-1.34 3.75-3.815 3.75-6.495v-37.368c0-2.68-1.43-5.155-3.75-6.495l-22.501-12.99c-1.734-1.002-2.976-2.619-3.494-4.554s-.252-3.956.75-5.692c1.002-1.734 2.619-2.976 4.555-3.494 1.933-.52 3.954-.253 5.69.75l7.5 4.33c2.32 1.34 5.18 1.34 7.5 0s3.75-3.815 3.75-6.495v-34.643c0-2.68-1.43-5.155-3.75-6.495l-57.453-33.17c-1.734-1.002-2.976-2.619-3.494-4.554s-.252-3.956.75-5.691c2.068-3.581 6.666-4.81 10.245-2.745l42.452 24.51c2.32 1.34 5.18 1.34 7.5 0s3.75-3.815 3.75-6.495v-49.02c0-4.136 3.364-7.5 7.5-7.5s7.5 3.364 7.5 7.5v49.02c0 2.68 1.43 5.155 3.75 6.495s5.18 1.34 7.5 0l42.453-24.511c1.734-1.002 3.753-1.268 5.69-.749 1.935.519 3.552 1.76 4.554 3.495s1.269 3.757.75 5.691-1.76 3.552-3.495 4.554l-57.452 33.17c-2.32 1.34-3.75 3.815-3.75 6.495v34.642c0 2.68 1.43 5.155 3.75 6.495s5.18 1.34 7.5 0l7.502-4.331c1.734-1.002 3.754-1.27 5.689-.749 1.935.519 3.552 1.76 4.554 3.495s1.268 3.757.75 5.691c-.519 1.935-1.76 3.552-3.495 4.554l-22.5 12.99c-2.32 1.34-3.75 3.815-3.75 6.495v37.368c0 2.68 1.43 5.155 3.75 6.495l14.903 8.604c2.32 1.34 5.18 1.34 7.5 0l32.361-18.685c2.32-1.34 3.75-3.815 3.75-6.495v-25.981c0-2.003.779-3.886 2.196-5.303 1.416-1.416 3.3-2.196 5.304-2.196 3.62 0 6.719 2.583 7.365 6.139.091.497.135.943.135 1.361v8.66c0 2.68 1.43 5.155 3.75 6.495s5.18 1.34 7.5 0l30-17.32c2.32-1.34 3.75-3.815 3.75-6.495v-66.34c0-4.136 3.364-7.5 7.501-7.5 2.004 0 3.887.779 5.304 2.196 1.416 1.416 2.195 3.299 2.195 5.304v49.02c0 2.68 1.43 5.155 3.75 6.495s5.18 1.34 7.5 0l42.452-24.51c1.735-1.002 3.757-1.269 5.691-.75s3.552 1.76 4.554 3.496c1.002 1.734 1.268 3.755.75 5.69-.519 1.935-1.76 3.552-3.495 4.554l-42.452 24.51c-2.32 1.34-3.75 3.815-3.75 6.495s1.43 5.155 3.75 6.495l42.452 24.51c1.735 1.002 2.977 2.619 3.495 4.554.518 1.936.252 3.956-.75 5.692-1.002 1.734-2.619 2.976-4.554 3.494-1.935.517-3.956.251-5.691-.75l-57.452-33.17c-2.32-1.34-5.18-1.34-7.5 0l-30 17.321c-2.32 1.34-3.75 3.815-3.75 6.495s1.43 5.155 3.75 6.495l7.501 4.331c1.734 1.001 2.976 2.617 3.494 4.552.519 1.936.252 3.957-.75 5.692s-2.619 2.977-4.555 3.495c-1.935.517-3.956.251-5.69-.75l-22.5-12.99c-2.32-1.34-5.18-1.34-7.5 0l-32.36 18.685c-2.32 1.34-3.75 3.815-3.75 6.495v17.209c0 2.68 1.43 5.155 3.75 6.495l32.361 18.684c2.32 1.34 5.18 1.34 7.5 0l22.501-12.99c1.733-1.001 3.754-1.268 5.689-.75 1.936.519 3.553 1.76 4.555 3.495 1.811 3.136 1.122 7.11-1.638 9.452-.38.323-.743.582-1.107.793l-7.5 4.33c-2.32 1.34-3.75 3.815-3.75 6.495s1.43 5.155 3.75 6.495l30 17.321c2.32 1.34 5.18 1.34 7.5 0l57.453-33.17c1.733-1.004 3.756-1.269 5.69-.75s3.552 1.76 4.555 3.496c1.002 1.734 1.268 3.756.749 5.69s-1.759 3.552-3.495 4.554l-42.452 24.51c-2.32 1.34-3.75 3.815-3.75 6.495s1.43 5.155 3.75 6.495l42.453 24.51c1.734 1.002 2.976 2.619 3.494 4.554s.252 3.956-.75 5.691-2.619 2.976-4.554 3.494c-1.938.52-3.957.251-5.691-.749l-42.452-24.51c-2.32-1.34-5.18-1.34-7.5 0s-3.75 3.815-3.75 6.495v49.02c0 4.136-3.364 7.5-7.5 7.5s-7.5-3.364-7.5-7.5v-66.34c0-2.68-1.43-5.155-3.75-6.495l-30-17.32c-2.32-1.34-5.18-1.34-7.5 0s-3.75 3.815-3.75 6.495v8.662c0 2.002-.779 3.885-2.195 5.301-1.417 1.417-3.301 2.197-5.305 2.197-4.136 0-7.5-3.364-7.5-7.5v-25.98c0-2.68-1.43-5.155-3.75-6.495l-32.361-18.685c-2.32-1.34-5.18-1.34-7.5 0l-14.903 8.604c-2.32 1.34-3.75 3.815-3.75 6.495v37.368c0 2.68 1.43 5.155 3.75 6.495l22.501 12.99c1.734 1.002 2.976 2.619 3.494 4.554s.252 3.956-.75 5.692c-1.811 3.136-5.597 4.524-9.001 3.308-.475-.17-.882-.354-1.244-.563l-7.5-4.33c-2.32-1.34-5.18-1.34-7.5 0s-3.75 3.815-3.75 6.495v34.642c0 2.68 1.43 5.155 3.75 6.495l57.453 33.17c1.734 1.002 2.976 2.619 3.494 4.554s.252 3.956-.75 5.692c-1.002 1.734-2.619 2.976-4.554 3.494-1.938.517-3.956.252-5.691-.75l-42.452-24.51c-2.32-1.34-5.18-1.34-7.5 0s-3.75 3.815-3.75 6.495v49.02c0 4.136-3.364 7.5-7.5 7.5s-7.5-3.364-7.5-7.5v-49.02c0-2.68-1.43-5.155-3.75-6.495s-5.18-1.34-7.5 0l-42.452 24.51c-3.583 2.067-8.178.836-10.245-2.745-1.002-1.735-1.269-3.757-.75-5.691s1.76-3.552 3.495-4.554l57.452-33.17c2.32-1.34 3.75-3.815 3.75-6.495v-34.642c0-2.68-1.43-5.155-3.75-6.495s-5.18-1.34-7.5 0l-7.501 4.331c-1.734 1.001-3.757 1.267-5.689.749-1.936-.519-3.553-1.76-4.555-3.495s-1.268-3.757-.75-5.691c.519-1.935 1.76-3.552 3.495-4.554l22.5-12.99c2.32-1.34 3.75-3.815 3.75-6.495v-37.368c0-2.68-1.43-5.155-3.75-6.495l-14.903-8.604c-2.32-1.34-5.18-1.34-7.5 0l-32.361 18.685c-2.32 1.34-3.75 3.815-3.75 6.495v25.981c0 2.003-.779 3.886-2.196 5.303-1.416 1.416-3.3 2.196-5.304 2.196s-3.887-.78-5.304-2.197c-1.417-1.416-2.196-3.299-2.196-5.303v-8.66c0-2.68-1.43-5.155-3.75-6.495s-5.18-1.34-7.5 0l-30 17.32c-2.32 1.34-3.75 3.815-3.75 6.495v66.34c0 4.136-3.364 7.5-7.5 7.5s-7.5-3.364-7.5-7.5v-49.02c0-2.68-1.43-5.155-3.75-6.495s-5.18-1.34-7.5 0l-42.452 24.51c-1.734 1-3.756 1.269-5.691.749-1.935-.519-3.552-1.759-4.554-3.494s-1.268-3.757-.75-5.691c.519-1.935 1.76-3.552 3.495-4.554l42.452-24.51c2.32-1.34 3.75-3.815 3.75-6.495s-1.43-5.155-3.75-6.495l-42.453-24.511c-1.735-1.001-2.976-2.618-3.494-4.553s-.252-3.956.75-5.692c1.002-1.734 2.619-2.976 4.554-3.494 1.937-.518 3.955-.253 5.691.75l12.99 7.5c3.588 2.069 8.174.842 10.245-2.745s.842-8.174-2.745-10.245l-12.989-7.5c-5.206-3.006-11.269-3.803-17.075-2.249-5.805 1.556-10.656 5.279-13.66 10.483-3.007 5.204-3.806 11.269-2.25 17.074s5.279 10.658 10.484 13.662l31.202 18.015-31.201 18.015c-5.206 3.004-8.929 7.856-10.484 13.662-1.556 5.805-.757 11.868 2.248 17.073 3.005 5.204 7.856 8.928 13.661 10.483 5.805 1.554 11.868.758 17.074-2.248l31.202-18.015v36.029c0 12.406 10.094 22.5 22.5 22.5s22.5-10.094 22.5-22.5v-62.01l15.373-8.875c.816 4.442 2.954 8.531 6.217 11.795 4.25 4.249 9.9 6.59 15.91 6.59 6.011 0 11.661-2.341 15.91-6.59 4.25-4.25 6.591-9.9 6.59-15.91v-21.649l24.861-14.354 7.403 4.274v28.708l-18.749 10.825c-5.206 3.004-8.929 7.856-10.484 13.662-1.556 5.805-.757 11.868 2.248 17.072 3.004 5.206 7.856 8.93 13.662 10.485 4.456 1.194 9.065 1.001 13.323-.514v17.751l-53.701 31.005c-5.206 3.004-8.929 7.856-10.484 13.662-1.556 5.805-.757 11.868 2.248 17.073s7.857 8.928 13.662 10.483c5.807 1.558 11.869.758 17.073-2.248l31.202-18.015v36.031c0 12.406 10.094 22.5 22.5 22.5s22.5-10.094 22.5-22.5v-36.029l31.201 18.014c5.204 3.007 11.267 3.802 17.074 2.25 5.806-1.556 10.658-5.279 13.662-10.484 3.005-5.205 3.804-11.269 2.248-17.073-1.556-5.806-5.278-10.658-10.483-13.662l-53.702-31.006v-17.769c10.221 3.625 21.561-.554 26.985-9.953 3.005-5.205 3.804-11.269 2.248-17.073-1.556-5.806-5.278-10.658-10.483-13.662l-18.75-10.825v-28.708l7.403-4.274 24.861 14.354v21.65c0 12.406 10.094 22.5 22.5 22.5 6.01 0 11.66-2.341 15.91-6.59 3.264-3.264 5.401-7.353 6.218-11.795l15.372 8.875v62.01c0 12.406 10.094 22.5 22.5 22.5s22.5-10.094 22.5-22.5v-36.029l31.202 18.015c5.204 3.005 11.268 3.804 17.074 2.248 5.805-1.556 10.656-5.279 13.661-10.483 3.005-5.205 3.804-11.269 2.248-17.073-1.554-5.807-5.277-10.659-10.482-13.663z"/></g></svg>