<?xml version="1.0" encoding="iso-8859-1"?>
<!-- Generator: Adobe Illustrator 19.0.0, SVG Export Plug-In . SVG Version: 6.00 Build 0)  -->
<svg version="1.1" id="Layer_1" xmlns="http://www.w3.org/2000/svg" xmlns:xlink="http://www.w3.org/1999/xlink" x="0px" y="0px"
	 viewBox="0 0 488 488" style="enable-background:new 0 0 488 488;" xml:space="preserve">
<g>
	<g>
		<path d="M464.329,286.2L464.329,286.2l-75.3,33.1l-32.8-19.7V188.4l32.8-19.7l75.3,33.1c1.3,0.6,2.7,0.8,4,0.8
			c3.8,0,7.5-2.2,9.2-6c2.2-5.1-0.1-11-5.1-13.2l-62.3-27.4l43-25.8c4.7-2.8,6.3-9,3.4-13.7c-2.8-4.7-9-6.3-13.7-3.4l-44.3,26.6
			l7.1-67.5c0.6-5.5-3.4-10.4-8.9-11s-10.4,3.4-11,8.9l-8.7,82.5l-33,19.8c-16.5-8.9-33.1-17.3-49.3-25.5
			c-13.4-6.8-27.2-13.8-40.7-21V76l67.3-48.1c4.5-3.2,5.5-9.5,2.3-14s-9.5-5.5-13.9-2.3l-55.7,39.8V10c0-5.5-4.5-10-10-10
			s-10,4.5-10,10v41.9l-55.6-40.2c-4.5-3.2-10.7-2.2-14,2.2c-3.2,4.5-2.2,10.7,2.2,14l67.3,48.7v49.2c-13,6.7-26.2,12.9-39,18.9
			c-17.4,8.2-35.4,16.7-53.1,26.3l-30.8-18.5l-8.7-82.5c-0.6-5.5-5.5-9.5-11-8.9s-9.5,5.5-8.9,11l7.1,67.5l-44.3-26.6
			c-4.7-2.8-10.9-1.3-13.7,3.4c-2.8,4.7-1.3,10.9,3.4,13.7l43,25.8l-62.3,27.4c-5.1,2.2-7.4,8.1-5.1,13.2c1.6,3.7,5.3,6,9.2,6
			c1.3,0,2.7-0.3,4-0.8l75.3-33.1l32.8,19.7v111.2l-32.8,19.7l-75.3-33.1c-5.1-2.2-11,0.1-13.2,5.1c-2.2,5.1,0.1,11,5.1,13.2
			l62.3,27.4l-43,25.8c-4.7,2.8-6.3,9-3.4,13.7c1.9,3.1,5.2,4.9,8.6,4.9c1.8,0,3.5-0.5,5.1-1.4l44.3-26.6l-7.1,67.5
			c-0.6,5.5,3.4,10.4,8.9,11c0.4,0,0.7,0.1,1.1,0.1c5.1,0,9.4-3.8,9.9-9l8.7-82.5l31.5-18.9c15.9,8.6,32,16.4,47.7,23.9
			c14.3,6.9,29.1,13.9,43.7,21.7v50.1l-67.3,47.9c-4.5,3.2-5.6,9.4-2.4,13.9c3.2,4.5,9.4,5.6,13.9,2.4l55.7-39.6V478
			c0,5.5,4.5,10,10,10s10-4.5,10-10v-40.8l55.7,39.2c1.7,1.2,3.8,1.8,5.7,1.8c3.1,0,6.2-1.5,8.2-4.2c3.2-4.5,2.1-10.8-2.4-13.9
			l-67.2-47.3V362c16.3-9,33.1-17.6,49.4-26c13.1-6.7,26.5-13.6,39.9-20.8l33.7,20.2l8.7,82.5c0.5,5.1,4.9,9,9.9,9
			c0.3,0,0.7,0,1.1-0.1c5.5-0.6,9.5-5.5,8.9-11l-7.1-67.5l44.3,26.6c1.6,1,3.4,1.4,5.1,1.4c3.4,0,6.7-1.7,8.6-4.9
			c2.8-4.7,1.3-10.9-3.4-13.7l-43-25.8l62.3-27.4c5.1-2.2,7.4-8.1,5.1-13.2C475.329,286.3,469.429,284,464.329,286.2z
			 M152.029,200.4l72.7,43.6l-72.7,43.6V200.4z M234.129,339.5c-11.8-6.1-23.6-11.7-35.1-17.2c-12-5.7-24.2-11.6-36.3-17.8
			l71.4-42.8V339.5z M234.129,226.3l-72.1-43.3c13.8-7.2,27.9-13.8,41.6-20.3c10-4.7,20.3-9.5,30.5-14.6V226.3z M254.129,148.5
			c10.6,5.5,21.2,10.9,31.7,16.2c12.6,6.4,25.4,12.9,38.3,19.7l-70,42V148.5z M294.329,318.2L294.329,318.2
			c-13.2,6.8-26.8,13.8-40.2,21v-77.6l69.2,41.5C313.629,308.3,303.929,313.3,294.329,318.2z M336.229,287.6l-72.7-43.6l72.7-43.6
			V287.6z"/>
	</g>
</g>
<g>
</g>
<g>
</g>
<g>
</g>
<g>
</g>
<g>
</g>
<g>
</g>
<g>
</g>
<g>
</g>
<g>
</g>
<g>
</g>
<g>
</g>
<g>
</g>
<g>
</g>
<g>
</g>
<g>
</g>
</svg>
