<?xml version="1.0" encoding="utf-8"?>
<!-- Generator: Adobe Illustrator 24.3.0, SVG Export Plug-In . SVG Version: 6.00 Build 0)  -->
<svg version="1.1" id="Layer_1" xmlns="http://www.w3.org/2000/svg" xmlns:xlink="http://www.w3.org/1999/xlink" x="0px" y="0px"
	 viewBox="0 0 64 64" style="enable-background:new 0 0 64 64;" xml:space="preserve">
<style type="text/css">
	.st0{fill:#357491;}
	.st1{opacity:0.8;}
</style>
<g class="st1">
	<path d="M22.6,48.5h28.3c0.2,0,0.4,0,0.6,0v0c4.6,0,8.4-3.8,8.4-8.4c0-4.6-3.8-8.4-8.4-8.4c-0.7,0-1.3,0.1-2,0.3
		c-0.2,0.1-0.5,0-0.7-0.1c-0.2-0.1-0.3-0.3-0.4-0.6c-0.9-6-6-10.3-12.1-10.3c-6.7,0-12.2,5.5-12.2,12.2c0,0.3,0,0.7,0.1,1
		c0,0.2-0.1,0.5-0.2,0.7c-0.2,0.2-0.4,0.3-0.7,0.2c-0.2,0-0.5,0-0.7,0c-3.7,0-6.7,3-6.7,6.7S18.9,48.5,22.6,48.5 M22.5,33.4
		c0-0.1,0-0.1,0-0.2c0-7.7,6.2-13.9,13.9-13.9c6.6,0,12.1,4.5,13.5,10.9c0.5-0.1,1.1-0.1,1.6-0.1c5.5,0,10,4.5,10,10
		c0,5.5-4.5,10-10,10H22.6c-4.6,0-8.4-3.8-8.4-8.4C14.2,37.2,17.9,33.4,22.5,33.4"/>
	<path d="M12.5,24.5c0.5,0,1,0,1.6,0.1c1.4-6.3,6.9-10.9,13.5-10.9c2.9,0,5.6,0.9,7.9,2.5c0.4,0.3,0.5,0.8,0.2,1.1
		c-0.3,0.4-0.8,0.5-1.1,0.2c-2.1-1.4-4.5-2.2-7-2.2c-6,0-11.1,4.3-12.1,10.3c0,0.2-0.2,0.4-0.4,0.6c-0.2,0.1-0.4,0.2-0.6,0.1
		c-0.7-0.2-1.4-0.3-2-0.3c-4.6,0-8.4,3.8-8.4,8.4c0,4.3,3.2,7.9,7.5,8.4c0.5,0,0.8,0.5,0.7,0.9c0,0.4-0.4,0.7-0.8,0.7
		c0,0-0.1,0-0.1,0c-5.1-0.5-9-4.8-9-10C2.5,29.1,7,24.5,12.5,24.5"/>
</g>
</svg>
