<?xml version="1.0" encoding="utf-8"?>
<!-- Generator: Adobe Illustrator 24.3.0, SVG Export Plug-In . SVG Version: 6.00 Build 0)  -->
<svg version="1.1" id="Layer_1" xmlns="http://www.w3.org/2000/svg" xmlns:xlink="http://www.w3.org/1999/xlink" x="0px" y="0px"
	 viewBox="0 0 64 64" style="enable-background:new 0 0 64 64;" xml:space="preserve">
<style type="text/css">
	.st0{fill:#357491;}
	.st1{opacity:0.8;}
</style>
<g>
	<path d="M20,40c0-0.1,0.1-0.2,0.1-0.3 M31.1,40c0-0.1,0.1-0.2,0.1-0.3"/>
	<path d="M23.2,37.4h26.5c0.2,0,0.4,0,0.5,0v0c4.3,0,7.8-3.5,7.8-7.8s-3.5-7.8-7.8-7.8c-0.6,0-1.2,0.1-1.9,0.2
		c-0.2,0.1-0.4,0-0.6-0.1c-0.2-0.1-0.3-0.3-0.3-0.5c-0.9-5.6-5.6-9.6-11.2-9.6c-6.3,0-11.4,5.1-11.4,11.4c0,0.3,0,0.6,0,0.9
		c0,0.2-0.1,0.5-0.2,0.6c-0.2,0.2-0.4,0.2-0.6,0.2c-0.2,0-0.5,0-0.7,0c-3.5,0-6.3,2.8-6.3,6.3C16.9,34.6,19.8,37.4,23.2,37.4
		 M23.2,23.3v-0.2c0-7.1,5.8-12.9,12.9-12.9c6.1,0,11.3,4.2,12.6,10.1c0.5-0.1,1-0.1,1.5-0.1c5.2,0,9.4,4.2,9.4,9.4
		c0,5.2-4.2,9.4-9.4,9.4h-27c-4.3,0-7.8-3.5-7.8-7.8C15.4,26.8,18.9,23.3,23.2,23.3"/>
	<path d="M13.8,15c0.5,0,1,0,1.5,0.1C16.6,9.2,21.7,5,27.9,5c2.7,0,5.2,0.8,7.4,2.3c0.3,0.2,0.4,0.7,0.2,1.1
		c-0.2,0.3-0.7,0.4-1.1,0.2c-1.9-1.3-4.2-2.1-6.5-2.1c-5.6,0-10.4,4-11.2,9.6c0,0.2-0.2,0.4-0.3,0.5c-0.2,0.1-0.4,0.2-0.6,0.1
		c-0.6-0.2-1.3-0.2-1.9-0.2c-4.3,0-7.8,3.5-7.8,7.8c0,4,3,7.4,7,7.8c0.4,0,0.7,0.4,0.7,0.8c0,0.4-0.4,0.7-0.8,0.7c0,0-0.1,0-0.1,0
		c-4.8-0.5-8.4-4.5-8.4-9.3C4.4,19.2,8.6,15,13.8,15"/>
	<path d="M20.9,46.3c0,1.4-1.2,2.6-2.6,2.6c-1.4,0-2.6-1.2-2.6-2.6c0-1.4,1.1-2.6,2.6-2.6C19.7,43.7,20.9,44.9,20.9,46.3"/>
	<path d="M15.4,55.7c0,1.4-1.1,2.6-2.6,2.6c-1.4,0-2.6-1.1-2.6-2.6c0-1.4,1.1-2.6,2.6-2.6C14.3,53.2,15.4,54.3,15.4,55.7"/>
	<path d="M35.2,46.3c0,1.4-1.2,2.6-2.6,2.6c-1.4,0-2.6-1.2-2.6-2.6c0-1.4,1.1-2.6,2.6-2.6C34,43.7,35.2,44.9,35.2,46.3"/>
	<path d="M29.7,55.7c0,1.4-1.1,2.6-2.6,2.6c-1.4,0-2.6-1.1-2.6-2.6c0-1.4,1.1-2.6,2.6-2.6C28.6,53.2,29.7,54.3,29.7,55.7"/>
	<path d="M49.3,46.3c0,1.4-1.2,2.6-2.6,2.6c-1.4,0-2.6-1.2-2.6-2.6c0-1.4,1.1-2.6,2.6-2.6C48.2,43.7,49.3,44.9,49.3,46.3"/>
	<path d="M43.9,55.7c0,1.4-1.1,2.6-2.6,2.6c-1.4,0-2.6-1.1-2.6-2.6c0-1.4,1.1-2.6,2.6-2.6C42.7,53.2,43.9,54.3,43.9,55.7"/>
</g>
</svg>
