<?xml version="1.0" encoding="utf-8"?>
<!-- Generator: Adobe Illustrator 24.3.0, SVG Export Plug-In . SVG Version: 6.00 Build 0)  -->
<svg version="1.1" id="Layer_1" xmlns="http://www.w3.org/2000/svg" xmlns:xlink="http://www.w3.org/1999/xlink" x="0px" y="0px"
	 viewBox="0 0 64 64" style="enable-background:new 0 0 64 64;" xml:space="preserve">
<style type="text/css">
	.st0{fill:#357491;}
	.st1{opacity:0.8;}
</style>
<path d="M23,38.4h27.2c0.2,0,0.4,0,0.5,0v0c4.4,0,8.1-3.6,8.1-8.1c0-4.5-3.6-8.1-8.1-8.1c-0.6,0-1.3,0.1-1.9,0.2
	c-0.2,0.1-0.4,0-0.6-0.1c-0.2-0.1-0.3-0.3-0.3-0.5c-0.9-5.7-5.8-9.9-11.6-9.9c-6.5,0-11.7,5.3-11.7,11.7c0,0.3,0,0.6,0,0.9
	c0,0.2-0.1,0.5-0.2,0.6c-0.2,0.2-0.4,0.2-0.6,0.2c-0.2,0-0.5,0-0.7,0c-3.6,0-6.5,2.9-6.5,6.5S19.4,38.4,23,38.4 M22.9,23.8
	c0-0.1,0-0.1,0-0.2c0-7.3,6-13.3,13.3-13.3c6.3,0,11.7,4.3,13,10.4c0.5-0.1,1-0.1,1.5-0.1c5.3,0,9.7,4.3,9.7,9.7
	c0,5.3-4.3,9.7-9.7,9.7H23c-4.4,0-8.1-3.6-8.1-8.1C14.9,27.5,18.5,23.9,22.9,23.8 M13.3,15.3c0.5,0,1,0,1.5,0.1
	C16.1,9.3,21.4,5,27.8,5c2.7,0,5.4,0.8,7.6,2.4c0.4,0.3,0.4,0.7,0.2,1.1c-0.3,0.4-0.8,0.4-1.1,0.2c-2-1.4-4.3-2.1-6.7-2.1
	c-5.8,0-10.7,4.2-11.6,9.9c0,0.2-0.2,0.4-0.3,0.5c-0.2,0.1-0.4,0.2-0.6,0.1c-0.7-0.2-1.3-0.2-1.9-0.2c-4.4,0-8.1,3.6-8.1,8.1
	c0,4.1,3.1,7.6,7.2,8c0.4,0,0.7,0.4,0.7,0.9c0,0.4-0.4,0.7-0.8,0.7c0,0-0.1,0-0.1,0c-4.9-0.5-8.7-4.6-8.7-9.6
	C3.6,19.6,7.9,15.3,13.3,15.3 M25.3,43.6c0.4,0.2,0.5,0.7,0.3,1L20.5,55c-0.1,0.3-0.4,0.4-0.7,0.4c-0.1,0-0.2,0-0.3-0.1
	c-0.4-0.2-0.5-0.6-0.3-1l5.2-10.4C24.5,43.5,25,43.4,25.3,43.6 M35.5,43.6c0.4,0.2,0.5,0.7,0.3,1L30.7,55c-0.1,0.3-0.4,0.4-0.7,0.4
	c-0.1,0-0.2,0-0.3-0.1c-0.4-0.2-0.5-0.6-0.3-1l5.2-10.4C34.7,43.5,35.1,43.4,35.5,43.6 M45.6,43.6c0.4,0.2,0.5,0.7,0.3,1L40.8,55
	c-0.1,0.3-0.4,0.4-0.7,0.4c-0.1,0-0.2,0-0.3-0.1c-0.4-0.2-0.5-0.6-0.3-1l5.2-10.4C44.8,43.5,45.3,43.4,45.6,43.6"/>
</svg>
