<?xml version="1.0" encoding="utf-8"?>
<!-- Generator: Adobe Illustrator 24.3.0, SVG Export Plug-In . SVG Version: 6.00 Build 0)  -->
<svg version="1.1" id="Layer_1" xmlns="http://www.w3.org/2000/svg" xmlns:xlink="http://www.w3.org/1999/xlink" x="0px" y="0px"
	 viewBox="0 0 16 16" style="enable-background:new 0 0 16 16;" xml:space="preserve">
<style type="text/css">
	.st0{fill:#357491;}
	.st1{opacity:0.8;}
</style>
<g>
	<path d="M14.5,14h-13C1.2,14,1,14.2,1,14.5S1.2,15,1.5,15h13c0.3,0,0.5-0.2,0.5-0.5S14.8,14,14.5,14z"/>
	<path d="M8,8.1c0.4,0,0.7-0.3,0.7-0.6c0-0.4-0.3-0.7-0.7-0.7S7.3,7.1,7.3,7.5C7.3,7.9,7.6,8.1,8,8.1z"/>
	<path d="M4.8,9c0.3-0.2,0.4-0.6,0.2-0.9C4.9,7.8,4.5,7.7,4.2,7.9C3.9,8.1,3.8,8.5,3.9,8.8C4.1,9.1,4.5,9.2,4.8,9z"/>
	<path d="M1.6,11.6c0.3,0.2,0.7,0.1,0.9-0.2c0.2-0.3,0.1-0.7-0.2-0.9s-0.7-0.1-0.9,0.2C1.2,11,1.3,11.4,1.6,11.6z"/>
	<path d="M13.7,10.4c-0.3,0.2-0.4,0.6-0.2,0.9c0.2,0.3,0.6,0.4,0.9,0.2c0.3-0.2,0.4-0.6,0.2-0.9C14.4,10.4,14,10.3,13.7,10.4z"/>
	<path d="M10.9,8.1c-0.2,0.3-0.1,0.7,0.2,0.9c0.3,0.2,0.7,0.1,0.9-0.2c0.2-0.3,0.1-0.7-0.2-0.9C11.5,7.7,11.1,7.8,10.9,8.1z"/>
	<path d="M3.1,13.5c0.3,0.1,0.5-0.1,0.6-0.3C4.3,11.3,6,10,8,10s3.7,1.3,4.3,3.2c0.1,0.2,0.3,0.3,0.5,0.3c0,0,0.1,0,0.2,0
		c0.3-0.1,0.4-0.4,0.3-0.6C12.5,10.5,10.4,9,8,9s-4.5,1.5-5.2,3.8C2.7,13.1,2.8,13.4,3.1,13.5z"/>
	<path d="M10.9,3.9L12,2.7v2.8C12,5.8,12.2,6,12.5,6S13,5.8,13,5.5V2.7l1.1,1.1C14.2,4,14.4,4,14.5,4s0.3,0,0.4-0.1
		c0.2-0.2,0.2-0.5,0-0.7l-2-2c0,0-0.1-0.1-0.2-0.1C12.6,1,12.4,1,12.3,1c-0.1,0-0.1,0.1-0.2,0.1l-2,2c-0.2,0.2-0.2,0.5,0,0.7
		S10.7,4,10.9,3.9z"/>
</g>
</svg>
