<?xml version="1.0" encoding="utf-8"?>
<!-- Generator: Adobe Illustrator 24.3.0, SVG Export Plug-In . SVG Version: 6.00 Build 0)  -->
<svg version="1.1" id="Layer_1" xmlns="http://www.w3.org/2000/svg" xmlns:xlink="http://www.w3.org/1999/xlink" x="0px" y="0px"
	 viewBox="0 0 64 64" style="enable-background:new 0 0 64 64;" xml:space="preserve">
<style type="text/css">
	.st0{fill:#357491;}
	.st1{opacity:0.8;}
</style>
<path d="M27.5,52.8h24.9c0.2,0,0.3,0,0.5,0v0c4.1,0,7.4-3.3,7.4-7.4c0-4.1-3.3-7.4-7.4-7.4c-0.6,0-1.2,0.1-1.8,0.2
	c-0.2,0-0.4,0-0.6-0.1c-0.2-0.1-0.3-0.3-0.3-0.5c-0.8-5.2-5.3-9-10.6-9c-5.9,0-10.7,4.8-10.7,10.7c0,0.3,0,0.6,0,0.9
	c0,0.2-0.1,0.4-0.2,0.6C28.6,41,28.3,41,28.1,41c-0.2,0-0.4,0-0.6,0c-3.3,0-5.9,2.7-5.9,5.9C21.6,50.2,24.2,52.8,27.5,52.8
	 M27.4,39.5c0,0,0-0.1,0-0.2c0-6.7,5.5-12.2,12.2-12.2c5.8,0,10.6,4,11.9,9.5c0.5-0.1,0.9-0.1,1.4-0.1c4.9,0,8.8,3.9,8.8,8.8
	s-3.9,8.8-8.8,8.8h0c-0.1,0-2.9,0-6.6,0H27.5c-4.1,0-7.4-3.3-7.4-7.4C20.1,42.8,23.4,39.6,27.4,39.5 M13.1,32.2
	c0-6.4,5.2-11.7,11.7-11.7c3.9,0,7.3,1.7,9.5,5c0.2,0.3,0.1,0.8-0.2,1c-0.3,0.2-0.8,0.1-1-0.2c-1.9-2.9-4.9-4.3-8.3-4.3
	c-5.6,0-10.2,4.6-10.2,10.2c0,3.5,1.8,6.7,4.7,8.6c0.3,0.2,0.4,0.7,0.2,1c-0.1,0.2-0.4,0.3-0.6,0.3c-0.1,0-0.3,0-0.4-0.1
	C15.1,39.9,13.1,36.2,13.1,32.2 M24.6,17c-0.4,0-0.7-0.3-0.7-0.7v-5.8c0-0.4,0.3-0.7,0.7-0.7c0.4,0,0.7,0.3,0.7,0.7v5.8
	C25.3,16.7,25,17,24.6,17 M16.7,19.2c-0.1,0.1-0.3,0.1-0.4,0.1c-0.2,0-0.5-0.1-0.6-0.3l-3-4.9c-0.2-0.3-0.1-0.8,0.2-1
	c0.3-0.2,0.8-0.1,1,0.2l3,4.9C17.1,18.6,17,19,16.7,19.2 M10.7,25.3c-0.1,0-0.2,0-0.3-0.1l-5.1-2.7c-0.4-0.2-0.5-0.6-0.3-1
	c0.2-0.4,0.6-0.5,1-0.3l5.1,2.7c0.4,0.2,0.5,0.6,0.3,1C11.2,25.2,11,25.3,10.7,25.3 M3.1,31.2L3.1,31.2l5.8,0c0.4,0,0.7,0.3,0.7,0.7
	c0,0.4-0.3,0.7-0.7,0.7l-5.8,0c-0.4,0-0.7-0.3-0.7-0.7C2.4,31.6,2.7,31.2,3.1,31.2 M5.4,41.7l5.1-2.8c0.4-0.2,0.8-0.1,1,0.3
	c0.2,0.4,0.1,0.8-0.3,1L6,43C5.9,43,5.8,43,5.7,43c-0.3,0-0.5-0.1-0.6-0.4C4.9,42.3,5,41.9,5.4,41.7 M43.9,22.3l-5.1,2.8
	c-0.1,0.1-0.2,0.1-0.3,0.1c-0.3,0-0.5-0.1-0.6-0.4c-0.2-0.4-0.1-0.8,0.3-1l5.1-2.8c0.4-0.2,0.8-0.1,1,0.3
	C44.3,21.7,44.2,22.1,43.9,22.3 M15.6,45c0.2-0.3,0.7-0.4,1-0.2c0.3,0.2,0.4,0.7,0.2,1l-3.1,4.9c-0.1,0.2-0.4,0.3-0.6,0.3
	c-0.1,0-0.3,0-0.4-0.1c-0.3-0.2-0.4-0.7-0.2-1L15.6,45z M15.6,45 M33.6,19c-0.1,0.2-0.4,0.3-0.6,0.3c-0.1,0-0.3,0-0.4-0.1
	c-0.3-0.2-0.4-0.7-0.2-1l3.1-4.9c0.2-0.3,0.7-0.4,1-0.2c0.3,0.2,0.4,0.7,0.2,1L33.6,19z M33.6,19"/>
</svg>
