<?xml version="1.0" encoding="utf-8"?>
<!-- Generator: Adobe Illustrator 24.3.0, SVG Export Plug-In . SVG Version: 6.00 Build 0)  -->
<svg version="1.1" id="Layer_1" xmlns="http://www.w3.org/2000/svg" xmlns:xlink="http://www.w3.org/1999/xlink" x="0px" y="0px"
	 viewBox="0 0 16 16" style="enable-background:new 0 0 16 16;" xml:space="preserve">
<style type="text/css">
	.st0{fill:#357491;}
	.st1{opacity:0.8;}
</style>
<path d="M15,14.5c0,0.3-0.2,0.5-0.5,0.5h-13C1.2,15,1,14.8,1,14.5S1.2,14,1.5,14h13C14.8,14,15,14.2,15,14.5z M8,8.1
	c0.4,0,0.7-0.3,0.7-0.6c0-0.4-0.3-0.7-0.7-0.7S7.3,7.1,7.3,7.5C7.3,7.9,7.6,8.1,8,8.1z M4.8,9c0.3-0.2,0.4-0.6,0.2-0.9
	C4.9,7.8,4.5,7.7,4.2,7.9C3.9,8.1,3.8,8.5,3.9,8.8C4.1,9.1,4.5,9.2,4.8,9z M1.6,11.6c0.3,0.2,0.7,0.1,0.9-0.2
	c0.2-0.3,0.1-0.7-0.2-0.9s-0.7-0.1-0.9,0.2C1.2,11,1.3,11.4,1.6,11.6z M13.7,10.4c-0.3,0.2-0.4,0.6-0.2,0.9c0.2,0.3,0.6,0.4,0.9,0.2
	c0.3-0.2,0.4-0.6,0.2-0.9C14.4,10.4,14,10.3,13.7,10.4z M10.9,8.1c-0.2,0.3-0.1,0.7,0.2,0.9c0.3,0.2,0.7,0.1,0.9-0.2
	c0.2-0.3,0.1-0.7-0.2-0.9C11.5,7.7,11.1,7.8,10.9,8.1z M3.1,13.5c0.3,0.1,0.5-0.1,0.6-0.3C4.3,11.3,6,10,8,10s3.7,1.3,4.3,3.2
	c0.1,0.2,0.3,0.3,0.5,0.3c0,0,0.1,0,0.2,0c0.3-0.1,0.4-0.4,0.3-0.6C12.5,10.5,10.4,9,8,9s-4.5,1.5-5.2,3.8
	C2.7,13.1,2.8,13.4,3.1,13.5z M12.1,5.9c0,0,0.1,0.1,0.2,0.1c0.1,0,0.1,0,0.2,0s0.1,0,0.2,0c0.1,0,0.1-0.1,0.2-0.1l2-2
	c0.2-0.2,0.2-0.5,0-0.7s-0.5-0.2-0.7,0L13,4.3V1.5C13,1.2,12.8,1,12.5,1S12,1.2,12,1.5v2.8l-1.1-1.1c-0.2-0.2-0.5-0.2-0.7,0
	s-0.2,0.5,0,0.7L12.1,5.9z"/>
</svg>
