<?xml version="1.0" encoding="utf-8"?>
<!-- Generator: Adobe Illustrator 24.3.0, SVG Export Plug-In . SVG Version: 6.00 Build 0)  -->
<svg version="1.1" id="Layer_1" xmlns="http://www.w3.org/2000/svg" xmlns:xlink="http://www.w3.org/1999/xlink" x="0px" y="0px"
	 viewBox="0 0 64 64" style="enable-background:new 0 0 64 64;" xml:space="preserve">
<style type="text/css">
	.st0{fill:#357491;}
	.st1{opacity:0.8;}
</style>
<path d="M31.5,51.2c0.3,0.2,0.5,0.6,0.3,0.9l-2.4,4.7c-0.1,0.2-0.4,0.4-0.6,0.4c-0.1,0-0.2,0-0.3-0.1c-0.3-0.2-0.5-0.6-0.3-0.9
	l2.4-4.7C30.7,51.1,31.1,51,31.5,51.2 M40,51.2c-0.3-0.2-0.7,0-0.9,0.3l-2.4,4.7c-0.2,0.3,0,0.7,0.3,0.9c0.1,0,0.2,0.1,0.3,0.1
	c0.2,0,0.5-0.1,0.6-0.4l2.4-4.7C40.4,51.7,40.3,51.3,40,51.2 M48.4,51.2c-0.3-0.2-0.7,0-0.9,0.3l-2.4,4.7c-0.2,0.3,0,0.7,0.3,0.9
	c0.1,0,0.2,0.1,0.3,0.1c0.2,0,0.5-0.1,0.6-0.4l2.4-4.7C48.9,51.7,48.8,51.3,48.4,51.2 M27.8,46.5c-3,0-5.4-2.4-5.4-5.4
	c0-3,2.4-5.4,5.4-5.4c0.2,0,0.4,0,0.6,0c0.2,0,0.4-0.1,0.5-0.2c0.1-0.1,0.2-0.3,0.2-0.5c0-0.3,0-0.5,0-0.8c0-5.4,4.4-9.9,9.9-9.9
	c4.9,0,9,3.5,9.7,8.3c0,0.2,0.1,0.4,0.3,0.5c0.2,0.1,0.3,0.1,0.5,0.1c0.6-0.1,1.1-0.2,1.6-0.2c3.7,0,6.8,3,6.8,6.8
	c0,3.7-3,6.8-6.8,6.8v0c-0.2,0-0.3,0-0.5,0H27.8 M27.8,34.3c-3.7,0-6.7,3.1-6.7,6.8c0,3.7,3,6.8,6.8,6.8h23.4c4.5,0,8.1-3.6,8.1-8.1
	c0-4.5-3.6-8.1-8.1-8.1c-0.4,0-0.8,0-1.3,0.1c-1.1-5.1-5.6-8.8-10.9-8.8c-6.2,0-11.2,5-11.2,11.2V34.3 M14.6,27.6
	c0,3.7,1.9,7.1,4.9,9.1c0.1,0.1,0.2,0.1,0.4,0.1c0.2,0,0.4-0.1,0.6-0.3c0.2-0.3,0.1-0.7-0.2-0.9c-2.7-1.8-4.3-4.7-4.3-7.9
	c0-5.2,4.2-9.4,9.4-9.4c3.2,0,5.9,1.3,7.7,4c0.2,0.3,0.6,0.4,0.9,0.2c0.3-0.2,0.4-0.6,0.2-0.9c-2-3-5.1-4.6-8.8-4.6
	C19.4,16.8,14.6,21.6,14.6,27.6 M25.2,13.5c0.4,0,0.7-0.3,0.7-0.7V7.5c0-0.4-0.3-0.7-0.7-0.7c-0.4,0-0.7,0.3-0.7,0.7v5.3
	C24.5,13.2,24.8,13.5,25.2,13.5 M17.9,15.6c0.3-0.2,0.4-0.6,0.2-0.9l-2.8-4.5c-0.2-0.3-0.6-0.4-0.9-0.2c-0.3,0.2-0.4,0.6-0.2,0.9
	l2.8,4.5c0.1,0.2,0.3,0.3,0.6,0.3C17.7,15.7,17.8,15.6,17.9,15.6 M12.4,21.2c0.2,0,0.5-0.1,0.6-0.4c0.2-0.3,0.1-0.7-0.3-0.9L8,17.4
	c-0.3-0.2-0.7,0-0.9,0.3C6.9,18,7,18.4,7.4,18.6l4.7,2.5C12.2,21.2,12.3,21.2,12.4,21.2 M5.3,26.7c-0.4,0-0.7,0.3-0.7,0.7
	C4.7,27.7,5,28,5.3,28l5.3,0c0.4,0,0.7-0.3,0.7-0.7c0-0.4-0.3-0.7-0.7-0.7L5.3,26.7L5.3,26.7 M7.4,36.3c-0.3,0.2-0.4,0.6-0.3,0.9
	c0.1,0.2,0.4,0.3,0.6,0.3c0.1,0,0.2,0,0.3-0.1l4.7-2.6c0.3-0.2,0.4-0.6,0.3-0.9c-0.2-0.3-0.6-0.4-0.9-0.3L7.4,36.3 M42.9,18.4
	c0.3-0.2,0.4-0.6,0.3-0.9c-0.2-0.3-0.6-0.4-0.9-0.3l-4.7,2.6c-0.3,0.2-0.4,0.6-0.3,0.9c0.1,0.2,0.3,0.3,0.6,0.3c0.1,0,0.2,0,0.3-0.1
	L42.9,18.4 M14.1,43.8c-0.2,0.3-0.1,0.7,0.2,0.9c0.1,0.1,0.2,0.1,0.4,0.1c0.2,0,0.4-0.1,0.6-0.3L18,40c0.2-0.3,0.1-0.7-0.2-0.9
	c-0.3-0.2-0.7-0.1-0.9,0.2L14.1,43.8z M16.9,39.3 M36.3,10.9c0.2-0.3,0.1-0.7-0.2-0.9c-0.3-0.2-0.7-0.1-0.9,0.2l-2.8,4.5
	c-0.2,0.3-0.1,0.7,0.2,0.9c0.1,0.1,0.2,0.1,0.4,0.1c0.2,0,0.4-0.1,0.6-0.3L36.3,10.9z M33.4,15.4"/>
</svg>
