<?xml version="1.0" encoding="utf-8"?>
<!-- Generator: Adobe Illustrator 27.2.0, SVG Export Plug-In . SVG Version: 6.00 Build 0)  -->
<svg version="1.1" id="Lager_1" xmlns="http://www.w3.org/2000/svg" xmlns:xlink="http://www.w3.org/1999/xlink" x="0px" y="0px"
	 viewBox="0 0 64 64" style="enable-background:new 0 0 64 64;" xml:space="preserve">
<style type="text/css">
	.st0{fill:#758B93;}
	.st1{fill:url(#SVGID_1_);}
	.st2{fill:#DBF0F9;}
</style>
<g>
	<path class="st0" d="M39.08,48c-1.73,0-3.08-0.06-3.9-0.11c-0.93-0.05-2.13-0.1-3.52-0.15c-10.39-0.36-29.73-1.04-30.8-9.6
		L0.85,38.1l0-0.05c-0.21-6.07,9.26-8.34,12.64-8.96c-0.73-3.31-0.45-8.72,4.8-11.34c1.76-0.88,3.84-1.35,6.02-1.35
		c3.95,0,7.89,1.53,10.16,3.88c0.05-0.04,0.1-0.08,0.16-0.11c1.42-1.02,3.37-2.42,6.3-2.42c0.71,0,1.44,0.08,2.19,0.25
		c3.42,0.76,4.63,3.56,4.88,5.57c3.18,0.02,13.04,0.96,15.41,11.41c0.58,2.58,0.11,4.84-1.4,6.74C57.64,47.18,45.77,48,39.08,48z"/>
	
		<linearGradient id="SVGID_1_" gradientUnits="userSpaceOnUse" x1="-1104.3436" y1="18.9889" x2="-1098.967" y2="47.963" gradientTransform="matrix(-1 0 0 1 -1068.6543 0)">
		<stop  offset="0" style="stop-color:#DCF1F8"/>
		<stop  offset="0.1221" style="stop-color:#D4EBF2"/>
		<stop  offset="0.3075" style="stop-color:#BFD9E1"/>
		<stop  offset="0.5332" style="stop-color:#9DBCC5"/>
		<stop  offset="0.7881" style="stop-color:#6E949E"/>
		<stop  offset="1" style="stop-color:#416E7A"/>
	</linearGradient>
	<path class="st1" d="M14.77,29.93c0,0-2.72-7.91,3.97-11.26c5.29-2.65,12.69-0.77,15.55,2.98c1.76-1.1,4.14-3.64,8.6-2.65
		c4.35,0.97,4.14,5.62,4.14,5.62s12.74-1.08,15.38,10.59c2.64,11.66-19.68,12.1-27.17,11.66c-7.48-0.44-32.27-0.05-33.37-8.85
		C1.65,31.64,14.77,29.93,14.77,29.93z"/>
	<path class="st2" d="M2.19,36.2c3.81-3.7,14.56-4.3,14.56-4.3s-4.08-9.24,2.61-12.59c5.29-2.65,11.73,0.58,14.59,4.32
		c1.76-1.1,3.97-4.3,8.44-3.31c4.35,0.97,2.81,5.95,2.81,5.95s14.4-0.91,17.04,10.75c0.12,0.53,0.19,1.03,0.21,1.51
		c0.23-0.99,0.23-2.1-0.05-3.33c-2.64-11.66-15.38-10.59-15.38-10.59s0.22-4.66-4.14-5.62c-4.47-0.99-6.84,1.55-8.6,2.65
		c-2.86-3.74-10.26-5.62-15.55-2.98c-6.69,3.35-3.97,11.26-3.97,11.26S4.2,31.31,2.19,36.2z"/>
</g>
</svg>
