<?xml version="1.0" encoding="utf-8"?>
<!-- Generator: Adobe Illustrator 27.2.0, SVG Export Plug-In . SVG Version: 6.00 Build 0)  -->
<svg version="1.1" id="Lager_1" xmlns="http://www.w3.org/2000/svg" xmlns:xlink="http://www.w3.org/1999/xlink" x="0px" y="0px"
	 viewBox="0 0 64 64" style="enable-background:new 0 0 64 64;" xml:space="preserve">
<style type="text/css">
	.st0{fill:#4A6272;}
	.st1{fill:url(#SVGID_1_);}
	.st2{fill:#7986A8;}
</style>
<g>
	<path class="st0" d="M39.32,48.28c-1.74,0-3.09-0.06-3.92-0.11c-0.93-0.05-2.14-0.1-3.54-0.15C21.41,47.67,1.97,46.99,0.9,38.38
		l-0.01-0.05l0-0.05c-0.21-6.1,9.31-8.38,12.7-9c-0.73-3.32-0.46-8.76,4.82-11.4c1.77-0.88,3.86-1.35,6.05-1.35
		c3.97,0,7.93,1.54,10.21,3.9c0.05-0.04,0.11-0.08,0.16-0.11c1.43-1.03,3.39-2.44,6.33-2.44c0.71,0,1.45,0.08,2.2,0.25
		c3.44,0.76,4.65,3.58,4.91,5.6c3.2,0.02,13.11,0.97,15.48,11.46c0.59,2.59,0.11,4.87-1.41,6.77
		C57.96,47.46,46.04,48.28,39.32,48.28z"/>
	
		<linearGradient id="SVGID_1_" gradientUnits="userSpaceOnUse" x1="-1104.5624" y1="19.1282" x2="-1099.1591" y2="48.2462" gradientTransform="matrix(-1 0 0 1 -1068.6543 0)">
		<stop  offset="0" style="stop-color:#76809A"/>
		<stop  offset="0.1522" style="stop-color:#6E7A94"/>
		<stop  offset="0.3832" style="stop-color:#596A82"/>
		<stop  offset="0.6644" style="stop-color:#374F66"/>
		<stop  offset="0.9825" style="stop-color:#082A3F"/>
		<stop  offset="1" style="stop-color:#05283D"/>
	</linearGradient>
	<path class="st1" d="M14.89,30.12c0,0-2.74-7.95,3.99-11.31c5.32-2.66,12.75-0.77,15.63,2.99c1.77-1.11,4.16-3.66,8.64-2.66
		c4.37,0.97,4.16,5.65,4.16,5.65s12.8-1.08,15.46,10.64c2.65,11.72-19.78,12.16-27.3,11.72c-7.52-0.44-32.43-0.05-33.54-8.9
		C1.7,31.84,14.89,30.12,14.89,30.12z"/>
	<path class="st2" d="M2.25,36.43c3.83-3.72,14.63-4.32,14.63-4.32s-4.1-9.29,2.63-12.65c5.32-2.66,11.79,0.58,14.66,4.34
		c1.77-1.11,3.99-4.32,8.48-3.32c4.37,0.97,2.83,5.98,2.83,5.98s14.47-0.92,17.12,10.8c0.12,0.53,0.19,1.03,0.21,1.51
		c0.23-1,0.23-2.11-0.05-3.34C60.1,23.71,47.3,24.79,47.3,24.79s0.22-4.68-4.16-5.65c-4.49-1-6.87,1.55-8.64,2.66
		c-2.87-3.76-10.31-5.65-15.63-2.99c-6.72,3.36-3.99,11.31-3.99,11.31S4.27,31.51,2.25,36.43z"/>
</g>
</svg>
