<?xml version="1.0" encoding="utf-8"?>
<!-- Generator: Adobe Illustrator 27.2.0, SVG Export Plug-In . SVG Version: 6.00 Build 0)  -->
<svg version="1.1" id="Lager_1" xmlns="http://www.w3.org/2000/svg" xmlns:xlink="http://www.w3.org/1999/xlink" x="0px" y="0px"
	 viewBox="0 0 64 64" style="enable-background:new 0 0 64 64;" xml:space="preserve">
<style type="text/css">
	.st0{fill:#758B93;}
	.st1{fill:url(#SVGID_1_);}
	.st2{fill:#DBF0F9;}
	.st3{fill:#2C8ACA;}
	.st4{fill:url(#SVGID_00000080899689459685180700000014581906865153705915_);}
	.st5{fill:url(#SVGID_00000013175490628033546480000001028443460277199548_);}
	.st6{fill:url(#SVGID_00000149341822788848791610000010123899910261920151_);}
	.st7{fill:url(#SVGID_00000087375258341762789200000009996523539527383991_);}
	.st8{fill:url(#SVGID_00000096016804582385859850000010204303043047244170_);}
	.st9{fill:url(#SVGID_00000115509579443756090190000001628745279681338250_);}
	.st10{fill:url(#SVGID_00000132803727579448996970000014231085050657907086_);}
	.st11{fill:url(#SVGID_00000067233580225351501050000003571803013280083134_);}
	.st12{fill:url(#SVGID_00000115488230850593795750000017169247252774377102_);}
	.st13{fill:url(#SVGID_00000091017004707508535530000012251448658387302813_);}
</style>
<g>
	<path class="st0" d="M38.97,35.43c-1.76,0-3.13-0.06-3.98-0.11c-0.94-0.06-2.17-0.1-3.59-0.15C20.81,34.8,1.1,34.12,0.01,25.39
		L0,25.35l0-0.05c-0.21-6.19,9.44-8.5,12.88-9.13c-0.75-3.37-0.46-8.89,4.89-11.56c1.79-0.9,3.91-1.37,6.13-1.37
		c4.02,0,8.04,1.56,10.36,3.95c0.05-0.04,0.11-0.08,0.16-0.12c1.45-1.04,3.44-2.47,6.42-2.47c0.72,0,1.47,0.09,2.23,0.25
		c3.49,0.77,4.72,3.63,4.98,5.68c3.24,0.02,13.29,0.98,15.7,11.63c0.59,2.63,0.11,4.94-1.43,6.87
		C57.88,34.6,45.78,35.43,38.97,35.43z"/>
	
		<linearGradient id="SVGID_1_" gradientUnits="userSpaceOnUse" x1="-1104.1656" y1="5.8636" x2="-1098.686" y2="35.3926" gradientTransform="matrix(-1 0 0 1 -1068.6543 0)">
		<stop  offset="0" style="stop-color:#DCF1F8"/>
		<stop  offset="0.1221" style="stop-color:#D4EBF2"/>
		<stop  offset="0.3075" style="stop-color:#BFD9E1"/>
		<stop  offset="0.5332" style="stop-color:#9DBCC5"/>
		<stop  offset="0.7881" style="stop-color:#6E949E"/>
		<stop  offset="1" style="stop-color:#416E7A"/>
	</linearGradient>
	<path class="st1" d="M14.19,17.01c0,0-2.78-8.06,4.04-11.47c5.39-2.7,12.93-0.78,15.85,3.03c1.79-1.12,4.21-3.71,8.77-2.7
		c4.43,0.99,4.21,5.73,4.21,5.73s12.99-1.1,15.68,10.79c2.69,11.89-20.06,12.34-27.69,11.89c-7.63-0.45-32.89-0.05-34.01-9.02
		C0.82,18.76,14.19,17.01,14.19,17.01z"/>
	<path class="st2" d="M1.37,23.41c3.88-3.77,14.84-4.38,14.84-4.38S12.05,9.6,18.87,6.19c5.39-2.7,11.95,0.59,14.87,4.4
		c1.79-1.12,4.05-4.38,8.6-3.37c4.43,0.99,2.87,6.07,2.87,6.07s14.67-0.93,17.36,10.96c0.12,0.54,0.19,1.05,0.22,1.54
		c0.23-1.01,0.24-2.14-0.05-3.39c-2.69-11.89-15.68-10.79-15.68-10.79s0.22-4.75-4.21-5.73c-4.55-1.01-6.97,1.57-8.77,2.7
		c-2.92-3.81-10.45-5.73-15.85-3.03c-6.82,3.41-4.04,11.47-4.04,11.47S3.42,18.42,1.37,23.41z"/>
</g>
<g>
	<path class="st3" d="M17.93,56.26c-1.16-0.19-1.95-1.23-1.88-2.48c0.08-1.4,2.09-3.45,2.32-3.68l0.44-0.44l0.31,0.53
		c0.17,0.29,1.68,2.91,1.38,4.28C20.23,55.73,19.17,56.46,17.93,56.26z"/>
	
		<linearGradient id="SVGID_00000075130818584689015150000001444246628891013548_" gradientUnits="userSpaceOnUse" x1="84.4603" y1="250.4581" x2="86.8886" y2="256.3975" gradientTransform="matrix(0.7812 0.1267 -0.1268 0.7812 -16.6205 -155.3966)">
		<stop  offset="0" style="stop-color:#8ED1F3"/>
		<stop  offset="0.2826" style="stop-color:#86CDF1"/>
		<stop  offset="0.7201" style="stop-color:#70C1EC"/>
		<stop  offset="0.903" style="stop-color:#65BBE9"/>
	</linearGradient>
	<path style="fill:url(#SVGID_00000075130818584689015150000001444246628891013548_);" d="M20.04,54.38
		c-0.23,1.01-1.06,1.57-2.03,1.41c-0.97-0.16-1.53-1.02-1.48-1.98c0.07-1.25,2.18-3.37,2.18-3.37S20.31,53.15,20.04,54.38z"/>
</g>
<g>
	<path class="st3" d="M43.52,32.64c-1.47-0.24-2.47-1.56-2.38-3.13c0.1-1.76,2.65-4.36,2.94-4.65l0.55-0.55l0.4,0.67
		c0.22,0.37,2.13,3.68,1.74,5.41C46.42,31.97,45.08,32.89,43.52,32.64z"/>
	
		<linearGradient id="SVGID_00000034053853306506418400000017597877136270356622_" gradientUnits="userSpaceOnUse" x1="136.6217" y1="45.5042" x2="139.05" y2="51.4437" gradientTransform="matrix(0.9871 0.16 -0.16 0.9871 -84.4803 -40.8337)">
		<stop  offset="0" style="stop-color:#8ED1F3"/>
		<stop  offset="0.2826" style="stop-color:#86CDF1"/>
		<stop  offset="0.7201" style="stop-color:#70C1EC"/>
		<stop  offset="0.903" style="stop-color:#65BBE9"/>
	</linearGradient>
	<path style="fill:url(#SVGID_00000034053853306506418400000017597877136270356622_);" d="M46.18,30.26
		c-0.29,1.28-1.34,1.98-2.56,1.78c-1.22-0.2-1.94-1.28-1.87-2.5c0.09-1.59,2.76-4.25,2.76-4.25S46.52,28.71,46.18,30.26z"/>
</g>
<g>
	<path class="st3" d="M32.28,31.77c-1.47-0.24-2.47-1.56-2.38-3.13c0.1-1.76,2.65-4.36,2.94-4.65l0.55-0.55l0.4,0.67
		c0.22,0.37,2.13,3.68,1.74,5.41C35.18,31.09,33.84,32.02,32.28,31.77z"/>
	
		<linearGradient id="SVGID_00000066490438336090719460000012462486287597138579_" gradientUnits="userSpaceOnUse" x1="125.3849" y1="46.4418" x2="127.8132" y2="52.3813" gradientTransform="matrix(0.9871 0.16 -0.16 0.9871 -84.4803 -40.8337)">
		<stop  offset="0" style="stop-color:#8ED1F3"/>
		<stop  offset="0.2826" style="stop-color:#86CDF1"/>
		<stop  offset="0.7201" style="stop-color:#70C1EC"/>
		<stop  offset="0.903" style="stop-color:#65BBE9"/>
	</linearGradient>
	<path style="fill:url(#SVGID_00000066490438336090719460000012462486287597138579_);" d="M34.94,29.39
		c-0.29,1.28-1.34,1.98-2.56,1.78c-1.22-0.2-1.94-1.28-1.87-2.5c0.09-1.59,2.76-4.25,2.76-4.25S35.28,27.84,34.94,29.39z"/>
</g>
<g>
	<path class="st3" d="M34.7,44.25c-1.47-0.24-2.47-1.55-2.38-3.13c0.1-1.76,2.65-4.36,2.94-4.65l0.55-0.55l0.4,0.67
		c0.22,0.37,2.13,3.68,1.74,5.41C37.6,43.57,36.26,44.5,34.7,44.25z"/>
	
		<linearGradient id="SVGID_00000003783368418692067580000012647015987215946636_" gradientUnits="userSpaceOnUse" x1="129.7725" y1="58.3732" x2="132.2007" y2="64.3127" gradientTransform="matrix(0.9871 0.16 -0.16 0.9871 -84.4803 -40.8337)">
		<stop  offset="0" style="stop-color:#8ED1F3"/>
		<stop  offset="0.2826" style="stop-color:#86CDF1"/>
		<stop  offset="0.7201" style="stop-color:#70C1EC"/>
		<stop  offset="0.903" style="stop-color:#65BBE9"/>
	</linearGradient>
	<path style="fill:url(#SVGID_00000003783368418692067580000012647015987215946636_);" d="M37.36,41.87
		c-0.29,1.28-1.34,1.98-2.56,1.78c-1.22-0.2-1.94-1.28-1.87-2.5c0.09-1.59,2.76-4.25,2.76-4.25S37.7,40.32,37.36,41.87z"/>
</g>
<g>
	<path class="st3" d="M49.76,44.08c-1.47-0.24-2.47-1.56-2.38-3.13c0.1-1.76,2.65-4.36,2.94-4.65l0.55-0.55l0.4,0.67
		c0.22,0.37,2.13,3.68,1.74,5.41C52.66,43.41,51.32,44.33,49.76,44.08z"/>
	
		<linearGradient id="SVGID_00000106125791060210778840000013509547203090893985_" gradientUnits="userSpaceOnUse" x1="144.6123" y1="55.799" x2="147.0406" y2="61.7385" gradientTransform="matrix(0.9871 0.16 -0.16 0.9871 -84.4803 -40.8337)">
		<stop  offset="0" style="stop-color:#8ED1F3"/>
		<stop  offset="0.2826" style="stop-color:#86CDF1"/>
		<stop  offset="0.7201" style="stop-color:#70C1EC"/>
		<stop  offset="0.903" style="stop-color:#65BBE9"/>
	</linearGradient>
	<path style="fill:url(#SVGID_00000106125791060210778840000013509547203090893985_);" d="M52.42,41.7
		c-0.29,1.28-1.34,1.98-2.56,1.78c-1.22-0.2-1.94-1.28-1.87-2.5c0.09-1.59,2.76-4.25,2.76-4.25S52.76,40.15,52.42,41.7z"/>
</g>
<g>
	<path class="st3" d="M24.33,42.5c-1.47-0.24-2.47-1.55-2.38-3.13c0.1-1.76,2.65-4.36,2.94-4.65l0.55-0.55l0.4,0.67
		c0.22,0.37,2.13,3.68,1.74,5.41C27.23,41.83,25.9,42.75,24.33,42.5z"/>
	
		<linearGradient id="SVGID_00000139277126976209382480000003382896827695288235_" gradientUnits="userSpaceOnUse" x1="119.2608" y1="58.309" x2="121.6889" y2="64.2481" gradientTransform="matrix(0.9871 0.16 -0.16 0.9871 -84.4803 -40.8337)">
		<stop  offset="0" style="stop-color:#8ED1F3"/>
		<stop  offset="0.2826" style="stop-color:#86CDF1"/>
		<stop  offset="0.7201" style="stop-color:#70C1EC"/>
		<stop  offset="0.903" style="stop-color:#65BBE9"/>
	</linearGradient>
	<path style="fill:url(#SVGID_00000139277126976209382480000003382896827695288235_);" d="M26.99,40.12
		c-0.29,1.28-1.34,1.98-2.56,1.78c-1.22-0.2-1.94-1.28-1.87-2.5c0.09-1.59,2.76-4.25,2.76-4.25S27.34,38.57,26.99,40.12z"/>
</g>
<g>
	<path class="st3" d="M28.63,55.29c-1.47-0.24-2.47-1.55-2.38-3.13c0.1-1.76,2.65-4.36,2.94-4.65l0.55-0.55l0.4,0.67
		c0.22,0.37,2.13,3.68,1.74,5.41C31.53,54.62,30.19,55.54,28.63,55.29z"/>
	
		<linearGradient id="SVGID_00000006708786365530609080000011507919827156079744_" gradientUnits="userSpaceOnUse" x1="125.5457" y1="70.2477" x2="127.974" y2="76.1871" gradientTransform="matrix(0.9871 0.16 -0.16 0.9871 -84.4803 -40.8337)">
		<stop  offset="0" style="stop-color:#8ED1F3"/>
		<stop  offset="0.2826" style="stop-color:#86CDF1"/>
		<stop  offset="0.7201" style="stop-color:#70C1EC"/>
		<stop  offset="0.903" style="stop-color:#65BBE9"/>
	</linearGradient>
	<path style="fill:url(#SVGID_00000006708786365530609080000011507919827156079744_);" d="M31.29,52.91
		c-0.28,1.28-1.34,1.98-2.56,1.78c-1.22-0.2-1.94-1.28-1.87-2.5c0.09-1.59,2.76-4.25,2.76-4.25S31.63,51.36,31.29,52.91z"/>
</g>
<g>
	<path class="st3" d="M12.51,44.24c-1.47-0.24-2.47-1.55-2.38-3.13c0.1-1.76,2.65-4.36,2.94-4.65l0.55-0.55l0.4,0.67
		c0.22,0.37,2.13,3.68,1.74,5.41C15.41,43.57,14.07,44.5,12.51,44.24z"/>
	
		<linearGradient id="SVGID_00000026157124078953247510000016100019212755600524_" gradientUnits="userSpaceOnUse" x1="107.8707" y1="61.9233" x2="110.2988" y2="67.8624" gradientTransform="matrix(0.9871 0.16 -0.16 0.9871 -84.4803 -40.8337)">
		<stop  offset="0" style="stop-color:#8ED1F3"/>
		<stop  offset="0.2826" style="stop-color:#86CDF1"/>
		<stop  offset="0.7201" style="stop-color:#70C1EC"/>
		<stop  offset="0.903" style="stop-color:#65BBE9"/>
	</linearGradient>
	<path style="fill:url(#SVGID_00000026157124078953247510000016100019212755600524_);" d="M15.17,41.87
		c-0.29,1.28-1.34,1.98-2.56,1.78c-1.22-0.2-1.94-1.28-1.87-2.5c0.09-1.59,2.76-4.25,2.76-4.25S15.51,40.32,15.17,41.87z"/>
</g>
<g>
	<path class="st3" d="M18.9,32.64c-1.47-0.24-2.47-1.56-2.38-3.13c0.1-1.76,2.65-4.36,2.94-4.65l0.55-0.55l0.4,0.67
		c0.22,0.37,2.13,3.68,1.74,5.41C21.8,31.97,20.47,32.89,18.9,32.64z"/>
	
		<linearGradient id="SVGID_00000149382139290696890000000014876284885882477468_" gradientUnits="userSpaceOnUse" x1="112.3245" y1="49.4427" x2="114.7528" y2="55.3822" gradientTransform="matrix(0.9871 0.16 -0.16 0.9871 -84.4803 -40.8337)">
		<stop  offset="0" style="stop-color:#8ED1F3"/>
		<stop  offset="0.2826" style="stop-color:#86CDF1"/>
		<stop  offset="0.7201" style="stop-color:#70C1EC"/>
		<stop  offset="0.903" style="stop-color:#65BBE9"/>
	</linearGradient>
	<path style="fill:url(#SVGID_00000149382139290696890000000014876284885882477468_);" d="M21.56,30.26
		c-0.29,1.28-1.34,1.98-2.56,1.78c-1.22-0.2-1.94-1.28-1.87-2.5c0.09-1.59,2.76-4.25,2.76-4.25S21.91,28.71,21.56,30.26z"/>
</g>
<g>
	<path class="st3" d="M42.56,53.66c-1.47-0.24-2.47-1.55-2.38-3.13c0.1-1.76,2.65-4.36,2.94-4.65l0.55-0.55l0.4,0.67
		c0.22,0.37,2.13,3.68,1.74,5.41C45.46,52.99,44.13,53.91,42.56,53.66z"/>
	
		<linearGradient id="SVGID_00000179605461055676928670000013586300269707627152_" gradientUnits="userSpaceOnUse" x1="139.041" y1="66.4087" x2="141.4692" y2="72.3478" gradientTransform="matrix(0.9871 0.16 -0.16 0.9871 -84.4803 -40.8337)">
		<stop  offset="0" style="stop-color:#8ED1F3"/>
		<stop  offset="0.2826" style="stop-color:#86CDF1"/>
		<stop  offset="0.7201" style="stop-color:#70C1EC"/>
		<stop  offset="0.903" style="stop-color:#65BBE9"/>
	</linearGradient>
	<path style="fill:url(#SVGID_00000179605461055676928670000013586300269707627152_);" d="M45.22,51.28
		c-0.29,1.28-1.34,1.98-2.56,1.78c-1.22-0.2-1.94-1.28-1.87-2.5c0.09-1.59,2.76-4.25,2.76-4.25S45.57,49.73,45.22,51.28z"/>
</g>
</svg>
