<?xml version="1.0" encoding="utf-8"?>
<!-- Generator: Adobe Illustrator 27.2.0, SVG Export Plug-In . SVG Version: 6.00 Build 0)  -->
<svg version="1.1" id="Lager_1" xmlns="http://www.w3.org/2000/svg" xmlns:xlink="http://www.w3.org/1999/xlink" x="0px" y="0px"
	 viewBox="0 0 64 64" style="enable-background:new 0 0 64 64;" xml:space="preserve">
<style type="text/css">
	.st0{fill:#758B93;}
	.st1{fill:url(#SVGID_1_);}
	.st2{fill:#DBF0F9;}
	.st3{fill:#F5FBFD;}
</style>
<g>
	<path class="st0" d="M38.97,37.39c-1.76,0-3.13-0.06-3.98-0.11c-0.94-0.06-2.17-0.1-3.59-0.15c-10.59-0.37-30.29-1.06-31.39-9.78
		l-0.01-0.05l0-0.05c-0.21-6.19,9.44-8.5,12.88-9.13c-0.74-3.37-0.46-8.88,4.89-11.56c1.79-0.9,3.91-1.37,6.13-1.37
		c4.02,0,8.04,1.56,10.35,3.95c0.05-0.04,0.11-0.08,0.16-0.12c1.45-1.04,3.44-2.47,6.42-2.47c0.72,0,1.47,0.09,2.23,0.25
		c3.48,0.77,4.71,3.63,4.98,5.68c3.24,0.02,13.29,0.98,15.7,11.62c0.59,2.63,0.11,4.94-1.43,6.87
		C57.88,36.56,45.79,37.39,38.97,37.39z"/>
	
		<linearGradient id="SVGID_1_" gradientUnits="userSpaceOnUse" x1="-1104.171" y1="7.8336" x2="-1098.6925" y2="37.3567" gradientTransform="matrix(-1 0 0 1 -1068.6543 0)">
		<stop  offset="0" style="stop-color:#DCF1F8"/>
		<stop  offset="0.1221" style="stop-color:#D4EBF2"/>
		<stop  offset="0.3075" style="stop-color:#BFD9E1"/>
		<stop  offset="0.5332" style="stop-color:#9DBCC5"/>
		<stop  offset="0.7881" style="stop-color:#6E949E"/>
		<stop  offset="1" style="stop-color:#416E7A"/>
	</linearGradient>
	<path class="st1" d="M14.2,18.98c0,0-2.78-8.06,4.04-11.47c5.39-2.7,12.93-0.78,15.84,3.03c1.79-1.12,4.21-3.71,8.76-2.7
		c4.43,0.99,4.21,5.73,4.21,5.73s12.98-1.1,15.67,10.79c2.69,11.88-20.06,12.33-27.68,11.88c-7.62-0.45-32.88-0.05-34-9.02
		C0.83,20.72,14.2,18.98,14.2,18.98z"/>
	<path class="st2" d="M1.39,25.37c3.88-3.77,14.84-4.38,14.84-4.38s-4.16-9.42,2.66-12.83c5.39-2.7,11.95,0.59,14.87,4.4
		c1.79-1.12,4.05-4.38,8.6-3.37c4.43,0.99,2.87,6.07,2.87,6.07s14.67-0.93,17.36,10.96c0.12,0.54,0.19,1.05,0.22,1.53
		c0.23-1.01,0.24-2.14-0.05-3.39c-2.69-11.89-15.67-10.79-15.67-10.79s0.22-4.74-4.21-5.73c-4.55-1.01-6.97,1.57-8.76,2.7
		c-2.91-3.81-10.45-5.73-15.84-3.03c-6.82,3.41-4.04,11.47-4.04,11.47S3.43,20.39,1.39,25.37z"/>
</g>
<g>
	<g>
		<path class="st0" d="M13.55,40.2l-0.47-0.01l0.22-0.21c0.06-0.06,0.07-0.16,0-0.22l-0.03-0.03c-0.06-0.06-0.16-0.06-0.23,0
			l-0.48,0.46l-0.7-0.01l0.59-0.57c0.06-0.06,0.06-0.16,0-0.22l-0.03-0.03c-0.06-0.06-0.16-0.06-0.22,0l-0.84,0.82l-0.76-0.01
			l0.38-0.64c0,0,0.01,0,0.01,0l1.18-0.3c0.09-0.02,0.14-0.11,0.11-0.19l-0.01-0.04c-0.02-0.08-0.11-0.14-0.19-0.11l-0.85,0.21
			l0.36-0.61c0.01,0,0.01,0,0.01,0l0.69-0.17c0.09-0.02,0.14-0.11,0.12-0.19l-0.01-0.04c-0.02-0.08-0.1-0.14-0.19-0.12l-0.35,0.09
			l0.25-0.44c0.05-0.08,0.02-0.17-0.06-0.22l-0.04-0.02c-0.07-0.04-0.17-0.02-0.22,0.05l-0.23,0.41l-0.07-0.3
			c-0.02-0.09-0.11-0.14-0.19-0.11l-0.04,0.01c-0.09,0.02-0.13,0.11-0.11,0.19l0.16,0.64l-0.36,0.61l-0.2-0.79
			c-0.02-0.09-0.11-0.14-0.19-0.11l-0.04,0.01c-0.08,0.02-0.14,0.11-0.12,0.19l0.29,1.14l-0.39,0.65L9.95,39.3
			c0,0,0.01-0.01,0.01-0.01l0.34-1.17c0.02-0.08-0.03-0.17-0.11-0.2l-0.04-0.01c-0.09-0.02-0.17,0.03-0.2,0.11l-0.24,0.84
			l-0.34-0.62c0,0,0-0.01,0.01-0.01l0.19-0.68c0.02-0.08-0.03-0.17-0.11-0.19l-0.04-0.01c-0.08-0.02-0.17,0.02-0.19,0.11l-0.1,0.35
			l-0.23-0.44c-0.04-0.08-0.14-0.1-0.22-0.06l-0.04,0.02c-0.07,0.04-0.1,0.14-0.06,0.22l0.21,0.41l-0.29-0.08
			c-0.08-0.03-0.17,0.02-0.19,0.11L8.28,38c-0.02,0.09,0.03,0.17,0.11,0.2l0.64,0.18l0.34,0.62l-0.79-0.22
			c-0.08-0.03-0.17,0.02-0.19,0.11l-0.01,0.04C8.36,39,8.4,39.09,8.49,39.12l1.13,0.32l0.37,0.66l-0.74-0.01c0,0,0-0.01-0.01-0.01
			L8.39,39.2c-0.06-0.06-0.16-0.06-0.22,0l-0.03,0.03c-0.06,0.06-0.06,0.16,0,0.22l0.61,0.63l-0.71-0.01c0,0,0-0.01-0.01-0.01
			l-0.49-0.51c-0.06-0.06-0.16-0.06-0.22,0l-0.03,0.03c-0.06,0.06-0.06,0.16-0.01,0.22l0.25,0.26l-0.51,0
			c-0.09,0-0.16,0.07-0.16,0.16l0,0.04c0,0.09,0.07,0.16,0.15,0.16l0.46,0l-0.22,0.21c-0.06,0.06-0.06,0.16,0,0.22l0.03,0.03
			c0.06,0.06,0.16,0.06,0.22,0l0.48-0.46l0.71,0.01L8.1,41.01c-0.06,0.06-0.06,0.16,0,0.22l0.03,0.03c0.06,0.06,0.16,0.07,0.23,0
			l0.85-0.82l0.76,0.01l-0.38,0.64c0,0-0.01,0-0.02,0l-1.18,0.3c-0.08,0.02-0.14,0.11-0.11,0.19l0.01,0.04
			c0.02,0.08,0.11,0.14,0.19,0.11l0.85-0.21l-0.36,0.61c-0.01,0-0.01,0-0.02,0l-0.69,0.17c-0.08,0.02-0.14,0.11-0.12,0.19l0.01,0.04
			c0.02,0.08,0.11,0.14,0.19,0.11l0.35-0.09l-0.31,0.5c-0.05,0.08-0.02,0.17,0.05,0.22l0.04,0.02c0.08,0.05,0.17,0.02,0.22-0.05
			l0.29-0.46l0.07,0.3c0.02,0.08,0.11,0.14,0.19,0.11l0.04-0.01C9.37,43.17,9.42,43.08,9.4,43l-0.16-0.64l0.36-0.6l0.2,0.79
			c0.02,0.09,0.11,0.14,0.19,0.11l0.04-0.01c0.08-0.02,0.13-0.11,0.11-0.19l-0.29-1.14l0.39-0.65l0.36,0.65c0,0,0,0.01-0.01,0.01
			l-0.34,1.17c-0.02,0.08,0.02,0.17,0.11,0.2l0.04,0.01c0.08,0.02,0.17-0.02,0.2-0.11l0.24-0.84l0.34,0.62c0,0-0.01,0.01-0.01,0.01
			L11,43.06c-0.02,0.08,0.03,0.17,0.11,0.2l0.04,0.01c0.09,0.03,0.17-0.02,0.19-0.11l0.1-0.35l0.26,0.45
			c0.04,0.08,0.14,0.1,0.22,0.06l0.03-0.02c0.08-0.04,0.11-0.14,0.06-0.22l-0.24-0.41l0.29,0.08c0.08,0.02,0.17-0.02,0.2-0.11
			l0.01-0.04c0.02-0.08-0.02-0.17-0.11-0.2l-0.64-0.18l-0.34-0.62l0.79,0.23c0.09,0.02,0.17-0.02,0.2-0.11l0.01-0.04
			c0.02-0.08-0.02-0.17-0.11-0.2l-1.13-0.32l-0.37-0.66l0.74,0.01c0,0,0,0.01,0.01,0.01l0.85,0.88c0.06,0.06,0.16,0.06,0.22,0
			l0.03-0.03c0.06-0.06,0.06-0.16,0-0.22l-0.61-0.63l0.71,0.01c0,0,0,0.01,0.01,0.01l0.49,0.51c0.06,0.06,0.16,0.06,0.22,0
			l0.03-0.03c0.06-0.06,0.06-0.16,0-0.23l-0.25-0.26l0.51,0.01c0.09,0,0.16-0.07,0.16-0.16v-0.04C13.71,40.27,13.64,40.2,13.55,40.2
			z"/>
	</g>
</g>
<g>
	<g>
		<path class="st0" d="M25.47,40.96L25,40.95l0.22-0.21c0.06-0.06,0.07-0.16,0-0.22l-0.03-0.03c-0.06-0.06-0.16-0.06-0.23,0
			l-0.48,0.46l-0.7-0.01l0.59-0.57c0.06-0.06,0.06-0.16,0-0.22l-0.03-0.03c-0.06-0.06-0.16-0.06-0.22,0l-0.84,0.82l-0.76-0.01
			l0.38-0.64c0,0,0.01,0,0.01,0l1.18-0.3c0.09-0.02,0.14-0.11,0.11-0.19l-0.01-0.04c-0.02-0.08-0.11-0.14-0.19-0.11l-0.85,0.21
			l0.36-0.61c0.01,0,0.01,0,0.01,0l0.68-0.17c0.09-0.02,0.14-0.11,0.12-0.19l-0.01-0.04c-0.02-0.08-0.1-0.14-0.19-0.12l-0.35,0.09
			l0.25-0.44c0.05-0.08,0.02-0.17-0.06-0.22l-0.04-0.02c-0.07-0.04-0.17-0.02-0.22,0.05l-0.23,0.41l-0.07-0.3
			c-0.02-0.09-0.11-0.14-0.19-0.12l-0.04,0.01c-0.09,0.02-0.13,0.11-0.11,0.19l0.16,0.64l-0.36,0.61l-0.2-0.79
			c-0.02-0.09-0.11-0.14-0.19-0.11l-0.04,0.01c-0.08,0.02-0.14,0.11-0.12,0.19l0.29,1.14l-0.39,0.65l-0.36-0.65
			c0,0,0.01-0.01,0.01-0.01l0.34-1.17c0.02-0.08-0.03-0.17-0.11-0.2l-0.04-0.01c-0.09-0.02-0.17,0.03-0.2,0.11l-0.24,0.84L21.28,39
			c0,0,0-0.01,0.01-0.01l0.19-0.68c0.02-0.08-0.03-0.17-0.11-0.19l-0.04-0.01c-0.08-0.02-0.17,0.02-0.19,0.11l-0.1,0.35l-0.23-0.44
			c-0.04-0.08-0.14-0.1-0.22-0.06l-0.04,0.02c-0.07,0.04-0.1,0.14-0.06,0.22l0.21,0.41l-0.29-0.08c-0.08-0.03-0.17,0.02-0.19,0.11
			l-0.01,0.04c-0.02,0.08,0.03,0.17,0.11,0.2l0.64,0.18l0.34,0.62l-0.79-0.22c-0.08-0.03-0.17,0.02-0.19,0.11l-0.01,0.04
			c-0.02,0.08,0.03,0.17,0.11,0.2l1.13,0.32l0.37,0.66l-0.74-0.01c0,0,0-0.01-0.01-0.01l-0.85-0.88c-0.06-0.06-0.16-0.06-0.22,0
			l-0.03,0.03c-0.06,0.06-0.06,0.16,0,0.22l0.61,0.63l-0.71-0.01c0,0,0-0.01-0.01-0.01l-0.49-0.51c-0.06-0.06-0.16-0.06-0.22,0
			l-0.03,0.03c-0.06,0.06-0.06,0.16-0.01,0.22l0.25,0.26l-0.51,0c-0.09,0-0.16,0.07-0.16,0.16l0,0.04c0,0.09,0.07,0.16,0.15,0.16
			l0.46,0l-0.22,0.21c-0.06,0.06-0.06,0.16,0,0.22l0.03,0.03c0.06,0.06,0.16,0.06,0.22,0l0.48-0.46l0.71,0.01l-0.59,0.57
			c-0.06,0.06-0.06,0.16,0,0.22l0.03,0.03c0.06,0.06,0.16,0.07,0.23,0l0.85-0.82l0.76,0.01l-0.38,0.64c0,0-0.01,0-0.02,0l-1.18,0.3
			c-0.08,0.02-0.14,0.11-0.11,0.19l0.01,0.04c0.02,0.08,0.11,0.14,0.19,0.11l0.85-0.21l-0.36,0.61c-0.01,0-0.01,0-0.02,0l-0.69,0.17
			c-0.08,0.02-0.13,0.11-0.12,0.19l0.01,0.04c0.02,0.08,0.11,0.14,0.19,0.11l0.35-0.09l-0.31,0.5c-0.05,0.08-0.02,0.17,0.05,0.22
			l0.04,0.02c0.08,0.05,0.17,0.02,0.22-0.05l0.29-0.46l0.07,0.3c0.02,0.08,0.11,0.14,0.19,0.11l0.04-0.01
			c0.09-0.02,0.14-0.11,0.12-0.19l-0.16-0.64l0.36-0.6l0.2,0.79c0.02,0.09,0.11,0.14,0.19,0.11l0.04-0.01
			c0.08-0.02,0.13-0.11,0.12-0.19l-0.29-1.14l0.39-0.65l0.36,0.65c0,0-0.01,0.01-0.01,0.01l-0.34,1.17
			c-0.02,0.08,0.02,0.17,0.11,0.2l0.04,0.01c0.08,0.02,0.17-0.02,0.2-0.11l0.24-0.85l0.34,0.62c0,0-0.01,0.01-0.01,0.01l-0.19,0.68
			c-0.02,0.08,0.03,0.17,0.11,0.2l0.04,0.01c0.09,0.03,0.17-0.02,0.19-0.11l0.1-0.35l0.26,0.45c0.04,0.08,0.14,0.1,0.22,0.06
			l0.03-0.02c0.08-0.04,0.11-0.14,0.06-0.22l-0.24-0.41l0.29,0.08c0.08,0.02,0.17-0.02,0.19-0.11l0.01-0.04
			c0.02-0.08-0.02-0.17-0.11-0.2l-0.64-0.18l-0.34-0.62l0.79,0.23c0.09,0.02,0.17-0.02,0.2-0.11l0.01-0.04
			c0.02-0.08-0.02-0.17-0.11-0.2l-1.13-0.32l-0.37-0.66l0.74,0.01c0,0,0,0.01,0.01,0.01l0.85,0.88c0.06,0.06,0.16,0.06,0.22,0
			l0.03-0.03c0.06-0.06,0.06-0.16,0-0.22l-0.61-0.63l0.71,0.01c0,0,0,0.01,0.01,0.01l0.49,0.51c0.06,0.06,0.16,0.06,0.22,0
			l0.03-0.03c0.06-0.06,0.06-0.16,0-0.22l-0.25-0.26l0.51,0.01c0.09,0,0.16-0.07,0.16-0.16v-0.04
			C25.62,41.03,25.56,40.96,25.47,40.96z"/>
	</g>
</g>
<g>
	<g>
		<path class="st0" d="M19.15,50.95l-0.47-0.01l0.22-0.21c0.06-0.06,0.07-0.16,0-0.22l-0.03-0.03c-0.06-0.06-0.16-0.06-0.23,0
			l-0.48,0.46l-0.7-0.01l0.59-0.57c0.06-0.06,0.06-0.16,0-0.22l-0.03-0.03c-0.06-0.06-0.16-0.06-0.22,0l-0.84,0.82l-0.76-0.01
			l0.38-0.64c0,0,0.01,0,0.02,0l1.18-0.3c0.09-0.02,0.14-0.11,0.11-0.19l-0.01-0.04c-0.02-0.08-0.11-0.14-0.19-0.11l-0.85,0.21
			l0.37-0.61c0.01,0,0.01,0,0.01,0l0.69-0.17c0.09-0.02,0.14-0.11,0.12-0.19l-0.01-0.04c-0.02-0.08-0.1-0.14-0.19-0.12l-0.35,0.09
			l0.25-0.44c0.05-0.08,0.02-0.17-0.06-0.22l-0.04-0.02c-0.07-0.04-0.17-0.02-0.22,0.05l-0.23,0.41l-0.07-0.3
			c-0.02-0.09-0.11-0.14-0.19-0.11l-0.04,0.01c-0.09,0.02-0.13,0.11-0.11,0.19l0.16,0.64l-0.36,0.6l-0.2-0.79
			c-0.02-0.09-0.11-0.14-0.19-0.12l-0.04,0.01c-0.08,0.02-0.14,0.11-0.12,0.19l0.29,1.14l-0.39,0.65l-0.36-0.65
			c0,0,0.01-0.01,0.01-0.01l0.34-1.17c0.02-0.08-0.03-0.17-0.11-0.2l-0.04-0.01c-0.09-0.02-0.17,0.03-0.2,0.11l-0.24,0.84
			l-0.34-0.62c0,0,0-0.01,0.01-0.01l0.19-0.68c0.02-0.08-0.03-0.17-0.11-0.19l-0.04-0.01c-0.08-0.02-0.17,0.02-0.19,0.11l-0.1,0.35
			l-0.23-0.44c-0.04-0.08-0.14-0.1-0.22-0.06l-0.04,0.02c-0.07,0.04-0.1,0.14-0.06,0.22l0.21,0.41l-0.29-0.08
			c-0.08-0.03-0.17,0.02-0.19,0.11l-0.01,0.04c-0.02,0.09,0.03,0.17,0.11,0.2l0.64,0.18l0.34,0.62l-0.79-0.22
			c-0.08-0.03-0.17,0.02-0.19,0.11l-0.01,0.04c-0.02,0.08,0.03,0.17,0.11,0.2l1.13,0.32l0.37,0.66l-0.74-0.01c0,0,0-0.01-0.01-0.01
			l-0.85-0.88c-0.06-0.06-0.16-0.06-0.22,0l-0.03,0.03c-0.06,0.06-0.06,0.16,0,0.22l0.61,0.63l-0.71-0.01c0,0,0-0.01-0.01-0.01
			l-0.49-0.51c-0.06-0.06-0.16-0.06-0.22,0l-0.03,0.03c-0.06,0.06-0.06,0.16,0,0.22l0.25,0.26l-0.51,0c-0.09,0-0.16,0.07-0.16,0.16
			l0,0.04c0,0.09,0.07,0.16,0.15,0.16l0.46,0l-0.22,0.21c-0.06,0.06-0.06,0.16,0,0.22l0.03,0.03c0.06,0.06,0.16,0.06,0.22,0
			l0.48-0.46l0.71,0.01l-0.59,0.57c-0.06,0.06-0.06,0.16,0,0.22l0.03,0.03c0.06,0.06,0.16,0.07,0.23,0l0.85-0.82l0.76,0.01
			l-0.38,0.64c0,0-0.01,0-0.02,0l-1.18,0.3c-0.08,0.02-0.14,0.11-0.11,0.19l0.01,0.04c0.02,0.08,0.11,0.14,0.19,0.11l0.85-0.21
			l-0.36,0.61c-0.01,0-0.01,0-0.02,0l-0.69,0.17c-0.08,0.02-0.14,0.11-0.12,0.19l0.01,0.04c0.02,0.08,0.11,0.14,0.19,0.11l0.35-0.09
			l-0.31,0.5c-0.05,0.08-0.02,0.17,0.05,0.22l0.04,0.02c0.08,0.05,0.17,0.02,0.22-0.05l0.29-0.46l0.07,0.3
			c0.02,0.08,0.11,0.14,0.19,0.11l0.04-0.01c0.09-0.02,0.14-0.11,0.12-0.19l-0.16-0.64l0.36-0.6l0.2,0.79
			c0.02,0.09,0.11,0.14,0.19,0.11l0.04-0.01c0.08-0.02,0.13-0.11,0.12-0.19l-0.29-1.14l0.39-0.65l0.36,0.65c0,0-0.01,0.01-0.01,0.01
			l-0.34,1.17c-0.02,0.08,0.02,0.17,0.11,0.2l0.04,0.01c0.08,0.02,0.17-0.02,0.2-0.11l0.24-0.84l0.34,0.62c0,0-0.01,0.01-0.01,0.01
			l-0.19,0.68c-0.02,0.08,0.03,0.17,0.11,0.2l0.04,0.01c0.09,0.03,0.17-0.02,0.19-0.11l0.1-0.35l0.26,0.45
			c0.04,0.08,0.14,0.1,0.22,0.06l0.03-0.02c0.08-0.04,0.11-0.14,0.06-0.22l-0.24-0.41l0.29,0.08c0.08,0.02,0.17-0.02,0.19-0.11
			l0.01-0.04c0.02-0.08-0.02-0.17-0.11-0.2l-0.64-0.18l-0.34-0.62l0.79,0.23c0.09,0.02,0.17-0.02,0.2-0.11l0.01-0.04
			c0.02-0.08-0.02-0.17-0.11-0.2l-1.13-0.32l-0.37-0.66l0.74,0.01c0,0,0,0.01,0.01,0.01l0.85,0.88c0.06,0.06,0.16,0.06,0.22,0
			l0.03-0.03c0.06-0.06,0.06-0.16,0-0.22l-0.61-0.63l0.71,0.01c0,0,0,0.01,0.01,0.01l0.49,0.51c0.06,0.06,0.16,0.06,0.22,0
			l0.03-0.03c0.06-0.06,0.06-0.16,0-0.23l-0.25-0.26l0.51,0.01c0.09,0,0.16-0.07,0.16-0.16v-0.04
			C19.31,51.02,19.24,50.95,19.15,50.95z"/>
	</g>
</g>
<g>
	<g>
		<path class="st3" d="M19.68,27.66l-0.47-0.01l0.22-0.21c0.06-0.06,0.07-0.16,0-0.22l-0.03-0.03c-0.06-0.06-0.16-0.06-0.23,0
			l-0.48,0.46L18,27.63l0.59-0.57c0.06-0.06,0.06-0.16,0-0.22l-0.03-0.03c-0.06-0.06-0.16-0.06-0.22,0l-0.84,0.82l-0.76-0.01
			l0.38-0.64c0,0,0.01,0,0.01,0l1.18-0.3c0.09-0.02,0.14-0.11,0.11-0.19l-0.01-0.04c-0.02-0.08-0.11-0.14-0.19-0.11l-0.85,0.21
			l0.36-0.61c0.01,0,0.01,0,0.01,0l0.69-0.17c0.09-0.02,0.14-0.11,0.12-0.19l-0.01-0.04c-0.02-0.08-0.1-0.14-0.19-0.12L18,25.5
			l0.25-0.44c0.05-0.08,0.02-0.17-0.06-0.22l-0.04-0.02c-0.07-0.04-0.17-0.02-0.22,0.05l-0.23,0.41l-0.07-0.3
			c-0.02-0.09-0.11-0.14-0.19-0.12l-0.04,0.01c-0.09,0.02-0.13,0.11-0.11,0.19l0.16,0.64l-0.36,0.6l-0.2-0.79
			c-0.02-0.09-0.11-0.14-0.19-0.12l-0.04,0.01c-0.08,0.02-0.14,0.11-0.12,0.19l0.29,1.14l-0.39,0.65l-0.36-0.65
			c0,0,0.01-0.01,0.01-0.01l0.34-1.17c0.02-0.08-0.03-0.17-0.11-0.2l-0.04-0.01c-0.09-0.02-0.17,0.03-0.2,0.11l-0.24,0.84
			l-0.34-0.62c0,0,0-0.01,0.01-0.01l0.19-0.68c0.02-0.08-0.03-0.17-0.11-0.19l-0.04-0.01c-0.08-0.02-0.17,0.02-0.19,0.11l-0.1,0.35
			l-0.23-0.44c-0.04-0.08-0.14-0.1-0.22-0.06l-0.04,0.02c-0.07,0.04-0.1,0.14-0.06,0.22l0.21,0.41l-0.29-0.08
			c-0.08-0.03-0.17,0.02-0.19,0.11l-0.01,0.04c-0.02,0.09,0.03,0.17,0.11,0.2l0.64,0.18l0.34,0.62l-0.79-0.22
			c-0.08-0.03-0.17,0.02-0.19,0.11l-0.01,0.04c-0.02,0.08,0.03,0.17,0.11,0.2l1.13,0.32l0.37,0.66l-0.74-0.01c0,0,0-0.01-0.01-0.01
			l-0.85-0.88c-0.06-0.06-0.16-0.06-0.22,0l-0.03,0.03c-0.06,0.06-0.06,0.16,0,0.22l0.61,0.63l-0.71-0.01c0,0,0-0.01-0.01-0.01
			l-0.49-0.51c-0.06-0.06-0.16-0.06-0.22,0l-0.03,0.03c-0.06,0.06-0.06,0.16-0.01,0.22l0.25,0.26l-0.51,0
			c-0.09,0-0.16,0.07-0.16,0.16l0,0.04c0,0.09,0.07,0.16,0.15,0.16l0.46,0l-0.22,0.21c-0.06,0.06-0.06,0.16,0,0.22l0.03,0.03
			c0.06,0.06,0.16,0.06,0.22,0l0.48-0.46l0.71,0.01l-0.59,0.57c-0.06,0.06-0.06,0.16,0,0.22l0.03,0.03c0.06,0.06,0.16,0.07,0.23,0
			l0.85-0.82l0.76,0.01l-0.38,0.64c0,0-0.01,0-0.02,0l-1.18,0.3c-0.08,0.02-0.13,0.11-0.11,0.19l0.01,0.04
			c0.02,0.08,0.11,0.14,0.19,0.11l0.85-0.21l-0.36,0.61c-0.01,0-0.01,0-0.02,0l-0.69,0.17c-0.08,0.02-0.13,0.11-0.12,0.19L14.27,30
			c0.02,0.08,0.11,0.14,0.19,0.11l0.35-0.09l-0.31,0.5c-0.05,0.08-0.02,0.17,0.05,0.22l0.04,0.02c0.08,0.05,0.17,0.02,0.22-0.05
			l0.29-0.46l0.07,0.3c0.02,0.08,0.11,0.14,0.19,0.11l0.04-0.01c0.09-0.02,0.14-0.11,0.12-0.19l-0.16-0.64l0.36-0.6l0.2,0.79
			c0.02,0.09,0.11,0.14,0.19,0.11l0.04-0.01c0.08-0.02,0.13-0.11,0.12-0.19l-0.29-1.14l0.39-0.65l0.36,0.65c0,0,0,0.01-0.01,0.01
			l-0.34,1.17c-0.02,0.08,0.02,0.17,0.11,0.2l0.04,0.01c0.08,0.02,0.17-0.02,0.2-0.11l0.24-0.85l0.34,0.62c0,0-0.01,0.01-0.01,0.01
			l-0.19,0.68c-0.02,0.08,0.02,0.17,0.11,0.2l0.04,0.01c0.09,0.03,0.17-0.02,0.19-0.11l0.1-0.35l0.26,0.45
			c0.04,0.08,0.14,0.1,0.22,0.06l0.03-0.02c0.08-0.04,0.11-0.14,0.06-0.22l-0.24-0.41l0.29,0.08c0.08,0.02,0.17-0.02,0.19-0.11
			l0.01-0.04c0.02-0.08-0.02-0.17-0.11-0.2l-0.64-0.18l-0.34-0.62l0.79,0.23c0.09,0.02,0.17-0.02,0.2-0.11l0.01-0.04
			c0.02-0.08-0.02-0.17-0.11-0.2l-1.13-0.32l-0.37-0.66l0.74,0.01c0,0,0,0.01,0.01,0.01l0.85,0.88c0.06,0.06,0.16,0.06,0.22,0
			l0.03-0.03c0.06-0.06,0.06-0.16,0-0.22l-0.61-0.63L18.66,28c0,0,0,0.01,0.01,0.01l0.49,0.51c0.06,0.06,0.16,0.06,0.22,0l0.03-0.03
			c0.06-0.06,0.06-0.16,0-0.22l-0.25-0.26l0.51,0.01c0.09,0,0.16-0.07,0.16-0.16v-0.04C19.83,27.73,19.76,27.66,19.68,27.66z"/>
	</g>
</g>
<g>
	<g>
		<path class="st3" d="M31.99,28.63l-0.47-0.01l0.22-0.21c0.06-0.06,0.07-0.16,0-0.22l-0.03-0.03c-0.06-0.06-0.16-0.06-0.23,0
			l-0.48,0.46l-0.7-0.01l0.59-0.57c0.06-0.06,0.06-0.16,0-0.22l-0.03-0.03c-0.06-0.06-0.16-0.06-0.22,0l-0.84,0.82l-0.76-0.01
			l0.38-0.64c0,0,0.01,0,0.02,0l1.18-0.3c0.09-0.02,0.14-0.11,0.11-0.19l-0.01-0.04c-0.02-0.08-0.11-0.14-0.19-0.11l-0.85,0.21
			l0.36-0.61c0.01,0,0.01,0,0.01,0l0.69-0.17c0.09-0.02,0.14-0.11,0.12-0.19l-0.01-0.04c-0.02-0.08-0.1-0.14-0.19-0.12l-0.35,0.09
			l0.25-0.44c0.05-0.08,0.02-0.17-0.06-0.22l-0.04-0.02c-0.07-0.04-0.17-0.02-0.22,0.05l-0.23,0.41l-0.07-0.3
			c-0.02-0.08-0.11-0.14-0.19-0.11l-0.04,0.01c-0.09,0.02-0.13,0.11-0.11,0.19l0.16,0.64l-0.36,0.6l-0.2-0.79
			c-0.02-0.08-0.11-0.14-0.19-0.11l-0.04,0.01c-0.08,0.02-0.14,0.11-0.12,0.19l0.29,1.14l-0.39,0.65l-0.36-0.65
			c0,0,0.01-0.01,0.01-0.01l0.34-1.17c0.02-0.08-0.03-0.17-0.11-0.2l-0.04-0.01c-0.09-0.02-0.17,0.03-0.2,0.11l-0.24,0.84
			l-0.34-0.62c0,0,0-0.01,0.01-0.01L28,25.97c0.02-0.08-0.03-0.17-0.11-0.19l-0.04-0.01c-0.08-0.02-0.17,0.02-0.19,0.11l-0.1,0.35
			l-0.23-0.44c-0.04-0.08-0.14-0.1-0.22-0.06l-0.04,0.02c-0.07,0.04-0.1,0.14-0.06,0.22l0.21,0.41l-0.29-0.08
			c-0.08-0.03-0.17,0.02-0.19,0.11l-0.01,0.04c-0.02,0.09,0.03,0.17,0.11,0.2l0.64,0.18l0.34,0.62l-0.79-0.22
			c-0.08-0.03-0.17,0.02-0.19,0.11l-0.01,0.04c-0.02,0.08,0.03,0.17,0.11,0.2l1.13,0.32l0.37,0.66l-0.74-0.01c0,0,0-0.01-0.01-0.01
			l-0.85-0.88c-0.06-0.06-0.16-0.06-0.22,0l-0.03,0.03c-0.06,0.06-0.06,0.16,0,0.22l0.61,0.63l-0.71-0.01c0,0,0-0.01-0.01-0.01
			l-0.49-0.51c-0.06-0.06-0.16-0.06-0.22,0L25.72,28c-0.06,0.06-0.06,0.16,0,0.22l0.25,0.26l-0.51,0c-0.09,0-0.16,0.07-0.16,0.16
			l0,0.04c0,0.09,0.07,0.16,0.15,0.16l0.46,0l-0.22,0.21c-0.06,0.06-0.06,0.16,0,0.22l0.03,0.03c0.06,0.06,0.16,0.06,0.22,0
			l0.48-0.46l0.71,0.01l-0.59,0.57c-0.06,0.06-0.06,0.16,0,0.22l0.03,0.03c0.06,0.06,0.16,0.07,0.23,0l0.85-0.82l0.76,0.01
			l-0.38,0.64c0,0-0.01,0-0.02,0l-1.18,0.3c-0.08,0.02-0.14,0.11-0.11,0.19l0.01,0.04c0.02,0.08,0.11,0.14,0.19,0.11l0.85-0.21
			l-0.36,0.61c-0.01,0-0.01,0-0.02,0l-0.69,0.17c-0.08,0.02-0.14,0.11-0.12,0.19l0.01,0.04c0.02,0.08,0.11,0.14,0.2,0.11l0.35-0.09
			l-0.31,0.5c-0.05,0.08-0.02,0.17,0.05,0.22l0.04,0.02c0.08,0.05,0.17,0.02,0.22-0.05l0.29-0.46l0.07,0.3
			c0.02,0.08,0.11,0.14,0.19,0.11l0.04-0.01c0.09-0.02,0.14-0.11,0.12-0.19l-0.16-0.64l0.36-0.6l0.2,0.79
			c0.02,0.09,0.11,0.14,0.19,0.11l0.04-0.01c0.08-0.02,0.13-0.11,0.12-0.19l-0.29-1.14l0.39-0.65l0.36,0.65c0,0-0.01,0.01-0.01,0.01
			l-0.34,1.17c-0.02,0.08,0.02,0.17,0.11,0.19l0.04,0.01c0.08,0.02,0.17-0.02,0.2-0.11l0.24-0.85l0.34,0.62c0,0-0.01,0.01-0.01,0.01
			l-0.19,0.68c-0.02,0.08,0.03,0.17,0.11,0.2l0.04,0.01c0.09,0.03,0.17-0.02,0.19-0.11l0.1-0.35l0.26,0.45
			c0.04,0.08,0.14,0.11,0.22,0.06l0.03-0.02c0.08-0.04,0.11-0.14,0.06-0.22l-0.24-0.41l0.29,0.08c0.08,0.02,0.17-0.02,0.19-0.11
			l0.01-0.04c0.02-0.08-0.02-0.17-0.11-0.2l-0.64-0.18l-0.34-0.62l0.79,0.23c0.09,0.02,0.17-0.02,0.2-0.11l0.01-0.04
			c0.02-0.08-0.02-0.17-0.11-0.2l-1.13-0.32l-0.37-0.66l0.74,0.01c0,0,0,0.01,0.01,0.01l0.85,0.88c0.06,0.06,0.16,0.06,0.22,0
			l0.03-0.03c0.06-0.06,0.06-0.16,0-0.22l-0.61-0.63l0.71,0.01c0,0,0,0.01,0.01,0.01l0.49,0.51c0.06,0.06,0.16,0.06,0.22,0
			l0.03-0.03c0.06-0.06,0.06-0.16,0-0.22l-0.25-0.26l0.51,0.01c0.09,0,0.16-0.07,0.16-0.16v-0.04
			C32.15,28.7,32.08,28.63,31.99,28.63z"/>
	</g>
</g>
<g>
	<g>
		<path class="st3" d="M42.33,29.04l-0.47-0.01l0.22-0.21c0.06-0.06,0.07-0.16,0-0.22l-0.03-0.03c-0.06-0.06-0.16-0.06-0.23,0
			l-0.48,0.46l-0.7-0.01l0.59-0.57c0.06-0.06,0.06-0.16,0-0.22l-0.03-0.03c-0.06-0.06-0.16-0.06-0.22,0L40.15,29l-0.76-0.01
			l0.38-0.64c0,0,0.01,0,0.01,0l1.18-0.3c0.09-0.02,0.14-0.11,0.11-0.19l-0.01-0.04c-0.02-0.08-0.11-0.14-0.19-0.11l-0.85,0.21
			l0.36-0.61c0.01,0,0.01,0,0.01,0l0.69-0.17c0.09-0.02,0.14-0.11,0.12-0.19l-0.01-0.04c-0.02-0.08-0.1-0.14-0.19-0.12l-0.35,0.09
			l0.25-0.44c0.05-0.08,0.02-0.17-0.06-0.22l-0.04-0.02c-0.07-0.04-0.17-0.02-0.22,0.05l-0.23,0.41l-0.07-0.3
			c-0.02-0.09-0.11-0.14-0.19-0.11l-0.04,0.01c-0.09,0.02-0.13,0.11-0.11,0.19l0.16,0.64l-0.36,0.6l-0.2-0.79
			c-0.02-0.09-0.11-0.14-0.19-0.11l-0.04,0.01c-0.08,0.02-0.14,0.11-0.12,0.19l0.29,1.14l-0.39,0.65l-0.36-0.65
			c0,0,0.01-0.01,0.01-0.01l0.34-1.17c0.02-0.08-0.03-0.17-0.11-0.2l-0.04-0.01c-0.09-0.02-0.17,0.03-0.2,0.11l-0.24,0.84
			l-0.34-0.62c0,0,0-0.01,0.01-0.01l0.19-0.68c0.02-0.08-0.03-0.17-0.11-0.19l-0.04-0.01c-0.08-0.02-0.17,0.02-0.19,0.11l-0.1,0.35
			l-0.23-0.44c-0.04-0.08-0.14-0.1-0.22-0.06l-0.04,0.02c-0.07,0.04-0.1,0.14-0.06,0.22l0.21,0.41l-0.29-0.08
			c-0.08-0.03-0.17,0.02-0.19,0.11l-0.01,0.04c-0.02,0.09,0.03,0.17,0.11,0.2l0.64,0.18l0.34,0.62l-0.79-0.22
			c-0.08-0.03-0.17,0.02-0.19,0.11l-0.01,0.04c-0.02,0.08,0.03,0.17,0.11,0.2l1.13,0.32l0.37,0.66l-0.74-0.01c0,0,0-0.01-0.01-0.01
			l-0.85-0.88c-0.06-0.06-0.16-0.06-0.22,0l-0.03,0.03c-0.06,0.06-0.06,0.16,0,0.22l0.61,0.63l-0.71-0.01c0,0,0-0.01-0.01-0.01
			l-0.49-0.51c-0.06-0.06-0.16-0.06-0.22,0l-0.03,0.03C36,28.47,36,28.57,36.05,28.64l0.25,0.26l-0.51,0
			c-0.09,0-0.16,0.07-0.16,0.16l0,0.04c0,0.09,0.07,0.16,0.15,0.16l0.46,0l-0.22,0.21c-0.06,0.06-0.06,0.16,0,0.22l0.03,0.03
			c0.06,0.06,0.16,0.06,0.22,0l0.48-0.46l0.71,0.01l-0.59,0.57c-0.06,0.06-0.06,0.16,0,0.22l0.03,0.03c0.06,0.06,0.16,0.07,0.23,0
			l0.85-0.82l0.76,0.01l-0.38,0.64c0,0-0.01,0-0.02,0l-1.18,0.3c-0.08,0.02-0.14,0.11-0.11,0.19l0.01,0.04
			c0.02,0.08,0.11,0.14,0.19,0.12l0.85-0.21l-0.36,0.61c-0.01,0-0.01,0-0.02,0l-0.69,0.17c-0.08,0.02-0.14,0.11-0.12,0.19l0.01,0.04
			c0.02,0.08,0.11,0.14,0.19,0.11l0.35-0.09l-0.31,0.5c-0.05,0.08-0.02,0.17,0.05,0.22l0.04,0.02c0.08,0.05,0.17,0.02,0.22-0.05
			l0.29-0.46l0.07,0.3c0.02,0.08,0.11,0.14,0.19,0.11l0.04-0.01c0.09-0.02,0.14-0.11,0.12-0.19l-0.16-0.64l0.36-0.6l0.2,0.79
			c0.02,0.09,0.11,0.14,0.19,0.11l0.04-0.01c0.08-0.02,0.13-0.11,0.11-0.19l-0.29-1.14l0.39-0.65l0.36,0.65c0,0,0,0.01-0.01,0.01
			l-0.34,1.17c-0.02,0.08,0.02,0.17,0.11,0.19l0.04,0.01c0.08,0.02,0.17-0.02,0.2-0.11l0.24-0.84l0.34,0.62c0,0-0.01,0.01-0.01,0.01
			l-0.19,0.68c-0.02,0.08,0.03,0.17,0.11,0.2l0.04,0.01c0.09,0.03,0.17-0.02,0.19-0.11l0.1-0.35l0.26,0.45
			c0.04,0.08,0.14,0.11,0.22,0.06l0.03-0.02c0.08-0.04,0.11-0.14,0.06-0.22l-0.24-0.41l0.29,0.08c0.08,0.02,0.17-0.02,0.19-0.11
			l0.01-0.04c0.02-0.08-0.02-0.17-0.11-0.2l-0.64-0.18l-0.34-0.62l0.79,0.23c0.09,0.02,0.17-0.02,0.2-0.11l0.01-0.04
			c0.02-0.08-0.02-0.17-0.11-0.2l-1.13-0.32l-0.37-0.66l0.74,0.01c0,0,0,0.01,0.01,0.01l0.85,0.88c0.06,0.06,0.16,0.06,0.22,0
			l0.03-0.03c0.06-0.06,0.06-0.16,0-0.22l-0.61-0.63l0.71,0.01c0,0,0,0.01,0.01,0.01l0.49,0.51c0.06,0.06,0.16,0.06,0.22,0
			l0.03-0.03c0.06-0.06,0.06-0.16,0-0.22l-0.25-0.26l0.51,0.01c0.09,0,0.16-0.07,0.16-0.16V29.2
			C42.49,29.11,42.42,29.04,42.33,29.04z"/>
	</g>
</g>
<g>
	<g>
		<path class="st3" d="M53.28,30.18l-0.47-0.01l0.22-0.21c0.06-0.06,0.07-0.16,0-0.22l-0.03-0.03c-0.06-0.06-0.16-0.06-0.23,0
			l-0.48,0.46l-0.7-0.01l0.59-0.57c0.06-0.06,0.06-0.16,0-0.22l-0.03-0.03c-0.06-0.06-0.16-0.06-0.22,0l-0.84,0.82l-0.76-0.01
			l0.38-0.64c0,0,0.01,0,0.01,0l1.18-0.3c0.09-0.02,0.14-0.11,0.11-0.19l-0.01-0.04c-0.02-0.08-0.11-0.14-0.19-0.11l-0.85,0.21
			l0.36-0.61c0.01,0,0.01,0,0.01,0l0.69-0.17c0.09-0.02,0.14-0.11,0.12-0.19l-0.01-0.04c-0.02-0.08-0.1-0.14-0.19-0.12l-0.35,0.09
			l0.25-0.44c0.05-0.08,0.02-0.17-0.06-0.22l-0.04-0.02c-0.07-0.04-0.17-0.02-0.22,0.05l-0.23,0.41l-0.07-0.3
			c-0.02-0.09-0.11-0.14-0.19-0.11L51,27.4c-0.09,0.02-0.13,0.11-0.11,0.19l0.16,0.64l-0.36,0.61l-0.2-0.79
			c-0.02-0.09-0.11-0.14-0.19-0.11l-0.04,0.01c-0.08,0.02-0.14,0.11-0.12,0.19l0.29,1.14l-0.39,0.65l-0.36-0.65
			c0,0,0.01-0.01,0.01-0.01l0.34-1.17c0.02-0.08-0.03-0.17-0.11-0.2l-0.04-0.01c-0.09-0.02-0.17,0.03-0.2,0.11l-0.24,0.84
			l-0.34-0.62c0,0,0-0.01,0.01-0.01l0.19-0.68c0.02-0.08-0.03-0.17-0.11-0.19l-0.04-0.01c-0.08-0.02-0.17,0.02-0.19,0.11l-0.1,0.35
			l-0.23-0.44c-0.04-0.08-0.14-0.1-0.22-0.06l-0.04,0.02c-0.07,0.04-0.1,0.14-0.06,0.22l0.21,0.41l-0.29-0.08
			c-0.08-0.03-0.17,0.02-0.19,0.11l-0.01,0.04c-0.02,0.09,0.03,0.17,0.11,0.2l0.64,0.18l0.34,0.62l-0.79-0.22
			c-0.08-0.03-0.17,0.02-0.19,0.11l-0.01,0.04c-0.02,0.08,0.03,0.17,0.11,0.2l1.13,0.32l0.37,0.66l-0.74-0.01c0,0,0-0.01-0.01-0.01
			l-0.85-0.88c-0.06-0.06-0.16-0.06-0.22,0l-0.03,0.03c-0.06,0.06-0.06,0.16,0,0.22l0.61,0.63l-0.71-0.01c0,0,0-0.01-0.01-0.01
			l-0.49-0.51c-0.06-0.06-0.16-0.06-0.22,0l-0.03,0.03c-0.06,0.06-0.06,0.16-0.01,0.22l0.26,0.26l-0.51,0
			c-0.09,0-0.16,0.07-0.16,0.16l0,0.04c0,0.09,0.07,0.16,0.15,0.16l0.46,0l-0.22,0.21c-0.06,0.06-0.06,0.16,0,0.22l0.03,0.03
			c0.06,0.06,0.16,0.06,0.22,0l0.48-0.46l0.71,0.01l-0.59,0.57c-0.06,0.06-0.06,0.16,0,0.22l0.03,0.03c0.06,0.06,0.16,0.07,0.23,0
			l0.85-0.82l0.76,0.01l-0.38,0.64c0,0-0.01,0-0.02,0l-1.18,0.3c-0.08,0.02-0.14,0.11-0.11,0.19L48,31.61
			c0.02,0.08,0.11,0.14,0.19,0.11l0.85-0.21l-0.36,0.61c-0.01,0-0.01,0-0.02,0l-0.69,0.17c-0.08,0.02-0.14,0.11-0.12,0.19l0.01,0.04
			c0.02,0.08,0.11,0.14,0.19,0.11l0.35-0.09l-0.31,0.5c-0.05,0.08-0.02,0.17,0.05,0.22l0.04,0.02c0.08,0.05,0.17,0.02,0.22-0.05
			l0.29-0.46l0.07,0.3c0.02,0.08,0.11,0.14,0.19,0.11l0.04-0.01c0.09-0.02,0.14-0.11,0.12-0.19l-0.16-0.64l0.36-0.6l0.2,0.79
			c0.02,0.09,0.11,0.14,0.19,0.11l0.04-0.01c0.08-0.02,0.13-0.11,0.12-0.19l-0.29-1.14l0.39-0.65l0.36,0.65c0,0,0,0.01-0.01,0.01
			L50,32.48c-0.02,0.08,0.02,0.17,0.11,0.19l0.04,0.01c0.08,0.02,0.17-0.02,0.2-0.11l0.24-0.84l0.34,0.62c0,0-0.01,0.01-0.01,0.01
			l-0.19,0.68c-0.02,0.08,0.03,0.17,0.11,0.2l0.04,0.01c0.09,0.03,0.17-0.02,0.19-0.11l0.1-0.35l0.26,0.45
			c0.04,0.08,0.14,0.11,0.22,0.06l0.03-0.02c0.08-0.04,0.11-0.14,0.06-0.22l-0.24-0.41l0.29,0.08c0.08,0.02,0.17-0.02,0.2-0.11
			l0.01-0.04c0.02-0.08-0.02-0.17-0.11-0.2l-0.64-0.18l-0.34-0.62l0.79,0.23c0.09,0.02,0.17-0.02,0.2-0.11l0.01-0.04
			c0.02-0.08-0.02-0.17-0.11-0.2l-1.13-0.32l-0.37-0.66l0.74,0.01c0,0,0,0.01,0.01,0.01l0.85,0.88c0.06,0.06,0.16,0.06,0.22,0
			l0.03-0.03c0.06-0.06,0.06-0.16,0-0.22l-0.61-0.63l0.71,0.01c0,0,0,0.01,0.01,0.01l0.49,0.51c0.06,0.06,0.16,0.06,0.22,0
			l0.03-0.03c0.06-0.06,0.06-0.16,0-0.22l-0.25-0.26l0.51,0.01c0.09,0,0.16-0.07,0.16-0.16v-0.04
			C53.43,30.26,53.37,30.18,53.28,30.18z"/>
	</g>
</g>
<g>
	<g>
		<path class="st0" d="M32.41,49.09l-0.47-0.01l0.22-0.21c0.06-0.06,0.07-0.16,0-0.22l-0.03-0.03c-0.06-0.06-0.16-0.06-0.23,0
			l-0.48,0.46l-0.7-0.01l0.59-0.57c0.06-0.06,0.06-0.16,0-0.22l-0.03-0.03c-0.06-0.06-0.16-0.06-0.22,0l-0.84,0.82l-0.76-0.01
			l0.38-0.64c0,0,0.01,0,0.01,0l1.18-0.3c0.09-0.02,0.14-0.11,0.11-0.19l-0.01-0.04c-0.02-0.08-0.11-0.14-0.19-0.11l-0.85,0.21
			l0.36-0.61c0.01,0,0.01,0,0.01,0l0.68-0.17c0.09-0.02,0.14-0.11,0.12-0.19l-0.01-0.04c-0.02-0.08-0.1-0.14-0.19-0.12l-0.35,0.09
			l0.25-0.44c0.05-0.08,0.02-0.17-0.06-0.22l-0.04-0.02c-0.07-0.04-0.17-0.02-0.22,0.05l-0.23,0.41l-0.07-0.3
			c-0.02-0.09-0.11-0.14-0.19-0.12l-0.04,0.01c-0.09,0.02-0.13,0.11-0.11,0.19l0.16,0.64l-0.36,0.61l-0.2-0.79
			c-0.02-0.09-0.11-0.14-0.19-0.11l-0.04,0.01c-0.08,0.02-0.14,0.11-0.12,0.19l0.29,1.14l-0.39,0.65l-0.36-0.65
			c0,0,0.01-0.01,0.01-0.01l0.34-1.17c0.02-0.08-0.03-0.17-0.11-0.2l-0.04-0.01c-0.09-0.02-0.17,0.03-0.2,0.11l-0.24,0.84
			l-0.34-0.62c0,0,0-0.01,0.01-0.01l0.19-0.68c0.02-0.08-0.03-0.17-0.11-0.19l-0.04-0.01c-0.08-0.02-0.17,0.02-0.19,0.11l-0.1,0.35
			l-0.23-0.44c-0.04-0.08-0.14-0.1-0.22-0.06l-0.04,0.02c-0.07,0.04-0.1,0.14-0.06,0.22l0.21,0.41l-0.29-0.08
			c-0.08-0.03-0.17,0.02-0.19,0.11l-0.01,0.04c-0.02,0.08,0.03,0.17,0.11,0.2l0.64,0.18l0.34,0.62l-0.79-0.22
			c-0.08-0.03-0.17,0.02-0.19,0.11l-0.01,0.04c-0.02,0.08,0.03,0.17,0.11,0.2l1.13,0.32l0.37,0.66l-0.74-0.01c0,0,0-0.01-0.01-0.01
			l-0.85-0.88c-0.06-0.06-0.16-0.06-0.22,0l-0.03,0.03c-0.06,0.06-0.06,0.16,0,0.22l0.61,0.63l-0.71-0.01c0,0,0-0.01-0.01-0.01
			l-0.49-0.51c-0.06-0.06-0.16-0.06-0.22,0l-0.03,0.03c-0.06,0.06-0.06,0.16-0.01,0.22l0.25,0.26l-0.51,0
			c-0.09,0-0.16,0.07-0.16,0.16l0,0.04c0,0.09,0.07,0.16,0.15,0.16l0.46,0l-0.22,0.21c-0.06,0.06-0.06,0.16,0,0.22l0.03,0.03
			c0.06,0.06,0.16,0.06,0.22,0l0.48-0.46l0.71,0.01l-0.59,0.57c-0.06,0.06-0.06,0.16,0,0.22l0.03,0.03c0.06,0.06,0.16,0.07,0.23,0
			l0.85-0.82l0.76,0.01l-0.38,0.64c0,0-0.01,0-0.02,0l-1.18,0.3c-0.08,0.02-0.14,0.11-0.11,0.19l0.01,0.04
			c0.02,0.08,0.11,0.14,0.19,0.11l0.85-0.21l-0.36,0.61c-0.01,0-0.01,0-0.02,0l-0.69,0.17c-0.08,0.02-0.13,0.11-0.12,0.19l0.01,0.04
			c0.02,0.08,0.11,0.14,0.19,0.11l0.35-0.09l-0.31,0.5c-0.05,0.08-0.02,0.17,0.05,0.22l0.04,0.02c0.08,0.05,0.17,0.02,0.22-0.05
			l0.29-0.46l0.07,0.3c0.02,0.08,0.11,0.14,0.19,0.11l0.04-0.01c0.09-0.02,0.14-0.11,0.12-0.19l-0.16-0.64l0.36-0.6l0.2,0.79
			c0.02,0.09,0.11,0.14,0.19,0.11l0.04-0.01c0.08-0.02,0.13-0.11,0.12-0.19l-0.29-1.14l0.39-0.65l0.36,0.65c0,0-0.01,0.01-0.01,0.01
			l-0.34,1.17c-0.02,0.08,0.02,0.17,0.11,0.2l0.04,0.01c0.08,0.02,0.17-0.02,0.2-0.11l0.24-0.85l0.34,0.62c0,0-0.01,0.01-0.01,0.01
			l-0.19,0.68c-0.02,0.08,0.03,0.17,0.11,0.2l0.04,0.01c0.09,0.03,0.17-0.02,0.19-0.11l0.1-0.35l0.26,0.45
			c0.04,0.08,0.14,0.1,0.22,0.06l0.03-0.02c0.08-0.04,0.11-0.14,0.06-0.22l-0.24-0.41l0.29,0.08c0.08,0.02,0.17-0.02,0.19-0.11
			l0.01-0.04c0.02-0.08-0.02-0.17-0.11-0.2l-0.64-0.18l-0.34-0.62l0.79,0.23c0.09,0.02,0.17-0.02,0.2-0.11l0.01-0.04
			c0.02-0.08-0.02-0.17-0.11-0.2l-1.13-0.32l-0.37-0.66l0.74,0.01c0,0,0,0.01,0.01,0.01l0.85,0.88c0.06,0.06,0.16,0.06,0.22,0
			l0.03-0.03c0.06-0.06,0.06-0.16,0-0.22l-0.61-0.63l0.71,0.01c0,0,0,0.01,0.01,0.01l0.49,0.51c0.06,0.06,0.16,0.06,0.22,0
			l0.03-0.03c0.06-0.06,0.06-0.16,0-0.22l-0.25-0.26l0.51,0.01c0.09,0,0.16-0.07,0.16-0.16v-0.04
			C32.57,49.16,32.5,49.09,32.41,49.09z"/>
	</g>
</g>
<g>
	<g>
		<path class="st0" d="M40.41,42.09l-0.47-0.01l0.22-0.21c0.06-0.06,0.07-0.16,0-0.22l-0.03-0.03c-0.06-0.06-0.16-0.06-0.23,0
			l-0.48,0.46l-0.7-0.01l0.59-0.57c0.06-0.06,0.06-0.16,0-0.22l-0.03-0.03c-0.06-0.06-0.16-0.06-0.22,0l-0.84,0.82l-0.76-0.01
			l0.38-0.64c0,0,0.01,0,0.01,0l1.18-0.3c0.09-0.02,0.14-0.11,0.11-0.19l-0.01-0.04c-0.02-0.08-0.11-0.14-0.19-0.11l-0.85,0.21
			l0.36-0.61c0.01,0,0.01,0,0.01,0l0.68-0.17c0.09-0.02,0.14-0.11,0.12-0.19l-0.01-0.04c-0.02-0.08-0.1-0.14-0.19-0.12l-0.35,0.09
			l0.25-0.44c0.05-0.08,0.02-0.17-0.06-0.22l-0.04-0.02c-0.07-0.04-0.17-0.02-0.22,0.05l-0.23,0.41l-0.07-0.3
			c-0.02-0.09-0.11-0.14-0.19-0.12l-0.04,0.01c-0.09,0.02-0.13,0.11-0.11,0.19l0.16,0.64l-0.36,0.61l-0.2-0.79
			c-0.02-0.09-0.11-0.14-0.19-0.11l-0.04,0.01c-0.08,0.02-0.14,0.11-0.12,0.19l0.29,1.14l-0.39,0.65l-0.36-0.65
			c0,0,0.01-0.01,0.01-0.01l0.34-1.17c0.02-0.08-0.03-0.17-0.11-0.2l-0.04-0.01c-0.09-0.02-0.17,0.03-0.2,0.11l-0.24,0.84
			l-0.34-0.62c0,0,0-0.01,0.01-0.01l0.19-0.68c0.02-0.08-0.03-0.17-0.11-0.19l-0.04-0.01c-0.08-0.02-0.17,0.02-0.19,0.11l-0.1,0.35
			l-0.23-0.44c-0.04-0.08-0.14-0.1-0.22-0.06l-0.04,0.02c-0.07,0.04-0.1,0.14-0.06,0.22l0.21,0.41l-0.29-0.08
			c-0.08-0.03-0.17,0.02-0.19,0.11l-0.01,0.04c-0.02,0.08,0.03,0.17,0.11,0.2l0.64,0.18l0.34,0.62l-0.79-0.22
			c-0.08-0.03-0.17,0.02-0.19,0.11l-0.01,0.04c-0.02,0.08,0.03,0.17,0.11,0.2l1.13,0.32l0.37,0.66l-0.74-0.01c0,0,0-0.01-0.01-0.01
			l-0.85-0.88c-0.06-0.06-0.16-0.06-0.22,0l-0.03,0.03c-0.06,0.06-0.06,0.16,0,0.22l0.61,0.63l-0.71-0.01c0,0,0-0.01-0.01-0.01
			l-0.49-0.51c-0.06-0.06-0.16-0.06-0.22,0l-0.03,0.03c-0.06,0.06-0.06,0.16-0.01,0.22l0.25,0.26l-0.51,0
			c-0.09,0-0.16,0.07-0.16,0.16l0,0.04c0,0.09,0.07,0.16,0.15,0.16l0.46,0l-0.22,0.21c-0.06,0.06-0.06,0.16,0,0.22l0.03,0.03
			c0.06,0.06,0.16,0.06,0.22,0l0.48-0.46l0.71,0.01l-0.59,0.57c-0.06,0.06-0.06,0.16,0,0.22l0.03,0.03c0.06,0.06,0.16,0.07,0.23,0
			l0.85-0.82l0.76,0.01l-0.38,0.64c0,0-0.01,0-0.02,0l-1.18,0.3c-0.08,0.02-0.14,0.11-0.11,0.19l0.01,0.04
			c0.02,0.08,0.11,0.14,0.19,0.11l0.85-0.21l-0.36,0.61c-0.01,0-0.01,0-0.02,0l-0.69,0.17c-0.08,0.02-0.13,0.11-0.12,0.19l0.01,0.04
			c0.02,0.08,0.11,0.14,0.19,0.11l0.35-0.09l-0.31,0.5c-0.05,0.08-0.02,0.17,0.05,0.22l0.04,0.02c0.08,0.05,0.17,0.02,0.22-0.05
			l0.29-0.46l0.07,0.3c0.02,0.08,0.11,0.14,0.19,0.11l0.04-0.01c0.09-0.02,0.14-0.11,0.12-0.19l-0.16-0.64l0.36-0.6l0.2,0.79
			c0.02,0.09,0.11,0.14,0.19,0.11l0.04-0.01c0.08-0.02,0.13-0.11,0.12-0.19l-0.29-1.14l0.39-0.65l0.36,0.65c0,0-0.01,0.01-0.01,0.01
			l-0.34,1.17c-0.02,0.08,0.02,0.17,0.11,0.2l0.04,0.01c0.08,0.02,0.17-0.02,0.2-0.11l0.24-0.85l0.34,0.62c0,0-0.01,0.01-0.01,0.01
			l-0.19,0.68c-0.02,0.08,0.03,0.17,0.11,0.2l0.04,0.01c0.09,0.03,0.17-0.02,0.19-0.11l0.1-0.35l0.26,0.45
			c0.04,0.08,0.14,0.1,0.22,0.06l0.03-0.02c0.08-0.04,0.11-0.14,0.06-0.22l-0.24-0.41l0.29,0.08c0.08,0.02,0.17-0.02,0.19-0.11
			l0.01-0.04c0.02-0.08-0.02-0.17-0.11-0.2l-0.64-0.18l-0.34-0.62l0.79,0.23c0.09,0.02,0.17-0.02,0.2-0.11l0.01-0.04
			c0.02-0.08-0.02-0.17-0.11-0.2l-1.13-0.32l-0.37-0.66l0.74,0.01c0,0,0,0.01,0.01,0.01l0.85,0.88c0.06,0.06,0.16,0.06,0.22,0
			l0.03-0.03c0.06-0.06,0.06-0.16,0-0.22l-0.61-0.63l0.71,0.01c0,0,0,0.01,0.01,0.01l0.49,0.51c0.06,0.06,0.16,0.06,0.22,0
			l0.03-0.03c0.06-0.06,0.06-0.16,0-0.22l-0.25-0.26l0.51,0.01c0.09,0,0.16-0.07,0.16-0.16v-0.04
			C40.57,42.16,40.5,42.09,40.41,42.09z"/>
	</g>
</g>
<g>
	<g>
		<path class="st0" d="M55.41,42.09l-0.47-0.01l0.22-0.21c0.06-0.06,0.07-0.16,0-0.22l-0.03-0.03c-0.06-0.06-0.16-0.06-0.23,0
			l-0.48,0.46l-0.7-0.01l0.59-0.57c0.06-0.06,0.06-0.16,0-0.22l-0.03-0.03c-0.06-0.06-0.16-0.06-0.22,0l-0.84,0.82l-0.76-0.01
			l0.38-0.64c0,0,0.01,0,0.01,0l1.18-0.3c0.09-0.02,0.14-0.11,0.11-0.19l-0.01-0.04c-0.02-0.08-0.11-0.14-0.19-0.11l-0.85,0.21
			l0.36-0.61c0.01,0,0.01,0,0.01,0l0.68-0.17c0.09-0.02,0.14-0.11,0.12-0.19l-0.01-0.04c-0.02-0.08-0.1-0.14-0.19-0.12l-0.35,0.09
			l0.25-0.44c0.05-0.08,0.02-0.17-0.06-0.22l-0.04-0.02c-0.07-0.04-0.17-0.02-0.22,0.05l-0.23,0.41l-0.07-0.3
			c-0.02-0.09-0.11-0.14-0.19-0.12l-0.04,0.01c-0.09,0.02-0.13,0.11-0.11,0.19l0.16,0.64l-0.36,0.61l-0.2-0.79
			c-0.02-0.09-0.11-0.14-0.19-0.11l-0.04,0.01c-0.08,0.02-0.14,0.11-0.12,0.19l0.29,1.14l-0.39,0.65l-0.36-0.65
			c0,0,0.01-0.01,0.01-0.01l0.34-1.17c0.02-0.08-0.03-0.17-0.11-0.2l-0.04-0.01c-0.09-0.02-0.17,0.03-0.2,0.11l-0.24,0.84
			l-0.34-0.62c0,0,0-0.01,0.01-0.01l0.19-0.68c0.02-0.08-0.03-0.17-0.11-0.19l-0.04-0.01c-0.08-0.02-0.17,0.02-0.19,0.11l-0.1,0.35
			l-0.23-0.44c-0.04-0.08-0.14-0.1-0.22-0.06l-0.04,0.02c-0.07,0.04-0.1,0.14-0.06,0.22l0.21,0.41l-0.29-0.08
			c-0.08-0.03-0.17,0.02-0.19,0.11l-0.01,0.04c-0.02,0.08,0.03,0.17,0.11,0.2l0.64,0.18l0.34,0.62l-0.79-0.22
			c-0.08-0.03-0.17,0.02-0.19,0.11l-0.01,0.04c-0.02,0.08,0.03,0.17,0.11,0.2l1.13,0.32l0.37,0.66l-0.74-0.01c0,0,0-0.01-0.01-0.01
			l-0.85-0.88c-0.06-0.06-0.16-0.06-0.22,0l-0.03,0.03c-0.06,0.06-0.06,0.16,0,0.22l0.61,0.63l-0.71-0.01c0,0,0-0.01-0.01-0.01
			l-0.49-0.51c-0.06-0.06-0.16-0.06-0.22,0l-0.03,0.03c-0.06,0.06-0.06,0.16-0.01,0.22l0.25,0.26l-0.51,0
			c-0.09,0-0.16,0.07-0.16,0.16l0,0.04c0,0.09,0.07,0.16,0.15,0.16l0.46,0l-0.22,0.21c-0.06,0.06-0.06,0.16,0,0.22l0.03,0.03
			c0.06,0.06,0.16,0.06,0.22,0l0.48-0.46l0.71,0.01l-0.59,0.57c-0.06,0.06-0.06,0.16,0,0.22l0.03,0.03c0.06,0.06,0.16,0.07,0.23,0
			l0.85-0.82l0.76,0.01l-0.38,0.64c0,0-0.01,0-0.02,0l-1.18,0.3c-0.08,0.02-0.14,0.11-0.11,0.19l0.01,0.04
			c0.02,0.08,0.11,0.14,0.19,0.11l0.85-0.21l-0.36,0.61c-0.01,0-0.01,0-0.02,0l-0.69,0.17c-0.08,0.02-0.13,0.11-0.12,0.19l0.01,0.04
			c0.02,0.08,0.11,0.14,0.19,0.11l0.35-0.09l-0.31,0.5c-0.05,0.08-0.02,0.17,0.05,0.22l0.04,0.02c0.08,0.05,0.17,0.02,0.22-0.05
			l0.29-0.46l0.07,0.3c0.02,0.08,0.11,0.14,0.19,0.11l0.04-0.01c0.09-0.02,0.14-0.11,0.12-0.19l-0.16-0.64l0.36-0.6l0.2,0.79
			c0.02,0.09,0.11,0.14,0.19,0.11l0.04-0.01c0.08-0.02,0.13-0.11,0.12-0.19l-0.29-1.14l0.39-0.65l0.36,0.65c0,0-0.01,0.01-0.01,0.01
			l-0.34,1.17c-0.02,0.08,0.02,0.17,0.11,0.2l0.04,0.01c0.08,0.02,0.17-0.02,0.2-0.11l0.24-0.85l0.34,0.62c0,0-0.01,0.01-0.01,0.01
			l-0.19,0.68c-0.02,0.08,0.03,0.17,0.11,0.2l0.04,0.01c0.09,0.03,0.17-0.02,0.19-0.11l0.1-0.35l0.26,0.45
			c0.04,0.08,0.14,0.1,0.22,0.06l0.03-0.02c0.08-0.04,0.11-0.14,0.06-0.22l-0.24-0.41l0.29,0.08c0.08,0.02,0.17-0.02,0.19-0.11
			l0.01-0.04c0.02-0.08-0.02-0.17-0.11-0.2l-0.64-0.18l-0.34-0.62l0.79,0.23c0.09,0.02,0.17-0.02,0.2-0.11l0.01-0.04
			c0.02-0.08-0.02-0.17-0.11-0.2l-1.13-0.32l-0.37-0.66l0.74,0.01c0,0,0,0.01,0.01,0.01l0.85,0.88c0.06,0.06,0.16,0.06,0.22,0
			l0.03-0.03c0.06-0.06,0.06-0.16,0-0.22l-0.61-0.63l0.71,0.01c0,0,0,0.01,0.01,0.01l0.49,0.51c0.06,0.06,0.16,0.06,0.22,0
			l0.03-0.03c0.06-0.06,0.06-0.16,0-0.22l-0.25-0.26l0.51,0.01c0.09,0,0.16-0.07,0.16-0.16v-0.04
			C55.57,42.16,55.5,42.09,55.41,42.09z"/>
	</g>
</g>
<g>
	<g>
		<path class="st0" d="M38.41,57.09l-0.47-0.01l0.22-0.21c0.06-0.06,0.07-0.16,0-0.22l-0.03-0.03c-0.06-0.06-0.16-0.06-0.23,0
			l-0.48,0.46l-0.7-0.01l0.59-0.57c0.06-0.06,0.06-0.16,0-0.22l-0.03-0.03c-0.06-0.06-0.16-0.06-0.22,0l-0.84,0.82l-0.76-0.01
			l0.38-0.64c0,0,0.01,0,0.01,0l1.18-0.3c0.09-0.02,0.14-0.11,0.11-0.19l-0.01-0.04c-0.02-0.08-0.11-0.14-0.19-0.11l-0.85,0.21
			l0.36-0.61c0.01,0,0.01,0,0.01,0l0.68-0.17c0.09-0.02,0.14-0.11,0.12-0.19l-0.01-0.04c-0.02-0.08-0.1-0.14-0.19-0.12l-0.35,0.09
			l0.25-0.44c0.05-0.08,0.02-0.17-0.06-0.22l-0.04-0.02c-0.07-0.04-0.17-0.02-0.22,0.05l-0.23,0.41l-0.07-0.3
			c-0.02-0.09-0.11-0.14-0.19-0.12l-0.04,0.01c-0.09,0.02-0.13,0.11-0.11,0.19l0.16,0.64l-0.36,0.61l-0.2-0.79
			c-0.02-0.09-0.11-0.14-0.19-0.11l-0.04,0.01c-0.08,0.02-0.14,0.11-0.12,0.19l0.29,1.14l-0.39,0.65l-0.36-0.65
			c0,0,0.01-0.01,0.01-0.01l0.34-1.17c0.02-0.08-0.03-0.17-0.11-0.2l-0.04-0.01c-0.09-0.02-0.17,0.03-0.2,0.11l-0.24,0.84
			l-0.34-0.62c0,0,0-0.01,0.01-0.01l0.19-0.68c0.02-0.08-0.03-0.17-0.11-0.19l-0.04-0.01c-0.08-0.02-0.17,0.02-0.19,0.11l-0.1,0.35
			l-0.23-0.44c-0.04-0.08-0.14-0.1-0.22-0.06l-0.04,0.02c-0.07,0.04-0.1,0.14-0.06,0.22l0.21,0.41l-0.29-0.08
			c-0.08-0.03-0.17,0.02-0.19,0.11l-0.01,0.04c-0.02,0.08,0.03,0.17,0.11,0.2l0.64,0.18l0.34,0.62l-0.79-0.22
			c-0.08-0.03-0.17,0.02-0.19,0.11l-0.01,0.04c-0.02,0.08,0.03,0.17,0.11,0.2l1.13,0.32l0.37,0.66l-0.74-0.01c0,0,0-0.01-0.01-0.01
			l-0.85-0.88c-0.06-0.06-0.16-0.06-0.22,0l-0.03,0.03c-0.06,0.06-0.06,0.16,0,0.22l0.61,0.63l-0.71-0.01c0,0,0-0.01-0.01-0.01
			l-0.49-0.51c-0.06-0.06-0.16-0.06-0.22,0l-0.03,0.03c-0.06,0.06-0.06,0.16-0.01,0.22l0.25,0.26l-0.51,0
			c-0.09,0-0.16,0.07-0.16,0.16l0,0.04c0,0.09,0.07,0.16,0.15,0.16l0.46,0l-0.22,0.21c-0.06,0.06-0.06,0.16,0,0.22l0.03,0.03
			c0.06,0.06,0.16,0.06,0.22,0l0.48-0.46l0.71,0.01l-0.59,0.57c-0.06,0.06-0.06,0.16,0,0.22l0.03,0.03c0.06,0.06,0.16,0.07,0.23,0
			l0.85-0.82l0.76,0.01l-0.38,0.64c0,0-0.01,0-0.02,0l-1.18,0.3c-0.08,0.02-0.14,0.11-0.11,0.19l0.01,0.04
			c0.02,0.08,0.11,0.14,0.19,0.11l0.85-0.21l-0.36,0.61c-0.01,0-0.01,0-0.02,0l-0.69,0.17c-0.08,0.02-0.13,0.11-0.12,0.19l0.01,0.04
			c0.02,0.08,0.11,0.14,0.19,0.11l0.35-0.09l-0.31,0.5c-0.05,0.08-0.02,0.17,0.05,0.22l0.04,0.02c0.08,0.05,0.17,0.02,0.22-0.05
			l0.29-0.46l0.07,0.3c0.02,0.08,0.11,0.14,0.19,0.11l0.04-0.01c0.09-0.02,0.14-0.11,0.12-0.19l-0.16-0.64l0.36-0.6l0.2,0.79
			c0.02,0.09,0.11,0.14,0.19,0.11l0.04-0.01c0.08-0.02,0.13-0.11,0.12-0.19l-0.29-1.14l0.39-0.65l0.36,0.65c0,0-0.01,0.01-0.01,0.01
			l-0.34,1.17c-0.02,0.08,0.02,0.17,0.11,0.2l0.04,0.01c0.08,0.02,0.17-0.02,0.2-0.11l0.24-0.85l0.34,0.62c0,0-0.01,0.01-0.01,0.01
			l-0.19,0.68c-0.02,0.08,0.03,0.17,0.11,0.2l0.04,0.01c0.09,0.03,0.17-0.02,0.19-0.11l0.1-0.35l0.26,0.45
			c0.04,0.08,0.14,0.1,0.22,0.06l0.03-0.02c0.08-0.04,0.11-0.14,0.06-0.22l-0.24-0.41l0.29,0.08c0.08,0.02,0.17-0.02,0.19-0.11
			l0.01-0.04c0.02-0.08-0.02-0.17-0.11-0.2l-0.64-0.18l-0.34-0.62l0.79,0.23c0.09,0.02,0.17-0.02,0.2-0.11l0.01-0.04
			c0.02-0.08-0.02-0.17-0.11-0.2l-1.13-0.32l-0.37-0.66l0.74,0.01c0,0,0,0.01,0.01,0.01l0.85,0.88c0.06,0.06,0.16,0.06,0.22,0
			l0.03-0.03c0.06-0.06,0.06-0.16,0-0.22l-0.61-0.63l0.71,0.01c0,0,0,0.01,0.01,0.01l0.49,0.51c0.06,0.06,0.16,0.06,0.22,0
			l0.03-0.03c0.06-0.06,0.06-0.16,0-0.22l-0.25-0.26l0.51,0.01c0.09,0,0.16-0.07,0.16-0.16v-0.04
			C38.57,57.16,38.5,57.09,38.41,57.09z"/>
	</g>
</g>
<g>
	<g>
		<path class="st0" d="M47.41,50.09l-0.47-0.01l0.22-0.21c0.06-0.06,0.07-0.16,0-0.22l-0.03-0.03c-0.06-0.06-0.16-0.06-0.23,0
			l-0.48,0.46l-0.7-0.01l0.59-0.57c0.06-0.06,0.06-0.16,0-0.22l-0.03-0.03c-0.06-0.06-0.16-0.06-0.22,0l-0.84,0.82l-0.76-0.01
			l0.38-0.64c0,0,0.01,0,0.01,0l1.18-0.3c0.09-0.02,0.14-0.11,0.11-0.19l-0.01-0.04c-0.02-0.08-0.11-0.14-0.19-0.11l-0.85,0.21
			l0.36-0.61c0.01,0,0.01,0,0.01,0l0.68-0.17c0.09-0.02,0.14-0.11,0.12-0.19l-0.01-0.04c-0.02-0.08-0.1-0.14-0.19-0.12l-0.35,0.09
			l0.25-0.44c0.05-0.08,0.02-0.17-0.06-0.22l-0.04-0.02c-0.07-0.04-0.17-0.02-0.22,0.05l-0.23,0.41l-0.07-0.3
			c-0.02-0.09-0.11-0.14-0.19-0.12l-0.04,0.01c-0.09,0.02-0.13,0.11-0.11,0.19l0.16,0.64l-0.36,0.61l-0.2-0.79
			c-0.02-0.09-0.11-0.14-0.19-0.11l-0.04,0.01c-0.08,0.02-0.14,0.11-0.12,0.19l0.29,1.14l-0.39,0.65l-0.36-0.65
			c0,0,0.01-0.01,0.01-0.01l0.34-1.17c0.02-0.08-0.03-0.17-0.11-0.2l-0.04-0.01c-0.09-0.02-0.17,0.03-0.2,0.11l-0.24,0.84
			l-0.34-0.62c0,0,0-0.01,0.01-0.01l0.19-0.68c0.02-0.08-0.03-0.17-0.11-0.19l-0.04-0.01c-0.08-0.02-0.17,0.02-0.19,0.11l-0.1,0.35
			l-0.23-0.44c-0.04-0.08-0.14-0.1-0.22-0.06l-0.04,0.02c-0.07,0.04-0.1,0.14-0.06,0.22l0.21,0.41l-0.29-0.08
			c-0.08-0.03-0.17,0.02-0.19,0.11l-0.01,0.04c-0.02,0.08,0.03,0.17,0.11,0.2l0.64,0.18l0.34,0.62l-0.79-0.22
			c-0.08-0.03-0.17,0.02-0.19,0.11l-0.01,0.04c-0.02,0.08,0.03,0.17,0.11,0.2l1.13,0.32l0.37,0.66l-0.74-0.01c0,0,0-0.01-0.01-0.01
			l-0.85-0.88c-0.06-0.06-0.16-0.06-0.22,0l-0.03,0.03c-0.06,0.06-0.06,0.16,0,0.22l0.61,0.63l-0.71-0.01c0,0,0-0.01-0.01-0.01
			l-0.49-0.51c-0.06-0.06-0.16-0.06-0.22,0l-0.03,0.03c-0.06,0.06-0.06,0.16-0.01,0.22l0.25,0.26l-0.51,0
			c-0.09,0-0.16,0.07-0.16,0.16l0,0.04c0,0.09,0.07,0.16,0.15,0.16l0.46,0l-0.22,0.21c-0.06,0.06-0.06,0.16,0,0.22l0.03,0.03
			c0.06,0.06,0.16,0.06,0.22,0l0.48-0.46l0.71,0.01l-0.59,0.57c-0.06,0.06-0.06,0.16,0,0.22l0.03,0.03c0.06,0.06,0.16,0.07,0.23,0
			l0.85-0.82l0.76,0.01l-0.38,0.64c0,0-0.01,0-0.02,0l-1.18,0.3c-0.08,0.02-0.14,0.11-0.11,0.19l0.01,0.04
			c0.02,0.08,0.11,0.14,0.19,0.11l0.85-0.21l-0.36,0.61c-0.01,0-0.01,0-0.02,0l-0.69,0.17c-0.08,0.02-0.13,0.11-0.12,0.19l0.01,0.04
			c0.02,0.08,0.11,0.14,0.19,0.11l0.35-0.09l-0.31,0.5c-0.05,0.08-0.02,0.17,0.05,0.22l0.04,0.02c0.08,0.05,0.17,0.02,0.22-0.05
			l0.29-0.46l0.07,0.3c0.02,0.08,0.11,0.14,0.19,0.11l0.04-0.01c0.09-0.02,0.14-0.11,0.12-0.19l-0.16-0.64l0.36-0.6l0.2,0.79
			c0.02,0.09,0.11,0.14,0.19,0.11l0.04-0.01c0.08-0.02,0.13-0.11,0.12-0.19l-0.29-1.14l0.39-0.65l0.36,0.65c0,0-0.01,0.01-0.01,0.01
			l-0.34,1.17c-0.02,0.08,0.02,0.17,0.11,0.2l0.04,0.01c0.08,0.02,0.17-0.02,0.2-0.11l0.24-0.85l0.34,0.62c0,0-0.01,0.01-0.01,0.01
			l-0.19,0.68c-0.02,0.08,0.03,0.17,0.11,0.2l0.04,0.01c0.09,0.03,0.17-0.02,0.19-0.11l0.1-0.35l0.26,0.45
			c0.04,0.08,0.14,0.1,0.22,0.06l0.03-0.02c0.08-0.04,0.11-0.14,0.06-0.22l-0.24-0.41l0.29,0.08c0.08,0.02,0.17-0.02,0.19-0.11
			l0.01-0.04c0.02-0.08-0.02-0.17-0.11-0.2l-0.64-0.18l-0.34-0.62l0.79,0.23c0.09,0.02,0.17-0.02,0.2-0.11l0.01-0.04
			c0.02-0.08-0.02-0.17-0.11-0.2l-1.13-0.32l-0.37-0.66l0.74,0.01c0,0,0,0.01,0.01,0.01l0.85,0.88c0.06,0.06,0.16,0.06,0.22,0
			l0.03-0.03c0.06-0.06,0.06-0.16,0-0.22l-0.61-0.63l0.71,0.01c0,0,0,0.01,0.01,0.01l0.49,0.51c0.06,0.06,0.16,0.06,0.22,0
			l0.03-0.03c0.06-0.06,0.06-0.16,0-0.22l-0.25-0.26l0.51,0.01c0.09,0,0.16-0.07,0.16-0.16v-0.04
			C47.57,50.16,47.5,50.09,47.41,50.09z"/>
	</g>
</g>
</svg>
