<?xml version="1.0" encoding="utf-8"?>
<!-- Generator: Adobe Illustrator 27.2.0, SVG Export Plug-In . SVG Version: 6.00 Build 0)  -->
<svg version="1.1" id="Lager_1" xmlns="http://www.w3.org/2000/svg" xmlns:xlink="http://www.w3.org/1999/xlink" x="0px" y="0px"
	 viewBox="0 0 64 64" style="enable-background:new 0 0 64 64;" xml:space="preserve">
<style type="text/css">
	.st0{fill:#4A6272;}
	.st1{fill:url(#SVGID_1_);}
	.st2{fill:#7986A8;}
	.st3{fill:url(#SVGID_00000123399117660479337370000017651926997426537142_);}
	.st4{fill:url(#SVGID_00000001655873262544824370000004069788482102209667_);}
	.st5{fill:#2C8ACA;}
	.st6{fill:url(#SVGID_00000155137560576224919050000016298151876627307449_);}
	.st7{fill:url(#SVGID_00000058563445242208961660000003078522485464818827_);}
	.st8{fill:url(#SVGID_00000075164459735064822440000009244436880839297455_);}
	.st9{fill:url(#SVGID_00000181087226654327878710000003198362224500394369_);}
	.st10{fill:url(#SVGID_00000116939216292814962590000008783792923197015224_);}
	.st11{fill:url(#SVGID_00000069356843603611128110000008001225994062777733_);}
	.st12{fill:url(#SVGID_00000111893055086907362360000018217502491537589657_);}
	.st13{fill:url(#SVGID_00000173125449155122266610000001965800346403195557_);}
	.st14{fill:url(#SVGID_00000079482558093978561130000015819325607617399436_);}
	.st15{fill:url(#SVGID_00000147911600477191057430000016250053149480548739_);}
</style>
<g>
	<g>
		<path class="st0" d="M38.97,36.96c-1.76,0-3.13-0.06-3.98-0.11c-0.94-0.06-2.17-0.1-3.59-0.15c-10.59-0.37-30.3-1.06-31.39-9.78
			l-0.01-0.05l0-0.05c-0.21-6.19,9.44-8.5,12.88-9.13c-0.74-3.37-0.46-8.89,4.89-11.56c1.79-0.9,3.91-1.37,6.13-1.37
			c4.02,0,8.04,1.56,10.36,3.95c0.05-0.04,0.11-0.08,0.16-0.12c1.45-1.04,3.44-2.47,6.42-2.47c0.72,0,1.47,0.09,2.23,0.25
			c3.49,0.77,4.72,3.63,4.98,5.68c3.24,0.02,13.29,0.98,15.7,11.63c0.6,2.63,0.11,4.94-1.43,6.87
			C57.88,36.13,45.78,36.96,38.97,36.96z"/>
		
			<linearGradient id="SVGID_1_" gradientUnits="userSpaceOnUse" x1="-1104.1669" y1="7.3936" x2="-1098.6875" y2="36.9212" gradientTransform="matrix(-1 0 0 1 -1068.6543 0)">
			<stop  offset="0" style="stop-color:#76809A"/>
			<stop  offset="0.1522" style="stop-color:#6E7A94"/>
			<stop  offset="0.3832" style="stop-color:#596A82"/>
			<stop  offset="0.6644" style="stop-color:#374F66"/>
			<stop  offset="0.9825" style="stop-color:#082A3F"/>
			<stop  offset="1" style="stop-color:#05283D"/>
		</linearGradient>
		<path class="st1" d="M14.19,18.54c0,0-2.78-8.06,4.04-11.47c5.39-2.7,12.93-0.78,15.85,3.03c1.79-1.12,4.21-3.71,8.77-2.7
			c4.43,0.99,4.21,5.73,4.21,5.73s12.98-1.1,15.68,10.79c2.69,11.89-20.06,12.33-27.69,11.89c-7.63-0.45-32.89-0.05-34.01-9.02
			C0.82,20.29,14.19,18.54,14.19,18.54z"/>
		<path class="st2" d="M1.38,24.94c3.88-3.77,14.84-4.38,14.84-4.38s-4.16-9.42,2.66-12.83c5.39-2.7,11.95,0.59,14.87,4.4
			c1.79-1.12,4.05-4.38,8.6-3.37c4.43,0.99,2.87,6.07,2.87,6.07s14.67-0.93,17.36,10.96c0.12,0.54,0.19,1.05,0.22,1.54
			c0.23-1.01,0.24-2.14-0.05-3.39c-2.69-11.89-15.68-10.79-15.68-10.79s0.22-4.75-4.21-5.73c-4.55-1.01-6.97,1.58-8.77,2.7
			c-2.92-3.81-10.45-5.73-15.85-3.03c-6.82,3.41-4.04,11.47-4.04,11.47S3.43,19.95,1.38,24.94z"/>
	</g>
	<g>
		
			<linearGradient id="SVGID_00000005253205312133126080000016995678093479004322_" gradientUnits="userSpaceOnUse" x1="268.1913" y1="-198.344" x2="274.6064" y2="-168.5711" gradientTransform="matrix(0.8766 0.4813 -0.4813 0.8766 -306.134 57.2628)">
			<stop  offset="0.1333" style="stop-color:#FFF7CE"/>
			<stop  offset="0.3002" style="stop-color:#FCD4A9"/>
			<stop  offset="0.6351" style="stop-color:#F59364"/>
			<stop  offset="0.8772" style="stop-color:#F16A39"/>
			<stop  offset="1" style="stop-color:#F05A28"/>
		</linearGradient>
		<path style="fill:url(#SVGID_00000005253205312133126080000016995678093479004322_);" d="M8.21,39.01l3.66-6.42l0.51,1.04
			l5.97-5.9l-2.14-1.17l4.08-3.96l-2.95-1.62l6.16-5.62l0.43,0.18c1.43,0.62,3.6,1.49,5.85,1.94l1.37,0.27l-4.96,4.26l1.87,1.29
			l-5.3,4.41l1.14,1.01L14.09,35l1.43,0.4L8.21,39.01z"/>
		
			<linearGradient id="SVGID_00000167358658456945761150000014213904188933524151_" gradientUnits="userSpaceOnUse" x1="268.1291" y1="-197.495" x2="274.0941" y2="-169.8111" gradientTransform="matrix(0.8766 0.4813 -0.4813 0.8766 -306.134 57.2628)">
			<stop  offset="0" style="stop-color:#D69528"/>
			<stop  offset="0.097" style="stop-color:#E4AB1B"/>
			<stop  offset="0.2251" style="stop-color:#F2C20D"/>
			<stop  offset="0.3468" style="stop-color:#FACF05"/>
			<stop  offset="0.4545" style="stop-color:#FDD402"/>
			<stop  offset="0.5348" style="stop-color:#FDD813"/>
			<stop  offset="0.6929" style="stop-color:#FEE33E"/>
			<stop  offset="0.8667" style="stop-color:#FFF174"/>
		</linearGradient>
		<path style="fill:url(#SVGID_00000167358658456945761150000014213904188933524151_);" d="M18.4,20.92l2.93,1.61l-4.08,3.96
			l2.08,1.14l-7.03,7.17l-0.44-0.88l-2.55,4.07l4.59-2.46l-1.14-0.32l10.19-6.59l-1.13-1l5.22-4.35l-1.87-1.28l4.59-3.94
			c-2.24-0.45-4.39-1.29-6.02-1.99L18.4,20.92z"/>
	</g>
	<g>
		<path class="st5" d="M53.76,32.28c-1.16-0.19-1.95-1.23-1.88-2.48c0.08-1.4,2.09-3.45,2.32-3.68l0.44-0.44l0.31,0.53
			c0.17,0.29,1.68,2.91,1.38,4.28C56.06,31.75,55,32.48,53.76,32.28z"/>
		
			<linearGradient id="SVGID_00000093135588735872922820000014581318719408767908_" gradientUnits="userSpaceOnUse" x1="124.2945" y1="213.3" x2="126.7225" y2="219.2388" gradientTransform="matrix(0.7812 0.1267 -0.1268 0.7812 -16.6205 -155.3966)">
			<stop  offset="0" style="stop-color:#8ED1F3"/>
			<stop  offset="0.2826" style="stop-color:#86CDF1"/>
			<stop  offset="0.7201" style="stop-color:#70C1EC"/>
			<stop  offset="0.903" style="stop-color:#65BBE9"/>
		</linearGradient>
		<path style="fill:url(#SVGID_00000093135588735872922820000014581318719408767908_);" d="M55.87,30.4
			c-0.23,1.01-1.06,1.57-2.03,1.41c-0.97-0.16-1.53-1.02-1.48-1.98c0.07-1.25,2.18-3.37,2.18-3.37S56.14,29.17,55.87,30.4z"/>
	</g>
	<g>
		<path class="st5" d="M43.96,34.49c-1.47-0.24-2.47-1.56-2.38-3.13c0.1-1.76,2.65-4.36,2.94-4.65l0.55-0.55l0.4,0.67
			c0.22,0.37,2.13,3.68,1.74,5.41C46.86,33.82,45.52,34.74,43.96,34.49z"/>
		
			<linearGradient id="SVGID_00000079451312574897094120000007538542912796414132_" gradientUnits="userSpaceOnUse" x1="137.3555" y1="47.264" x2="139.7836" y2="53.2032" gradientTransform="matrix(0.9871 0.16 -0.16 0.9871 -84.4803 -40.8337)">
			<stop  offset="0" style="stop-color:#8ED1F3"/>
			<stop  offset="0.2826" style="stop-color:#86CDF1"/>
			<stop  offset="0.7201" style="stop-color:#70C1EC"/>
			<stop  offset="0.903" style="stop-color:#65BBE9"/>
		</linearGradient>
		<path style="fill:url(#SVGID_00000079451312574897094120000007538542912796414132_);" d="M46.62,32.11
			c-0.29,1.28-1.34,1.98-2.56,1.78c-1.22-0.2-1.94-1.28-1.87-2.5c0.09-1.59,2.76-4.25,2.76-4.25S46.96,30.56,46.62,32.11z"/>
	</g>
	<g>
		<path class="st5" d="M32.72,33.62c-1.47-0.24-2.47-1.55-2.38-3.13c0.1-1.76,2.65-4.36,2.94-4.65l0.55-0.55l0.4,0.67
			c0.22,0.37,2.13,3.68,1.74,5.41C35.62,32.95,34.28,33.87,32.72,33.62z"/>
		
			<linearGradient id="SVGID_00000179645043855691520260000018166488048847466431_" gradientUnits="userSpaceOnUse" x1="126.1191" y1="48.2014" x2="128.5471" y2="54.1401" gradientTransform="matrix(0.9871 0.16 -0.16 0.9871 -84.4803 -40.8337)">
			<stop  offset="0" style="stop-color:#8ED1F3"/>
			<stop  offset="0.2826" style="stop-color:#86CDF1"/>
			<stop  offset="0.7201" style="stop-color:#70C1EC"/>
			<stop  offset="0.903" style="stop-color:#65BBE9"/>
		</linearGradient>
		<path style="fill:url(#SVGID_00000179645043855691520260000018166488048847466431_);" d="M35.38,31.24
			c-0.29,1.28-1.34,1.98-2.56,1.78c-1.22-0.2-1.94-1.28-1.87-2.5c0.09-1.59,2.76-4.25,2.76-4.25S35.72,29.69,35.38,31.24z"/>
	</g>
	<g>
		<path class="st5" d="M35.14,46.1c-1.47-0.24-2.47-1.55-2.38-3.13c0.1-1.76,2.65-4.36,2.94-4.65l0.55-0.55l0.4,0.67
			c0.22,0.37,2.13,3.68,1.74,5.41C38.04,45.43,36.71,46.35,35.14,46.1z"/>
		
			<linearGradient id="SVGID_00000011002588509891600250000009413923969582367929_" gradientUnits="userSpaceOnUse" x1="130.5064" y1="60.1321" x2="132.9344" y2="66.0709" gradientTransform="matrix(0.9871 0.16 -0.16 0.9871 -84.4803 -40.8337)">
			<stop  offset="0" style="stop-color:#8ED1F3"/>
			<stop  offset="0.2826" style="stop-color:#86CDF1"/>
			<stop  offset="0.7201" style="stop-color:#70C1EC"/>
			<stop  offset="0.903" style="stop-color:#65BBE9"/>
		</linearGradient>
		<path style="fill:url(#SVGID_00000011002588509891600250000009413923969582367929_);" d="M37.8,43.72
			c-0.28,1.28-1.34,1.98-2.56,1.78c-1.22-0.2-1.94-1.28-1.87-2.5c0.09-1.59,2.76-4.25,2.76-4.25S38.15,42.17,37.8,43.72z"/>
	</g>
	<g>
		<path class="st5" d="M50.2,45.93c-1.47-0.24-2.47-1.56-2.38-3.13c0.1-1.76,2.65-4.36,2.94-4.65l0.55-0.55l0.4,0.67
			c0.22,0.37,2.13,3.68,1.74,5.41C53.1,45.26,51.76,46.18,50.2,45.93z"/>
		
			<linearGradient id="SVGID_00000100369263546872916120000012980546208216010626_" gradientUnits="userSpaceOnUse" x1="145.3454" y1="57.5583" x2="147.7734" y2="63.4971" gradientTransform="matrix(0.9871 0.16 -0.16 0.9871 -84.4803 -40.8337)">
			<stop  offset="0" style="stop-color:#8ED1F3"/>
			<stop  offset="0.2826" style="stop-color:#86CDF1"/>
			<stop  offset="0.7201" style="stop-color:#70C1EC"/>
			<stop  offset="0.903" style="stop-color:#65BBE9"/>
		</linearGradient>
		<path style="fill:url(#SVGID_00000100369263546872916120000012980546208216010626_);" d="M52.86,43.55
			c-0.28,1.28-1.34,1.98-2.56,1.78c-1.22-0.2-1.94-1.28-1.87-2.5c0.09-1.59,2.76-4.25,2.76-4.25S53.2,42,52.86,43.55z"/>
	</g>
	<g>
		<path class="st5" d="M24.78,44.35c-1.47-0.24-2.47-1.56-2.38-3.13c0.1-1.76,2.65-4.36,2.94-4.65l0.55-0.55l0.4,0.67
			c0.22,0.37,2.13,3.68,1.74,5.41C27.68,43.68,26.34,44.61,24.78,44.35z"/>
		
			<linearGradient id="SVGID_00000088816140754163699790000017972076784927079850_" gradientUnits="userSpaceOnUse" x1="119.9951" y1="60.0677" x2="122.4231" y2="66.0065" gradientTransform="matrix(0.9871 0.16 -0.16 0.9871 -84.4803 -40.8337)">
			<stop  offset="0" style="stop-color:#8ED1F3"/>
			<stop  offset="0.2826" style="stop-color:#86CDF1"/>
			<stop  offset="0.7201" style="stop-color:#70C1EC"/>
			<stop  offset="0.903" style="stop-color:#65BBE9"/>
		</linearGradient>
		<path style="fill:url(#SVGID_00000088816140754163699790000017972076784927079850_);" d="M27.44,41.97
			c-0.29,1.28-1.34,1.98-2.56,1.78c-1.22-0.2-1.94-1.28-1.87-2.5c0.09-1.59,2.76-4.25,2.76-4.25S27.78,40.42,27.44,41.97z"/>
	</g>
	<g>
		<path class="st5" d="M30.75,58.79c-1.47-0.24-2.47-1.55-2.38-3.13c0.1-1.76,2.65-4.36,2.94-4.65l0.55-0.55l0.4,0.67
			c0.22,0.37,2.13,3.68,1.74,5.41C33.65,58.12,32.31,59.04,30.75,58.79z"/>
		
			<linearGradient id="SVGID_00000097493276096380727550000012188726148862500000_" gradientUnits="userSpaceOnUse" x1="128.1992" y1="73.3642" x2="130.6274" y2="79.3034" gradientTransform="matrix(0.9871 0.16 -0.16 0.9871 -84.4803 -40.8337)">
			<stop  offset="0" style="stop-color:#8ED1F3"/>
			<stop  offset="0.2826" style="stop-color:#86CDF1"/>
			<stop  offset="0.7201" style="stop-color:#70C1EC"/>
			<stop  offset="0.903" style="stop-color:#65BBE9"/>
		</linearGradient>
		<path style="fill:url(#SVGID_00000097493276096380727550000012188726148862500000_);" d="M33.41,56.41
			c-0.29,1.28-1.34,1.98-2.56,1.78c-1.22-0.2-1.94-1.29-1.87-2.5c0.09-1.59,2.76-4.25,2.76-4.25S33.75,54.86,33.41,56.41z"/>
	</g>
	<g>
		<path class="st5" d="M20.96,56.49c-1.47-0.24-2.47-1.56-2.38-3.13c0.1-1.76,2.65-4.36,2.94-4.65l0.55-0.55l0.4,0.67
			c0.22,0.37,2.13,3.68,1.74,5.41C23.86,55.82,22.53,56.74,20.96,56.49z"/>
		
			<linearGradient id="SVGID_00000029010696854314213600000010699200811973550982_" gradientUnits="userSpaceOnUse" x1="118.1728" y1="72.6552" x2="120.6009" y2="78.5943" gradientTransform="matrix(0.9871 0.16 -0.16 0.9871 -84.4803 -40.8337)">
			<stop  offset="0" style="stop-color:#8ED1F3"/>
			<stop  offset="0.2826" style="stop-color:#86CDF1"/>
			<stop  offset="0.7201" style="stop-color:#70C1EC"/>
			<stop  offset="0.903" style="stop-color:#65BBE9"/>
		</linearGradient>
		<path style="fill:url(#SVGID_00000029010696854314213600000010699200811973550982_);" d="M23.62,54.11
			c-0.29,1.28-1.34,1.98-2.56,1.78c-1.22-0.2-1.94-1.28-1.87-2.5c0.09-1.58,2.76-4.25,2.76-4.25S23.97,52.56,23.62,54.11z"/>
	</g>
	<g>
		<path class="st5" d="M13.3,47.83c-1.47-0.24-2.47-1.56-2.38-3.13c0.1-1.76,2.65-4.36,2.94-4.65l0.55-0.55l0.4,0.67
			c0.22,0.37,2.13,3.68,1.74,5.41C16.2,47.16,14.87,48.08,13.3,47.83z"/>
		
			<linearGradient id="SVGID_00000013192267410300467750000005923653268872945563_" gradientUnits="userSpaceOnUse" x1="109.2252" y1="65.3374" x2="111.6534" y2="71.2765" gradientTransform="matrix(0.9871 0.16 -0.16 0.9871 -84.4803 -40.8337)">
			<stop  offset="0" style="stop-color:#8ED1F3"/>
			<stop  offset="0.2826" style="stop-color:#86CDF1"/>
			<stop  offset="0.7201" style="stop-color:#70C1EC"/>
			<stop  offset="0.903" style="stop-color:#65BBE9"/>
		</linearGradient>
		<path style="fill:url(#SVGID_00000013192267410300467750000005923653268872945563_);" d="M15.96,45.45
			c-0.29,1.28-1.34,1.98-2.56,1.78c-1.22-0.2-1.94-1.28-1.87-2.5c0.09-1.59,2.76-4.25,2.76-4.25S16.31,43.9,15.96,45.45z"/>
	</g>
	<g>
		<path class="st5" d="M43,55.51c-1.47-0.24-2.47-1.55-2.38-3.13c0.1-1.76,2.65-4.36,2.94-4.65l0.55-0.55l0.4,0.67
			c0.22,0.37,2.13,3.68,1.74,5.41C45.9,54.84,44.57,55.77,43,55.51z"/>
		
			<linearGradient id="SVGID_00000099627558526197714040000009539079472823030670_" gradientUnits="userSpaceOnUse" x1="139.7744" y1="68.1668" x2="142.2025" y2="74.106" gradientTransform="matrix(0.9871 0.16 -0.16 0.9871 -84.4803 -40.8337)">
			<stop  offset="0" style="stop-color:#8ED1F3"/>
			<stop  offset="0.2826" style="stop-color:#86CDF1"/>
			<stop  offset="0.7201" style="stop-color:#70C1EC"/>
			<stop  offset="0.903" style="stop-color:#65BBE9"/>
		</linearGradient>
		<path style="fill:url(#SVGID_00000099627558526197714040000009539079472823030670_);" d="M45.66,53.13
			c-0.28,1.28-1.34,1.98-2.56,1.78c-1.22-0.2-1.94-1.29-1.87-2.5c0.09-1.59,2.76-4.25,2.76-4.25S46.01,51.58,45.66,53.13z"/>
	</g>
</g>
</svg>
