<?xml version="1.0" encoding="UTF-8"?>
<svg width="1200pt" height="1200pt" version="1.1" viewBox="0 0 1200 1200" xmlns="http://www.w3.org/2000/svg">
 <path d="m200.39 805.87c-28.07 0-55.445 10.43-76.414 29.43-24.043 21.766-37.281 51.637-37.281 84.105 0.007813 62.605 50.926 113.54 113.55 113.54h410.97c62.602 0 113.54-50.934 113.54-113.54 0.003907-47.43-29.906-90.277-74.414-106.62-4.2695-1.5703-7.2539-5.4766-7.6406-10.016-2.7812-32.926-19.73-62.91-46.559-82.27-26.977-19.484-60.965-26.207-93.238-18.449-5.0938 1.2266-10.398-1.0938-12.965-5.6836-25.285-45.32-73.195-73.473-125.02-73.473-42.699-0.003906-82.812 18.824-110.04 51.648-27.336 32.965-38.5 76-30.59 118.06 0.6875 3.6289-0.39062 7.3633-2.8789 10.082-2.4883 2.7188-6.1289 4.1211-9.7891 3.7422-3.7617-0.37109-7.4961-0.55469-11.23-0.55859zm410.82 250.5h-410.97c-75.531 0-136.99-61.438-136.99-136.97 0.003906-38.605 16.406-75.59 44.996-101.48 24.98-22.633 57.473-35.18 90.918-35.484-4.3594-44.199 8.9844-88.285 37.672-122.86 31.699-38.207 78.371-60.121 128.08-60.121 57.43 0 110.69 29.684 141.07 78.031 36.336-6.3242 73.73 2.2344 103.88 24.008 30.375 21.922 50.27 55.148 55.371 92.004 49.93 21.453 82.957 71.145 82.957 125.9 0.007813 75.531-61.449 136.97-136.98 136.97z" fill-rule="evenodd"/>
 <path d="m999.79 994.86h-280.75c-6.4688 0-11.719-5.2461-11.719-11.719 0.007812-6.4727 5.25-11.719 11.719-11.719h280.75c62.59 0 113.52-50.934 113.52-113.54 0.003906-47.43-29.906-90.273-74.391-106.62-4.2891-1.5703-7.2734-5.4766-7.6406-10.016-2.7773-32.926-19.75-62.906-46.559-82.266-26.973-19.484-60.961-26.211-93.238-18.453-5.1016 1.2227-10.402-1.0898-12.965-5.6797-25.285-45.32-73.219-73.473-125.05-73.473-38.84 0-75.145 15.25-102.17 42.945-26.898 27.543-41.82 65.242-40.895 103.43 0.15234 6.4688-4.9805 11.844-11.449 11.996-6.4375 0.12891-11.84-4.9688-11.988-11.434-1.0391-44.457 16.281-88.324 47.559-120.36 31.504-32.25 73.73-50.012 118.95-50.012 57.426-0.003906 110.72 29.684 141.09 78.035 36.305-6.3242 73.73 2.2305 103.88 24.008 30.375 21.926 50.27 55.148 55.371 92 49.91 21.453 82.934 71.145 82.934 125.9 0 75.531-61.449 136.98-136.95 136.98z" fill-rule="evenodd"/>
 <path d="m152.62 934.88c-0.97656 0-1.9883-0.12109-2.9648-0.37891-6.2656-1.625-10.035-8.0156-8.3984-14.281 9.6914-37.496 42.188-64.559 80.809-67.348 6.4219-0.46484 12.059 4.3906 12.523 10.844 0.46875 6.4531-4.3945 12.066-10.84 12.531-28.582 2.0625-52.637 22.094-59.816 49.848-1.3633 5.2773-6.1289 8.7852-11.32 8.7852z" fill-rule="evenodd"/>
 <path d="m1045.5 907.62c-2.0547 0-4.1055-0.52734-5.9844-1.6406-5.5625-3.3047-7.3984-10.492-4.1016-16.059 13.965-23.551 7.7891-53.426-14.379-69.496-5.2188-3.8008-6.3945-11.129-2.5898-16.367 3.7852-5.2383 11.109-6.4102 16.355-2.6094 32.035 23.227 40.969 66.402 20.777 100.43-2.1914 3.6875-6.082 5.7383-10.082 5.7383z" fill-rule="evenodd"/>
 <path d="m260.77 663.18c-3.4375 0-6.8398-1.5039-9.1602-4.3906-36.742-45.859-56.98-103.52-56.98-162.37 0.003907-143.32 116.6-259.91 259.91-259.91 143.34 0 259.94 116.6 259.94 259.91 0.007813 23.055-3.0273 45.934-9.0078 68.004-1.6719 6.2461-8.1055 9.9453-14.379 8.2539-6.2461-1.6875-9.9375-8.1211-8.2539-14.371 5.4453-20.078 8.2031-40.898 8.2031-61.887 0-130.39-106.11-236.48-236.5-236.48-130.37 0-236.48 106.09-236.48 236.48 0 54.309 17.922 105.39 51.832 147.71 4.0586 5.0508 3.2227 12.426-1.832 16.473-2.1445 1.7305-4.7383 2.5742-7.2969 2.5742z" fill-rule="evenodd"/>
 <path d="m282.52 508.14c-6.4688 0-11.699-5.2461-11.699-11.719 0.007812-43.141 15.234-85.062 42.918-118.05 4.1562-4.957 11.547-5.6094 16.504-1.4453 4.9648 4.1562 5.5898 11.551 1.4414 16.512-24.141 28.77-37.449 65.348-37.449 102.98 0.007813 6.4727-5.2227 11.719-11.715 11.719z" fill-rule="evenodd"/>
 <path d="m454.55 259.95c-6.4727 0-11.727-5.2461-11.727-11.719l0.003906-92.879c0-6.4727 5.2461-11.719 11.715-11.719 6.5 0 11.719 5.2461 11.719 11.719l0.007812 92.875c0 6.4688-5.2344 11.719-11.723 11.719z" fill-rule="evenodd"/>
 <path d="m578.64 293.2c-1.9766 0-4.0039-0.50781-5.8594-1.5703-5.5898-3.2383-7.5195-10.406-4.2734-16.008l46.441-80.434c3.2422-5.6055 10.395-7.5273 16.008-4.2891 5.6016 3.2344 7.5195 10.402 4.2734 16.008l-46.43 80.434c-2.1758 3.7617-6.1094 5.8633-10.164 5.8594z" fill-rule="evenodd"/>
 <path d="m669.52 384.04c-4.0547 0-7.9961-2.1016-10.168-5.8633-3.25-5.6055-1.3203-12.77 4.293-16.004l80.426-46.441c5.6133-3.2422 12.766-1.3125 16.012 4.2891 3.2266 5.6055 1.3203 12.773-4.2969 16.008l-80.414 46.438c-1.8555 1.0703-3.8867 1.5742-5.8555 1.5742z" fill-rule="evenodd"/>
 <path d="m795.63 508.14h-92.867c-6.4922 0-11.723-5.2461-11.723-11.719s5.2266-11.719 11.719-11.719h92.871c6.4727 0 11.719 5.2461 11.719 11.719 0.003907 6.4727-5.25 11.719-11.719 11.719z" fill-rule="evenodd"/>
 <path d="m330.47 293.2c-4.043 0-7.9844-2.1016-10.156-5.8594l-46.434-80.434c-3.2422-5.6055-1.3203-12.77 4.2695-16.008 5.6172-3.2422 12.77-1.3164 16.016 4.2891l46.441 80.43c3.2422 5.6016 1.3086 12.773-4.2812 16.012-1.8516 1.0625-3.8828 1.5742-5.8594 1.5703z" fill-rule="evenodd"/>
 <path d="m239.6 384.04c-2 0-4.0039-0.50391-5.8594-1.5703l-80.414-46.438c-5.6133-3.2344-7.5234-10.402-4.3008-16.008 3.2461-5.6094 10.398-7.5234 16.016-4.2891l80.43 46.438c5.6133 3.2344 7.5352 10.402 4.2891 16.008-2.168 3.7578-6.1055 5.8633-10.156 5.8633z" fill-rule="evenodd"/>
 <path d="m206.36 508.14h-92.879c-6.4688 0-11.719-5.2461-11.719-11.719 0.007813-6.4727 5.25-11.719 11.719-11.719h92.879c6.4922 0 11.711 5.2461 11.711 11.719s-5.2227 11.719-11.711 11.719z" fill-rule="evenodd"/>
 <path d="m159.18 678.68c-4.043 0-7.9844-2.1016-10.156-5.8633-3.2148-5.6094-1.3203-12.77 4.2969-16.004l80.426-46.441c5.6133-3.2383 12.762-1.3125 16.012 4.2891 3.2461 5.6055 1.3203 12.773-4.2969 16.008l-80.41 46.438c-1.8555 1.0703-3.8633 1.5742-5.8672 1.5742z" fill-rule="evenodd"/>
</svg>
