<svg width="80" height="80" viewBox="0 0 80 80" fill="none" xmlns="http://www.w3.org/2000/svg">
<g clip-path="url(#clip0_4801_157)">
<path fill-rule="evenodd" clip-rule="evenodd" d="M56.362 79.9994H22.9255C22.0356 79.9994 21.2513 79.6501 20.6562 78.9895C20.0612 78.3287 19.7957 77.5124 19.8886 76.6279L24.0169 37.1392C24.0661 36.6594 24.4955 36.3104 24.9758 36.3613C25.4564 36.4111 25.8037 36.841 25.7545 37.3208L21.6262 76.8096C21.5843 77.1988 21.6917 77.5295 21.9537 77.8206C22.2157 78.1108 22.5342 78.2529 22.9251 78.2529L56.3617 78.2526C56.7532 78.2526 57.0711 78.1111 57.3331 77.8206C57.5954 77.5292 57.7026 77.199 57.6624 76.8096L53.5344 37.3208C53.4831 36.8413 53.8307 36.4119 54.3111 36.3616C54.7897 36.3103 55.2208 36.6597 55.27 37.1395L59.3985 76.6275C59.4914 77.5119 59.2256 78.3285 58.6306 78.9893C58.0358 79.6495 57.2515 79.9992 56.3616 79.9992L56.362 79.9994Z" fill="#164A68"/>
<path fill-rule="evenodd" clip-rule="evenodd" d="M39.646 24.3371C36.8131 24.3371 34.371 22.9305 33.2738 20.6658C32.7573 19.598 32.4059 18.6581 32.0639 17.7489C31.4331 16.0644 30.8887 14.6098 29.4657 12.9484C29.151 12.5819 29.1947 12.0308 29.5604 11.717C29.9266 11.4029 30.4791 11.446 30.792 11.8125C32.4153 13.7077 33.0391 15.3731 33.6997 17.1358C34.0272 18.0077 34.3658 18.9099 34.8458 19.9046C35.8068 21.8844 37.9535 22.5907 39.6457 22.5907C41.3363 22.5904 43.485 21.885 44.4436 19.9046C44.9239 18.9093 45.2625 18.0077 45.59 17.1355C46.2506 15.3725 46.8744 13.7079 48.4977 11.8125C48.8127 11.4462 49.3638 11.4035 49.7294 11.717C50.095 12.0302 50.1387 12.5819 49.824 12.9484C48.4031 14.6095 47.8572 16.0644 47.2258 17.7486C46.8858 18.6577 46.5327 19.5983 46.016 20.6661C44.919 22.9301 42.4772 24.3373 39.6464 24.337L39.646 24.3371Z" fill="#164A68"/>
<path fill-rule="evenodd" clip-rule="evenodd" d="M57.7624 70.2366C57.335 70.2366 56.9618 69.923 56.898 69.4881C56.829 69.0104 57.16 68.5676 57.6386 68.4989L67.4164 67.0871C67.8041 67.0315 68.0967 66.8475 68.3133 66.524C68.5319 66.2003 68.5933 65.8591 68.4987 65.4804L59.8128 30.2992C59.7091 29.8832 59.4579 29.5859 59.0666 29.4148L50.1459 25.5205C49.3637 25.1788 48.7937 24.5747 48.5009 23.773C48.2062 22.9706 48.2496 22.1418 48.6263 21.3754L52.3911 13.7134C52.6076 13.2709 52.573 12.8031 52.2944 12.3964L47.1091 4.86336C45.7862 2.94142 42.926 1.7473 39.6454 1.7473C36.3633 1.74701 33.5028 2.9412 32.1801 4.86336L26.9965 12.3964C26.7165 12.8034 26.6815 13.2712 26.8999 13.714L30.6628 21.3752C31.0395 22.1417 31.0826 22.9708 30.788 23.7725C30.4954 24.5746 29.9257 25.1789 29.1432 25.5204L20.2225 29.414C19.8316 29.5852 19.5803 29.883 19.4764 30.2987L10.7904 65.4799C10.6979 65.8587 10.7575 66.2002 10.9759 66.5233C11.1928 66.8467 11.4871 67.0313 11.8728 67.0869L21.6528 68.4985C22.1293 68.5672 22.4603 69.0105 22.391 69.4879C22.322 69.9651 21.8798 70.2967 21.4013 70.2277L11.6235 68.8155C10.7467 68.6889 10.0203 68.2341 9.52549 67.4991C9.03089 66.764 8.88125 65.9215 9.09434 65.0613L17.7803 29.8801C18.0132 28.936 18.6332 28.2021 19.5232 27.8135L28.4446 23.9195C28.7937 23.767 29.0176 23.5294 29.1486 23.1717C29.2798 22.8136 29.2633 22.4875 29.0941 22.1452L25.3315 14.4833C24.8386 13.4787 24.9222 12.3284 25.5571 11.4062L30.741 3.87241C32.3838 1.4838 35.7971 0 39.6453 0C43.4939 0 46.9048 1.4838 48.5481 3.87241L53.732 11.4062C54.3669 12.3284 54.4522 13.4792 53.9573 14.4839L50.195 22.1451C50.0256 22.4874 50.009 22.8138 50.14 23.1718C50.271 23.5293 50.4948 23.7674 50.8442 23.9197L59.7656 27.8133C60.6567 28.2023 61.2753 28.9364 61.5082 29.8805L70.1942 65.0617C70.407 65.9223 70.2576 66.7653 69.7627 67.5001C69.2681 68.2346 68.5418 68.6902 67.665 68.8168L57.8873 70.2284C57.8433 70.2345 57.8014 70.2374 57.7615 70.2374L57.7624 70.2366Z" fill="#164A68"/>
<path fill-rule="evenodd" clip-rule="evenodd" d="M53.3846 13.8193C51.1287 13.7867 48.4831 13.5378 45.9739 11.9359C41.5382 9.10361 37.7538 9.1039 33.318 11.9359C30.8092 13.5376 28.1616 13.7871 25.9054 13.8193C25.4288 13.8202 25.0265 13.4409 25.0192 12.9585C25.0122 12.4761 25.3976 12.0796 25.8797 12.0726C28.7312 12.0316 30.6741 11.5504 32.3772 10.4633C37.3351 7.29748 41.9552 7.29748 46.9126 10.4633C48.6159 11.5501 50.5588 12.0316 53.41 12.0726C53.8924 12.0796 54.2779 12.4761 54.2706 12.9585C54.2633 13.4362 53.8738 13.8193 53.3975 13.8193H53.3846Z" fill="#164A68"/>
<path fill-rule="evenodd" clip-rule="evenodd" d="M39.646 79.9994C39.1636 79.9994 38.7723 79.6084 38.7723 79.126V23.4608C38.7723 22.9784 39.1636 22.5874 39.6457 22.5874C40.1281 22.5871 40.5191 22.9787 40.5191 23.4611V79.1263C40.5191 79.6087 40.1278 80 39.646 80V79.9994Z" fill="#164A68"/>
<path fill-rule="evenodd" clip-rule="evenodd" d="M22.0856 64.911C22.0402 64.911 21.9965 64.9081 21.9508 64.9008L10.5484 63.1384C10.0718 63.0648 9.74576 62.6188 9.81857 62.1419C9.89338 61.6654 10.3388 61.3382 10.8156 61.4124L22.2165 63.1746C22.6934 63.2482 23.0209 63.6948 22.9461 64.1713C22.8809 64.6025 22.5077 64.9114 22.0855 64.9111L22.0856 64.911Z" fill="#164A68"/>
<path fill-rule="evenodd" clip-rule="evenodd" d="M28.6595 57.0128C28.1809 57.0128 27.7896 57.4037 27.7896 57.8841L27.7899 66.061C27.7899 66.541 28.1809 66.932 28.6591 66.932L33.3484 66.9317C33.8288 66.9317 34.2197 66.5414 34.2197 66.061V57.8841C34.2197 57.4037 33.8285 57.0133 33.3481 57.0133L28.6595 57.0128ZM33.3484 68.679H28.6595C27.2167 68.679 26.0429 67.5049 26.0429 66.0616V57.8846C26.0429 56.441 27.2164 55.2672 28.6592 55.2672H33.3484C34.7912 55.2672 35.9664 56.4416 35.9664 57.8849V66.0619C35.9664 67.5052 34.791 68.6796 33.3484 68.6796V68.679Z" fill="#164A68"/>
<path fill-rule="evenodd" clip-rule="evenodd" d="M35.0932 61.1012H26.917C26.435 61.1012 26.0434 60.7106 26.0434 60.2282C26.0434 59.7458 26.4346 59.3548 26.9168 59.3548L35.0937 59.3545C35.5758 59.3545 35.9667 59.7461 35.9667 60.2282C35.9667 60.7103 35.5755 61.1016 35.0937 61.1013L35.0932 61.1012Z" fill="#164A68"/>
<path fill-rule="evenodd" clip-rule="evenodd" d="M45.9411 57.0128C45.4605 57.0128 45.0693 57.4037 45.0693 57.8841L45.0696 66.061C45.0696 66.541 45.4605 66.932 45.9408 66.932L50.6298 66.9317C51.1099 66.9317 51.4994 66.5414 51.4994 66.061V57.8841C51.4994 57.4037 51.1099 57.0133 50.6295 57.0133L45.9411 57.0128ZM50.6298 68.679H45.9411C44.4981 68.679 43.3225 67.5049 43.3225 66.0616L43.3228 57.8846C43.3228 56.441 44.4981 55.2672 45.9408 55.2672H50.6298C52.0726 55.2672 53.246 56.4416 53.246 57.8849L53.2463 66.0619C53.2463 67.5052 52.0726 68.6796 50.6301 68.6796L50.6298 68.679Z" fill="#164A68"/>
<path fill-rule="evenodd" clip-rule="evenodd" d="M52.3734 61.1012H44.1965C43.7147 61.1012 43.3231 60.7106 43.3231 60.2282C43.3234 59.7458 43.7144 59.3548 44.1965 59.3548L52.3734 59.3545C52.8552 59.3545 53.2465 59.7461 53.2465 60.2282C53.2468 60.7103 52.8552 61.1015 52.3734 61.1012Z" fill="#164A68"/>
<path fill-rule="evenodd" clip-rule="evenodd" d="M30.9429 44.3748C30.8358 44.3748 30.7263 44.3553 30.6207 44.3133C30.1718 44.1355 29.9528 43.6278 30.1313 43.1794C31.7507 39.0966 32.795 34.8102 33.2354 30.4401C33.2846 29.96 33.7123 29.609 34.1923 29.6587C34.6712 29.7071 35.022 30.1353 34.9728 30.615C34.5178 35.1463 33.4334 39.5901 31.754 43.8239C31.6178 44.1663 31.29 44.3753 30.9426 44.375L30.9429 44.3748Z" fill="#164A68"/>
<path fill-rule="evenodd" clip-rule="evenodd" d="M48.3461 44.3748C47.9985 44.3748 47.671 44.1663 47.5344 43.8237C45.8556 39.5903 44.7726 35.1467 44.3158 30.6148C44.2669 30.1348 44.6177 29.7068 45.098 29.6585C45.5769 29.609 46.0061 29.9601 46.0532 30.4398C46.4939 34.8101 47.5379 39.0967 49.1573 43.1792C49.3357 43.6275 49.1174 44.1352 48.6679 44.3131C48.5625 44.355 48.4531 44.3748 48.346 44.3745L48.3461 44.3748Z" fill="#164A68"/>
<path fill-rule="evenodd" clip-rule="evenodd" d="M34.1058 27.6937C33.5655 27.6937 33.1247 28.1333 33.1247 28.6739C33.125 29.2142 33.5652 29.6541 34.1055 29.6541C34.6458 29.6541 35.0842 29.2145 35.0842 28.6739C35.0845 28.1336 34.6458 27.694 34.1058 27.6937ZM34.1058 31.4002C32.601 31.4002 31.378 30.1772 31.378 28.6736C31.378 27.17 32.6007 25.947 34.1055 25.947C35.6088 25.9467 36.8309 27.1703 36.8309 28.6736C36.8309 30.1769 35.6082 31.4005 34.1058 31.4002Z" fill="#164A68"/>
<path fill-rule="evenodd" clip-rule="evenodd" d="M45.1862 27.6937C44.6459 27.6937 44.2055 28.1333 44.2055 28.6739C44.2057 29.2142 44.6456 29.6541 45.1862 29.6541C45.7268 29.6541 46.1649 29.2145 46.1649 28.6739C46.1649 28.1336 45.7265 27.694 45.1862 27.6937ZM45.1862 31.4002C43.6817 31.4002 42.4587 30.1772 42.4587 28.6736C42.459 27.17 43.6814 25.947 45.1862 25.947C46.6892 25.9467 47.9116 27.1703 47.9116 28.6736C47.9119 30.1769 46.6889 31.4005 45.1862 31.4002Z" fill="#164A68"/>
<path fill-rule="evenodd" clip-rule="evenodd" d="M57.2049 64.911C56.7813 64.911 56.4079 64.6027 56.3424 64.1713C56.2678 63.6944 56.5953 63.2484 57.0719 63.1748L68.4728 61.4121C68.9493 61.3382 69.395 61.6654 69.4696 62.1419C69.5426 62.6185 69.2169 63.0648 68.74 63.1384L57.3376 64.9008C57.2937 64.9078 57.248 64.9113 57.2046 64.911H57.2049Z" fill="#164A68"/>
<path fill-rule="evenodd" clip-rule="evenodd" d="M58.2185 74.5963H21.0705C20.5887 74.5963 20.1972 74.2053 20.1972 73.7229C20.1975 73.2403 20.5884 72.8496 21.0705 72.8496H58.2185C58.7003 72.8496 59.0915 73.2405 59.0915 73.7229C59.0918 74.205 58.7003 74.5963 58.2185 74.5963Z" fill="#164A68"/>
</g>
<defs>
<clipPath id="clip0_4801_157">
<rect width="80" height="80" fill="white"/>
</clipPath>
</defs>
</svg>
