<?xml version="1.0" encoding="UTF-8"?>
<svg width="1200pt" height="1200pt" version="1.1" viewBox="0 0 1200 1200" xmlns="http://www.w3.org/2000/svg">
 <path d="m976.8 708c1.1992-157.2-96-301.2-243.6-357.6-150-57.602-326.4-9.6016-426 115.2-55.199 69.602-85.199 154.8-84 243.6-39.602 8.3984-70.801 44.398-64.801 88.801 6 45.602 49.199 76.801 93.602 76.801h170.4c55.199 0 99.602-39.602 102-94.801v-2.3984-2.3984c-2.3984-50.398-42-90-88.801-93.602 8.3984-60 50.398-114 108-134.4 62.398-21.602 133.2-4.8008 178.8 44.398 22.801 25.199 37.199 56.398 40.801 88.801-46.801 4.8008-86.398 43.199-88.801 93.602v2.3984 2.3984c2.3984 52.801 44.398 94.801 98.398 94.801h75.602 92.398c12 0 22.801 0 33.602-3.6016 25.199-7.1992 49.199-27.602 60-52.801 12-27.602 7.1992-61.199-13.199-84-10.801-13.199-26.398-22.801-44.398-25.199zm-496.8-330c139.2-51.602 300-6 391.2 110.4 42 54 67.199 118.8 72 186-14.398-15.602-33.602-27.602-55.199-31.199-2.3984 0-4.8008-1.1992-7.1992-1.1992-20.398-99.602-94.801-182.4-192-214.8-102-33.602-216-6-292.8 68.398-40.801 39.602-68.398 91.199-80.398 146.4-2.3984 0-4.8008 0-7.1992 1.1992-21.602 3.6016-40.801 14.398-54 30 13.199-130.8 98.398-248.39 225.6-295.2zm13.199 399.6c-1.1992 38.398-31.199 66-69.602 66h-66-84c-21.602 0-42 2.3984-60-12-19.199-15.602-31.199-38.398-20.398-63.602 8.3984-20.398 31.199-33.602 52.801-30 8.3984 1.1992 18-2.3984 19.199-10.801 4.8008-26.398 24-46.801 50.398-51.602 27.602-4.8008 54 10.801 66 36 2.3984 6 12 9.6016 18 7.1992 44.402-19.195 92.402 9.6016 93.602 58.805zm172.8-260.4c-74.398-26.398-160.8-3.6016-212.4 55.199-27.602 31.199-44.398 69.602-48 111.6h-2.3984c-13.199-19.199-31.199-32.398-52.801-37.199 20.398-87.602 85.199-160.8 171.6-188.4 91.199-28.801 193.2-4.8008 260.4 62.398 34.801 34.801 57.602 78 69.602 126-21.602 6-40.801 19.199-52.801 37.199h-2.3984c-9.6055-76.801-58.805-141.6-130.8-166.8zm333.6 302.4c-12 14.398-28.801 22.801-46.801 24h-18-152.4c-12 0-22.801 0-33.602-4.8008-24-10.801-39.602-34.801-39.602-61.199 1.1992-49.199 50.398-78 93.602-60 6 2.3984 14.398-1.1992 18-7.1992 12-25.199 38.398-40.801 66-36 26.398 4.8008 45.602 25.199 50.398 51.602 1.1992 9.6016 12 12 19.199 10.801 42-6.0039 72 47.996 43.203 82.797z"/>
</svg>
