<svg width="74" height="74" viewBox="0 0 74 74" fill="none" xmlns="http://www.w3.org/2000/svg">
<path fill-rule="evenodd" clip-rule="evenodd" d="M43.6526 40.8413L37 44.6827L30.3474 40.8413V33.1594L37 29.3183L43.6526 33.1594V40.8413ZM65.297 51.6292L56.6606 46.6429L64.0229 45.3703C64.8287 45.2311 65.3683 44.465 65.2291 43.66C65.0901 42.8543 64.3219 42.3154 63.5191 42.4539L52.6565 44.3304L46.6129 40.8414V33.1596L52.6565 29.6706L63.5191 31.5474C63.6041 31.5621 63.6891 31.5696 63.773 31.5696C64.4795 31.5696 65.1048 31.0618 65.2291 30.3418C65.3683 29.5361 64.8287 28.77 64.023 28.631L56.6606 27.3582L65.297 22.3728C66.0052 21.9635 66.247 21.0585 65.8387 20.351C65.4302 19.6429 64.5252 19.3995 63.817 19.8095L55.1806 24.7956L57.7592 17.7835C58.042 17.0163 57.6491 16.166 56.8817 15.8832C56.1135 15.6006 55.2635 15.9935 54.9821 16.7617L51.1763 27.1069L45.1327 30.5966L38.4801 26.7552V19.777L45.5367 11.3083C46.0599 10.68 45.9755 9.74689 45.3473 9.2239C44.7198 8.70069 43.7866 8.785 43.2627 9.41323L38.4801 15.1526V5.18105C38.4801 4.36347 37.817 3.70105 37.0001 3.70105C36.1823 3.70105 35.5201 4.36347 35.5201 5.18105V15.1526L30.7366 9.41323C30.2134 8.78497 29.2805 8.70068 28.652 9.2239C28.0245 9.74686 27.9394 10.68 28.4627 11.3083L35.5204 19.777V26.7552L28.8678 30.5966L22.8235 27.1069L19.0185 16.7617C18.7366 15.9942 17.8863 15.602 17.1188 15.8832C16.3516 16.166 15.9585 17.0163 16.2406 17.7835L18.8195 24.7956L10.1837 19.8095C9.47475 19.3996 8.57047 19.6428 8.16217 20.351C7.75291 21.0585 7.99572 21.9635 8.70368 22.3728L17.3395 27.3582L9.9771 28.631C9.17204 28.77 8.63178 29.5361 8.77096 30.3418C8.89525 31.0618 9.52058 31.5696 10.2281 31.5696C10.3117 31.5696 10.3967 31.5621 10.4817 31.5474L21.3443 29.6706L27.3879 33.1596V40.8414L21.3443 44.3304L10.4817 42.4539C9.6731 42.3154 8.90997 42.8543 8.77098 43.66C8.63175 44.4651 9.17205 45.2311 9.97712 45.3703L17.3395 46.6429L8.7037 51.6292C7.99577 52.0375 7.75292 52.9425 8.16219 53.6507C8.43584 54.125 8.93327 54.3907 9.44443 54.3907C9.69615 54.3907 9.95077 54.3271 10.1837 54.1925L18.8195 49.2057L16.2406 56.2178C15.9585 56.9852 16.3516 57.8353 17.1188 58.1181C17.2877 58.1803 17.4599 58.2092 17.6295 58.2092C18.2317 58.2092 18.7988 57.8384 19.0184 57.2396L22.8235 46.8944L28.8678 43.4044L35.5204 47.2458V54.224L28.4626 62.6927C27.9394 63.321 28.0245 64.2541 28.652 64.7773C28.9295 65.0081 29.2648 65.1206 29.5993 65.1206C30.0233 65.1206 30.4444 64.9387 30.7365 64.5878L35.52 58.8485V68.8206C35.52 69.6377 36.1822 70.3006 37 70.3006C37.8169 70.3006 38.48 69.6377 38.48 68.8206V58.8485L43.2626 64.5878C43.5555 64.9387 43.9766 65.1206 44.4008 65.1206C44.7344 65.1206 45.0704 65.0081 45.3472 64.7773C45.9755 64.2541 46.0598 63.321 45.5366 62.6927L38.48 54.224V47.2458L45.1326 43.4044L51.1762 46.8944L54.982 57.2396C55.2019 57.8384 55.768 58.2092 56.3709 58.2092C56.5405 58.2092 56.713 58.1803 56.8816 58.1181C57.649 57.8353 58.0419 56.9852 57.7591 56.2178L55.1804 49.2057L63.8169 54.1925C64.05 54.3271 64.3044 54.3907 64.5554 54.3907C65.0666 54.3907 65.5647 54.125 65.8387 53.6507C66.247 52.9425 66.0051 52.0375 65.2969 51.6292H65.297Z" fill="#164A68"/>
<path fill-rule="evenodd" clip-rule="evenodd" d="M62.9 71.04C62.9 71.4515 63.2315 71.78 63.64 71.78C64.0515 71.78 64.38 71.4486 64.38 71.04C64.38 70.6286 64.0486 70.3 63.64 70.3C63.2286 70.3 62.9 70.6315 62.9 71.04Z" fill="#164A68"/>
<path fill-rule="evenodd" clip-rule="evenodd" d="M51.06 62.9C51.06 63.3115 51.3915 63.64 51.8 63.64C52.2114 63.64 52.54 63.3086 52.54 62.9C52.54 62.4886 52.2085 62.16 51.8 62.16C51.3886 62.16 51.06 62.4915 51.06 62.9Z" fill="#164A68"/>
<path fill-rule="evenodd" clip-rule="evenodd" d="M11.1 8.88004C10.6922 8.88004 10.36 8.54786 10.36 8.14004C10.36 7.73222 10.6922 7.40004 11.1 7.40004C11.5078 7.40004 11.84 7.73222 11.84 8.14004C11.84 8.54786 11.5078 8.88004 11.1 8.88004ZM11.1 5.92004C9.87389 5.92004 8.88 6.91393 8.88 8.14004C8.88 9.36616 9.87389 10.36 11.1 10.36C12.3261 10.36 13.32 9.36616 13.32 8.14004C13.32 6.91393 12.3261 5.92004 11.1 5.92004Z" fill="#164A68"/>
<path fill-rule="evenodd" clip-rule="evenodd" d="M56.24 7.40003C56.24 6.9886 55.9093 6.66003 55.5 6.66003C55.0886 6.66003 54.76 6.99149 54.76 7.40003C54.76 7.81147 55.0907 8.14003 55.5 8.14003C55.9114 8.14003 56.24 7.80858 56.24 7.40003Z" fill="#164A68"/>
<path fill-rule="evenodd" clip-rule="evenodd" d="M67.34 36.26C67.34 36.6715 67.6714 37 68.08 37C68.4914 37 68.82 36.6686 68.82 36.26C68.82 35.8486 68.4885 35.52 68.08 35.52C67.6685 35.52 67.34 35.8515 67.34 36.26Z" fill="#164A68"/>
<path fill-rule="evenodd" clip-rule="evenodd" d="M8.14001 67.34C8.14001 67.7514 8.47147 68.08 8.88001 68.08C9.29145 68.08 9.62001 67.7485 9.62001 67.34C9.62001 66.9285 9.28856 66.6 8.88001 66.6C8.46858 66.6 8.14001 66.9314 8.14001 67.34Z" fill="#164A68"/>
<path fill-rule="evenodd" clip-rule="evenodd" d="M17.76 69.0852L18.7671 70.0916C19.0403 70.3652 19.4929 70.3681 19.7709 70.0902C20.0503 69.811 20.0489 69.3639 19.7723 69.0867L18.7649 68.08L19.7723 67.0734C20.0452 66.7997 20.0481 66.3469 19.7709 66.0699C19.4907 65.7897 19.0436 65.7912 18.7671 66.0684L17.76 67.0748L16.7526 66.0684C16.4797 65.7948 16.0268 65.7919 15.7489 66.0699C15.4697 66.3483 15.4709 66.7961 15.7474 67.0734L16.7548 68.08L15.7474 69.0867C15.4745 69.3603 15.4716 69.8125 15.7489 70.0902C16.029 70.3703 16.4761 70.3689 16.7526 70.0916L17.76 69.0852Z" fill="#164A68"/>
<path fill-rule="evenodd" clip-rule="evenodd" d="M4.44002 36.26C4.44002 35.8486 4.10929 35.52 3.70002 35.52C3.28859 35.52 2.96002 35.8515 2.96002 36.26C2.96002 36.6715 3.29076 37 3.70002 37C4.11146 37 4.44002 36.6686 4.44002 36.26Z" fill="#164A68"/>
<path fill-rule="evenodd" clip-rule="evenodd" d="M54.76 37.74C54.76 37.3286 54.4293 37 54.02 37C53.6086 37 53.28 37.3315 53.28 37.74C53.28 38.1514 53.6108 38.48 54.02 38.48C54.4315 38.48 54.76 38.1485 54.76 37.74Z" fill="#164A68"/>
<path fill-rule="evenodd" clip-rule="evenodd" d="M67.34 11.1C67.34 10.6886 67.0092 10.36 66.6 10.36C66.1886 10.36 65.86 10.6914 65.86 11.1C65.86 11.5114 66.1907 11.84 66.6 11.84C67.0114 11.84 67.34 11.5085 67.34 11.1Z" fill="#164A68"/>
</svg>
