<?xml version="1.0" encoding="UTF-8"?>
<svg width="1200pt" height="1200pt" version="1.1" viewBox="0 0 1200 1200" xmlns="http://www.w3.org/2000/svg">
 <path d="m277.4 764.75h-0.60156c-13.801-0.35156-24.75-11.75-24.398-25.602 4.3008-186.45 159.65-338.2 346.3-338.2 186.65 0 341.95 151.7 346.25 338.15 0.30078 13.801-10.602 25.25-24.398 25.602-14.699-1.4492-25.301-10.602-25.602-24.398-3.6992-159.5-136.6-289.3-296.25-289.3-159.7 0-292.6 129.8-296.3 289.35-0.29688 13.598-11.449 24.398-25 24.398z"/>
 <path d="m1175 801c-41.199 0-64.898-13.602-85.852-25.602-21.848-12.547-42.5-24.398-89.148-24.398-44.102 0-64.801 10.352-88.801 22.352-25.898 12.949-55.301 27.648-111.2 27.648-55.949 0-85.449-14.699-111.45-27.699-24.051-11.949-44.801-22.301-88.551-22.301-44.199 0-65.051 10.398-89.199 22.398-25.902 12.953-55.301 27.602-110.8 27.602-55.551 0-85.102-14.648-111.15-27.648-24.152-12-45-22.352-88.852-22.352-46.648 0-67.301 11.852-89.148 24.398-20.953 11.953-44.652 25.602-85.852 25.602-13.801 0-25-11.199-25-25s11.199-25 25-25c27.852 0 41.75-7.9492 60.949-19 24.102-13.852 54.102-31 114.05-31 55.551 0 85.102 14.648 111.15 27.648 24.148 12 45 22.352 88.852 22.352 43.75 0 64.5-10.352 88.551-22.301 26.051-13 55.5-27.699 111.45-27.699 55.5 0 84.898 14.648 110.8 27.602 24.148 12 45 22.398 89.199 22.398 44.102 0 64.801-10.352 88.801-22.352 25.898-12.949 55.25-27.648 111.2-27.648 59.949 0 89.949 17.199 114.05 31 19.199 11.051 33.102 19 60.949 19 13.801 0 25 11.199 25 25s-11.199 25-25 25z"/>
 <path d="m1025 950h-25c-55.551 0-85.102-14.648-111.15-27.648-24.152-12-45-22.352-88.852-22.352-43.75 0-64.5 10.352-88.551 22.301-26 13-55.5 27.699-111.45 27.699-55.5 0-84.898-14.648-110.8-27.602-24.148-12-45-22.398-89.199-22.398-44.102 0-64.801 10.352-88.801 22.352-25.898 12.949-55.301 27.648-111.2 27.648h-25c-13.801 0-25-11.199-25-25s11.199-25 25-25h25c44.102 0 64.801-10.352 88.801-22.352 25.898-12.949 55.301-27.648 111.2-27.648 55.949 0 85.449 14.699 111.45 27.699 24.051 11.949 44.801 22.301 88.551 22.301 44.199 0 65.051-10.398 89.199-22.398 25.902-12.953 55.301-27.602 110.8-27.602 55.551 0 85.102 14.648 111.15 27.648 24.152 12 45 22.352 88.852 22.352h25c13.801 0 25 11.199 25 25s-11.199 25-25 25z"/>
 <path d="m825 1100h-25c-55.949 0-85.449-14.699-111.45-27.699-24.051-11.949-44.801-22.301-88.551-22.301-44.199 0-65.051 10.398-89.199 22.398-25.902 12.953-55.301 27.602-110.8 27.602h-25c-13.801 0-25-11.199-25-25s11.199-25 25-25h25c43.75 0 64.5-10.352 88.551-22.301 26-13 55.5-27.699 111.45-27.699 55.5 0 84.898 14.648 110.8 27.602 24.148 12 45 22.398 89.199 22.398h25c13.801 0 25 11.199 25 25s-11.199 25-25 25z"/>
 <path d="m687.9 360.05c-1.75 0-3.4492-0.19922-5.1992-0.55078-13.5-2.8984-22.102-16.148-19.25-29.648l23.398-110.05c2.8984-13.551 16.148-22 29.648-19.301 13.5 2.8984 22.102 16.148 19.25 29.648l-23.398 110.05c-2.5469 11.801-12.898 19.852-24.449 19.852z"/>
 <path d="m512.2 360.05c-11.551 0-21.898-8.0508-24.398-19.801l-23.5-110.05c-2.8516-13.5 5.6992-26.801 19.199-29.648 13.398-2.8008 26.801 5.75 29.648 19.25l23.5 110.05c2.8984 13.551-5.6992 26.801-19.199 29.699-1.75 0.30078-3.5 0.5-5.25 0.5z"/>
 <path d="m844.05 428.05c-5 0-10-1.4492-14.398-4.6016-11.301-7.9492-14-23.551-6.0508-34.801l64.898-91.949c7.9492-11.398 23.551-14.051 34.852-6 11.301 7.9492 14 23.551 6.0508 34.801l-64.902 91.949c-4.8984 6.9023-12.602 10.602-20.449 10.602z"/>
 <path d="m355.95 428.05c-7.8516 0-15.602-3.6484-20.449-10.602l-64.898-91.949c-8-11.301-5.3008-26.852 6-34.801 11.352-8.0508 26.898-5.3516 34.852 6l64.898 91.949c7.9492 11.301 5.25 26.852-6 34.801-4.4023 3.1016-9.4023 4.6016-14.402 4.6016z"/>
 <path d="m971.25 568.9c-8.6484 0-17.051-4.5-21.648-12.5-6.9492-11.898-2.8516-27.25 9.1016-34.148l97.398-56.352c11.949-7.0508 27.25-2.8984 34.148 9.1484 6.9492 11.898 2.8516 27.25-9.1016 34.148l-97.398 56.352c-3.9492 2.2539-8.25 3.3516-12.5 3.3516z"/>
 <path d="m230.9 565.1c-4.1016 0-8.25-1.0508-12.102-3.1484l-98.398-54.551c-12.102-6.6992-16.449-21.898-9.75-34 6.6992-12.102 21.949-16.352 34-9.75l98.398 54.551c12.102 6.6992 16.449 21.898 9.75 34-4.5469 8.2461-13.098 12.898-21.898 12.898z"/>
</svg>
