<svg width="74" height="74" viewBox="0 0 74 74" fill="none" xmlns="http://www.w3.org/2000/svg">
<path d="M66.0876 19.9903C61.1895 15.7174 54.5193 14.5711 48.4745 16.5509C45.869 11.9651 41.1791 8.83855 35.8639 8.10919C30.4444 7.48394 24.9209 9.56835 21.2732 13.7371C19.5017 15.7174 18.2508 18.1142 17.6255 20.7197C11.7893 20.4069 6.05716 23.3252 3.45167 28.7444C1.99251 31.6627 1.68011 34.9976 2.30534 38.2284C3.03474 41.5632 5.01496 44.1687 7.51632 46.4618C10.5388 49.1714 14.1865 50.7347 18.2509 50.8389C20.0225 50.8389 20.0225 48.1292 18.2509 48.1292C10.9556 48.0251 4.28551 41.5632 4.80661 34.1638C5.32771 27.3895 11.685 22.4912 18.3551 23.5334C18.9804 23.6376 19.9184 23.3251 20.0226 22.5954C21.0648 16.655 25.5464 12.0692 31.4867 11.027C37.7399 9.88066 43.8889 13.4242 46.5986 19.0517C46.9114 19.7811 47.849 19.7811 48.4747 19.5728C53.4774 17.4884 59.4177 18.2178 63.6908 21.6572C67.5467 24.7838 69.6311 29.6819 69.2146 34.6846C68.6935 40.1039 65.0458 45.1066 59.939 47.0868C56.8124 48.3372 53.4776 48.129 50.1424 48.129H41.2837C39.5122 48.129 39.5122 50.8386 41.2837 50.8386H50.0382C54.1028 50.8386 57.9588 50.9427 61.7107 49.2753C67.3387 46.6698 71.299 41.146 71.9243 34.9972C72.445 29.3696 70.2564 23.7422 66.0876 19.9903Z" fill="#F7E9B9"/>
<path d="M36.8019 46.5663C37.323 45.941 37.323 44.7947 36.4891 44.3778C33.4667 42.9186 30.4442 41.4594 27.422 39.8962C28.1514 36.0402 28.8812 32.288 29.7147 28.432C30.0275 26.8687 28.1514 26.1393 27.2133 27.3898C23.7739 32.1838 20.2308 36.978 16.7914 41.7721C16.3744 42.3974 16.6872 43.3354 17.3125 43.6482C20.0221 45.1074 22.7317 46.5666 25.3372 48.0253C23.878 51.7771 22.4189 55.5289 20.9602 59.281C20.9602 59.281 20.9602 59.3851 20.856 59.3851V59.4893C20.5432 60.2187 20.9602 60.7398 21.4813 61.0526C22.0023 61.3654 22.6276 61.3654 23.1487 60.8443C27.1092 56.6755 31.0693 52.5067 35.1339 48.2337C35.655 47.8164 36.2808 47.1915 36.8019 46.5663ZM27.839 46.2535C25.2336 44.8985 22.0014 43.355 19.5 42C21.4803 39.2904 25.2335 34.0496 27.2133 31.3395C26.7964 33.5281 25.2332 38.2283 24.8166 40.4168C24.7124 40.9379 24.9207 41.6673 25.4418 41.9801C28.2556 43.3352 31.3829 44.645 34.1966 46C31.6953 48.7096 26.5014 54.4873 24 57.1969C24.8339 55.1126 27.7345 49.9007 28.5684 47.9205C28.6729 47.2956 28.256 46.5662 27.839 46.2535Z" fill="#F7E9B9"/>
<path d="M38.5737 55.425C38.5737 55.2167 38.5737 55.1122 38.4695 54.9039C38.3654 54.2786 37.8443 54.1745 37.3232 54.2786C37.1149 54.2786 36.9062 54.3828 36.8021 54.4869C35.6558 55.425 34.5094 56.363 33.3627 57.4052C32.0076 58.5516 30.9654 60.0107 31.2783 61.991C31.7994 64.4923 34.509 65.9515 36.9062 65.0134C38.9906 64.1795 39.72 62.0951 39.3034 59.9066C39.0948 58.4474 38.782 56.8841 38.5737 55.425ZM37.3232 61.8864C36.9063 63.1369 35.2388 63.6579 34.1966 62.9286C33.2585 62.3033 32.9462 61.0525 33.5714 60.1148C33.8842 59.5937 34.4053 59.1768 34.9264 58.8644C35.5516 58.3433 36.2814 57.8222 36.9067 57.1969C37.115 58.135 37.2194 58.9685 37.4277 59.9066C37.3233 60.5318 37.5315 61.1569 37.3232 61.8864Z" fill="#F7E9B9"/>
<path d="M50.3505 55.425C50.3505 55.2167 50.3505 55.1122 50.2463 54.9039C50.1422 54.2786 49.6211 54.1745 49.1 54.2786C48.8917 54.2786 48.683 54.3828 48.5789 54.4869C47.4326 55.425 46.2862 56.363 45.1395 57.4052C43.7844 58.5516 42.7422 60.0107 43.0551 61.991C43.5762 64.4923 46.2858 65.9515 48.683 65.0134C50.7674 64.1795 51.4968 62.0951 51.0802 59.9066C50.8716 58.4474 50.5588 56.8841 50.3505 55.425ZM49.0997 61.8864C48.6827 63.1369 47.0153 63.6579 45.9731 62.9286C45.035 62.3033 44.7226 61.0525 45.3478 60.1148C45.6606 59.5937 46.1817 59.1768 46.7029 58.8644C47.3281 58.3433 48.0579 57.8222 48.6831 57.1969C48.8914 58.135 48.9959 58.9685 49.2042 59.9066C49.0997 60.5318 49.3083 61.1569 49.0997 61.8864Z" fill="#F7E9B9"/>
</svg>
