<svg width="80" height="80" viewBox="0 0 80 80" fill="none" xmlns="http://www.w3.org/2000/svg">
<path d="M69.8267 5H10.1774C8.21178 4.99688 6.61484 6.58747 6.60864 8.55314V66.8058C6.60864 67.1371 6.7399 67.4558 6.97427 67.6902C7.20864 67.9246 7.5274 68.0558 7.85867 68.0558H11.8931V73.7496C11.8931 74.0808 12.0243 74.3996 12.2587 74.634C12.4931 74.8684 12.8118 74.9996 13.1431 74.9996H25.6904C26.0217 74.9996 26.3404 74.8683 26.5748 74.634C26.8092 74.3996 26.9405 74.0808 26.9405 73.7496V68.0558C29.7623 68.0652 70.9498 68.0496 72.1498 68.0558H72.1467C72.4779 68.0558 72.7967 67.9246 73.0311 67.6902C73.2655 67.4558 73.3967 67.1371 73.3967 66.8058V8.55314C73.3904 6.58754 71.7936 4.99687 69.828 5H69.8267ZM37.9427 12.7627C36.3771 20.3093 32.0302 35.0253 21.4987 39.6313H18.8581C24.1487 31.5873 27.3548 22.3527 28.1954 12.7627H37.9427ZM14.392 45.4067V42.1317H20.5108V45.4067H14.392ZM15.8514 39.6317H14.392C14.4452 39.4723 14.2889 12.881 14.4452 12.763H25.6892C24.8048 22.4223 21.4142 31.6843 15.8518 39.6317H15.8514ZM24.4388 72.5003H14.3914V47.907H16.2727C16.5477 52.7351 16.8758 62.4037 19.754 62.8257C20.2165 62.8194 20.6384 62.56 20.8508 62.1507C21.0665 61.7413 21.0383 61.2444 20.779 60.8632C19.754 59.3851 19.0164 54.5851 18.7727 47.9072H20.9821C21.3321 48.6447 21.6508 49.4009 21.9602 50.2135H21.9571C23.4634 54.3009 24.3008 58.6008 24.4384 62.9541C24.4415 65.2167 24.4353 70.2041 24.4384 72.5015L24.4388 72.5003ZM26.9388 62.9097C26.8013 57.1784 25.4638 51.541 23.0106 46.359V41.6934C34.458 36.2871 38.9513 20.4441 40.492 12.7621H54.548L47.098 15.7433H47.1011C46.6261 15.934 46.3167 16.3933 46.3167 16.9027V60.7814C46.3167 61.347 46.6948 61.8408 47.2386 61.9877L57.0979 64.6471L59.7385 65.5565H26.9385L26.9388 62.9097ZM65.5574 12.7623C65.7637 12.7373 65.5481 36.6183 65.6262 36.681H58.7635V13.7683L61.2761 12.7621L65.5574 12.7623ZM48.8168 39.181H56.2608V61.8303L48.8168 59.8241V39.181ZM48.8168 36.681V17.7497L56.2608 14.7684V36.6811L48.8168 36.681ZM58.7608 39.181H65.6234V64.9337L58.7608 62.5774V39.181ZM70.8954 65.5563H68.1236V12.825C68.1205 11.4094 66.9736 10.2625 65.558 10.2625H14.4453C13.164 10.2593 12.0797 11.2062 11.9078 12.4781C11.8203 12.7968 11.9078 65.2061 11.8766 65.5567H9.10473L9.10785 8.5534C9.11098 7.9659 9.58911 7.49714 10.1766 7.50027H69.8259C70.4134 7.49715 70.8915 7.9659 70.8946 8.5534L70.8954 65.5563Z" fill="#F47775"/>
</svg>
