<svg id="Capa_1" enable-background="new 0 0 512 512" height="512" viewBox="0 0 512 512" width="512" xmlns="http://www.w3.org/2000/svg"><g><path d="m409.646 360.427c-.783-11.964-3.062-23.525-6.634-34.507 24.918-9.47 47.362-24.782 65.375-44.712 28.124-31.103 43.613-71.343 43.613-113.308-.004-2.016-.029-4.016-.11-5.977-1.021-29.443-9.762-58.18-25.29-83.148-.009-.015-.018-.029-.026-.043-.045-.072-.086-.146-.131-.218-27.372-43.838-72.384-72.43-123.494-78.445-4.181-.487-8.223 1.688-10.109 5.452s-1.213 8.306 1.684 11.361c17.1 18.032 26.517 41.656 26.517 66.519 0 19.641-5.855 38.545-16.933 54.669-18.075 26.318-47.898 42.031-79.777 42.031-11.002 0-21.783-1.829-32.047-5.436-23.745-8.335-43.73-26.106-54.833-48.756-1.854-3.783-5.874-6.002-10.067-5.539-4.188.458-7.639 3.491-8.631 7.585-3.154 13.009-4.753 26.448-4.753 39.945 0 28.152 6.98 55.667 20.24 80.215-.961.582-1.924 1.157-2.873 1.762-19.586 12.502-35.761 29.533-47.198 49.604-11.255-3.827-22.999-5.762-35.028-5.762-60.181 0-109.141 48.96-109.141 109.14s48.96 109.141 109.141 109.141h188.883c5.523 0 10-4.477 10-10s-4.477-10-10-10h-188.883c-49.153 0-89.141-39.988-89.141-89.141 0-49.152 39.988-89.141 89.141-89.141 12.382 0 24.391 2.509 35.694 7.455.002.001.003.002.005.003 22.523 9.874 40.134 28.815 48.317 51.967 1.451 4.105 5.309 6.67 9.428 6.67 1.106 0 2.231-.185 3.332-.575 5.207-1.84 7.937-7.554 6.096-12.761-8.816-24.94-26.566-45.884-49.481-58.789 11.818-20.087 28.727-35.959 48.668-46.33.711-.243 1.407-.56 2.072-.975.155-.097.297-.206.446-.31 16.438-8.065 34.824-12.45 54.048-12.45 64.249 0 117.074 49.846 121.837 112.897-10.998 1.5-21.534 5.377-30.92 11.446-4.638 2.999-5.967 9.189-2.968 13.827 1.913 2.96 5.126 4.571 8.407 4.571 1.86 0 3.742-.518 5.42-1.603 9.055-5.855 19.571-8.95 30.411-8.95 30.93 0 56.094 25.164 56.094 56.094s-25.164 56.094-56.094 56.094h-21.929c-5.523 0-10 4.477-10 10s4.477 10 10 10h21.929c41.958 0 76.094-34.136 76.094-76.094-.001-38.674-29.003-70.702-66.401-75.478zm64.854-262.624c9.099 17.053 14.793 35.777 16.74 55.047-15.534-1.928-27.6-15.202-27.6-31.25 0-9.249 4.082-17.899 10.86-23.797zm-10.662-17.093c-12.533 9.621-20.198 24.691-20.198 40.89 0 27.309 21.37 49.711 48.264 51.388-1.192 35.152-14.697 68.646-38.353 94.807-15.99 17.692-35.931 31.25-58.062 39.584-6.939-14.137-16.155-26.959-27.169-37.988 23.601-15.426 38.22-41.824 38.22-70.71 0-20.797-7.751-40.886-21.497-56.299 10.484-17.845 15.997-38.068 15.997-58.982 0-20.763-5.443-40.812-15.634-58.403 31.466 9.267 58.967 28.703 78.432 55.713zm-90.808 78.512c8.669 11.228 13.51 25.119 13.51 39.459 0 24.02-13.242 45.786-34.166 56.926-23.658-17.573-52.94-27.982-84.609-27.982-1.115 0-2.226.033-3.339.059-4.513-8.943-6.886-18.859-6.886-29.004 0-.563.027-1.125.041-1.687 8.722 2.048 17.673 3.107 26.749 3.107 34.312 0 66.639-15.09 88.7-40.878zm-179.03 8.678c0-3.422.116-6.839.348-10.244 11.722 14.143 26.715 25.498 43.588 32.842-.261 2.712-.396 5.445-.396 8.182 0 10.703 2.019 21.22 5.897 31.039-10.801 1.866-21.326 4.98-31.393 9.27-11.818-21.729-18.044-46.121-18.044-71.089z"/><circle cx="338.023" cy="502" r="10"/><path d="m278.023 93.81c16.542 0 30-13.458 30-30s-13.458-30-30-30-30 13.458-30 30 13.458 30 30 30zm0-40c5.514 0 10 4.486 10 10s-4.486 10-10 10-10-4.486-10-10 4.486-10 10-10z"/><path d="m81.505 258.495c22.056 0 40-17.944 40-40s-17.944-40-40-40-40 17.944-40 40 17.944 40 40 40zm0-60c11.028 0 20 8.972 20 20s-8.972 20-20 20-20-8.972-20-20 8.972-20 20-20z"/><path d="m112.354 100c27.57 0 50-22.43 50-50s-22.43-50-50-50-50 22.43-50 50 22.43 50 50 50zm0-80c16.542 0 30 13.458 30 30s-13.458 30-30 30-30-13.458-30-30 13.458-30 30-30z"/></g></svg>