<svg id="Capa_1" enable-background="new 0 0 512 512" height="512" viewBox="0 0 512 512" width="512" xmlns="http://www.w3.org/2000/svg"><g><path d="m440.407 161.577c-4.882-79.778-71.336-143.186-152.32-143.186-29.166 0-57.521 8.258-81.998 23.882-21.207 13.537-38.687 32.019-50.98 53.808-12.248-4.241-25.043-6.386-38.153-6.386-64.49.001-116.956 52.467-116.956 116.957s52.466 116.957 116.956 116.957h203.384c5.523 0 10-4.477 10-10s-4.477-10-10-10h-203.384c-53.461 0-96.956-43.495-96.956-96.957s43.495-96.956 96.956-96.956c13.472 0 26.538 2.73 38.834 8.114.001 0 .002 0 .003.001 24.494 10.74 43.646 31.34 52.547 56.52 1.451 4.105 5.309 6.67 9.428 6.67 1.106 0 2.231-.185 3.333-.575 5.208-1.84 7.936-7.554 6.096-12.761-9.538-26.983-28.837-49.597-53.736-63.392 23.722-40.879 66.787-65.883 114.626-65.883 69.982 0 127.469 54.494 132.275 123.275-12.014 1.528-23.53 5.703-33.764 12.321-4.638 2.999-5.966 9.189-2.967 13.827 1.914 2.959 5.127 4.571 8.407 4.571 1.859 0 3.742-.519 5.421-1.604 9.895-6.399 21.388-9.781 33.235-9.781 33.805.001 61.306 27.502 61.306 61.305 0 33.804-27.501 61.305-61.305 61.305h-30.355c-5.522 0-10 4.477-10 10s4.478 10 10 10h30.355c44.832 0 81.305-36.473 81.305-81.305 0-41.545-31.322-75.912-71.593-80.727z"/><circle cx="360.34" cy="313.609" r="10"/><path d="m256 343.609c-17.92 0-32.5 14.58-32.5 32.5s14.58 32.5 32.5 32.5c17.921 0 32.5-14.58 32.5-32.5s-14.579-32.5-32.5-32.5zm0 45c-6.893 0-12.5-5.607-12.5-12.5s5.607-12.5 12.5-12.5 12.5 5.607 12.5 12.5c0 6.892-5.607 12.5-12.5 12.5z"/><path d="m106 343.609c-17.92 0-32.5 14.58-32.5 32.5s14.58 32.5 32.5 32.5 32.5-14.58 32.5-32.5-14.58-32.5-32.5-32.5zm0 45c-6.893 0-12.5-5.607-12.5-12.5s5.607-12.5 12.5-12.5 12.5 5.607 12.5 12.5c0 6.892-5.607 12.5-12.5 12.5z"/><path d="m331 428.609c-17.921 0-32.5 14.58-32.5 32.5s14.579 32.5 32.5 32.5 32.5-14.58 32.5-32.5-14.579-32.5-32.5-32.5zm0 45c-6.893 0-12.5-5.607-12.5-12.5s5.607-12.5 12.5-12.5 12.5 5.607 12.5 12.5c0 6.892-5.607 12.5-12.5 12.5z"/><path d="m181 428.609c-17.92 0-32.5 14.58-32.5 32.5s14.58 32.5 32.5 32.5 32.5-14.58 32.5-32.5-14.58-32.5-32.5-32.5zm0 45c-6.893 0-12.5-5.607-12.5-12.5s5.607-12.5 12.5-12.5 12.5 5.607 12.5 12.5c0 6.892-5.607 12.5-12.5 12.5z"/><path d="m406 343.609c-17.921 0-32.5 14.58-32.5 32.5s14.579 32.5 32.5 32.5 32.5-14.58 32.5-32.5-14.579-32.5-32.5-32.5zm0 45c-6.893 0-12.5-5.607-12.5-12.5s5.607-12.5 12.5-12.5 12.5 5.607 12.5 12.5c0 6.892-5.607 12.5-12.5 12.5z"/></g></svg>