<svg id="Capa_1" enable-background="new 0 0 512 512" height="512" viewBox="0 0 512 512" width="512" xmlns="http://www.w3.org/2000/svg"><g><path d="m440.412 183.327c-4.882-79.779-71.337-143.187-152.322-143.187-29.165 0-57.519 8.259-81.998 23.885-21.206 13.537-38.688 32.018-50.982 53.807-12.236-4.238-25.03-6.381-38.149-6.381-64.493-.001-116.961 52.463-116.961 116.949 0 64.492 52.468 116.96 116.96 116.96h64.941l-3.157 4.336c-2.215 3.041-2.535 7.068-.828 10.421 1.706 3.353 5.149 5.465 8.912 5.465h56.32l-34.2 92.819c-1.725 4.683.267 9.921 4.667 12.275 1.494.799 3.111 1.183 4.711 1.183 3.109 0 6.15-1.451 8.09-4.115l89.117-122.385h50.467c5.522 0 10-4.477 10-10s-4.478-10-10-10h-35.904l3.159-4.339c2.215-3.041 2.535-7.068.828-10.421-1.706-3.353-5.149-5.465-8.912-5.465h-56.531l34.404-92.8c1.736-4.683-.249-9.929-4.65-12.289-4.4-2.36-9.869-1.111-12.81 2.927l-89.119 122.388h-79.505c-127.43-2.307-127.409-191.631.004-193.91 40.307-.48 78.318 26.609 91.375 64.631 1.451 4.105 5.31 6.671 9.429 6.671 1.105 0 2.23-.185 3.333-.575 5.207-1.84 7.936-7.554 6.096-12.761-9.537-26.982-28.837-49.596-53.736-63.391 23.727-40.88 66.794-65.885 114.629-65.885 69.983 0 127.471 54.494 132.277 123.276-12.016 1.528-23.533 5.703-33.768 12.321-4.638 2.999-5.967 9.19-2.968 13.828 1.914 2.959 5.127 4.571 8.407 4.571 1.859 0 3.742-.518 5.42-1.604 83.148-47.51 138.527 85.828 46.405 111.414-5.395 1.18-8.813 6.51-7.633 11.906 1.181 5.396 6.513 8.81 11.906 7.632 17.834-3.9 34.038-13.885 45.627-28.115 11.76-14.44 18.237-32.665 18.237-51.319 0-41.543-31.32-75.908-71.588-80.723zm-181.302 89.978-14.219 38.354c-1.139 3.069-.702 6.5 1.167 9.188 1.87 2.686 4.936 4.288 8.209 4.288h51.252l-52.943 72.708 14.298-38.803c1.13-3.068.69-6.495-1.181-9.177-1.87-2.682-4.934-4.28-8.203-4.28h-51.01z"/><circle cx="406" cy="335.359" r="10"/><path d="m114.573 370.211c-1.808-3.011-5.061-4.853-8.573-4.853s-6.766 1.842-8.573 4.853l-17.481 29.113c-5.712 9.513-5.859 20.957-.394 30.613s15.352 15.421 26.447 15.421 20.982-5.765 26.447-15.421c5.466-9.656 5.318-21.101-.394-30.613zm.469 49.876c-.897 1.585-3.574 5.272-9.042 5.272s-8.145-3.687-9.042-5.272-2.68-5.779.135-10.467l8.907-14.834 8.907 14.835c2.815 4.687 1.032 8.88.135 10.466z"/><path d="m414.573 370.211c-1.808-3.011-5.062-4.853-8.573-4.853s-6.766 1.842-8.573 4.853l-17.48 29.113c-5.712 9.513-5.859 20.957-.394 30.613s15.352 15.421 26.447 15.421 20.982-5.765 26.447-15.421c5.466-9.656 5.318-21.101-.394-30.613zm.469 49.876c-.897 1.585-3.574 5.272-9.042 5.272s-8.145-3.687-9.042-5.272c-.898-1.585-2.68-5.779.135-10.467l8.907-14.834 8.907 14.835c2.815 4.687 1.033 8.88.135 10.466z"/></g></svg>