<svg id="Capa_1" enable-background="new 0 0 512 512" height="512" viewBox="0 0 512 512" width="512" xmlns="http://www.w3.org/2000/svg"><g><path d="m421.423 333.955c-4.857-2.629-10.926-.822-13.554 4.036-9.886 18.271-23.26 34.854-39.028 48.525-7.068-9.014-17.985-14.531-30.031-14.531-21.063 0-38.2 17.136-38.2 38.199 0 4.105.675 8.16 1.951 12.01-15.092 4.221-30.704 6.361-46.561 6.361-14.795 0-29.345-1.857-43.457-5.522 18.818-17.632 29.955-42.584 29.955-68.84 0-51.937-42.253-94.191-94.19-94.191-23.234 0-45.516 8.682-62.606 23.857-1.489-9.179-2.256-18.494-2.256-27.86 0-95.148 77.408-172.556 172.556-172.556 9.255 0 18.494.743 27.581 2.201-.374 2.809-.573 5.647-.573 8.503 0 35.344 28.758 64.099 64.106 64.099 14.732 0 28.884-5.086 40.194-14.194 26.663 31.224 41.247 70.598 41.247 111.946 0 3.087-.083 6.212-.246 9.288-.293 5.515 3.941 10.223 9.456 10.515 5.508.298 10.223-3.941 10.516-9.457.182-3.426.274-6.907.274-10.346 0-49.807-18.952-97.053-53.367-133.059-.011-.012-.022-.023-.033-.035-.027-.028-.052-.057-.079-.085-26.508-27.67-60.18-46.636-97.374-54.845-.026-.006-.053-.011-.08-.017-.023-.005-.047-.01-.07-.014-13.57-2.986-27.549-4.501-41.553-4.501-106.176 0-192.556 86.38-192.556 192.556 0 17.425 2.335 34.708 6.936 51.377.006.023.012.047.018.07.01.038.019.076.03.114 16.275 58.688 59.988 106.67 116.95 128.398.015.006.03.012.044.018.05.019.099.04.149.059 21.841 8.307 44.864 12.52 68.429 12.52 22.04 0 43.667-3.701 64.281-10.997.053-.018.106-.036.158-.055 18.407-6.533 35.681-15.83 51.342-27.635 22.022-16.595 40.583-38.158 53.678-62.359 2.628-4.857.821-10.925-4.037-13.553zm-118.415-239.806c0-1.389.072-2.77.2-4.142 26.19 7.418 50.14 20.916 70.183 39.553-7.539 5.593-16.734 8.688-26.277 8.688-24.32 0-44.106-19.783-44.106-44.099zm-211.912 212.822c14.032-16.966 35.076-26.968 57.211-26.968 40.909 0 74.19 33.282 74.19 74.191 0 24.507-12.312 47.579-32.425 61.317-47.353-19.593-83.87-59.639-98.976-108.54zm247.714 85.015c5.664 0 10.796 2.562 14.166 6.752-9.906 6.747-20.454 12.424-31.508 16.958-.557-1.758-.858-3.604-.858-5.511.001-10.035 8.165-18.199 18.2-18.199z"/><path d="m157.567 170.164c0 16.542 13.458 30 30 30s30-13.458 30-30-13.458-30-30-30-30 13.458-30 30zm40 0c0 5.514-4.486 10-10 10s-10-4.486-10-10 4.486-10 10-10 10 4.486 10 10z"/><path d="m298.051 256.733c0 24.542 19.966 44.507 44.508 44.507s44.507-19.966 44.507-44.507-19.966-44.507-44.507-44.507-44.508 19.965-44.508 44.507zm69.015 0c0 13.513-10.994 24.507-24.507 24.507-13.514 0-24.508-10.994-24.508-24.507s10.994-24.507 24.508-24.507c13.513 0 24.507 10.994 24.507 24.507z"/><path d="m506.798 58.727-34.601-18.924-18.924-34.601c-1.753-3.207-5.118-5.202-8.773-5.202s-7.02 1.995-8.773 5.202l-18.924 34.601-34.601 18.924c-3.207 1.753-5.202 5.118-5.202 8.773s1.995 7.02 5.202 8.773l34.601 18.924 18.924 34.601c1.754 3.207 5.118 5.202 8.773 5.202s7.02-1.995 8.773-5.202l18.924-34.601 34.601-18.924c3.207-1.753 5.202-5.118 5.202-8.773s-1.995-7.02-5.202-8.773zm-46.767 20.329c-1.678.917-3.058 2.297-3.975 3.975l-11.556 21.129-11.556-21.129c-.917-1.678-2.297-3.058-3.975-3.975l-21.129-11.556 21.129-11.556c1.678-.917 3.058-2.297 3.975-3.975l11.556-21.129 11.556 21.129c.917 1.678 2.297 3.058 3.975 3.975l21.129 11.556z"/><path d="m129.798 435.727-34.601-18.924-18.924-34.601c-1.753-3.207-5.118-5.202-8.773-5.202s-7.02 1.995-8.773 5.202l-18.924 34.601-34.601 18.924c-3.207 1.753-5.202 5.118-5.202 8.773s1.995 7.02 5.202 8.773l34.601 18.924 18.924 34.601c1.753 3.207 5.118 5.202 8.773 5.202s7.02-1.995 8.773-5.202l18.924-34.601 34.601-18.924c3.207-1.754 5.202-5.118 5.202-8.773s-1.995-7.02-5.202-8.773zm-46.767 20.329c-1.678.917-3.058 2.297-3.975 3.975l-11.556 21.129-11.556-21.129c-.917-1.678-2.297-3.058-3.975-3.975l-21.129-11.556 21.129-11.556c1.678-.917 3.058-2.297 3.975-3.975l11.556-21.129 11.556 21.129c.917 1.678 2.297 3.058 3.975 3.975l21.129 11.556z"/><path d="m452 412c-22.056 0-40 17.944-40 40s17.944 40 40 40 40-17.944 40-40-17.944-40-40-40zm0 60c-11.028 0-20-8.972-20-20s8.972-20 20-20 20 8.972 20 20-8.972 20-20 20z"/><path d="m65 105c22.056 0 40-17.944 40-40s-17.944-40-40-40-40 17.944-40 40 17.944 40 40 40zm0-60c11.028 0 20 8.972 20 20s-8.972 20-20 20-20-8.972-20-20 8.972-20 20-20z"/><circle cx="431.767" cy="305.471" r="10"/></g></svg>