<svg id="Capa_1" enable-background="new 0 0 512.006 512.006" height="512" viewBox="0 0 512.006 512.006" width="512" xmlns="http://www.w3.org/2000/svg"><g><path d="m415.301 253.578c-5.51-.248-10.199 4.004-10.457 9.521-3.727 79.576-69.105 141.911-148.841 141.911-82.163 0-149.006-66.844-149.006-149.006s66.844-149.006 149.006-149.006c56.957 0 108.11 31.702 133.497 82.734 2.459 4.945 8.462 6.96 13.407 4.499 4.944-2.459 6.959-8.462 4.499-13.407-13.8-27.741-34.96-51.172-61.191-67.76-26.967-17.052-58.161-26.066-90.212-26.066-93.19 0-169.006 75.816-169.006 169.006s75.815 169.006 169.006 169.006c43.743 0 85.233-16.65 116.828-46.882 31.492-30.135 49.957-70.654 51.991-114.093.258-5.517-4.005-10.199-9.521-10.457z"/><circle cx="411.685" cy="223.514" r="10"/><path d="m256.003 56.997c5.523 0 10-4.477 10-10v-28.631c0-5.523-4.477-10-10-10s-10 4.477-10 10v28.631c0 5.523 4.477 10 10 10z"/><path d="m101.141 115.285c1.953 1.953 4.512 2.929 7.071 2.929s5.119-.976 7.071-2.929c3.905-3.905 3.905-10.237 0-14.143l-20.244-20.245c-3.905-3.905-10.237-3.905-14.143 0-3.905 3.905-3.905 10.237 0 14.142z"/><path d="m46.996 266.003c5.523 0 10-4.477 10-10s-4.477-10-10-10h-28.631c-5.523 0-10 4.477-10 10s4.477 10 10 10z"/><path d="m101.141 396.722-20.245 20.245c-3.905 3.905-3.905 10.237 0 14.143 1.953 1.953 4.512 2.929 7.071 2.929s5.119-.976 7.071-2.929l20.245-20.245c3.905-3.905 3.905-10.237 0-14.142-3.904-3.906-10.236-3.906-14.142-.001z"/><path d="m256.003 455.01c-5.523 0-10 4.477-10 10v28.631c0 5.523 4.477 10 10 10s10-4.477 10-10v-28.631c0-5.523-4.478-10-10-10z"/><path d="m410.864 396.722c-3.906-3.905-10.236-3.905-14.142 0-3.905 3.905-3.905 10.237 0 14.142l20.245 20.245c1.953 1.953 4.512 2.929 7.071 2.929s5.118-.976 7.071-2.929c3.905-3.905 3.905-10.237 0-14.143z"/><path d="m465.01 246.003c-5.522 0-10 4.477-10 10s4.478 10 10 10h28.631c5.523 0 10-4.477 10-10s-4.477-10-10-10z"/><path d="m416.967 80.897-20.245 20.245c-3.905 3.905-3.905 10.237 0 14.143 1.953 1.953 4.512 2.929 7.071 2.929 2.56 0 5.118-.976 7.071-2.929l20.245-20.245c3.905-3.905 3.905-10.237 0-14.142-3.906-3.906-10.236-3.906-14.142-.001z"/><path d="m332.159 72.146c1.252.519 2.548.764 3.823.764 3.924 0 7.647-2.325 9.243-6.176l21.913-52.903c2.113-5.103-.31-10.952-5.412-13.066-5.103-2.113-10.952.31-13.066 5.412l-21.913 52.903c-2.113 5.103.309 10.952 5.412 13.066z"/><path d="m166.781 66.733c1.595 3.851 5.318 6.176 9.243 6.176 1.275 0 2.572-.245 3.823-.764 5.103-2.113 7.526-7.963 5.412-13.065l-21.914-52.903c-2.113-5.102-7.963-7.528-13.065-5.412-5.103 2.113-7.526 7.963-5.412 13.066z"/><path d="m66.733 166.781-52.903-21.913c-5.1-2.113-10.951.31-13.066 5.412-2.114 5.102.31 10.952 5.412 13.065l52.903 21.913c1.251.518 2.547.764 3.823.764 3.924 0 7.647-2.325 9.243-6.176 2.114-5.102-.31-10.951-5.412-13.065z"/><path d="m59.079 326.748-52.903 21.913c-5.102 2.113-7.526 7.963-5.412 13.065 1.595 3.851 5.318 6.176 9.243 6.176 1.275 0 2.572-.245 3.823-.764l52.903-21.913c5.103-2.113 7.526-7.963 5.412-13.065-2.113-5.102-7.964-7.527-13.066-5.412z"/><path d="m179.846 439.861c-5.1-2.112-10.951.31-13.066 5.412l-21.913 52.903c-2.114 5.103.31 10.952 5.412 13.065 1.251.519 2.547.764 3.823.764 3.924 0 7.648-2.325 9.243-6.176l21.913-52.903c2.114-5.102-.309-10.951-5.412-13.065z"/><path d="m345.225 445.273c-2.114-5.103-7.963-7.525-13.066-5.412s-7.525 7.963-5.412 13.065l21.913 52.903c1.596 3.851 5.319 6.176 9.243 6.176 1.275 0 2.571-.245 3.823-.764 5.103-2.113 7.525-7.963 5.412-13.065z"/><path d="m505.83 348.661-52.903-21.913c-5.102-2.114-10.952.31-13.066 5.412-2.113 5.103.31 10.952 5.412 13.065l52.903 21.913c1.252.518 2.548.764 3.823.764 3.924 0 7.647-2.325 9.243-6.176 2.113-5.102-.31-10.952-5.412-13.065z"/><path d="m449.103 186.022c1.275 0 2.571-.245 3.823-.764l52.903-21.913c5.103-2.113 7.525-7.963 5.412-13.065-2.114-5.103-7.963-7.526-13.066-5.412l-52.903 21.913c-5.102 2.113-7.525 7.963-5.412 13.065 1.596 3.852 5.32 6.176 9.243 6.176z"/><path d="m211.392 170.048c-16.542 0-30 13.458-30 30s13.458 30 30 30 30-13.458 30-30-13.458-30-30-30zm0 40c-5.514 0-10-4.486-10-10s4.486-10 10-10 10 4.486 10 10-4.486 10-10 10z"/><path d="m304.886 236.52c-19.299 0-35 15.701-35 35s15.701 35 35 35 35-15.701 35-35-15.702-35-35-35zm0 50c-8.272 0-15-6.729-15-15s6.728-15 15-15c8.271 0 15 6.729 15 15s-6.729 15-15 15z"/><path d="m357.679 176.686c-17.608-22.522-42.524-39.061-71.146-46.033-.254-.071-.508-.137-.766-.187-9.559-2.266-19.522-3.472-29.764-3.472-71.136 0-129.01 57.874-129.01 129.01 0 11.784 1.597 23.2 4.57 34.053.064.288.142.572.232.854 11.04 39.231 40.211 70.941 77.856 85.484.31.138.627.256.949.361 14.13 5.331 29.43 8.257 45.403 8.257 71.136 0 129.01-57.874 129.01-129.01 0-29.187-9.748-56.136-26.152-77.776-.341-.548-.736-1.063-1.182-1.541zm-19.558 7.706c-5.615 7.231-14.395 11.671-23.729 11.671-16.542 0-30-13.458-30-30 0-5.014 1.267-9.918 3.624-14.27 19.631 6.043 36.913 17.491 50.105 32.599zm-185.687 105.628c8.463-9.391 20.611-14.888 33.364-14.888 24.748 0 44.883 20.135 44.883 44.883 0 14.187-6.835 27.563-18.084 35.973-28.321-12.341-50.418-36.373-60.163-65.968zm103.569 74.993c-7.372 0-14.573-.74-21.539-2.141 10.269-11.704 16.218-26.931 16.218-42.857 0-35.777-29.106-64.883-64.883-64.883-13.852 0-27.212 4.481-38.189 12.462-.404-3.81-.617-7.676-.617-11.591 0-60.108 48.901-109.01 109.01-109.01 4.029 0 8.006.227 11.922.655-2.308 5.82-3.533 12.065-3.533 18.415 0 27.57 22.43 50 50 50 13.562 0 26.423-5.622 35.701-15.048 9.477 16.153 14.919 34.946 14.919 54.988.001 60.109-48.901 109.01-109.009 109.01z"/></g></svg>