<svg id="Capa_1" enable-background="new 0 0 512 512" height="512" viewBox="0 0 512 512" width="512" xmlns="http://www.w3.org/2000/svg"><g><path d="m484.912 333.312c1.458-10.542 2.208-21.291 2.208-32.054 0-61.73-24.039-119.771-67.689-163.432-43.66-43.65-101.702-67.688-163.431-67.688s-119.77 24.038-163.433 67.689c-43.648 43.66-67.687 101.701-67.687 163.431 0 10.763.75 21.512 2.208 32.054-16.28 10.509-27.088 28.796-27.088 49.573 0 32.521 26.457 58.978 58.978 58.978h143.668c23.518 0 42.651-19.134 42.651-42.652 0-20.264-14.204-37.272-33.179-41.591-3.312-27.879-21.918-51.129-47.165-61.115 2.479-48.073 42.368-86.422 91.047-86.422s88.569 38.348 91.047 86.422c-25.247 9.985-43.854 33.235-47.165 61.115-18.975 4.319-33.179 21.327-33.179 41.591 0 23.518 19.134 42.652 42.651 42.652h70.776c5.522 0 10-4.477 10-10s-4.478-10-10-10h-70.776c-12.49 0-22.651-10.162-22.651-22.652s10.161-22.651 22.651-22.651c4.379 0 8.624 1.248 12.276 3.61 1.678 1.086 3.56 1.603 5.42 1.603 3.28 0 6.493-1.612 8.407-4.571 2.999-4.638 1.67-10.829-2.968-13.828-3.855-2.493-8.064-4.303-12.46-5.437 4.153-26.414 27.066-46.682 54.628-46.682 6.44 0 12.67 1.093 18.491 3.138.349.151.709.279 1.077.39 10.147 3.804 18.98 10.547 25.388 19.536-10.169 7.021-18.022 17.133-22.184 28.906-1.841 5.207.888 10.92 6.095 12.761 1.103.39 2.227.575 3.333.575 4.119 0 7.978-2.565 9.428-6.67 3.579-10.122 11.279-18.404 21.125-22.723h.001c4.941-2.164 10.193-3.261 15.609-3.261 21.492 0 38.978 17.485 38.978 38.978 0 19.228-14.319 35.809-33.308 38.569-5.466.794-9.252 5.869-8.457 11.335.795 5.465 5.871 9.249 11.334 8.457 28.75-4.18 50.431-29.27 50.431-58.361.002-20.777-10.806-39.064-27.086-49.573zm-292.943 24.625c-4.396 1.134-8.604 2.944-12.46 5.437-4.638 2.999-5.967 9.19-2.968 13.828 1.914 2.96 5.127 4.571 8.407 4.571 1.859 0 3.742-.518 5.42-1.603 3.652-2.362 7.898-3.61 12.276-3.61 12.49 0 22.651 10.161 22.651 22.651s-10.161 22.652-22.651 22.652h-143.666c-21.493-.001-38.978-17.486-38.978-38.978s17.485-38.978 38.978-38.978c5.416 0 10.668 1.097 15.609 3.261h.001c9.847 4.318 17.546 12.6 21.126 22.723 1.451 4.105 5.309 6.67 9.428 6.67 1.106 0 2.23-.185 3.333-.575 5.207-1.841 7.936-7.554 6.095-12.761-4.162-11.772-12.015-21.885-22.184-28.906 6.409-8.989 15.241-15.732 25.388-19.536.368-.111.729-.239 1.077-.39 5.821-2.045 12.051-3.138 18.491-3.138 27.561 0 50.474 20.269 54.627 46.682zm174.784-66.256c-4.87-56.835-52.679-101.598-110.753-101.598s-105.883 44.764-110.753 101.598c-2.6-.272-5.234-.426-7.905-.426-4.138 0-8.212.332-12.195.972 4.656-68.131 61.562-122.14 130.853-122.14s126.198 54.009 130.853 122.14c-3.983-.64-8.057-.972-12.195-.972-2.671 0-5.305.154-7.905.426zm40.382 6.847c-1.463-82.1-68.692-148.441-151.135-148.441s-149.673 66.341-151.135 148.441c-7.22 3.432-13.843 8.011-19.632 13.579-.226-3.607-.353-7.226-.353-10.85 0-94.356 76.765-171.12 171.12-171.12s171.12 76.764 171.12 171.12c0 3.624-.127 7.242-.353 10.85-5.789-5.568-12.412-10.147-19.632-13.579zm38.591 25.83c.921-7.64 1.395-15.364 1.395-23.1 0-105.384-85.736-191.12-191.12-191.12s-191.121 85.736-191.121 191.12c0 7.736.475 15.46 1.395 23.1-2.407-.298-4.841-.451-7.298-.451-4.375 0-8.635.493-12.741 1.401-.895-7.94-1.357-15.989-1.357-24.051 0-56.389 21.959-109.408 61.83-149.289 39.883-39.872 92.902-61.831 149.29-61.831s109.407 21.959 149.288 61.83c39.873 39.882 61.832 92.901 61.832 149.29 0 8.062-.462 16.11-1.357 24.051-4.106-.908-8.366-1.401-12.741-1.401-2.455 0-4.889.153-7.295.451z"/><circle cx="420.131" cy="431.862" r="10"/></g></svg>