<svg id="Capa_1" enable-background="new 0 0 512 512" height="512" viewBox="0 0 512 512" width="512" xmlns="http://www.w3.org/2000/svg"><g><path d="m440.407 164.205c-4.882-79.778-71.336-143.185-152.32-143.185-29.166 0-57.521 8.258-81.997 23.882-21.207 13.536-38.688 32.018-50.98 53.808-12.25-4.242-25.044-6.386-38.154-6.386-64.49 0-116.956 52.466-116.956 116.956s52.466 116.956 116.956 116.956h203.385c5.523 0 10-4.477 10-10s-4.477-10-10-10h-203.385c-53.462.001-96.956-43.494-96.956-96.956s43.494-96.957 96.956-96.957c13.472 0 26.537 2.73 38.835 8.114.001 0 .002 0 .003.001 24.494 10.74 43.646 31.34 52.545 56.52 1.451 4.105 5.31 6.67 9.429 6.67 1.105 0 2.23-.185 3.333-.575 5.207-1.84 7.936-7.554 6.096-12.761-9.537-26.982-28.836-49.596-53.735-63.391 23.72-40.879 66.786-65.883 114.626-65.883 69.982 0 127.469 54.494 132.275 123.275-12.014 1.528-23.529 5.703-33.763 12.32-4.638 2.999-5.967 9.19-2.968 13.828 1.914 2.96 5.127 4.571 8.407 4.571 1.859 0 3.742-.519 5.42-1.604 9.895-6.399 21.389-9.781 33.236-9.781 33.804 0 61.305 27.501 61.305 61.304s-27.501 61.304-61.305 61.304h-30.355c-5.522 0-10 4.477-10 10s4.478 10 10 10h30.355c44.832 0 81.305-36.473 81.305-81.304 0-41.543-31.322-75.911-71.593-80.726z"/><circle cx="360.34" cy="316.237" r="10"/><path d="m162.281 396.392c0-22.056-17.944-40-40-40-16.923 0-32.082 10.716-37.721 26.667-1.841 5.207.888 10.92 6.095 12.761 5.209 1.841 10.921-.888 12.761-6.095 2.819-7.975 10.401-13.333 18.865-13.333 11.028 0 20 8.972 20 20s-8.972 20-20 20h-86.135c-5.522 0-10 4.477-10 10s4.478 10 10 10h86.135c22.056 0 40-17.944 40-40z"/><path d="m445.853 356.392c-16.924 0-32.083 10.717-37.721 26.667-1.84 5.207.889 10.92 6.097 12.761 5.204 1.841 10.92-.888 12.761-6.096 2.818-7.974 10.398-13.332 18.863-13.332 11.028 0 20 8.972 20 20s-8.972 20-20 20h-86.135c-5.523 0-10 4.477-10 10s4.477 10 10 10h86.135c22.056 0 40-17.944 40-40s-17.944-40-40-40z"/><path d="m260.662 372.867c-32.564 0-59.057 26.493-59.057 59.057 0 5.523 4.477 10 10 10 5.522 0 10-4.477 10-10 0-21.536 17.521-39.057 39.057-39.057s39.057 17.521 39.057 39.057-17.521 39.057-39.057 39.057h-140.85c-5.522 0-10 4.477-10 10s4.478 10 10 10h140.85c32.563 0 59.057-26.493 59.057-59.057s-26.493-59.057-59.057-59.057z"/></g></svg>