<svg id="Capa_1" enable-background="new 0 0 512 512" height="512" viewBox="0 0 512 512" width="512" xmlns="http://www.w3.org/2000/svg"><g><path d="m165.555 330.21h180.954c.01 0 .021.002.031.002s.02-.002.03-.002h47.848c5.523 0 10-4.477 10-10s-4.477-10-10-10h-32.286c4.785-12.726 7.287-26.305 7.287-40 0-62.54-50.88-113.42-113.42-113.42s-113.42 50.88-113.42 113.42c0 13.695 2.502 27.274 7.287 40h-139.866c-5.523 0-10 4.477-10 10s4.477 10 10 10h155.514zm-2.975-60c0-51.512 41.908-93.42 93.42-93.42s93.42 41.908 93.42 93.42c0 13.858-3.091 27.57-8.977 40h-168.886c-5.886-12.43-8.977-26.143-8.977-40z"/><path d="m256 136.79c5.523 0 10-4.477 10-10v-35c0-5.523-4.477-10-10-10s-10 4.477-10 10v35c0 5.524 4.477 10 10 10z"/><path d="m147.516 175.868c1.953 1.953 4.512 2.929 7.071 2.929s5.119-.976 7.071-2.929c3.905-3.905 3.905-10.237 0-14.143l-24.748-24.749c-3.905-3.905-10.237-3.905-14.143 0-3.905 3.905-3.905 10.237 0 14.143z"/><path d="m77.581 280.21h35c5.523 0 10-4.477 10-10s-4.477-10-10-10h-35c-5.523 0-10 4.477-10 10 0 5.522 4.477 10 10 10z"/><path d="m399.419 280.21h35c5.523 0 10-4.477 10-10s-4.477-10-10-10h-35c-5.523 0-10 4.477-10 10 0 5.522 4.477 10 10 10z"/><path d="m357.413 178.797c2.559 0 5.119-.976 7.071-2.929l24.749-24.749c3.905-3.905 3.905-10.237 0-14.143-3.905-3.905-10.237-3.905-14.143 0l-24.749 24.749c-3.905 3.905-3.905 10.237 0 14.143 1.953 1.953 4.512 2.929 7.072 2.929z"/><path d="m502 310.21h-27.581c-5.523 0-10 4.477-10 10s4.477 10 10 10h27.581c5.523 0 10-4.477 10-10 0-5.524-4.477-10-10-10z"/><circle cx="434.419" cy="320.21" r="10"/><path d="m216 370.21c0-5.523-4.477-10-10-10h-160c-5.523 0-10 4.477-10 10s4.477 10 10 10h160c5.523 0 10-4.478 10-10z"/><path d="m466 360.21h-160c-5.523 0-10 4.477-10 10s4.477 10 10 10h160c5.523 0 10-4.477 10-10 0-5.524-4.477-10-10-10z"/><path d="m331 410.21h-150c-5.523 0-10 4.477-10 10s4.477 10 10 10h150c5.523 0 10-4.477 10-10 0-5.524-4.477-10-10-10z"/><path d="m302.361 232.264-39.996-32.977c-3.567-3.022-9.164-3.021-12.731 0l-39.996 32.977c-4.261 3.514-4.868 9.816-1.355 14.077 1.978 2.398 4.838 3.639 7.722 3.639 2.239 0 4.493-.749 6.355-2.285l23.64-19.49v51.795c0 5.523 4.477 10 10 10s10-4.477 10-10v-51.794l23.639 19.49c1.863 1.536 4.116 2.285 6.355 2.285 2.883 0 5.744-1.241 7.722-3.639 3.513-4.262 2.907-10.565-1.355-14.078z"/></g></svg>