<svg id="Capa_1" enable-background="new 0 0 512 512" height="512" viewBox="0 0 512 512" width="512" xmlns="http://www.w3.org/2000/svg"><g><path d="m165.554 330.21h180.955c.01 0 .021.002.031.002s.02-.002.03-.002h47.848c5.522 0 10-4.477 10-10s-4.478-10-10-10h-32.286c4.785-12.726 7.287-26.305 7.287-40 0-62.54-50.88-113.42-113.42-113.42s-113.42 50.88-113.42 113.42c0 13.695 2.502 27.274 7.287 40h-139.866c-5.523 0-10 4.477-10 10s4.477 10 10 10h155.513zm-2.974-60c0-51.512 41.908-93.42 93.42-93.42s93.42 41.908 93.42 93.42c0 13.858-3.091 27.57-8.977 40h-168.886c-5.886-12.43-8.977-26.143-8.977-40z"/><path d="m256 136.79c5.522 0 10-4.477 10-10v-35c0-5.523-4.478-10-10-10-5.523 0-10 4.477-10 10v35c0 5.524 4.477 10 10 10z"/><path d="m147.517 175.868c1.953 1.953 4.512 2.929 7.071 2.929s5.118-.977 7.071-2.929c3.905-3.905 3.905-10.237 0-14.142l-24.749-24.749c-3.906-3.905-10.236-3.905-14.143 0-3.905 3.905-3.905 10.237 0 14.142z"/><path d="m77.581 280.21h35c5.522 0 10-4.477 10-10s-4.478-10-10-10h-35c-5.522 0-10 4.477-10 10 0 5.522 4.478 10 10 10z"/><path d="m399.419 280.21h35c5.522 0 10-4.477 10-10s-4.478-10-10-10h-35c-5.522 0-10 4.477-10 10 0 5.522 4.478 10 10 10z"/><path d="m357.412 178.797c2.559 0 5.118-.977 7.071-2.929l24.749-24.749c3.905-3.905 3.905-10.237 0-14.142s-10.235-3.905-14.143 0l-24.749 24.749c-3.905 3.905-3.905 10.237 0 14.142 1.954 1.953 4.513 2.929 7.072 2.929z"/><path d="m216 370.21c0-5.523-4.477-10-10-10h-160c-5.522 0-10 4.477-10 10s4.478 10 10 10h160c5.523 0 10-4.478 10-10z"/><path d="m466 360.21h-160c-5.522 0-10 4.477-10 10s4.478 10 10 10h160c5.522 0 10-4.477 10-10 0-5.524-4.478-10-10-10z"/><path d="m331 410.21h-150c-5.523 0-10 4.477-10 10s4.477 10 10 10h150c5.522 0 10-4.477 10-10 0-5.524-4.478-10-10-10z"/><path d="m289.639 239.304-23.639 19.49v-51.794c0-5.523-4.478-10-10-10-5.523 0-10 4.477-10 10v51.794l-23.639-19.49c-4.262-3.512-10.563-2.907-14.077 1.355-3.513 4.261-2.907 10.563 1.355 14.077l39.998 32.978c3.239 2.721 8.191 3.048 11.731.714.352-.207.668-.469.995-.714l39.998-32.978c4.262-3.514 4.867-9.816 1.354-14.077-3.513-4.262-9.816-4.869-14.076-1.355z"/><path d="m502 310.21h-27.581c-5.522 0-10 4.477-10 10s4.478 10 10 10h27.581c5.522 0 10-4.477 10-10 0-5.524-4.478-10-10-10z"/><circle cx="434.419" cy="320.21" r="10"/></g></svg>