<svg id="Capa_1" enable-background="new 0 0 512 512" height="512" viewBox="0 0 512 512" width="512" xmlns="http://www.w3.org/2000/svg"><g><path d="m416.561 108.38c-35.832-35.831-81.22-58.282-130.146-64.88v-13.085c0-8.121-3.164-15.758-8.91-21.505-5.746-5.746-13.383-8.91-21.505-8.91-16.771 0-30.415 13.644-30.415 30.415v13.085c-48.926 6.598-94.314 29.049-130.146 64.88-43.162 43.162-66.932 100.184-66.932 160.56 0 4.751 3.343 8.847 7.999 9.798 4.651.948 9.337-1.505 11.2-5.876 7.733-18.138 25.467-29.857 45.178-29.857 19.685 0 37.396 11.689 45.146 29.786 3.062 8.017 15.308 8.048 18.432.065 7.716-18.134 25.444-29.852 45.162-29.852 8.751 0 17.108 2.313 24.376 6.467v179.341c0 45.536 36.633 82.853 81.66 83.185.209.001.417.002.626.002 21.867 0 42.428-8.467 57.958-23.883 15.68-15.564 24.315-36.304 24.315-58.397l-.005-.973c-.174-14.931-12.501-27.077-27.478-27.077h-5.052c-7.333 0-14.218 2.864-19.387 8.065-5.254 5.286-8.122 12.335-8.077 19.785v.2c0 12.051-9.796 22.044-21.837 22.276-5.838.125-11.437-2.148-15.739-6.368-4.438-4.353-6.983-10.384-6.983-16.545v-34.835c0-5.522-4.477-10-10-10s-10 4.478-10 10v34.835c0 11.498 4.73 22.732 12.978 30.822 8.167 8.011 18.858 12.282 30.13 12.087 22.856-.441 41.452-19.405 41.452-42.272v-.137c0-.008 0-.116 0-.124-.013-2.147.79-4.145 2.262-5.625 1.387-1.396 3.234-2.164 5.202-2.164h5.052c4.077 0 7.433 3.279 7.479 7.296l.004.754c0 16.724-6.537 32.422-18.405 44.203-11.868 11.779-27.654 18.189-44.347 18.075-34.081-.25-61.808-28.595-61.808-63.184v-157.728c2.983 10.302 17.02 10.295 20 0v43.163c0 5.523 4.477 10 10 10s10-4.477 10-10v-64.776c7.268-4.154 15.626-6.467 24.376-6.467 19.718 0 37.446 11.718 45.162 29.852 3.125 7.985 15.371 7.949 18.432-.065 7.75-18.097 25.461-29.786 45.146-29.786 19.711 0 37.444 11.72 45.178 29.857 1.595 3.741 5.254 6.079 9.194 6.079.663 0 1.335-.066 2.006-.203 4.655-.951 7.999-5.047 7.999-9.798 0-60.377-23.77-117.399-66.932-160.561zm-170.976-77.965c0-5.743 4.672-10.415 10.415-10.415 2.779 0 5.394 1.084 7.362 3.052 1.969 1.97 3.053 4.584 3.053 7.363v11.279c-3.418-.156-6.849-.242-10.291-.244-.042 0-.083-.002-.124-.002s-.083.002-.124.002c-3.442.002-6.872.088-10.291.244zm-152.702 192.59c-15.512 0-30.152 5.157-41.949 14.166 12.971-84.039 76.556-151.597 158.529-170.455-16.417 18.392-29.669 44.033-39.423 67.229-14.382 34.199-25.772 75.041-30.46 107.208-12.492-11.454-29.028-18.148-46.697-18.148zm67.448 13.677c10.705-64.537 47.812-158.441 85.669-173.223v175.66c-12.184-10.206-27.779-16.114-44.376-16.114-15.232 0-29.616 4.974-41.293 13.677zm150.045-13.677c-16.597 0-32.192 5.908-44.376 16.114v-175.66c37.857 14.781 74.965 108.685 85.669 173.222-11.677-8.702-26.061-13.676-41.293-13.676zm108.741 0c-17.668 0-34.204 6.694-46.696 18.148-4.688-32.168-16.078-73.009-30.46-107.208-9.754-23.196-23.006-48.837-39.423-67.229 81.973 18.858 145.558 86.416 158.528 170.455-11.797-9.009-26.438-14.166-41.949-14.166z"/><circle cx="276" cy="354.248" r="10"/></g></svg>