<?xml version="1.0" encoding="utf-8"?>
<!-- Generator: Adobe Illustrator 16.0.0, SVG Export Plug-In . SVG Version: 6.00 Build 0)  -->
<!DOCTYPE svg PUBLIC "-//W3C//DTD SVG 1.1//EN" "http://www.w3.org/Graphics/SVG/1.1/DTD/svg11.dtd">
<svg version="1.1" id="Layer_1" xmlns="http://www.w3.org/2000/svg" xmlns:xlink="http://www.w3.org/1999/xlink" x="0px" y="0px"
	 width="115px" height="100px" viewBox="52.5 80 115 100" enable-background="new 52.5 80 115 100" xml:space="preserve">
<g>
	<path fill="none" stroke="#000000" stroke-width="2" stroke-linecap="round" stroke-linejoin="round" stroke-miterlimit="10" d="
		M113.457,111.896c3.553-4.232,8.884-6.922,14.841-6.922c10.697,0,19.368,8.672,19.368,19.369c0,2.675-0.543,5.223-1.521,7.54"/>
	
		<line fill="none" stroke="#000000" stroke-width="2" stroke-linecap="round" stroke-linejoin="round" stroke-miterlimit="10" x1="112.566" y1="103.059" x2="106.327" y2="96.143"/>
	
		<line fill="none" stroke="#000000" stroke-width="2" stroke-linecap="round" stroke-linejoin="round" stroke-miterlimit="10" x1="133.307" y1="97.033" x2="133.307" y2="89.027"/>
	
		<line fill="none" stroke="#000000" stroke-width="2" stroke-linecap="round" stroke-linejoin="round" stroke-miterlimit="10" x1="150.369" y1="107.327" x2="157.123" y2="100.573"/>
	
		<line fill="none" stroke="#000000" stroke-width="2" stroke-linecap="round" stroke-linejoin="round" stroke-miterlimit="10" x1="154.438" y1="122.728" x2="165.109" y2="122.728"/>
	<path fill="none" stroke="#000000" stroke-width="2" stroke-linecap="round" stroke-linejoin="round" stroke-miterlimit="10" d="
		M130.164,132.245c-1.678,0-3.293,0.235-4.845,0.635c-2.205-9.859-10.993-17.23-21.516-17.23c-10.887,0-19.907,7.892-21.713,18.26
		c-2.396-1.063-5.044-1.666-7.835-1.666c-10.696,0-19.365,8.67-19.365,19.365s8.669,19.364,19.365,19.364c8.871,0,47.527,0,55.908,0
		c10.695,0,19.364-8.669,19.364-19.364S140.859,132.245,130.164,132.245z"/>
</g>
</svg>
