<svg id="Capa_1" enable-background="new 0 0 512.003 512.003" height="512" viewBox="0 0 512.003 512.003" width="512" xmlns="http://www.w3.org/2000/svg"><g><path d="m440.417 215.299c-.764-12.55-3.075-24.865-6.852-36.766 9.783-7.862 17.491-17.982 22.491-29.663 16.704-39.031-1.459-84.379-40.488-101.088-17.892-7.657-37.836-8.275-56.157-1.739-15.663 5.589-28.914 15.976-38.046 29.61-10.359-2.325-21.01-3.549-31.785-3.549-.512 0-1.03.003-1.543.009-29.147.01-57.479 8.268-81.942 23.885-21.208 13.538-38.689 32.019-50.984 53.81-12.251-4.24-25.043-6.385-38.148-6.385-64.492 0-116.96 52.468-116.96 116.96 0 64.486 52.468 116.95 116.96 116.95h65.64l-4.027 5.887c-2.094 3.061-2.322 7.03-.591 10.311s5.135 5.334 8.845 5.334h56.62l-34.566 99.867c-1.638 4.733.479 9.948 4.952 12.202 1.436.723 2.974 1.069 4.492 1.069 3.211 0 6.34-1.549 8.26-4.355l89.137-130.315h36.307c5.522 0 10-4.478 10-10 0-5.523-4.478-10-10-10h-22.627l4.023-5.882c2.094-3.062 2.321-7.03.591-10.312-1.73-3.28-5.136-5.334-8.845-5.334h-56.834l34.772-99.849c1.648-4.734-.462-9.957-4.936-12.216-4.476-2.26-9.931-.856-12.761 3.281l-89.134 130.311h-79.321c-127.439-2.306-127.4-191.631.004-193.91 40.281-.482 78.33 26.616 91.376 64.635 1.451 4.104 5.309 6.67 9.428 6.67 1.106 0 2.231-.185 3.333-.574 5.207-1.841 7.936-7.555 6.096-12.762-9.538-26.983-28.838-49.597-53.737-63.391 23.727-40.881 66.794-65.887 114.631-65.887.037 0 .075 0 .112-.001.465-.005.923-.008 1.387-.008 53.872 0 104.21 35.243 122.762 86.185 4.456 11.939 7.142 24.382 8.024 37.102-12.018 1.527-23.537 5.702-33.775 12.322-4.638 2.999-5.967 9.189-2.968 13.827 1.913 2.96 5.127 4.571 8.407 4.571 1.859 0 3.741-.519 5.42-1.604 92.271-49.913 138.716 102.662 34.388 112.815-5.523.101-9.917 4.659-9.815 10.181.1 5.46 4.557 9.817 9.994 9.817.063 0 .125-.001.186-.002 21.4-.391 41.455-9.021 56.472-24.297 15.036-15.297 23.316-35.536 23.316-56.989.001-41.547-31.318-75.918-71.584-80.733zm-180.886 84.99-14.706 42.227c-1.065 3.059-.583 6.442 1.292 9.082 1.876 2.64 4.914 4.207 8.151 4.207h51.948l-54.052 79.023 14.777-42.693c1.058-3.057.572-6.437-1.305-9.071-1.876-2.635-4.911-4.199-8.146-4.199h-51.707zm82.221-218.503c15.823-18.636 42.681-25.576 65.944-15.618 28.893 12.368 42.338 45.938 29.973 74.831-2.847 6.652-6.887 12.612-11.886 17.661-16.931-35.542-47.739-63.105-84.031-76.874z"/><circle cx="392.031" cy="367.332" r="10"/><path d="m423.414 29.436c1.283.549 2.617.81 3.93.81 3.882 0 7.574-2.274 9.198-6.068l3.935-9.193c2.173-5.077-.182-10.955-5.259-13.128-5.079-2.172-10.955.182-13.128 5.259l-3.935 9.193c-2.173 5.076.182 10.954 5.259 13.127z"/><path d="m484.554 88.802c1.238 0 2.497-.231 3.716-.72l9.282-3.719c5.127-2.055 7.618-7.875 5.564-13.002-2.055-5.128-7.877-7.615-13.002-5.564l-9.282 3.719c-5.127 2.055-7.618 7.875-5.564 13.002 1.567 3.908 5.319 6.284 9.286 6.284z"/><path d="m479.659 169.847 9.193 3.935c1.283.549 2.617.81 3.93.81 3.882 0 7.574-2.274 9.198-6.068 2.173-5.077-.182-10.955-5.259-13.128l-9.193-3.935c-5.079-2.172-10.955.183-13.128 5.259s.182 10.954 5.259 13.127z"/><path d="m336.211 23.004c1.565 3.907 5.319 6.284 9.286 6.284 1.238 0 2.496-.231 3.716-.72 5.127-2.054 7.618-7.875 5.564-13.002l-3.719-9.283c-2.054-5.127-7.874-7.616-13.002-5.564-5.127 2.054-7.618 7.875-5.564 13.002z"/><path d="m114.575 402.187c-1.808-3.011-5.062-4.853-8.573-4.853-3.512 0-6.766 1.842-8.573 4.853l-17.481 29.114c-5.712 9.513-5.859 20.956-.394 30.612s15.352 15.421 26.448 15.421 20.983-5.765 26.448-15.421 5.318-21.1-.394-30.612zm.469 49.875c-.897 1.586-3.574 5.272-9.042 5.272s-8.145-3.686-9.043-5.272c-.897-1.585-2.68-5.777.135-10.466l8.908-14.835 8.908 14.835c2.814 4.688 1.031 8.881.134 10.466z"/><path d="m414.575 402.187c-1.808-3.011-5.062-4.853-8.573-4.853s-6.766 1.842-8.573 4.853l-17.48 29.114c-5.712 9.513-5.858 20.957-.394 30.612 5.465 9.656 15.352 15.421 26.447 15.421s20.982-5.765 26.447-15.421c5.465-9.655 5.318-21.1-.394-30.612zm.469 49.876c-.897 1.585-3.574 5.271-9.042 5.271s-8.145-3.686-9.042-5.271c-.898-1.586-2.68-5.778.135-10.467l8.907-14.835 8.907 14.835c2.814 4.688 1.032 8.881.135 10.467z"/></g></svg>