<svg id="Capa_1" enable-background="new 0 0 512.032 512.032" height="512" viewBox="0 0 512.032 512.032" width="512" xmlns="http://www.w3.org/2000/svg"><g><circle cx="325.141" cy="502.032" r="10"/><path d="m477.792 266.997c22.39-29.18 34.224-64.093 34.224-100.965 0-19.609-3.385-38.793-10.058-57.013-9.776-26.745-26.449-50.706-48.219-69.292-29.977-25.598-68.235-39.695-107.723-39.695-89.206-1.844-167.857 76.839-166 166 0 27.681 6.857 54.716 19.9 78.845-2.894 1.575-5.742 3.251-8.533 5.032-19.587 12.502-35.762 29.532-47.198 49.604-11.256-3.827-23.001-5.762-35.028-5.762-60.181 0-109.141 48.96-109.141 109.141s48.96 109.141 109.141 109.141h175.985c5.522 0 10-4.477 10-10s-4.478-10-10-10h-175.986c-117.158-2.121-117.13-176.186.004-178.281 37.039-.443 72.016 24.471 84.012 59.425 1.451 4.105 5.31 6.67 9.429 6.67 1.105 0 2.23-.186 3.333-.574 5.207-1.841 7.936-7.555 6.096-12.762-8.816-24.939-26.567-45.883-49.482-58.788 21.935-37.283 61.407-60.064 105.233-60.064 64.249 0 117.074 49.846 121.837 112.897-10.999 1.5-21.536 5.377-30.921 11.446-4.638 3-5.966 9.19-2.967 13.828 1.914 2.959 5.127 4.57 8.407 4.57 1.86 0 3.742-.519 5.421-1.604 85.195-45.941 126.9 95.668 30.408 103.238.002-.001-34.825-.001-34.825-.001-5.522 0-10 4.478-10 10s4.478 10 10 10h34.827c41.958 0 76.094-34.136 76.094-76.094 0-38.675-29.002-70.704-66.4-75.48-.869-13.272-3.576-26.049-7.854-38.089 29.864-10.697 56.557-30.055 75.984-55.373zm1.562-160.494c-1.718.305-3.471.468-5.258.468-16.542 0-30-13.458-30-30 0-5.382 1.459-10.618 4.134-15.176 13.088 12.844 23.667 28.04 31.124 44.708zm-261.177 130.06c-11.513-20.829-17.734-44.182-18.12-68.161 5.138-1.041 10.384-1.58 15.678-1.58 38.262 0 69.851 26.794 76.969 63.029-8.095-1.438-16.422-2.194-24.923-2.194-17.069 0-33.839 3.04-49.604 8.906zm175.608 67.459c-16.798-32.027-45.447-56.898-80.086-68.749-2.323-22.98-12.544-44.264-29.268-60.542-18.49-17.998-42.887-27.909-68.695-27.909-4.911 0-9.791.374-14.61 1.094 8.876-72.684 70.182-127.884 144.891-127.884 31.369 0 61.849 10.115 86.88 28.657-5.664 8.256-8.8 18.111-8.8 28.283 0 27.57 22.43 50 50 50 4.119 0 8.222-.529 12.201-1.532 3.795 13.121 5.719 26.732 5.719 40.592-.001 62.248-39.999 117.834-98.232 137.99z"/><path d="m413.097 172.657c-19.299 0-35 15.701-35 35s15.701 35 35 35 35-15.701 35-35-15.701-35-35-35zm0 50c-8.272 0-15-6.729-15-15s6.728-15 15-15c8.271 0 15 6.729 15 15s-6.729 15-15 15z"/><path d="m325.142 48.147c-22.056 0-40 17.944-40 40s17.944 40 40 40 40-17.944 40-40-17.945-40-40-40zm0 60c-11.028 0-20-8.972-20-20s8.972-20 20-20 20 8.972 20 20-8.972 20-20 20z"/><path d="m79.616 230.448c0 16.542 13.458 30 30 30s30-13.458 30-30-13.458-30-30-30-30 13.458-30 30zm30-10c5.514 0 10 4.486 10 10s-4.486 10-10 10-10-4.486-10-10 4.487-10 10-10z"/><path d="m155.736 60.032c16.542 0 30-13.458 30-30s-13.458-30-30-30-30 13.458-30 30 13.458 30 30 30zm0-40c5.514 0 10 4.486 10 10s-4.486 10-10 10-10-4.486-10-10 4.486-10 10-10z"/><path d="m60.009 154.522c24.813 0 45-20.187 45-45s-20.187-45-45-45-45 20.187-45 45 20.187 45 45 45zm0-70c13.785 0 25 11.215 25 25s-11.215 25-25 25-25-11.215-25-25 11.215-25 25-25z"/></g></svg>