<svg xmlns="http://www.w3.org/2000/svg" viewBox="0 0 64 64">
    <title>weather-icons</title>
    <path
        d="M 50.7 30.2 C 46.3 30.2 42 28.5 38.9 25.4 C 35.7 22.3 33.9 18 33.9 13.6 C 33.9 12.2 34.1 10.8 34.5 9.4 C 26.2 10.4 19.9 17.4 19.8 25.8 C 19.8 34.1 26 41.2 34.3 42.3 C 42.6 43.4 50.4 38.2 52.5 30.1 C 51.9 30.2 51.3 30.2 50.7 30.2 Z"
        fill="#ffec8d" stroke="#ffec8d" stroke-linecap="round" stroke-linejoin="round" stroke-width="3" />
    <path
        d="M 46.5 31.5 l -0.3 0 a 10.5 10.5 0 0 0 -19.1 -8 a 7 7 0 0 0 -10.6 6 a 7.2 7.2 0 0 0 0.1 1.1 A 7.5 7.5 0 0 0 18 45.5 a 4.2 4.2 0 0 0 0.5 0 v 0 h 28 a 7 7 0 0 0 0 -14 Z"
        fill="#efefef" stroke="#efefef" stroke-miterlimit="10" stroke-width="3" />
</svg>