<svg id="Capa_1" enable-background="new 0 0 512 512" height="512" viewBox="0 0 512 512" width="512" xmlns="http://www.w3.org/2000/svg"><g><path d="m453.559 151.947c1.696 0 3.416-.433 4.99-1.342l15.493-8.945c4.783-2.762 6.422-8.877 3.66-13.66-2.761-4.782-8.877-6.421-13.66-3.66l-15.493 8.945c-4.783 2.762-6.422 8.877-3.66 13.66 1.852 3.208 5.213 5.002 8.67 5.002z"/><path d="m449.35 193.712 10.436 2.797c.867.232 1.738.344 2.595.344 4.415 0 8.456-2.947 9.653-7.414 1.43-5.335-1.736-10.818-7.07-12.248l-10.437-2.797c-5.337-1.428-10.818 1.737-12.248 7.07-1.429 5.335 1.737 10.818 7.071 12.248z"/><path d="m413.69 131.945c.867.232 1.737.344 2.594.344 4.416 0 8.457-2.947 9.653-7.415l2.796-10.437c1.43-5.335-1.736-10.818-7.071-12.247-5.337-1.429-10.818 1.737-12.247 7.071l-2.796 10.436c-1.43 5.336 1.735 10.82 7.071 12.248z"/><path d="m474.042 370.34-44.911-25.929 35.832-9.601c5.335-1.43 8.501-6.913 7.071-12.247-1.429-5.335-6.915-8.504-12.247-7.071l-55.15 14.778-22.394-12.929.773-1.34c1.786-3.094 1.786-6.906 0-10l-11.547-20c-1.786-3.094-5.088-5-8.66-5h-23.094c-3.572 0-6.874 1.906-8.66 5l-.773 1.34-20.98-12.113v-38.453l20.98-12.113.773 1.34c1.786 3.094 5.088 5 8.66 5h23.094c3.572 0 6.874-1.906 8.66-5l11.547-20c1.786-3.094 1.786-6.906 0-10l-.773-1.34 7.023-4.055c4.783-2.761 6.422-8.877 3.66-13.66-2.761-4.782-8.875-6.422-13.66-3.66l-7.023 4.055-.773-1.342c-1.786-3.094-5.088-5-8.66-5h-23.094c-3.572 0-6.874 1.906-8.66 5l-11.547 20c-1.786 3.094-1.786 6.906 0 10l.773 1.34-20.98 12.113-33.302-19.226v-24.227h1.547c3.572 0 6.874-1.906 8.66-5l11.547-20c1.786-3.094 1.786-6.906 0-10l-11.547-20c-1.786-3.094-5.088-5-8.66-5h-1.547v-25.857l40.373-40.373c3.905-3.905 3.905-10.237 0-14.143-3.906-3.904-10.236-3.904-14.142 0l-26.231 26.23v-51.857c0-5.523-4.478-10-10-10-5.523 0-10 4.477-10 10v51.857l-26.23-26.23c-3.906-3.904-10.236-3.904-14.143 0-3.905 3.905-3.905 10.237 0 14.143l40.373 40.373v25.857h-1.547c-3.572 0-6.874 1.906-8.66 5l-11.547 20c-1.786 3.094-1.786 6.906 0 10l11.547 20c1.786 3.094 5.088 5 8.66 5h1.547v24.227l-33.302 19.227-20.98-12.113.773-1.34c1.786-3.094 1.786-6.906 0-10l-11.547-20c-1.786-3.094-5.088-5-8.66-5h-23.094c-3.572 0-6.874 1.906-8.66 5l-.773 1.34-22.395-12.929-14.776-55.149c-1.43-5.334-6.915-8.501-12.247-7.071-5.335 1.43-8.501 6.913-7.071 12.247l9.601 35.831-44.91-25.929c-4.785-2.761-10.9-1.123-13.66 3.66-2.762 4.783-1.123 10.898 3.66 13.66l44.911 25.929-35.832 9.601c-5.335 1.43-8.501 6.913-7.071 12.247 1.197 4.468 5.237 7.415 9.653 7.415.857 0 1.728-.111 2.594-.344l55.15-14.778 22.394 12.929-.773 1.34c-1.786 3.094-1.786 6.906 0 10l11.547 20c1.786 3.094 5.088 5 8.66 5h23.094c3.572 0 6.874-1.906 8.66-5l.773-1.34 20.98 12.113v38.453l-20.98 12.113-.773-1.34c-1.786-3.094-5.088-5-8.66-5h-23.096c-3.572 0-6.874 1.906-8.66 5l-11.547 20c-1.786 3.094-1.786 6.906 0 10l.773 1.34-22.394 12.929-55.15-14.778c-5.338-1.428-10.817 1.737-12.247 7.071s1.736 10.817 7.071 12.247l35.832 9.601-44.91 25.931c-4.783 2.762-6.422 8.877-3.66 13.66 1.852 3.208 5.213 5.002 8.67 5.002 1.696 0 3.416-.433 4.99-1.342l44.91-25.929-9.601 35.831c-1.43 5.334 1.736 10.817 7.071 12.247.867.232 1.737.344 2.594.344 4.415 0 8.456-2.947 9.653-7.415l14.776-55.149 22.395-12.929.773 1.34c1.786 3.094 5.088 5 8.66 5h23.094c3.572 0 6.874-1.906 8.66-5l11.547-20c1.786-3.094 1.786-6.906 0-10l-.773-1.34 20.98-12.113 33.303 19.226v24.227h-1.547c-3.572 0-6.874 1.906-8.66 5l-11.547 20c-1.786 3.094-1.786 6.906 0 10l11.547 20c1.786 3.094 5.088 5 8.66 5h1.547v25.857l-40.373 40.373c-3.905 3.905-3.905 10.237 0 14.142 1.953 1.952 4.512 2.929 7.071 2.929 2.56 0 5.118-.977 7.071-2.929l26.23-26.23v51.858c0 5.522 4.477 10 10 10 5.522 0 10-4.478 10-10v-51.857l26.23 26.23c1.953 1.952 4.512 2.929 7.071 2.929 2.56 0 5.118-.977 7.071-2.929 3.905-3.905 3.905-10.237 0-14.142l-40.371-40.374v-25.857h1.547c3.572 0 6.874-1.906 8.66-5l11.547-20c1.786-3.094 1.786-6.906 0-10l-11.547-20c-1.786-3.094-5.088-5-8.66-5h-1.547v-24.227l33.302-19.227 20.98 12.113-.773 1.34c-1.786 3.094-1.786 6.906 0 10l11.547 20c1.786 3.094 5.088 5 8.66 5h23.094c3.572 0 6.874-1.906 8.66-5l.773-1.34 22.395 12.929 14.776 55.149c1.197 4.468 5.237 7.415 9.653 7.415.856 0 1.727-.111 2.594-.344 5.335-1.43 8.501-6.913 7.071-12.247l-9.601-35.831 44.91 25.929c1.575.909 3.294 1.342 4.99 1.342 3.456 0 6.818-1.794 8.67-5.002 2.763-4.782 1.124-10.897-3.659-13.659zm-128.553-179.34h11.547l5.773 10-5.773 10h-11.547l-5.773-10zm-95.262-55h11.547l5.773 10-5.773 10h-11.547l-5.773-10zm-95.263 75-5.773-10 5.773-10h11.547l5.773 10-5.773 10zm11.547 110h-11.547l-5.773-10 5.773-10h11.547l5.773 10zm95.262 55h-11.547l-5.773-10 5.773-10h11.547l5.773 10zm27.529-100.773-33.302 19.226-33.302-19.227v-38.453l33.302-19.226 33.302 19.227zm56.187 45.773-5.773-10 5.773-10h11.547l5.773 10-5.773 10z"/><circle cx="418.939" cy="162" r="10"/></g></svg>