<svg id="Capa_1" enable-background="new 0 0 512 512" height="512" viewBox="0 0 512 512" width="512" xmlns="http://www.w3.org/2000/svg"><g><path d="m465.85 115.161 9.253-9.253c5.742-5.742 8.905-13.38 8.905-21.506s-3.163-15.764-8.905-21.507c-11.858-11.857-31.154-11.857-43.014 0l-9.252 9.252c-39.261-29.931-87.23-46.15-137.904-46.15-61.04 0-118.168 23.513-160.862 66.206-3.359 3.36-3.891 8.62-1.272 12.584s7.666 5.54 12.074 3.765c18.295-7.356 39.121-3.105 53.059 10.832 13.92 13.92 18.177 34.711 10.859 52.989-3.5 7.833 5.137 16.513 12.989 13.077 18.28-7.368 39.1-3.116 53.044 10.826 6.188 6.188 10.462 13.733 12.664 21.81l-39.325 39.324c-3.905 3.905-3.906 10.237 0 14.143 1.953 1.952 4.512 2.929 7.071 2.929s5.119-.977 7.071-2.929l24.042-24.042c-5.175 9.393 4.756 19.317 14.142 14.142l-111.723 111.721c-8.13 8.131-12.729 19.419-12.618 30.972.11 11.44 4.641 22.041 12.758 29.852 16.475 15.852 43.032 15.591 59.203-.579.012-.013.077-.078.089-.09l.095-.096c1.508-1.527 3.489-2.371 5.578-2.378h.023c1.958 0 3.799.763 5.184 2.147l3.573 3.574c2.883 2.883 2.937 7.574.117 10.46l-.517.523c-11.769 11.77-27.398 18.242-44.033 18.242-.079 0-.158 0-.236-.001-16.721-.061-32.397-6.658-44.141-18.576-23.921-24.277-23.484-63.926.975-88.384l30.919-30.92c3.905-3.905 3.905-10.237-.001-14.143-3.905-3.904-10.237-3.904-14.142 0l-30.919 30.92c-32.198 32.199-32.682 84.489-1.078 116.564 15.512 15.743 36.222 24.458 58.313 24.539.105.001.207.001.313.001 21.975-.001 42.625-8.553 58.173-24.1.23-.23.459-.463.684-.692 10.434-10.681 10.307-27.985-.282-38.575l-3.574-3.574c-5.165-5.165-12.024-8.006-19.325-8.006-.028 0-.058 0-.086 0-7.453.023-14.465 2.979-19.791 8.368l-.053.053c-8.52 8.522-22.514 8.661-31.193.31-4.215-4.056-6.568-9.606-6.626-15.632-.06-6.217 2.404-12.28 6.761-16.637l127.004-127.004c8.077 2.202 15.622 6.476 21.809 12.664 13.943 13.943 18.193 34.764 10.826 53.042-3.44 7.857 5.253 16.498 13.084 12.987 18.274-7.316 39.062-3.056 52.981 10.862 13.938 13.938 18.189 34.765 10.832 53.059-1.773 4.408-.199 9.455 3.765 12.075 1.685 1.112 3.602 1.656 5.509 1.656 2.581 0 5.143-.997 7.074-2.929 42.695-42.694 66.207-99.823 66.207-160.863 0-50.674-16.219-98.643-46.15-137.904zm-19.619-38.123c4.061-4.06 10.668-4.061 14.729-.001 1.965 1.966 3.047 4.581 3.047 7.365s-1.083 5.4-3.047 7.364l-7.976 7.976c-2.306-2.525-4.668-5.011-7.099-7.444-.031-.031-.06-.063-.091-.095-.003-.002-.006-.005-.008-.007-.018-.019-.038-.036-.056-.054-2.443-2.441-4.938-4.813-7.474-7.128zm-244.157 28.204c-10.963-10.963-24.953-17.667-39.658-19.641 35.175-25.717 77.68-39.604 122.517-39.604 39.651 0 77.477 10.871 110.024 31.171-24.597 1.408-52.072 10.161-75.35 19.657-34.354 14.014-71.29 34.84-97.351 54.273-.734-16.933-7.688-33.361-20.182-45.856zm38.004 57.377c53.201-38.069 145.854-78.24 183.08-61.921l-124.224 124.224c-1.395-15.837-8.23-31.05-19.969-42.788-10.775-10.774-24.47-17.415-38.887-19.515zm115.787 96.414c-11.74-11.74-26.949-18.577-42.786-19.971l124.222-124.222c16.319 37.226-23.853 129.88-61.922 183.082-2.101-14.418-8.74-28.114-19.514-38.889zm76.89 76.891c-12.495-12.494-28.92-19.448-45.854-20.182 19.432-26.061 40.259-62.997 54.272-97.35 9.496-23.278 18.249-50.752 19.658-75.349 20.298 32.546 31.169 70.372 31.169 110.022 0 44.836-13.886 87.342-39.603 122.517-1.975-14.703-8.68-28.696-19.642-39.658z"/><circle cx="216.948" cy="292.766" r="10"/><path d="m346.072 366.856h-86.135c-5.523 0-10 4.478-10 10s4.477 10 10 10h86.135c11.028 0 20 8.972 20 20s-8.972 20-20 20c-8.465 0-16.046-5.357-18.864-13.331-1.84-5.207-7.555-7.934-12.761-6.097-5.207 1.841-7.936 7.554-6.096 12.761 5.637 15.95 20.796 26.667 37.721 26.667 22.056 0 40-17.944 40-40 0-22.055-17.944-40-40-40z"/><path d="m76.135 301.415h-66.135c-5.523 0-10 4.478-10 10s4.477 10 10 10h66.135c11.028 0 20 8.972 20 20s-8.972 20-20 20c-8.464 0-16.045-5.358-18.864-13.333-1.84-5.206-7.553-7.934-12.761-6.096-5.207 1.841-7.937 7.554-6.096 12.762 5.638 15.95 20.796 26.667 37.721 26.667 22.056 0 40-17.944 40-40s-17.944-40-40-40z"/><path d="m10 271.415h144.202c.013 0 .026-.002.039-.002 22.038-.021 39.961-17.957 39.961-39.999 0-22.056-17.944-40-40-40-16.924 0-32.083 10.717-37.721 26.667-1.841 5.208.889 10.921 6.096 12.762 5.206 1.839 10.921-.889 12.761-6.096 2.819-7.975 10.4-13.333 18.864-13.333 11.028 0 20 8.972 20 20s-8.972 20-20 20c-.007 0-.013.001-.019.001h-144.183c-5.523 0-10 4.478-10 10 0 5.523 4.477 10 10 10z"/></g></svg>