<svg id="Capa_1" enable-background="new 0 0 512 512" height="512" viewBox="0 0 512 512" width="512" xmlns="http://www.w3.org/2000/svg"><g><path d="m416.56 158.804c-35.831-35.831-81.219-58.282-130.145-64.88v-13.085c0-8.121-3.164-15.759-8.91-21.505s-13.384-8.91-21.505-8.91c-16.771 0-30.415 13.645-30.415 30.415v13.085c-48.926 6.598-94.314 29.048-130.146 64.88-43.162 43.162-66.932 100.184-66.932 160.561 0 4.751 3.343 8.847 7.999 9.798 4.653.945 9.336-1.505 11.2-5.876 7.734-18.139 25.467-29.858 45.178-29.858s37.444 11.72 45.178 29.858c1.572 3.687 5.192 6.078 9.199 6.078h.003c4.008-.001 7.628-2.396 9.198-6.084 7.717-18.135 25.444-29.853 45.162-29.853 8.751 0 17.108 2.314 24.376 6.467v48.344c0 5.522 4.477 10 10 10s10-4.478 10-10v-26.731c.277.585.545 1.176.8 1.776 1.571 3.688 5.192 6.08 9.2 6.08s7.629-2.393 9.199-6.08c.256-.6.524-1.191.801-1.777v107.571c0 11.498 4.729 22.732 12.977 30.821 8.169 8.012 18.893 12.328 30.132 12.087 22.856-.432 41.452-19.393 41.452-42.268v-.261c-.014-2.147.79-4.145 2.263-5.626 1.386-1.395 3.231-2.163 5.196-2.163h5.061c4.057 0 7.401 3.254 7.48 7.265v.785c0 16.719-6.535 32.414-18.401 44.194-11.869 11.784-27.607 18.215-44.354 18.086-34.08-.256-61.806-28.603-61.806-63.19v-.568c0-5.522-4.477-10-10-10s-10 4.478-10 10v.568c0 45.532 36.631 82.852 81.658 83.19.205.001.407.002.612.002 21.875-.001 42.445-8.472 57.979-23.895 15.677-15.565 24.31-36.3 24.31-58.388v-.86c0-.042 0-.085-.001-.127-.19-14.922-12.517-27.063-27.479-27.063h-5.061c-7.33 0-14.214 2.864-19.382 8.064-5.255 5.287-8.123 12.336-8.077 19.786v.199c0 12.054-9.793 22.045-21.834 22.272-5.832.147-11.441-2.148-15.745-6.369-4.437-4.352-6.981-10.382-6.981-16.543v-129.181c7.268-4.154 15.626-6.467 24.377-6.467 19.718 0 37.444 11.718 45.162 29.853 1.569 3.688 5.189 6.083 9.197 6.084h.004c4.007 0 7.627-2.393 9.199-6.078 7.733-18.139 25.467-29.858 45.177-29.858 19.711 0 37.444 11.72 45.178 29.858 1.596 3.741 5.255 6.079 9.195 6.079.663 0 1.335-.066 2.006-.203 4.655-.951 7.998-5.047 7.998-9.798.001-60.378-23.769-117.399-66.932-160.561zm-170.975-77.965c0-5.743 4.672-10.415 10.415-10.415 2.779 0 5.395 1.084 7.362 3.053 1.969 1.968 3.053 4.583 3.053 7.362v11.279c-3.46-.158-6.931-.246-10.415-.246s-6.955.088-10.415.246zm-152.702 192.589c-15.511 0-30.152 5.157-41.948 14.166 12.971-84.04 76.557-151.598 158.531-170.455-16.419 18.391-29.672 44.032-39.427 67.229-14.385 34.206-25.771 75.046-30.455 107.214-12.492-11.458-29.03-18.154-46.701-18.154zm67.45 13.675c10.704-64.537 47.81-158.442 85.667-173.223v175.663c-12.184-10.207-27.779-16.115-44.376-16.115-15.231 0-29.613 4.973-41.291 13.675zm150.044-13.675c-16.597 0-32.193 5.908-44.377 16.115v-175.662c37.857 14.78 74.965 108.688 85.668 173.224-11.677-8.704-26.06-13.677-41.291-13.677zm108.739 0c-17.667 0-34.203 6.694-46.695 18.148-4.687-32.168-16.079-73.009-30.461-107.209-9.757-23.202-23.017-48.841-39.441-67.232 81.982 18.852 145.574 86.414 158.546 170.459-11.796-9.009-26.437-14.166-41.949-14.166z"/><circle cx="236" cy="388.239" r="10"/><path d="m346.796 80c11.096 0 20.983-5.765 26.448-15.422 5.466-9.655 5.318-21.1-.394-30.611l-17.481-29.115c-1.808-3.01-5.061-4.852-8.573-4.852s-6.766 1.842-8.573 4.852l-17.48 29.114c-5.712 9.512-5.859 20.956-.394 30.612 5.465 9.657 15.351 15.422 26.447 15.422zm-8.907-35.738 8.907-14.835 8.908 14.835c2.814 4.688 1.032 8.881.135 10.466s-3.574 5.272-9.043 5.272c-5.468 0-8.145-3.688-9.042-5.272-.898-1.585-2.68-5.779.135-10.466z"/><path d="m165.204 80c11.096 0 20.983-5.765 26.448-15.422 5.465-9.655 5.317-21.1-.394-30.611l-17.481-29.115c-1.808-3.01-5.062-4.852-8.573-4.852s-6.766 1.842-8.573 4.852l-17.481 29.114c-5.711 9.512-5.858 20.956-.393 30.612 5.464 9.657 15.351 15.422 26.447 15.422zm-8.908-35.738 8.908-14.835 8.908 14.835c2.814 4.688 1.032 8.881.135 10.466s-3.575 5.272-9.042 5.272-8.145-3.688-9.042-5.272c-.898-1.585-2.682-5.779.133-10.466z"/><path d="m64.441 130c11.096 0 20.983-5.765 26.448-15.422 5.465-9.655 5.317-21.1-.394-30.611l-17.481-29.114c-1.808-3.011-5.061-4.853-8.573-4.853s-6.766 1.842-8.573 4.853l-17.481 29.114c-5.711 9.512-5.858 20.956-.393 30.612 5.464 9.656 15.352 15.421 26.447 15.421zm-8.908-35.738 8.908-14.835 8.908 14.835c2.814 4.688 1.032 8.881.135 10.466s-3.575 5.272-9.042 5.272c-5.468 0-8.145-3.688-9.042-5.272-.898-1.585-2.681-5.779.133-10.466z"/><path d="m447.559 130c11.096 0 20.983-5.765 26.448-15.422 5.465-9.655 5.318-21.1-.393-30.611l-17.482-29.114c-1.808-3.011-5.062-4.853-8.573-4.853-3.512 0-6.766 1.842-8.573 4.853l-17.48 29.114c-5.712 9.512-5.859 20.956-.394 30.612 5.464 9.656 15.351 15.421 26.447 15.421zm-8.908-35.738 8.907-14.835 8.908 14.835c2.815 4.688 1.032 8.881.135 10.466s-3.574 5.272-9.043 5.272c-5.468 0-8.145-3.688-9.042-5.272-.897-1.585-2.679-5.779.135-10.466z"/></g></svg>