<?xml version="1.0" encoding="utf-8"?>
<!-- Generator: Adobe Illustrator 16.0.0, SVG Export Plug-In . SVG Version: 6.00 Build 0)  -->
<!DOCTYPE svg PUBLIC "-//W3C//DTD SVG 1.1//EN" "http://www.w3.org/Graphics/SVG/1.1/DTD/svg11.dtd">
<svg version="1.1" id="Layer_1" xmlns="http://www.w3.org/2000/svg" xmlns:xlink="http://www.w3.org/1999/xlink" x="0px" y="0px"
	 width="125px" height="100px" viewBox="47.5 80 125 100" enable-background="new 47.5 80 125 100" xml:space="preserve">
<g>
	<path fill="none" stroke="#000000" stroke-width="2" stroke-linecap="round" stroke-linejoin="round" stroke-miterlimit="10" d="
		M124.979,131.855c-1.677,0-3.293,0.234-4.845,0.635c-2.204-9.86-10.993-17.231-21.516-17.231c-10.887,0-19.908,7.892-21.713,18.261
		c-2.396-1.063-5.044-1.666-7.835-1.666c-10.695,0-19.365,8.669-19.365,19.364s8.669,19.365,19.365,19.365
		c8.871,0,47.528,0,55.909,0c10.695,0,19.364-8.67,19.364-19.365C144.347,140.527,135.675,131.855,124.979,131.855z"/>
	<path fill="none" stroke="#000000" stroke-width="2" stroke-linecap="round" stroke-linejoin="round" stroke-miterlimit="10" d="
		M150.929,144.742c10.695,0,19.365-8.669,19.365-19.364s-8.67-19.365-19.365-19.365c-1.676,0-3.292,0.235-4.844,0.634
		c-2.205-9.859-10.992-17.23-21.516-17.23c-10.887,0-19.908,7.892-21.713,18.26c-2.396-1.063-5.044-1.666-7.835-1.666
		c-7.357,0-13.755,4.102-17.033,10.144"/>
</g>
</svg>
