<?xml version="1.0" encoding="utf-8"?>
<!-- Generator: Adobe Illustrator 16.0.0, SVG Export Plug-In . SVG Version: 6.00 Build 0)  -->
<!DOCTYPE svg PUBLIC "-//W3C//DTD SVG 1.1//EN" "http://www.w3.org/Graphics/SVG/1.1/DTD/svg11.dtd">
<svg version="1.1" id="Layer_1" xmlns="http://www.w3.org/2000/svg" xmlns:xlink="http://www.w3.org/1999/xlink" x="0px" y="0px"
	 width="100px" height="100px" viewBox="60 80 100 100" enable-background="new 60 80 100 100" xml:space="preserve">
<g>
	<path fill="none" stroke="#000000" stroke-width="2" stroke-linecap="round" stroke-linejoin="round" stroke-miterlimit="10" d="
		M137.955,101.606c-1.678,0-3.293,0.235-4.846,0.635c-2.203-9.859-10.992-17.231-21.516-17.231
		c-10.886,0-19.907,7.892-21.712,18.261c-2.396-1.063-5.044-1.666-7.835-1.666c-10.695,0-19.365,8.669-19.365,19.365
		c0,10.695,8.669,19.364,19.365,19.364c8.871,0,47.528,0,55.909,0c10.695,0,19.363-8.669,19.363-19.364
		C157.318,110.273,148.65,101.606,137.955,101.606z"/>
	
		<line fill="none" stroke="#000000" stroke-width="2" stroke-linecap="round" stroke-linejoin="round" stroke-miterlimit="10" x1="92.413" y1="140.338" x2="92.413" y2="151.66"/>
	
		<line fill="none" stroke="#000000" stroke-width="2" stroke-linecap="round" stroke-linejoin="round" stroke-miterlimit="10" x1="92.413" y1="161.54" x2="92.413" y2="169.6"/>
	
		<line fill="none" stroke="#000000" stroke-width="2" stroke-linecap="round" stroke-linejoin="round" stroke-miterlimit="10" x1="110.001" y1="150.62" x2="110.001" y2="162.84"/>
	
		<line fill="none" stroke="#000000" stroke-width="2" stroke-linecap="round" stroke-linejoin="round" stroke-miterlimit="10" x1="110.001" y1="172.46" x2="110.001" y2="180"/>
	
		<line fill="none" stroke="#000000" stroke-width="2" stroke-linecap="round" stroke-linejoin="round" stroke-miterlimit="10" x1="127.252" y1="174.54" x2="127.252" y2="165.57"/>
	
		<line fill="none" stroke="#000000" stroke-width="2" stroke-linecap="round" stroke-linejoin="round" stroke-miterlimit="10" x1="127.252" y1="148.02" x2="127.252" y2="140.338"/>
</g>
</svg>
