<?xml version="1.0" encoding="utf-8"?>
<!-- Generator: Adobe Illustrator 16.0.0, SVG Export Plug-In . SVG Version: 6.00 Build 0)  -->
<!DOCTYPE svg PUBLIC "-//W3C//DTD SVG 1.1//EN" "http://www.w3.org/Graphics/SVG/1.1/DTD/svg11.dtd">
<svg version="1.1" id="Layer_1" xmlns="http://www.w3.org/2000/svg" xmlns:xlink="http://www.w3.org/1999/xlink" x="0px" y="0px"
	 width="115px" height="115px" viewBox="52.5 72.5 115 115" enable-background="new 52.5 72.5 115 115" xml:space="preserve">
<g>
	<path fill="none" stroke="#000000" stroke-width="2" stroke-linecap="round" stroke-linejoin="round" stroke-miterlimit="10" d="
		M113.457,95.369c3.553-4.232,8.884-6.922,14.841-6.922c10.698,0,19.369,8.671,19.369,19.368c0,2.676-0.543,5.224-1.522,7.54"/>
	
		<line fill="none" stroke="#000000" stroke-width="2" stroke-linecap="round" stroke-linejoin="round" stroke-miterlimit="10" x1="112.566" y1="86.531" x2="106.327" y2="79.615"/>
	
		<line fill="none" stroke="#000000" stroke-width="2" stroke-linecap="round" stroke-linejoin="round" stroke-miterlimit="10" x1="133.307" y1="80.506" x2="133.307" y2="72.5"/>
	
		<line fill="none" stroke="#000000" stroke-width="2" stroke-linecap="round" stroke-linejoin="round" stroke-miterlimit="10" x1="150.369" y1="90.8" x2="157.123" y2="84.046"/>
	
		<line fill="none" stroke="#000000" stroke-width="2" stroke-linecap="round" stroke-linejoin="round" stroke-miterlimit="10" x1="154.438" y1="106.2" x2="165.109" y2="106.2"/>
	<path fill="none" stroke="#000000" stroke-width="2" stroke-linecap="round" stroke-linejoin="round" stroke-miterlimit="10" d="
		M130.164,115.718c-1.677,0-3.293,0.235-4.845,0.635c-2.204-9.859-10.993-17.231-21.515-17.231
		c-10.887,0-19.908,7.892-21.713,18.261c-2.396-1.063-5.044-1.666-7.835-1.666c-10.695,0-19.365,8.669-19.365,19.364
		c0,10.696,8.669,19.365,19.365,19.365c8.872,0,47.528,0,55.909,0c10.695,0,19.365-8.669,19.365-19.365
		C149.529,124.385,140.859,115.718,130.164,115.718z"/>
	
		<line fill="none" stroke="#000000" stroke-width="2" stroke-linecap="round" stroke-linejoin="round" stroke-miterlimit="10" x1="84.622" y1="154.449" x2="84.622" y2="165.771"/>
	
		<line fill="none" stroke="#000000" stroke-width="2" stroke-linecap="round" stroke-linejoin="round" stroke-miterlimit="10" x1="84.622" y1="175.65" x2="84.622" y2="183.711"/>
	
		<line fill="none" stroke="#000000" stroke-width="2" stroke-linecap="round" stroke-linejoin="round" stroke-miterlimit="10" x1="102.211" y1="164.73" x2="102.211" y2="176.951"/>
	
		<line fill="none" stroke="#000000" stroke-width="2" stroke-linecap="round" stroke-linejoin="round" stroke-miterlimit="10" x1="102.211" y1="186.57" x2="102.211" y2="194.111"/>
	
		<line fill="none" stroke="#000000" stroke-width="2" stroke-linecap="round" stroke-linejoin="round" stroke-miterlimit="10" x1="119.463" y1="188.65" x2="119.463" y2="179.682"/>
	
		<line fill="none" stroke="#000000" stroke-width="2" stroke-linecap="round" stroke-linejoin="round" stroke-miterlimit="10" x1="119.463" y1="162.131" x2="119.463" y2="154.449"/>
</g>
</svg>
