<svg xmlns="http://www.w3.org/2000/svg" viewBox="0 0 64 64">
    <title>weather-icons</title>
    <path
        d="M 48.7 30.2 C 44.3 30.2 40 28.5 36.9 25.4 C 33.7 22.3 31.9 18 31.9 13.6 C 31.9 12.2 32.1 10.8 32.5 9.4 C 24.2 10.4 17.9 17.4 17.8 25.8 C 17.8 34.1 24 41.2 32.3 42.3 C 40.6 43.4 48.4 38.2 50.5 30.1 C 49.9 30.2 49.3 30.2 48.7 30.2 Z"
        fill="#ffec8d" stroke="#ffec8d" stroke-linecap="round" stroke-linejoin="round" stroke-width="3" />
    <path
        d="M 46.5 31.5 l -0.3 0 a 10.5 10.5 0 0 0 -19.1 -8 a 7 7 0 0 0 -10.6 6 a 7.2 7.2 0 0 0 0.1 1.1 A 7.5 7.5 0 0 0 18 45.5 a 4.2 4.2 0 0 0 0.5 0 v 0 h 28 a 7 7 0 0 0 0 -14 Z"
        fill="#efefef" stroke="#efefef" stroke-miterlimit="10" stroke-width="3" />
    <polygon points="30,36 26,48 30,48 28,58 38,44 32,44 36,36 30,36" fill="#f4a71d" />
</svg>