<?xml version="1.0" encoding="utf-8"?>
<!-- Generator: Adobe Illustrator 24.0.0, SVG Export Plug-In . SVG Version: 6.00 Build 0)  -->
<svg version="1.1" id="Layer_1" focusable="false" xmlns="http://www.w3.org/2000/svg" xmlns:xlink="http://www.w3.org/1999/xlink"
	 x="0px" y="0px" viewBox="0 0 512 512" style="enable-background:new 0 0 512 512;" xml:space="preserve">
<style type="text/css">
	.st0{fill:#FFFFFF;}
</style>
<path class="st0" d="M478.2,334.1L336,256l142.2-78.1c11.8-6.5,16-21.4,9.2-33L468,111.1c-6.7-11.7-21.7-15.5-33.2-8.5L296,186.7
	l3.5-162.2c0.3-13.5-10.5-24.5-24-24.5h-39c-13.5,0-24.3,11.1-24,24.5l3.5,162.2L77.3,102.6c-11.5-7-26.5-3.1-33.2,8.5l-19.5,33.7
	c-6.7,11.7-2.6,26.6,9.2,33L176,256L33.8,334.1c-11.8,6.5-16,21.4-9.2,33L44,400.9c6.7,11.7,21.7,15.5,33.2,8.5L216,325.3
	l-3.5,162.2c-0.3,13.5,10.5,24.5,24,24.5h39c13.5,0,24.3-11.1,24-24.5L296,325.3l138.7,84.1c11.5,7,26.5,3.1,33.2-8.5l19.5-33.7
	C494.2,355.5,490,340.6,478.2,334.1z"/>
</svg>
