<?xml version="1.0" encoding="UTF-8" standalone="no"?>
<svg
   xmlns:dc="http://purl.org/dc/elements/1.1/"
   xmlns:cc="http://creativecommons.org/ns#"
   xmlns:rdf="http://www.w3.org/1999/02/22-rdf-syntax-ns#"
   xmlns:svg="http://www.w3.org/2000/svg"
   xmlns="http://www.w3.org/2000/svg"
   xmlns:sodipodi="http://sodipodi.sourceforge.net/DTD/sodipodi-0.dtd"
   xmlns:inkscape="http://www.inkscape.org/namespaces/inkscape"
   version="1.1"
   x="0px"
   y="0px"
   viewBox="0 0 100 125"
   style="enable-background:new 0 0 100 100;"
   xml:space="preserve"
   id="svg8"
   sodipodi:docname="broken-clouds.svg"
   inkscape:version="0.92.4 (5da689c313, 2019-01-14)"><metadata
     id="metadata14"><rdf:RDF><cc:Work
         rdf:about=""><dc:format>image/svg+xml</dc:format><dc:type
           rdf:resource="http://purl.org/dc/dcmitype/StillImage" /></cc:Work></rdf:RDF></metadata><defs
     id="defs12" /><sodipodi:namedview
     pagecolor="#ffffff"
     bordercolor="#666666"
     borderopacity="1"
     objecttolerance="10"
     gridtolerance="10"
     guidetolerance="10"
     inkscape:pageopacity="0"
     inkscape:pageshadow="2"
     inkscape:window-width="640"
     inkscape:window-height="480"
     id="namedview10"
     showgrid="false"
     inkscape:zoom="1.888"
     inkscape:cx="50"
     inkscape:cy="62.5"
     inkscape:window-x="0"
     inkscape:window-y="0"
     inkscape:window-maximized="0"
     inkscape:current-layer="svg8" /><path
     d="M96.9,66c0-9.6-7.8-17.5-17.5-17.5c0,0-0.1,0-0.1,0c-0.4-6.1-3.3-11.5-7.6-15.3c0,0-0.1-0.1-0.1-0.1  c-3.5-3-7.7-4.8-12.2-5.2c0,0-0.1,0-0.1,0c-0.3,0-0.6-0.1-0.9-0.1c-0.1,0-0.2,0-0.3,0c-0.3,0-0.5,0-0.8,0c-0.1,0-0.1,0-0.2,0  c-0.1,0-0.2,0-0.3,0c-0.2,0-0.3,0-0.5,0c0,0-0.1,0-0.1,0c-4.2-7-11.6-11.2-19.8-11.2c-11.9,0-21.7,8.9-22.9,20.5  C7.2,40.1,3.1,46.6,3.1,53.7c0,10.2,8.3,18.6,18.6,18.6h16.6c1.6,6.4,7.4,11.2,14.3,11.2h26.8C89.1,83.5,96.9,75.7,96.9,66z   M79.4,78.3H52.6c-5.2,0-9.5-4.3-9.5-9.5c0-4,2.4-7.4,6.1-8.8l1.6-0.6l0.1-1.7c0.3-6.9,5.9-12.4,12.9-12.4c4.9,0,9.4,2.7,11.6,7.2  l0.8,1.6l1.8-0.2c0.5-0.1,1-0.1,1.5-0.1c6.8,0,12.3,5.5,12.3,12.3C91.7,72.8,86.2,78.3,79.4,78.3z M21.7,67c-7.4,0-13.4-6-13.4-13.4  c0-5.6,3.4-10.5,8.6-12.5l1.6-0.6l0.1-1.7c0.4-9.6,8.2-17.2,17.9-17.2c5.7,0,10.8,2.6,14.2,7c-4,1.2-7.6,3.5-10.3,6.8  c-0.9,1.1-0.8,2.7,0.3,3.7c0.5,0.4,1.1,0.6,1.7,0.6c0.7,0,1.5-0.3,2-0.9c3-3.5,7.1-5.6,11.6-5.9c3.6-0.3,7.1,0.6,10.1,2.4l0,0  c0.2,0.1,0.4,0.2,0.6,0.3c0.1,0.1,0.2,0.1,0.3,0.2c0.3,0.2,0.7,0.5,1,0.8c0.1,0.1,0.2,0.2,0.3,0.3c1.7,1.4,3.2,3.2,4.2,5.3  c-2.6-1.4-5.5-2.1-8.5-2.1c-9.2,0-16.8,6.8-18,15.8C41.5,58,38.6,62.3,38,67H21.7z"
     id="path2" /></svg>