<?xml version="1.0" encoding="UTF-8" standalone="no"?>
<svg
   xmlns:dc="http://purl.org/dc/elements/1.1/"
   xmlns:cc="http://creativecommons.org/ns#"
   xmlns:rdf="http://www.w3.org/1999/02/22-rdf-syntax-ns#"
   xmlns:svg="http://www.w3.org/2000/svg"
   xmlns="http://www.w3.org/2000/svg"
   xmlns:sodipodi="http://sodipodi.sourceforge.net/DTD/sodipodi-0.dtd"
   xmlns:inkscape="http://www.inkscape.org/namespaces/inkscape"
   version="1.1"
   x="0px"
   y="0px"
   viewBox="0 0 100 125"
   style="enable-background:new 0 0 100 100;"
   xml:space="preserve"
   id="svg8"
   sodipodi:docname="clear-sky-night.svg"
   inkscape:version="0.92.4 (5da689c313, 2019-01-14)"><metadata
     id="metadata14"><rdf:RDF><cc:Work
         rdf:about=""><dc:format>image/svg+xml</dc:format><dc:type
           rdf:resource="http://purl.org/dc/dcmitype/StillImage" /></cc:Work></rdf:RDF></metadata><defs
     id="defs12" /><sodipodi:namedview
     pagecolor="#ffffff"
     bordercolor="#666666"
     borderopacity="1"
     objecttolerance="10"
     gridtolerance="10"
     guidetolerance="10"
     inkscape:pageopacity="0"
     inkscape:pageshadow="2"
     inkscape:window-width="640"
     inkscape:window-height="480"
     id="namedview10"
     showgrid="false"
     inkscape:zoom="1.888"
     inkscape:cx="50"
     inkscape:cy="62.5"
     inkscape:window-x="0"
     inkscape:window-y="0"
     inkscape:window-maximized="0"
     inkscape:current-layer="svg8" /><path
     d="M67.6,32.8c1.1-0.2,1.9-1,2.1-2.1c0.2-1.1-0.3-2.2-1.3-2.7c-3.9-2.2-8.2-3.4-12.7-3.4c-14,0-25.4,11.4-25.4,25.4  s11.4,25.4,25.4,25.4c4.5,0,8.9-1.2,12.7-3.4c0.9-0.5,1.4-1.6,1.3-2.7c-0.2-1.1-1-1.9-2.1-2.1c-8.3-1.5-14.3-8.8-14.3-17.2  S59.3,34.3,67.6,32.8z M48.1,50c0,8.4,4.6,15.9,11.6,19.8c-1.3,0.3-2.6,0.4-4,0.4c-11.1,0-20.2-9.1-20.2-20.2s9.1-20.2,20.2-20.2  c1.3,0,2.7,0.1,4,0.4C52.7,34.1,48.1,41.6,48.1,50z"
     id="path2" /></svg>