<?xml version="1.0" encoding="UTF-8" standalone="no"?>
<svg
   xmlns:dc="http://purl.org/dc/elements/1.1/"
   xmlns:cc="http://creativecommons.org/ns#"
   xmlns:rdf="http://www.w3.org/1999/02/22-rdf-syntax-ns#"
   xmlns:svg="http://www.w3.org/2000/svg"
   xmlns="http://www.w3.org/2000/svg"
   xmlns:sodipodi="http://sodipodi.sourceforge.net/DTD/sodipodi-0.dtd"
   xmlns:inkscape="http://www.inkscape.org/namespaces/inkscape"
   version="1.1"
   x="0px"
   y="0px"
   viewBox="0 0 100 125"
   style="enable-background:new 0 0 100 100;"
   xml:space="preserve"
   id="svg26"
   sodipodi:docname="clear-sky-day.svg"
   inkscape:version="0.92.4 (5da689c313, 2019-01-14)"><metadata
     id="metadata32"><rdf:RDF><cc:Work
         rdf:about=""><dc:format>image/svg+xml</dc:format><dc:type
           rdf:resource="http://purl.org/dc/dcmitype/StillImage" /></cc:Work></rdf:RDF></metadata><defs
     id="defs30" /><sodipodi:namedview
     pagecolor="#ffffff"
     bordercolor="#666666"
     borderopacity="1"
     objecttolerance="10"
     gridtolerance="10"
     guidetolerance="10"
     inkscape:pageopacity="0"
     inkscape:pageshadow="2"
     inkscape:window-width="640"
     inkscape:window-height="480"
     id="namedview28"
     showgrid="false"
     inkscape:zoom="1.888"
     inkscape:cx="50"
     inkscape:cy="62.5"
     inkscape:window-x="0"
     inkscape:window-y="0"
     inkscape:window-maximized="0"
     inkscape:current-layer="svg26" /><g
     id="g20"><path
       d="M69.4,50c0-10.7-8.7-19.4-19.4-19.4c-10.7,0-19.4,8.7-19.4,19.4S39.3,69.4,50,69.4C60.7,69.4,69.4,60.7,69.4,50z M50,64.1   c-7.8,0-14.1-6.3-14.1-14.1S42.2,35.9,50,35.9S64.1,42.2,64.1,50S57.8,64.1,50,64.1z"
       id="path2" /><path
       d="M47.4,77.2v5.3c0,1.4,1.2,2.6,2.6,2.6c1.4,0,2.6-1.2,2.6-2.6v-5.3c0-1.4-1.2-2.6-2.6-2.6C48.6,74.6,47.4,75.7,47.4,77.2z"
       id="path4" /><path
       d="M47.4,17.5v5.3c0,1.4,1.2,2.6,2.6,2.6c1.4,0,2.6-1.2,2.6-2.6v-5.3c0-1.4-1.2-2.6-2.6-2.6C48.6,14.9,47.4,16.1,47.4,17.5z"
       id="path6" /><path
       d="M17.5,47.4c-1.4,0-2.6,1.2-2.6,2.6s1.2,2.6,2.6,2.6h5.3c1.4,0,2.6-1.2,2.6-2.6s-1.2-2.6-2.6-2.6H17.5z"
       id="path8" /><path
       d="M82.5,52.6c1.4,0,2.6-1.2,2.6-2.6s-1.2-2.6-2.6-2.6h-5.3c-1.4,0-2.6,1.2-2.6,2.6s1.2,2.6,2.6,2.6H82.5z"
       id="path10" /><path
       d="M71.1,74.8c0.5,0.5,1.2,0.8,1.8,0.8s1.3-0.3,1.8-0.8c1-1,1-2.7,0-3.7l-3.7-3.7c-1-1-2.7-1-3.7,0c-1,1-1,2.7,0,3.7   L71.1,74.8z"
       id="path12" /><path
       d="M25.2,28.9l3.7,3.7c0.5,0.5,1.2,0.8,1.8,0.8c0.7,0,1.3-0.3,1.8-0.8c1-1,1-2.7,0-3.7l-3.7-3.7c-1-1-2.7-1-3.7,0   C24.2,26.2,24.2,27.9,25.2,28.9z"
       id="path14" /><path
       d="M27,75.6c0.7,0,1.3-0.3,1.8-0.8l3.7-3.7c1-1,1-2.7,0-3.7c-1-1-2.7-1-3.7,0l-3.7,3.7c-1,1-1,2.7,0,3.7   C25.7,75.3,26.4,75.6,27,75.6z"
       id="path16" /><path
       d="M67.4,28.9c-1,1-1,2.7,0,3.7c0.5,0.5,1.2,0.8,1.8,0.8s1.3-0.3,1.8-0.8l3.7-3.7c1-1,1-2.7,0-3.7c-1-1-2.7-1-3.7,0L67.4,28.9   z"
       id="path18" /></g></svg>