<?xml version="1.0" encoding="utf-8"?>
<!-- Generator: Adobe Illustrator 24.3.0, SVG Export Plug-In . SVG Version: 6.00 Build 0)  -->
<svg version="1.1" id="Layer_1" xmlns="http://www.w3.org/2000/svg" xmlns:xlink="http://www.w3.org/1999/xlink" x="0px" y="0px"
	 viewBox="0 0 375 26" style="enable-background:new 0 0 375 26;" xml:space="preserve">
<style type="text/css">
	.st0{fill:#FFFFFF;}
</style>
<g id="Layer_1_copy">
	<g>
		<path class="st0" d="M53,166c-24.7,0-46.6-11.9-60.3-30.3c-33-3.4-58.7-31.3-58.7-65.2C-66,34.3-36.7,5-0.5,5
			C13.9,5,27.2,9.6,38,17.5c4.8-1,9.9-1.5,15-1.5c11,0,21.5,2.4,30.9,6.7c8.3-5.5,18.3-8.7,29.1-8.7c10.9,0,21,3.3,29.5,8.9
			c5.4-3.7,12-5.9,19-5.9c7.6,0,14.6,2.5,20.2,6.8c12-7.5,26.1-11.8,41.3-11.8c15.7,0,30.3,4.6,42.5,12.6
			C276.8,17.9,289.9,14,304,14c10.3,0,20.1,2.1,29,5.8C344.3,10.6,358.8,5,374.5,5C410.7,5,440,34.3,440,70.5S410.7,136,374.5,136
			c-3.8,0-7.6-0.3-11.3-1c-13.7,17.6-35.1,29-59.2,29c-13.4,0-26-3.5-36.9-9.7C254.6,163,239.4,168,223,168c-37,0-68-25.8-76-60.3
			c-6.9,5.8-15.3,9.8-24.5,11.5C111.4,146.6,84.5,166,53,166z"/>
	</g>
</g>
</svg>
