<?xml version="1.0" encoding="utf-8"?>
<!-- Generator: Adobe Illustrator 24.0.0, SVG Export Plug-In . SVG Version: 6.00 Build 0)  -->
<svg version="1.1" id="Layer_1" focusable="false" xmlns="http://www.w3.org/2000/svg" xmlns:xlink="http://www.w3.org/1999/xlink"
	 x="0px" y="0px" viewBox="0 0 512 512" style="enable-background:new 0 0 512 512;" xml:space="preserve">
<style type="text/css">
	.st0{fill:#FFFFFF;}
</style>
<path class="st0" d="M416,128c-0.6,0-1.1,0.2-1.6,0.2c1.1-5.2,1.6-10.6,1.6-16.2c0-44.2-35.8-80-80-80c-24.6,0-46.3,11.3-61,28.8
	C256.4,24.8,219.3,0,176,0C114.1,0,64,50.1,64,112c0,7.3,0.8,14.3,2.1,21.2C27.8,145.8,0,181.5,0,224c0,53,43,96,96,96h320
	c53,0,96-43,96-96S469,128,416,128z M88,374.2c-12.8,44.4-40,56.4-40,87.7c0,27.7,21.5,50.1,48,50.1s48-22.4,48-50.1
	c0-31.4-27.2-43.1-40-87.7C101.8,366.1,90.5,365.7,88,374.2z M248,374.2c-12.8,44.4-40,56.4-40,87.7c0,27.7,21.5,50.1,48,50.1
	s48-22.4,48-50.1c0-31.4-27.2-43.1-40-87.7C261.8,366.1,250.5,365.7,248,374.2z M408,374.2c-12.8,44.4-40,56.4-40,87.7
	c0,27.7,21.5,50.1,48,50.1s48-22.4,48-50.1c0-31.4-27.2-43.1-40-87.7C421.8,366.1,410.5,365.7,408,374.2z"/>
</svg>
