<svg xmlns="http://www.w3.org/2000/svg" xmlns:xlink="http://www.w3.org/1999/xlink" version="1.1" x="0px" y="0px" viewBox="0 0 100 125" style="enable-background:new 0 0 100 100;" xml:space="preserve"><g><path d="M82.55,33.54h-4.02c-0.9-5.25-5.41-9.1-10.83-9.1c-2.36,0-4.66,0.78-6.54,2.17C59.54,16.58,50.8,8.99,40.46,8.99   c-11.58,0-21,9.42-21,21c0,1.16,0.11,2.35,0.32,3.55h-1.75c-4.82,0-8.73,3.92-8.73,8.73S13.2,51,18.02,51h64.54   c4.81,0,8.73-3.92,8.73-8.73S87.37,33.54,82.55,33.54z M82.55,49H18.02c-3.71,0-6.73-3.02-6.73-6.73c0-3.71,3.02-6.73,6.73-6.73H21   c0.31,0,0.59-0.14,0.78-0.38s0.26-0.55,0.19-0.85c-0.34-1.46-0.51-2.91-0.51-4.32c0-10.48,8.52-19,19-19   c9.96,0,18.27,7.78,18.93,17.72c0.03,0.4,0.29,0.74,0.66,0.88c0.38,0.13,0.8,0.03,1.07-0.26c1.73-1.86,4.07-2.88,6.59-2.88   c4.69,0,8.54,3.52,8.96,8.19c0.05,0.52,0.48,0.91,1,0.91h4.89c3.71,0,6.73,3.02,6.73,6.73C89.29,45.98,86.27,49,82.55,49z"/><path d="M18.85,58.11c-0.53-0.14-1.08,0.17-1.22,0.71l-1.72,6.43c-0.14,0.53,0.17,1.08,0.71,1.22c0.09,0.02,0.17,0.03,0.26,0.03   c0.44,0,0.85-0.29,0.96-0.74l1.72-6.43C19.7,58.8,19.38,58.25,18.85,58.11z"/><path d="M37.07,58.11c-0.53-0.14-1.08,0.17-1.22,0.71l-1.72,6.43c-0.14,0.53,0.17,1.08,0.71,1.22c0.09,0.02,0.17,0.03,0.26,0.03   c0.44,0,0.85-0.29,0.96-0.74l1.72-6.43C37.92,58.8,37.6,58.25,37.07,58.11z"/><path d="M55.28,58.11c-0.53-0.14-1.08,0.17-1.22,0.71l-1.72,6.43c-0.14,0.53,0.17,1.08,0.71,1.22c0.09,0.02,0.17,0.03,0.26,0.03   c0.44,0,0.85-0.29,0.96-0.74l1.72-6.43C56.13,58.8,55.81,58.25,55.28,58.11z"/><path d="M73.49,58.11c-0.53-0.14-1.08,0.17-1.22,0.71l-1.72,6.43c-0.14,0.53,0.17,1.08,0.71,1.22c0.09,0.02,0.17,0.03,0.26,0.03   c0.44,0,0.85-0.29,0.96-0.74l1.72-6.43C74.34,58.8,74.03,58.25,73.49,58.11z"/><path d="M24.67,70.39c-0.53-0.14-1.08,0.17-1.22,0.71l-1.72,6.43c-0.14,0.53,0.17,1.08,0.71,1.22c0.09,0.02,0.17,0.03,0.26,0.03   c0.44,0,0.84-0.29,0.96-0.74l1.72-6.43C25.52,71.08,25.2,70.53,24.67,70.39z"/><path d="M42.88,70.39c-0.53-0.14-1.08,0.17-1.22,0.71l-1.72,6.43c-0.14,0.53,0.17,1.08,0.71,1.22c0.09,0.02,0.17,0.03,0.26,0.03   c0.44,0,0.84-0.29,0.96-0.74l1.72-6.43C43.73,71.08,43.41,70.53,42.88,70.39z"/><path d="M61.09,70.39c-0.53-0.14-1.08,0.17-1.22,0.71l-1.72,6.43c-0.14,0.53,0.17,1.08,0.71,1.22c0.09,0.02,0.17,0.03,0.26,0.03   c0.44,0,0.84-0.29,0.96-0.74l1.72-6.43C61.94,71.08,61.63,70.53,61.09,70.39z"/><path d="M79.31,70.39c-0.53-0.14-1.08,0.17-1.22,0.71l-1.72,6.43c-0.14,0.53,0.17,1.08,0.71,1.22c0.09,0.02,0.17,0.03,0.26,0.03   c0.44,0,0.84-0.29,0.96-0.74l1.72-6.43C80.16,71.08,79.84,70.53,79.31,70.39z"/><path d="M12.27,82.68c-0.53-0.14-1.08,0.17-1.22,0.71l-1.72,6.43c-0.14,0.53,0.17,1.08,0.71,1.22c0.09,0.02,0.17,0.03,0.26,0.03   c0.44,0,0.84-0.29,0.96-0.74l1.72-6.43C13.12,83.37,12.8,82.82,12.27,82.68z"/><path d="M30.48,82.68c-0.53-0.14-1.08,0.17-1.22,0.71l-1.72,6.43c-0.14,0.53,0.17,1.08,0.71,1.22c0.09,0.02,0.17,0.03,0.26,0.03   c0.44,0,0.84-0.29,0.96-0.74l1.72-6.43C31.33,83.37,31.01,82.82,30.48,82.68z"/><path d="M48.7,82.68c-0.53-0.14-1.08,0.17-1.22,0.71l-1.72,6.43c-0.14,0.53,0.17,1.08,0.71,1.22c0.09,0.02,0.17,0.03,0.26,0.03   c0.44,0,0.84-0.29,0.96-0.74l1.72-6.43C49.54,83.37,49.23,82.82,48.7,82.68z"/><path d="M66.91,82.68c-0.53-0.14-1.08,0.17-1.22,0.71l-1.72,6.43c-0.14,0.53,0.17,1.08,0.71,1.22c0.09,0.02,0.17,0.03,0.26,0.03   c0.44,0,0.84-0.29,0.96-0.74l1.72-6.43C67.76,83.37,67.44,82.82,66.91,82.68z"/></g><text x="0" y="115" fill="#000000" font-size="5px" font-weight="bold" font-family="'Helvetica Neue', Helvetica, Arial-Unicode, Arial, Sans-serif">Created by Hai Studio</text><text x="0" y="120" fill="#000000" font-size="5px" font-weight="bold" font-family="'Helvetica Neue', Helvetica, Arial-Unicode, Arial, Sans-serif">from the Noun Project</text></svg>