<?xml version="1.0" encoding="UTF-8" standalone="no"?>
<svg
   xmlns:dc="http://purl.org/dc/elements/1.1/"
   xmlns:cc="http://creativecommons.org/ns#"
   xmlns:rdf="http://www.w3.org/1999/02/22-rdf-syntax-ns#"
   xmlns:svg="http://www.w3.org/2000/svg"
   xmlns="http://www.w3.org/2000/svg"
   xmlns:sodipodi="http://sodipodi.sourceforge.net/DTD/sodipodi-0.dtd"
   xmlns:inkscape="http://www.inkscape.org/namespaces/inkscape"
   version="1.1"
   x="0px"
   y="0px"
   viewBox="0 0 100 125"
   style="enable-background:new 0 0 100 100;"
   xml:space="preserve"
   id="svg10"
   sodipodi:docname="few-clouds-night.svg"
   inkscape:version="0.92.4 (5da689c313, 2019-01-14)"><metadata
     id="metadata16"><rdf:RDF><cc:Work
         rdf:about=""><dc:format>image/svg+xml</dc:format><dc:type
           rdf:resource="http://purl.org/dc/dcmitype/StillImage" /></cc:Work></rdf:RDF></metadata><defs
     id="defs14" /><sodipodi:namedview
     pagecolor="#ffffff"
     bordercolor="#666666"
     borderopacity="1"
     objecttolerance="10"
     gridtolerance="10"
     guidetolerance="10"
     inkscape:pageopacity="0"
     inkscape:pageshadow="2"
     inkscape:window-width="640"
     inkscape:window-height="480"
     id="namedview12"
     showgrid="false"
     inkscape:zoom="1.888"
     inkscape:cx="50"
     inkscape:cy="62.5"
     inkscape:window-x="0"
     inkscape:window-y="0"
     inkscape:window-maximized="0"
     inkscape:current-layer="svg10" /><g
     id="g4"><path
       d="M79.5,61.7c1.5,0.3,3.1,0.5,4.8,0.5c3.9,0,7.8-1,11.2-3c0.9-0.5,1.4-1.6,1.3-2.7c-0.2-1.1-1-1.9-2.1-2.1   c-7-1.3-12.1-7.4-12.1-14.5s5.1-13.3,12.1-14.5c1.1-0.2,1.9-1,2.1-2.1c0.2-1.1-0.3-2.2-1.3-2.7c-3.4-2-7.3-3-11.2-3   c-11.9,0-21.7,9.3-22.3,21.1c-0.4-0.1-0.8-0.2-1.2-0.2c0,0-0.1,0-0.1,0c-0.3,0-0.6-0.1-1-0.1c-0.1,0-0.2,0-0.2,0   c-0.3,0-0.6,0-0.8-0.1c-0.1,0-0.2,0-0.3,0c-0.2,0-0.5,0-0.7,0c-0.1,0-0.1,0-0.2,0c-0.1,0-0.2,0-0.3,0c-0.2,0-0.3,0-0.5,0   c0,0-0.1,0-0.1,0c-4.2-7-11.6-11.2-19.8-11.2c-11.9,0-21.7,8.9-22.9,20.5C7.3,50.4,3.2,56.9,3.2,64c0,10.2,8.3,18.6,18.6,18.6h35.5   C69.1,82.6,78.8,73.3,79.5,61.7z M57.3,77.3H21.8c-7.4,0-13.4-6-13.4-13.4c0-5.6,3.4-10.5,8.6-12.5l1.6-0.6l0.1-1.7   C19.1,39.6,26.9,32,36.6,32c5.7,0,10.8,2.6,14.2,7c-4,1.2-7.6,3.5-10.3,6.8c-0.9,1.1-0.8,2.7,0.3,3.7c0.5,0.4,1.1,0.6,1.7,0.6   c0.7,0,1.5-0.3,2-0.9c3-3.5,7.1-5.6,11.6-5.9c3.6-0.3,7.1,0.6,10.1,2.4l0,0c0.2,0.1,0.4,0.2,0.6,0.4c0.1,0,0.2,0.1,0.2,0.1   c0.4,0.2,0.7,0.5,1,0.8c0.1,0.1,0.2,0.1,0.3,0.2c3.8,3.1,6.2,7.8,6.2,13.1C74.3,69.7,66.7,77.3,57.3,77.3z M67.1,39.8   c0-9.5,7.7-17.2,17.2-17.2c0.8,0,1.6,0.1,2.5,0.2c-5.7,3.6-9.4,9.9-9.4,17s3.7,13.4,9.4,17c-0.8,0.1-1.6,0.2-2.5,0.2   c-1.8,0-3.5-0.3-5.1-0.8c-0.9-5-3.6-9.4-7.3-12.7c0,0-0.1-0.1-0.1-0.1c-1.4-1.2-3-2.3-4.6-3.1C67.1,40.2,67.1,40,67.1,39.8z"
       id="path2" /></g></svg>