<?xml version="1.0" encoding="UTF-8" standalone="no"?>
<svg
   xmlns:dc="http://purl.org/dc/elements/1.1/"
   xmlns:cc="http://creativecommons.org/ns#"
   xmlns:rdf="http://www.w3.org/1999/02/22-rdf-syntax-ns#"
   xmlns:svg="http://www.w3.org/2000/svg"
   xmlns="http://www.w3.org/2000/svg"
   xmlns:sodipodi="http://sodipodi.sourceforge.net/DTD/sodipodi-0.dtd"
   xmlns:inkscape="http://www.inkscape.org/namespaces/inkscape"
   version="1.1"
   x="0px"
   y="0px"
   viewBox="0 0 100 125"
   style="enable-background:new 0 0 100 100;"
   xml:space="preserve"
   id="svg20"
   sodipodi:docname="few-clouds-day.svg"
   inkscape:version="0.92.4 (5da689c313, 2019-01-14)"><metadata
     id="metadata26"><rdf:RDF><cc:Work
         rdf:about=""><dc:format>image/svg+xml</dc:format><dc:type
           rdf:resource="http://purl.org/dc/dcmitype/StillImage" /></cc:Work></rdf:RDF></metadata><defs
     id="defs24" /><sodipodi:namedview
     pagecolor="#ffffff"
     bordercolor="#666666"
     borderopacity="1"
     objecttolerance="10"
     gridtolerance="10"
     guidetolerance="10"
     inkscape:pageopacity="0"
     inkscape:pageshadow="2"
     inkscape:window-width="640"
     inkscape:window-height="480"
     id="namedview22"
     showgrid="false"
     inkscape:zoom="1.888"
     inkscape:cx="50"
     inkscape:cy="62.5"
     inkscape:window-x="0"
     inkscape:window-y="0"
     inkscape:window-maximized="0"
     inkscape:current-layer="svg20" /><g
     id="g14"><path
       d="M32.5,22.1c1.4,0,2.6-1.2,2.6-2.6v-4.4c0-1.4-1.2-2.6-2.6-2.6s-2.6,1.2-2.6,2.6v4.4C29.9,20.9,31.1,22.1,32.5,22.1z"
       id="path2" /><path
       d="M9.9,44.7c1.4,0,2.6-1.2,2.6-2.6s-1.2-2.6-2.6-2.6H5.5c-1.4,0-2.6,1.2-2.6,2.6s1.2,2.6,2.6,2.6H9.9z"
       id="path4" /><path
       d="M18.4,27.9c1-1,1-2.7,0-3.7l-3.1-3.1c-1-1-2.7-1-3.7,0c-1,1-1,2.7,0,3.7l3.1,3.1c0.5,0.5,1.2,0.8,1.8,0.8   S17.8,28.4,18.4,27.9z"
       id="path6" /><path
       d="M14.7,56.2l-3.1,3.1c-1,1-1,2.7,0,3.7c0.5,0.5,1.2,0.8,1.8,0.8c0.7,0,1.3-0.3,1.8-0.8l3.1-3.1c1-1,1-2.7,0-3.7   C17.3,55.2,15.7,55.2,14.7,56.2z"
       id="path8" /><path
       d="M48.5,28.7c0.7,0,1.3-0.3,1.8-0.8l3.1-3.1c1-1,1-2.7,0-3.7c-1-1-2.7-1-3.7,0l-3.1,3.1c-1,1-1,2.7,0,3.7   C47.2,28.4,47.8,28.7,48.5,28.7z"
       id="path10" /><path
       d="M89.5,48.5c0,0-0.1-0.1-0.1-0.1c-1.8-1.5-3.7-2.7-5.8-3.6c-0.1,0-0.1-0.1-0.2-0.1c-0.2-0.1-0.5-0.2-0.8-0.3   c-0.2-0.1-0.4-0.1-0.6-0.2c-0.1,0-0.2-0.1-0.4-0.1c-0.3-0.1-0.6-0.2-1-0.3c0,0,0,0,0,0c-1.8-0.5-3.8-0.8-5.7-0.8   c-0.3,0-0.6,0-0.9,0c-4.2-7-11.6-11.3-19.8-11.3c-2.7,0-5.3,0.5-7.7,1.3c-3-4.6-8.1-7.6-13.9-7.6C23.4,25.5,16,33,16,42.1   c0,6.5,3.8,12.2,9.3,14.9c-2.8,3.3-4.5,7.6-4.5,12c0,10.2,8.3,18.6,18.6,18.6h35.5c12.3,0,22.3-10,22.3-22.3   C97.1,58.6,94.1,52.6,89.5,48.5z M39.4,82.3C32,82.3,26,76.3,26,69c0-5.5,3.4-10.5,8.6-12.5l1.6-0.6l0.1-1.7   C36.6,44.5,44.5,37,54.1,37c5.7,0,10.8,2.6,14.2,7c-3.9,1.2-7.5,3.5-10.4,6.8c-0.9,1.1-0.8,2.7,0.3,3.7c0.5,0.4,1.1,0.6,1.7,0.6   c0.7,0,1.5-0.3,2-0.9c5.5-6.4,14.7-7.7,21.7-3.5l0,0c0.2,0.1,0.3,0.2,0.5,0.3c0.1,0.1,0.2,0.1,0.3,0.2c0.3,0.2,0.6,0.5,1,0.7   c0.1,0.1,0.3,0.2,0.4,0.3c3.8,3.1,6.2,7.8,6.2,13.1c0,9.4-7.6,17-17,17H39.4z M21.2,42.1c0-6.2,5.1-11.3,11.3-11.3   c3.8,0,7.1,1.8,9.2,4.7C36,39.1,32,45.2,31.2,52.3c-0.5,0.2-0.9,0.5-1.4,0.8C24.9,51.9,21.2,47.4,21.2,42.1z"
       id="path12" /></g></svg>