<svg xmlns="http://www.w3.org/2000/svg" xmlns:xlink="http://www.w3.org/1999/xlink" version="1.1" x="0px" y="0px" viewBox="0 0 100 125" style="enable-background:new 0 0 100 100;" xml:space="preserve"><g><path d="M34.8,41.5H67c0.6,0,1-0.4,1-1s-0.4-1-1-1H34.8c-0.6,0-1,0.4-1,1S34.2,41.5,34.8,41.5z"/><path d="M26.2,48.6h28c0.6,0,1-0.4,1-1s-0.4-1-1-1h-28c-0.6,0-1,0.4-1,1S25.6,48.6,26.2,48.6z"/><path d="M75,46.6H62.3c-0.6,0-1,0.4-1,1s0.4,1,1,1H75c0.6,0,1-0.4,1-1S75.6,46.6,75,46.6z"/><path d="M71.4,51.9H34.8c-0.6,0-1,0.4-1,1s0.4,1,1,1h36.7c0.6,0,1-0.4,1-1S72,51.9,71.4,51.9z"/><path d="M61.4,58.5H25c-0.6,0-1,0.4-1,1s0.4,1,1,1h36.4c0.6,0,1-0.4,1-1S61.9,58.5,61.4,58.5z"/></g><text x="0" y="115" fill="#000000" font-size="5px" font-weight="bold" font-family="'Helvetica Neue', Helvetica, Arial-Unicode, Arial, Sans-serif">Created by Iulia Ardeleanu</text><text x="0" y="120" fill="#000000" font-size="5px" font-weight="bold" font-family="'Helvetica Neue', Helvetica, Arial-Unicode, Arial, Sans-serif">from the Noun Project</text></svg>