<?xml version="1.0" encoding="utf-8"?>
<!-- Generator: Adobe Illustrator 24.3.0, SVG Export Plug-In . SVG Version: 6.00 Build 0)  -->
<svg version="1.1" id="Layer_1" xmlns="http://www.w3.org/2000/svg" xmlns:xlink="http://www.w3.org/1999/xlink" x="0px" y="0px"
	 viewBox="0 0 16 16" style="enable-background:new 0 0 16 16;" xml:space="preserve">
<style type="text/css">
	.st0{fill:#FFFFFF;}
</style>
<path class="st0" d="M16,16H0V0h16V16z"/>
<path class="st0" d="M1.3,13.3h1.3c0.4,0,0.7-0.3,0.7-0.7v-6C3.3,6.3,3,6,2.7,6H1.3V13.3z M14.6,8.6c0.1-0.2,0.1-0.3,0.1-0.5V7.3
	c0-0.7-0.6-1.3-1.3-1.3H9.7l0.6-3.1c0-0.1,0-0.3-0.1-0.4c-0.2-0.3-0.3-0.6-0.6-0.8L9.3,1.3L5.1,5.6C4.8,5.9,4.7,6.2,4.7,6.6v5.2
	c0,0.9,0.7,1.6,1.6,1.6h5.4c0.5,0,0.9-0.2,1.1-0.6C12.8,12.7,14.6,8.6,14.6,8.6z"/>
</svg>
