<?xml version="1.0" encoding="utf-8"?>
<!-- Generator: Adobe Illustrator 24.3.0, SVG Export Plug-In . SVG Version: 6.00 Build 0)  -->
<svg version="1.1" id="Layer_1" xmlns="http://www.w3.org/2000/svg" xmlns:xlink="http://www.w3.org/1999/xlink" x="0px" y="0px"
	 viewBox="0 0 64 64" style="enable-background:new 0 0 64 64;" xml:space="preserve">
<style type="text/css">
	.st0{fill:#FFFFFF;}
</style>
<path class="st0" d="M32,44c-6.6,0-11.9-5.4-11.9-11.9c0-6.6,5.4-11.9,11.9-11.9c6.6,0,11.9,5.4,11.9,11.9C43.9,38.7,38.6,44,32,44
	 M32,18.5c-7.5,0-13.6,6.1-13.6,13.6S24.5,45.7,32,45.7s13.6-6.1,13.6-13.6S39.5,18.5,32,18.5 M32,14.5c0.5,0,0.8-0.4,0.8-0.8V6.9
	c0-0.5-0.4-0.8-0.8-0.8c-0.5,0-0.8,0.4-0.8,0.8v6.7C31.2,14.1,31.5,14.5,32,14.5 M32,49.5c-0.5,0-0.8,0.4-0.8,0.8V57
	c0,0.5,0.4,0.8,0.8,0.8c0.5,0,0.8-0.4,0.8-0.8v-6.7C32.8,49.9,32.5,49.5,32,49.5 M41.2,17.1c0.1,0.1,0.3,0.1,0.4,0.1
	c0.3,0,0.6-0.1,0.7-0.4l3.5-5.7c0.2-0.4,0.1-0.9-0.3-1.2c-0.4-0.2-0.9-0.1-1.2,0.3L40.9,16C40.7,16.4,40.8,16.9,41.2,17.1
	 M22.8,46.9c-0.4-0.2-0.9-0.1-1.2,0.3l-3.5,5.7c-0.2,0.4-0.1,0.9,0.3,1.2c0.1,0.1,0.3,0.1,0.4,0.1c0.3,0,0.6-0.1,0.7-0.4l3.5-5.7
	C23.3,47.6,23.2,47.1,22.8,46.9 M48.2,24.2c0.1,0,0.3,0,0.4-0.1l5.9-3.2c0.4-0.2,0.6-0.7,0.3-1.1c-0.2-0.4-0.7-0.6-1.1-0.3l-5.9,3.2
	c-0.4,0.2-0.6,0.7-0.3,1.1C47.6,24,47.9,24.2,48.2,24.2 M15.4,40l-5.9,3.2c-0.4,0.2-0.6,0.7-0.3,1.1c0.2,0.3,0.4,0.4,0.7,0.4
	c0.1,0,0.3,0,0.4-0.1l5.9-3.2c0.4-0.2,0.6-0.7,0.4-1.1C16.3,39.9,15.8,39.7,15.4,40 M57.1,31.1h-6.7c-0.5,0-0.8,0.4-0.8,0.8
	c0,0.5,0.4,0.8,0.8,0.8l0,0h6.7c0.5,0,0.8-0.4,0.8-0.8C57.9,31.5,57.5,31.1,57.1,31.1 M14.5,32.1c0-0.5-0.4-0.8-0.8-0.8H7
	c-0.5,0-0.8,0.4-0.8,0.8c0,0.5,0.4,0.8,0.8,0.8l0,0h6.7C14.1,32.9,14.5,32.5,14.5,32.1 M54.4,43.3l-5.9-3.2
	c-0.4-0.2-0.9-0.1-1.1,0.3c-0.2,0.4-0.1,0.9,0.3,1.1l5.9,3.2c0.1,0.1,0.3,0.1,0.4,0.1c0.3,0,0.6-0.2,0.7-0.4
	C55,44,54.8,43.5,54.4,43.3 M16.3,22.5l-5.9-3.2C10,19,9.5,19.2,9.2,19.6c-0.2,0.4,0,0.9,0.4,1.1l5.9,3.2c0.1,0.1,0.3,0.1,0.4,0.1
	c0.3,0,0.6-0.2,0.7-0.4C16.9,23.2,16.7,22.7,16.3,22.5 M42.5,47.1c-0.2-0.4-0.8-0.5-1.2-0.3S40.8,47.6,41,48l3.6,5.7
	c0.2,0.3,0.4,0.4,0.7,0.4c0.2,0,0.3,0,0.4-0.1c0.4-0.2,0.5-0.8,0.3-1.2L42.5,47.1z M21.6,16.9c0.2,0.3,0.4,0.4,0.7,0.4
	c0.2,0,0.3,0,0.4-0.1c0.4-0.2,0.5-0.8,0.3-1.2l-3.6-5.7c-0.2-0.4-0.8-0.5-1.2-0.3c-0.4,0.2-0.5,0.8-0.3,1.2L21.6,16.9z"/>
</svg>
