<?xml version="1.0" encoding="utf-8"?>
<!-- Generator: Adobe Illustrator 24.3.0, SVG Export Plug-In . SVG Version: 6.00 Build 0)  -->
<svg version="1.1" id="Layer_1" xmlns="http://www.w3.org/2000/svg" xmlns:xlink="http://www.w3.org/1999/xlink" x="0px" y="0px"
	 viewBox="0 0 64 64" style="enable-background:new 0 0 64 64;" xml:space="preserve">
<style type="text/css">
	.st0{fill:#FFFFFF;}
</style>
<path class="st0" d="M44.9,44.3c0.4,0.2,0.5,0.7,0.4,1.1L40,56.1c-0.1,0.3-0.4,0.4-0.7,0.4c-0.1,0-0.2,0-0.4-0.1
	c-0.4-0.2-0.6-0.7-0.4-1.1l5.3-10.7C44,44.3,44.5,44.1,44.9,44.3 M23,38.3c-3.6,0-6.5-2.9-6.5-6.5s2.9-6.5,6.5-6.5
	c0.2,0,0.5,0,0.7,0s0.5-0.1,0.6-0.2c0.2-0.2,0.3-0.4,0.2-0.6c0-0.3-0.1-0.6-0.1-0.9c0-6.5,5.3-11.7,11.7-11.7
	c5.8,0,10.7,4.2,11.6,9.9c0,0.2,0.2,0.4,0.3,0.5c0.2,0.1,0.4,0.2,0.6,0.1c0.7-0.2,1.3-0.2,1.9-0.2c4.4,0,8.1,3.6,8.1,8.1
	c0,4.4-3.6,8.1-8.1,8.1l0,0c-0.2,0-0.4,0-0.5,0H23 M22.9,23.8c-4.4,0-8,3.6-8,8.1c0,4.4,3.6,8,8,8h27.7c5.3,0,9.6-4.3,9.6-9.6
	s-4.3-9.6-9.6-9.6c-0.5,0-1,0-1.5,0.1c-1.3-6.1-6.7-10.4-13-10.4c-7.3,0-13.3,6-13.3,13.3C22.9,23.7,22.9,23.8,22.9,23.8 M13.3,15.3
	c-5.3,0-9.6,4.3-9.6,9.6c0,5,3.7,9.1,8.6,9.6h0.1c0.4,0,0.7-0.3,0.8-0.7c0-0.4-0.3-0.8-0.7-0.9c-4.1-0.4-7.2-3.9-7.2-8
	c0-4.4,3.6-8.1,8.1-8.1c0.6,0,1.3,0.1,1.9,0.2c0.2,0.1,0.4,0,0.6-0.1s0.3-0.3,0.3-0.5c0.9-5.7,5.8-9.9,11.6-9.9
	c2.4,0,4.7,0.7,6.7,2.1c0.4,0.3,0.9,0.2,1.1-0.2c0.2-0.4,0.2-0.9-0.2-1.1C33.2,5.8,30.5,5,27.8,5c-6.3,0-11.6,4.3-13,10.4
	C14.3,15.3,13.8,15.3,13.3,15.3"/>
</svg>
