<svg width="16" height="16" viewBox="0 0 16 16" fill="none" xmlns="http://www.w3.org/2000/svg">
<path d="M7.99331 1.33203C4.31331 1.33203 1.33331 4.3187 1.33331 7.9987C1.33331 11.6787 4.31331 14.6654 7.99331 14.6654C11.68 14.6654 14.6666 11.6787 14.6666 7.9987C14.6666 4.3187 11.68 1.33203 7.99331 1.33203ZM12.6133 5.33203H10.6466C10.4333 4.4987 10.1266 3.6987 9.72665 2.9587C10.9533 3.3787 11.9733 4.23203 12.6133 5.33203ZM7.99998 2.69203C8.55331 3.49203 8.98665 4.3787 9.27331 5.33203H6.72665C7.01331 4.3787 7.44665 3.49203 7.99998 2.69203ZM2.83998 9.33203C2.73331 8.90536 2.66665 8.4587 2.66665 7.9987C2.66665 7.5387 2.73331 7.09203 2.83998 6.66536H5.09331C5.03998 7.10536 4.99998 7.54536 4.99998 7.9987C4.99998 8.45203 5.03998 8.89203 5.09331 9.33203H2.83998ZM3.38665 10.6654H5.35331C5.56665 11.4987 5.87331 12.2987 6.27331 13.0387C5.04665 12.6187 4.02665 11.772 3.38665 10.6654V10.6654ZM5.35331 5.33203H3.38665C4.02665 4.22536 5.04665 3.3787 6.27331 2.9587C5.87331 3.6987 5.56665 4.4987 5.35331 5.33203V5.33203ZM7.99998 13.3054C7.44665 12.5054 7.01331 11.6187 6.72665 10.6654H9.27331C8.98665 11.6187 8.55331 12.5054 7.99998 13.3054ZM9.55998 9.33203H6.43998C6.37998 8.89203 6.33331 8.45203 6.33331 7.9987C6.33331 7.54536 6.37998 7.0987 6.43998 6.66536H9.55998C9.61998 7.0987 9.66665 7.54536 9.66665 7.9987C9.66665 8.45203 9.61998 8.89203 9.55998 9.33203ZM9.72665 13.0387C10.1266 12.2987 10.4333 11.4987 10.6466 10.6654H12.6133C11.9733 11.7654 10.9533 12.6187 9.72665 13.0387V13.0387ZM10.9066 9.33203C10.96 8.89203 11 8.45203 11 7.9987C11 7.54536 10.96 7.10536 10.9066 6.66536H13.16C13.2666 7.09203 13.3333 7.5387 13.3333 7.9987C13.3333 8.4587 13.2666 8.90536 13.16 9.33203H10.9066Z" fill="#0C60F2"/>
</svg>
