<?xml version="1.0" encoding="utf-8"?>
<!-- Generator: Adobe Illustrator 24.3.0, SVG Export Plug-In . SVG Version: 6.00 Build 0)  -->
<svg version="1.1" id="Layer_1" xmlns="http://www.w3.org/2000/svg" xmlns:xlink="http://www.w3.org/1999/xlink" x="0px" y="0px"
	 viewBox="0 0 64 64" style="enable-background:new 0 0 64 64;" xml:space="preserve">
<style type="text/css">
	.st0{fill:#FFFFFF;}
</style>
<path class="st0" d="M4.7,24.9c0,4.1,3.1,7.6,7.2,8c0.4,0,0.8,0.4,0.7,0.9c0,0.4-0.4,0.7-0.8,0.7h-0.1c-4.9-0.5-8.6-4.6-8.6-9.6
	c0-5.3,4.3-9.6,9.6-9.6c0.5,0,1,0,1.5,0.1C15.6,9.3,21,5,27.3,5c2.7,0,5.4,0.8,7.6,2.4c0.4,0.3,0.4,0.7,0.2,1.1
	c-0.3,0.4-0.7,0.4-1.1,0.2c-2-1.4-4.3-2.1-6.7-2.1c-5.8,0-10.7,4.2-11.6,9.9c0,0.2-0.2,0.4-0.3,0.5c-0.2,0.1-0.4,0.2-0.6,0.1
	c-0.7-0.2-1.3-0.2-1.9-0.2C8.3,16.9,4.7,20.5,4.7,24.9z M39.6,50.3H34l4.4-6.3c0.3-0.4,0.2-0.9-0.2-1.2S37.3,42.6,37,43l-5.4,7.6
	c-0.2,0.3-0.2,0.6-0.1,0.9c0.1,0.3,0.4,0.5,0.7,0.5H38l-4.4,6.3c-0.3,0.4-0.2,0.9,0.2,1.2c0.1,0.1,0.3,0.2,0.5,0.2
	c0.3,0,0.5-0.1,0.7-0.4l5.4-7.6c0.2-0.3,0.2-0.6,0.1-0.9S39.9,50.3,39.6,50.3z M59.9,30.3c0,5.3-4.3,9.6-9.6,9.6H22.5
	c-4.4,0-8-3.6-8-8s3.6-8,8-8.1c0-0.1,0-0.1,0-0.2c0-7.3,6-13.3,13.3-13.3c6.3,0,11.6,4.3,13,10.4c0.5-0.1,1-0.1,1.5-0.1
	C55.5,20.6,59.9,25,59.9,30.3z M58.3,30.3c0-4.4-3.6-8.1-8.1-8.1c-0.6,0-1.3,0.1-1.9,0.2c-0.2,0.1-0.4,0-0.6-0.1
	c-0.2-0.1-0.3-0.3-0.3-0.5c-0.9-5.7-5.8-9.9-11.6-9.9c-6.5,0-11.7,5.3-11.7,11.7c0,0.3,0,0.6,0.1,0.9c0,0.2-0.1,0.5-0.2,0.6
	c-0.2,0.2-0.4,0.2-0.6,0.2s-0.5,0-0.7,0c-3.6,0-6.5,2.9-6.5,6.5s2.9,6.5,6.5,6.5h27.2c0.2,0,0.4,0,0.5,0l0,0
	C54.7,38.3,58.3,34.7,58.3,30.3z"/>
</svg>
