<svg width="200" height="200" viewBox="0 0 200 200" fill="none" xmlns="http://www.w3.org/2000/svg">
<mask id="mask0" mask-type="alpha" maskUnits="userSpaceOnUse" x="17" y="14" width="71" height="89">
<path d="M53.2152 14.6571C52.8834 14.4219 52.5744 14.2029 52.2903 14C51.7448 14.4196 51.0863 14.9083 50.3349 15.466C41.0349 22.3676 17.4903 39.8402 17.4903 67.8839C17.4903 87.1034 33.0708 102.684 52.2903 102.684C71.5098 102.684 87.0903 87.1034 87.0903 67.8839C87.0903 38.6699 62.0611 20.9276 53.2152 14.6571Z" fill="#38E7FF"/>
</mask>
<g mask="url(#mask0)">
<path d="M53.2152 14.6571C52.8834 14.4219 52.5744 14.2029 52.2903 14C51.7448 14.4196 51.0863 14.9083 50.3349 15.466C41.0349 22.3676 17.4903 39.8402 17.4903 67.8839C17.4903 87.1034 33.0708 102.684 52.2903 102.684C71.5098 102.684 87.0903 87.1034 87.0903 67.8839C87.0903 38.6699 62.0611 20.9276 53.2152 14.6571Z" fill="#38E7FF"/>
<path d="M53.2152 14.6571C52.8834 14.4219 52.5744 14.2029 52.2903 14C51.7448 14.4196 51.0863 14.9083 50.3349 15.466C41.0349 22.3676 17.4903 39.8402 17.4903 67.8839C17.4903 87.1034 33.0708 102.684 52.2903 102.684C71.5098 102.684 87.0903 87.1034 87.0903 67.8839C87.0903 38.6699 62.0611 20.9276 53.2152 14.6571Z" fill="#38E7FF"/>
</g>
<mask id="mask1" mask-type="alpha" maskUnits="userSpaceOnUse" x="35" y="77" width="13" height="6">
<path d="M35.4516 77.2729C35.5998 80.3967 38.3074 82.8859 41.6258 82.8859C44.9442 82.8859 47.6518 80.3967 47.8 77.2729H35.4516Z" fill="#E15A33"/>
</mask>
<g mask="url(#mask1)">
<path d="M35.4516 77.2729C35.5998 80.3967 38.3074 82.8859 41.6258 82.8859C44.9442 82.8859 47.6518 80.3967 47.8 77.2729H35.4516Z" fill="#E15A33"/>
<ellipse cx="45.3787" cy="84.4892" rx="5.32676" ry="4.41014" fill="white"/>
</g>
<path d="M46.6774 72.3741C46.6774 70.8855 47.2688 69.4578 48.3214 68.4052C49.374 67.3526 50.8017 66.7612 52.2903 66.7612C53.779 66.7612 55.2066 67.3526 56.2592 68.4052C57.3119 69.4578 57.9032 70.8855 57.9032 72.3741L55.4628 72.3741C55.4628 71.5327 55.1285 70.7258 54.5336 70.1309C53.9386 69.5359 53.1317 69.2017 52.2903 69.2017C51.4489 69.2017 50.642 69.5359 50.0471 70.1309C49.4521 70.7258 49.1179 71.5327 49.1179 72.3741L46.6774 72.3741Z" fill="black"/>
<path d="M25.3484 72.3741C25.3484 70.8855 25.9397 69.4578 26.9924 68.4052C28.045 67.3526 29.4726 66.7612 30.9613 66.7612C32.4499 66.7612 33.8776 67.3526 34.9302 68.4052C35.9828 69.4578 36.5742 70.8855 36.5742 72.3741L34.1337 72.3741C34.1337 71.5327 33.7995 70.7258 33.2046 70.1309C32.6096 69.5359 31.8027 69.2017 30.9613 69.2017C30.1199 69.2017 29.313 69.5359 28.718 70.1309C28.1231 70.7258 27.7888 71.5327 27.7888 72.3741L25.3484 72.3741Z" fill="black"/>
<path d="M47.5724 14.6322C47.2514 14.4059 46.9523 14.1952 46.6774 14C46.1495 14.4037 45.5123 14.8738 44.785 15.4103C35.785 22.0498 13 38.8589 13 65.8376C13 84.3273 28.0779 99.3161 46.6774 99.3161C65.2769 99.3161 80.3548 84.3273 80.3548 65.8376C80.3548 37.733 56.133 20.6645 47.5724 14.6322Z" stroke="black"/>
<circle cx="39.9419" cy="42.0646" r="7.85806" fill="white"/>
<circle cx="70.2516" cy="86.9678" r="3.36774" fill="white"/>
<mask id="mask2" mask-type="alpha" maskUnits="userSpaceOnUse" x="53" y="106" width="70" height="89">
<path d="M88.7248 106.657C88.3931 106.422 88.0841 106.203 87.8 106C87.2545 106.42 86.596 106.908 85.8445 107.466C76.5446 114.368 53 131.84 53 159.884C53 179.103 68.5805 194.684 87.8 194.684C107.02 194.684 122.6 179.103 122.6 159.884C122.6 130.67 97.5707 112.928 88.7248 106.657Z" fill="#38E7FF"/>
</mask>
<g mask="url(#mask2)">
<path d="M88.7248 106.657C88.3931 106.422 88.0841 106.203 87.8 106C87.2545 106.42 86.596 106.908 85.8445 107.466C76.5446 114.368 53 131.84 53 159.884C53 179.103 68.5805 194.684 87.8 194.684C107.02 194.684 122.6 179.103 122.6 159.884C122.6 130.67 97.5707 112.928 88.7248 106.657Z" fill="#38E7FF"/>
<path d="M88.7248 106.657C88.3931 106.422 88.0841 106.203 87.8 106C87.2545 106.42 86.596 106.908 85.8445 107.466C76.5446 114.368 53 131.84 53 159.884C53 179.103 68.5805 194.684 87.8 194.684C107.02 194.684 122.6 179.103 122.6 159.884C122.6 130.67 97.5707 112.928 88.7248 106.657Z" fill="#38E7FF"/>
</g>
<path d="M77.6968 165.497C77.6968 166.986 77.1054 168.413 76.0528 169.466C75.0002 170.519 73.5725 171.11 72.0839 171.11C70.5952 171.11 69.1676 170.519 68.115 169.466C67.0623 168.413 66.471 166.986 66.471 165.497L68.9114 165.497C68.9114 166.338 69.2457 167.145 69.8406 167.74C70.4356 168.335 71.2425 168.669 72.0839 168.669C72.9253 168.669 73.7322 168.335 74.3271 167.74C74.9221 167.145 75.2563 166.338 75.2563 165.497H77.6968Z" fill="black"/>
<path d="M99.0258 165.497C99.0258 166.986 98.4344 168.413 97.3818 169.466C96.3292 170.519 94.9015 171.11 93.4129 171.11C91.9243 171.11 90.4966 170.519 89.444 169.466C88.3913 168.413 87.8 166.986 87.8 165.497L90.2404 165.497C90.2404 166.338 90.5747 167.145 91.1696 167.74C91.7646 168.335 92.5715 168.669 93.4129 168.669C94.2543 168.669 95.0612 168.335 95.6562 167.74C96.2511 167.145 96.5853 166.338 96.5853 165.497H99.0258Z" fill="black"/>
<path d="M90.9402 114.49C90.6191 114.264 90.3201 114.053 90.0452 113.858C89.5172 114.262 88.88 114.732 88.1528 115.268C79.1528 121.908 56.3677 138.717 56.3677 165.696C56.3677 184.185 71.4456 199.174 90.0452 199.174C108.645 199.174 123.723 184.185 123.723 165.696C123.723 137.591 99.5007 120.522 90.9402 114.49Z" stroke="black"/>
<circle cx="75.4516" cy="134.065" r="7.85806" fill="white"/>
<circle cx="109.129" cy="168.864" r="2.24516" fill="white"/>
<mask id="mask3" mask-type="alpha" maskUnits="userSpaceOnUse" x="81" y="180" width="23" height="10">
<rect x="81.0645" y="180.09" width="22.4516" height="8.98065" rx="4.49032" fill="#E15A33"/>
</mask>
<g mask="url(#mask3)">
<rect x="81.0645" y="180.09" width="22.4516" height="8.98065" rx="4.49032" fill="black"/>
<rect x="81.0645" y="182.336" width="25.8194" height="10.1032" rx="5.05161" fill="#E15A33"/>
<circle cx="100.148" cy="198.052" r="11.2258" fill="white"/>
</g>
<path d="M95.6581 189.071H99.0258V193C99.0258 193.93 98.2719 194.684 97.342 194.684V194.684C96.412 194.684 95.6581 193.93 95.6581 193V189.071Z" fill="#0C60F2"/>
<mask id="mask4" mask-type="alpha" maskUnits="userSpaceOnUse" x="116" y="36" width="70" height="89">
<path d="M151.725 36.6571C151.393 36.4219 151.084 36.2029 150.8 36C150.254 36.4196 149.596 36.9083 148.845 37.466C139.545 44.3676 116 61.8402 116 89.8839C116 109.103 131.58 124.684 150.8 124.684C170.02 124.684 185.6 109.103 185.6 89.8839C185.6 60.6699 160.571 42.9276 151.725 36.6571Z" fill="#38E7FF"/>
</mask>
<g mask="url(#mask4)">
<path d="M151.725 36.6571C151.393 36.4219 151.084 36.2029 150.8 36C150.254 36.4196 149.596 36.9083 148.845 37.466C139.545 44.3676 116 61.8402 116 89.8839C116 109.103 131.58 124.684 150.8 124.684C170.02 124.684 185.6 109.103 185.6 89.8839C185.6 60.6699 160.571 42.9276 151.725 36.6571Z" fill="#38E7FF"/>
<path d="M151.725 36.6571C151.393 36.4219 151.084 36.2029 150.8 36C150.254 36.4196 149.596 36.9083 148.845 37.466C139.545 44.3676 116 61.8402 116 89.8839C116 109.103 131.58 124.684 150.8 124.684C170.02 124.684 185.6 109.103 185.6 89.8839C185.6 60.6699 160.571 42.9276 151.725 36.6571Z" fill="#38E7FF"/>
</g>
<path d="M140.697 104.478C140.697 103.287 141.17 102.145 142.012 101.302C142.854 100.46 143.996 99.9873 145.187 99.9873C146.378 99.9873 147.52 100.46 148.362 101.302C149.204 102.145 149.677 103.287 149.677 104.478L148.54 104.478C148.54 103.588 148.186 102.736 147.558 102.107C146.929 101.478 146.076 101.125 145.187 101.125C144.298 101.125 143.445 101.478 142.816 102.107C142.188 102.736 141.835 103.588 141.835 104.478L140.697 104.478Z" fill="black"/>
<mask id="mask5" mask-type="alpha" maskUnits="userSpaceOnUse" x="149" y="95" width="12" height="7">
<mask id="path-29-inside-1" mask-type="luminance" fill="white">
<path d="M149.677 95.4972C149.677 96.2343 149.823 96.9642 150.105 97.6451C150.387 98.3261 150.8 98.9449 151.321 99.4661C151.843 99.9873 152.461 100.401 153.142 100.683C153.823 100.965 154.553 101.11 155.29 101.11C156.027 101.11 156.757 100.965 157.438 100.683C158.119 100.401 158.738 99.9873 159.259 99.4661C159.78 98.9449 160.194 98.3261 160.476 97.6451C160.758 96.9642 160.903 96.2343 160.903 95.4972L155.29 95.4972L149.677 95.4972Z"/>
</mask>
<path d="M149.677 95.4972C149.677 96.2343 149.823 96.9642 150.105 97.6451C150.387 98.3261 150.8 98.9449 151.321 99.4661C151.843 99.9873 152.461 100.401 153.142 100.683C153.823 100.965 154.553 101.11 155.29 101.11C156.027 101.11 156.757 100.965 157.438 100.683C158.119 100.401 158.738 99.9873 159.259 99.4661C159.78 98.9449 160.194 98.3261 160.476 97.6451C160.758 96.9642 160.903 96.2343 160.903 95.4972L155.29 95.4972L149.677 95.4972Z" fill="#F6C844" stroke="black" stroke-width="2" mask="url(#path-29-inside-1)"/>
</mask>
<g mask="url(#mask5)">
<mask id="path-30-inside-2" fill="white">
<path d="M149.677 95.4972C149.677 96.2343 149.823 96.9642 150.105 97.6451C150.387 98.3261 150.8 98.9449 151.321 99.4661C151.843 99.9873 152.461 100.401 153.142 100.683C153.823 100.965 154.553 101.11 155.29 101.11C156.027 101.11 156.757 100.965 157.438 100.683C158.119 100.401 158.738 99.9873 159.259 99.4661C159.78 98.9449 160.194 98.3261 160.476 97.6451C160.758 96.9642 160.903 96.2343 160.903 95.4972L155.29 95.4972L149.677 95.4972Z"/>
</mask>
<path d="M149.677 95.4972C149.677 96.2343 149.823 96.9642 150.105 97.6451C150.387 98.3261 150.8 98.9449 151.321 99.4661C151.843 99.9873 152.461 100.401 153.142 100.683C153.823 100.965 154.553 101.11 155.29 101.11C156.027 101.11 156.757 100.965 157.438 100.683C158.119 100.401 158.738 99.9873 159.259 99.4661C159.78 98.9449 160.194 98.3261 160.476 97.6451C160.758 96.9642 160.903 96.2343 160.903 95.4972L155.29 95.4972L149.677 95.4972Z" fill="#F6C844" stroke="black" stroke-width="2" mask="url(#path-30-inside-2)"/>
<circle cx="155.29" cy="95.497" r="3.36774" transform="rotate(-180 155.29 95.497)" fill="black"/>
</g>
<mask id="mask6" mask-type="alpha" maskUnits="userSpaceOnUse" x="129" y="95" width="12" height="7">
<mask id="path-32-inside-3" mask-type="luminance" fill="white">
<path d="M129.471 95.4972C129.471 96.2343 129.616 96.9642 129.898 97.6451C130.18 98.3261 130.594 98.9449 131.115 99.4661C131.636 99.9873 132.255 100.401 132.936 100.683C133.617 100.965 134.347 101.11 135.084 101.11C135.821 101.11 136.551 100.965 137.232 100.683C137.913 100.401 138.532 99.9873 139.053 99.4661C139.574 98.9449 139.987 98.3261 140.27 97.6451C140.552 96.9642 140.697 96.2343 140.697 95.4972L135.084 95.4972L129.471 95.4972Z"/>
</mask>
<path d="M129.471 95.4972C129.471 96.2343 129.616 96.9642 129.898 97.6451C130.18 98.3261 130.594 98.9449 131.115 99.4661C131.636 99.9873 132.255 100.401 132.936 100.683C133.617 100.965 134.347 101.11 135.084 101.11C135.821 101.11 136.551 100.965 137.232 100.683C137.913 100.401 138.532 99.9873 139.053 99.4661C139.574 98.9449 139.987 98.3261 140.27 97.6451C140.552 96.9642 140.697 96.2343 140.697 95.4972L135.084 95.4972L129.471 95.4972Z" fill="#F6C844" stroke="black" stroke-width="2" mask="url(#path-32-inside-3)"/>
</mask>
<g mask="url(#mask6)">
<mask id="path-33-inside-4" fill="white">
<path d="M129.471 95.4972C129.471 96.2343 129.616 96.9642 129.898 97.6451C130.18 98.3261 130.594 98.9449 131.115 99.4661C131.636 99.9873 132.255 100.401 132.936 100.683C133.617 100.965 134.347 101.11 135.084 101.11C135.821 101.11 136.551 100.965 137.232 100.683C137.913 100.401 138.532 99.9873 139.053 99.4661C139.574 98.9449 139.987 98.3261 140.27 97.6451C140.552 96.9642 140.697 96.2343 140.697 95.4972L135.084 95.4972L129.471 95.4972Z"/>
</mask>
<path d="M129.471 95.4972C129.471 96.2343 129.616 96.9642 129.898 97.6451C130.18 98.3261 130.594 98.9449 131.115 99.4661C131.636 99.9873 132.255 100.401 132.936 100.683C133.617 100.965 134.347 101.11 135.084 101.11C135.821 101.11 136.551 100.965 137.232 100.683C137.913 100.401 138.532 99.9873 139.053 99.4661C139.574 98.9449 139.987 98.3261 140.27 97.6451C140.552 96.9642 140.697 96.2343 140.697 95.4972L135.084 95.4972L129.471 95.4972Z" fill="#F6C844" stroke="black" stroke-width="2" mask="url(#path-33-inside-4)"/>
<circle cx="135.084" cy="95.497" r="3.36774" transform="rotate(-180 135.084 95.497)" fill="black"/>
</g>
<path d="M157.308 36.6322C156.987 36.4059 156.688 36.1952 156.413 36C155.885 36.4037 155.248 36.8738 154.521 37.4103C145.521 44.0498 122.735 60.8589 122.735 87.8376C122.735 106.327 137.813 121.316 156.413 121.316C175.012 121.316 190.09 106.327 190.09 87.8376C190.09 59.733 165.868 42.6645 157.308 36.6322Z" stroke="black"/>
<circle cx="132.452" cy="69.0646" r="7.85806" fill="white"/>
<circle cx="177.426" cy="96.458" r="5" fill="white"/>
</svg>
