<svg width="200" height="200" viewBox="0 0 200 200" fill="none" xmlns="http://www.w3.org/2000/svg">
<g clip-path="url(#clip0)">
<mask id="mask0" mask-type="alpha" maskUnits="userSpaceOnUse" x="11" y="46" width="177" height="128">
<path fill-rule="evenodd" clip-rule="evenodd" d="M169 107.5C169 109.509 168.904 111.496 168.715 113.456C180.046 118.227 188 129.435 188 142.5C188 159.73 174.166 173.729 157 173.996V174H156.5H51.5H50V173.973C28.3274 173.194 11 155.595 11 134C11 113.261 26.98 96.2087 47.4423 94.1983C53.5213 66.6273 78.1018 46 107.5 46C141.466 46 169 73.5345 169 107.5Z" fill="#38E7FF"/>
</mask>
<g mask="url(#mask0)">
<path fill-rule="evenodd" clip-rule="evenodd" d="M169 107.5C169 109.509 168.904 111.496 168.715 113.456C180.046 118.227 188 129.435 188 142.5C188 159.73 174.166 173.729 157 173.996V174H156.5H51.5H50V173.973C28.3274 173.194 11 155.595 11 134C11 113.261 26.98 96.2087 47.4423 94.1983C53.5213 66.6273 78.1018 46 107.5 46C141.466 46 169 73.5345 169 107.5Z" fill="#38E7FF"/>
<circle cx="128" cy="75" r="22" fill="white"/>
</g>
<mask id="path-4-inside-1" fill="white">
<path fill-rule="evenodd" clip-rule="evenodd" d="M165 98.5C165 101.056 164.844 103.576 164.541 106.05C166.48 105.654 168.487 105.445 170.543 105.445C186.989 105.445 200.32 118.777 200.32 135.223C200.32 151.516 187.235 164.752 171 164.997V165H170.543H51.5H51V164.997C32.1767 164.733 17 149.613 17 131C17 115.469 27.566 102.371 42.0003 98.3052C42.1053 64.4293 69.5994 37 103.5 37C137.466 37 165 64.5345 165 98.5Z"/>
</mask>
<path d="M164.541 106.05L163.549 105.929L163.38 107.309L164.742 107.03L164.541 106.05ZM171 164.997L170.985 163.997L170 164.011V164.997H171ZM171 165V166H172V165H171ZM51 165H50V166H51V165ZM51 164.997H52V164.01L51.014 163.997L51 164.997ZM42.0003 98.3052L42.2714 99.2678L42.998 99.0631L43.0003 98.3083L42.0003 98.3052ZM165.534 106.172C165.842 103.657 166 101.097 166 98.5H164C164 101.016 163.847 103.495 163.549 105.929L165.534 106.172ZM170.543 104.445C168.419 104.445 166.345 104.661 164.341 105.071L164.742 107.03C166.615 106.647 168.555 106.445 170.543 106.445V104.445ZM201.32 135.223C201.32 118.225 187.541 104.445 170.543 104.445V106.445C186.436 106.445 199.32 119.329 199.32 135.223H201.32ZM171.015 165.996C187.795 165.744 201.32 152.063 201.32 135.223H199.32C199.32 150.968 186.674 163.761 170.985 163.997L171.015 165.996ZM170 164.997V165H172V164.997H170ZM171 164H170.543V166H171V164ZM170.543 164H51.5V166H170.543V164ZM51.5 164H51V166H51.5V164ZM52 165V164.997H50V165H52ZM16 131C16 150.174 31.6302 165.725 50.986 165.996L51.014 163.997C32.7231 163.741 18 149.052 18 131H16ZM41.7292 97.3427C26.8837 101.524 16 115.001 16 131H18C18 115.938 28.2484 103.218 42.2714 99.2678L41.7292 97.3427ZM103.5 36C69.0482 36 41.107 63.8753 41.0003 98.3021L43.0003 98.3083C43.1036 64.9833 70.1507 38 103.5 38V36ZM166 98.5C166 63.9822 138.018 36 103.5 36V38C136.913 38 164 65.0868 164 98.5H166Z" fill="black" mask="url(#path-4-inside-1)"/>
<path d="M62.7583 88.33C63.0866 88.8987 63.5237 89.3971 64.0446 89.7968C64.5656 90.1965 65.1601 90.4897 65.7944 90.6597C66.4286 90.8296 67.0901 90.873 67.7411 90.7873C68.3921 90.7015 69.0198 90.4885 69.5885 90.1602L68.6133 88.4712C68.2665 88.6715 67.8836 88.8015 67.4865 88.8537C67.0895 88.906 66.686 88.8796 66.2991 88.7759C65.9123 88.6722 65.5496 88.4934 65.2319 88.2496C64.9141 88.0058 64.6475 87.7018 64.4473 87.3549L62.7583 88.33Z" fill="#E15A33"/>
<path d="M60.1603 89.83C60.4886 90.3987 60.7016 91.0264 60.7874 91.6774C60.8731 92.3284 60.8297 92.9899 60.6598 93.6241C60.4898 94.2584 60.1966 94.8529 59.7969 95.3738C59.3972 95.8948 58.8988 96.3319 58.3301 96.6602L57.355 94.9712C57.7019 94.771 58.0059 94.5044 58.2497 94.1866C58.4935 93.8689 58.6723 93.5062 58.776 93.1194C58.8797 92.7325 58.9061 92.329 58.8538 91.932C58.8015 91.5349 58.6716 91.152 58.4713 90.8051L60.1603 89.83Z" fill="#E15A33"/>
<path d="M66.6603 101.088C66.332 100.52 65.8949 100.021 65.3739 99.6217C64.853 99.2219 64.2585 98.9287 63.6242 98.7588C62.99 98.5889 62.3285 98.5455 61.6775 98.6312C61.0265 98.7169 60.3988 98.93 59.8301 99.2583L60.8052 100.947C61.1521 100.747 61.535 100.617 61.932 100.565C62.3291 100.512 62.7326 100.539 63.1195 100.643C63.5063 100.746 63.869 100.925 64.1867 101.169C64.5045 101.413 64.7711 101.717 64.9713 102.064L66.6603 101.088Z" fill="#E15A33"/>
<path d="M69.2583 99.5884C68.93 99.0198 68.7169 98.3921 68.6312 97.7411C68.5455 97.0901 68.5889 96.4286 68.7588 95.7943C68.9288 95.1601 69.222 94.5655 69.6217 94.0446C70.0214 93.5237 70.5198 93.0866 71.0885 92.7583L72.0636 94.4472C71.7167 94.6475 71.4127 94.9141 71.1689 95.2318C70.9251 95.5496 70.7462 95.9122 70.6426 96.2991C70.5389 96.6859 70.5125 97.0894 70.5648 97.4865C70.617 97.8836 70.747 98.2665 70.9473 98.6133L69.2583 99.5884Z" fill="#E15A33"/>
<path d="M85 140H89V152C89 153.105 88.1046 154 87 154V154C85.8954 154 85 153.105 85 152V140Z" fill="#0C60F2"/>
<mask id="mask1" mask-type="alpha" maskUnits="userSpaceOnUse" x="73" y="137" width="17" height="9">
<path d="M73 137.636C73.2041 141.937 76.9316 145.363 81.5 145.363C86.0684 145.363 89.7959 141.937 90 137.636H73Z" fill="#E15A33"/>
</mask>
<g mask="url(#mask1)">
<path d="M73 137.636C73.2041 141.937 76.9316 145.363 81.5 145.363C86.0684 145.363 89.7959 141.937 90 137.636H73Z" fill="#E15A33"/>
<ellipse cx="86.6666" cy="147.571" rx="7.33333" ry="6.07142" fill="white"/>
</g>
<path d="M90 121C90 123.917 91.1589 126.715 93.2218 128.778C95.2847 130.841 98.0826 132 101 132C103.917 132 106.715 130.841 108.778 128.778C110.841 126.715 112 123.917 112 121L107.217 121C107.217 122.649 106.562 124.23 105.396 125.396C104.23 126.562 102.649 127.217 101 127.217C99.3511 127.217 97.7697 126.562 96.6037 125.396C95.4377 124.23 94.7827 122.649 94.7827 121L90 121Z" fill="black"/>
<path d="M49 121C49 123.917 50.1589 126.715 52.2218 128.778C54.2847 130.841 57.0826 132 60 132C62.9174 132 65.7153 130.841 67.7782 128.778C69.8411 126.715 71 123.917 71 121L66.2173 121C66.2173 122.649 65.5623 124.23 64.3963 125.396C63.2303 126.562 61.6489 127.217 60 127.217C58.3511 127.217 56.7697 126.562 55.6037 125.396C54.4377 124.23 53.7827 122.649 53.7827 121L49 121Z" fill="black"/>
</g>
<defs>
<clipPath id="clip0">
<rect width="200" height="200" fill="white"/>
</clipPath>
</defs>
</svg>
