<svg width="200" height="200" viewBox="0 0 200 200" fill="none" xmlns="http://www.w3.org/2000/svg">
<mask id="mask0" mask-type="alpha" maskUnits="userSpaceOnUse" x="19" y="16" width="168" height="168">
<circle cx="103" cy="100" r="84" fill="#F6C844"/>
</mask>
<g mask="url(#mask0)">
<circle cx="103" cy="100" r="84" fill="#F6C844"/>
<path d="M43 78C51.05 78 54.2 74.7692 57 72" stroke="black" stroke-width="2"/>
<path d="M123.148 69.9249C118.074 66.1304 111.795 67.2836 108 68.3358" stroke="black" stroke-width="2"/>
<mask id="mask1" mask-type="alpha" maskUnits="userSpaceOnUse" x="72" y="112" width="51" height="28">
<path d="M72 112C72.6123 127.583 83.7948 140 97.5 140C111.205 140 122.388 127.583 123 112H72Z" fill="#E15A33"/>
</mask>
<g mask="url(#mask1)">
<path d="M72 112C72.6123 127.583 83.7948 140 97.5 140C111.205 140 122.388 127.583 123 112H72Z" fill="#E15A33"/>
<circle cx="113" cy="148" r="22" fill="white"/>
</g>
</g>
<circle cx="111" cy="92" r="83.5" stroke="#E15A32"/>
<path d="M111.402 16.5586L111.575 16.6736L111.778 16.6333L131.125 12.787L142.086 29.1872L142.201 29.3593L142.404 29.3997L161.75 33.25L165.6 52.5963L165.641 52.7994L165.813 52.9145L182.213 63.8752L178.367 83.2223L178.326 83.4254L178.441 83.5975L189.399 100L178.441 116.402L178.326 116.575L178.367 116.778L182.213 136.125L165.813 147.086L165.641 147.201L165.6 147.404L161.75 166.75L142.404 170.6L142.201 170.641L142.086 170.813L131.125 187.213L111.778 183.367L111.575 183.326L111.402 183.441L95 194.399L78.5975 183.441L78.4254 183.326L78.2223 183.367L58.8752 187.213L47.9145 170.813L47.7994 170.641L47.5963 170.6L28.25 166.75L24.3997 147.404L24.3593 147.201L24.1872 147.086L7.78698 136.125L11.6333 116.778L11.6736 116.575L11.5586 116.402L0.601302 100L11.5586 83.5975L11.6736 83.4254L11.6333 83.2223L7.78698 63.8752L24.1872 52.9145L24.3593 52.7994L24.3997 52.5963L28.25 33.25L47.5963 29.3997L47.7994 29.3593L47.9145 29.1872L58.8752 12.787L78.2223 16.6333L78.4254 16.6736L78.5975 16.5586L95 5.6013L111.402 16.5586Z" stroke="black"/>
<path fill-rule="evenodd" clip-rule="evenodd" d="M14 88C17.5663 98.0899 27.1889 105.319 38.5 105.319C49.8111 105.319 59.4337 98.0899 63 88H14Z" fill="black"/>
<path fill-rule="evenodd" clip-rule="evenodd" d="M82 88C85.5663 98.0899 95.1889 105.319 106.5 105.319C117.811 105.319 127.434 98.0899 131 88H82Z" fill="black"/>
<mask id="path-12-inside-1" fill="white">
<path fill-rule="evenodd" clip-rule="evenodd" d="M19 84C22.5663 94.0899 32.1889 101.319 43.5 101.319C54.8111 101.319 64.4337 94.0899 68 84H19Z"/>
</mask>
<path d="M19 84V83H17.5859L18.0572 84.3332L19 84ZM68 84L68.9428 84.3332L69.414 83H68V84ZM43.5 100.319C32.6259 100.319 23.3723 93.3696 19.9428 83.6668L18.0572 84.3332C21.7602 94.8102 31.7519 102.319 43.5 102.319V100.319ZM67.0571 83.6668C63.6277 93.3696 54.3741 100.319 43.5 100.319V102.319C55.248 102.319 65.2398 94.8102 68.9428 84.3332L67.0571 83.6668ZM68 83H19V85H68V83Z" fill="#E15A33" mask="url(#path-12-inside-1)"/>
<mask id="path-14-inside-2" fill="white">
<path fill-rule="evenodd" clip-rule="evenodd" d="M87 84C90.5663 94.0899 100.189 101.319 111.5 101.319C122.811 101.319 132.434 94.0899 136 84H87Z"/>
</mask>
<path d="M87 84V83H85.5859L86.0572 84.3332L87 84ZM136 84L136.943 84.3332L137.414 83H136V84ZM111.5 100.319C100.626 100.319 91.3723 93.3696 87.9428 83.6668L86.0572 84.3332C89.7602 94.8102 99.7519 102.319 111.5 102.319V100.319ZM135.057 83.6668C131.628 93.3696 122.374 100.319 111.5 100.319V102.319C123.248 102.319 133.24 94.8102 136.943 84.3332L135.057 83.6668ZM136 83H87V85H136V83Z" fill="#E15A33" mask="url(#path-14-inside-2)"/>
<line x1="34.3536" y1="84.3536" x2="25.3536" y2="93.3536" stroke="#E15A33"/>
<line x1="102.354" y1="84.3536" x2="93.3536" y2="93.3536" stroke="#E15A33"/>
<line x1="40.3536" y1="84.3536" x2="28.3536" y2="96.3536" stroke="#E15A33"/>
<line x1="108.354" y1="84.3536" x2="96.3536" y2="96.3536" stroke="#E15A33"/>
<path d="M135 84.5H155" stroke="#E15A33"/>
<path d="M153.5 84.5V84.5C159.575 84.5 164.5 89.4249 164.5 95.5V95.5" stroke="black" stroke-width="3"/>
<path d="M89 87.5H66" stroke="black"/>
</svg>
