<?xml version="1.0" encoding="UTF-8" standalone="no"?>
<svg
   xmlns:dc="http://purl.org/dc/elements/1.1/"
   xmlns:cc="http://creativecommons.org/ns#"
   xmlns:rdf="http://www.w3.org/1999/02/22-rdf-syntax-ns#"
   xmlns:svg="http://www.w3.org/2000/svg"
   xmlns="http://www.w3.org/2000/svg"
   xmlns:sodipodi="http://sodipodi.sourceforge.net/DTD/sodipodi-0.dtd"
   xmlns:inkscape="http://www.inkscape.org/namespaces/inkscape"
   version="1.1"
   x="0px"
   y="0px"
   viewBox="0 0 100 125"
   style="enable-background:new 0 0 100 100;"
   xml:space="preserve"
   id="svg14"
   sodipodi:docname="mist.svg"
   inkscape:version="0.92.4 (5da689c313, 2019-01-14)"><metadata
     id="metadata20"><rdf:RDF><cc:Work
         rdf:about=""><dc:format>image/svg+xml</dc:format><dc:type
           rdf:resource="http://purl.org/dc/dcmitype/StillImage" /></cc:Work></rdf:RDF></metadata><defs
     id="defs18" /><sodipodi:namedview
     pagecolor="#ffffff"
     bordercolor="#666666"
     borderopacity="1"
     objecttolerance="10"
     gridtolerance="10"
     guidetolerance="10"
     inkscape:pageopacity="0"
     inkscape:pageshadow="2"
     inkscape:window-width="640"
     inkscape:window-height="480"
     id="namedview16"
     showgrid="false"
     inkscape:zoom="1.888"
     inkscape:cx="50"
     inkscape:cy="62.5"
     inkscape:window-x="0"
     inkscape:window-y="0"
     inkscape:window-maximized="0"
     inkscape:current-layer="svg14" /><g
     id="g8"><path
       d="M80.5,29.5c0,0-0.1-0.1-0.1-0.1c-3.5-3-7.7-4.8-12.2-5.2c0,0-0.1,0-0.1,0c-0.3,0-0.6-0.1-1-0.1c-0.1,0-0.2,0-0.3,0   c-0.3,0-0.5,0-0.8,0c-0.1,0-0.1,0-0.2,0c-0.1,0-0.2,0-0.3,0c-0.2,0-0.3,0-0.5,0c0,0-0.1,0-0.1,0c-4.2-7-11.6-11.2-19.8-11.2   c-11.9,0-21.7,8.9-22.9,20.5c-6.3,3.1-10.4,9.6-10.4,16.7c0,10.2,8.3,18.6,18.6,18.6h35.5c12.3,0,22.3-10,22.3-22.3   C88.2,39.6,85.2,33.6,80.5,29.5z M65.9,63.3H30.4c-7.4,0-13.4-6-13.4-13.4c0-5.6,3.4-10.5,8.6-12.5l1.6-0.6l0.1-1.7   C27.7,25.5,35.5,18,45.2,18c5.7,0,10.8,2.6,14.2,7c-4,1.2-7.6,3.5-10.3,6.8c-0.9,1.1-0.8,2.7,0.3,3.7c0.5,0.4,1.1,0.6,1.7,0.6   c0.7,0,1.5-0.3,2-0.9c3-3.5,7.1-5.6,11.6-5.9c3.6-0.3,7.1,0.6,10.1,2.4l0,0c0.2,0.1,0.4,0.2,0.6,0.4c0.1,0.1,0.2,0.1,0.2,0.2   c0.4,0.2,0.7,0.5,1,0.8c0.1,0.1,0.2,0.2,0.3,0.2c3.8,3.1,6.2,7.8,6.2,13.1C82.9,55.7,75.3,63.3,65.9,63.3z"
       id="path2" /><path
       d="M27.8,78.5h44.3c1.4,0,2.6-1.2,2.6-2.6c0-1.4-1.2-2.6-2.6-2.6H27.8c-1.4,0-2.6,1.2-2.6,2.6C25.2,77.4,26.4,78.5,27.8,78.5z   "
       id="path4" /><path
       d="M27.8,87.2h44.3c1.4,0,2.6-1.2,2.6-2.6S73.6,82,72.2,82H27.8c-1.4,0-2.6,1.2-2.6,2.6S26.4,87.2,27.8,87.2z"
       id="path6" /></g></svg>