<?xml version="1.0" encoding="UTF-8" standalone="no"?>
<svg
   xmlns:dc="http://purl.org/dc/elements/1.1/"
   xmlns:cc="http://creativecommons.org/ns#"
   xmlns:rdf="http://www.w3.org/1999/02/22-rdf-syntax-ns#"
   xmlns:svg="http://www.w3.org/2000/svg"
   xmlns="http://www.w3.org/2000/svg"
   xmlns:sodipodi="http://sodipodi.sourceforge.net/DTD/sodipodi-0.dtd"
   xmlns:inkscape="http://www.inkscape.org/namespaces/inkscape"
   version="1.1"
   x="0px"
   y="0px"
   viewBox="0 0 100 125"
   style="enable-background:new 0 0 100 100;"
   xml:space="preserve"
   id="svg26"
   sodipodi:docname="rain.svg"
   inkscape:version="0.92.4 (5da689c313, 2019-01-14)"><metadata
     id="metadata32"><rdf:RDF><cc:Work
         rdf:about=""><dc:format>image/svg+xml</dc:format><dc:type
           rdf:resource="http://purl.org/dc/dcmitype/StillImage" /></cc:Work></rdf:RDF></metadata><defs
     id="defs30" /><sodipodi:namedview
     pagecolor="#ffffff"
     bordercolor="#666666"
     borderopacity="1"
     objecttolerance="10"
     gridtolerance="10"
     guidetolerance="10"
     inkscape:pageopacity="0"
     inkscape:pageshadow="2"
     inkscape:window-width="640"
     inkscape:window-height="480"
     id="namedview28"
     showgrid="false"
     inkscape:zoom="1.888"
     inkscape:cx="50"
     inkscape:cy="62.5"
     inkscape:window-x="0"
     inkscape:window-y="0"
     inkscape:window-maximized="0"
     inkscape:current-layer="svg26" /><g
     id="g20"><path
       d="M29.8,77.3c0.4,0.2,0.8,0.3,1.2,0.3c0.9,0,1.9-0.5,2.3-1.4l1.5-2.9c0.7-1.3,0.2-2.9-1.1-3.5c-1.3-0.7-2.9-0.2-3.5,1.1   l-1.5,2.9C28,75.1,28.5,76.6,29.8,77.3z"
       id="path2" /><path
       d="M27.2,82.4c-1.3-0.7-2.9-0.2-3.5,1.1l-1.2,2.3c-0.7,1.3-0.2,2.9,1.1,3.5c0.4,0.2,0.8,0.3,1.2,0.3c0.9,0,1.9-0.5,2.3-1.4   l1.2-2.3C29,84.6,28.5,83,27.2,82.4z"
       id="path4" /><path
       d="M54.8,76.2l1.5-2.9c0.7-1.3,0.2-2.9-1.1-3.5c-1.3-0.7-2.9-0.2-3.5,1.1l-1.5,2.9c-0.7,1.3-0.2,2.9,1.1,3.5   c0.4,0.2,0.8,0.3,1.2,0.3C53.4,77.6,54.3,77.1,54.8,76.2z"
       id="path6" /><path
       d="M45.1,89.3c0.4,0.2,0.8,0.3,1.2,0.3c0.9,0,1.9-0.5,2.3-1.4l1.2-2.3c0.7-1.3,0.2-2.9-1.1-3.5c-1.3-0.7-2.9-0.2-3.5,1.1   L44,85.8C43.3,87.1,43.8,88.7,45.1,89.3z"
       id="path8" /><path
       d="M40.5,77.3c0.4,0.2,0.8,0.3,1.2,0.3c0.9,0,1.9-0.5,2.3-1.4l1.5-2.9c0.7-1.3,0.2-2.9-1.1-3.5c-1.3-0.7-2.9-0.2-3.5,1.1   l-1.5,2.9C38.8,75.1,39.3,76.6,40.5,77.3z"
       id="path10" /><path
       d="M37.9,88.2l1.2-2.3c0.7-1.3,0.2-2.9-1.1-3.5c-1.3-0.7-2.8-0.2-3.5,1.1l-1.2,2.3c-0.7,1.3-0.2,2.9,1.1,3.5   c0.4,0.2,0.8,0.3,1.2,0.3C36.5,89.6,37.4,89.1,37.9,88.2z"
       id="path12" /><path
       d="M62,77.3c0.4,0.2,0.8,0.3,1.2,0.3c0.9,0,1.9-0.5,2.3-1.4l1.5-2.9c0.7-1.3,0.2-2.9-1.1-3.5c-1.3-0.7-2.9-0.2-3.5,1.1   l-1.5,2.9C60.2,75.1,60.7,76.6,62,77.3z"
       id="path14" /><path
       d="M55.8,89.3c0.4,0.2,0.8,0.3,1.2,0.3c0.9,0,1.9-0.5,2.3-1.4l1.2-2.3c0.7-1.3,0.2-2.9-1.1-3.5c-1.3-0.7-2.9-0.2-3.5,1.1   l-1.2,2.3C54,87.1,54.5,88.7,55.8,89.3z"
       id="path16" /><path
       d="M88.2,43.9c0-6.7-3-12.7-7.7-16.8c0,0-0.1-0.1-0.1-0.1c-3.5-3-7.7-4.8-12.2-5.2c0,0-0.1,0-0.1,0c-0.3,0-0.6-0.1-1-0.1   c-0.1,0-0.2,0-0.3,0c-0.3,0-0.5,0-0.8,0c-0.1,0-0.1,0-0.2,0c-0.1,0-0.2,0-0.3,0c-0.2,0-0.3,0-0.5,0c0,0-0.1,0-0.1,0   c-4.2-7-11.6-11.2-19.8-11.2c-11.9,0-21.7,8.9-22.9,20.5c-6.3,3.1-10.4,9.6-10.4,16.7c0,10.2,8.3,18.6,18.6,18.6h35.5   C78.2,66.1,88.2,56.2,88.2,43.9z M65.9,60.9H30.4c-7.4,0-13.4-6-13.4-13.4c0-5.6,3.4-10.5,8.6-12.5l1.6-0.6l0.1-1.7   c0.4-9.6,8.2-17.2,17.9-17.2c5.7,0,10.8,2.6,14.2,7c-4,1.2-7.6,3.5-10.3,6.8c-0.9,1.1-0.8,2.7,0.3,3.7c0.5,0.4,1.1,0.6,1.7,0.6   c0.7,0,1.5-0.3,2-0.9c3-3.5,7.1-5.6,11.6-5.9c3.6-0.3,7.1,0.6,10.1,2.4l0,0c0.2,0.1,0.4,0.2,0.6,0.3c0.1,0.1,0.2,0.1,0.3,0.2   c0.3,0.2,0.7,0.5,1,0.8c0.1,0.1,0.2,0.2,0.3,0.2c3.8,3.1,6.2,7.8,6.2,13.1C82.9,53.3,75.3,60.9,65.9,60.9z"
       id="path18" /></g></svg>