<?xml version="1.0" encoding="UTF-8" standalone="no"?>
<svg
   xmlns:dc="http://purl.org/dc/elements/1.1/"
   xmlns:cc="http://creativecommons.org/ns#"
   xmlns:rdf="http://www.w3.org/1999/02/22-rdf-syntax-ns#"
   xmlns:svg="http://www.w3.org/2000/svg"
   xmlns="http://www.w3.org/2000/svg"
   xmlns:sodipodi="http://sodipodi.sourceforge.net/DTD/sodipodi-0.dtd"
   xmlns:inkscape="http://www.inkscape.org/namespaces/inkscape"
   version="1.1"
   x="0px"
   y="0px"
   viewBox="0 0 100 125"
   style="enable-background:new 0 0 100 100;"
   xml:space="preserve"
   id="svg10"
   sodipodi:docname="scattered-clouds.svg"
   inkscape:version="0.92.4 (5da689c313, 2019-01-14)"><metadata
     id="metadata16"><rdf:RDF><cc:Work
         rdf:about=""><dc:format>image/svg+xml</dc:format><dc:type
           rdf:resource="http://purl.org/dc/dcmitype/StillImage" /></cc:Work></rdf:RDF></metadata><defs
     id="defs14" /><sodipodi:namedview
     pagecolor="#ffffff"
     bordercolor="#666666"
     borderopacity="1"
     objecttolerance="10"
     gridtolerance="10"
     guidetolerance="10"
     inkscape:pageopacity="0"
     inkscape:pageshadow="2"
     inkscape:window-width="640"
     inkscape:window-height="480"
     id="namedview12"
     showgrid="false"
     inkscape:zoom="1.888"
     inkscape:cx="50"
     inkscape:cy="62.5"
     inkscape:window-x="0"
     inkscape:window-y="0"
     inkscape:window-maximized="0"
     inkscape:current-layer="svg10" /><g
     id="g4"><path
       d="M11.8,59.3c0,10.2,8.3,18.6,18.6,18.6h35.5c12.3,0,22.3-10,22.3-22.3c0-6.7-3-12.8-7.7-16.8c0,0,0,0-0.1-0.1   c-0.2-0.2-0.4-0.3-0.6-0.5c0,0-0.1-0.1-0.1-0.1c-0.2-0.2-0.4-0.3-0.7-0.5c-0.1-0.1-0.2-0.1-0.3-0.2c-0.2-0.1-0.4-0.3-0.6-0.4   c-0.1-0.1-0.3-0.2-0.4-0.3c-0.1-0.1-0.3-0.2-0.4-0.3c-0.2-0.1-0.4-0.2-0.6-0.3c-0.1-0.1-0.2-0.1-0.3-0.2c-0.2-0.1-0.5-0.3-0.7-0.4   c0,0-0.1,0-0.1-0.1c-3.2-1.6-6.8-2.4-10.7-2.2c-4.2-7-11.6-11.2-19.8-11.2c-11.9,0-21.7,8.9-22.9,20.5   C15.9,45.7,11.8,52.2,11.8,59.3z M27.2,46.2l0.1-1.7c0.4-9.6,8.2-17.2,17.9-17.2c5.7,0,10.8,2.6,14.2,7c-3.9,1.2-7.5,3.5-10.4,6.8   c-0.9,1.1-0.8,2.7,0.3,3.7c0.5,0.4,1.1,0.6,1.7,0.6c0.7,0,1.5-0.3,2-0.9c5.5-6.4,14.7-7.7,21.7-3.5l0,0c0.2,0.1,0.3,0.2,0.5,0.3   c0.1,0.1,0.2,0.1,0.3,0.2c0.3,0.2,0.6,0.5,1,0.7c0.1,0.1,0.3,0.2,0.4,0.3c3.8,3.1,6.2,7.8,6.2,13.1c0,9.4-7.6,17-17,17H30.4   c-7.4,0-13.4-6-13.4-13.4c0-5.6,3.4-10.5,8.6-12.5L27.2,46.2z"
       id="path2" /></g></svg>