<?xml version="1.0" encoding="UTF-8" standalone="no"?>
<svg
   xmlns:dc="http://purl.org/dc/elements/1.1/"
   xmlns:cc="http://creativecommons.org/ns#"
   xmlns:rdf="http://www.w3.org/1999/02/22-rdf-syntax-ns#"
   xmlns:svg="http://www.w3.org/2000/svg"
   xmlns="http://www.w3.org/2000/svg"
   xmlns:sodipodi="http://sodipodi.sourceforge.net/DTD/sodipodi-0.dtd"
   xmlns:inkscape="http://www.inkscape.org/namespaces/inkscape"
   version="1.1"
   x="0px"
   y="0px"
   viewBox="0 0 100 125"
   style="enable-background:new 0 0 100 100;"
   xml:space="preserve"
   id="svg12"
   sodipodi:docname="snow.svg"
   inkscape:version="0.92.4 (5da689c313, 2019-01-14)"><metadata
     id="metadata18"><rdf:RDF><cc:Work
         rdf:about=""><dc:format>image/svg+xml</dc:format><dc:type
           rdf:resource="http://purl.org/dc/dcmitype/StillImage" /></cc:Work></rdf:RDF></metadata><defs
     id="defs16" /><sodipodi:namedview
     pagecolor="#ffffff"
     bordercolor="#666666"
     borderopacity="1"
     objecttolerance="10"
     gridtolerance="10"
     guidetolerance="10"
     inkscape:pageopacity="0"
     inkscape:pageshadow="2"
     inkscape:window-width="640"
     inkscape:window-height="480"
     id="namedview14"
     showgrid="false"
     inkscape:zoom="1.888"
     inkscape:cx="50"
     inkscape:cy="62.5"
     inkscape:window-x="0"
     inkscape:window-y="0"
     inkscape:window-maximized="0"
     inkscape:current-layer="svg12" /><g
     id="g6"><path
       d="M44.7,12.1c-11.9,0-21.7,8.9-22.9,20.5c-6.3,3.1-10.4,9.6-10.4,16.7c0,10.2,8.3,18.6,18.6,18.6c1.4,0,2.6-1.2,2.6-2.6   c0-0.3-0.1-0.6-0.2-0.9c-0.4-1-1.3-1.7-2.4-1.7c-7.4,0-13.4-6-13.4-13.4c0-5.5,3.4-10.5,8.6-12.5c1-0.4,1.6-1.3,1.7-2.3   c0.4-9.6,8.2-17.2,17.9-17.2c5.7,0,10.8,2.6,14.2,7c-3.9,1.2-7.5,3.5-10.4,6.8c-0.9,1.1-0.8,2.7,0.3,3.7c0.5,0.4,1.1,0.6,1.7,0.6   c0.7,0,1.5-0.3,2-0.9c5.5-6.4,14.7-7.7,21.7-3.5l0,0c0.2,0.1,0.3,0.2,0.5,0.3c0.1,0.1,0.2,0.1,0.3,0.2c0.3,0.2,0.6,0.5,1,0.7   c0.1,0.1,0.3,0.2,0.4,0.3c3.8,3.1,6.2,7.8,6.2,13.1c0,0.3,0.1,0.6,0.2,0.9c0.4,1,1.3,1.7,2.4,1.7c1.4,0,2.6-1.2,2.6-2.6   c0-6.7-3-12.7-7.7-16.8c0,0-0.1-0.1-0.1-0.1c-1.8-1.5-3.7-2.7-5.8-3.6c-0.1,0-0.2-0.1-0.3-0.1c-0.2-0.1-0.5-0.2-0.7-0.3   c-0.2-0.1-0.5-0.2-0.7-0.2c-0.1,0-0.2-0.1-0.3-0.1c-2.1-0.7-4.4-1-6.7-1c-0.3,0-0.6,0-0.9,0C60.4,16.3,52.9,12.1,44.7,12.1z"
       id="path2" /><path
       d="M73.4,48.5l-2,2l-5.7,5.7v-3.7v-1.3l6-6c1-1,1-2.7,0-3.7c-1-1-2.7-1-3.7,0l-2.3,2.3v-4.2c0-1.4-1.2-2.6-2.6-2.6   s-2.6,1.2-2.6,2.6v4.2l-2.3-2.3c-1-1-2.7-1-3.7,0c-1,1-1,2.7,0,3.7l6,6v3.2v1.8l-1.3-1.3l-6.4-6.4c-1-1-2.7-1-3.7,0   c-1,1-1,2.7,0,3.7l4.6,4.6l3.1,3.1h-5L50,58.1l-4.3-4.3c-1-1-2.7-1-3.7,0c-1,1-1,2.7,0,3.7l2.3,2.3h-4.2c-1.4,0-2.6,1.2-2.6,2.6   c0,0,0,0,0,0.1c0,1.4,1.2,2.6,2.6,2.6h4.2l-2.3,2.3c-1,1-1,2.7,0,3.7c0.5,0.5,1.2,0.8,1.8,0.8c0.7,0,1.3-0.3,1.8-0.8l6-6h5   l-7.7,7.7c-1,1-1,2.7,0,3.7c0.5,0.5,1.2,0.8,1.8,0.8c0.7,0,1.3-0.3,1.8-0.8l7.7-7.7v5l-6,6c-1,1-1,2.7,0,3.7   c0.5,0.5,1.2,0.8,1.8,0.8s1.3-0.3,1.8-0.8l2.3-2.3v4.2c0,1.4,1.2,2.6,2.6,2.6s2.6-1.2,2.6-2.6v-4.2l2.3,2.3c1,1,2.7,1,3.7,0   c1-1,1-2.7,0-3.7l-6-6v-5l7.7,7.7c0.5,0.5,1.2,0.8,1.8,0.8s1.3-0.3,1.8-0.8c1-1,1-2.7,0-3.7L69.4,65h5l6,6c0.5,0.5,1.2,0.8,1.8,0.8   s1.3-0.3,1.8-0.8c1-1,1-2.7,0-3.7L81.8,65H86c1.4,0,2.6-1.2,2.6-2.6s-1.2-2.6-2.6-2.6h-4.2l2.3-2.3c1-1,1-2.7,0-3.7   c-1-1-2.7-1-3.7,0l-6,6h-5l7.7-7.7c1-1,1-2.7,0-3.7c0,0,0,0,0,0C76,47.4,74.4,47.4,73.4,48.5z"
       id="path4" /></g></svg>