<?xml version="1.0" encoding="utf-8"?>
<!-- Generator: Adobe Illustrator 24.0.0, SVG Export Plug-In . SVG Version: 6.00 Build 0)  -->
<svg version="1.1" id="Layer_1" focusable="false" xmlns="http://www.w3.org/2000/svg" xmlns:xlink="http://www.w3.org/1999/xlink"
	 x="0px" y="0px" viewBox="0 0 512 512" style="enable-background:new 0 0 512 512;" xml:space="preserve">
<style type="text/css">
	.st0{fill:#FFFFFF;}
</style>
<path class="st0" d="M256,160c-52.9,0-96,43.1-96,96s43.1,96,96,96s96-43.1,96-96S308.9,160,256,160z M502.4,240.5l-94.7-47.3
	l33.5-100.4c4.5-13.6-8.4-26.5-21.9-21.9l-100.4,33.5L271.5,9.6c-6.4-12.8-24.6-12.8-31,0l-47.3,94.7L92.7,70.8
	c-13.6-4.5-26.5,8.4-21.9,21.9l33.5,100.4L9.6,240.5c-12.8,6.4-12.8,24.6,0,31l94.7,47.3L70.8,419.3c-4.5,13.6,8.4,26.5,21.9,21.9
	l100.4-33.5l47.3,94.7c6.4,12.8,24.6,12.8,31,0l47.3-94.7l100.4,33.5c13.6,4.5,26.5-8.4,21.9-21.9l-33.5-100.4l94.7-47.3
	C515.2,265.1,515.2,246.9,502.4,240.5L502.4,240.5z M346.5,346.5c-49.9,49.9-131.1,49.9-181,0s-49.9-131.1,0-181s131.1-49.9,181,0
	S396.4,296.6,346.5,346.5z"/>
</svg>
