<svg height="512pt" viewBox="0 -47 512.001 512" width="512pt" xmlns="http://www.w3.org/2000/svg"><path d="m423.082031 244.0625c-4.507812-88.90625-77.917969-158.546875-167.121093-158.546875-42.121094 0-82.363282 15.679687-113.316407 44.152344-30.777343 28.3125-49.730469 66.769531-53.371093 108.289062l-.058594.65625v48.738281h333.882812v-42.53125zm0 0" fill="#ffdc00"/><path d="m423.097656 244.820312-.015625-.757812c-4.507812-88.90625-77.917969-158.546875-167.121093-158.546875v201.835937h167.136718zm0 0" fill="#ffc000"/><path d="m496.421875 220.191406c-69.625 2.683594-159.613281 20.183594-218.839844 42.558594l-39 14.730469 273.417969 93.523437v-151.414062zm0 0" fill="#49a520"/><g fill="#ffdc00"><path d="m240.960938 0h30v60.007812h-30zm0 0"/><path d="m143.351562 25.96875 27.613282-11.722656 23.445312 55.234375-27.617187 11.722656zm0 0"/><path d="m63.648438 88.007812 20.839843-21.578124 43.164063 41.683593-20.84375 21.582031zm0 0"/><path d="m14.527344 176.253906 10.75-28.007812 56.023437 21.503906-10.753906 28.007812zm0 0"/><path d="m317.5 69.476562 23.445312-55.234374 27.613282 11.722656-23.441406 55.234375zm0 0"/><path d="m384.257812 108.082031 43.164063-41.6875 20.839844 21.582031-43.160157 41.6875zm0 0"/><path d="m430.644531 169.730469 56.023438-21.507813 10.75 28.011719-56.019531 21.503906zm0 0"/></g><path d="m502.453125 336.046875c-92.449219-36.085937-168.839844-61.65625-240.398437-80.472656-88.335938-23.226563-168.957032-35.972657-246.476563-38.957031l-15.578125-.601563v202.898437h512v-79.140624zm0 0" fill="#70da40"/><path d="m317.5 69.476562 23.445312-55.234374 27.613282 11.722656-23.441406 55.234375zm0 0" fill="#ffc000"/><path d="m384.257812 108.082031 43.164063-41.6875 20.839844 21.582031-43.160157 41.6875zm0 0" fill="#ffc000"/><path d="m430.644531 169.730469 56.023438-21.507813 10.75 28.011719-56.019531 21.503906zm0 0" fill="#ffc000"/><path d="m255.960938 0h15v60.007812h-15zm0 0" fill="#ffc000"/></svg>