<?xml version="1.0" encoding="utf-8"?>
<!-- Generator: Adobe Illustrator 24.2.1, SVG Export Plug-In . SVG Version: 6.00 Build 0)  -->
<svg version="1.1" xmlns="http://www.w3.org/2000/svg" xmlns:xlink="http://www.w3.org/1999/xlink" x="0px" y="0px"
	 viewBox="0 0 100 100" style="enable-background:new 0 0 100 100;" xml:space="preserve">
<style type="text/css">
	.st0{display:none;}
	.st1{display:inline;}
	.st2{fill:#FFFFFF;}
	.st3{display:inline;fill:none;stroke:#FFFFFF;stroke-width:5;stroke-linecap:round;stroke-miterlimit:10;}
	.st4{display:inline;fill:#EC6E4C;}
	.st5{display:inline;fill:none;stroke:#FFFFFF;stroke-miterlimit:10;}
	.st6{fill:#EC6E4C;}
	.st7{fill:none;stroke:#FFFFFF;stroke-miterlimit:10;}
</style>
<g id="Lager_1" class="st0">
	<g class="st1">
		<path class="st2" d="M50,27.13c12.61,0,22.87,10.26,22.87,22.87S62.61,72.87,50,72.87S27.13,62.61,27.13,50S37.39,27.13,50,27.13
			 M50,23.13c-14.84,0-26.87,12.03-26.87,26.87S35.16,76.87,50,76.87S76.87,64.84,76.87,50S64.84,23.13,50,23.13L50,23.13z"/>
	</g>
	<g class="st1">
		<circle class="st2" cx="50" cy="50" r="11"/>
	</g>
	<path class="st3" d="M50,15c0,0.6,0,9,0,9"/>
	<path class="st3" d="M50,76c0,0.6,0,9,0,9"/>
	<path class="st3" d="M85,50c-0.6,0-9,0-9,0"/>
	<path class="st3" d="M24,50c-0.6,0-9,0-9,0"/>
</g>
<g id="Lager_2" class="st0">
	<path class="st4" d="M72.41,59.5c1.24-2.92,1.92-6.13,1.92-9.5c0-13.44-10.89-24.33-24.33-24.33S25.67,36.56,25.67,50
		c0,3.37,0.69,6.58,1.92,9.5H72.41z"/>
	<line class="st5" x1="10" y1="59" x2="90" y2="59"/>
	<rect x="9.5" y="59.5" width="80" height="19"/>
</g>
<g id="Lager_2_kopia">
	<path class="st6" d="M71.17,59.5C66.98,52.14,59.07,47.17,50,47.17S33.02,52.14,28.83,59.5H71.17z"/>
	<line class="st7" x1="10" y1="59" x2="90" y2="59"/>
</g>
</svg>
