<?xml version="1.0" encoding="UTF-8" standalone="no"?>
<svg
   xmlns:dc="http://purl.org/dc/elements/1.1/"
   xmlns:cc="http://creativecommons.org/ns#"
   xmlns:rdf="http://www.w3.org/1999/02/22-rdf-syntax-ns#"
   xmlns:svg="http://www.w3.org/2000/svg"
   xmlns="http://www.w3.org/2000/svg"
   xmlns:sodipodi="http://sodipodi.sourceforge.net/DTD/sodipodi-0.dtd"
   xmlns:inkscape="http://www.inkscape.org/namespaces/inkscape"
   version="1.1"
   x="0px"
   y="0px"
   viewBox="0 0 100 125"
   style="enable-background:new 0 0 100 100;"
   xml:space="preserve"
   id="svg12"
   sodipodi:docname="thunderstorm.svg"
   inkscape:version="0.92.4 (5da689c313, 2019-01-14)"><metadata
     id="metadata18"><rdf:RDF><cc:Work
         rdf:about=""><dc:format>image/svg+xml</dc:format><dc:type
           rdf:resource="http://purl.org/dc/dcmitype/StillImage" /></cc:Work></rdf:RDF></metadata><defs
     id="defs16" /><sodipodi:namedview
     pagecolor="#ffffff"
     bordercolor="#666666"
     borderopacity="1"
     objecttolerance="10"
     gridtolerance="10"
     guidetolerance="10"
     inkscape:pageopacity="0"
     inkscape:pageshadow="2"
     inkscape:window-width="640"
     inkscape:window-height="480"
     id="namedview14"
     showgrid="false"
     inkscape:zoom="1.888"
     inkscape:cx="50"
     inkscape:cy="62.5"
     inkscape:window-x="0"
     inkscape:window-y="0"
     inkscape:window-maximized="0"
     inkscape:current-layer="svg12" /><g
     id="g6"><path
       d="M80.5,29.7c0,0-0.1-0.1-0.1-0.1c-3.5-3-7.7-4.8-12.2-5.2c0,0-0.1,0-0.1,0c-0.3,0-0.6-0.1-0.9-0.1c-0.1,0-0.2,0-0.3,0   c-0.3,0-0.5,0-0.8,0c-0.1,0-0.1,0-0.2,0c-0.1,0-0.2,0-0.3,0c-0.2,0-0.3,0-0.5,0c0,0-0.1,0-0.1,0C60.8,17.3,53.4,13,45.2,13   c-11.9,0-21.7,8.9-22.9,20.5c-6.3,3.1-10.4,9.6-10.4,16.7c0,9.9,7.1,18.6,15.1,18.6c1.4,0,2.6-1.2,2.6-2.6s-1.2-2.6-2.6-2.6   c-4.6,0-9.9-5.8-9.9-13.4c0-5.6,3.4-10.5,8.6-12.5l1.6-0.6l0.1-1.7c0.4-9.6,8.2-17.2,17.9-17.2c5.7,0,10.8,2.6,14.2,7   c-4,1.2-7.6,3.5-10.3,6.8c-0.9,1.1-0.8,2.7,0.3,3.7c0.5,0.4,1.1,0.6,1.7,0.6c0.7,0,1.5-0.3,2-0.9c3-3.5,7.1-5.6,11.6-5.9   c3.6-0.3,7.1,0.6,10.1,2.4l0,0c0.2,0.1,0.4,0.2,0.6,0.3c0.1,0.1,0.2,0.1,0.3,0.2c0.3,0.2,0.7,0.5,1,0.8c0.1,0.1,0.2,0.2,0.3,0.3   c3.8,3.1,6.2,7.8,6.2,13.1c0,9.4-7.6,17-17,17c-1.4,0-2.6,1.2-2.6,2.6s1.2,2.6,2.6,2.6c12.3,0,22.3-10,22.3-22.3   C88.2,39.8,85.2,33.8,80.5,29.7z"
       id="path2" /><path
       d="M53.6,54.2l7.5-12.6H38.6l-5,24.5L33.3,67h8.3l-5.3,20l21.3-20.9l12.2-11.9H53.6z M48.4,61.8h-8.7l3.1-15h9.1l-7.5,12.6   h12.6L46.2,70L48.4,61.8z"
       id="path4" /></g></svg>