<svg xmlns="http://www.w3.org/2000/svg" viewBox="0 0 512 640" x="0px" y="0px"><title>Artboard 7</title><g data-name="Layer 2"><path d="M489.09,286.47c.15-.18.29-.37.42-.57s.27-.4.4-.6.19-.29.27-.45.19-.36.29-.55l.1-.18.17-.36.08-.17A86.14,86.14,0,0,0,499,246.7,87.08,87.08,0,0,0,372.57,169,141.44,141.44,0,0,0,238.43,71.8a141.18,141.18,0,0,0-130.82,88.11c-2.49-.21-5-.33-7.49-.33A87.22,87.22,0,0,0,13,246.7a86.14,86.14,0,0,0,8.2,36.92l0,.05.21.46.12.23c.08.16.16.32.25.48s.25.43.39.64l.23.34q.24.35.51.68l.2.24q.26.3.53.59l.18.19c.25.24.5.48.77.7l.1.08q.34.28.71.53l.31.21.56.34.35.2q.4.21.81.39l.46.18.49.18.48.15.78.2.43.09.76.12.33,0c.36,0,.72.06,1.08.06H479.73c.36,0,.72,0,1.08-.05l.34,0,.74-.11.51-.1.7-.18.51-.16.45-.16.5-.2q.4-.17.78-.38l.4-.23.5-.3.36-.24c.21-.15.42-.3.62-.46l.18-.14c.25-.21.5-.44.74-.67l.23-.24q.24-.25.48-.52Zm-389-102.88a63.3,63.3,0,0,1,13,1.33l.2,0c.33.06.67.12,1,.16h.21c.33,0,.66.05,1,.05h.37c.27,0,.53,0,.8,0l.53-.07.62-.09.62-.15.51-.13c.22-.06.42-.14.63-.22l.46-.16c.21-.08.4-.18.6-.27l.45-.21c.18-.1.36-.2.54-.31l.46-.27c.16-.1.32-.22.47-.33s.32-.22.47-.34.28-.24.42-.36.31-.26.45-.4.26-.27.39-.41.28-.28.4-.43.27-.34.4-.51.22-.27.32-.41.29-.44.42-.67.14-.21.2-.33c.16-.28.3-.57.43-.87l.1-.2c.14-.32.26-.65.37-1l.06-.16v0h0a117.17,117.17,0,0,1,226.34,13.13c0,.07,0,.14,0,.21s.07.31.1.46.1.43.17.64.09.3.14.45.14.41.22.61.11.29.18.43.19.4.29.6l.21.4c.11.2.24.4.36.59l.22.34c.16.23.33.45.5.67l.16.2q.35.42.74.81l.22.2c.19.18.39.37.59.54l.33.25c.18.14.36.28.55.41l.38.25.56.34.41.22.58.28.43.18.62.23.44.14.67.17.43.1c.25,0,.5.08.76.12l.38.05c.38,0,.77.06,1.17.06s.78,0,1.16-.06l.37,0c.26,0,.51-.07.76-.12l.42-.1.67-.17.43-.14.63-.23.41-.17.61-.3.37-.2c.21-.12.42-.25.62-.38l.31-.2c.26-.18.51-.37.75-.56l.12-.09h0a62.42,62.42,0,0,1,39.1-13.57A63.16,63.16,0,0,1,471.68,267H40.32a63.16,63.16,0,0,1,59.79-83.37Z"/><path d="M81.29,362.72l-22.87-4.53,26.11-35A12,12,0,0,0,65.3,308.83L27.82,359.09A12,12,0,0,0,35.1,378l22.49,4.46L29.1,419.3a12,12,0,1,0,19,14.69l40.37-52.16a12,12,0,0,0-7.16-19.12Z"/><path d="M314.82,363.43,292,358.9l26.11-35a12,12,0,0,0-19.24-14.35L261.34,359.8a12,12,0,0,0,7.29,18.95l22.49,4.46L262.62,420a12,12,0,1,0,19,14.69L322,382.55a12,12,0,0,0-7.16-19.12Z"/><path d="M198.06,364.6l-22.87-4.53,26.11-35a12,12,0,1,0-19.24-14.35L144.58,361a12,12,0,0,0,7.29,18.95l22.49,4.46-28.5,36.82a12,12,0,1,0,19,14.69l40.37-52.16a12,12,0,0,0-7.16-19.12Z"/><path d="M431.58,365.31l-22.87-4.53,26.11-35a12,12,0,1,0-19.24-14.35L378.1,361.68a12,12,0,0,0,7.29,18.95l22.49,4.46-28.5,36.82a12,12,0,1,0,19,14.69l40.37-52.16a12,12,0,0,0-7.16-19.12Z"/></g><text x="0" y="527" fill="#000000" font-size="5px" font-weight="bold" font-family="'Helvetica Neue', Helvetica, Arial-Unicode, Arial, Sans-serif">Created by Yoyon Pujiyono</text><text x="0" y="532" fill="#000000" font-size="5px" font-weight="bold" font-family="'Helvetica Neue', Helvetica, Arial-Unicode, Arial, Sans-serif">from the Noun Project</text></svg>