<svg
  width="100"
  xmlns="http://www.w3.org/2000/svg"
  xmlns:xlink="http://www.w3.org/1999/xlink"
  version="1.1"
  x="0px"
  y="0px"
  viewBox="0 0 80 80"
  enable-background="new 0 0 70 70"

  fill="#31326f">
  <g>
  <path
    d="M40.755,77.99l-0.299-1.674c1.282-0.229,1.642-0.438,1.722-0.495c0.322-0.236,0.534-0.57,0.567-0.892   c0.017-0.169-0.024-0.253-0.036-0.266c-0.405-0.157-2.505-0.124-3.762-0.104c-1.491,0.023-2.777,0.044-3.453-0.084   c-0.18-0.034-0.36-0.062-0.541-0.088c-0.903-0.135-2.024-0.302-2.829-1.312c-0.939-1.175-0.657-2.824,0.085-3.779   c0.714-0.928,1.791-1.478,3.032-1.544c2.114-0.114,4.209-0.27,6.315-0.455c0.91-0.082,1.85-0.165,2.68-0.418l0.389-0.108   c1.31-0.353,1.654-0.595,1.712-0.734c-0.006-0.205-0.418-0.523-2.38-0.825c-0.237-0.037-0.446-0.069-0.607-0.104l-0.591-0.112   c-2.59-0.48-5.426-1.135-6.299-2.852c-0.242-0.474-0.432-1.243,0.035-2.217c0.981-2.05,4.103-1.646,5.274-1.492l0.232,0.03   c11.064,1.462,18.974,2.181,20.152,1.837c0.496-0.146,0.688-0.349,0.693-0.442c0.004-0.116-0.186-0.453-0.787-0.697   c-0.992-0.4-4.645-0.951-7.869-1.438c-2.691-0.406-5.232-0.79-6.455-1.107c-0.369-0.097-0.74-0.186-1.117-0.274   c-1.725-0.411-3.511-0.838-5.032-1.947c-1.823-1.332-1.861-2.487-1.572-3.222c0.657-1.671,3.626-2.251,5.52-2.024   c0.502,0.06,1.432,0.186,2.621,0.347c4.27,0.579,12.213,1.645,14.992,1.615c1.389-0.021,2.984-0.089,4.357-0.64   c1.199-0.479,2.242-1.516,3.107-3.079c0.504-0.908,0.887-1.877,1.113-2.803c0.154-0.833,0.723-12.774,1.064-20.593   c0-6.341-6.129-10.289-11.809-10.289h-2.338c-5.254,0-9.568,3.221-10.736,8.014c-0.193,0.799-0.465,0.775-3.788,0.483   c-5.05,0.003-9.211,3.153-10.278,7.842c-0.088,0.387-0.432,0.661-0.828,0.661h-5.182c-5.759,0-10.625,5.061-10.625,11.051   c0,5.989,4.866,11.05,10.625,11.05v1.7c-6.68,0-12.324-5.839-12.324-12.75s5.645-12.75,12.324-12.75h4.522   c1.473-5.113,6.146-8.5,11.841-8.5c0.805,0.067,1.685,0.134,2.24,0.164c1.57-5.21,6.395-8.664,12.209-8.664h2.338   c7.449,0,13.51,5.395,13.51,12.025c-0.207,4.719-0.895,20.061-1.113,20.958c-0.262,1.07-0.703,2.185-1.277,3.224   c-1.061,1.915-2.393,3.205-3.963,3.834c-1.643,0.658-3.424,0.738-4.963,0.761c-2.936,0.033-10.631-1.004-15.248-1.63   c-1.176-0.159-2.098-0.284-2.593-0.343c-1.596-0.193-3.517,0.396-3.737,0.959c-0.074,0.187,0.206,0.65,0.993,1.226   c1.245,0.909,2.789,1.276,4.423,1.666c0.387,0.092,0.773,0.185,1.15,0.283c1.137,0.296,3.635,0.672,6.279,1.071   c3.639,0.549,7.076,1.067,8.254,1.543c1.188,0.48,1.896,1.384,1.848,2.357c-0.021,0.435-0.25,1.5-1.91,1.988   c-1.889,0.563-12.383-0.662-20.855-1.781l-0.229-0.03c-2.54-0.331-3.316,0.111-3.522,0.54c-0.178,0.373-0.121,0.577-0.053,0.712   c0.567,1.113,3.854,1.722,5.093,1.951l0.631,0.121c0.137,0.028,0.315,0.055,0.519,0.086c1.33,0.205,3.804,0.586,3.818,2.501   c0.014,1.576-1.926,2.1-2.966,2.381l-0.339,0.094c-0.996,0.303-2.025,0.396-3.021,0.484c-2.127,0.188-4.243,0.344-6.373,0.459   c-0.739,0.04-1.372,0.355-1.781,0.887c-0.344,0.443-0.467,1.223-0.102,1.68c0.37,0.463,0.906,0.563,1.75,0.688   c0.205,0.031,0.41,0.062,0.61,0.1c0.505,0.098,1.89,0.075,3.108,0.056c2.604-0.04,3.899-0.027,4.535,0.277   c0.563,0.272,0.922,0.819,0.982,1.503c0.087,0.942-0.395,1.919-1.256,2.552C42.728,77.525,41.979,77.771,40.755,77.99z"/>
  </g>
</svg>