<svg id="Lager_1" data-name="Lager 1" xmlns="http://www.w3.org/2000/svg" viewBox="0 0 58.98 65.98"><defs><style>.cls-1{fill:#5e5e6f;}</style></defs><path class="cls-1" d="M50.76,78l-.3-1.67a4.71,4.71,0,0,0,1.72-.5,1.38,1.38,0,0,0,.57-.89.51.51,0,0,0,0-.27,23.88,23.88,0,0,0-3.76-.1,22.67,22.67,0,0,1-3.46-.09L45,74.39a4.07,4.07,0,0,1-2.83-1.32,3.14,3.14,0,0,1,.09-3.77,4,4,0,0,1,3-1.55c2.12-.11,4.21-.27,6.32-.45a14.42,14.42,0,0,0,2.68-.42l.39-.11c1.31-.35,1.65-.59,1.71-.73s-.42-.53-2.38-.83l-.61-.1L52.76,65c-2.59-.48-5.43-1.14-6.3-2.86a2.39,2.39,0,0,1,0-2.21c1-2,4.1-1.65,5.27-1.5l.23,0c11.07,1.47,19,2.19,20.15,1.84.5-.14.69-.35.7-.44s-.19-.45-.79-.7a65.34,65.34,0,0,0-7.87-1.44c-2.69-.4-5.23-.79-6.45-1.1l-1.12-.28a13.43,13.43,0,0,1-5-1.94c-1.83-1.34-1.86-2.49-1.58-3.22.66-1.68,3.63-2.26,5.52-2l2.63.35c4.27.58,12.21,1.64,15,1.61a12.32,12.32,0,0,0,4.35-.64,6.44,6.44,0,0,0,3.11-3.08,10.82,10.82,0,0,0,1.11-2.8c.16-.83.73-12.77,1.07-20.59,0-6.34-6.13-10.29-11.81-10.29H68.64a10.68,10.68,0,0,0-10.73,8c-.2.8-.47.78-3.79.49a10.22,10.22,0,0,0-10.28,7.84.85.85,0,0,1-.83.66H37.83c-5.76,0-10.63,5.06-10.63,11s4.87,11.05,10.63,11.05v1.7c-6.68,0-12.32-5.84-12.32-12.75S31.15,29,37.83,29h4.52a11.94,11.94,0,0,1,11.84-8.5c.81.07,1.69.13,2.24.16A12.4,12.4,0,0,1,68.64,12H71c7.45,0,13.51,5.4,13.51,12-.21,4.71-.9,20.06-1.11,21a13.93,13.93,0,0,1-1.28,3.23,8.14,8.14,0,0,1-4,3.83,13.78,13.78,0,0,1-5,.76c-2.93,0-10.63-1-15.24-1.63l-2.6-.34c-1.59-.19-3.51.4-3.73,1-.08.19.2.65,1,1.22A12,12,0,0,0,57,54.69l1.15.28c1.14.3,3.64.68,6.28,1.07a57.85,57.85,0,0,1,8.25,1.55,2.56,2.56,0,0,1,1.85,2.35c0,.44-.25,1.5-1.91,2-1.89.57-12.38-.66-20.85-1.78l-.23,0c-2.54-.33-3.32.11-3.52.54a.76.76,0,0,0-.06.71c.57,1.12,3.86,1.73,5.1,2l.63.13.52.08c1.33.21,3.8.59,3.81,2.5,0,1.58-1.92,2.1-3,2.38l-.34.1a15.18,15.18,0,0,1-3,.48c-2.13.19-4.24.35-6.37.46a2.38,2.38,0,0,0-1.79.89,1.48,1.48,0,0,0-.1,1.68c.37.46.91.56,1.75.69l.61.1a25.81,25.81,0,0,0,3.11,0c2.6,0,3.9,0,4.54.28a1.78,1.78,0,0,1,1,1.5,2.93,2.93,0,0,1-1.26,2.55A6.06,6.06,0,0,1,50.76,78Z" transform="translate(-25.51 -12.01)"/></svg>