<svg id="Capa_1" enable-background="new 0 0 512 512" height="512" viewBox="0 0 512 512" width="512" xmlns="http://www.w3.org/2000/svg"><g><g><path d="m348.628 0h-185.256c-8.587 0-16.821 3.411-22.893 9.483l-130.996 130.996c-6.072 6.071-9.483 14.306-9.483 22.893v185.256c0 8.587 3.411 16.821 9.483 22.893l130.996 130.996c6.072 6.072 14.306 9.483 22.893 9.483h185.256c8.587 0 16.821-3.411 22.893-9.483l130.996-130.996c6.072-6.072 9.483-14.306 9.483-22.893v-185.256c0-8.587-3.411-16.821-9.483-22.893l-130.996-130.996c-6.071-6.072-14.306-9.483-22.893-9.483z" fill="#fd4755"/><path d="m371.521 9.483c-6.071-6.072-14.306-9.483-22.893-9.483h-68.547c3.068 4.748 6.737 10.118 11.054 15.884 1.085 1.448 2.168 2.858 3.251 4.247h-.658c14.061 17.268 77.544 98.997 66.17 213.256-15.685 157.559-159.186 231.021-168.484 235.583-11.803 6.114-22.439 10.742-31.213 14.212-9.451 3.248-17.77 8.296-24.557 14.502l4.834 4.834c6.072 6.072 14.307 9.483 22.893 9.483h185.256c8.587 0 16.822-3.411 22.893-9.483l130.996-130.996c6.072-6.072 9.482-14.306 9.482-22.893v-185.257c0-8.587-3.411-16.821-9.482-22.893z" fill="#fb2b3a"/><path d="m341.887 30.98h-171.774c-4.687 0-9.181 1.862-12.495 5.176l-121.462 121.462c-3.314 3.314-5.176 7.808-5.176 12.495v171.774c0 4.687 1.862 9.181 5.176 12.495l121.462 121.462c3.314 3.314 7.808 5.176 12.495 5.176h171.774c4.687 0 9.181-1.862 12.495-5.176l121.462-121.462c3.314-3.314 5.176-7.808 5.176-12.495v-171.774c0-4.687-1.862-9.181-5.176-12.495l-121.462-121.462c-3.314-3.314-7.809-5.176-12.495-5.176z" fill="#f5f8f9"/><path d="m354.382 36.156c-3.314-3.314-7.809-5.176-12.495-5.176h-39.768c21.867 29.762 67.572 104.023 57.778 202.407-15.684 157.559-159.185 231.021-168.483 235.583-9.127 4.727-17.543 8.558-24.953 11.661 1.192.252 2.414.39 3.651.39h171.774c4.686 0 9.181-1.862 12.495-5.176l121.463-121.462c3.314-3.314 5.176-7.808 5.176-12.495v-171.775c0-4.687-1.862-9.181-5.176-12.495z" fill="#e8edf2"/></g><g><g><g><path d="m256 125.993c-4.268 0-7.726-3.459-7.726-7.726v-29.13c0-4.268 3.459-7.726 7.726-7.726s7.726 3.459 7.726 7.726v29.13c0 4.267-3.458 7.726-7.726 7.726z" fill="#fac600"/></g><g><path d="m256 430.59c-4.268 0-7.726-3.459-7.726-7.726v-29.13c0-4.268 3.459-7.726 7.726-7.726s7.726 3.459 7.726 7.726v29.13c0 4.267-3.458 7.726-7.726 7.726z" fill="#fac600"/></g></g><g><g><path d="m118.267 263.726h-29.13c-4.268 0-7.726-3.459-7.726-7.726s3.459-7.726 7.726-7.726h29.13c4.268 0 7.726 3.459 7.726 7.726s-3.459 7.726-7.726 7.726z" fill="#fac600"/></g><g><path d="m422.863 263.726h-29.13c-4.268 0-7.726-3.459-7.726-7.726s3.459-7.726 7.726-7.726h29.13c4.268 0 7.726 3.459 7.726 7.726s-3.458 7.726-7.726 7.726z" fill="#fac600"/></g></g><g><g><path d="m353.392 166.334c-1.977 0-3.955-.755-5.464-2.263-3.017-3.018-3.017-7.909 0-10.928l20.598-20.598c3.018-3.016 7.909-3.016 10.928 0 3.017 3.018 3.017 7.909 0 10.928l-20.598 20.598c-1.509 1.508-3.487 2.263-5.464 2.263z" fill="#fac600"/></g><g><path d="m138.01 381.716c-1.977 0-3.955-.755-5.464-2.263-3.017-3.018-3.017-7.909 0-10.928l20.598-20.598c3.018-3.016 7.909-3.016 10.928 0 3.017 3.018 3.017 7.909 0 10.928l-20.598 20.598c-1.509 1.509-3.487 2.263-5.464 2.263z" fill="#fac600"/></g></g><g><g><path d="m158.608 166.334c-1.977 0-3.955-.755-5.464-2.263l-20.598-20.598c-3.017-3.018-3.017-7.909 0-10.928 3.018-3.016 7.909-3.016 10.928 0l20.598 20.598c3.017 3.018 3.017 7.909 0 10.928-1.51 1.508-3.487 2.263-5.464 2.263z" fill="#fac600"/></g><g><path d="m373.99 381.716c-1.977 0-3.955-.755-5.464-2.263l-20.598-20.598c-3.017-3.018-3.017-7.909 0-10.928 3.018-3.016 7.909-3.016 10.928 0l20.598 20.598c3.017 3.018 3.017 7.909 0 10.928-1.509 1.509-3.487 2.263-5.464 2.263z" fill="#fac600"/></g></g></g><circle cx="256" cy="256" fill="#fed402" r="137.83"/><path d="m291.273 389.267c59.031-15.583 102.557-69.339 102.557-133.267 0-35.762-13.622-68.341-35.957-92.837 3.406 21.615 4.523 45.133 2.025 70.224-6.631 66.607-36.105 118.183-68.625 155.88z" fill="#f7bc09"/><g><g><g><path d="m297.481 298.351c-3.926 0-7.438-2.477-8.754-6.18l-23.694-68.263c-1.399-4.031.734-8.433 4.766-9.832 4.027-1.403 8.434.734 9.832 4.766l17.722 51.055 16.886-50.83c1.345-4.05 5.721-6.241 9.768-4.896 4.049 1.345 6.242 5.718 4.896 9.768l-22.61 68.061c-1.288 3.792-4.797 6.323-8.747 6.35-.022.001-.044.001-.065.001z" fill="#fff"/></g></g><g><g><path d="m214.097 298.351c-.017 0-.033 0-.049 0-6.183-.008-11.874-1.646-16.914-4.866-9.71-6.204-14.431-14.205-14.431-24.459v-47.651c0-4.268 3.459-7.726 7.726-7.726s7.726 3.459 7.726 7.726v47.651c0 4.811 2.115 8.125 7.298 11.437 2.558 1.635 5.376 2.432 8.615 2.436h.028c2.897 0 5.563-.603 7.926-1.792 7.8-3.929 8.8-8.546 8.8-12.131v-47.601c0-4.268 3.459-7.726 7.726-7.726s7.726 3.459 7.726 7.726v47.601c0 7.854-3.002 18.729-17.302 25.932-4.538 2.284-9.543 3.443-14.875 3.443z" fill="#fff"/></g></g></g></g></svg>