<svg id="Layer_1" data-name="Layer 1" xmlns="http://www.w3.org/2000/svg" viewBox="0 0 423.68 348.59"><defs><style>.cls-1,.cls-2{fill:#76ceda;}.cls-1,.cls-2,.cls-3{stroke:#fff;stroke-miterlimit:10;stroke-width:0.98px;}.cls-1{opacity:0.16;}.cls-2{opacity:0.39;}.cls-3{fill:#dfe4e5;opacity:0.7;}</style></defs><title>waves</title><path class="cls-1" d="M102.61,507.35l416,2.2s14.23-309.29-8.18-318.25c-6.88-2.75-42.19-23.39-69.25-9.17-45.63,24-70.95-37.4-108.71-4.13s-55.43-28.26-103.76,8c-27.43,20.59-41.64-17.95-79.66,7.58-23.53,15.8-32.44-1.86-44.37,17.58C101.07,217.09,102.61,507.35,102.61,507.35Z" transform="translate(-100.72 -167.38)"/><path class="cls-2" d="M101.21,514.69l418.24.46s14.23-309.29-8.18-318.25c-6.88-2.76-42.2-23.39-69.25-9.18-45.63,24-71-37.39-108.71-4.12s-55.43-28.26-103.76,8c-27.43,20.59-41.65-18-79.66,7.58-23.53,15.8-32.45-1.86-44.37,17.58C101.88,222.69,101.21,514.69,101.21,514.69Z" transform="translate(-100.72 -167.38)"/><path class="cls-3" d="M101.45,513.73l416.87,1.75s10.76-230.51-1-301.06c-1.73-10.41,7.35-.19-15.06-9.15-6.88-2.76-32.56-22-59.62-7.8-45.63,24-71-37.4-108.71-4.12s-55.43-28.27-103.76,8c-27.43,20.59-41.65-17.95-79.66,7.58-23.53,15.81-32.45-1.86-44.37,17.59C102.52,232.44,101.45,513.73,101.45,513.73Z" transform="translate(-100.72 -167.38)"/></svg>