<svg id="Capa_1" enable-background="new 0 0 512 512" height="512" viewBox="0 0 512 512" width="512" xmlns="http://www.w3.org/2000/svg"><path d="m440.542 254.769h-423.516c-9.403 0-17.026-7.623-17.026-17.026s7.623-17.026 17.026-17.026h423.515c20.625 0 37.406-16.78 37.406-37.406s-16.78-37.405-37.406-37.405c-13.996 0-26.717 7.719-33.197 20.144-4.348 8.338-14.631 11.572-22.969 7.224-8.337-4.348-11.573-14.632-7.224-22.969 12.368-23.718 36.658-38.451 63.39-38.451 39.402 0 71.458 32.056 71.458 71.458.001 39.401-32.055 71.457-71.457 71.457z" fill="#fca863"/><path d="m286.893 294.993h-269.867c-9.403 0-17.026 7.623-17.026 17.026s7.623 17.026 17.026 17.026h269.867c20.625 0 37.406 16.78 37.406 37.406 0 20.625-16.78 37.405-37.406 37.405-13.996 0-26.717-7.719-33.197-20.144-4.348-8.338-14.631-11.572-22.969-7.224-8.337 4.348-11.573 14.632-7.224 22.969 12.368 23.718 36.658 38.451 63.39 38.451 39.402 0 71.458-32.056 71.458-71.458.001-39.401-32.056-71.457-71.458-71.457z" fill="#fca863"/><g fill="#e0d3ce"><path d="m456.992 300.801h-.107c-4.268 0-7.726-3.459-7.726-7.726s3.459-7.726 7.726-7.726h.107c4.268 0 7.726 3.459 7.726 7.726s-3.458 7.726-7.726 7.726z"/><path d="m187.031 426.832h-.107c-4.267 0-7.726-3.459-7.726-7.726s3.459-7.726 7.726-7.726h.107c4.267 0 7.726 3.459 7.726 7.726.001 4.267-3.459 7.726-7.726 7.726z"/><path d="m314.72 175.468h-.107c-4.268 0-7.726-3.459-7.726-7.726s3.459-7.726 7.726-7.726h.107c4.268 0 7.726 3.459 7.726 7.726.001 4.267-3.458 7.726-7.726 7.726z"/><path d="m154.065 90.993h-.107c-4.267 0-7.726-3.459-7.726-7.726s3.459-7.726 7.726-7.726h.107c4.267 0 7.726 3.459 7.726 7.726.001 4.267-3.459 7.726-7.726 7.726z"/></g><path d="m186.978 384.595h-121.562c-4.267 0-7.726-3.459-7.726-7.726s3.459-7.726 7.726-7.726h121.561c4.267 0 7.726 3.459 7.726 7.726s-3.458 7.726-7.725 7.726z" fill="#f8f3f1"/><ellipse cx="249.281" cy="112.582" fill="#bcea73" rx="56.279" ry="38.673" transform="matrix(.707 -.707 .707 .707 -6.595 209.242)"/><path d="m276.624 139.927c-14.433 14.433-34.357 20.016-53.044 16.74 11.775-2.06 23.055-7.644 32.152-16.74 18.152-18.152 22.314-45.009 12.445-67.137-4.543-2.019-9.272-3.462-14.093-4.296 11.734-2.06 23.952-.628 34.995 4.296 9.859 22.129 5.697 48.985-12.455 67.137z" fill="#99d53b"/><path d="m183.376 170.966c-3.676 0-6.934-2.632-7.598-6.377-.746-4.201 2.055-8.212 6.257-8.958 35.012-6.217 60.184-46.46 60.434-46.866 2.238-3.629 6.996-4.765 10.627-2.53 3.632 2.233 4.77 6.984 2.54 10.618-1.164 1.897-28.99 46.551-70.899 53.992-.458.082-.913.121-1.361.121z" fill="#8dc637"/><path d="m154.065 130.14h-57.743c-4.267 0-7.726-3.459-7.726-7.726s3.459-7.726 7.726-7.726h57.743c4.267 0 7.726 3.459 7.726 7.726.001 4.267-3.459 7.726-7.726 7.726z" fill="#f8f3f1"/><path d="m449.674 85.564h-114.35c-4.268 0-7.726-3.459-7.726-7.726s3.459-7.726 7.726-7.726h114.35c4.268 0 7.726 3.459 7.726 7.726s-3.458 7.726-7.726 7.726z" fill="#f8f3f1"/><ellipse cx="447.72" cy="394.243" fill="#bcea73" rx="38.673" ry="56.279" transform="matrix(.884 -.468 .468 .884 -132.439 255.331)"/><path d="m413.544 412.338c-9.551-18.039-9.03-38.723-.404-55.621-1.493 11.86.527 24.284 6.547 35.653 12.012 22.687 36.458 34.561 60.51 31.635 3.266-3.749 6.035-7.844 8.25-12.207-1.481 11.821-6.442 23.078-14.396 32.185-24.049 2.916-48.495-8.958-60.507-31.645z" fill="#99d53b"/><path d="m447.565 401.68c-2.141 0-4.27-.885-5.797-2.619-1.471-1.67-35.968-41.396-30.758-83.641.523-4.235 4.39-7.246 8.614-6.722 4.235.522 7.244 4.379 6.722 8.614-4.352 35.293 26.71 71.185 27.024 71.543 2.811 3.206 2.496 8.087-.706 10.901-1.467 1.29-3.287 1.924-5.099 1.924z" fill="#8dc637"/></svg>