<?xml version="1.0" encoding="iso-8859-1"?>
<!-- Uploaded to: SVG Repo, www.svgrepo.com, Generator: SVG Repo Mixer Tools -->
<svg fill="#000000" height="800px" width="800px" version="1.1" id="Layer_1" xmlns="http://www.w3.org/2000/svg" xmlns:xlink="http://www.w3.org/1999/xlink" 
	 viewBox="0 0 512 512" xml:space="preserve">
<g transform="translate(0 1)">
	<g>
		<g>
			<path d="M226.025,485.4c5.12,0,8.533-3.413,8.533-8.533v-8.533c0-5.12-3.413-8.533-8.533-8.533c-5.12,0-8.533,3.413-8.533,8.533
				v8.533C217.492,481.987,220.905,485.4,226.025,485.4z"/>
			<path d="M260.158,485.4c5.12,0,8.533-3.413,8.533-8.533v-8.533c0-5.12-3.413-8.533-8.533-8.533c-5.12,0-8.533,3.413-8.533,8.533
				v8.533C251.625,481.987,255.038,485.4,260.158,485.4z"/>
			<path d="M294.292,485.4c5.12,0,8.533-3.413,8.533-8.533v-8.533c0-5.12-3.413-8.533-8.533-8.533c-5.12,0-8.533,3.413-8.533,8.533
				v8.533C285.758,481.987,289.172,485.4,294.292,485.4z"/>
			<path d="M328.425,485.4c5.12,0,8.533-3.413,8.533-8.533v-8.533c0-5.12-3.413-8.533-8.533-8.533s-8.533,3.413-8.533,8.533v8.533
				C319.892,481.987,323.305,485.4,328.425,485.4z"/>
			<path d="M362.558,485.4c5.12,0,8.533-3.413,8.533-8.533v-8.533c0-5.12-3.413-8.533-8.533-8.533s-8.533,3.413-8.533,8.533v8.533
				C354.025,481.987,357.438,485.4,362.558,485.4z"/>
			<path d="M302.825-1c-70.827,0-128,57.173-128,128v95.573c-7.68-16.213-17.92-31.573-28.16-41.813
				c-13.653-13.653-40.96-14.507-56.32-1.707c-4.267,4.267-18.773,19.627,0.853,46.933c17.92,25.6,32.427,81.92,32.427,114.347
				c0,68.385,44.328,99.121,59.733,107.576v37.49c0,14.507,11.093,25.6,25.6,25.6h170.667c14.507,0,25.6-11.093,25.6-25.6v-39.558
				c25.596-34.759,25.6-38.832,25.6-105.509v-212.48V127C430.825,56.173,373.652-1,302.825-1z M388.158,485.4
				c0,5.12-3.413,8.533-8.533,8.533H208.958c-5.12,0-8.533-3.413-8.533-8.533v-34.133h187.733V485.4z M413.758,127v213.333
				c0,63.147,0,64.853-21.333,93.867H193.598c-8.533-4.267-52.907-29.867-52.907-93.867c0-31.573-13.653-93.867-35.84-124.587
				c-5.973-7.68-11.093-17.92-3.413-23.893c8.533-6.827,25.6-6.827,33.28,0.853c21.333,21.333,40.107,66.56,40.107,87.893
				c0,5.12,3.413,8.533,8.533,8.533s8.533-3.413,8.533-8.533V127c0-61.44,49.493-110.933,110.933-110.933
				c60.587,0,110.933,49.493,110.933,110.08V127z"/>
			<path d="M377.918,191c2.56-4.267,1.707-9.387-2.56-11.947s-9.387-1.707-11.947,2.56L348.62,203.8h-12.75
				c-3.105-11.949-12.563-21.408-24.512-24.512v-12.75l22.187-14.791c4.267-2.56,5.12-7.68,2.56-11.947s-7.68-5.12-11.947-2.56
				l-12.8,8.533V127c0-5.12-3.413-8.533-8.533-8.533s-8.533,3.413-8.533,8.533v17.92l-12.8-8.533
				c-4.267-2.56-9.387-1.707-11.947,2.56s-1.707,9.387,2.56,11.947l22.187,14.791v13.603c-11.949,3.105-21.408,12.563-24.512,24.512
				H256.46l-14.222-21.333c-2.56-4.267-7.68-5.12-11.947-2.56c-4.267,2.56-5.12,7.68-2.56,11.947l7.964,11.947h-18.204
				c-5.12,0-8.533,3.413-8.533,8.533c0,5.12,3.413,8.533,8.533,8.533h17.351l-7.964,11.947c-2.56,4.267-1.707,9.387,2.56,11.947
				c1.707,0.853,3.413,1.707,5.12,1.707c2.56,0,5.12-1.707,6.827-4.267l14.222-21.333h14.172
				c3.105,11.949,12.563,21.408,24.512,24.512v14.172l-21.333,14.222c-4.267,2.56-5.12,7.68-2.56,11.947
				c1.707,1.707,4.267,3.413,6.827,3.413c1.707,0,3.413-0.853,5.12-0.853l11.947-7.964v17.351c0,5.12,3.413,8.533,8.533,8.533
				s8.533-3.413,8.533-8.533v-18.204l11.947,7.964c1.707,0.853,3.413,1.707,5.12,1.707c2.56,0,5.12-1.707,6.827-4.267
				c2.56-4.267,1.707-9.387-2.56-11.947l-21.333-14.222v-13.319c11.949-3.105,21.408-12.563,24.512-24.512h13.603l14.791,22.187
				c1.707,1.707,4.267,3.413,6.827,3.413c1.707,0,3.413-0.853,5.12-0.853c4.267-2.56,5.12-7.68,2.56-11.947l-8.533-12.8h17.92
				c5.12,0,8.533-3.413,8.533-8.533c0-5.12-3.413-8.533-8.533-8.533h-18.773L377.918,191z M302.825,229.4
				c-9.387,0-17.067-7.68-17.067-17.067c0-9.387,7.68-17.067,17.067-17.067c9.387,0,17.067,7.68,17.067,17.067
				C319.892,221.72,312.212,229.4,302.825,229.4z"/>
		</g>
	</g>
</g>
</svg>