<svg xmlns="http://www.w3.org/2000/svg" width="73.05" height="51.716" viewBox="0 0 73.05 51.716">
  <g id="noun_Sunglasses_2055147" transform="translate(0 -2.998)">
    <g id="Group_7" data-name="Group 7" transform="translate(0 2.998)">
      <g id="Group_6" data-name="Group 6">
        <g id="Group_1" data-name="Group 1" transform="translate(0 24.387)">
          <path id="Path_1" data-name="Path 1" d="M17.492,38.339c-3.153,0-5.975-.527-7.725-1.781A15.769,15.769,0,0,1,3.2,25.632c-.04-.24-.064-.426-.1-.551-.28-1-1.72-1.848-2.2-2.067A1.541,1.541,0,0,1,0,21.623V15.536a1.523,1.523,0,0,1,1.059-1.449c19.638-6.291,32.026-1.163,34.3-.073h2.328c2.274-1.087,14.656-6.218,34.3.073a1.524,1.524,0,0,1,1.056,1.449v6.088a1.523,1.523,0,0,1-.9,1.391c-.475.216-1.915,1.065-2.195,2.064-.033.125-.061.31-.1.551a15.768,15.768,0,0,1-6.565,10.927c-3.619,2.6-11.825,2.076-18.062.222-7.034-2.094-8.6-9.944-8.672-10.306h0a.938.938,0,0,0-.03-.125c0,.024-.009.052-.015.079-.07.377-1.631,8.252-8.678,10.349A37.629,37.629,0,0,1,17.492,38.339ZM39.541,25.906c.027.134,1.33,6.4,6.547,7.956,6.864,2.042,13.35,1.7,15.42.222a12.578,12.578,0,0,0,5.336-8.943c.064-.387.119-.688.173-.886a6.562,6.562,0,0,1,2.989-3.54v-4.06c-19.5-5.9-31.119.155-31.238.219a1.529,1.529,0,0,1-.721.183H35a1.551,1.551,0,0,1-.718-.18c-.116-.064-11.837-6.094-31.241-.222v4.06a6.534,6.534,0,0,1,2.986,3.54,7.745,7.745,0,0,1,.173.883,12.572,12.572,0,0,0,5.336,8.943c2.067,1.479,8.553,1.82,15.42-.222,5.25-1.561,6.535-7.9,6.547-7.956a3.086,3.086,0,0,1,2.949-2.773A3.261,3.261,0,0,1,39.541,25.906Z" transform="translate(0 -11.01)" fill="#2a5510"/>
        </g>
        <g id="Group_2" data-name="Group 2" transform="translate(48.699)">
          <path id="Path_2" data-name="Path 2" d="M38.829,33.433a1.52,1.52,0,0,1-1.333-.785L23.233,6.8a1.521,1.521,0,0,0-2.773.356l-1.516,3.978a1.522,1.522,0,0,1-2.843-1.09l1.473-3.853a4.445,4.445,0,0,1,3.8-3.153A4.492,4.492,0,0,1,25.887,5.3L40.159,31.171a1.527,1.527,0,0,1-.6,2.07A1.484,1.484,0,0,1,38.829,33.433Z" transform="translate(-16 -2.998)" fill="#2a5510"/>
        </g>
        <g id="Group_3" data-name="Group 3" transform="translate(0.001 0.002)">
          <path id="Path_3" data-name="Path 3" d="M1.521,33.431a1.521,1.521,0,0,1-1.33-2.258L14.454,5.322a4.568,4.568,0,0,1,8.367.992l1.431,3.726a1.524,1.524,0,0,1-2.846,1.09L19.933,7.276a1.571,1.571,0,0,0-1.324-1.218,1.49,1.49,0,0,0-1.507.758L2.851,32.646A1.512,1.512,0,0,1,1.521,33.431Z" transform="translate(0 -2.999)" fill="#2a5510"/>
        </g>
        <g id="Group_4" data-name="Group 4" transform="translate(9.162 30.952)">
          <path id="Path_4" data-name="Path 4" d="M4.727,21.519a1.522,1.522,0,0,1-1.491-1.227,14.017,14.017,0,0,1-.225-2.615,4.519,4.519,0,0,1,3.869-4.493A1.521,1.521,0,1,1,7.3,16.2a1.487,1.487,0,0,0-1.245,1.467,10.983,10.983,0,0,0,.17,2.039,1.521,1.521,0,0,1-1.2,1.787A1.673,1.673,0,0,1,4.727,21.519Z" transform="translate(-3.01 -13.167)" fill="#2a5510"/>
        </g>
        <g id="Group_5" data-name="Group 5" transform="translate(42.635 31.171)">
          <path id="Path_5" data-name="Path 5" d="M15.744,21.615a1.522,1.522,0,0,1-1.491-1.227,11.957,11.957,0,0,1-.228-2.952,4.523,4.523,0,0,1,3.631-4.167,1.523,1.523,0,1,1,.59,2.989,1.47,1.47,0,0,0-1.184,1.358,8.85,8.85,0,0,0,.177,2.182,1.526,1.526,0,0,1-1.2,1.79A1.616,1.616,0,0,1,15.744,21.615Z" transform="translate(-14.008 -13.239)" fill="#2a5510"/>
        </g>
      </g>
    </g>
  </g>
</svg>
