<?xml version="1.0" encoding="UTF-8"?>
<svg id="Capa_1" data-name="Capa 1" xmlns="http://www.w3.org/2000/svg" version="1.1" viewBox="0 0 73.3 73">
  <defs>
    <style>
      .cls-1 {
        fill: #030104;
        stroke-width: 0px;
      }
    </style>
  </defs>
  <g id="question_mark">
    <g>
      <path class="cls-1" d="M42,68c0,2.5-2,4.5-4.5,4.5s-4.5-2-4.5-4.5,2-4.5,4.5-4.5,4.5,2,4.5,4.5Z"/>
      <path class="cls-1" d="M37.6,58.9c-3,0-5.8-1.2-8-3.3-2.1-2.5-3.3-5.3-3.3-8.3s1.2-5.8,3.3-7.6l15-15c1.7-1.7,2.6-4,2.6-6.4s-.9-4.7-2.6-6.4c-3.5-3.5-9.2-3.5-12.7,0-1.7,1.7-2.6,4-2.6,6.4h-9c0-4.8,1.9-9.3,5.3-12.7,6.8-6.8,18.6-6.8,25.4,0,3.4,3.4,5.3,7.9,5.3,12.7s-1.9,9.3-5.3,12.7l-15,14.7c-.9.9-.9,2.3,0,3.2.9.9,2.3.9,3.2,0,.6-.6.7-1.2.7-1.6h9c0,3-1.2,5.8-3.3,8.3-2.1,2.1-4.9,3.3-8,3.3h0Z"/>
    </g>
  </g>
</svg>