<?xml version="1.0" encoding="iso-8859-1"?>
<!-- Uploaded to: SVG Repo, www.svgrepo.com, Generator: SVG Repo Mixer Tools -->
<svg fill="#000000" height="800px" width="800px" version="1.1" id="Layer_1" xmlns="http://www.w3.org/2000/svg" xmlns:xlink="http://www.w3.org/1999/xlink" 
	 viewBox="0 0 512 512" xml:space="preserve">
<g>
	<g>
		<path d="M410.071,502.251L371.89,240.836c-2.67-18.313-11.146-35.056-24.119-47.992c17.145-21.023,26.469-47.083,26.469-74.579
			c0-31.59-12.302-61.288-34.638-83.626C317.264,12.302,287.565,0,255.977,0c-31.59,0-61.288,12.302-83.626,34.639
			c-43.214,43.214-45.928,111.826-8.144,158.232c-12.959,12.932-21.428,29.665-24.098,47.962l-38.181,261.418
			c-0.358,2.447,0.367,4.93,1.985,6.802c1.617,1.872,3.969,2.947,6.443,2.947h291.286c2.474,0,4.825-1.075,6.443-2.947
			C409.705,507.181,410.429,504.699,410.071,502.251z M184.396,46.684c19.12-19.119,44.542-29.649,71.581-29.649
			s52.46,10.53,71.58,29.649c19.119,19.12,29.649,44.541,29.649,71.58c0,27.039-10.529,52.46-29.649,71.58l-63.062,63.062v-24.091
			l51.016-51.016c20.921-20.921,29.36-51.744,22.023-80.442c-2.739-10.714-10.055-19.636-20.071-24.479
			c-10.392-5.024-22.448-5.187-33.074-0.447c-8.959,3.997-18.519,6.024-28.413,6.024c-9.894,0-19.454-2.026-28.413-6.022
			c-10.629-4.741-22.685-4.579-33.075,0.447c-10.015,4.844-17.331,13.767-20.069,24.479c-7.337,28.697,1.102,59.521,22.023,80.442
			l51.017,51.017v24.09l-63.062-63.062C144.927,150.375,144.927,86.154,184.396,46.684z M247.459,494.965h-127.25l36.757-251.671
			c2.107-14.435,8.728-27.651,18.853-37.937l71.64,71.64V494.965z M208.487,165.753c-16.687-16.689-23.419-41.28-17.564-64.177
			c1.515-5.925,5.415-10.671,10.982-13.363c3.013-1.457,6.279-2.187,9.562-2.187c3.104,0,6.223,0.653,9.156,1.961
			c11.158,4.976,23.052,7.5,35.353,7.5c12.3,0,24.195-2.523,35.352-7.501c6.031-2.692,12.853-2.61,18.717,0.226
			c5.567,2.693,9.468,7.439,10.983,13.363c5.854,22.898-0.876,47.489-17.564,64.177l-47.488,47.49L208.487,165.753z
			 M264.494,494.965V276.997l71.666-71.666c10.138,10.29,16.767,23.514,18.874,37.964l36.758,251.67H264.494z"/>
	</g>
</g>
<g>
	<g>
		<path d="M366.875,430.365l-25.551-61.322c-1.811-4.342-6.798-6.397-11.139-4.586c-4.342,1.809-6.395,6.796-4.586,11.139
			l25.551,61.322c1.363,3.271,4.529,5.243,7.866,5.243c1.091,0,2.202-0.211,3.273-0.658
			C366.631,439.695,368.684,434.708,366.875,430.365z"/>
	</g>
</g>
<g>
	<g>
		<path d="M181.818,364.457c-4.342-1.809-9.328,0.243-11.139,4.586l-25.551,61.322c-1.809,4.343,0.244,9.329,4.586,11.139
			c1.071,0.446,2.18,0.658,3.273,0.658c3.335,0,6.503-1.973,7.866-5.243l25.551-61.322
			C188.213,371.253,186.16,366.266,181.818,364.457z"/>
	</g>
</g>
</svg>