<?xml version="1.0" encoding="iso-8859-1"?>
<!-- Uploaded to: SVG Repo, www.svgrepo.com, Generator: SVG Repo Mixer Tools -->
<svg fill="#000000" version="1.1" id="Layer_1" xmlns="http://www.w3.org/2000/svg" xmlns:xlink="http://www.w3.org/1999/xlink" 
	 viewBox="0 0 496 496" xml:space="preserve">
<g>
	<g>
		<g>
			<path d="M433.896,384H448v-16h-12.248C464.32,328.576,480,280.936,480,232C480,104.072,375.928,0,248,0S16,104.072,16,232
				c0,48.936,15.68,96.576,44.248,136H48v16h14.104l-20.576,96H24v16h448v-16h-17.528L433.896,384z M32,232
				c0-119.104,96.896-216,216-216s216,96.896,216,216c0,49.52-17.232,97.624-48.4,136H384V240h16v-36.944l-152-76l-152,76V240h16
				v128H80.4C49.232,329.624,32,281.52,32,232z M248,256c-26.472,0-48,21.528-48,48v64h-72V240h240v128h-72v-64
				C296,277.528,274.472,256,248,256z M280,304v64h-64v-64c0-17.648,14.352-32,32-32S280,286.352,280,304z M112,224v-11.056l136-68
				l136,68V224H112z M57.896,480l3.432-16H88v-16H64.752l6.856-32H88v-16H75.04l3.432-16h339.064l3.432,16H408v16h16.392l6.856,32
				H408v16h26.672l3.432,16H57.896z"/>
			<path d="M128,464h240v-64H128V464z M144,416h208v32H144V416z"/>
			<rect x="216" y="32" width="16" height="16"/>
			<rect x="256" y="64" width="16" height="16"/>
			<rect x="320" y="104" width="16" height="16"/>
			<rect x="336" y="48" width="16" height="16"/>
			<rect x="200" y="80" width="16" height="16"/>
			<rect x="144" y="48" width="16" height="16"/>
			<rect x="80" y="136" width="16" height="16"/>
			<rect x="128" y="120" width="16" height="16"/>
			<rect x="392" y="152" width="16" height="16"/>
			<rect x="432" y="208" width="16" height="16"/>
		</g>
	</g>
</g>
</svg>