<?xml version="1.0" encoding="utf-8"?>
<!-- Generator: Adobe Illustrator 16.0.0, SVG Export Plug-In . SVG Version: 6.00 Build 0)  -->
<!DOCTYPE svg PUBLIC "-//W3C//DTD SVG 1.1//EN" "http://www.w3.org/Graphics/SVG/1.1/DTD/svg11.dtd">
<svg version="1.1" id="Layer_1" xmlns="http://www.w3.org/2000/svg" xmlns:xlink="http://www.w3.org/1999/xlink" x="0px" y="0px"
	 width="115px" height="100px" viewBox="0 0 115 100" enable-background="new 0 0 115 100" xml:space="preserve">
<g>
	<path fill="none" stroke="#FFFFFF" stroke-width="2" stroke-linecap="round" stroke-linejoin="round" stroke-miterlimit="10" d="
		M60.957,31.896c3.553-4.232,8.884-6.922,14.841-6.922c10.697,0,19.368,8.672,19.368,19.368c0,2.675-0.543,5.224-1.521,7.54"/>
	
		<line fill="none" stroke="#FFFFFF" stroke-width="2" stroke-linecap="round" stroke-linejoin="round" stroke-miterlimit="10" x1="60.066" y1="23.059" x2="53.827" y2="16.143"/>
	
		<line fill="none" stroke="#FFFFFF" stroke-width="2" stroke-linecap="round" stroke-linejoin="round" stroke-miterlimit="10" x1="80.807" y1="17.033" x2="80.807" y2="9.027"/>
	
		<line fill="none" stroke="#FFFFFF" stroke-width="2" stroke-linecap="round" stroke-linejoin="round" stroke-miterlimit="10" x1="97.869" y1="27.327" x2="104.623" y2="20.573"/>
	
		<line fill="none" stroke="#FFFFFF" stroke-width="2" stroke-linecap="round" stroke-linejoin="round" stroke-miterlimit="10" x1="101.938" y1="42.729" x2="112.609" y2="42.729"/>
	<path fill="none" stroke="#FFFFFF" stroke-width="2" stroke-linecap="round" stroke-linejoin="round" stroke-miterlimit="10" d="
		M77.664,52.245c-1.678,0-3.293,0.235-4.846,0.635C70.613,43.021,61.826,35.65,51.303,35.65c-10.887,0-19.906,7.892-21.713,18.26
		c-2.396-1.063-5.044-1.666-7.835-1.666c-10.696,0-19.364,8.67-19.364,19.365s8.668,19.363,19.364,19.363c8.871,0,47.527,0,55.908,0
		c10.694,0,19.364-8.668,19.364-19.363S88.359,52.245,77.664,52.245z"/>
</g>
</svg>
