<?xml version="1.0" encoding="utf-8"?>
<!-- Generator: Adobe Illustrator 16.0.0, SVG Export Plug-In . SVG Version: 6.00 Build 0)  -->
<!DOCTYPE svg PUBLIC "-//W3C//DTD SVG 1.1//EN" "http://www.w3.org/Graphics/SVG/1.1/DTD/svg11.dtd">
<svg version="1.1" id="Layer_1" xmlns="http://www.w3.org/2000/svg" xmlns:xlink="http://www.w3.org/1999/xlink" x="0px" y="0px"
	 width="100px" height="100px" viewBox="0 0 100 100" enable-background="new 0 0 100 100" xml:space="preserve">
<g>
	<g>
		<path fill="none" stroke="#FFFFFF" stroke-width="2" stroke-linecap="round" stroke-linejoin="round" stroke-miterlimit="10" d="
			M93.785,47.526c3.096-3.023,5.215-7.047,5.846-11.543c-0.121,0.002-0.238,0.019-0.357,0.019c-11.067,0-20.041-8.974-20.041-20.041
			c0-0.953,0.09-1.882,0.219-2.8c-8.178,0.146-15.159,5.177-18.141,12.303"/>
	</g>
	<path fill="none" stroke="#FFFFFF" stroke-width="2" stroke-linecap="round" stroke-linejoin="round" stroke-miterlimit="10" d="
		M75.643,48.112c-1.678,0-3.293,0.236-4.846,0.636c-2.204-9.858-10.992-17.231-21.516-17.231c-10.887,0-19.907,7.893-21.713,18.26
		c-2.396-1.063-5.043-1.666-7.836-1.666c-10.694,0-19.363,8.669-19.363,19.365S9.038,86.84,19.732,86.84c8.871,0,47.529,0,55.908,0
		c10.695,0,19.364-8.67,19.364-19.365C95.006,56.779,86.337,48.112,75.643,48.112z"/>
</g>
</svg>
