<?xml version="1.0" encoding="utf-8"?>
<!-- Generator: Adobe Illustrator 16.0.0, SVG Export Plug-In . SVG Version: 6.00 Build 0)  -->
<!DOCTYPE svg PUBLIC "-//W3C//DTD SVG 1.1//EN" "http://www.w3.org/Graphics/SVG/1.1/DTD/svg11.dtd">
<svg version="1.1" id="Layer_1" xmlns="http://www.w3.org/2000/svg" xmlns:xlink="http://www.w3.org/1999/xlink" x="0px" y="0px"
	 width="100px" height="100px" viewBox="60 80 100 100" enable-background="new 60 80 100 100" xml:space="preserve">
<g>
	<g>
		<path fill="none" stroke="#000000" stroke-width="2" stroke-linecap="round" stroke-linejoin="round" stroke-miterlimit="10" d="
			M153.785,127.526c3.096-3.024,5.215-7.047,5.846-11.544c-0.121,0.002-0.238,0.019-0.358,0.019c-11.067,0-20.04-8.973-20.04-20.041
			c0-0.953,0.089-1.882,0.218-2.8c-8.177,0.146-15.159,5.177-18.14,12.303"/>
	</g>
	<path fill="none" stroke="#000000" stroke-width="2" stroke-linecap="round" stroke-linejoin="round" stroke-miterlimit="10" d="
		M135.642,128.112c-1.677,0-3.292,0.235-4.845,0.635c-2.204-9.859-10.992-17.231-21.516-17.231c-10.886,0-19.907,7.892-21.712,18.26
		c-2.396-1.063-5.044-1.666-7.836-1.666c-10.695,0-19.364,8.669-19.364,19.364c0,10.696,8.669,19.365,19.364,19.365
		c8.871,0,47.528,0,55.908,0c10.695,0,19.364-8.669,19.364-19.365C155.006,136.779,146.337,128.112,135.642,128.112z"/>
</g>
</svg>
