<?xml version="1.0" encoding="utf-8"?>
<!-- Generator: Adobe Illustrator 16.0.0, SVG Export Plug-In . SVG Version: 6.00 Build 0)  -->
<!DOCTYPE svg PUBLIC "-//W3C//DTD SVG 1.1//EN" "http://www.w3.org/Graphics/SVG/1.1/DTD/svg11.dtd">
<svg version="1.1" id="Layer_1" xmlns="http://www.w3.org/2000/svg" xmlns:xlink="http://www.w3.org/1999/xlink" x="0px" y="0px"
	 width="125px" height="100px" viewBox="0 0 125 100" enable-background="new 0 0 125 100" xml:space="preserve">
<g>
	<path fill="none" stroke="#FFFFFF" stroke-width="2" stroke-linecap="round" stroke-linejoin="round" stroke-miterlimit="10" d="
		M77.479,51.855c-1.676,0-3.293,0.233-4.844,0.635c-2.205-9.86-10.994-17.231-21.516-17.231c-10.888,0-19.908,7.892-21.714,18.261
		c-2.396-1.063-5.043-1.666-7.834-1.666c-10.695,0-19.365,8.67-19.365,19.364c0,10.695,8.669,19.365,19.365,19.365
		c8.871,0,47.527,0,55.908,0c10.695,0,19.365-8.67,19.365-19.365C96.848,60.527,88.176,51.855,77.479,51.855z"/>
	<path fill="none" stroke="#FFFFFF" stroke-width="2" stroke-linecap="round" stroke-linejoin="round" stroke-miterlimit="10" d="
		M103.43,64.742c10.695,0,19.365-8.669,19.365-19.364c0-10.694-8.67-19.364-19.365-19.364c-1.676,0-3.293,0.234-4.844,0.633
		C96.381,16.788,87.594,9.417,77.068,9.417c-10.887,0-19.907,7.892-21.712,18.26c-2.396-1.063-5.043-1.665-7.834-1.665
		c-7.357,0-13.756,4.102-17.033,10.143"/>
</g>
</svg>
