<?xml version="1.0" encoding="utf-8"?>
<!-- Generator: Adobe Illustrator 16.0.0, SVG Export Plug-In . SVG Version: 6.00 Build 0)  -->
<!DOCTYPE svg PUBLIC "-//W3C//DTD SVG 1.1//EN" "http://www.w3.org/Graphics/SVG/1.1/DTD/svg11.dtd">
<svg version="1.1" id="Layer_1" xmlns="http://www.w3.org/2000/svg" xmlns:xlink="http://www.w3.org/1999/xlink" x="0px" y="0px"
	 width="100px" height="100px" viewBox="0 0 100 100" enable-background="new 0 0 100 100" xml:space="preserve">
<g>
	<path fill="none" stroke="#FFFFFF" stroke-width="2" stroke-linecap="round" stroke-linejoin="round" stroke-miterlimit="10" d="
		M77.955,19.101c-1.678,0-3.293,0.235-4.846,0.636C70.906,9.877,62.117,2.505,51.593,2.505c-10.886,0-19.907,7.893-21.712,18.262
		c-2.396-1.063-5.044-1.666-7.835-1.666c-10.694,0-19.364,8.668-19.364,19.365c0,10.694,8.668,19.363,19.364,19.363
		c8.871,0,47.528,0,55.909,0c10.695,0,19.363-8.669,19.363-19.363C97.318,27.769,88.65,19.101,77.955,19.101z"/>
	
		<line fill="none" stroke="#FFFFFF" stroke-width="2" stroke-linecap="round" stroke-linejoin="round" stroke-miterlimit="10" x1="32.413" y1="57.833" x2="32.413" y2="69.155"/>
	
		<line fill="none" stroke="#FFFFFF" stroke-width="2" stroke-linecap="round" stroke-linejoin="round" stroke-miterlimit="10" x1="32.413" y1="79.035" x2="32.413" y2="87.095"/>
	
		<line fill="none" stroke="#FFFFFF" stroke-width="2" stroke-linecap="round" stroke-linejoin="round" stroke-miterlimit="10" x1="50.001" y1="68.115" x2="50.001" y2="80.335"/>
	
		<line fill="none" stroke="#FFFFFF" stroke-width="2" stroke-linecap="round" stroke-linejoin="round" stroke-miterlimit="10" x1="50.001" y1="89.955" x2="50.001" y2="97.495"/>
	
		<line fill="none" stroke="#FFFFFF" stroke-width="2" stroke-linecap="round" stroke-linejoin="round" stroke-miterlimit="10" x1="67.252" y1="92.035" x2="67.252" y2="83.065"/>
	
		<line fill="none" stroke="#FFFFFF" stroke-width="2" stroke-linecap="round" stroke-linejoin="round" stroke-miterlimit="10" x1="67.252" y1="65.515" x2="67.252" y2="57.833"/>
</g>
</svg>
