<?xml version="1.0" encoding="utf-8"?>
<!-- Generator: Adobe Illustrator 16.0.0, SVG Export Plug-In . SVG Version: 6.00 Build 0)  -->
<!DOCTYPE svg PUBLIC "-//W3C//DTD SVG 1.1//EN" "http://www.w3.org/Graphics/SVG/1.1/DTD/svg11.dtd">
<svg version="1.1" id="Layer_1" xmlns="http://www.w3.org/2000/svg" xmlns:xlink="http://www.w3.org/1999/xlink" x="0px" y="0px"
	 width="115px" height="115px" viewBox="0 0 115 115" enable-background="new 0 0 115 115" xml:space="preserve">
<g>
	<path fill="none" stroke="#FFFFFF" stroke-width="2" stroke-linecap="round" stroke-linejoin="round" stroke-miterlimit="10" d="
		M60.957,19.563c3.553-4.232,8.884-6.922,14.841-6.922c10.698,0,19.369,8.671,19.369,19.367c0,2.677-0.543,5.225-1.522,7.541"/>
	
		<line fill="none" stroke="#FFFFFF" stroke-width="2" stroke-linecap="round" stroke-linejoin="round" stroke-miterlimit="10" x1="60.066" y1="10.726" x2="53.827" y2="3.81"/>
	
		<line fill="none" stroke="#FFFFFF" stroke-width="2" stroke-linecap="round" stroke-linejoin="round" stroke-miterlimit="10" x1="80.807" y1="4.7" x2="80.807" y2="-3.306"/>
	
		<line fill="none" stroke="#FFFFFF" stroke-width="2" stroke-linecap="round" stroke-linejoin="round" stroke-miterlimit="10" x1="97.869" y1="14.994" x2="104.623" y2="8.24"/>
	
		<line fill="none" stroke="#FFFFFF" stroke-width="2" stroke-linecap="round" stroke-linejoin="round" stroke-miterlimit="10" x1="101.938" y1="30.395" x2="112.609" y2="30.395"/>
	<path fill="none" stroke="#FFFFFF" stroke-width="2" stroke-linecap="round" stroke-linejoin="round" stroke-miterlimit="10" d="
		M77.664,39.912c-1.678,0-3.293,0.235-4.846,0.636c-2.203-9.859-10.992-17.231-21.514-17.231c-10.888,0-19.908,7.892-21.714,18.261
		c-2.396-1.063-5.044-1.666-7.835-1.666c-10.695,0-19.365,8.669-19.365,19.364c0,10.696,8.67,19.364,19.365,19.364
		c8.872,0,47.528,0,55.909,0c10.694,0,19.364-8.668,19.364-19.364S88.359,39.912,77.664,39.912z"/>
	
		<line fill="none" stroke="#FFFFFF" stroke-width="2" stroke-linecap="round" stroke-linejoin="round" stroke-miterlimit="10" x1="32.122" y1="78.644" x2="32.122" y2="89.966"/>
	
		<line fill="none" stroke="#FFFFFF" stroke-width="2" stroke-linecap="round" stroke-linejoin="round" stroke-miterlimit="10" x1="32.122" y1="99.845" x2="32.122" y2="107.905"/>
	
		<line fill="none" stroke="#FFFFFF" stroke-width="2" stroke-linecap="round" stroke-linejoin="round" stroke-miterlimit="10" x1="49.711" y1="88.925" x2="49.711" y2="101.146"/>
	
		<line fill="none" stroke="#FFFFFF" stroke-width="2" stroke-linecap="round" stroke-linejoin="round" stroke-miterlimit="10" x1="49.711" y1="110.765" x2="49.711" y2="118.306"/>
	
		<line fill="none" stroke="#FFFFFF" stroke-width="2" stroke-linecap="round" stroke-linejoin="round" stroke-miterlimit="10" x1="66.963" y1="112.845" x2="66.963" y2="103.876"/>
	
		<line fill="none" stroke="#FFFFFF" stroke-width="2" stroke-linecap="round" stroke-linejoin="round" stroke-miterlimit="10" x1="66.963" y1="86.325" x2="66.963" y2="78.644"/>
</g>
</svg>
