<?xml version="1.0" encoding="utf-8"?>
<!-- Generator: Adobe Illustrator 16.0.0, SVG Export Plug-In . SVG Version: 6.00 Build 0)  -->
<!DOCTYPE svg PUBLIC "-//W3C//DTD SVG 1.1//EN" "http://www.w3.org/Graphics/SVG/1.1/DTD/svg11.dtd">
<svg version="1.1" id="Layer_1" xmlns="http://www.w3.org/2000/svg" xmlns:xlink="http://www.w3.org/1999/xlink" x="0px" y="0px"
	 width="115px" height="115px" viewBox="0 0 115 115" enable-background="new 0 0 115 115" xml:space="preserve">
<g>
	<g>
		<path fill="none" stroke="#FFFFFF" stroke-width="2" stroke-linecap="round" stroke-linejoin="round" stroke-miterlimit="10" d="
			M101.285,35.193c3.096-3.024,5.215-7.047,5.846-11.545c-0.121,0.002-0.236,0.02-0.357,0.02c-11.067,0-20.041-8.973-20.041-20.041
			c0-0.953,0.09-1.882,0.22-2.799c-8.179,0.146-15.16,5.177-18.142,12.303"/>
	</g>
	<path fill="none" stroke="#FFFFFF" stroke-width="2" stroke-linecap="round" stroke-linejoin="round" stroke-miterlimit="10" d="
		M83.143,35.777c-1.678,0-3.293,0.236-4.845,0.635c-2.205-9.859-10.993-17.23-21.516-17.23c-10.888,0-19.907,7.892-21.714,18.26
		c-2.396-1.063-5.043-1.666-7.834-1.666c-10.696,0-19.365,8.668-19.365,19.365c0,10.695,8.669,19.365,19.365,19.365
		c8.871,0,47.527,0,55.908,0c10.694,0,19.363-8.67,19.363-19.365C102.507,44.445,93.838,35.777,83.143,35.777z"/>
	
		<line fill="none" stroke="#FFFFFF" stroke-width="2" stroke-linecap="round" stroke-linejoin="round" stroke-miterlimit="10" x1="40.76" y1="74.51" x2="40.76" y2="85.832"/>
	
		<line fill="none" stroke="#FFFFFF" stroke-width="2" stroke-linecap="round" stroke-linejoin="round" stroke-miterlimit="10" x1="40.76" y1="95.713" x2="40.76" y2="103.773"/>
	
		<line fill="none" stroke="#FFFFFF" stroke-width="2" stroke-linecap="round" stroke-linejoin="round" stroke-miterlimit="10" x1="58.348" y1="84.793" x2="58.348" y2="97.012"/>
	
		<line fill="none" stroke="#FFFFFF" stroke-width="2" stroke-linecap="round" stroke-linejoin="round" stroke-miterlimit="10" x1="58.348" y1="106.633" x2="58.348" y2="114.172"/>
	
		<line fill="none" stroke="#FFFFFF" stroke-width="2" stroke-linecap="round" stroke-linejoin="round" stroke-miterlimit="10" x1="75.6" y1="108.713" x2="75.6" y2="99.742"/>
	
		<line fill="none" stroke="#FFFFFF" stroke-width="2" stroke-linecap="round" stroke-linejoin="round" stroke-miterlimit="10" x1="75.6" y1="82.193" x2="75.6" y2="74.51"/>
</g>
</svg>
