<?xml version="1.0" encoding="utf-8"?>
<!-- Generator: Adobe Illustrator 16.0.0, SVG Export Plug-In . SVG Version: 6.00 Build 0)  -->
<!DOCTYPE svg PUBLIC "-//W3C//DTD SVG 1.1//EN" "http://www.w3.org/Graphics/SVG/1.1/DTD/svg11.dtd">
<svg version="1.1" id="Layer_1" xmlns="http://www.w3.org/2000/svg" xmlns:xlink="http://www.w3.org/1999/xlink" x="0px" y="0px"
	 width="115px" height="115px" viewBox="52.5 72.5 115 115" enable-background="new 52.5 72.5 115 115" xml:space="preserve">
<g>
	<g>
		<path fill="none" stroke="#000000" stroke-width="2" stroke-linecap="round" stroke-linejoin="round" stroke-miterlimit="10" d="
			M153.785,107.693c3.096-3.024,5.215-7.047,5.846-11.544c-0.121,0.002-0.237,0.019-0.357,0.019
			c-11.068,0-20.041-8.973-20.041-20.041c0-0.953,0.089-1.882,0.219-2.799c-8.178,0.146-15.16,5.177-18.141,12.303"/>
	</g>
	<path fill="none" stroke="#000000" stroke-width="2" stroke-linecap="round" stroke-linejoin="round" stroke-miterlimit="10" d="
		M135.643,108.278c-1.678,0-3.293,0.235-4.845,0.634c-2.205-9.859-10.993-17.231-21.516-17.231
		c-10.887,0-19.907,7.892-21.713,18.261c-2.396-1.063-5.044-1.667-7.835-1.667c-10.696,0-19.365,8.669-19.365,19.365
		c0,10.696,8.669,19.366,19.365,19.366c8.871,0,47.527,0,55.908,0c10.695,0,19.364-8.67,19.364-19.366
		C155.007,116.945,146.338,108.278,135.643,108.278z"/>
	
		<line fill="none" stroke="#000000" stroke-width="2" stroke-linecap="round" stroke-linejoin="round" stroke-miterlimit="10" x1="93.26" y1="147.01" x2="93.26" y2="158.332"/>
	
		<line fill="none" stroke="#000000" stroke-width="2" stroke-linecap="round" stroke-linejoin="round" stroke-miterlimit="10" x1="93.26" y1="168.213" x2="93.26" y2="176.273"/>
	
		<line fill="none" stroke="#000000" stroke-width="2" stroke-linecap="round" stroke-linejoin="round" stroke-miterlimit="10" x1="110.848" y1="157.293" x2="110.848" y2="169.512"/>
	
		<line fill="none" stroke="#000000" stroke-width="2" stroke-linecap="round" stroke-linejoin="round" stroke-miterlimit="10" x1="110.848" y1="179.133" x2="110.848" y2="186.672"/>
	
		<line fill="none" stroke="#000000" stroke-width="2" stroke-linecap="round" stroke-linejoin="round" stroke-miterlimit="10" x1="128.1" y1="181.213" x2="128.1" y2="172.242"/>
	
		<line fill="none" stroke="#000000" stroke-width="2" stroke-linecap="round" stroke-linejoin="round" stroke-miterlimit="10" x1="128.1" y1="154.693" x2="128.1" y2="147.01"/>
</g>
</svg>
