<?xml version="1.0" encoding="utf-8"?>
<!-- Generator: Adobe Illustrator 16.0.0, SVG Export Plug-In . SVG Version: 6.00 Build 0)  -->
<!DOCTYPE svg PUBLIC "-//W3C//DTD SVG 1.1//EN" "http://www.w3.org/Graphics/SVG/1.1/DTD/svg11.dtd">
<svg version="1.1" id="Layer_1" xmlns="http://www.w3.org/2000/svg" xmlns:xlink="http://www.w3.org/1999/xlink" x="0px" y="0px"
	 width="130px" height="130px" viewBox="0 0 130 130" enable-background="new 0 0 130 130" xml:space="preserve">
<g>
	<path fill="none" stroke="#FFFFFF" stroke-width="2" stroke-linecap="round" stroke-linejoin="round" stroke-miterlimit="10" d="
		M79.979,42.924c-1.676,0-3.293,0.235-4.844,0.636c-2.205-9.859-10.992-17.23-21.516-17.23c-10.888,0-19.907,7.891-21.714,18.26
		c-2.396-1.063-5.043-1.666-7.834-1.666c-10.695,0-19.365,8.67-19.365,19.365s8.67,19.363,19.365,19.363c8.871,0,47.527,0,55.908,0
		c10.695,0,19.365-8.668,19.365-19.363S90.676,42.924,79.979,42.924z"/>
	<path fill="none" stroke="#FFFFFF" stroke-width="2" stroke-linecap="round" stroke-linejoin="round" stroke-miterlimit="10" d="
		M105.93,55.812c10.695,0,19.365-8.668,19.365-19.363s-8.67-19.365-19.365-19.365c-1.676,0-3.291,0.234-4.844,0.635
		c-2.205-9.859-10.992-17.23-21.518-17.23c-10.887,0-19.906,7.892-21.712,18.261c-2.396-1.063-5.043-1.666-7.834-1.666
		c-7.357,0-13.756,4.103-17.033,10.146"/>
	
		<polyline fill="none" stroke="#FFFFFF" stroke-width="2" stroke-linecap="round" stroke-linejoin="round" stroke-miterlimit="10" points="
		32.755,82.062 22.087,104.75 38.38,103.128 28.672,129.476 	"/>
	
		<polyline fill="none" stroke="#FFFFFF" stroke-width="2" stroke-linecap="round" stroke-linejoin="round" stroke-miterlimit="10" points="
		59.895,82.099 49.227,104.787 65.52,103.165 55.815,129.513 	"/>
	
		<polyline fill="none" stroke="#FFFFFF" stroke-width="2" stroke-linecap="round" stroke-linejoin="round" stroke-miterlimit="10" points="
		83.678,94.662 79.143,104.258 94.426,102.638 86.783,120.662 	"/>
</g>
</svg>
