<?xml version="1.0" encoding="utf-8"?>
<!-- Generator: Adobe Illustrator 16.0.0, SVG Export Plug-In . SVG Version: 6.00 Build 0)  -->
<!DOCTYPE svg PUBLIC "-//W3C//DTD SVG 1.1//EN" "http://www.w3.org/Graphics/SVG/1.1/DTD/svg11.dtd">
<svg version="1.1" id="Layer_1" xmlns="http://www.w3.org/2000/svg" xmlns:xlink="http://www.w3.org/1999/xlink" x="0px" y="0px"
	 width="130px" height="130px" viewBox="45 65 130 130" enable-background="new 45 65 130 130" xml:space="preserve">
<g>
	<path fill="none" stroke="#000000" stroke-width="2" stroke-linecap="round" stroke-linejoin="round" stroke-miterlimit="10" d="
		M124.979,110.925c-1.676,0-3.293,0.235-4.844,0.635c-2.205-9.859-10.993-17.23-21.517-17.23c-10.887,0-19.907,7.891-21.713,18.26
		c-2.396-1.063-5.044-1.666-7.835-1.666c-10.695,0-19.365,8.67-19.365,19.365s8.67,19.364,19.365,19.364c8.871,0,47.528,0,55.908,0
		c10.695,0,19.365-8.669,19.365-19.364S135.675,110.925,124.979,110.925z"/>
	<path fill="none" stroke="#000000" stroke-width="2" stroke-linecap="round" stroke-linejoin="round" stroke-miterlimit="10" d="
		M150.93,123.813c10.695,0,19.364-8.669,19.364-19.364s-8.669-19.365-19.364-19.365c-1.677,0-3.292,0.235-4.845,0.635
		c-2.204-9.859-10.992-17.231-21.516-17.231c-10.887,0-19.907,7.892-21.713,18.261c-2.396-1.063-5.044-1.666-7.835-1.666
		c-7.357,0-13.755,4.102-17.033,10.145"/>
	
		<polyline fill="none" stroke="#000000" stroke-width="2" stroke-linecap="round" stroke-linejoin="round" stroke-miterlimit="10" points="
		77.755,150.063 67.087,172.751 83.38,171.129 73.672,197.476 	"/>
	
		<polyline fill="none" stroke="#000000" stroke-width="2" stroke-linecap="round" stroke-linejoin="round" stroke-miterlimit="10" points="
		104.895,150.1 94.227,172.788 110.52,171.166 100.814,197.514 	"/>
	
		<polyline fill="none" stroke="#000000" stroke-width="2" stroke-linecap="round" stroke-linejoin="round" stroke-miterlimit="10" points="
		128.678,162.663 124.142,172.259 139.425,170.638 131.783,188.663 	"/>
</g>
</svg>
