<svg xmlns="http://www.w3.org/2000/svg" xmlns:xlink="http://www.w3.org/1999/xlink" width="40" zoomAndPan="magnify" viewBox="0 0 30 30.000001" height="40" preserveAspectRatio="xMidYMid meet" version="1.0"><defs><clipPath id="e14dd9b313"><path d="M 6.835938 6.351562 L 23.527344 6.351562 L 23.527344 23.042969 L 6.835938 23.042969 Z M 6.835938 6.351562 " clip-rule="nonzero"/></clipPath></defs><g clip-path="url(#e14dd9b313)"><path fill="#5d5d5d" d="M 17.542969 14.699219 L 23.039062 9.199219 C 23.355469 8.886719 23.527344 8.464844 23.527344 8.019531 C 23.527344 7.574219 23.355469 7.15625 23.039062 6.839844 C 22.722656 6.523438 22.304688 6.351562 21.859375 6.351562 C 21.414062 6.351562 20.992188 6.523438 20.679688 6.839844 L 15.179688 12.335938 L 9.683594 6.839844 C 9.371094 6.523438 8.949219 6.351562 8.503906 6.351562 C 8.058594 6.351562 7.640625 6.523438 7.324219 6.839844 C 7.007812 7.15625 6.835938 7.574219 6.835938 8.019531 C 6.835938 8.464844 7.007812 8.886719 7.324219 9.199219 L 12.820312 14.699219 L 7.324219 20.195312 C 7.007812 20.511719 6.835938 20.929688 6.835938 21.375 C 6.835938 21.820312 7.007812 22.238281 7.324219 22.554688 C 7.640625 22.871094 8.058594 23.042969 8.503906 23.042969 C 8.949219 23.042969 9.367188 22.871094 9.683594 22.554688 L 15.179688 17.058594 L 20.679688 22.554688 C 20.996094 22.871094 21.414062 23.042969 21.859375 23.042969 C 22.304688 23.042969 22.722656 22.871094 23.039062 22.554688 C 23.355469 22.238281 23.527344 21.820312 23.527344 21.375 C 23.527344 20.929688 23.355469 20.511719 23.039062 20.195312 Z M 17.542969 14.699219 " fill-opacity="1" fill-rule="nonzero"/></g></svg>