<svg xmlns="http://www.w3.org/2000/svg" xmlns:xlink="http://www.w3.org/1999/xlink" width="40" zoomAndPan="magnify" viewBox="0 0 30 30.000001" height="40" preserveAspectRatio="xMidYMid meet" version="1.0"><defs><clipPath id="23dff8d21e"><path d="M 5.546875 7.171875 L 24.320312 7.171875 L 24.320312 21.6875 L 5.546875 21.6875 Z M 5.546875 7.171875 " clip-rule="nonzero"/></clipPath></defs><g clip-path="url(#23dff8d21e)"><path fill="#5d5d5d" d="M 6.589844 21.695312 C 6.015625 21.695312 5.546875 21.230469 5.546875 20.660156 C 5.546875 20.085938 6.015625 19.621094 6.589844 19.621094 L 23.277344 19.621094 C 23.851562 19.621094 24.320312 20.085938 24.320312 20.660156 C 24.320312 21.230469 23.851562 21.695312 23.277344 21.695312 Z M 6.589844 15.472656 C 6.015625 15.472656 5.546875 15.007812 5.546875 14.433594 C 5.546875 13.859375 6.015625 13.394531 6.589844 13.394531 L 23.277344 13.394531 C 23.851562 13.394531 24.320312 13.859375 24.320312 14.433594 C 24.320312 15.007812 23.851562 15.472656 23.277344 15.472656 Z M 6.589844 9.246094 C 6.015625 9.246094 5.546875 8.78125 5.546875 8.207031 C 5.546875 7.636719 6.015625 7.171875 6.589844 7.171875 L 23.277344 7.171875 C 23.851562 7.171875 24.320312 7.636719 24.320312 8.207031 C 24.320312 8.78125 23.851562 9.246094 23.277344 9.246094 L 6.589844 9.246094 " fill-opacity="1" fill-rule="nonzero"/></g></svg>