<svg xmlns="http://www.w3.org/2000/svg" xmlns:xlink="http://www.w3.org/1999/xlink" width="40" zoomAndPan="magnify" viewBox="0 0 30 30.000001" height="40" preserveAspectRatio="xMidYMid meet" version="1.0"><defs><clipPath id="c3de353632"><path d="M 8.105469 5.175781 L 21.894531 5.175781 L 21.894531 26.222656 L 8.105469 26.222656 Z M 8.105469 5.175781 " clip-rule="nonzero"/></clipPath></defs><g clip-path="url(#c3de353632)"><path fill="#5d5d5d" d="M 15 24.851562 L 20.726562 14.09375 C 20.832031 13.78125 20.914062 13.457031 20.972656 13.128906 C 21.027344 12.796875 21.054688 12.453125 21.054688 12.101562 C 21.054688 10.421875 20.378906 8.898438 19.285156 7.800781 C 18.183594 6.699219 16.671875 6.019531 15 6.019531 C 13.328125 6.019531 11.816406 6.699219 10.714844 7.800781 C 9.621094 8.898438 8.945312 10.421875 8.945312 12.101562 C 8.945312 12.453125 8.972656 12.796875 9.027344 13.128906 C 9.085938 13.457031 9.167969 13.78125 9.277344 14.09375 Z M 15 8.320312 C 16.0625 8.320312 17.019531 8.75 17.710938 9.449219 C 18.40625 10.144531 18.839844 11.105469 18.839844 12.171875 C 18.839844 12.390625 18.820312 12.605469 18.78125 12.820312 C 18.742188 13.035156 18.691406 13.242188 18.621094 13.449219 C 18.355469 14.207031 17.859375 14.859375 17.214844 15.316406 C 16.585938 15.761719 15.824219 16.023438 15 16.023438 C 14.175781 16.023438 13.414062 15.761719 12.789062 15.316406 C 12.144531 14.859375 11.648438 14.207031 11.382812 13.449219 L 11.378906 13.453125 C 11.308594 13.246094 11.257812 13.039062 11.21875 12.820312 C 11.179688 12.605469 11.160156 12.390625 11.160156 12.171875 C 11.160156 11.105469 11.59375 10.144531 12.289062 9.449219 C 12.980469 8.75 13.9375 8.320312 15 8.320312 Z M 17.125 10.039062 C 16.578125 9.5 15.828125 9.160156 15 9.160156 C 14.171875 9.160156 13.421875 9.5 12.878906 10.039062 C 12.335938 10.589844 12 11.339844 12 12.171875 C 12 12.347656 12.015625 12.519531 12.042969 12.679688 C 12.070312 12.847656 12.113281 13.015625 12.167969 13.171875 C 12.375 13.765625 12.761719 14.277344 13.265625 14.632812 C 13.753906 14.980469 14.351562 15.183594 15 15.183594 C 15.648438 15.183594 16.246094 14.980469 16.734375 14.632812 C 17.238281 14.277344 17.625 13.765625 17.835938 13.171875 C 17.886719 13.015625 17.929688 12.851562 17.957031 12.679688 C 17.984375 12.519531 18 12.347656 18 12.171875 C 18 11.339844 17.664062 10.589844 17.125 10.039062 Z M 21.476562 14.453125 L 15.371094 25.933594 C 15.332031 26.007812 15.273438 26.070312 15.195312 26.109375 C 14.996094 26.21875 14.738281 26.140625 14.628906 25.9375 L 8.535156 14.480469 C 8.523438 14.453125 8.507812 14.429688 8.5 14.394531 C 8.371094 14.03125 8.269531 13.652344 8.203125 13.265625 C 8.144531 12.882812 8.105469 12.496094 8.105469 12.101562 C 8.105469 10.1875 8.878906 8.460938 10.128906 7.203125 C 11.375 5.953125 13.09375 5.179688 15 5.179688 C 16.90625 5.179688 18.625 5.953125 19.871094 7.203125 C 21.121094 8.460938 21.894531 10.1875 21.894531 12.101562 C 21.894531 12.496094 21.859375 12.882812 21.796875 13.265625 C 21.730469 13.652344 21.628906 14.03125 21.503906 14.394531 C 21.496094 14.414062 21.488281 14.433594 21.476562 14.453125 Z M 21.476562 14.453125 " fill-opacity="1" fill-rule="nonzero"/></g></svg>