<svg xmlns="http://www.w3.org/2000/svg" xmlns:xlink="http://www.w3.org/1999/xlink" width="40" zoomAndPan="magnify" viewBox="0 0 30 30.000001" height="40" preserveAspectRatio="xMidYMid meet" version="1.0"><defs><clipPath id="b5753f0c06"><path d="M 7 6 L 23.320312 6 L 23.320312 23 L 7 23 Z M 7 6 " clip-rule="nonzero"/></clipPath></defs><g clip-path="url(#b5753f0c06)"><path fill="#5d5d5d" d="M 22.992188 14.316406 C 22.898438 14.316406 22.820312 14.347656 22.757812 14.414062 C 22.691406 14.476562 22.660156 14.554688 22.660156 14.648438 C 22.660156 15.199219 22.597656 15.746094 22.472656 16.285156 C 22.351562 16.824219 22.167969 17.34375 21.925781 17.839844 C 21.683594 18.339844 21.386719 18.800781 21.039062 19.230469 C 20.691406 19.664062 20.300781 20.046875 19.863281 20.386719 C 19.429688 20.726562 18.960938 21.015625 18.460938 21.246094 C 17.960938 21.480469 17.4375 21.65625 16.898438 21.769531 C 16.359375 21.882812 15.8125 21.933594 15.261719 21.921875 C 14.710938 21.914062 14.164062 21.839844 13.628906 21.703125 C 13.09375 21.570312 12.582031 21.375 12.089844 21.121094 C 11.597656 20.871094 11.144531 20.566406 10.722656 20.207031 C 10.300781 19.851562 9.921875 19.453125 9.59375 19.007812 C 9.261719 18.566406 8.984375 18.089844 8.761719 17.582031 C 8.539062 17.078125 8.375 16.550781 8.273438 16.007812 C 8.167969 15.464844 8.128906 14.917969 8.148438 14.363281 C 8.171875 13.808594 8.253906 13.265625 8.398438 12.734375 C 8.546875 12.199219 8.75 11.6875 9.011719 11.199219 C 9.269531 10.714844 9.585938 10.261719 9.949219 9.84375 C 10.3125 9.429688 10.71875 9.058594 11.167969 8.738281 C 11.617188 8.414062 12.09375 8.144531 12.601562 7.933594 C 13.113281 7.71875 13.640625 7.566406 14.183594 7.472656 C 14.726562 7.378906 15.277344 7.347656 15.828125 7.382812 C 16.378906 7.414062 16.917969 7.507812 17.449219 7.664062 C 17.976562 7.820312 18.484375 8.035156 18.964844 8.304688 C 19.445312 8.578125 19.890625 8.898438 20.296875 9.273438 L 15.402344 14.179688 L 13.328125 12.097656 C 13.261719 12.03125 13.183594 12 13.09375 12 C 13.003906 12 12.925781 12.03125 12.859375 12.097656 C 12.796875 12.164062 12.761719 12.242188 12.761719 12.332031 C 12.761719 12.421875 12.796875 12.5 12.859375 12.566406 L 14.9375 14.648438 L 12.859375 16.730469 C 12.796875 16.792969 12.761719 16.871094 12.761719 16.964844 C 12.761719 17.054688 12.796875 17.132812 12.859375 17.195312 C 12.925781 17.261719 13.003906 17.292969 13.09375 17.292969 C 13.183594 17.292969 13.261719 17.261719 13.328125 17.199219 L 15.402344 15.117188 L 17.476562 17.199219 C 17.542969 17.261719 17.621094 17.292969 17.710938 17.292969 C 17.804688 17.292969 17.882812 17.261719 17.945312 17.195312 C 18.011719 17.132812 18.042969 17.054688 18.042969 16.964844 C 18.042969 16.871094 18.011719 16.792969 17.945312 16.730469 L 15.867188 14.648438 L 21 9.5 C 21.066406 9.4375 21.097656 9.359375 21.097656 9.265625 C 21.097656 9.175781 21.066406 9.097656 21 9.035156 C 20.789062 8.820312 20.5625 8.617188 20.324219 8.429688 C 20.085938 8.242188 19.839844 8.066406 19.582031 7.90625 C 19.328125 7.746094 19.0625 7.601562 18.789062 7.46875 C 18.515625 7.339844 18.234375 7.226562 17.949219 7.128906 C 17.660156 7.03125 17.371094 6.953125 17.074219 6.886719 C 16.777344 6.824219 16.480469 6.777344 16.179688 6.746094 C 15.878906 6.71875 15.574219 6.703125 15.273438 6.710938 C 14.96875 6.714844 14.667969 6.738281 14.367188 6.777344 C 14.070312 6.816406 13.773438 6.871094 13.476562 6.945312 C 13.183594 7.019531 12.894531 7.109375 12.613281 7.21875 C 12.328125 7.324219 12.054688 7.445312 11.785156 7.585938 C 11.515625 7.722656 11.253906 7.878906 11.003906 8.046875 C 10.75 8.214844 10.511719 8.398438 10.28125 8.59375 C 10.050781 8.789062 9.832031 9 9.625 9.222656 C 9.417969 9.441406 9.222656 9.675781 9.042969 9.917969 C 8.863281 10.164062 8.695312 10.414062 8.546875 10.679688 C 8.394531 10.941406 8.257812 11.210938 8.136719 11.492188 C 8.015625 11.769531 7.914062 12.054688 7.824219 12.34375 C 7.738281 12.632812 7.667969 12.929688 7.613281 13.226562 C 7.558594 13.527344 7.519531 13.824219 7.5 14.128906 C 7.480469 14.433594 7.480469 14.734375 7.496094 15.039062 C 7.507812 15.339844 7.542969 15.640625 7.589844 15.941406 C 7.640625 16.242188 7.707031 16.535156 7.789062 16.828125 C 7.871094 17.121094 7.972656 17.40625 8.085938 17.6875 C 8.203125 17.96875 8.335938 18.238281 8.480469 18.503906 C 8.628906 18.769531 8.789062 19.027344 8.964844 19.273438 C 9.144531 19.519531 9.332031 19.753906 9.535156 19.980469 C 9.738281 20.203125 9.953125 20.417969 10.183594 20.617188 C 10.410156 20.816406 10.648438 21.003906 10.898438 21.175781 C 11.144531 21.347656 11.402344 21.507812 11.671875 21.648438 C 11.9375 21.792969 12.210938 21.921875 12.492188 22.03125 C 12.773438 22.144531 13.0625 22.238281 13.355469 22.316406 C 13.644531 22.394531 13.941406 22.457031 14.242188 22.5 C 14.539062 22.546875 14.839844 22.574219 15.144531 22.582031 C 15.445312 22.59375 15.75 22.585938 16.050781 22.5625 C 16.351562 22.535156 16.652344 22.492188 16.949219 22.433594 C 17.246094 22.375 17.535156 22.300781 17.824219 22.207031 C 18.113281 22.113281 18.394531 22.003906 18.671875 21.878906 C 18.945312 21.753906 19.214844 21.613281 19.472656 21.457031 C 19.734375 21.300781 19.984375 21.132812 20.222656 20.945312 C 20.460938 20.761719 20.691406 20.5625 20.910156 20.351562 C 21.125 20.140625 21.332031 19.917969 21.523438 19.683594 C 21.714844 19.449219 21.894531 19.203125 22.058594 18.949219 C 22.222656 18.695312 22.371094 18.429688 22.503906 18.160156 C 22.636719 17.886719 22.753906 17.609375 22.859375 17.324219 C 22.960938 17.035156 23.042969 16.746094 23.113281 16.449219 C 23.183594 16.15625 23.234375 15.855469 23.269531 15.554688 C 23.304688 15.253906 23.320312 14.949219 23.320312 14.648438 C 23.320312 14.554688 23.289062 14.476562 23.222656 14.414062 C 23.160156 14.347656 23.082031 14.316406 22.992188 14.316406 Z M 22.992188 14.316406 " fill-opacity="1" fill-rule="nonzero"/></g></svg>