<?xml version="1.0" standalone="no"?>
<svg xmlns:xlink="http://www.w3.org/1999/xlink" id="wave" style="transform:rotate(0deg); transition: 0.3s" viewBox="0 0 1440 250" version="1.1" xmlns="http://www.w3.org/2000/svg"><defs><linearGradient id="sw-gradient-0" x1="0" x2="0" y1="1" y2="0"><stop stop-color="rgba(225.277, 211.746, 207.4, 1)" offset="0%"/><stop stop-color="rgba(255, 255, 255, 1)" offset="100%"/></linearGradient></defs><path style="transform:translate(0, 0px); opacity:1" fill="url(#sw-gradient-0)" d="M0,175L34.3,162.5C68.6,150,137,125,206,120.8C274.3,117,343,133,411,154.2C480,175,549,200,617,212.5C685.7,225,754,225,823,220.8C891.4,217,960,208,1029,183.3C1097.1,158,1166,117,1234,95.8C1302.9,75,1371,75,1440,91.7C1508.6,108,1577,142,1646,145.8C1714.3,150,1783,125,1851,100C1920,75,1989,50,2057,58.3C2125.7,67,2194,108,2263,125C2331.4,142,2400,133,2469,145.8C2537.1,158,2606,192,2674,170.8C2742.9,150,2811,75,2880,54.2C2948.6,33,3017,67,3086,70.8C3154.3,75,3223,50,3291,58.3C3360,67,3429,108,3497,129.2C3565.7,150,3634,150,3703,133.3C3771.4,117,3840,83,3909,83.3C3977.1,83,4046,117,4114,141.7C4182.9,167,4251,183,4320,162.5C4388.6,142,4457,83,4526,50C4594.3,17,4663,8,4731,29.2C4800,50,4869,100,4903,125L4937.1,150L4937.1,250L4902.9,250C4868.6,250,4800,250,4731,250C4662.9,250,4594,250,4526,250C4457.1,250,4389,250,4320,250C4251.4,250,4183,250,4114,250C4045.7,250,3977,250,3909,250C3840,250,3771,250,3703,250C3634.3,250,3566,250,3497,250C3428.6,250,3360,250,3291,250C3222.9,250,3154,250,3086,250C3017.1,250,2949,250,2880,250C2811.4,250,2743,250,2674,250C2605.7,250,2537,250,2469,250C2400,250,2331,250,2263,250C2194.3,250,2126,250,2057,250C1988.6,250,1920,250,1851,250C1782.9,250,1714,250,1646,250C1577.1,250,1509,250,1440,250C1371.4,250,1303,250,1234,250C1165.7,250,1097,250,1029,250C960,250,891,250,823,250C754.3,250,686,250,617,250C548.6,250,480,250,411,250C342.9,250,274,250,206,250C137.1,250,69,250,34,250L0,250Z"/></svg>