<svg height="512pt" viewBox="0 -35 512 512" width="512pt" xmlns="http://www.w3.org/2000/svg"><path d="m512 293.121094c0-29.625-21.546875-54.023438-50.15625-58.203125-2.9375-23.933594-14.054688-46.019531-31.710938-62.773438-7.605468-60.363281-59.261718-107.207031-121.652343-107.207031-27.167969 0-52.90625 8.703125-74.433594 25.167969-16.886719-27.972657-46.902344-45.070313-79.957031-45.070313-15.34375 0-30.582032 3.816406-44.0625 11.039063-3.652344 1.957031-5.023438 6.503906-3.070313 10.152343 1.957031 3.652344 6.503907 5.027344 10.15625 3.070313 11.308594-6.0625 24.09375-9.265625 36.976563-9.265625 28.628906 0 54.539062 15.28125 68.441406 40.105469-13.550781 13.359375-23.9375 29.8125-30.089844 47.753906-9.464844-2.832031-19.472656-4.359375-29.816406-4.359375-21.640625 0-42.394531 6.574219-60.015625 19.011719-15.855469 11.1875-28.132813 26.332031-35.734375 44.003906-6.285156.507813-12.40625 1.824219-18.25 3.878906-10.46875-7.054687-16.855469-18.878906-16.855469-31.628906 0-20.652344 16.160157-37.382813 36.792969-38.09375 3.867188-.132813 6.996094-3.183594 7.230469-7.042969 1.015625-16.789062 7.28125-32.507812 18.113281-45.460937 2.65625-3.179688 2.234375-7.910157-.941406-10.566407-3.179688-2.65625-7.910156-2.234374-10.566406.941407-11.515626 13.773437-18.699219 30.175781-20.972657 47.773437-25.515625 4.035156-44.65625 25.921875-44.65625 52.453125 0 14.929688 6.277344 28.957031 16.933594 38.882813-4.535156 2.902344-8.78125 6.328125-12.660156 10.246094-13.570313 13.71875-21.042969 31.902343-21.042969 51.203124 0 40.160157 32.675781 72.835938 72.835938 72.835938h4.945312c-.207031 1.082031-.394531 2.167969-.550781 3.261719-20.699219 3.789062-36.089844 21.757812-36.089844 43.460937 0 24.378906 19.832031 44.210938 44.207031 44.210938h326.667969c32.449219 0 58.847656-26.402344 58.847656-58.847656 0-12.089844-3.589843-23.304688-9.78125-32.632813 28.707031-3.886719 50.917969-28.539063 50.917969-58.300781zm-294.734375 134.78125h-131.917969c-16.105468 0-29.210937-13.105469-29.210937-29.210938 0-15.816406 12.382812-28.636718 28.1875-29.179687 3.863281-.132813 6.996093-3.183594 7.226562-7.042969.890625-14.683594 7.046875-28.601562 17.335938-39.183594 2.890625-2.96875 2.824219-7.71875-.144531-10.605468-2.96875-2.886719-7.71875-2.820313-10.605469.148437-6.832031 7.023437-12.183594 15.238281-15.871094 24.140625h-9.425781c-31.894532 0-57.839844-25.945312-57.839844-57.835938 0-31.5 25.625-57.4375 57.125-57.820312 3.09375-.035156 5.847656-1.96875 6.933594-4.863281 12.984375-34.640625 46.566406-57.914063 83.566406-57.914063 47.089844 0 86.203125 36.78125 89.042969 83.738282.234375 3.859374 3.363281 6.910156 7.230469 7.042968 1.40625.046875 2.800781.175782 4.179687.355469-1.972656 1.203125-3.914063 2.460937-5.816406 3.804687-15.855469 11.1875-28.132813 26.328126-35.730469 44.003907-8.414062.671875-16.523438 2.792969-24.199219 6.292969-12.699219-8.988282-28.097656-14.160157-44.253906-14.160157-7.921875 0-15.769531 1.222657-23.324219 3.632813-3.945312 1.261718-6.125 5.480468-4.863281 9.425781 1.257813 3.945313 5.480469 6.125 9.425781 4.863281 6.078125-1.9375 12.390625-2.921875 18.761719-2.921875 25.5625 0 48.769531 16.078125 57.738281 40.011719 1.085938 2.898438 3.839844 4.832031 6.933594 4.867188 21.355469.257812 38.726562 17.84375 38.726562 39.199218 0 21.621094-17.589843 39.210938-39.210937 39.210938zm194.75 0h-157.375c10.363281-9.882813 16.835937-23.800782 16.835937-39.210938 0-27.828125-21.332031-51.019531-48.5-53.898437-3.3125-7.34375-7.746093-14.007813-13.027343-19.835938 5.40625-1.71875 11.03125-2.640625 16.828125-2.710937 3.09375-.035156 5.847656-1.96875 6.933594-4.867188 12.984374-34.636718 46.566406-57.910156 83.566406-57.910156 7.269531 0 14.5.875 21.492187 2.601562 4.019531.996094 8.085938-1.457031 9.082031-5.480468.992188-4.019532-1.460937-8.085938-5.484374-9.082032-8.164063-2.015624-16.605469-3.039062-25.089844-3.039062-11.777344 0-23.289063 1.960938-34.179688 5.742188-5.414062-2.640626-11.121094-4.417969-17.046875-5.289063-4.472656-36.449219-27.75-66.894531-59.585937-81.707031 14.605468-43.382813 55.859375-73.277344 102.015625-73.277344 59.339843 0 107.617187 48.277344 107.617187 107.621094 0 27.597656-10.324218 53.605468-29.136718 73.628906-3.242188-2.90625-6.683594-5.636719-10.320313-8.160156-3.402344-2.367188-8.074219-1.523438-10.4375 1.882812-2.363281 3.398438-1.519531 8.074219 1.882813 10.4375 22.640624 15.71875 36.578124 40.453125 38.234374 67.855469.234376 3.863281 3.363282 6.910156 7.230469 7.042969 23.726563.816406 42.3125 20.058594 42.3125 43.808594 0 24.175781-19.671875 43.847656-43.847656 43.847656zm41.136719-90.933594h-5.148438c-.179687 0-.355468.015625-.53125.027344-7.652344-5.753906-16.777344-9.683594-26.765625-11.144532-2.449219-20.054687-10.578125-38.640624-23.308593-53.863281 19.902343-20.933593 31.582031-47.699219 33.433593-76.363281 9.800781 13.582031 15.601563 29.671875 16.628907 46.648438.234374 3.859374 3.363281 6.910156 7.230468 7.042968 23.722656.816406 42.308594 20.058594 42.308594 43.804688 0 24.179687-19.667969 43.847656-43.847656 43.847656zm0 0"/><path d="m456.242188 187.558594c0 4.140625 3.359374 7.5 7.5 7.5h24.792968c4.144532 0 7.5-3.359375 7.5-7.5s-3.355468-7.5-7.5-7.5h-24.792968c-4.140626 0-7.5 3.359375-7.5 7.5zm0 0"/><path d="m442.949219 117.425781c1.269531 0 2.558593-.320312 3.742187-1.003906l21.472656-12.398437c3.585938-2.070313 4.816407-6.65625 2.746094-10.242188-2.074218-3.589844-6.660156-4.816406-10.246094-2.746094l-21.472656 12.394532c-3.585937 2.074218-4.816406 6.660156-2.746094 10.246093 1.390626 2.40625 3.910157 3.75 6.503907 3.75zm0 0"/><path d="m382.359375 59.589844c1.183594.683594 2.472656 1.007812 3.742187 1.007812 2.59375 0 5.113282-1.34375 6.503907-3.75l12.398437-21.472656c2.070313-3.589844.839844-8.175781-2.746094-10.246094-3.589843-2.074218-8.175781-.84375-10.246093 2.746094l-12.398438 21.472656c-2.070312 3.585938-.839843 8.171875 2.746094 10.242188zm0 0"/><path d="m308.480469 39.796875c4.140625 0 7.5-3.359375 7.5-7.5v-24.796875c0-4.140625-3.359375-7.5-7.5-7.5-4.144531 0-7.5 3.359375-7.5 7.5v24.792969c0 4.144531 3.355469 7.503906 7.5 7.503906zm0 0"/><path d="m224.351562 56.847656c1.390626 2.40625 3.910157 3.75 6.503907 3.75 1.273437 0 2.5625-.324218 3.742187-1.007812 3.585938-2.070313 4.816406-6.65625 2.746094-10.242188l-12.398438-21.472656c-2.070312-3.589844-6.65625-4.820312-10.242187-2.746094-3.589844 2.070313-4.816406 6.65625-2.746094 10.246094zm0 0"/><path d="m387.15625 310.785156c-1.644531-3.800781-6.058594-5.550781-9.859375-3.90625-3.804687 1.644532-5.550781 6.058594-3.90625 9.859375 1.472656 3.414063 2.660156 6.972657 3.527344 10.578125.828125 3.441406 3.898437 5.75 7.289062 5.75.578125 0 1.167969-.066406 1.757813-.207031 4.027344-.96875 6.507812-5.019531 5.539062-9.046875-1.066406-4.445312-2.53125-8.828125-4.347656-13.027344zm0 0"/><path d="m371.34375 287.019531c-15.34375-15.988281-35.964844-24.792969-58.066406-24.792969-4.140625 0-7.5 3.359376-7.5 7.5 0 4.140626 3.359375 7.5 7.5 7.5 17.976562 0 34.753906 7.167969 47.246094 20.179688 1.472656 1.535156 3.441406 2.308594 5.410156 2.308594 1.871094 0 3.742187-.695313 5.195312-2.089844 2.988282-2.867188 3.085938-7.617188.214844-10.605469zm0 0"/></svg>