<?xml version="1.0" encoding="utf-8"?>
<!-- Generator: Adobe Illustrator 24.0.1, SVG Export Plug-In . SVG Version: 6.00 Build 0)  -->
<svg version="1.1" id="Layer_1" xmlns="http://www.w3.org/2000/svg" xmlns:xlink="http://www.w3.org/1999/xlink" x="0px" y="0px"
	 viewBox="0 0 606 606" style="enable-background:new 0 0 606 606;" xml:space="preserve">
<style type="text/css">
	.st0{fill:#FFFFFF;}
</style>
<g>
	<path class="st0" d="M452.7,227.7c-11.2-9.9-25.4-15.8-40.1-16.8c-3.4-11.8-9.9-22.6-19.1-31.1c-12.6-11.6-28.9-18.1-46.1-18.1
		c-13.5,0-26.6,4.1-37.7,11.5c-5.1-9.3-12-17.7-20.3-24.5c-14.5-11.8-32.8-18.3-51.5-18.3s-37,6.5-51.5,18.3
		c-8.3,6.8-15.2,15.1-20.3,24.5c-11-7.4-24.2-11.5-37.7-11.5c-17.1,0-33.5,6.4-46.1,18.1c-9.2,8.5-15.8,19.3-19.1,31.1
		c-35.2,2.5-63,31.9-63,67.6c0,19.4,8.3,37.9,22.9,50.8c11.2,9.9,25.3,15.7,40,16.8c7.9,28.8,34.5,49.9,65.4,49.9
		c13.6,0,26.8-4.2,37.9-11.6c5.1,9.2,12,17.5,20.3,24.2c14.5,11.7,32.7,18.1,51.3,18.1s36.8-6.4,51.3-18.1
		c8.3-6.7,15.2-15,20.3-24.2c11.1,7.5,24.3,11.6,37.9,11.6c30.9,0,57.5-21.1,65.4-49.9c14.7-1.1,28.8-6.9,40-16.8
		c14.6-12.9,22.9-31.4,22.9-50.8C475.6,259.1,467.2,240.6,452.7,227.7L452.7,227.7z M434.2,308.5c-8.6,7.6-20.1,11.1-31.4,9.7
		c-3.8-0.5-7.6,0.6-10.6,3.1c-3,2.4-4.8,6-5,9.8c-1.4,20.8-18.9,37.1-39.8,37.1c-12.8,0-24.6-5.9-32.2-16.3
		c-3.2-4.4-8.7-6.5-14.1-5.4c-5.3,1.1-9.5,5.2-10.7,10.5c-5.6,24.6-27.2,41.8-52.5,41.8s-46.9-17.2-52.5-41.8
		c-1.2-5.3-5.4-9.4-10.7-10.5c-0.9-0.2-1.9-0.3-2.8-0.3c-4.4,0-8.6,2.1-11.2,5.7c-7.6,10.4-19.4,16.3-32.2,16.3
		c-20.9,0-38.4-16.3-39.8-37.1c-0.3-3.8-2.1-7.4-5-9.8s-6.8-3.5-10.6-3.1c-11.4,1.4-22.9-2.1-31.4-9.7c-8.6-7.6-13.5-18.5-13.5-29.9
		c0-22,17.9-39.9,39.9-39.9c1.7,0,3.4,0.1,5,0.3c3.8,0.5,7.6-0.6,10.5-3c3-2.4,4.8-5.9,5.1-9.7c1.7-20.5,19.2-36.6,39.8-36.6
		c12.8,0,24.5,5.9,32.1,16.2c3.3,4.4,8.8,6.5,14.1,5.3c5.3-1.1,9.5-5.3,10.7-10.6c5.4-24.5,27.5-42.2,52.6-42.2s47.2,17.8,52.6,42.2
		c1.2,5.3,5.4,9.5,10.7,10.6c5.3,1.1,10.9-0.9,14.1-5.3c7.6-10.3,19.3-16.2,32.1-16.2c20.6,0,38.1,16.1,39.8,36.6
		c0.3,3.8,2.2,7.3,5.1,9.7s6.8,3.5,10.5,3c11.4-1.4,22.9,2.1,31.5,9.7c8.6,7.6,13.5,18.5,13.5,29.9
		C447.7,290,442.8,300.9,434.2,308.5L434.2,308.5z"/>
	<path class="st0" d="M254.8,507.2c-4-5.9-8.6-12.6-17-12.6s-13,6.7-17,12.6c-3.2,4.7-6.8,10.6-10.1,16.7
		c-9.7,17.6-14.6,31.2-14.6,40.4c0,23,18.8,41.8,41.8,41.8s41.8-18.8,41.8-41.8c0-9.2-4.9-22.8-14.6-40.4
		C261.6,517.8,258,511.8,254.8,507.2z M237.8,578.1c-7.7,0-13.9-6.3-13.9-13.9c0-5.4,7.3-20.4,13.9-31.9
		c6.6,11.4,13.9,26.4,13.9,31.9C251.7,571.9,245.5,578.1,237.8,578.1L237.8,578.1z"/>
	<path class="st0" d="M111.9,422.6c-4-5.9-8.6-12.6-17-12.6s-13,6.7-17,12.6c-3.2,4.7-6.8,10.6-10.1,16.7
		C57.9,456.9,53,470.5,53,479.7c0,23,18.8,41.8,41.8,41.8s41.8-18.8,41.8-41.8c0-9.2-4.9-22.8-14.6-40.4
		C118.7,433.2,115.1,427.3,111.9,422.6z M94.8,493.6c-7.7,0-13.9-6.3-13.9-13.9c0-5.4,7.3-20.4,13.9-31.9
		c6.6,11.4,13.9,26.4,13.9,31.9C108.8,487.4,102.5,493.6,94.8,493.6z"/>
	<path class="st0" d="M397.8,422.6c-4-5.9-8.6-12.6-17-12.6c-8.4,0-13,6.7-17,12.6c-3.2,4.7-6.8,10.6-10.1,16.7
		c-9.7,17.6-14.6,31.2-14.6,40.4c0,23,18.8,41.8,41.8,41.8c23,0,41.8-18.8,41.8-41.8c0-9.2-4.9-22.8-14.6-40.4
		C404.6,433.2,401,427.3,397.8,422.6L397.8,422.6z M380.8,493.6c-7.7,0-13.9-6.3-13.9-13.9c0-5.4,7.3-20.4,13.9-31.9
		c6.6,11.4,13.9,26.4,13.9,31.9C394.7,487.4,388.4,493.6,380.8,493.6z"/>
</g>
<g>
	<g>
		<path class="st0" d="M298.2,187.7c0.6,2.7,1.3,5.3,2.1,8l23-14.7c-9.8-43.8,2.2-91.5,36.2-125.5c5.6-5.6,11.7-10.6,18.1-15.1
			c-1.8,9.8-2.8,19.7-2.8,29.9c0,88.8,72.3,161.1,161.1,161.1c10.1,0,20.1-0.9,29.9-2.8c-4.5,6.4-9.4,12.4-15,18.1
			c-25.2,25.2-58.1,38.3-91.2,39.4l0,25.9c39.8-1.1,79.2-16.7,109.5-47c15.1-15.1,26.7-32.5,34.7-51.8c0-0.1,0.1-0.2,0.1-0.2
			c0.4-0.8,0.7-1.6,0.9-2.4c0-0.1,0-0.1,0.1-0.2c0.6-2.6,0.5-5.3-0.6-7.9c-2-5-6.9-8-12-8c0,0-0.1,0-0.1,0c-0.1,0-0.2,0-0.2,0
			c-1,0-2,0.2-3,0.5c-0.4,0.1-0.7,0.2-1.1,0.3c-0.2,0.1-0.4,0.1-0.6,0.2c-16.3,6.7-33.5,10.1-51.4,10.1
			c-74.5,0-135.2-60.6-135.2-135.2c0-17.8,3.4-35.1,10.1-51.4c0.1-0.2,0.1-0.5,0.2-0.7c0.1-0.3,0.2-0.6,0.3-0.9
			c0.3-1.1,0.5-2.1,0.5-3.2c0,0,0-0.1,0-0.1c0,0,0,0,0,0c0-0.8-0.1-1.5-0.2-2.3c0-0.2-0.1-0.3-0.1-0.5c-0.2-0.7-0.4-1.5-0.7-2.2
			c-0.1-0.3-0.3-0.5-0.4-0.8c-1.4-2.7-3.6-5-6.6-6.2c-3.5-1.4-7.3-1.2-10.5,0.3c0,0-0.1,0-0.1,0c-19.4,8-36.9,19.7-52,34.8
			C300.3,77.9,286,135.2,298.2,187.7"/>
	</g>
</g>
</svg>
