<svg id="Layer_1" enable-background="new 0 0 512 512" height="512" viewBox="0 0 512 512" width="512" xmlns="http://www.w3.org/2000/svg"><g><circle cx="327.89" cy="144.432" fill="#ffd54f" r="50.5"/><path d="m327.89 93.932c-4.72 0-9.283.661-13.616 1.872 21.273 5.945 36.884 25.457 36.884 48.627 0 23.171-15.611 42.683-36.884 48.628 4.333 1.211 8.896 1.872 13.616 1.872 27.89 0 50.5-22.61 50.5-50.5s-22.61-50.499-50.5-50.499z" fill="#ffca28"/><path d="m482.518 379.481c13.751-14.641 22.134-34.354 21.98-56.033-.311-43.844-36.064-79.849-80.026-80.569-14.677-.241-28.477 3.401-40.451 9.952-1.59.87-3.567.55-4.805-.771-9.339-9.962-21.015-17.711-34.165-22.375-1.417-.502-2.391-1.789-2.577-3.277-8.124-65.046-63.758-115.383-131.187-115.383-63.922 0-117.243 45.239-129.537 105.36-.3 1.468-1.371 2.673-2.821 3.069-41.174 11.268-71.429 48.853-71.429 93.491 0 24.702 9.265 47.245 24.518 64.364 1.639 1.839 1.217 4.757-.909 6.005-4.723 2.773-7.893 7.895-7.892 13.757.001 8.778 7.649 15.953 16.451 15.953h431.949c8.832 0 16.329-6.949 16.438-15.755.059-4.812-2.023-9.132-5.352-12.091-1.678-1.489-1.72-4.062-.185-5.697z" fill="#f5f5f5"/><g fill="#e6e6e6"><path d="m315.59 230.708c1.86 14.656 31.708 24.309 47.814 28.014 6.102 1.404 19.668-4.35 20.618-5.891-1.59.87-3.567.55-4.805-.771-9.339-9.962-21.015-17.712-34.165-22.375-1.417-.503-2.391-1.789-2.577-3.277-8.124-65.046-63.758-115.383-131.187-115.383-5.171 0-10.271.301-15.287.877 61.062 7.224 111.942 58.558 119.589 118.806z"/><path d="m482.702 385.178c-1.676-1.49-1.719-4.063-.184-5.697 13.751-14.641 22.134-34.354 21.98-56.033-.311-43.844-36.064-79.849-80.026-80.569-.542-.009-1.079-.001-1.619 0 36.001 6.311 51.361 40.61 51.644 80.569.154 21.678-8.229 41.391-21.98 56.033-1.535 1.634-1.492 4.207.184 5.697 3.329 2.959 5.411 7.279 5.352 12.091-.108 8.807-7.606 15.755-16.438 15.755h30c8.832 0 16.329-6.949 16.438-15.755.06-4.811-2.022-9.132-5.351-12.091z"/></g><g><path d="m327.888 64.013c4.143 0 7.5-3.357 7.5-7.5v-13.081c0-4.143-3.357-7.5-7.5-7.5s-7.5 3.357-7.5 7.5v13.081c0 4.142 3.357 7.5 7.5 7.5z"/><path d="m390.052 89.768c1.919 0 3.839-.732 5.304-2.196l9.253-9.253c2.929-2.93 2.929-7.678 0-10.607-2.93-2.928-7.678-2.928-10.607 0l-9.253 9.253c-2.929 2.93-2.929 7.678 0 10.607 1.464 1.463 3.384 2.196 5.303 2.196z"/><path d="m415.807 151.932h13.081c4.143 0 7.5-3.357 7.5-7.5s-3.357-7.5-7.5-7.5h-13.081c-4.143 0-7.5 3.357-7.5 7.5s3.357 7.5 7.5 7.5z"/><path d="m395.355 201.292c-2.93-2.928-7.678-2.928-10.607 0-2.929 2.93-2.929 7.678 0 10.607l9.253 9.253c1.465 1.464 3.385 2.196 5.304 2.196s3.839-.732 5.304-2.196c2.929-2.93 2.929-7.678 0-10.607z"/><path d="m260.42 87.571c1.465 1.464 3.385 2.196 5.304 2.196s3.839-.732 5.304-2.196c2.929-2.93 2.929-7.678 0-10.607l-9.253-9.253c-2.93-2.928-7.678-2.928-10.607 0-2.929 2.93-2.929 7.678 0 10.607z"/><path d="m495.553 397.362c.069-5.574-1.853-10.944-5.359-15.188 1.859-2.132 3.619-4.354 5.256-6.636 2.414-3.365 1.643-8.052-1.724-10.466-3.365-2.414-8.052-1.641-10.466 1.724-1.89 2.635-3.979 5.176-6.208 7.55-2.133 2.27-3.275 5.348-3.137 8.445.14 3.099 1.491 5.938 3.806 7.994 1.831 1.627 2.863 3.957 2.834 6.392-.057 4.604-4.066 8.349-8.938 8.349h-375.193c-4.143 0-7.5 3.357-7.5 7.5s3.357 7.5 7.5 7.5h375.192c13.042 0 23.78-10.392 23.937-23.164z"/><path d="m211.288 118.526c22.799 0 44.906 6.176 64.141 17.689.14.091.284.177.431.259 6.732 4.067 13.108 8.789 19.034 14.132 3.074 2.773 7.818 2.527 10.592-.549s2.528-7.818-.549-10.592c-5.142-4.636-10.587-8.854-16.285-12.638 6.85-15.192 22.267-25.397 39.237-25.397 23.71 0 43 19.29 43 43 0 19.711-13.434 36.706-32.037 41.589-3.196-7.139-6.992-14.011-11.348-20.509-2.308-3.442-6.966-4.36-10.406-2.054s-4.359 6.965-2.053 10.406c10.7 15.961 17.611 34.452 19.987 53.475.544 4.356 3.421 7.964 7.512 9.417 11.8 4.185 22.589 11.251 31.199 20.436 3.579 3.819 9.284 4.732 13.878 2.222 11.184-6.12 23.865-9.269 36.728-9.033 39.776.652 72.367 33.455 72.648 73.124.041 5.726-.579 11.433-1.845 16.961-.923 4.038 1.602 8.061 5.639 8.984.563.128 1.126.19 1.68.19 3.42 0 6.51-2.354 7.305-5.829 1.523-6.66 2.271-13.528 2.222-20.414-.34-47.747-39.548-87.23-87.402-88.015-14.535-.218-28.918 3.079-41.78 9.61-9.395-9.456-20.78-16.873-33.176-21.607-1.112-7.897-2.92-15.701-5.38-23.299 24.27-7.126 41.63-29.636 41.63-55.654 0-31.981-26.019-58-58-58-22.32 0-42.651 13.095-52.216 32.753-19.72-10.22-41.75-15.658-64.386-15.658-32.392 0-63.962 11.31-88.896 31.845-24.06 19.814-40.888 47.252-47.55 77.451-44.18 13.09-74.842 53.949-74.842 100.123 0 24.294 8.446 47.711 23.862 66.375-5.104 4.415-8.146 10.904-8.146 17.753.001 12.713 10.97 23.453 23.95 23.453h24.524c4.143 0 7.5-3.357 7.5-7.5s-3.357-7.5-7.5-7.5h-24.523c-4.768 0-8.949-3.951-8.95-8.455-.001-3.023 1.565-5.748 4.188-7.288 2.945-1.729 4.94-4.663 5.474-8.05.536-3.409-.47-6.84-2.762-9.413-14.585-16.369-22.617-37.456-22.617-59.375 0-40.166 27.103-75.636 65.909-86.256 4.173-1.142 7.312-4.513 8.189-8.8 11.775-57.574 63.163-99.362 122.19-99.362z"/><path d="m125.763 214.827c-4.12.352-7.169 3.971-6.828 8.092.342 4.12 3.953 7.2 8.086 6.855.409-.037 41.709-2.972 66.612 28.27 8.965 11.247 13.617 24.376 13.826 39.022.059 4.104 3.404 7.393 7.497 7.393.036 0 .072 0 .109-.001 4.142-.059 7.451-3.464 7.392-7.606-.258-18.047-6.009-34.25-17.095-48.157-30-37.635-77.588-34.042-79.599-33.868z"/><path d="m360.79 290.308c3.139-2.678 3.526-7.392.86-10.546-2.674-3.164-7.405-3.561-10.569-.888-1.237 1.046-30.138 26.091-16.042 68.379 1.048 3.143 3.974 5.13 7.114 5.13.786 0 1.586-.125 2.373-.387 3.93-1.31 6.053-5.558 4.743-9.487-10.794-32.383 10.555-51.365 11.521-52.201z"/><path d="m38.214 63.994h104.378c17.644 0 31.997-14.354 31.997-31.997s-14.354-31.997-31.997-31.997h-23.726c-4.143 0-7.5 3.357-7.5 7.5s3.357 7.5 7.5 7.5h23.726c9.372 0 16.997 7.625 16.997 16.997s-7.625 16.997-16.997 16.997h-104.378c-4.143 0-7.5 3.357-7.5 7.5s3.357 7.5 7.5 7.5z"/><path d="m480.003 448.006h-104.378c-4.143 0-7.5 3.357-7.5 7.5s3.357 7.5 7.5 7.5h104.378c9.372 0 16.997 7.625 16.997 16.997s-7.625 16.997-16.997 16.997h-23.727c-4.143 0-7.5 3.357-7.5 7.5s3.357 7.5 7.5 7.5h23.727c17.643 0 31.997-14.353 31.997-31.997s-14.354-31.997-31.997-31.997z"/><path d="m7.5 108.234h72.732c4.143 0 7.5-3.357 7.5-7.5s-3.357-7.5-7.5-7.5h-72.732c-4.143 0-7.5 3.357-7.5 7.5s3.357 7.5 7.5 7.5z"/><path d="m326.706 448.006h-155.9c-4.143 0-7.5 3.357-7.5 7.5s3.357 7.5 7.5 7.5h155.9c4.143 0 7.5-3.357 7.5-7.5s-3.357-7.5-7.5-7.5z"/></g></g></svg>