<svg width="64" height="64" viewBox="0 0 64 64" fill="none" xmlns="http://www.w3.org/2000/svg">
<g opacity="0.8">
<path d="M22.6 48.5003H50.9C51.1 48.5003 51.2999 48.5003 51.5 48.5003C56.0999 48.5003 59.9 44.7003 59.9 40.1003C59.9 35.5003 56.0999 31.7003 51.5 31.7003C50.7999 31.7003 50.2 31.8003 49.5 32.0003C49.2999 32.1003 49 32.0003 48.7999 31.9003C48.5999 31.8003 48.5 31.6003 48.4 31.3003C47.5 25.3003 42.4 21.0003 36.2999 21.0003C29.5999 21.0003 24.1 26.5003 24.1 33.2003C24.1 33.5003 24.1 33.9003 24.2 34.2003C24.2 34.4003 24.1 34.7003 24 34.9003C23.8 35.1003 23.6 35.2003 23.3 35.1003C23.1 35.1003 22.8 35.1003 22.6 35.1003C18.9 35.1003 15.9 38.1003 15.9 41.8003C15.9 45.5003 18.9 48.5003 22.6 48.5003ZM22.5 33.4003C22.5 33.3003 22.5 33.3003 22.5 33.2003C22.5 25.5003 28.7 19.3003 36.4 19.3003C43 19.3003 48.5 23.8003 49.9 30.2003C50.4 30.1003 51 30.1003 51.5 30.1003C57 30.1003 61.5 34.6003 61.5 40.1003C61.5 45.6003 57 50.1003 51.5 50.1003H22.6C18 50.1003 14.2 46.3003 14.2 41.7003C14.2 37.2003 17.9 33.4003 22.5 33.4003Z" fill="black"/>
<path d="M12.4999 24.5002C12.9999 24.5002 13.4999 24.5002 14.0999 24.6002C15.4999 18.3002 20.9999 13.7002 27.5999 13.7002C30.4999 13.7002 33.1999 14.6002 35.4999 16.2002C35.8999 16.5002 35.9999 17.0002 35.6999 17.3002C35.3999 17.7002 34.8999 17.8002 34.5999 17.5002C32.4999 16.1002 30.0999 15.3002 27.5999 15.3002C21.5999 15.3002 16.4999 19.6002 15.4999 25.6002C15.4999 25.8002 15.2999 26.0002 15.0999 26.2002C14.8999 26.3002 14.6999 26.4002 14.4999 26.3002C13.7999 26.1002 13.0999 26.0002 12.4999 26.0002C7.8999 26.0002 4.0999 29.8002 4.0999 34.4002C4.0999 38.7002 7.2999 42.3002 11.5999 42.8002C12.0999 42.8002 12.3999 43.3002 12.2999 43.7002C12.2999 44.1002 11.8999 44.4002 11.4999 44.4002H11.3999C6.2999 43.9002 2.3999 39.6002 2.3999 34.4002C2.4999 29.1002 6.9999 24.5002 12.4999 24.5002Z" fill="black"/>
</g>
</svg>
