<svg width="64" height="64" viewBox="0 0 64 64" fill="none" xmlns="http://www.w3.org/2000/svg">
<path d="M20 40.0002C20 39.9002 20.1 39.8002 20.1 39.7002L20 40.0002ZM31.1 40.0002C31.1 39.9002 31.2 39.8002 31.2 39.7002L31.1 40.0002Z" fill="black"/>
<path d="M23.2001 37.4002H49.7001C49.9002 37.4002 50.1002 37.4002 50.2001 37.4002C54.5001 37.4002 58.0001 33.9002 58.0001 29.6002C58.0001 25.3002 54.5001 21.8002 50.2001 21.8002C49.6002 21.8002 49.0001 21.9002 48.3001 22.0002C48.1001 22.1002 47.9002 22.0002 47.7001 21.9002C47.5001 21.8002 47.4001 21.6002 47.4001 21.4002C46.5001 15.8002 41.8001 11.8002 36.2001 11.8002C29.9001 11.8002 24.8001 16.9002 24.8001 23.2002C24.8001 23.5002 24.8001 23.8002 24.8001 24.1002C24.8001 24.3002 24.7001 24.6002 24.6001 24.7002C24.4001 24.9002 24.2001 24.9002 24.0001 24.9002C23.8001 24.9002 23.5001 24.9002 23.3001 24.9002C19.8001 24.9002 17.0001 27.7002 17.0001 31.2002C16.9001 34.6002 19.8001 37.4002 23.2001 37.4002ZM23.2001 23.3002V23.1002C23.2001 16.0002 29.0001 10.2002 36.1001 10.2002C42.2001 10.2002 47.4002 14.4002 48.7001 20.3002C49.2001 20.2002 49.7001 20.2002 50.2001 20.2002C55.4002 20.2002 59.6001 24.4002 59.6001 29.6002C59.6001 34.8002 55.4002 39.0002 50.2001 39.0002H23.2001C18.9001 39.0002 15.4001 35.5002 15.4001 31.2002C15.4001 26.8002 18.9001 23.3002 23.2001 23.3002Z" fill="black"/>
<path d="M13.8 15C14.3 15 14.8 15 15.3 15.1C16.6 9.2 21.7 5 27.9 5C30.6 5 33.1 5.8 35.3 7.3C35.6 7.5 35.7 8 35.5 8.4C35.3 8.7 34.8 8.8 34.4 8.6C32.5 7.3 30.2 6.5 27.9 6.5C22.3 6.5 17.5 10.5 16.7 16.1C16.7 16.3 16.5 16.5 16.4 16.6C16.2 16.7 16 16.8 15.8 16.7C15.2 16.5 14.5 16.5 13.9 16.5C9.60004 16.5 6.10004 20 6.10004 24.3C6.10004 28.3 9.10004 31.7 13.1 32.1C13.5 32.1 13.8 32.5 13.8 32.9C13.8 33.3 13.4 33.6 13 33.6H12.9C8.10004 33.1 4.50004 29.1 4.50004 24.3C4.40004 19.2 8.60004 15 13.8 15Z" fill="black"/>
<path d="M20.9 46.3002C20.9 47.7002 19.7 48.9002 18.3 48.9002C16.9 48.9002 15.7 47.7002 15.7 46.3002C15.7 44.9002 16.8 43.7002 18.3 43.7002C19.7 43.7002 20.9 44.9002 20.9 46.3002Z" fill="black"/>
<path d="M15.4 55.7001C15.4 57.1001 14.3 58.3001 12.8 58.3001C11.4 58.3001 10.2 57.2001 10.2 55.7001C10.2 54.3001 11.3 53.1001 12.8 53.1001C14.3 53.2001 15.4 54.3001 15.4 55.7001Z" fill="black"/>
<path d="M35.2 46.3002C35.2 47.7002 34 48.9002 32.6 48.9002C31.2 48.9002 30 47.7002 30 46.3002C30 44.9002 31.1 43.7002 32.6 43.7002C34 43.7002 35.2 44.9002 35.2 46.3002Z" fill="black"/>
<path d="M29.7 55.7001C29.7 57.1001 28.6 58.3001 27.1 58.3001C25.7 58.3001 24.5 57.2001 24.5 55.7001C24.5 54.3001 25.6 53.1001 27.1 53.1001C28.6 53.2001 29.7 54.3001 29.7 55.7001Z" fill="black"/>
<path d="M49.3001 46.3002C49.3001 47.7002 48.1001 48.9002 46.7001 48.9002C45.3001 48.9002 44.1001 47.7002 44.1001 46.3002C44.1001 44.9002 45.2001 43.7002 46.7001 43.7002C48.2001 43.7002 49.3001 44.9002 49.3001 46.3002Z" fill="black"/>
<path d="M43.9 55.7001C43.9 57.1001 42.7999 58.3001 41.2999 58.3001C39.8999 58.3001 38.7 57.2001 38.7 55.7001C38.7 54.3001 39.7999 53.1001 41.2999 53.1001C42.6999 53.2001 43.9 54.3001 43.9 55.7001Z" fill="black"/>
</svg>
