<svg width="64" height="64" viewBox="0 0 64 64" fill="none" xmlns="http://www.w3.org/2000/svg">
<path d="M44.9 44.3C45.3 44.5 45.3999 45 45.2999 45.4L40 56.1C39.9 56.4 39.5999 56.5 39.2999 56.5C39.2 56.5 39.1 56.5 38.9 56.4C38.5 56.2 38.2999 55.7 38.5 55.3L43.7999 44.6C44 44.3 44.5 44.1 44.9 44.3ZM23 38.3C19.4 38.3 16.5 35.4 16.5 31.8C16.5 28.2 19.4 25.3 23 25.3C23.2 25.3 23.5 25.3 23.7 25.3C23.9 25.3 24.1999 25.2 24.2999 25.1C24.5 24.9 24.6 24.7 24.5 24.5C24.5 24.2 24.4 23.9 24.4 23.6C24.4 17.1 29.6999 11.9 36.0999 11.9C41.8999 11.9 46.7999 16.1 47.7 21.8C47.7 22 47.9 22.2 48 22.3C48.2 22.4 48.3999 22.5 48.5999 22.4C49.2999 22.2 49.9 22.2 50.5 22.2C54.9 22.2 58.5999 25.8 58.5999 30.3C58.5999 34.7 55 38.4 50.5 38.4C50.2999 38.4 50.0999 38.4 50 38.4H23V38.3ZM22.9 23.8C18.5 23.8 14.9 27.4 14.9 31.9C14.9 36.3 18.5 39.9 22.9 39.9H50.5999C55.8999 39.9 60.2 35.6 60.2 30.3C60.2 25 55.8999 20.7 50.5999 20.7C50.0999 20.7 49.5999 20.7 49.0999 20.8C47.7999 14.7 42.3999 10.4 36.0999 10.4C28.7999 10.4 22.7999 16.4 22.7999 23.7C22.9 23.7 22.9 23.8 22.9 23.8ZM13.3 15.3C7.99995 15.3 3.69995 19.6 3.69995 24.9C3.69995 29.9 7.39995 34 12.3 34.5H12.4C12.8 34.5 13.1 34.2 13.2 33.8C13.2 33.4 12.9 33 12.5 32.9C8.39995 32.5 5.29995 29 5.29995 24.9C5.29995 20.5 8.89995 16.8 13.4 16.8C14 16.8 14.7 16.9 15.3 17C15.5 17.1 15.7 17 15.9 16.9C16.1 16.8 16.2 16.6 16.2 16.4C17.1 10.7 22 6.5 27.7999 6.5C30.1999 6.5 32.5 7.2 34.5 8.6C34.9 8.9 35.3999 8.8 35.5999 8.4C35.7999 8 35.8 7.5 35.4 7.3C33.2 5.8 30.5 5 27.7999 5C21.5 5 16.2 9.3 14.8 15.4C14.3 15.3 13.8 15.3 13.3 15.3Z" fill="black"/>
</svg>
