<svg width="64" height="64" viewBox="0 0 64 64" fill="none" xmlns="http://www.w3.org/2000/svg">
<path d="M23.0001 38.4H50.2001C50.4001 38.4 50.6001 38.4 50.7001 38.4C55.1001 38.4 58.8001 34.8 58.8001 30.3C58.8001 25.8 55.2001 22.2 50.7001 22.2C50.1001 22.2 49.4001 22.3 48.8001 22.4C48.6001 22.5 48.4001 22.4 48.2001 22.3C48.0001 22.2 47.9001 22 47.9001 21.8C47.0001 16.1 42.1001 11.9 36.3001 11.9C29.8001 11.9 24.6001 17.2 24.6001 23.6C24.6001 23.9 24.6001 24.2 24.6001 24.5C24.6001 24.7 24.5001 25 24.4001 25.1C24.2001 25.3 24.0001 25.3 23.8001 25.3C23.6001 25.3 23.3001 25.3 23.1001 25.3C19.5001 25.3 16.6001 28.2 16.6001 31.8C16.6001 35.4 19.4001 38.4 23.0001 38.4ZM22.9001 23.8C22.9001 23.7 22.9001 23.7 22.9001 23.6C22.9001 16.3 28.9001 10.3 36.2001 10.3C42.5001 10.3 47.9001 14.6 49.2001 20.7C49.7001 20.6 50.2001 20.6 50.7001 20.6C56.0001 20.6 60.4001 24.9 60.4001 30.3C60.4001 35.6 56.1001 40 50.7001 40H23.0001C18.6001 40 14.9001 36.4 14.9001 31.9C14.9001 27.5 18.5001 23.9 22.9001 23.8ZM13.3001 15.3C13.8001 15.3 14.3001 15.3 14.8001 15.4C16.1001 9.3 21.4001 5 27.8001 5C30.5001 5 33.2001 5.8 35.4001 7.4C35.8001 7.7 35.8001 8.1 35.6001 8.5C35.3001 8.9 34.8001 8.9 34.5001 8.7C32.5001 7.3 30.2001 6.6 27.8001 6.6C22.0001 6.6 17.1001 10.8 16.2001 16.5C16.2001 16.7 16.0001 16.9 15.9001 17C15.7001 17.1 15.5001 17.2 15.3001 17.1C14.6001 16.9 14.0001 16.9 13.4001 16.9C9.0001 16.9 5.3001 20.5 5.3001 25C5.3001 29.1 8.4001 32.6 12.5001 33C12.9001 33 13.2001 33.4 13.2001 33.9C13.2001 34.3 12.8001 34.6 12.4001 34.6H12.3001C7.4001 34.1 3.6001 30 3.6001 25C3.6001 19.6 7.9001 15.3 13.3001 15.3ZM25.3001 43.6C25.7001 43.8 25.8001 44.3 25.6001 44.6L20.5001 55C20.4001 55.3 20.1001 55.4 19.8001 55.4C19.7001 55.4 19.6001 55.4 19.5001 55.3C19.1001 55.1 19.0001 54.7 19.2001 54.3L24.4001 43.9C24.5001 43.5 25.0001 43.4 25.3001 43.6ZM35.5001 43.6C35.9001 43.8 36.0001 44.3 35.8001 44.6L30.7001 55C30.6001 55.3 30.3001 55.4 30.0001 55.4C29.9001 55.4 29.8001 55.4 29.7001 55.3C29.3001 55.1 29.2001 54.7 29.4001 54.3L34.6001 43.9C34.7001 43.5 35.1001 43.4 35.5001 43.6ZM45.6001 43.6C46.0001 43.8 46.1001 44.3 45.9001 44.6L40.8001 55C40.7001 55.3 40.4001 55.4 40.1001 55.4C40.0001 55.4 39.9001 55.4 39.8001 55.3C39.4001 55.1 39.3001 54.7 39.5001 54.3L44.7001 43.9C44.8001 43.5 45.3001 43.4 45.6001 43.6Z" fill="black"/>
</svg>
