<svg width="64" height="64" viewBox="0 0 64 64" fill="none" xmlns="http://www.w3.org/2000/svg">
<path opacity="0.8" d="M22.6 39.7H50.9C51.1 39.7 51.2999 39.7 51.5 39.7C56.0999 39.7 59.9 35.9 59.9 31.3C59.9 26.7 56.0999 22.9 51.5 22.9C50.7999 22.9 50.2 23 49.5 23.2C49.2999 23.3 49 23.2 48.7999 23.1C48.5999 23 48.5 22.8 48.4 22.5C47.5 16.5 42.4 12.2 36.2999 12.2C29.5999 12.2 24.1 17.7 24.1 24.4C24.1 24.7 24.1 25.1 24.2 25.4C24.2 25.6 24.1 25.9 24 26.1C23.8 26.3 23.6 26.4 23.3 26.3C23.1 26.3 22.8 26.3 22.6 26.3C18.9 26.3 15.9 29.3 15.9 33C15.9 36.7 18.9 39.7 22.6 39.7ZM22.5 24.6C22.5 24.5 22.5 24.5 22.5 24.4C22.5 16.7 28.7 10.5 36.4 10.5C43 10.5 48.5 15 49.9 21.4C50.4 21.3 51 21.3 51.5 21.3C57 21.3 61.5 25.8 61.5 31.3C61.5 36.8 57 41.3 51.5 41.3H22.6C18 41.3 14.2 37.5 14.2 32.9C14.2 28.4 17.9 24.6 22.5 24.6Z" fill="black"/>
<path opacity="0.8" d="M12.4999 15.7C12.9999 15.7 13.4999 15.7 14.0999 15.8C15.4999 9.5 20.9999 5 27.5999 5C30.4999 5 33.1999 5.9 35.4999 7.5C35.8999 7.8 35.9999 8.3 35.6999 8.6C35.4999 9 34.9999 9.1 34.5999 8.9C32.4999 7.5 30.0999 6.7 27.5999 6.7C21.5999 6.7 16.4999 11 15.4999 17C15.4999 17.2 15.2999 17.4 15.0999 17.6C14.8999 17.7 14.6999 17.8 14.4999 17.7C13.7999 17.5 13.0999 17.4 12.4999 17.4C7.8999 17.4 4.0999 21.2 4.0999 25.8C4.0999 30.1 7.2999 33.7 11.5999 34.2C12.0999 34.2 12.3999 34.7 12.2999 35.1C12.2999 35.5 11.8999 35.8 11.4999 35.8H11.3999C6.2999 35.3 2.3999 31 2.3999 25.8C2.4999 20.2 6.9999 15.7 12.4999 15.7Z" fill="black"/>
<path opacity="0.8" d="M21.8 46C21.4 46 21 46.4 21 46.8V48H19.8C19.4 48 19 48.4 19 48.8C19 49.2 19.4 49.6 19.8 49.6H21V50.8C21 51.2 21.4 51.6 21.8 51.6C22 51.6 22.2 51.5 22.4 51.4C22.5 51.3 22.6 51.1 22.6 50.8V49.6H23.8C24 49.6 24.2 49.5 24.4 49.4C24.5 49.3 24.6 49.1 24.6 48.8C24.6 48.4 24.2 48 23.8 48H22.6V46.8C22.6 46.3 22.2 46 21.8 46Z" fill="black"/>
<path opacity="0.8" d="M36.1999 46C35.7999 46 35.3999 46.4 35.3999 46.8V48H34.1999C33.7999 48 33.3999 48.4 33.3999 48.8C33.3999 49.2 33.7999 49.6 34.1999 49.6H35.3999V50.8C35.3999 51.2 35.7999 51.6 36.1999 51.6C36.3999 51.6 36.5999 51.5 36.7999 51.4C36.8999 51.3 36.9999 51.1 36.9999 50.8V49.6H38.1999C38.3999 49.6 38.5999 49.5 38.7999 49.4C38.8999 49.3 38.9999 49.1 38.9999 48.8C38.9999 48.4 38.5999 48 38.1999 48H36.9999V46.8C36.9999 46.3 36.5999 46 36.1999 46Z" fill="black"/>
<path opacity="0.8" d="M50.5998 46C50.1998 46 49.7998 46.4 49.7998 46.8V48H48.5998C48.1998 48 47.7998 48.4 47.7998 48.8C47.7998 49.2 48.1998 49.6 48.5998 49.6H49.7998V50.8C49.7998 51.2 50.1998 51.6 50.5998 51.6C50.7998 51.6 50.9998 51.5 51.1998 51.4C51.2998 51.3 51.3998 51.1 51.3998 50.8V49.6H52.5998C52.7998 49.6 52.9998 49.5 53.1998 49.4C53.2998 49.3 53.3998 49.1 53.3998 48.8C53.3998 48.4 52.9998 48 52.5998 48H51.3998V46.8C51.3998 46.3 50.9998 46 50.5998 46Z" fill="black"/>
<path opacity="0.8" d="M14.5 53.6001C14.1 53.6001 13.7 54.0001 13.7 54.4001V55.6001H12.5C12.1 55.6001 11.7 56.0001 11.7 56.4001C11.7 56.8001 12.1 57.2001 12.5 57.2001H13.7V58.4001C13.7 58.8001 14.1 59.2001 14.5 59.2001C14.7 59.2001 14.9 59.1001 15.1 59.0001C15.2 58.9001 15.3 58.7001 15.3 58.4001V57.2001H16.5C16.7 57.2001 16.9 57.1001 17.1 57.0001C17.2 56.9001 17.3 56.7001 17.3 56.4001C17.3 56.0001 16.9 55.6001 16.5 55.6001H15.3V54.4001C15.3 54.0001 15 53.6001 14.5 53.6001Z" fill="black"/>
<path opacity="0.8" d="M28.8999 53.6001C28.4999 53.6001 28.0999 54.0001 28.0999 54.4001V55.6001H26.8999C26.4999 55.6001 26.0999 56.0001 26.0999 56.4001C26.0999 56.8001 26.4999 57.2001 26.8999 57.2001H28.0999V58.4001C28.0999 58.8001 28.4999 59.2001 28.8999 59.2001C29.0999 59.2001 29.2999 59.1001 29.4999 59.0001C29.5999 58.9001 29.6999 58.7001 29.6999 58.4001V57.2001H30.9999C31.1999 57.2001 31.3999 57.1001 31.5999 57.0001C31.6999 56.9001 31.7999 56.7001 31.7999 56.4001C31.7999 56.0001 31.3999 55.6001 30.9999 55.6001H29.7999V54.4001C29.6999 54.0001 29.3999 53.6001 28.8999 53.6001Z" fill="black"/>
<path opacity="0.8" d="M43.3 53.6001C42.9 53.6001 42.5 54.0001 42.5 54.4001V55.6001H41.3C40.9 55.6001 40.5 56.0001 40.5 56.4001C40.5 56.8001 40.9 57.2001 41.3 57.2001H42.5V58.4001C42.5 58.8001 42.9 59.2001 43.3 59.2001C43.5 59.2001 43.7 59.1001 43.9 59.0001C44 58.9001 44.1 58.7001 44.1 58.4001V57.2001H45.3C45.5 57.2001 45.7 57.1001 45.9 57.0001C46 56.9001 46.1 56.7001 46.1 56.4001C46.1 56.0001 45.7 55.6001 45.3 55.6001H44.1V54.4001C44.1 54.0001 43.8 53.6001 43.3 53.6001Z" fill="black"/>
</svg>
