<svg width="64" height="64" viewBox="0 0 64 64" fill="none" xmlns="http://www.w3.org/2000/svg">
<path d="M32 44.0001C25.4 44.0001 20.1 38.6001 20.1 32.1001C20.1 25.5001 25.5 20.2001 32 20.2001C38.5999 20.2001 43.9 25.6001 43.9 32.1001C43.9 38.7001 38.5999 44.0001 32 44.0001ZM32 18.5001C24.5 18.5001 18.4 24.6001 18.4 32.1001C18.4 39.6001 24.5 45.7001 32 45.7001C39.5 45.7001 45.5999 39.6001 45.5999 32.1001C45.5999 24.6001 39.5 18.5001 32 18.5001ZM32 14.5001C32.5 14.5001 32.7999 14.1001 32.7999 13.7001V6.9001C32.7999 6.4001 32.4 6.1001 32 6.1001C31.5 6.1001 31.2 6.5001 31.2 6.9001V13.6001C31.2 14.1001 31.5 14.5001 32 14.5001ZM32 49.5001C31.5 49.5001 31.2 49.9001 31.2 50.3001V57.0001C31.2 57.5001 31.6 57.8001 32 57.8001C32.5 57.8001 32.7999 57.4001 32.7999 57.0001V50.3001C32.7999 49.9001 32.5 49.5001 32 49.5001ZM41.2 17.1001C41.2999 17.2001 41.5 17.2001 41.5999 17.2001C41.8999 17.2001 42.2 17.1001 42.2999 16.8001L45.7999 11.1001C46 10.7001 45.9 10.2001 45.5 9.9001C45.0999 9.7001 44.5999 9.8001 44.2999 10.2001L40.9 16.0001C40.7 16.4001 40.7999 16.9001 41.2 17.1001ZM22.7999 46.9001C22.4 46.7001 21.9 46.8001 21.6 47.2001L18.1 52.9001C17.9 53.3001 18 53.8001 18.4 54.1001C18.5 54.2001 18.7 54.2001 18.8 54.2001C19.1 54.2001 19.4 54.1001 19.5 53.8001L23 48.1001C23.2999 47.6001 23.1999 47.1001 22.7999 46.9001ZM48.2 24.2001C48.2999 24.2001 48.5 24.2001 48.5999 24.1001L54.5 20.9001C54.9 20.7001 55.0999 20.2001 54.7999 19.8001C54.5999 19.4001 54.1 19.2001 53.7 19.5001L47.7999 22.7001C47.3999 22.9001 47.2 23.4001 47.5 23.8001C47.5999 24.0001 47.9 24.2001 48.2 24.2001ZM15.4 40.0001L9.49995 43.2001C9.09995 43.4001 8.89995 43.9001 9.19995 44.3001C9.39995 44.6001 9.59995 44.7001 9.89995 44.7001C9.99995 44.7001 10.2 44.7001 10.3 44.6001L16.2 41.4001C16.6 41.2001 16.8 40.7001 16.6 40.3001C16.3 39.9001 15.8 39.7001 15.4 40.0001ZM57.0999 31.1001H50.4C49.9 31.1001 49.5999 31.5001 49.5999 31.9001C49.5999 32.4001 50 32.7001 50.4 32.7001H57.0999C57.5999 32.7001 57.9 32.3001 57.9 31.9001C57.9 31.5001 57.5 31.1001 57.0999 31.1001ZM14.5 32.1001C14.5 31.6001 14.1 31.3001 13.7 31.3001H6.99995C6.49995 31.3001 6.19995 31.7001 6.19995 32.1001C6.19995 32.6001 6.59995 32.9001 6.99995 32.9001H13.7C14.1 32.9001 14.5 32.5001 14.5 32.1001ZM54.4 43.3001L48.5 40.1001C48.0999 39.9001 47.6 40.0001 47.4 40.4001C47.2 40.8001 47.2999 41.3001 47.7 41.5001L53.5999 44.7001C53.6999 44.8001 53.9 44.8001 54 44.8001C54.2999 44.8001 54.6 44.6001 54.7 44.4001C55 44.0001 54.8 43.5001 54.4 43.3001ZM16.3 22.5001L10.4 19.3001C9.99995 19.0001 9.49995 19.2001 9.19995 19.6001C8.99995 20.0001 9.19995 20.5001 9.59995 20.7001L15.5 23.9001C15.6 24.0001 15.8 24.0001 15.9 24.0001C16.2 24.0001 16.5 23.8001 16.6 23.6001C16.9 23.2001 16.7 22.7001 16.3 22.5001ZM42.5 47.1001C42.2999 46.7001 41.7 46.6001 41.2999 46.8001C40.8999 47.0001 40.7999 47.6001 41 48.0001L44.5999 53.7001C44.7999 54.0001 45 54.1001 45.2999 54.1001C45.5 54.1001 45.6 54.1001 45.7 54.0001C46.1 53.8001 46.2 53.2001 46 52.8001L42.5 47.1001ZM21.6 16.9001C21.8 17.2001 21.9999 17.3001 22.2999 17.3001C22.5 17.3001 22.6 17.3001 22.7 17.2001C23.1 17.0001 23.2 16.4001 23 16.0001L19.4 10.3001C19.2 9.9001 18.6 9.8001 18.2 10.0001C17.8 10.2001 17.7 10.8001 17.9 11.2001L21.6 16.9001Z" fill="black"/>
</svg>
