<svg width="64" height="64" viewBox="0 0 64 64" fill="none" xmlns="http://www.w3.org/2000/svg">
<path d="M27.4999 52.7998H52.3999C52.5999 52.7998 52.6999 52.7998 52.8999 52.7998C56.9999 52.7998 60.2999 49.4998 60.2999 45.3998C60.2999 41.2998 56.9999 37.9998 52.8999 37.9998C52.2999 37.9998 51.6999 38.0998 51.0999 38.1998C50.8999 38.1998 50.6999 38.1998 50.4999 38.0998C50.2999 37.9998 50.1999 37.7998 50.1999 37.5998C49.3999 32.3998 44.8999 28.5998 39.5999 28.5998C33.6999 28.5998 28.8999 33.3998 28.8999 39.2998C28.8999 39.5998 28.8999 39.8998 28.8999 40.1998C28.8999 40.3998 28.7999 40.5998 28.6999 40.7998C28.5999 40.9998 28.2999 40.9998 28.0999 40.9998C27.8999 40.9998 27.6999 40.9998 27.4999 40.9998C24.1999 40.9998 21.5999 43.6998 21.5999 46.8998C21.5999 50.1998 24.1999 52.7998 27.4999 52.7998ZM27.3999 39.4998C27.3999 39.4998 27.3999 39.3998 27.3999 39.2998C27.3999 32.5998 32.8999 27.0998 39.5999 27.0998C45.3999 27.0998 50.1999 31.0998 51.4999 36.5998C51.9999 36.4998 52.3999 36.4998 52.8999 36.4998C57.7999 36.4998 61.6999 40.3998 61.6999 45.2998C61.6999 50.1998 57.7999 54.0998 52.8999 54.0998C52.7999 54.0998 49.9999 54.0998 46.2999 54.0998H27.4999C23.3999 54.0998 20.0999 50.7998 20.0999 46.6998C20.0999 42.7998 23.3999 39.5998 27.3999 39.4998ZM13.0999 32.1998C13.0999 25.7998 18.2999 20.4998 24.7999 20.4998C28.6999 20.4998 32.0999 22.1998 34.2999 25.4998C34.4999 25.7998 34.3999 26.2998 34.0999 26.4998C33.7999 26.6998 33.2999 26.5998 33.0999 26.2998C31.1999 23.3998 28.1999 21.9998 24.7999 21.9998C19.1999 21.9998 14.5999 26.5998 14.5999 32.1998C14.5999 35.6998 16.3999 38.8998 19.2999 40.7998C19.5999 40.9998 19.6999 41.4998 19.4999 41.7998C19.3999 41.9998 19.0999 42.0998 18.8999 42.0998C18.7999 42.0998 18.5999 42.0998 18.4999 41.9998C15.0999 39.8998 13.0999 36.1998 13.0999 32.1998ZM24.5999 16.9998C24.1999 16.9998 23.8999 16.6998 23.8999 16.2998V10.4998C23.8999 10.0998 24.1999 9.7998 24.5999 9.7998C24.9999 9.7998 25.2999 10.0998 25.2999 10.4998V16.2998C25.2999 16.6998 24.9999 16.9998 24.5999 16.9998ZM16.6999 19.1998C16.5999 19.2998 16.3999 19.2998 16.2999 19.2998C16.0999 19.2998 15.7999 19.1998 15.6999 18.9998L12.6999 14.0998C12.4999 13.7998 12.5999 13.2998 12.8999 13.0998C13.1999 12.8998 13.6999 12.9998 13.8999 13.2998L16.8999 18.1998C17.0999 18.5998 16.9999 18.9998 16.6999 19.1998ZM10.6999 25.2998C10.5999 25.2998 10.4999 25.2998 10.3999 25.1998L5.2999 22.4998C4.8999 22.2998 4.7999 21.8998 4.9999 21.4998C5.1999 21.0998 5.5999 20.9998 5.9999 21.1998L11.0999 23.8998C11.4999 24.0998 11.5999 24.4998 11.3999 24.8998C11.1999 25.1998 10.9999 25.2998 10.6999 25.2998ZM3.0999 31.1998H8.8999C9.2999 31.1998 9.5999 31.4998 9.5999 31.8998C9.5999 32.2998 9.2999 32.5998 8.8999 32.5998H3.0999C2.6999 32.5998 2.3999 32.2998 2.3999 31.8998C2.3999 31.5998 2.6999 31.1998 3.0999 31.1998ZM5.3999 41.6998L10.4999 38.8998C10.8999 38.6998 11.2999 38.7998 11.4999 39.1998C11.6999 39.5998 11.5999 39.9998 11.1999 40.1998L5.9999 42.9998C5.8999 42.9998 5.7999 42.9998 5.6999 42.9998C5.3999 42.9998 5.1999 42.8998 5.0999 42.5998C4.8999 42.2998 4.9999 41.8998 5.3999 41.6998ZM43.8999 22.2998L38.7999 25.0998C38.6999 25.1998 38.5999 25.1998 38.4999 25.1998C38.1999 25.1998 37.9999 25.0998 37.8999 24.7998C37.6999 24.3998 37.7999 23.9998 38.1999 23.7998L43.2999 20.9998C43.6999 20.7998 44.0999 20.8998 44.2999 21.2998C44.2999 21.6998 44.1999 22.0998 43.8999 22.2998ZM15.5999 44.9998C15.7999 44.6998 16.2999 44.5998 16.5999 44.7998C16.8999 44.9998 16.9999 45.4998 16.7999 45.7998L13.6999 50.6998C13.5999 50.8998 13.2999 50.9998 13.0999 50.9998C12.9999 50.9998 12.7999 50.9998 12.6999 50.8998C12.3999 50.6998 12.2999 50.1998 12.4999 49.8998L15.5999 44.9998ZM33.5999 18.9998C33.4999 19.1998 33.1999 19.2998 32.9999 19.2998C32.8999 19.2998 32.6999 19.2998 32.5999 19.1998C32.2999 18.9998 32.1999 18.4998 32.3999 18.1998L35.4999 13.2998C35.6999 12.9998 36.1999 12.8998 36.4999 13.0998C36.7999 13.2998 36.8999 13.7998 36.6999 14.0998L33.5999 18.9998Z" fill="black"/>
</svg>
