<svg width="64" height="64" viewBox="0 0 64 64" fill="none" xmlns="http://www.w3.org/2000/svg">
<path d="M31.5001 51.1998C31.8001 51.3998 32.0001 51.7998 31.8001 52.0998L29.4001 56.7998C29.3001 56.9998 29.0001 57.1998 28.8001 57.1998C28.7001 57.1998 28.6001 57.1998 28.5001 57.0998C28.2001 56.8998 28.0001 56.4998 28.2001 56.1998L30.6001 51.4998C30.7001 51.0998 31.1001 50.9998 31.5001 51.1998ZM40.0001 51.1998C39.7001 50.9998 39.3001 51.1998 39.1001 51.4998L36.7001 56.1998C36.5001 56.4998 36.7001 56.8998 37.0001 57.0998C37.1001 57.0998 37.2001 57.1998 37.3001 57.1998C37.5001 57.1998 37.8001 57.0998 37.9001 56.7998L40.3001 52.0998C40.4001 51.6998 40.3001 51.2998 40.0001 51.1998ZM48.4001 51.1998C48.1001 50.9998 47.7001 51.1998 47.5001 51.4998L45.1001 56.1998C44.9001 56.4998 45.1001 56.8998 45.4001 57.0998C45.5001 57.0998 45.6001 57.1998 45.7001 57.1998C45.9001 57.1998 46.2001 57.0998 46.3001 56.7998L48.7001 52.0998C48.9001 51.6998 48.8001 51.2998 48.4001 51.1998ZM27.8001 46.4998C24.8001 46.4998 22.4001 44.0998 22.4001 41.0998C22.4001 38.0998 24.8001 35.6998 27.8001 35.6998C28.0001 35.6998 28.2001 35.6998 28.4001 35.6998C28.6001 35.6998 28.8001 35.5998 28.9001 35.4998C29.0001 35.3998 29.1001 35.1998 29.1001 34.9998C29.1001 34.6998 29.1001 34.4998 29.1001 34.1998C29.1001 28.7998 33.5001 24.2998 39.0001 24.2998C43.9001 24.2998 48.0001 27.7998 48.7001 32.5998C48.7001 32.7998 48.8001 32.9998 49.0001 33.0998C49.2001 33.1998 49.3001 33.1998 49.5001 33.1998C50.1001 33.0998 50.6001 32.9998 51.1001 32.9998C54.8001 32.9998 57.9001 35.9998 57.9001 39.7998C57.9001 43.4998 54.9001 46.5998 51.1001 46.5998C50.9001 46.5998 50.8001 46.5998 50.6001 46.5998H27.8001V46.4998ZM27.8001 34.2998C24.1001 34.2998 21.1001 37.3998 21.1001 41.0998C21.1001 44.7998 24.1001 47.8998 27.9001 47.8998H51.3001C55.8001 47.8998 59.4001 44.2998 59.4001 39.7998C59.4001 35.2998 55.8001 31.6998 51.3001 31.6998C50.9001 31.6998 50.5001 31.6998 50.0001 31.7998C48.9001 26.6998 44.4001 22.9998 39.1001 22.9998C32.9001 22.9998 27.9001 27.9998 27.9001 34.1998V34.2998H27.8001ZM14.6001 27.5998C14.6001 31.2998 16.5001 34.6998 19.5001 36.6998C19.6001 36.7998 19.7001 36.7998 19.9001 36.7998C20.1001 36.7998 20.3001 36.6998 20.5001 36.4998C20.7001 36.1998 20.6001 35.7998 20.3001 35.5998C17.6001 33.7998 16.0001 30.8998 16.0001 27.6998C16.0001 22.4998 20.2001 18.2998 25.4001 18.2998C28.6001 18.2998 31.3001 19.5998 33.1001 22.2998C33.3001 22.5998 33.7001 22.6998 34.0001 22.4998C34.3001 22.2998 34.4001 21.8998 34.2001 21.5998C32.2001 18.5998 29.1001 16.9998 25.4001 16.9998C19.4001 16.7998 14.6001 21.5998 14.6001 27.5998ZM25.2001 13.4998C25.6001 13.4998 25.9001 13.1998 25.9001 12.7998V7.4998C25.9001 7.0998 25.6001 6.7998 25.2001 6.7998C24.8001 6.7998 24.5001 7.0998 24.5001 7.4998V12.7998C24.5001 13.1998 24.8001 13.4998 25.2001 13.4998ZM17.9001 15.5998C18.2001 15.3998 18.3001 14.9998 18.1001 14.6998L15.3001 10.1998C15.1001 9.8998 14.7001 9.7998 14.4001 9.9998C14.1001 10.1998 14.0001 10.5998 14.2001 10.8998L17.0001 15.3998C17.1001 15.5998 17.3001 15.6998 17.6001 15.6998C17.7001 15.6998 17.8001 15.5998 17.9001 15.5998ZM12.4001 21.1998C12.6001 21.1998 12.9001 21.0998 13.0001 20.7998C13.2001 20.4998 13.1001 20.0998 12.7001 19.8998L8.0001 17.3998C7.7001 17.1998 7.3001 17.3998 7.1001 17.6998C6.9001 17.9998 7.0001 18.3998 7.4001 18.5998L12.1001 21.0998C12.2001 21.1998 12.3001 21.1998 12.4001 21.1998ZM5.3001 26.6998C4.9001 26.6998 4.6001 26.9998 4.6001 27.3998C4.7001 27.6998 5.0001 27.9998 5.3001 27.9998H10.6001C11.0001 27.9998 11.3001 27.6998 11.3001 27.2998C11.3001 26.8998 11.0001 26.5998 10.6001 26.5998L5.3001 26.6998ZM7.4001 36.2998C7.1001 36.4998 7.0001 36.8998 7.1001 37.1998C7.2001 37.3998 7.5001 37.4998 7.7001 37.4998C7.8001 37.4998 7.9001 37.4998 8.0001 37.3998L12.7001 34.7998C13.0001 34.5998 13.1001 34.1998 13.0001 33.8998C12.8001 33.5998 12.4001 33.4998 12.1001 33.5998L7.4001 36.2998ZM42.9001 18.3998C43.2001 18.1998 43.3001 17.7998 43.2001 17.4998C43.0001 17.1998 42.6001 17.0998 42.3001 17.1998L37.6001 19.7998C37.3001 19.9998 37.2001 20.3998 37.3001 20.6998C37.4001 20.8998 37.6001 20.9998 37.9001 20.9998C38.0001 20.9998 38.1001 20.9998 38.2001 20.8998L42.9001 18.3998ZM14.1001 43.7998C13.9001 44.0998 14.0001 44.4998 14.3001 44.6998C14.4001 44.7998 14.5001 44.7998 14.7001 44.7998C14.9001 44.7998 15.1001 44.6998 15.3001 44.4998L18.0001 39.9998C18.2001 39.6998 18.1001 39.2998 17.8001 39.0998C17.5001 38.8998 17.1001 38.9998 16.9001 39.2998L14.1001 43.7998ZM36.3001 10.8998C36.5001 10.5998 36.4001 10.1998 36.1001 9.9998C35.8001 9.7998 35.4001 9.8998 35.2001 10.1998L32.4001 14.6998C32.2001 14.9998 32.3001 15.3998 32.6001 15.5998C32.7001 15.6998 32.8001 15.6998 33.0001 15.6998C33.2001 15.6998 33.4001 15.5998 33.6001 15.3998L36.3001 10.8998Z" fill="black"/>
</svg>
