<svg width="64" height="64" viewBox="0 0 64 64" fill="none" xmlns="http://www.w3.org/2000/svg">
<path d="M4.7001 24.9C4.7001 29 7.8001 32.5 11.9001 32.9C12.3001 32.9 12.7001 33.3 12.6001 33.8C12.6001 34.2 12.2001 34.5 11.8001 34.5H11.7001C6.8001 34 3.1001 29.9 3.1001 24.9C3.1001 19.6 7.4001 15.3 12.7001 15.3C13.2001 15.3 13.7001 15.3 14.2001 15.4C15.6001 9.3 21.0001 5 27.3001 5C30.0001 5 32.7001 5.8 34.9001 7.4C35.3001 7.7 35.3001 8.1 35.1001 8.5C34.8001 8.9 34.4001 8.9 34.0001 8.7C32.0001 7.3 29.7001 6.6 27.3001 6.6C21.5001 6.6 16.6001 10.8 15.7001 16.5C15.7001 16.7 15.5001 16.9 15.4001 17C15.2001 17.1 15.0001 17.2 14.8001 17.1C14.1001 16.9 13.5001 16.9 12.9001 16.9C8.3001 16.9 4.7001 20.5 4.7001 24.9ZM39.6001 50.3H34.0001L38.4001 44C38.7001 43.6 38.6001 43.1 38.2001 42.8C37.8001 42.5 37.3001 42.6 37.0001 43L31.6001 50.6C31.4001 50.9 31.4001 51.2 31.5001 51.5C31.6001 51.8 31.9001 52 32.2001 52H38.0001L33.6001 58.3C33.3001 58.7 33.4001 59.2 33.8001 59.5C33.9001 59.6 34.1001 59.7 34.3001 59.7C34.6001 59.7 34.8001 59.6 35.0001 59.3L40.4001 51.7C40.6001 51.4 40.6001 51.1 40.5001 50.8C40.4001 50.5 39.9001 50.3 39.6001 50.3ZM59.9001 30.3C59.9001 35.6 55.6001 39.9 50.3001 39.9H22.5001C18.1001 39.9 14.5001 36.3 14.5001 31.9C14.5001 27.5 18.1001 23.9 22.5001 23.8C22.5001 23.7 22.5001 23.7 22.5001 23.6C22.5001 16.3 28.5001 10.3 35.8001 10.3C42.1001 10.3 47.4001 14.6 48.8001 20.7C49.3001 20.6 49.8001 20.6 50.3001 20.6C55.5001 20.6 59.9001 25 59.9001 30.3ZM58.3001 30.3C58.3001 25.9 54.7001 22.2 50.2001 22.2C49.6001 22.2 48.9001 22.3 48.3001 22.4C48.1001 22.5 47.9001 22.4 47.7001 22.3C47.5001 22.2 47.4001 22 47.4001 21.8C46.5001 16.1 41.6001 11.9 35.8001 11.9C29.3001 11.9 24.1001 17.2 24.1001 23.6C24.1001 23.9 24.1001 24.2 24.2001 24.5C24.2001 24.7 24.1001 25 24.0001 25.1C23.8001 25.3 23.6001 25.3 23.4001 25.3C23.2001 25.3 22.9001 25.3 22.7001 25.3C19.1001 25.3 16.2001 28.2 16.2001 31.8C16.2001 35.4 19.1001 38.3 22.7001 38.3H49.9001C50.1001 38.3 50.3001 38.3 50.4001 38.3C54.7001 38.3 58.3001 34.7 58.3001 30.3Z" fill="black"/>
</svg>
