<svg width="16" height="16" viewBox="0 0 16 16" fill="none" xmlns="http://www.w3.org/2000/svg">
<path d="M8.0014 1.3335L9.88907 3.21782C10.4093 3.7381 10.6695 4.4318 10.6695 5.09882C10.6695 5.76584 10.4093 6.46954 9.88907 6.98981C9.36879 7.51009 8.6851 7.77356 8.0014 7.77356C7.31771 7.77356 6.63401 7.51009 6.11374 6.98981C5.59347 6.46954 5.33333 5.76584 5.33333 5.09882C5.33333 4.4318 5.59347 3.7381 6.11374 3.21782L8.0014 1.3335Z" fill="#38E7FF"/>
<path d="M5.88907 9.88449L4.0014 8.00016L2.11374 9.88449C1.59347 10.4048 1.33333 11.0985 1.33333 11.7655C1.33333 12.4325 1.59347 13.1362 2.11374 13.6565C2.63401 14.1768 3.31771 14.4402 4.0014 14.4402C4.6851 14.4402 5.36879 14.1768 5.88907 13.6565C6.40934 13.1362 6.66948 12.4325 6.66948 11.7655C6.66948 11.0985 6.40934 10.4048 5.88907 9.88449Z" fill="#38E7FF"/>
<path d="M13.8891 9.88449L12.0014 8.00016L10.1137 9.88449C9.59347 10.4048 9.33333 11.0985 9.33333 11.7655C9.33333 12.4325 9.59347 13.1362 10.1137 13.6565C10.634 14.1768 11.3177 14.4402 12.0014 14.4402C12.6851 14.4402 13.3688 14.1768 13.8891 13.6565C14.4093 13.1362 14.6695 12.4325 14.6695 11.7655C14.6695 11.0985 14.4093 10.4048 13.8891 9.88449Z" fill="#38E7FF"/>
</svg>
