<svg width="16" height="16" viewBox="0 0 16 16" fill="none" xmlns="http://www.w3.org/2000/svg">
<path fill-rule="evenodd" clip-rule="evenodd" d="M13.3333 5.79329V2.66663H10.2067L8 0.459961L5.79333 2.66663H2.66667V5.79329L0.459999 7.99996L2.66667 10.2066V13.3333H5.79333L8 15.54L10.2067 13.3333H13.3333V10.2066L15.54 7.99996L13.3333 5.79329ZM8 12C10.1747 12 11.944 10.2646 11.9987 8.10309C11.9996 8.06884 12 8.03446 12 8C12 5.89328 10.3713 4.16696 8.30443 4.01141C8.20393 4.00382 8.10241 3.99996 8 3.99996C7.89759 3.99996 7.79606 4.00382 7.69557 4.01141C5.62865 4.16696 4 5.89328 4 8C4 10.2091 5.79086 12 8 12ZM8 11C9.65685 11 11 9.65685 11 8C11 6.34315 9.65685 5 8 5C6.34315 5 5 6.34315 5 8C5 9.65685 6.34315 11 8 11Z" fill="#F2C94C"/>
</svg>
