<svg width="16" height="16" viewBox="0 0 16 16" fill="none" xmlns="http://www.w3.org/2000/svg">
<path d="M14.6667 7.3335H11.8867L14.0467 5.1735L13.1067 4.22683L10 7.3335H8.66667V6.00016L11.7733 2.8935L10.8267 1.9535L8.66667 4.1135V1.3335H7.33333V4.1135L5.17333 1.9535L4.22667 2.8935L7.33333 6.00016V7.3335H6L2.89333 4.22683L1.95333 5.1735L4.11333 7.3335H1.33333V8.66683H4.11333L1.95333 10.8268L2.89333 11.7735L6 8.66683H7.33333V10.0002L4.22667 13.1068L5.17333 14.0468L7.33333 11.8868V14.6668H8.66667V11.8868L10.8267 14.0468L11.7733 13.1068L8.66667 10.0002V8.66683H10L13.1067 11.7735L14.0467 10.8268L11.8867 8.66683H14.6667V7.3335Z" fill="#38E7FF"/>
</svg>
