<svg width="78" height="54" viewBox="0 0 78 54" fill="none" xmlns="http://www.w3.org/2000/svg">
<path d="M34.2621 52.2606C28.8663 52.2606 23.9056 49.2145 21.4687 44.5149C19.5541 45.4722 17.4653 45.9074 15.3766 45.9074C7.89207 45.9074 1.79999 39.8153 1.79999 32.3307C1.79999 25.0202 7.63098 19.0152 14.9415 18.7541C14.8545 18.0578 14.7674 17.2746 14.7674 16.5783C14.7674 7.96238 21.7298 1 30.3458 1C37.4822 1 43.7484 5.9607 45.4019 12.8361C47.2295 11.8787 49.3183 11.4436 51.494 11.4436C58.4564 11.4436 64.2003 16.5783 64.9836 23.5407C71.4238 23.5407 76.8197 28.9366 76.9937 35.4638C76.9937 42.0781 71.6849 47.3869 65.0706 47.3869C62.9819 47.3869 60.9803 46.8647 59.1526 45.8203C57.412 48.3442 54.6271 49.8237 51.581 49.8237C49.2312 49.8237 46.9684 48.9534 45.2279 47.2999C42.5299 50.4329 38.5266 52.2606 34.2621 52.2606ZM21.7298 43.4705C21.8168 43.4705 21.8168 43.4705 21.9039 43.4705C21.9909 43.4705 22.0779 43.5576 22.165 43.7316C24.3407 48.4312 29.1273 51.3903 34.3491 51.3903C38.5266 51.3903 42.4429 49.5626 44.9668 46.2555C45.0538 46.1685 45.1408 46.0814 45.3149 46.0814C45.4889 46.0814 45.576 46.0814 45.663 46.2555C47.2295 47.9091 49.4053 48.8664 51.7551 48.8664C54.6271 48.8664 57.238 47.3869 58.8045 44.9501C58.8915 44.776 59.2397 44.689 59.4137 44.776C61.1543 45.9074 63.156 46.4296 65.2447 46.4296C71.3368 46.4296 76.2975 41.4689 76.2975 35.3768C76.1234 29.2847 71.0757 24.324 65.0706 24.324H64.6355C64.3744 24.324 64.2003 24.1499 64.2003 23.8888C63.5911 17.2746 58.1953 12.2268 51.581 12.2268C49.4053 12.2268 47.3166 12.749 45.4019 13.7934C45.3149 13.8804 45.1408 13.8804 44.9668 13.7934C44.8797 13.7064 44.7057 13.6193 44.7057 13.4453C43.3132 6.65694 37.3081 1.69624 30.3458 1.69624C22.252 1.69624 15.6377 8.31051 15.6377 16.4043C15.6377 17.2746 15.7248 18.1449 15.8988 18.9281C15.8988 19.0152 15.8988 19.1892 15.8118 19.2763C15.7248 19.3633 15.6377 19.4503 15.4637 19.4503C8.41426 19.4503 2.67029 25.1943 2.67029 32.1567C2.67029 39.2061 8.41426 44.863 15.3766 44.863C17.4654 44.863 19.5541 44.3408 21.4687 43.3835C21.5558 43.4705 21.6428 43.4705 21.7298 43.4705Z" fill="#F47775" stroke="#F47775" stroke-width="2"/>
</svg>
