<?xml version="1.0" encoding="UTF-8"?>
<svg id="Layer_1" data-name="Layer 1" xmlns="http://www.w3.org/2000/svg" viewBox="0 0 700 700">
  <defs>
    <style>
      .cls-1 {
        fill: #aeb6ff;
      }
    </style>
  </defs>
  <path class="cls-1" d="M594.72,361.76l-113.68,32.48-30.24-17.36,45.92-24.08c5.6-2.8,8.96-8.4,8.96-14.56s-3.36-11.76-8.96-14.56l-45.36-24.08,29.68-17.36,114.24,32.48c1.68,.56,2.8,.56,4.48,.56,7.28,0,14-5.04,16.24-12.32,2.8-8.96-2.8-17.92-11.76-20.72l-82.88-23.52,53.2-30.8c7.84-4.48,10.64-15.12,6.16-22.96-4.48-7.84-14.56-10.64-22.96-6.16l-53.2,30.8,20.72-83.44c2.24-8.96-3.36-17.92-12.32-20.16-8.96-2.24-17.92,3.36-20.16,12.32l-29.12,114.8-30.24,17.36,2.24-51.52c0-6.16-2.8-12.32-8.4-15.12-5.6-3.36-12.32-2.8-17.36,.56l-43.68,27.44v-34.16l85.12-82.32c6.72-6.16,6.72-16.8,.56-23.52-6.16-6.72-16.8-6.72-23.52-.56l-62.16,59.92v-61.6c0-8.96-7.28-16.8-16.8-16.8s-16.8,7.28-16.8,16.8v61.6l-61.6-59.92c-6.72-6.16-17.36-6.16-23.52,.56-6.16,6.72-6.16,17.36,.56,23.52l85.12,82.32v34.72l-43.68-27.44c-5.04-3.36-11.76-3.36-17.36-.56-5.6,3.36-8.4,8.96-8.4,15.12l2.24,51.52-29.68-17.36-29.12-114.8c-2.24-8.96-11.2-14.56-20.16-12.32-8.96,2.24-14.56,11.2-12.32,20.16l20.72,83.44-53.2-30.8c-7.84-4.48-18.48-1.68-22.96,6.16-4.48,7.84-1.68,18.48,6.16,22.96l53.2,30.8-82.88,23.52c-8.96,2.8-14,11.76-11.76,20.72,2.24,7.28,8.96,12.32,16.24,12.32,1.68,0,2.8,0,4.48-.56l113.68-32.48,29.68,17.36-45.36,24.08c-5.6,2.8-8.96,8.4-8.96,14.56s3.36,11.76,8.96,14.56l45.92,24.08-30.24,17.36-114.24-32.48c-8.96-2.24-17.92,2.8-20.72,11.76-2.8,8.96,2.8,17.92,11.76,20.72l82.88,23.52-53.2,30.8c-7.84,4.48-10.64,15.12-6.16,22.96,3.36,5.6,8.96,8.4,14.56,8.4,2.8,0,5.6-.56,8.4-2.24l53.2-30.8-20.72,83.44c-2.24,8.96,3.36,17.92,12.32,20.16,1.12,.56,2.8,.56,3.92,.56,7.28,0,14.56-5.04,16.24-12.88l29.12-114.8,29.68-17.36-2.24,51.52c0,6.16,2.8,11.76,8.4,15.12,2.8,1.68,5.6,2.24,8.4,2.24,3.36,0,6.16-1.12,8.96-2.8l43.68-27.44v34.72l-85.12,82.32c-6.72,6.16-6.72,16.8-.56,23.52,3.36,3.36,7.84,5.04,11.76,5.04s8.4-1.68,11.76-4.48l62.16-59.92v61.6c0,8.96,7.28,16.8,16.8,16.8s16.8-7.28,16.8-16.8v-61.6l61.6,59.92c3.36,3.36,7.28,4.48,11.76,4.48s8.96-1.68,11.76-5.04c6.16-6.72,6.16-17.36-.56-23.52l-85.12-82.32v-34.72l43.68,27.44c5.04,3.36,11.76,3.36,17.36,.56,5.6-3.36,8.4-8.96,8.4-15.12l-2.24-51.52,30.24,17.36,29.12,114.8c1.68,7.84,8.96,12.88,16.24,12.88,1.12,0,2.8,0,3.92-.56,8.96-2.24,14.56-11.2,12.32-20.16l-20.72-83.44,53.2,30.8c2.8,1.68,5.6,2.24,8.4,2.24,5.6,0,11.2-2.8,14.56-8.4,4.48-7.84,1.68-18.48-6.16-22.96l-53.2-30.8,82.88-23.52c8.96-2.8,14-11.76,11.76-20.72-2.8-9.52-12.32-14.55-20.73-12.32h0Zm-142.24-23.52l-36.4,19.04-32.48-19.04,33.04-19.04,35.84,19.04Zm-51.52-89.04l-1.68,40.88-33.04,19.04v-38.08s34.72-21.84,34.72-21.84Zm-102.48,0l34.72,21.84v38.08l-33.04-19.04-1.68-40.88Zm-50.96,89.04l35.84-19.04,33.04,19.04-32.48,19.04-36.4-19.04Zm50.96,88.48l1.68-40.32,33.04-19.04v37.52l-34.72,21.84Zm102.48,0l-34.16-21.84v-38.08l33.04,19.04,1.12,40.88Z"/>
</svg>