<svg width="74" height="73" viewBox="0 0 74 73" fill="none" xmlns="http://www.w3.org/2000/svg">
<path d="M41.7348 70.2109C38.2722 70.2069 35.4661 67.4009 35.4621 63.9382V35.5935C35.4621 34.9039 36.0211 34.3448 36.7108 34.3448C37.4004 34.3448 37.9594 34.9039 37.9594 35.5935V63.9382C37.8982 65.3254 38.6034 66.6343 39.7956 67.3462C40.9878 68.0581 42.4745 68.0581 43.6667 67.3462C44.8589 66.6343 45.5641 65.3254 45.5028 63.9382C45.5028 63.2486 46.0619 62.6896 46.7515 62.6896C47.4411 62.6896 48.0002 63.2486 48.0002 63.9382C47.9961 67.398 45.1946 70.2028 41.7348 70.2109Z" fill="#164A68"/>
<path d="M73.4509 40.669H71.2474L70.9169 39.9345C69.9071 37.6546 67.6481 36.1844 65.1547 36.1844C62.6612 36.1844 60.4022 37.6546 59.3924 39.9345L59.0619 40.669H57.0934L56.7629 39.9345C55.7531 37.6546 53.4941 36.1844 51.0007 36.1844C48.5072 36.1844 46.2482 37.6546 45.2384 39.9345L44.9079 40.669H42.9394L42.6162 39.9345C41.6084 37.6501 39.3471 36.1761 36.8503 36.1761C34.3536 36.1761 32.0922 37.6501 31.0844 39.9345L30.7612 40.669H28.7928L28.4622 39.9345C27.4525 37.6546 25.1935 36.1844 22.7 36.1844C20.2065 36.1844 17.9475 37.6546 16.9378 39.9345L16.6073 40.669H14.6461L14.3156 39.9345C13.3058 37.6546 11.0468 36.1844 8.55336 36.1844C6.05989 36.1844 3.80088 37.6546 2.79113 39.9345L2.46061 40.669H0V39.4203C0.0202496 20.525 15.3329 5.21241 34.2281 5.19217H39.2228C58.1181 5.21241 73.4307 20.525 73.4509 39.4203V40.669ZM22.7037 33.6764C25.4935 33.6799 28.117 35.0039 29.777 37.2462C31.44 35.0094 34.0631 33.691 36.8503 33.691C39.6376 33.691 42.2606 35.0094 43.9237 37.2462C45.5867 35.0094 48.2097 33.691 50.997 33.691C53.7843 33.691 56.4073 35.0094 58.0703 37.2462C59.5072 35.3105 61.6743 34.0479 64.0668 33.7523C66.4593 33.4567 68.8684 34.1539 70.7333 35.6817C68.8235 19.722 55.2963 7.70205 39.2228 7.68216L34.2281 7.68215C18.0648 7.70442 4.49251 19.8544 2.6883 35.9167C4.53599 34.2705 6.99058 33.4769 9.45226 33.7298C11.9139 33.9827 14.1559 35.2587 15.6304 37.2462C17.2903 35.0039 19.9138 33.6799 22.7037 33.6764Z" fill="#164A68"/>
<path d="M37.0119 2.4451C38.2533 2.4451 39.2595 3.45138 39.2595 4.6927V5.8165H34.7643V4.6927C34.7643 3.45138 35.7706 2.4451 37.0119 2.4451Z" fill="#164A68"/>
<path d="M15.6083 40.0006C14.9187 40.0006 14.3597 39.4415 14.3597 38.7519C14.2087 28.6107 18.3014 18.8675 25.6491 11.8762C28.9349 8.6774 32.7687 6.09498 36.9679 4.25201C37.6108 4.0005 38.3359 4.31784 38.5874 4.96081C38.839 5.60377 38.5216 6.32889 37.8786 6.5804C33.9602 8.32792 30.3819 10.7549 27.3091 13.7492C20.3753 20.4406 16.8937 28.8507 16.8937 38.7519C16.8939 39.0895 16.7573 39.4128 16.5151 39.6481C16.2729 39.8833 15.9458 40.0105 15.6083 40.0006Z" fill="#164A68"/>
<path d="M57.9087 40.0006C57.2191 40.0006 56.66 39.4415 56.66 38.7519C56.66 15.6222 35.822 6.65384 35.609 6.5657C35.1693 6.41384 34.8505 6.0302 34.7817 5.57018C34.7129 5.11017 34.9055 4.65003 35.2815 4.37616C35.6574 4.1023 36.1544 4.06011 36.5712 4.26668C40.7639 6.19977 44.5888 8.84664 47.8753 12.0892C55.1565 19.0381 59.2421 28.6872 59.1647 38.7519C59.1607 39.4427 58.5995 40.0006 57.9087 40.0006Z" fill="#164A68"/>
<path d="M29.6375 39.67C28.9728 39.671 28.424 39.1512 28.3888 38.4875C28.3447 37.54 27.2576 15.1227 36.0864 5.35376C36.5543 4.86793 37.3234 4.84147 37.8236 5.29399C38.3238 5.74652 38.3741 6.51445 37.9374 7.02844C29.799 16.0335 30.8494 38.1349 30.8861 38.3553C30.9041 38.6865 30.7895 39.0114 30.5677 39.258C30.3458 39.5047 30.0349 39.653 29.7036 39.67H29.6375Z" fill="#164A68"/>
<path d="M43.7841 39.67H43.7107C43.0235 39.6306 42.4979 39.0425 42.5355 38.3553C42.5355 38.1349 43.6078 16.0262 35.4842 7.02843C35.1683 6.70043 35.056 6.22647 35.1912 5.79162C35.3264 5.35677 35.6876 5.02998 36.1337 4.93886C36.5799 4.84774 37.0403 5.00673 37.3351 5.35375C46.1492 15.1227 45.0769 37.5399 45.0255 38.4875C44.9904 39.1483 44.4459 39.6671 43.7841 39.67Z" fill="#164A68"/>
</svg>
