<?xml version="1.0" encoding="iso-8859-1"?>
<!-- Generator: Adobe Illustrator 19.0.0, SVG Export Plug-In . SVG Version: 6.00 Build 0)  -->
<svg version="1.1" id="Layer_1" xmlns="http://www.w3.org/2000/svg" xmlns:xlink="http://www.w3.org/1999/xlink" x="0px" y="0px"
	 viewBox="0 0 512.001 512.001" style="enable-background:new 0 0 512.001 512.001;" xml:space="preserve">
<path style="fill:#CFF09E;" d="M339.123,263.564c8.62-2.588,17.749-3.999,27.213-3.999c18.303,0,35.382,5.217,49.857,14.223
	c9.734-15.152,15.392-33.173,15.392-52.522c0-53.773-43.592-97.365-97.365-97.365c-41.391,0-76.725,25.84-90.814,62.257
	C286.523,194.711,322.088,224.194,339.123,263.564z"/>
<g>
	<path style="fill:#507C5C;" d="M498.002,389.051c-7.73,0-13.998,6.267-13.998,13.998c0,17.413-14.167,31.58-31.58,31.58H275.189
		c-22.067,0-40.019-17.953-40.019-40.019c0-21.471,16.789-39.028,38.221-39.972c7.724-0.34,13.709-6.877,13.369-14.6
		c-0.339-7.724-6.906-13.711-14.6-13.368c-36.44,1.604-64.986,31.447-64.986,67.941c0,37.504,30.511,68.015,68.015,68.015h177.237
		c32.85,0,59.576-26.726,59.576-59.576C512,395.317,505.733,389.051,498.002,389.051z"/>
	<path style="fill:#507C5C;" d="M173.608,434.627H89.715c-34.033,0-61.72-27.686-61.72-61.719c0-33.113,25.894-60.191,58.951-61.649
		c6.729-0.295,12.291-5.342,13.242-12.01c8.253-57.943,58.677-101.637,117.289-101.637c26.603,0,51.749,8.875,72.01,24.364
		c0.048,0.036,0.094,0.074,0.141,0.111c0.974,0.747,1.933,1.512,2.885,2.29c0.33,0.27,0.656,0.546,0.983,0.82
		c0.654,0.546,1.302,1.1,1.944,1.66c0.426,0.372,0.85,0.747,1.271,1.125c0.515,0.463,1.025,0.935,1.533,1.408
		c0.486,0.454,0.973,0.904,1.452,1.365c0.379,0.364,0.749,0.738,1.123,1.109c2.128,2.107,4.183,4.292,6.151,6.559
		c0.112,0.129,0.227,0.256,0.339,0.386c0.67,0.78,1.33,1.572,1.981,2.371c0.133,0.162,0.266,0.325,0.398,0.489
		c0.662,0.822,1.316,1.65,1.958,2.492c0.074,0.097,0.147,0.195,0.22,0.291c3.525,4.646,6.724,9.57,9.56,14.748
		c0.043,0.078,0.087,0.158,0.13,0.237c0.551,1.012,1.089,2.032,1.613,3.063c0.017,0.032,0.032,0.064,0.049,0.097
		c1.082,2.136,2.104,4.313,3.063,6.526c0.953,2.203,2.42,4.036,4.198,5.432c0.014,0.011,0.028,0.021,0.042,0.032
		c0.336,0.262,0.683,0.508,1.04,0.738c0.025,0.015,0.049,0.032,0.074,0.048c0.35,0.223,0.711,0.428,1.079,0.619
		c0.029,0.015,0.059,0.031,0.088,0.046c0.368,0.186,0.745,0.357,1.128,0.511c0.029,0.013,0.059,0.025,0.088,0.036
		c0.389,0.153,0.784,0.287,1.184,0.405c0.025,0.007,0.05,0.017,0.077,0.024c0.41,0.118,0.826,0.217,1.247,0.297
		c0.017,0.003,0.034,0.008,0.05,0.011c1.316,0.245,2.676,0.308,4.045,0.161c0.042-0.004,0.084-0.014,0.126-0.02
		c0.395-0.046,0.789-0.106,1.184-0.186c0.175-0.036,0.349-0.088,0.523-0.13c0.232-0.057,0.465-0.105,0.696-0.174
		c7.531-2.262,15.332-3.408,23.186-3.408c1.225,0,2.441,0.038,3.653,0.092c0.342,0.015,0.683,0.034,1.025,0.053
		c1.018,0.059,2.031,0.136,3.039,0.232c0.213,0.021,0.428,0.034,0.641,0.056c1.135,0.118,2.262,0.266,3.383,0.431
		c0.409,0.06,0.816,0.126,1.222,0.193c0.823,0.134,1.642,0.281,2.457,0.44c0.364,0.071,0.728,0.136,1.09,0.211
		c1.081,0.225,2.153,0.475,3.217,0.745c0.371,0.094,0.739,0.197,1.109,0.295c0.816,0.218,1.628,0.449,2.434,0.693
		c0.339,0.102,0.679,0.202,1.016,0.309c1.107,0.351,2.207,0.72,3.294,1.117c0.116,0.042,0.232,0.09,0.349,0.133
		c1.037,0.385,2.066,0.792,3.084,1.218c0.193,0.08,0.385,0.161,0.577,0.244c28.748,12.307,48.944,40.872,48.944,74.071
		c0,7.731,6.268,13.998,13.998,13.998s13.998-6.267,13.998-13.998c0-34.049-15.774-64.47-40.383-84.382
		c5.255-10.852,8.697-22.472,10.207-34.448h47.426c7.73,0,13.998-6.267,13.998-13.998c0-7.731-6.268-13.998-13.998-13.998h-47.441
		c-2.552-20.243-10.547-38.803-22.486-54.172l33.578-33.583c5.466-5.466,5.466-14.329,0-19.797c-5.467-5.465-14.328-5.465-19.797,0
		l-33.579,33.579c-15.369-11.939-33.929-19.934-54.171-22.486v-47.44c0-7.731-6.268-13.998-13.998-13.998
		s-13.998,6.267-13.998,13.998v47.417c-17.829,2.234-34.783,8.716-49.662,19.107c-1.551,1.083-3.058,2.214-4.545,3.368
		l-33.544-33.544c-5.467-5.465-14.328-5.465-19.797,0c-5.466,5.466-5.466,14.329,0,19.797l33.53,33.53
		c-4.264,5.498-8.005,11.398-11.183,17.636c-5.775-0.694-11.628-1.067-17.545-1.067c-35.488,0-69.725,12.857-96.402,36.199
		c-23.639,20.684-39.947,48.307-46.644,78.678C31.885,291.74,0,328.61,0,372.909c0,49.469,40.246,89.714,89.715,89.714h83.894
		c7.73,0,13.998-6.267,13.998-13.998S181.338,434.627,173.608,434.627z M263.592,177.031c15.071-23.895,41.81-39.132,70.628-39.132
		c45.968,0,83.367,37.399,83.367,83.367c0,11.687-2.43,23.133-7.1,33.683c-0.367-0.164-0.745-0.302-1.113-0.462
		c-0.808-0.35-1.625-0.682-2.444-1.013c-0.833-0.336-1.664-0.673-2.504-0.99c-0.971-0.365-1.956-0.704-2.941-1.043
		c-0.718-0.246-1.433-0.5-2.157-0.731c-1.138-0.364-2.29-0.694-3.443-1.022c-0.599-0.169-1.194-0.351-1.795-0.511
		c-1.295-0.343-2.605-0.647-3.918-0.942c-0.484-0.109-0.964-0.234-1.45-0.336c-1.424-0.3-2.861-0.556-4.304-0.799
		c-0.395-0.067-0.787-0.15-1.181-0.211c-1.509-0.237-3.032-0.428-4.56-0.602c-0.34-0.039-0.677-0.094-1.019-0.13
		c-1.558-0.162-3.13-0.276-4.707-0.371c-0.314-0.02-0.626-0.055-0.939-0.071c-1.88-0.098-3.771-0.148-5.675-0.148
		c-6.551,0-13.074,0.592-19.499,1.765c-1.074-2.02-2.199-4.001-3.358-5.956c-0.08-0.134-0.161-0.269-0.241-0.405
		c-3.54-5.925-7.465-11.551-11.741-16.85c-0.115-0.143-0.231-0.284-0.347-0.426c-1.344-1.653-2.72-3.277-4.131-4.866
		c-0.091-0.102-0.179-0.206-0.27-0.308c-2.951-3.303-6.044-6.463-9.266-9.472c-0.323-0.302-0.652-0.599-0.978-0.899
		c-1.258-1.153-2.535-2.283-3.831-3.392c-0.407-0.349-0.812-0.7-1.223-1.044c-1.547-1.293-3.113-2.562-4.71-3.788
		c-0.186-0.143-0.372-0.283-0.559-0.424c-1.498-1.139-3.021-2.245-4.562-3.324c-0.677-0.476-1.366-0.936-2.052-1.401
		c-1.013-0.686-2.034-1.359-3.064-2.018c-0.781-0.501-1.562-1.001-2.353-1.487c-1.032-0.633-2.076-1.244-3.123-1.852
		c-1.302-0.756-2.616-1.492-3.942-2.209c-1.037-0.56-2.074-1.123-3.127-1.657c-0.967-0.493-1.946-0.962-2.924-1.433
		c-0.862-0.414-1.726-0.823-2.597-1.222c-1.008-0.461-2.017-0.917-3.036-1.356c-0.911-0.392-1.832-0.763-2.752-1.137
		c-1.561-0.634-3.131-1.242-4.716-1.822c-1.121-0.412-2.241-0.823-3.373-1.208C264.234,177.267,263.916,177.139,263.592,177.031z"/>
</g>
<g>
</g>
<g>
</g>
<g>
</g>
<g>
</g>
<g>
</g>
<g>
</g>
<g>
</g>
<g>
</g>
<g>
</g>
<g>
</g>
<g>
</g>
<g>
</g>
<g>
</g>
<g>
</g>
<g>
</g>
</svg>
