<?xml version="1.0" encoding="UTF-8" standalone="no"?>
<svg
   xmlns:dc="http://purl.org/dc/elements/1.1/"
   xmlns:cc="http://creativecommons.org/ns#"
   xmlns:rdf="http://www.w3.org/1999/02/22-rdf-syntax-ns#"
   xmlns:svg="http://www.w3.org/2000/svg"
   xmlns="http://www.w3.org/2000/svg"
   xmlns:sodipodi="http://sodipodi.sourceforge.net/DTD/sodipodi-0.dtd"
   xmlns:inkscape="http://www.inkscape.org/namespaces/inkscape"
   width="29.700001cm"
   height="21cm"
   viewBox="0 0 1122.5197 793.70076"
   version="1.1"
   id="svg847"
   sodipodi:docname="noun_Cloud_1188486.svg"
   inkscape:export-filename="Z:\claire\Technigo\6. Week 6\project-weather-app\Designs\Design-2\icons\noun_Cloud_1188486.svg.png"
   inkscape:export-xdpi="96"
   inkscape:export-ydpi="96">
  <metadata
     id="metadata853">
    <rdf:RDF>
      <cc:Work
         rdf:about="">
        <dc:format>image/svg+xml</dc:format>
        <dc:type
           rdf:resource="http://purl.org/dc/dcmitype/StillImage" />
        <dc:title></dc:title>
      </cc:Work>
    </rdf:RDF>
  </metadata>
  <defs
     id="defs851" />
  <sodipodi:namedview
     pagecolor="#ffffff"
     bordercolor="#666666"
     borderopacity="1"
     objecttolerance="10"
     gridtolerance="10"
     guidetolerance="10"
     inkscape:pageopacity="0"
     inkscape:pageshadow="2"
     inkscape:window-width="640"
     inkscape:window-height="480"
     id="namedview849"
     showgrid="false"
     units="cm" />
  <g
     transform="translate(405.66209,35.979588)"
     data-name="Group 8"
     id="Group_8">
    <path
       stroke-width="2"
       stroke="#f47775"
       fill="#f47775"
       transform="translate(-6.8,-21.6)"
       d="M 39.262,72.861 A 14.468,14.468 0 0 1 26.469,65.115 13.6,13.6 0 1 1 19.942,39.354 18.322,18.322 0 0 1 19.768,37.178 15.541,15.541 0 0 1 50.4,33.436 a 13.065,13.065 0 0 1 6.092,-1.392 13.5,13.5 0 0 1 13.49,12.1 12.248,12.248 0 0 1 12.01,11.923 A 11.931,11.931 0 0 1 64.153,66.42 9.2,9.2 0 0 1 50.228,67.9 14.45,14.45 0 0 1 39.262,72.861 Z M 26.73,64.071 h 0.17 q 0.131,0 0.261,0.261 a 13.378,13.378 0 0 0 12.188,7.658 13.234,13.234 0 0 0 10.618,-5.135 0.452,0.452 0 0 1 0.348,-0.174 c 0.174,0 0.261,0 0.348,0.174 A 8.351,8.351 0 0 0 63.8,65.55 0.538,0.538 0 0 1 64.409,65.376 10.569,10.569 0 0 0 70.24,67.03 11.068,11.068 0 0 0 81.3,55.977 11.393,11.393 0 0 0 70.071,44.924 h -0.435 a 0.411,0.411 0 0 1 -0.435,-0.435 12.726,12.726 0 0 0 -18.8,-10.1 0.388,0.388 0 0 1 -0.435,0 C 49.879,34.302 49.705,34.215 49.705,34.041 A 14.682,14.682 0 0 0 20.638,37 a 11.815,11.815 0 0 0 0.261,2.524 0.523,0.523 0 0 1 -0.087,0.348 0.452,0.452 0 0 1 -0.348,0.174 12.706574,12.706574 0 1 0 -0.087,25.413 13.669,13.669 0 0 0 6.092,-1.48 0.32,0.32 0 0 0 0.261,0.092 z"
       data-name="Path 13"
       id="Path_13" />
  </g>
  <g
     inkscape:groupmode="layer"
     id="layer1"
     inkscape:label="Layer 1">
    <ellipse
       style="opacity:0;fill:none;stroke:#333333;stroke-width:30;stroke-linecap:round;stroke-linejoin:round"
       id="path2072"
       cx="12.934692"
       cy="10.140799"
       rx="0.51738769"
       ry="1.6556406" />
    <ellipse
       style="opacity:0;fill:none;stroke:#333333;stroke-width:30;stroke-linecap:round;stroke-linejoin:round"
       id="path2074"
       cx="7.2434278"
       cy="6.7260399"
       rx="7.2434278"
       ry="6.7260399" />
    <ellipse
       style="opacity:0;fill:none;stroke:#333333;stroke-width:30;stroke-linecap:round;stroke-linejoin:round"
       id="path2076"
       cx="7.5538602"
       cy="7.0364723"
       rx="7.5538602"
       ry="7.0364723" />
    <ellipse
       style="opacity:0;fill:none;stroke:#333333;stroke-width:30;stroke-linecap:round;stroke-linejoin:round"
       id="path2078"
       cx="7.6573377"
       cy="7.1399503"
       rx="7.6573377"
       ry="7.1399503" />
    <ellipse
       style="opacity:0;fill:none;stroke:#333333;stroke-width:30;stroke-linecap:round;stroke-linejoin:round"
       id="path2080"
       cx="7.8642926"
       cy="7.4503827"
       rx="7.8642926"
       ry="7.4503827" />
    <ellipse
       style="opacity:0;fill:none;stroke:#333333;stroke-width:30;stroke-linecap:round;stroke-linejoin:round"
       id="path2082"
       cx="7.9677706"
       cy="7.6573377"
       rx="7.9677706"
       ry="7.6573377" />
    <ellipse
       style="opacity:0;fill:none;stroke:#333333;stroke-width:30;stroke-linecap:round;stroke-linejoin:round"
       id="path2084"
       cx="8.0712481"
       cy="7.8642926"
       rx="8.0712481"
       ry="7.8642926" />
    <ellipse
       style="opacity:0;fill:none;stroke:#333333;stroke-width:30;stroke-linecap:round;stroke-linejoin:round"
       id="path2086"
       cx="8.485158"
       cy="8.3816805"
       rx="8.485158"
       ry="8.3816805" />
    <ellipse
       style="opacity:0;fill:none;stroke:#333333;stroke-width:30;stroke-linecap:round;stroke-linejoin:round"
       id="path2088"
       cx="8.6921129"
       cy="8.485158"
       rx="8.6921129"
       ry="8.485158" />
    <ellipse
       style="opacity:0;fill:none;stroke:#333333;stroke-width:30;stroke-linecap:round;stroke-linejoin:round"
       id="path2090"
       cx="8.8990679"
       cy="8.7955904"
       rx="8.8990679"
       ry="8.7955904" />
    <circle
       style="opacity:0;fill:none;stroke:#333333;stroke-width:30;stroke-linecap:round;stroke-linejoin:round"
       id="path2092"
       cx="8.8990679"
       cy="8.8990679"
       r="8.8990679" />
    <circle
       style="opacity:0;fill:none;stroke:#333333;stroke-width:30;stroke-linecap:round;stroke-linejoin:round"
       id="path2094"
       cx="9.1060228"
       cy="9.1060228"
       r="9.1060228" />
    <ellipse
       style="opacity:0;fill:none;stroke:#333333;stroke-width:30;stroke-linecap:round;stroke-linejoin:round"
       id="path2096"
       cx="9.3129787"
       cy="9.5199337"
       rx="9.3129787"
       ry="9.5199337" />
    <ellipse
       style="opacity:0;fill:none;stroke:#333333;stroke-width:30;stroke-linecap:round;stroke-linejoin:round"
       id="path2098"
       cx="9.3129787"
       cy="9.6234112"
       rx="9.3129787"
       ry="9.6234112" />
  </g>
  <g
     inkscape:groupmode="layer"
     id="layer2"
     inkscape:label="Layer 2" />
  <rect
     y="7.6096425"
     x="194.04593"
     height="88.974312"
     width="80.779312"
     id="rect3140-5"
     style="opacity:1;fill:#b3d0ce;fill-opacity:1;stroke:none;stroke-width:17.131;stroke-linecap:butt;stroke-linejoin:miter;stroke-miterlimit:4;stroke-dasharray:none" />
  <rect
     y="8.1950026"
     x="282.43488"
     height="88.974312"
     width="80.779312"
     id="rect3140-2"
     style="opacity:1;fill:#a9b8b1;fill-opacity:1;stroke:none;stroke-width:17.131;stroke-linecap:butt;stroke-linejoin:miter;stroke-miterlimit:4;stroke-dasharray:none" />
  <rect
     style="opacity:1;fill:#cbd3d6;fill-opacity:1;stroke:none;stroke-width:17.131;stroke-linecap:butt;stroke-linejoin:miter;stroke-miterlimit:4;stroke-dasharray:none"
     id="rect3140-2-2"
     width="80.779312"
     height="88.974312"
     x="106.53499"
     y="7.6096449" />
  <rect
     y="7.6096449"
     x="18.146072"
     height="88.974312"
     width="80.779312"
     id="rect3140-2-2-2"
     style="opacity:1;fill:#ede471;fill-opacity:1;stroke:none;stroke-width:17.131;stroke-linecap:butt;stroke-linejoin:miter;stroke-miterlimit:4;stroke-dasharray:none" />
  <circle
     style="opacity:1;fill:#ede471;fill-opacity:1;stroke:none;stroke-width:29.9981;stroke-linecap:butt;stroke-linejoin:miter;stroke-miterlimit:4;stroke-dasharray:none"
     id="path3202"
     cx="71.413597"
     cy="212.48471"
     r="55.608948" />
  <circle
     r="55.608948"
     cy="213.07008"
     cx="216.58223"
     id="path3202-9"
     style="opacity:1;fill:none;fill-opacity:1;stroke:#ede471;stroke-width:3.77953;stroke-linecap:butt;stroke-linejoin:miter;stroke-miterlimit:4;stroke-dasharray:none;stroke-opacity:1" />
  <path
     style="fill:#cbd3d6;fill-opacity:1;stroke:none;stroke-width:0.973;stroke-linecap:butt;stroke-linejoin:miter;stroke-miterlimit:4;stroke-dasharray:none;stroke-opacity:1"
     d="m 166.6061,258.1426 127.98675,10e-6 c 0,0 11.40294,-35.70367 -15.2063,-42.05174 0,0 5.14233,-35.8008 -26.85436,-35.8008 -31.99669,0 -27.49098,31.33723 -27.49098,31.33723 -12.71077,-6.26672 -25.06755,-6.10467 -34.50284,-2.42362 -14.99711,5.85091 -26.83852,23.03664 -23.93227,48.93892 z"
     id="path3219"
     sodipodi:nodetypes="cccscsc" />
  <path
     id="path3253-7"
     d="m 350.61877,175.3194 c 0,0 -13.02184,29.79139 0,29.79139 13.02184,0 0,-29.79139 0,-29.79139 z"
     style="fill:#b3d0ce;fill-opacity:1;stroke:none;stroke-width:1.1655px;stroke-linecap:round;stroke-linejoin:round;stroke-opacity:1"
     sodipodi:nodetypes="csc" />
  <path
     sodipodi:nodetypes="csc"
     style="fill:#b3d0ce;fill-opacity:1;stroke:none;stroke-width:1.1655px;stroke-linecap:round;stroke-linejoin:round;stroke-opacity:1"
     d="m 370.056,187.77527 c 0,0 -13.02184,29.79139 0,29.79139 13.02184,0 0,-29.79139 0,-29.79139 z"
     id="path3253-7-7" />
  <path
     id="path3253-7-7-7"
     d="m 353.12462,209.31971 c 0,0 -13.02184,29.79139 0,29.79139 13.02184,0 0,-29.79139 0,-29.79139 z"
     style="fill:#b3d0ce;fill-opacity:1;stroke:none;stroke-width:1.1655px;stroke-linecap:round;stroke-linejoin:round;stroke-opacity:1"
     sodipodi:nodetypes="csc" />
  <path
     id="path3253-7-7-0"
     d="m 383.58476,160.9644 c 0,0 -13.02184,29.79138 0,29.79138 13.02184,0 0,-29.79138 0,-29.79138 z"
     style="fill:#b3d0ce;fill-opacity:1;stroke:none;stroke-width:1.1655px;stroke-linecap:round;stroke-linejoin:round;stroke-opacity:1"
     sodipodi:nodetypes="csc" />
  <path
     id="path3253-7-7-3"
     d="m 389.90389,201.65947 c 0,0 -13.02184,29.79138 0,29.79138 13.02184,0 0,-29.79138 0,-29.79138 z"
     style="fill:#b3d0ce;fill-opacity:1;stroke:none;stroke-width:1.1655px;stroke-linecap:round;stroke-linejoin:round;stroke-opacity:1"
     sodipodi:nodetypes="csc" />
  <path
     id="path3253-7-7-5"
     d="m 373.4586,228.94911 c 0,0 -13.02184,29.79138 0,29.79138 13.02184,0 0,-29.79138 0,-29.79138 z"
     style="fill:#b3d0ce;fill-opacity:1;stroke:none;stroke-width:1.1655px;stroke-linecap:round;stroke-linejoin:round;stroke-opacity:1"
     sodipodi:nodetypes="csc" />
  <path
     id="path3253-7-7-9"
     d="m 403.02824,178.19995 c 0,0 -13.02184,29.79139 0,29.79139 13.02184,0 0,-29.79139 0,-29.79139 z"
     style="fill:#b3d0ce;fill-opacity:1;stroke:none;stroke-width:1.1655px;stroke-linecap:round;stroke-linejoin:round;stroke-opacity:1"
     sodipodi:nodetypes="csc" />
  <path
     id="path3253-7-7-06"
     d="m 405.94477,222.24639 c 0,0 -13.02184,29.79139 0,29.79139 13.02184,0 0,-29.79139 0,-29.79139 z"
     style="fill:#b3d0ce;fill-opacity:1;stroke:none;stroke-width:1.1655px;stroke-linecap:round;stroke-linejoin:round;stroke-opacity:1"
     sodipodi:nodetypes="csc" />
  <path
     sodipodi:nodetypes="cccscsc"
     id="path3219-3"
     d="m 247.10114,390.74989 127.98675,1e-5 c 0,0 11.40294,-35.70367 -15.2063,-42.05174 0,0 5.14233,-35.8008 -26.85436,-35.8008 -31.99669,0 -27.49098,31.33723 -27.49098,31.33723 -12.71077,-6.26672 -25.06755,-6.10467 -34.50284,-2.42362 -14.99711,5.85091 -26.83852,23.03664 -23.93227,48.93892 z"
     style="fill:#cbd3d6;fill-opacity:1;stroke:none;stroke-width:0.973;stroke-linecap:butt;stroke-linejoin:miter;stroke-miterlimit:4;stroke-dasharray:none;stroke-opacity:1" />
  <path
     style="fill:#cbd3d6;fill-opacity:1;stroke:none;stroke-width:0.973;stroke-linecap:butt;stroke-linejoin:miter;stroke-miterlimit:4;stroke-dasharray:none;stroke-opacity:1"
     d="m 375.08789,390.7499 -127.98675,-1e-5 c 0,0 -11.40294,35.70367 15.2063,42.05174 0,0 -5.14233,35.8008 26.85436,35.8008 31.99669,0 27.49098,-31.33723 27.49098,-31.33723 12.71077,6.26672 25.06755,6.10467 34.50284,2.42362 14.99711,-5.85091 26.83852,-23.03664 23.93227,-48.93892 z"
     id="path3219-3-4"
     sodipodi:nodetypes="cccscsc" />
</svg>
