<svg height="53.261" viewBox="0 0 77.194 53.261" width="77.194" xmlns="http://www.w3.org/2000/svg"><path d="m39.262 72.861a14.468 14.468 0 0 1 -12.793-7.746 13.6 13.6 0 1 1 -6.527-25.761 18.322 18.322 0 0 1 -.174-2.176 15.541 15.541 0 0 1 30.632-3.742 13.065 13.065 0 0 1 6.092-1.392 13.5 13.5 0 0 1 13.49 12.1 12.248 12.248 0 0 1 12.01 11.923 11.931 11.931 0 0 1 -17.839 10.353 9.2 9.2 0 0 1 -13.925 1.48 14.45 14.45 0 0 1 -10.966 4.961zm-12.532-8.79h.17q.131 0 .261.261a13.378 13.378 0 0 0 12.188 7.658 13.234 13.234 0 0 0 10.618-5.135.452.452 0 0 1 .348-.174c.174 0 .261 0 .348.174a8.351 8.351 0 0 0 13.137-1.305.538.538 0 0 1 .609-.174 10.569 10.569 0 0 0 5.831 1.654 11.068 11.068 0 0 0 11.06-11.053 11.393 11.393 0 0 0 -11.229-11.053h-.435a.411.411 0 0 1 -.435-.435 12.726 12.726 0 0 0 -18.8-10.1.388.388 0 0 1 -.435 0c-.087-.087-.261-.174-.261-.348a14.682 14.682 0 0 0 -29.067 2.959 11.815 11.815 0 0 0 .261 2.524.523.523 0 0 1 -.087.348.452.452 0 0 1 -.348.174 12.706 12.706 0 1 0 -.087 25.413 13.669 13.669 0 0 0 6.092-1.48.32.32 0 0 0 .261.092z" fill="#f47775" stroke="#f47775" stroke-width="2" transform="translate(-5.8 -20.6)"/></svg>