<?xml version="1.0" encoding="utf-8"?>
<!-- Generator: Adobe Illustrator 25.4.1, SVG Export Plug-In . SVG Version: 6.00 Build 0)  -->
<svg version="1.1" id="Lager_1" xmlns="http://www.w3.org/2000/svg" xmlns:xlink="http://www.w3.org/1999/xlink" x="0px" y="0px"
	 viewBox="0 0 72.8 58.9" style="enable-background:new 0 0 72.8 58.9;" xml:space="preserve">
<style type="text/css">
	.st0{fill:#862C4D;}
</style>
<g>
	<path class="st0" d="M60.7,9.7c-2.4,0.4-4.6,1.4-6.2,3c-1.2,1.2-2.1,2.7-2.6,4.2c-0.6,1.6-0.7,3.3-0.5,5c0,0.5,0.3,0.9,0.6,1.1
		c0.3,0.2,0.7,0.3,1.1,0.3c0.8-0.2,1.6-0.9,1.4-1.7c-0.1-1-0.2-2.4,0.3-3.6c0.5-1.2,1.1-2.1,1.9-2.9c1.3-1.5,3.2-2,4.2-2.2
		c3.3-0.4,6.7,1.5,7.9,4.6c0.7,1.5,0.8,3.2,0.4,4.8c-0.4,1.6-1.3,3-2.6,4c-1.4,1.1-2.9,1.6-4.4,1.6H1.6c-0.8,0-1.6,0.6-1.6,1.6
		c0,0.8,0.8,1.6,1.6,1.6h60.6c2.2,0,4.7-0.9,6.5-2.3c1.9-1.5,3.2-3.5,3.7-5.8c0.6-2.4,0.4-4.7-0.5-6.7C70.1,11.8,65.4,9.1,60.7,9.7z
		"/>
	<path class="st0" d="M52.8,39.8c-2-1.5-4.3-2.3-6.5-2.3H20.9c-1,0-1.6,0.8-1.6,1.6s0.6,1.6,1.6,1.6h25.5c1.6,0,3.1,0.6,4.3,1.7
		c1.3,0.9,2.2,2.2,2.6,4c0.4,1.6,0.3,3.2-0.3,4.8c-1.4,3.1-4.6,5-7.9,4.6c-1.8-0.3-3.2-1-4.4-2.2c-0.9-0.9-1.6-1.9-1.8-3
		c-0.4-1.1-0.5-2.4-0.3-3.6c0-0.3-0.1-0.8-0.4-1.1c-0.3-0.3-0.6-0.6-1-0.6c-0.1,0-0.2,0-0.3,0c-0.9,0-1.5,0.7-1.6,1.4
		c-0.2,1.5,0,3.1,0.5,5c0.7,1.8,1.6,3.1,2.6,4.1c1.7,1.7,3.7,2.7,6.2,3c4.7,0.6,9.3-2.1,11.1-6.5c1-2.1,1.2-4.5,0.6-6.7
		C55.9,43.3,54.7,41.3,52.8,39.8z"/>
	<path class="st0" d="M11.2,21.4h26.1c2.3,0,4.8-0.8,6.5-2.2c1.9-1.6,3.2-3.7,3.7-5.8c0.6-2.4,0.4-4.7-0.5-6.7c-1-2.3-2.6-4-4.5-5.1
		c-2.1-1.3-4.4-1.8-6.7-1.4c-2.3,0.2-4.5,1.3-6.2,3c-1.2,1.2-2.1,2.7-2.6,4.2c-0.6,1.6-0.7,3.3-0.5,5c0.1,0.8,0.9,1.4,1.8,1.4
		c0.7-0.2,1.5-0.9,1.3-1.9c-0.2-1.4-0.1-2.5,0.3-3.5c0.5-1.2,1-2.1,1.9-3c1-1,2.6-1.8,4.2-2.1c0.3,0,0.6,0,0.9,0
		c1.5,0,2.8,0.3,3.9,1c1.5,0.8,2.6,2.1,3.2,3.6c0.7,1.5,0.8,3.1,0.4,4.8c-0.4,1.6-1.3,3-2.6,4c-1.2,0.9-2.7,1.5-4.4,1.6l-26.3,0
		c-0.9,0-1.5,0.7-1.5,1.6C9.7,20.7,10.4,21.4,11.2,21.4z"/>
</g>
</svg>
